G04 (created by PCBNEW (2013-june-11)-stable) date Tue 21 Jan 2014 09:35:55 AM PST*
%MOIN*%
G04 Gerber Fmt 3.4, Leading zero omitted, Abs format*
%FSLAX34Y34*%
G01*
G70*
G90*
G04 APERTURE LIST*
%ADD10C,0.00590551*%
%ADD11C,0.0039*%
%ADD12C,0.0028*%
%ADD13C,0.01*%
%ADD14C,0.0354*%
%ADD15R,0.0177X0.0118*%
%ADD16R,0.0157X0.0236*%
%ADD17R,0.0354331X0.0314961*%
%ADD18R,0.06X0.06*%
%ADD19C,0.06*%
G04 APERTURE END LIST*
G54D10*
G54D11*
X74663Y-54335D02*
X73837Y-54335D01*
X73837Y-54335D02*
X73837Y-53665D01*
X73837Y-53665D02*
X74663Y-53665D01*
X74663Y-53665D02*
X74663Y-54335D01*
G54D12*
X74350Y-55650D02*
X74550Y-55650D01*
X74550Y-55650D02*
X74550Y-55350D01*
X74550Y-55350D02*
X74350Y-55350D01*
X74150Y-55650D02*
X73950Y-55650D01*
X73950Y-55650D02*
X73950Y-55350D01*
X73950Y-55350D02*
X74150Y-55350D01*
X74350Y-56150D02*
X74550Y-56150D01*
X74550Y-56150D02*
X74550Y-55850D01*
X74550Y-55850D02*
X74350Y-55850D01*
X74150Y-56150D02*
X73950Y-56150D01*
X73950Y-56150D02*
X73950Y-55850D01*
X73950Y-55850D02*
X74150Y-55850D01*
X72850Y-54150D02*
X73050Y-54150D01*
X73050Y-54150D02*
X73050Y-53850D01*
X73050Y-53850D02*
X72850Y-53850D01*
X72650Y-54150D02*
X72450Y-54150D01*
X72450Y-54150D02*
X72450Y-53850D01*
X72450Y-53850D02*
X72650Y-53850D01*
X72650Y-55850D02*
X72450Y-55850D01*
X72450Y-55850D02*
X72450Y-56150D01*
X72450Y-56150D02*
X72650Y-56150D01*
X72850Y-55850D02*
X73050Y-55850D01*
X73050Y-55850D02*
X73050Y-56150D01*
X73050Y-56150D02*
X72850Y-56150D01*
G54D10*
X73289Y-54409D02*
X72659Y-54409D01*
X72679Y-54409D02*
X72679Y-55590D01*
X72679Y-55590D02*
X73309Y-55590D01*
X73309Y-55590D02*
X73309Y-54409D01*
G54D13*
X76000Y-51500D02*
X72000Y-51500D01*
X76000Y-50500D02*
X72000Y-50500D01*
X72000Y-50500D02*
X72000Y-51500D01*
X76000Y-51500D02*
X76000Y-50500D01*
X76000Y-57500D02*
X72000Y-57500D01*
X76000Y-56500D02*
X72000Y-56500D01*
X72000Y-56500D02*
X72000Y-57500D01*
X76000Y-57500D02*
X76000Y-56500D01*
G54D11*
X74099Y-54354D02*
X74099Y-54514D01*
X74109Y-54532D01*
X74118Y-54542D01*
X74137Y-54551D01*
X74174Y-54551D01*
X74193Y-54542D01*
X74203Y-54532D01*
X74212Y-54514D01*
X74212Y-54354D01*
X74409Y-54551D02*
X74296Y-54551D01*
X74353Y-54551D02*
X74353Y-54354D01*
X74334Y-54382D01*
X74315Y-54401D01*
X74296Y-54411D01*
X72913Y-53351D02*
X73025Y-53351D01*
X72969Y-53548D02*
X72969Y-53351D01*
X73091Y-53548D02*
X73091Y-53351D01*
X73166Y-53351D01*
X73185Y-53361D01*
X73194Y-53370D01*
X73204Y-53389D01*
X73204Y-53417D01*
X73194Y-53436D01*
X73185Y-53445D01*
X73166Y-53454D01*
X73091Y-53454D01*
X73288Y-53548D02*
X73288Y-53351D01*
X73335Y-53351D01*
X73363Y-53361D01*
X73382Y-53379D01*
X73391Y-53398D01*
X73401Y-53436D01*
X73401Y-53464D01*
X73391Y-53501D01*
X73382Y-53520D01*
X73363Y-53539D01*
X73335Y-53548D01*
X73288Y-53548D01*
X73476Y-53370D02*
X73485Y-53361D01*
X73504Y-53351D01*
X73551Y-53351D01*
X73569Y-53361D01*
X73579Y-53370D01*
X73588Y-53389D01*
X73588Y-53408D01*
X73579Y-53436D01*
X73466Y-53548D01*
X73588Y-53548D01*
X73673Y-53445D02*
X73738Y-53445D01*
X73766Y-53548D02*
X73673Y-53548D01*
X73673Y-53351D01*
X73766Y-53351D01*
X73888Y-53351D02*
X73907Y-53351D01*
X73926Y-53361D01*
X73935Y-53370D01*
X73945Y-53389D01*
X73954Y-53426D01*
X73954Y-53473D01*
X73945Y-53511D01*
X73935Y-53529D01*
X73926Y-53539D01*
X73907Y-53548D01*
X73888Y-53548D01*
X73870Y-53539D01*
X73860Y-53529D01*
X73851Y-53511D01*
X73841Y-53473D01*
X73841Y-53426D01*
X73851Y-53389D01*
X73860Y-53370D01*
X73870Y-53361D01*
X73888Y-53351D01*
X74076Y-53351D02*
X74095Y-53351D01*
X74113Y-53361D01*
X74123Y-53370D01*
X74132Y-53389D01*
X74142Y-53426D01*
X74142Y-53473D01*
X74132Y-53511D01*
X74123Y-53529D01*
X74113Y-53539D01*
X74095Y-53548D01*
X74076Y-53548D01*
X74057Y-53539D01*
X74048Y-53529D01*
X74038Y-53511D01*
X74029Y-53473D01*
X74029Y-53426D01*
X74038Y-53389D01*
X74048Y-53370D01*
X74057Y-53361D01*
X74076Y-53351D01*
X74329Y-53548D02*
X74217Y-53548D01*
X74273Y-53548D02*
X74273Y-53351D01*
X74254Y-53379D01*
X74235Y-53398D01*
X74217Y-53408D01*
X74414Y-53548D02*
X74414Y-53351D01*
X74507Y-53548D02*
X74507Y-53351D01*
X74554Y-53351D01*
X74583Y-53361D01*
X74601Y-53379D01*
X74611Y-53398D01*
X74620Y-53436D01*
X74620Y-53464D01*
X74611Y-53501D01*
X74601Y-53520D01*
X74583Y-53539D01*
X74554Y-53548D01*
X74507Y-53548D01*
X74817Y-53548D02*
X74751Y-53454D01*
X74704Y-53548D02*
X74704Y-53351D01*
X74780Y-53351D01*
X74798Y-53361D01*
X74808Y-53370D01*
X74817Y-53389D01*
X74817Y-53417D01*
X74808Y-53436D01*
X74798Y-53445D01*
X74780Y-53454D01*
X74704Y-53454D01*
X74995Y-53548D02*
X74901Y-53548D01*
X74901Y-53351D01*
X75174Y-53548D02*
X75108Y-53454D01*
X75061Y-53548D02*
X75061Y-53351D01*
X75136Y-53351D01*
X75155Y-53361D01*
X75164Y-53370D01*
X75174Y-53389D01*
X75174Y-53417D01*
X75164Y-53436D01*
X75155Y-53445D01*
X75136Y-53454D01*
X75061Y-53454D01*
X75389Y-53567D02*
X75371Y-53558D01*
X75352Y-53539D01*
X75324Y-53511D01*
X75305Y-53501D01*
X75286Y-53501D01*
X75295Y-53548D02*
X75277Y-53539D01*
X75258Y-53520D01*
X75249Y-53483D01*
X75249Y-53417D01*
X75258Y-53379D01*
X75277Y-53361D01*
X75295Y-53351D01*
X75333Y-53351D01*
X75352Y-53361D01*
X75371Y-53379D01*
X75380Y-53417D01*
X75380Y-53483D01*
X75371Y-53520D01*
X75352Y-53539D01*
X75333Y-53548D01*
X75295Y-53548D01*
X75568Y-53548D02*
X75455Y-53548D01*
X75511Y-53548D02*
X75511Y-53351D01*
X75492Y-53379D01*
X75474Y-53398D01*
X75455Y-53408D01*
G54D12*
X74230Y-55555D02*
X74190Y-55490D01*
X74161Y-55555D02*
X74161Y-55417D01*
X74207Y-55417D01*
X74218Y-55424D01*
X74224Y-55431D01*
X74230Y-55444D01*
X74230Y-55463D01*
X74224Y-55477D01*
X74218Y-55483D01*
X74207Y-55490D01*
X74161Y-55490D01*
X74344Y-55555D02*
X74275Y-55555D01*
X74310Y-55555D02*
X74310Y-55417D01*
X74298Y-55437D01*
X74287Y-55450D01*
X74275Y-55457D01*
X74230Y-56042D02*
X74224Y-56049D01*
X74207Y-56055D01*
X74195Y-56055D01*
X74178Y-56049D01*
X74167Y-56036D01*
X74161Y-56023D01*
X74155Y-55996D01*
X74155Y-55977D01*
X74161Y-55950D01*
X74167Y-55937D01*
X74178Y-55924D01*
X74195Y-55917D01*
X74207Y-55917D01*
X74224Y-55924D01*
X74230Y-55931D01*
X74344Y-56055D02*
X74275Y-56055D01*
X74310Y-56055D02*
X74310Y-55917D01*
X74298Y-55937D01*
X74287Y-55950D01*
X74275Y-55957D01*
X72730Y-54042D02*
X72724Y-54049D01*
X72707Y-54055D01*
X72695Y-54055D01*
X72678Y-54049D01*
X72667Y-54036D01*
X72661Y-54023D01*
X72655Y-53996D01*
X72655Y-53977D01*
X72661Y-53950D01*
X72667Y-53937D01*
X72678Y-53924D01*
X72695Y-53917D01*
X72707Y-53917D01*
X72724Y-53924D01*
X72730Y-53931D01*
X72775Y-53931D02*
X72781Y-53924D01*
X72792Y-53917D01*
X72821Y-53917D01*
X72832Y-53924D01*
X72838Y-53931D01*
X72844Y-53944D01*
X72844Y-53957D01*
X72838Y-53977D01*
X72770Y-54055D01*
X72844Y-54055D01*
X72730Y-56042D02*
X72724Y-56049D01*
X72707Y-56055D01*
X72695Y-56055D01*
X72678Y-56049D01*
X72667Y-56036D01*
X72661Y-56023D01*
X72655Y-55996D01*
X72655Y-55977D01*
X72661Y-55950D01*
X72667Y-55937D01*
X72678Y-55924D01*
X72695Y-55917D01*
X72707Y-55917D01*
X72724Y-55924D01*
X72730Y-55931D01*
X72770Y-55917D02*
X72844Y-55917D01*
X72804Y-55970D01*
X72821Y-55970D01*
X72832Y-55977D01*
X72838Y-55983D01*
X72844Y-55996D01*
X72844Y-56029D01*
X72838Y-56042D01*
X72832Y-56049D01*
X72821Y-56055D01*
X72787Y-56055D01*
X72775Y-56049D01*
X72770Y-56042D01*
G54D10*
X72720Y-55299D02*
X73039Y-55299D01*
X73076Y-55281D01*
X73095Y-55262D01*
X73114Y-55224D01*
X73114Y-55149D01*
X73095Y-55112D01*
X73076Y-55093D01*
X73039Y-55074D01*
X72720Y-55074D01*
X72757Y-54906D02*
X72739Y-54887D01*
X72720Y-54850D01*
X72720Y-54756D01*
X72739Y-54718D01*
X72757Y-54700D01*
X72795Y-54681D01*
X72832Y-54681D01*
X72889Y-54700D01*
X73114Y-54925D01*
X73114Y-54681D01*
%LPC*%
G54D14*
X74335Y-54866D03*
X74335Y-53134D03*
G54D15*
X74526Y-54197D03*
X74526Y-53803D03*
X73974Y-54197D03*
X74526Y-54000D03*
X73974Y-53803D03*
G54D16*
X74427Y-55500D03*
X74073Y-55500D03*
X74427Y-56000D03*
X74073Y-56000D03*
X72927Y-54000D03*
X72573Y-54000D03*
X72573Y-56000D03*
X72927Y-56000D03*
G54D17*
X72561Y-54606D03*
X72561Y-55393D03*
X73427Y-55000D03*
G54D18*
X72500Y-51000D03*
G54D19*
X73500Y-51000D03*
X74500Y-51000D03*
X75500Y-51000D03*
G54D18*
X72500Y-57000D03*
G54D19*
X73500Y-57000D03*
X74500Y-57000D03*
X75500Y-57000D03*
M02*
