G04 (created by PCBNEW (2013-june-11)-stable) date Sat 19 Jul 2014 01:12:28 PM PDT*
%MOIN*%
G04 Gerber Fmt 3.4, Leading zero omitted, Abs format*
%FSLAX34Y34*%
G01*
G70*
G90*
G04 APERTURE LIST*
%ADD10C,0.00590551*%
%ADD11R,0.0177X0.0118*%
%ADD12R,0.0157X0.0236*%
%ADD13R,0.0354331X0.0314961*%
%ADD14R,0.06X0.06*%
%ADD15C,0.06*%
%ADD16C,0.023*%
%ADD17C,0.035*%
%ADD18C,0.01*%
%ADD19C,0.008*%
%ADD20C,0.02*%
%ADD21C,0.015*%
%ADD22C,0.006*%
G04 APERTURE END LIST*
G54D10*
G54D11*
X75376Y-53222D03*
X75376Y-52828D03*
X74824Y-53222D03*
X75376Y-53025D03*
X74824Y-52828D03*
G54D12*
X75277Y-54525D03*
X74923Y-54525D03*
X75277Y-55025D03*
X74923Y-55025D03*
X73777Y-53025D03*
X73423Y-53025D03*
X73423Y-55025D03*
X73777Y-55025D03*
G54D13*
X73411Y-53631D03*
X73411Y-54418D03*
X74277Y-54025D03*
G54D14*
X72500Y-51500D03*
G54D15*
X73500Y-51500D03*
X74500Y-51500D03*
X75500Y-51500D03*
G54D14*
X72500Y-56500D03*
G54D15*
X73500Y-56500D03*
X74500Y-56500D03*
X75500Y-56500D03*
G54D16*
X74500Y-53675D03*
X74150Y-53675D03*
X74800Y-53675D03*
G54D17*
X75475Y-55125D03*
X74450Y-52650D03*
X75725Y-53000D03*
X74275Y-54425D03*
G54D18*
X75376Y-52828D02*
X75376Y-52765D01*
X75185Y-51814D02*
X75500Y-51500D01*
X75185Y-52575D02*
X75185Y-51814D01*
X75376Y-52765D02*
X75185Y-52575D01*
G54D19*
X75376Y-52828D02*
X75272Y-52828D01*
G54D18*
X74500Y-53675D02*
X74500Y-53625D01*
X74500Y-53625D02*
X74700Y-53425D01*
X74700Y-53425D02*
X74975Y-53425D01*
X74975Y-53425D02*
X75175Y-53225D01*
G54D19*
X75175Y-52925D02*
X75175Y-53225D01*
X75272Y-52828D02*
X75175Y-52925D01*
G54D18*
X75025Y-52625D02*
X75025Y-52025D01*
G54D19*
X74953Y-53222D02*
X75034Y-53140D01*
X75034Y-53140D02*
X75034Y-52634D01*
X75034Y-52634D02*
X75025Y-52625D01*
X74824Y-53222D02*
X74953Y-53222D01*
G54D18*
X75025Y-52025D02*
X74500Y-51500D01*
X74676Y-53222D02*
X74824Y-53222D01*
X74461Y-53436D02*
X74676Y-53222D01*
X74388Y-53436D02*
X74461Y-53436D01*
X74150Y-53675D02*
X74388Y-53436D01*
X75775Y-54700D02*
X75775Y-56225D01*
X74800Y-53675D02*
X75425Y-53675D01*
X75425Y-53675D02*
X75775Y-54025D01*
X75775Y-54025D02*
X75775Y-54700D01*
X75775Y-56225D02*
X75500Y-56500D01*
G54D20*
X75277Y-55025D02*
X75375Y-55025D01*
X75375Y-55025D02*
X75475Y-55125D01*
X75277Y-54525D02*
X75277Y-55025D01*
G54D21*
X75725Y-53000D02*
X75725Y-53075D01*
G54D20*
X74277Y-52477D02*
X74450Y-52650D01*
X73777Y-52477D02*
X74277Y-52477D01*
G54D21*
X75578Y-53222D02*
X75376Y-53222D01*
X75725Y-53075D02*
X75578Y-53222D01*
G54D20*
X73777Y-53025D02*
X73777Y-52477D01*
X72800Y-51500D02*
X72500Y-51500D01*
X73777Y-52477D02*
X72800Y-51500D01*
X74277Y-54025D02*
X74075Y-54025D01*
X73777Y-53727D02*
X73777Y-53025D01*
X74075Y-54025D02*
X73777Y-53727D01*
X74277Y-54422D02*
X74277Y-54025D01*
X74275Y-54425D02*
X74277Y-54422D01*
X73411Y-54418D02*
X73411Y-55013D01*
X72500Y-55924D02*
X72500Y-56500D01*
X73411Y-55013D02*
X72500Y-55924D01*
G54D10*
G36*
X75890Y-56890D02*
X75091Y-56890D01*
X74896Y-56890D01*
X74896Y-56523D01*
X74883Y-56428D01*
X74883Y-55210D01*
X74883Y-55084D01*
X74883Y-54966D01*
X74883Y-54839D01*
X74883Y-54710D01*
X74883Y-54584D01*
X74883Y-54466D01*
X74883Y-54339D01*
X74861Y-54317D01*
X74826Y-54316D01*
X74793Y-54330D01*
X74768Y-54355D01*
X74754Y-54389D01*
X74754Y-54424D01*
X74754Y-54443D01*
X74777Y-54466D01*
X74883Y-54466D01*
X74883Y-54584D01*
X74777Y-54584D01*
X74754Y-54606D01*
X74754Y-54625D01*
X74754Y-54660D01*
X74768Y-54694D01*
X74793Y-54719D01*
X74826Y-54733D01*
X74861Y-54733D01*
X74883Y-54710D01*
X74883Y-54839D01*
X74861Y-54817D01*
X74826Y-54816D01*
X74793Y-54830D01*
X74768Y-54855D01*
X74754Y-54889D01*
X74754Y-54924D01*
X74754Y-54943D01*
X74777Y-54966D01*
X74883Y-54966D01*
X74883Y-55084D01*
X74777Y-55084D01*
X74754Y-55106D01*
X74754Y-55125D01*
X74754Y-55160D01*
X74768Y-55194D01*
X74793Y-55219D01*
X74826Y-55233D01*
X74861Y-55233D01*
X74883Y-55210D01*
X74883Y-56428D01*
X74875Y-56369D01*
X74857Y-56326D01*
X74810Y-56288D01*
X74711Y-56387D01*
X74711Y-56189D01*
X74673Y-56142D01*
X74523Y-56103D01*
X74369Y-56124D01*
X74326Y-56142D01*
X74288Y-56189D01*
X74500Y-56401D01*
X74711Y-56189D01*
X74711Y-56387D01*
X74598Y-56500D01*
X74810Y-56711D01*
X74857Y-56673D01*
X74896Y-56523D01*
X74896Y-56890D01*
X74524Y-56890D01*
X74630Y-56875D01*
X74673Y-56857D01*
X74711Y-56810D01*
X74500Y-56598D01*
X74401Y-56697D01*
X74401Y-56500D01*
X74189Y-56288D01*
X74142Y-56326D01*
X74103Y-56476D01*
X74124Y-56630D01*
X74142Y-56673D01*
X74189Y-56711D01*
X74401Y-56500D01*
X74401Y-56697D01*
X74288Y-56810D01*
X74326Y-56857D01*
X74451Y-56890D01*
X73945Y-56890D01*
X73945Y-55125D01*
X73945Y-54924D01*
X73945Y-54889D01*
X73931Y-54855D01*
X73906Y-54830D01*
X73873Y-54816D01*
X73838Y-54817D01*
X73816Y-54839D01*
X73816Y-54966D01*
X73923Y-54966D01*
X73945Y-54943D01*
X73945Y-54924D01*
X73945Y-55125D01*
X73945Y-55106D01*
X73923Y-55084D01*
X73816Y-55084D01*
X73816Y-55210D01*
X73838Y-55233D01*
X73873Y-55233D01*
X73906Y-55219D01*
X73931Y-55194D01*
X73945Y-55160D01*
X73945Y-55125D01*
X73945Y-56890D01*
X73896Y-56890D01*
X73896Y-56523D01*
X73875Y-56369D01*
X73857Y-56326D01*
X73810Y-56288D01*
X73737Y-56361D01*
X73737Y-55210D01*
X73737Y-55084D01*
X73737Y-54966D01*
X73737Y-54839D01*
X73715Y-54817D01*
X73680Y-54816D01*
X73678Y-54818D01*
X73678Y-54558D01*
X73678Y-54243D01*
X73664Y-54210D01*
X73639Y-54184D01*
X73606Y-54171D01*
X73570Y-54171D01*
X73383Y-54171D01*
X73383Y-53210D01*
X73383Y-53084D01*
X73383Y-52966D01*
X73383Y-52839D01*
X73361Y-52817D01*
X73326Y-52816D01*
X73293Y-52830D01*
X73268Y-52855D01*
X73254Y-52889D01*
X73254Y-52924D01*
X73254Y-52943D01*
X73277Y-52966D01*
X73383Y-52966D01*
X73383Y-53084D01*
X73277Y-53084D01*
X73254Y-53106D01*
X73254Y-53125D01*
X73254Y-53160D01*
X73268Y-53194D01*
X73293Y-53219D01*
X73326Y-53233D01*
X73361Y-53233D01*
X73383Y-53210D01*
X73383Y-54171D01*
X73341Y-54171D01*
X73341Y-53856D01*
X73341Y-53701D01*
X73341Y-53561D01*
X73341Y-53406D01*
X73318Y-53383D01*
X73251Y-53383D01*
X73215Y-53383D01*
X73182Y-53397D01*
X73157Y-53422D01*
X73143Y-53455D01*
X73143Y-53538D01*
X73166Y-53561D01*
X73341Y-53561D01*
X73341Y-53701D01*
X73166Y-53701D01*
X73143Y-53723D01*
X73143Y-53806D01*
X73157Y-53839D01*
X73182Y-53865D01*
X73215Y-53878D01*
X73251Y-53878D01*
X73318Y-53878D01*
X73341Y-53856D01*
X73341Y-54171D01*
X73216Y-54171D01*
X73182Y-54184D01*
X73157Y-54210D01*
X73143Y-54243D01*
X73143Y-54279D01*
X73143Y-54594D01*
X73157Y-54627D01*
X73182Y-54652D01*
X73215Y-54666D01*
X73221Y-54666D01*
X73221Y-54934D01*
X72365Y-55789D01*
X72324Y-55851D01*
X72310Y-55924D01*
X72310Y-56109D01*
X72182Y-56109D01*
X72149Y-56123D01*
X72123Y-56148D01*
X72110Y-56182D01*
X72109Y-56217D01*
X72109Y-56817D01*
X72123Y-56850D01*
X72148Y-56876D01*
X72182Y-56889D01*
X72217Y-56890D01*
X72817Y-56890D01*
X72850Y-56876D01*
X72876Y-56851D01*
X72889Y-56817D01*
X72890Y-56782D01*
X72890Y-56182D01*
X72876Y-56149D01*
X72851Y-56123D01*
X72817Y-56110D01*
X72782Y-56109D01*
X72690Y-56109D01*
X72690Y-56002D01*
X73459Y-55233D01*
X73519Y-55233D01*
X73552Y-55219D01*
X73577Y-55194D01*
X73591Y-55160D01*
X73591Y-55125D01*
X73591Y-55060D01*
X73601Y-55013D01*
X73601Y-54666D01*
X73606Y-54666D01*
X73639Y-54652D01*
X73664Y-54627D01*
X73678Y-54594D01*
X73678Y-54558D01*
X73678Y-54818D01*
X73647Y-54830D01*
X73622Y-54855D01*
X73608Y-54889D01*
X73608Y-54924D01*
X73608Y-54943D01*
X73631Y-54966D01*
X73737Y-54966D01*
X73737Y-55084D01*
X73631Y-55084D01*
X73608Y-55106D01*
X73608Y-55125D01*
X73608Y-55160D01*
X73622Y-55194D01*
X73647Y-55219D01*
X73680Y-55233D01*
X73715Y-55233D01*
X73737Y-55210D01*
X73737Y-56361D01*
X73711Y-56387D01*
X73711Y-56189D01*
X73673Y-56142D01*
X73523Y-56103D01*
X73369Y-56124D01*
X73326Y-56142D01*
X73288Y-56189D01*
X73500Y-56401D01*
X73711Y-56189D01*
X73711Y-56387D01*
X73598Y-56500D01*
X73810Y-56711D01*
X73857Y-56673D01*
X73896Y-56523D01*
X73896Y-56890D01*
X73524Y-56890D01*
X73630Y-56875D01*
X73673Y-56857D01*
X73711Y-56810D01*
X73500Y-56598D01*
X73401Y-56697D01*
X73401Y-56500D01*
X73189Y-56288D01*
X73142Y-56326D01*
X73103Y-56476D01*
X73124Y-56630D01*
X73142Y-56673D01*
X73189Y-56711D01*
X73401Y-56500D01*
X73401Y-56697D01*
X73288Y-56810D01*
X73326Y-56857D01*
X73451Y-56890D01*
X72109Y-56890D01*
X72109Y-51109D01*
X73475Y-51109D01*
X73369Y-51124D01*
X73326Y-51142D01*
X73288Y-51189D01*
X73500Y-51401D01*
X73711Y-51189D01*
X73673Y-51142D01*
X73548Y-51109D01*
X75890Y-51109D01*
X75890Y-52790D01*
X75875Y-52775D01*
X75777Y-52735D01*
X75672Y-52734D01*
X75575Y-52775D01*
X75554Y-52795D01*
X75554Y-52751D01*
X75540Y-52718D01*
X75515Y-52692D01*
X75483Y-52679D01*
X75483Y-52679D01*
X75474Y-52667D01*
X75474Y-52667D01*
X75325Y-52517D01*
X75325Y-51872D01*
X75341Y-51856D01*
X75422Y-51889D01*
X75577Y-51890D01*
X75720Y-51830D01*
X75830Y-51721D01*
X75889Y-51577D01*
X75890Y-51422D01*
X75830Y-51279D01*
X75721Y-51169D01*
X75577Y-51110D01*
X75422Y-51109D01*
X75279Y-51169D01*
X75169Y-51278D01*
X75110Y-51422D01*
X75109Y-51577D01*
X75143Y-51658D01*
X75086Y-51716D01*
X75055Y-51761D01*
X75045Y-51814D01*
X75045Y-51847D01*
X74856Y-51658D01*
X74889Y-51577D01*
X74890Y-51422D01*
X74830Y-51279D01*
X74721Y-51169D01*
X74577Y-51110D01*
X74422Y-51109D01*
X74279Y-51169D01*
X74169Y-51278D01*
X74110Y-51422D01*
X74109Y-51577D01*
X74169Y-51720D01*
X74278Y-51830D01*
X74422Y-51889D01*
X74577Y-51890D01*
X74658Y-51856D01*
X74885Y-52082D01*
X74885Y-52625D01*
X74895Y-52678D01*
X74895Y-52678D01*
X74890Y-52679D01*
X74868Y-52701D01*
X74868Y-52798D01*
X74901Y-52798D01*
X74901Y-52857D01*
X74868Y-52857D01*
X74868Y-52954D01*
X74890Y-52977D01*
X74904Y-52977D01*
X74904Y-53072D01*
X74894Y-53072D01*
X74779Y-53072D01*
X74717Y-53072D01*
X74695Y-53082D01*
X74676Y-53082D01*
X74623Y-53092D01*
X74602Y-53106D01*
X74602Y-53081D01*
X74561Y-52982D01*
X74493Y-52915D01*
X74502Y-52915D01*
X74599Y-52874D01*
X74645Y-52829D01*
X74645Y-52880D01*
X74645Y-52869D01*
X74645Y-52886D01*
X74645Y-52898D01*
X74645Y-52898D01*
X74645Y-52904D01*
X74659Y-52938D01*
X74684Y-52963D01*
X74717Y-52977D01*
X74757Y-52977D01*
X74779Y-52954D01*
X74779Y-52857D01*
X74746Y-52857D01*
X74746Y-52798D01*
X74779Y-52798D01*
X74779Y-52701D01*
X74757Y-52679D01*
X74717Y-52678D01*
X74714Y-52680D01*
X74715Y-52597D01*
X74674Y-52500D01*
X74600Y-52425D01*
X74502Y-52385D01*
X74453Y-52385D01*
X74411Y-52342D01*
X74349Y-52301D01*
X74277Y-52287D01*
X73896Y-52287D01*
X73896Y-51523D01*
X73875Y-51369D01*
X73857Y-51326D01*
X73810Y-51288D01*
X73598Y-51500D01*
X73810Y-51711D01*
X73857Y-51673D01*
X73896Y-51523D01*
X73896Y-52287D01*
X73855Y-52287D01*
X73461Y-51893D01*
X73476Y-51896D01*
X73630Y-51875D01*
X73673Y-51857D01*
X73711Y-51810D01*
X73500Y-51598D01*
X73494Y-51604D01*
X73395Y-51505D01*
X73401Y-51500D01*
X73189Y-51288D01*
X73142Y-51326D01*
X73103Y-51476D01*
X73112Y-51543D01*
X72934Y-51365D01*
X72890Y-51336D01*
X72890Y-51182D01*
X72876Y-51149D01*
X72851Y-51123D01*
X72817Y-51110D01*
X72782Y-51109D01*
X72182Y-51109D01*
X72149Y-51123D01*
X72123Y-51148D01*
X72110Y-51182D01*
X72109Y-51217D01*
X72109Y-51817D01*
X72123Y-51850D01*
X72148Y-51876D01*
X72182Y-51889D01*
X72217Y-51890D01*
X72817Y-51890D01*
X72850Y-51876D01*
X72876Y-51851D01*
X72878Y-51846D01*
X73587Y-52555D01*
X73587Y-52878D01*
X73577Y-52855D01*
X73552Y-52830D01*
X73519Y-52816D01*
X73484Y-52817D01*
X73462Y-52839D01*
X73462Y-52966D01*
X73500Y-52966D01*
X73500Y-53084D01*
X73462Y-53084D01*
X73462Y-53210D01*
X73484Y-53233D01*
X73519Y-53233D01*
X73552Y-53219D01*
X73577Y-53194D01*
X73587Y-53171D01*
X73587Y-53383D01*
X73570Y-53383D01*
X73503Y-53383D01*
X73481Y-53406D01*
X73481Y-53561D01*
X73488Y-53561D01*
X73488Y-53701D01*
X73481Y-53701D01*
X73481Y-53856D01*
X73503Y-53878D01*
X73570Y-53878D01*
X73606Y-53878D01*
X73639Y-53865D01*
X73642Y-53861D01*
X73940Y-54159D01*
X73940Y-54159D01*
X74002Y-54200D01*
X74010Y-54202D01*
X74023Y-54233D01*
X74048Y-54258D01*
X74061Y-54263D01*
X74050Y-54274D01*
X74010Y-54372D01*
X74009Y-54477D01*
X74050Y-54574D01*
X74124Y-54649D01*
X74159Y-54663D01*
X74108Y-54714D01*
X74068Y-54812D01*
X74067Y-54918D01*
X74108Y-55017D01*
X74183Y-55092D01*
X74281Y-55132D01*
X74387Y-55133D01*
X74486Y-55092D01*
X74561Y-55017D01*
X74601Y-54919D01*
X74602Y-54813D01*
X74561Y-54714D01*
X74486Y-54639D01*
X74450Y-54624D01*
X74499Y-54575D01*
X74539Y-54477D01*
X74540Y-54372D01*
X74499Y-54275D01*
X74489Y-54265D01*
X74505Y-54258D01*
X74530Y-54233D01*
X74544Y-54200D01*
X74544Y-54164D01*
X74544Y-53878D01*
X74615Y-53848D01*
X74650Y-53814D01*
X74683Y-53848D01*
X74759Y-53879D01*
X74840Y-53880D01*
X74915Y-53848D01*
X74949Y-53815D01*
X75367Y-53815D01*
X75635Y-54082D01*
X75635Y-54700D01*
X75635Y-54910D01*
X75625Y-54900D01*
X75527Y-54860D01*
X75467Y-54859D01*
X75467Y-54525D01*
X75452Y-54452D01*
X75445Y-54441D01*
X75445Y-54389D01*
X75431Y-54356D01*
X75406Y-54330D01*
X75373Y-54317D01*
X75337Y-54316D01*
X75180Y-54316D01*
X75147Y-54330D01*
X75122Y-54355D01*
X75108Y-54389D01*
X75108Y-54424D01*
X75108Y-54441D01*
X75101Y-54452D01*
X75091Y-54502D01*
X75091Y-54502D01*
X75091Y-54454D01*
X75080Y-54454D01*
X75091Y-54443D01*
X75091Y-54424D01*
X75091Y-54389D01*
X75077Y-54355D01*
X75052Y-54330D01*
X75019Y-54316D01*
X74984Y-54317D01*
X74962Y-54339D01*
X74962Y-54466D01*
X75000Y-54466D01*
X75000Y-54584D01*
X74962Y-54584D01*
X74962Y-54710D01*
X74984Y-54733D01*
X75019Y-54733D01*
X75052Y-54719D01*
X75077Y-54694D01*
X75087Y-54671D01*
X75087Y-54878D01*
X75077Y-54855D01*
X75052Y-54830D01*
X75019Y-54816D01*
X74984Y-54817D01*
X74962Y-54839D01*
X74962Y-54966D01*
X75000Y-54966D01*
X75000Y-55084D01*
X74962Y-55084D01*
X74962Y-55210D01*
X74984Y-55233D01*
X75019Y-55233D01*
X75052Y-55219D01*
X75077Y-55194D01*
X75091Y-55160D01*
X75091Y-55125D01*
X75091Y-55106D01*
X75080Y-55095D01*
X75091Y-55095D01*
X75091Y-55047D01*
X75101Y-55097D01*
X75108Y-55108D01*
X75108Y-55160D01*
X75122Y-55193D01*
X75147Y-55219D01*
X75180Y-55232D01*
X75216Y-55233D01*
X75232Y-55233D01*
X75250Y-55274D01*
X75324Y-55349D01*
X75422Y-55389D01*
X75527Y-55390D01*
X75624Y-55349D01*
X75635Y-55339D01*
X75635Y-56133D01*
X75577Y-56110D01*
X75422Y-56109D01*
X75279Y-56169D01*
X75169Y-56278D01*
X75110Y-56422D01*
X75109Y-56577D01*
X75169Y-56720D01*
X75278Y-56830D01*
X75422Y-56889D01*
X75577Y-56890D01*
X75720Y-56830D01*
X75830Y-56721D01*
X75889Y-56577D01*
X75890Y-56422D01*
X75856Y-56341D01*
X75873Y-56323D01*
X75890Y-56299D01*
X75890Y-56890D01*
X75890Y-56890D01*
G37*
G54D22*
X75890Y-56890D02*
X75091Y-56890D01*
X74896Y-56890D01*
X74896Y-56523D01*
X74883Y-56428D01*
X74883Y-55210D01*
X74883Y-55084D01*
X74883Y-54966D01*
X74883Y-54839D01*
X74883Y-54710D01*
X74883Y-54584D01*
X74883Y-54466D01*
X74883Y-54339D01*
X74861Y-54317D01*
X74826Y-54316D01*
X74793Y-54330D01*
X74768Y-54355D01*
X74754Y-54389D01*
X74754Y-54424D01*
X74754Y-54443D01*
X74777Y-54466D01*
X74883Y-54466D01*
X74883Y-54584D01*
X74777Y-54584D01*
X74754Y-54606D01*
X74754Y-54625D01*
X74754Y-54660D01*
X74768Y-54694D01*
X74793Y-54719D01*
X74826Y-54733D01*
X74861Y-54733D01*
X74883Y-54710D01*
X74883Y-54839D01*
X74861Y-54817D01*
X74826Y-54816D01*
X74793Y-54830D01*
X74768Y-54855D01*
X74754Y-54889D01*
X74754Y-54924D01*
X74754Y-54943D01*
X74777Y-54966D01*
X74883Y-54966D01*
X74883Y-55084D01*
X74777Y-55084D01*
X74754Y-55106D01*
X74754Y-55125D01*
X74754Y-55160D01*
X74768Y-55194D01*
X74793Y-55219D01*
X74826Y-55233D01*
X74861Y-55233D01*
X74883Y-55210D01*
X74883Y-56428D01*
X74875Y-56369D01*
X74857Y-56326D01*
X74810Y-56288D01*
X74711Y-56387D01*
X74711Y-56189D01*
X74673Y-56142D01*
X74523Y-56103D01*
X74369Y-56124D01*
X74326Y-56142D01*
X74288Y-56189D01*
X74500Y-56401D01*
X74711Y-56189D01*
X74711Y-56387D01*
X74598Y-56500D01*
X74810Y-56711D01*
X74857Y-56673D01*
X74896Y-56523D01*
X74896Y-56890D01*
X74524Y-56890D01*
X74630Y-56875D01*
X74673Y-56857D01*
X74711Y-56810D01*
X74500Y-56598D01*
X74401Y-56697D01*
X74401Y-56500D01*
X74189Y-56288D01*
X74142Y-56326D01*
X74103Y-56476D01*
X74124Y-56630D01*
X74142Y-56673D01*
X74189Y-56711D01*
X74401Y-56500D01*
X74401Y-56697D01*
X74288Y-56810D01*
X74326Y-56857D01*
X74451Y-56890D01*
X73945Y-56890D01*
X73945Y-55125D01*
X73945Y-54924D01*
X73945Y-54889D01*
X73931Y-54855D01*
X73906Y-54830D01*
X73873Y-54816D01*
X73838Y-54817D01*
X73816Y-54839D01*
X73816Y-54966D01*
X73923Y-54966D01*
X73945Y-54943D01*
X73945Y-54924D01*
X73945Y-55125D01*
X73945Y-55106D01*
X73923Y-55084D01*
X73816Y-55084D01*
X73816Y-55210D01*
X73838Y-55233D01*
X73873Y-55233D01*
X73906Y-55219D01*
X73931Y-55194D01*
X73945Y-55160D01*
X73945Y-55125D01*
X73945Y-56890D01*
X73896Y-56890D01*
X73896Y-56523D01*
X73875Y-56369D01*
X73857Y-56326D01*
X73810Y-56288D01*
X73737Y-56361D01*
X73737Y-55210D01*
X73737Y-55084D01*
X73737Y-54966D01*
X73737Y-54839D01*
X73715Y-54817D01*
X73680Y-54816D01*
X73678Y-54818D01*
X73678Y-54558D01*
X73678Y-54243D01*
X73664Y-54210D01*
X73639Y-54184D01*
X73606Y-54171D01*
X73570Y-54171D01*
X73383Y-54171D01*
X73383Y-53210D01*
X73383Y-53084D01*
X73383Y-52966D01*
X73383Y-52839D01*
X73361Y-52817D01*
X73326Y-52816D01*
X73293Y-52830D01*
X73268Y-52855D01*
X73254Y-52889D01*
X73254Y-52924D01*
X73254Y-52943D01*
X73277Y-52966D01*
X73383Y-52966D01*
X73383Y-53084D01*
X73277Y-53084D01*
X73254Y-53106D01*
X73254Y-53125D01*
X73254Y-53160D01*
X73268Y-53194D01*
X73293Y-53219D01*
X73326Y-53233D01*
X73361Y-53233D01*
X73383Y-53210D01*
X73383Y-54171D01*
X73341Y-54171D01*
X73341Y-53856D01*
X73341Y-53701D01*
X73341Y-53561D01*
X73341Y-53406D01*
X73318Y-53383D01*
X73251Y-53383D01*
X73215Y-53383D01*
X73182Y-53397D01*
X73157Y-53422D01*
X73143Y-53455D01*
X73143Y-53538D01*
X73166Y-53561D01*
X73341Y-53561D01*
X73341Y-53701D01*
X73166Y-53701D01*
X73143Y-53723D01*
X73143Y-53806D01*
X73157Y-53839D01*
X73182Y-53865D01*
X73215Y-53878D01*
X73251Y-53878D01*
X73318Y-53878D01*
X73341Y-53856D01*
X73341Y-54171D01*
X73216Y-54171D01*
X73182Y-54184D01*
X73157Y-54210D01*
X73143Y-54243D01*
X73143Y-54279D01*
X73143Y-54594D01*
X73157Y-54627D01*
X73182Y-54652D01*
X73215Y-54666D01*
X73221Y-54666D01*
X73221Y-54934D01*
X72365Y-55789D01*
X72324Y-55851D01*
X72310Y-55924D01*
X72310Y-56109D01*
X72182Y-56109D01*
X72149Y-56123D01*
X72123Y-56148D01*
X72110Y-56182D01*
X72109Y-56217D01*
X72109Y-56817D01*
X72123Y-56850D01*
X72148Y-56876D01*
X72182Y-56889D01*
X72217Y-56890D01*
X72817Y-56890D01*
X72850Y-56876D01*
X72876Y-56851D01*
X72889Y-56817D01*
X72890Y-56782D01*
X72890Y-56182D01*
X72876Y-56149D01*
X72851Y-56123D01*
X72817Y-56110D01*
X72782Y-56109D01*
X72690Y-56109D01*
X72690Y-56002D01*
X73459Y-55233D01*
X73519Y-55233D01*
X73552Y-55219D01*
X73577Y-55194D01*
X73591Y-55160D01*
X73591Y-55125D01*
X73591Y-55060D01*
X73601Y-55013D01*
X73601Y-54666D01*
X73606Y-54666D01*
X73639Y-54652D01*
X73664Y-54627D01*
X73678Y-54594D01*
X73678Y-54558D01*
X73678Y-54818D01*
X73647Y-54830D01*
X73622Y-54855D01*
X73608Y-54889D01*
X73608Y-54924D01*
X73608Y-54943D01*
X73631Y-54966D01*
X73737Y-54966D01*
X73737Y-55084D01*
X73631Y-55084D01*
X73608Y-55106D01*
X73608Y-55125D01*
X73608Y-55160D01*
X73622Y-55194D01*
X73647Y-55219D01*
X73680Y-55233D01*
X73715Y-55233D01*
X73737Y-55210D01*
X73737Y-56361D01*
X73711Y-56387D01*
X73711Y-56189D01*
X73673Y-56142D01*
X73523Y-56103D01*
X73369Y-56124D01*
X73326Y-56142D01*
X73288Y-56189D01*
X73500Y-56401D01*
X73711Y-56189D01*
X73711Y-56387D01*
X73598Y-56500D01*
X73810Y-56711D01*
X73857Y-56673D01*
X73896Y-56523D01*
X73896Y-56890D01*
X73524Y-56890D01*
X73630Y-56875D01*
X73673Y-56857D01*
X73711Y-56810D01*
X73500Y-56598D01*
X73401Y-56697D01*
X73401Y-56500D01*
X73189Y-56288D01*
X73142Y-56326D01*
X73103Y-56476D01*
X73124Y-56630D01*
X73142Y-56673D01*
X73189Y-56711D01*
X73401Y-56500D01*
X73401Y-56697D01*
X73288Y-56810D01*
X73326Y-56857D01*
X73451Y-56890D01*
X72109Y-56890D01*
X72109Y-51109D01*
X73475Y-51109D01*
X73369Y-51124D01*
X73326Y-51142D01*
X73288Y-51189D01*
X73500Y-51401D01*
X73711Y-51189D01*
X73673Y-51142D01*
X73548Y-51109D01*
X75890Y-51109D01*
X75890Y-52790D01*
X75875Y-52775D01*
X75777Y-52735D01*
X75672Y-52734D01*
X75575Y-52775D01*
X75554Y-52795D01*
X75554Y-52751D01*
X75540Y-52718D01*
X75515Y-52692D01*
X75483Y-52679D01*
X75483Y-52679D01*
X75474Y-52667D01*
X75474Y-52667D01*
X75325Y-52517D01*
X75325Y-51872D01*
X75341Y-51856D01*
X75422Y-51889D01*
X75577Y-51890D01*
X75720Y-51830D01*
X75830Y-51721D01*
X75889Y-51577D01*
X75890Y-51422D01*
X75830Y-51279D01*
X75721Y-51169D01*
X75577Y-51110D01*
X75422Y-51109D01*
X75279Y-51169D01*
X75169Y-51278D01*
X75110Y-51422D01*
X75109Y-51577D01*
X75143Y-51658D01*
X75086Y-51716D01*
X75055Y-51761D01*
X75045Y-51814D01*
X75045Y-51847D01*
X74856Y-51658D01*
X74889Y-51577D01*
X74890Y-51422D01*
X74830Y-51279D01*
X74721Y-51169D01*
X74577Y-51110D01*
X74422Y-51109D01*
X74279Y-51169D01*
X74169Y-51278D01*
X74110Y-51422D01*
X74109Y-51577D01*
X74169Y-51720D01*
X74278Y-51830D01*
X74422Y-51889D01*
X74577Y-51890D01*
X74658Y-51856D01*
X74885Y-52082D01*
X74885Y-52625D01*
X74895Y-52678D01*
X74895Y-52678D01*
X74890Y-52679D01*
X74868Y-52701D01*
X74868Y-52798D01*
X74901Y-52798D01*
X74901Y-52857D01*
X74868Y-52857D01*
X74868Y-52954D01*
X74890Y-52977D01*
X74904Y-52977D01*
X74904Y-53072D01*
X74894Y-53072D01*
X74779Y-53072D01*
X74717Y-53072D01*
X74695Y-53082D01*
X74676Y-53082D01*
X74623Y-53092D01*
X74602Y-53106D01*
X74602Y-53081D01*
X74561Y-52982D01*
X74493Y-52915D01*
X74502Y-52915D01*
X74599Y-52874D01*
X74645Y-52829D01*
X74645Y-52880D01*
X74645Y-52869D01*
X74645Y-52886D01*
X74645Y-52898D01*
X74645Y-52898D01*
X74645Y-52904D01*
X74659Y-52938D01*
X74684Y-52963D01*
X74717Y-52977D01*
X74757Y-52977D01*
X74779Y-52954D01*
X74779Y-52857D01*
X74746Y-52857D01*
X74746Y-52798D01*
X74779Y-52798D01*
X74779Y-52701D01*
X74757Y-52679D01*
X74717Y-52678D01*
X74714Y-52680D01*
X74715Y-52597D01*
X74674Y-52500D01*
X74600Y-52425D01*
X74502Y-52385D01*
X74453Y-52385D01*
X74411Y-52342D01*
X74349Y-52301D01*
X74277Y-52287D01*
X73896Y-52287D01*
X73896Y-51523D01*
X73875Y-51369D01*
X73857Y-51326D01*
X73810Y-51288D01*
X73598Y-51500D01*
X73810Y-51711D01*
X73857Y-51673D01*
X73896Y-51523D01*
X73896Y-52287D01*
X73855Y-52287D01*
X73461Y-51893D01*
X73476Y-51896D01*
X73630Y-51875D01*
X73673Y-51857D01*
X73711Y-51810D01*
X73500Y-51598D01*
X73494Y-51604D01*
X73395Y-51505D01*
X73401Y-51500D01*
X73189Y-51288D01*
X73142Y-51326D01*
X73103Y-51476D01*
X73112Y-51543D01*
X72934Y-51365D01*
X72890Y-51336D01*
X72890Y-51182D01*
X72876Y-51149D01*
X72851Y-51123D01*
X72817Y-51110D01*
X72782Y-51109D01*
X72182Y-51109D01*
X72149Y-51123D01*
X72123Y-51148D01*
X72110Y-51182D01*
X72109Y-51217D01*
X72109Y-51817D01*
X72123Y-51850D01*
X72148Y-51876D01*
X72182Y-51889D01*
X72217Y-51890D01*
X72817Y-51890D01*
X72850Y-51876D01*
X72876Y-51851D01*
X72878Y-51846D01*
X73587Y-52555D01*
X73587Y-52878D01*
X73577Y-52855D01*
X73552Y-52830D01*
X73519Y-52816D01*
X73484Y-52817D01*
X73462Y-52839D01*
X73462Y-52966D01*
X73500Y-52966D01*
X73500Y-53084D01*
X73462Y-53084D01*
X73462Y-53210D01*
X73484Y-53233D01*
X73519Y-53233D01*
X73552Y-53219D01*
X73577Y-53194D01*
X73587Y-53171D01*
X73587Y-53383D01*
X73570Y-53383D01*
X73503Y-53383D01*
X73481Y-53406D01*
X73481Y-53561D01*
X73488Y-53561D01*
X73488Y-53701D01*
X73481Y-53701D01*
X73481Y-53856D01*
X73503Y-53878D01*
X73570Y-53878D01*
X73606Y-53878D01*
X73639Y-53865D01*
X73642Y-53861D01*
X73940Y-54159D01*
X73940Y-54159D01*
X74002Y-54200D01*
X74010Y-54202D01*
X74023Y-54233D01*
X74048Y-54258D01*
X74061Y-54263D01*
X74050Y-54274D01*
X74010Y-54372D01*
X74009Y-54477D01*
X74050Y-54574D01*
X74124Y-54649D01*
X74159Y-54663D01*
X74108Y-54714D01*
X74068Y-54812D01*
X74067Y-54918D01*
X74108Y-55017D01*
X74183Y-55092D01*
X74281Y-55132D01*
X74387Y-55133D01*
X74486Y-55092D01*
X74561Y-55017D01*
X74601Y-54919D01*
X74602Y-54813D01*
X74561Y-54714D01*
X74486Y-54639D01*
X74450Y-54624D01*
X74499Y-54575D01*
X74539Y-54477D01*
X74540Y-54372D01*
X74499Y-54275D01*
X74489Y-54265D01*
X74505Y-54258D01*
X74530Y-54233D01*
X74544Y-54200D01*
X74544Y-54164D01*
X74544Y-53878D01*
X74615Y-53848D01*
X74650Y-53814D01*
X74683Y-53848D01*
X74759Y-53879D01*
X74840Y-53880D01*
X74915Y-53848D01*
X74949Y-53815D01*
X75367Y-53815D01*
X75635Y-54082D01*
X75635Y-54700D01*
X75635Y-54910D01*
X75625Y-54900D01*
X75527Y-54860D01*
X75467Y-54859D01*
X75467Y-54525D01*
X75452Y-54452D01*
X75445Y-54441D01*
X75445Y-54389D01*
X75431Y-54356D01*
X75406Y-54330D01*
X75373Y-54317D01*
X75337Y-54316D01*
X75180Y-54316D01*
X75147Y-54330D01*
X75122Y-54355D01*
X75108Y-54389D01*
X75108Y-54424D01*
X75108Y-54441D01*
X75101Y-54452D01*
X75091Y-54502D01*
X75091Y-54502D01*
X75091Y-54454D01*
X75080Y-54454D01*
X75091Y-54443D01*
X75091Y-54424D01*
X75091Y-54389D01*
X75077Y-54355D01*
X75052Y-54330D01*
X75019Y-54316D01*
X74984Y-54317D01*
X74962Y-54339D01*
X74962Y-54466D01*
X75000Y-54466D01*
X75000Y-54584D01*
X74962Y-54584D01*
X74962Y-54710D01*
X74984Y-54733D01*
X75019Y-54733D01*
X75052Y-54719D01*
X75077Y-54694D01*
X75087Y-54671D01*
X75087Y-54878D01*
X75077Y-54855D01*
X75052Y-54830D01*
X75019Y-54816D01*
X74984Y-54817D01*
X74962Y-54839D01*
X74962Y-54966D01*
X75000Y-54966D01*
X75000Y-55084D01*
X74962Y-55084D01*
X74962Y-55210D01*
X74984Y-55233D01*
X75019Y-55233D01*
X75052Y-55219D01*
X75077Y-55194D01*
X75091Y-55160D01*
X75091Y-55125D01*
X75091Y-55106D01*
X75080Y-55095D01*
X75091Y-55095D01*
X75091Y-55047D01*
X75101Y-55097D01*
X75108Y-55108D01*
X75108Y-55160D01*
X75122Y-55193D01*
X75147Y-55219D01*
X75180Y-55232D01*
X75216Y-55233D01*
X75232Y-55233D01*
X75250Y-55274D01*
X75324Y-55349D01*
X75422Y-55389D01*
X75527Y-55390D01*
X75624Y-55349D01*
X75635Y-55339D01*
X75635Y-56133D01*
X75577Y-56110D01*
X75422Y-56109D01*
X75279Y-56169D01*
X75169Y-56278D01*
X75110Y-56422D01*
X75109Y-56577D01*
X75169Y-56720D01*
X75278Y-56830D01*
X75422Y-56889D01*
X75577Y-56890D01*
X75720Y-56830D01*
X75830Y-56721D01*
X75889Y-56577D01*
X75890Y-56422D01*
X75856Y-56341D01*
X75873Y-56323D01*
X75890Y-56299D01*
X75890Y-56890D01*
M02*
