G04 (created by PCBNEW (2013-june-11)-stable) date Tue 21 Jan 2014 09:35:55 AM PST*
%MOIN*%
G04 Gerber Fmt 3.4, Leading zero omitted, Abs format*
%FSLAX34Y34*%
G01*
G70*
G90*
G04 APERTURE LIST*
%ADD10C,0.00590551*%
%ADD11R,0.0906X0.0197*%
%ADD12R,0.0984X0.0787*%
%ADD13C,0.0354*%
%ADD14R,0.06X0.06*%
%ADD15C,0.06*%
%ADD16C,0.023*%
%ADD17C,0.035*%
%ADD18C,0.01*%
%ADD19C,0.02*%
%ADD20C,0.006*%
G04 APERTURE END LIST*
G54D10*
G54D11*
X75358Y-54630D03*
X75358Y-54315D03*
X75358Y-54000D03*
X75358Y-53685D03*
X75358Y-53370D03*
G54D12*
X75319Y-55752D03*
X73154Y-55752D03*
X75319Y-52248D03*
X73154Y-52248D03*
G54D13*
X74335Y-54866D03*
X74335Y-53134D03*
G54D14*
X72500Y-51000D03*
G54D15*
X73500Y-51000D03*
X74500Y-51000D03*
X75500Y-51000D03*
G54D14*
X72500Y-57000D03*
G54D15*
X73500Y-57000D03*
X74500Y-57000D03*
X75500Y-57000D03*
G54D16*
X74500Y-53500D03*
X73600Y-54100D03*
G54D17*
X75200Y-52950D03*
G54D16*
X74750Y-53000D03*
G54D17*
X73400Y-53600D03*
X75200Y-51550D03*
X73150Y-51550D03*
X75300Y-55100D03*
X74900Y-55000D03*
G54D18*
X74300Y-53700D02*
X74100Y-53500D01*
X75250Y-51000D02*
X75500Y-51000D01*
X74000Y-52250D02*
X75250Y-51000D01*
X74000Y-53400D02*
X74000Y-52250D01*
X74050Y-53450D02*
X74000Y-53400D01*
X74100Y-53500D02*
X74050Y-53450D01*
X74300Y-53700D02*
X74500Y-53500D01*
X75358Y-54000D02*
X74600Y-54000D01*
X74600Y-54000D02*
X74300Y-53700D01*
X74000Y-53700D02*
X73850Y-53550D01*
X73800Y-51700D02*
X74500Y-51000D01*
X73800Y-53500D02*
X73800Y-51700D01*
X73850Y-53550D02*
X73800Y-53500D01*
X74000Y-53700D02*
X73600Y-54100D01*
X75358Y-54315D02*
X74615Y-54315D01*
X74615Y-54315D02*
X74000Y-53700D01*
G54D19*
X75358Y-53370D02*
X75358Y-53108D01*
X75358Y-53108D02*
X75200Y-52950D01*
G54D18*
X75358Y-53685D02*
X74885Y-53685D01*
X74750Y-53550D02*
X74750Y-53000D01*
X74885Y-53685D02*
X74750Y-53550D01*
G54D19*
X73154Y-53846D02*
X73400Y-53600D01*
X73154Y-55752D02*
X73154Y-53846D01*
X75319Y-52248D02*
X75319Y-51669D01*
X75319Y-51669D02*
X75200Y-51550D01*
X73154Y-51554D02*
X73154Y-52248D01*
X73150Y-51550D02*
X73154Y-51554D01*
X75319Y-55752D02*
X75319Y-55119D01*
X75319Y-55119D02*
X75300Y-55100D01*
X75319Y-55752D02*
X73154Y-55752D01*
X75358Y-54630D02*
X75270Y-54630D01*
X75270Y-54630D02*
X74900Y-55000D01*
G54D10*
G36*
X75890Y-53227D02*
X75887Y-53220D01*
X75861Y-53195D01*
X75828Y-53181D01*
X75450Y-53181D01*
X75428Y-53204D01*
X75428Y-53320D01*
X75435Y-53320D01*
X75435Y-53419D01*
X75428Y-53419D01*
X75428Y-53447D01*
X75288Y-53447D01*
X75288Y-53419D01*
X75280Y-53419D01*
X75280Y-53320D01*
X75288Y-53320D01*
X75288Y-53204D01*
X75265Y-53181D01*
X74890Y-53181D01*
X74890Y-53149D01*
X74923Y-53116D01*
X74954Y-53040D01*
X74955Y-52959D01*
X74923Y-52884D01*
X74866Y-52826D01*
X74790Y-52795D01*
X74709Y-52794D01*
X74634Y-52826D01*
X74576Y-52883D01*
X74545Y-52959D01*
X74545Y-52966D01*
X74486Y-52907D01*
X74388Y-52867D01*
X74282Y-52866D01*
X74183Y-52907D01*
X74140Y-52951D01*
X74140Y-52307D01*
X74935Y-51512D01*
X74934Y-51602D01*
X74975Y-51699D01*
X75039Y-51764D01*
X74809Y-51764D01*
X74776Y-51778D01*
X74750Y-51803D01*
X74737Y-51836D01*
X74736Y-51872D01*
X74736Y-52659D01*
X74750Y-52692D01*
X74775Y-52717D01*
X74809Y-52731D01*
X74844Y-52731D01*
X75828Y-52731D01*
X75861Y-52717D01*
X75887Y-52692D01*
X75890Y-52685D01*
X75890Y-53227D01*
X75890Y-53227D01*
G37*
G54D20*
X75890Y-53227D02*
X75887Y-53220D01*
X75861Y-53195D01*
X75828Y-53181D01*
X75450Y-53181D01*
X75428Y-53204D01*
X75428Y-53320D01*
X75435Y-53320D01*
X75435Y-53419D01*
X75428Y-53419D01*
X75428Y-53447D01*
X75288Y-53447D01*
X75288Y-53419D01*
X75280Y-53419D01*
X75280Y-53320D01*
X75288Y-53320D01*
X75288Y-53204D01*
X75265Y-53181D01*
X74890Y-53181D01*
X74890Y-53149D01*
X74923Y-53116D01*
X74954Y-53040D01*
X74955Y-52959D01*
X74923Y-52884D01*
X74866Y-52826D01*
X74790Y-52795D01*
X74709Y-52794D01*
X74634Y-52826D01*
X74576Y-52883D01*
X74545Y-52959D01*
X74545Y-52966D01*
X74486Y-52907D01*
X74388Y-52867D01*
X74282Y-52866D01*
X74183Y-52907D01*
X74140Y-52951D01*
X74140Y-52307D01*
X74935Y-51512D01*
X74934Y-51602D01*
X74975Y-51699D01*
X75039Y-51764D01*
X74809Y-51764D01*
X74776Y-51778D01*
X74750Y-51803D01*
X74737Y-51836D01*
X74736Y-51872D01*
X74736Y-52659D01*
X74750Y-52692D01*
X74775Y-52717D01*
X74809Y-52731D01*
X74844Y-52731D01*
X75828Y-52731D01*
X75861Y-52717D01*
X75887Y-52692D01*
X75890Y-52685D01*
X75890Y-53227D01*
G54D10*
G36*
X75890Y-57390D02*
X75890Y-57390D01*
X75890Y-56922D01*
X75830Y-56779D01*
X75721Y-56669D01*
X75577Y-56610D01*
X75422Y-56609D01*
X75279Y-56669D01*
X75169Y-56778D01*
X75110Y-56922D01*
X75109Y-57077D01*
X75169Y-57220D01*
X75278Y-57330D01*
X75422Y-57389D01*
X75577Y-57390D01*
X75720Y-57330D01*
X75830Y-57221D01*
X75889Y-57077D01*
X75890Y-56922D01*
X75890Y-57390D01*
X74896Y-57390D01*
X74896Y-57023D01*
X74875Y-56869D01*
X74857Y-56826D01*
X74810Y-56788D01*
X74711Y-56887D01*
X74711Y-56689D01*
X74673Y-56642D01*
X74523Y-56603D01*
X74369Y-56624D01*
X74326Y-56642D01*
X74288Y-56689D01*
X74500Y-56901D01*
X74711Y-56689D01*
X74711Y-56887D01*
X74598Y-57000D01*
X74810Y-57211D01*
X74857Y-57173D01*
X74896Y-57023D01*
X74896Y-57390D01*
X74524Y-57390D01*
X74630Y-57375D01*
X74673Y-57357D01*
X74711Y-57310D01*
X74500Y-57098D01*
X74401Y-57197D01*
X74401Y-57000D01*
X74189Y-56788D01*
X74142Y-56826D01*
X74103Y-56976D01*
X74124Y-57130D01*
X74142Y-57173D01*
X74189Y-57211D01*
X74401Y-57000D01*
X74401Y-57197D01*
X74288Y-57310D01*
X74326Y-57357D01*
X74451Y-57390D01*
X73896Y-57390D01*
X73896Y-57023D01*
X73875Y-56869D01*
X73857Y-56826D01*
X73810Y-56788D01*
X73711Y-56887D01*
X73711Y-56689D01*
X73673Y-56642D01*
X73523Y-56603D01*
X73369Y-56624D01*
X73326Y-56642D01*
X73288Y-56689D01*
X73500Y-56901D01*
X73711Y-56689D01*
X73711Y-56887D01*
X73598Y-57000D01*
X73810Y-57211D01*
X73857Y-57173D01*
X73896Y-57023D01*
X73896Y-57390D01*
X73524Y-57390D01*
X73630Y-57375D01*
X73673Y-57357D01*
X73711Y-57310D01*
X73500Y-57098D01*
X73401Y-57197D01*
X73401Y-57000D01*
X73189Y-56788D01*
X73142Y-56826D01*
X73103Y-56976D01*
X73124Y-57130D01*
X73142Y-57173D01*
X73189Y-57211D01*
X73401Y-57000D01*
X73401Y-57197D01*
X73288Y-57310D01*
X73326Y-57357D01*
X73451Y-57390D01*
X72890Y-57390D01*
X72890Y-57282D01*
X72890Y-56682D01*
X72876Y-56649D01*
X72851Y-56623D01*
X72817Y-56610D01*
X72782Y-56609D01*
X72182Y-56609D01*
X72149Y-56623D01*
X72123Y-56648D01*
X72110Y-56682D01*
X72109Y-56717D01*
X72109Y-57317D01*
X72123Y-57350D01*
X72148Y-57376D01*
X72182Y-57389D01*
X72217Y-57390D01*
X72817Y-57390D01*
X72850Y-57376D01*
X72876Y-57351D01*
X72889Y-57317D01*
X72890Y-57282D01*
X72890Y-57390D01*
X72109Y-57390D01*
X72109Y-50609D01*
X73475Y-50609D01*
X73369Y-50624D01*
X73326Y-50642D01*
X73288Y-50689D01*
X73500Y-50901D01*
X73711Y-50689D01*
X73673Y-50642D01*
X73548Y-50609D01*
X75890Y-50609D01*
X75890Y-51810D01*
X75887Y-51803D01*
X75862Y-51778D01*
X75828Y-51764D01*
X75793Y-51764D01*
X75509Y-51764D01*
X75509Y-51669D01*
X75494Y-51596D01*
X75464Y-51552D01*
X75465Y-51497D01*
X75424Y-51400D01*
X75409Y-51384D01*
X75422Y-51389D01*
X75577Y-51390D01*
X75720Y-51330D01*
X75830Y-51221D01*
X75889Y-51077D01*
X75890Y-50922D01*
X75830Y-50779D01*
X75721Y-50669D01*
X75577Y-50610D01*
X75422Y-50609D01*
X75279Y-50669D01*
X75169Y-50778D01*
X75110Y-50922D01*
X75110Y-50941D01*
X73940Y-52112D01*
X73940Y-51757D01*
X74341Y-51356D01*
X74422Y-51389D01*
X74577Y-51390D01*
X74720Y-51330D01*
X74830Y-51221D01*
X74889Y-51077D01*
X74890Y-50922D01*
X74830Y-50779D01*
X74721Y-50669D01*
X74577Y-50610D01*
X74422Y-50609D01*
X74279Y-50669D01*
X74169Y-50778D01*
X74110Y-50922D01*
X74109Y-51077D01*
X74143Y-51158D01*
X73896Y-51405D01*
X73896Y-51023D01*
X73875Y-50869D01*
X73857Y-50826D01*
X73810Y-50788D01*
X73598Y-51000D01*
X73810Y-51211D01*
X73857Y-51173D01*
X73896Y-51023D01*
X73896Y-51405D01*
X73701Y-51601D01*
X73670Y-51646D01*
X73660Y-51700D01*
X73660Y-51764D01*
X73628Y-51764D01*
X73344Y-51764D01*
X73344Y-51730D01*
X73374Y-51700D01*
X73414Y-51602D01*
X73415Y-51497D01*
X73374Y-51400D01*
X73334Y-51359D01*
X73476Y-51396D01*
X73630Y-51375D01*
X73673Y-51357D01*
X73711Y-51310D01*
X73500Y-51098D01*
X73401Y-51197D01*
X73401Y-51000D01*
X73189Y-50788D01*
X73142Y-50826D01*
X73103Y-50976D01*
X73124Y-51130D01*
X73142Y-51173D01*
X73189Y-51211D01*
X73401Y-51000D01*
X73401Y-51197D01*
X73288Y-51310D01*
X73303Y-51328D01*
X73300Y-51325D01*
X73202Y-51285D01*
X73097Y-51284D01*
X73000Y-51325D01*
X72925Y-51399D01*
X72890Y-51485D01*
X72890Y-51282D01*
X72890Y-50682D01*
X72876Y-50649D01*
X72851Y-50623D01*
X72817Y-50610D01*
X72782Y-50609D01*
X72182Y-50609D01*
X72149Y-50623D01*
X72123Y-50648D01*
X72110Y-50682D01*
X72109Y-50717D01*
X72109Y-51317D01*
X72123Y-51350D01*
X72148Y-51376D01*
X72182Y-51389D01*
X72217Y-51390D01*
X72817Y-51390D01*
X72850Y-51376D01*
X72876Y-51351D01*
X72889Y-51317D01*
X72890Y-51282D01*
X72890Y-51485D01*
X72885Y-51497D01*
X72884Y-51602D01*
X72925Y-51699D01*
X72964Y-51738D01*
X72964Y-51764D01*
X72644Y-51764D01*
X72611Y-51778D01*
X72585Y-51803D01*
X72572Y-51836D01*
X72571Y-51872D01*
X72571Y-52659D01*
X72585Y-52692D01*
X72610Y-52717D01*
X72644Y-52731D01*
X72679Y-52731D01*
X73660Y-52731D01*
X73660Y-53500D01*
X73670Y-53553D01*
X73701Y-53598D01*
X73751Y-53648D01*
X73802Y-53700D01*
X73607Y-53895D01*
X73559Y-53894D01*
X73484Y-53926D01*
X73426Y-53983D01*
X73395Y-54059D01*
X73394Y-54140D01*
X73426Y-54215D01*
X73483Y-54273D01*
X73559Y-54304D01*
X73640Y-54305D01*
X73715Y-54273D01*
X73773Y-54216D01*
X73804Y-54140D01*
X73805Y-54092D01*
X74000Y-53897D01*
X74516Y-54413D01*
X74561Y-54444D01*
X74561Y-54444D01*
X74615Y-54455D01*
X74824Y-54455D01*
X74828Y-54464D01*
X74836Y-54472D01*
X74828Y-54480D01*
X74815Y-54513D01*
X74814Y-54549D01*
X74814Y-54746D01*
X74815Y-54748D01*
X74750Y-54775D01*
X74675Y-54849D01*
X74635Y-54947D01*
X74634Y-55052D01*
X74675Y-55149D01*
X74749Y-55224D01*
X74847Y-55264D01*
X74952Y-55265D01*
X75049Y-55224D01*
X75060Y-55214D01*
X75075Y-55249D01*
X75093Y-55268D01*
X74809Y-55268D01*
X74776Y-55282D01*
X74750Y-55307D01*
X74737Y-55340D01*
X74736Y-55376D01*
X74736Y-55562D01*
X74602Y-55562D01*
X74602Y-54813D01*
X74561Y-54714D01*
X74486Y-54639D01*
X74388Y-54599D01*
X74282Y-54598D01*
X74183Y-54639D01*
X74108Y-54714D01*
X74068Y-54812D01*
X74067Y-54918D01*
X74108Y-55017D01*
X74183Y-55092D01*
X74281Y-55132D01*
X74387Y-55133D01*
X74486Y-55092D01*
X74561Y-55017D01*
X74601Y-54919D01*
X74602Y-54813D01*
X74602Y-55562D01*
X73736Y-55562D01*
X73736Y-55340D01*
X73722Y-55307D01*
X73697Y-55282D01*
X73663Y-55268D01*
X73628Y-55268D01*
X73344Y-55268D01*
X73344Y-53924D01*
X73403Y-53865D01*
X73452Y-53865D01*
X73549Y-53824D01*
X73624Y-53750D01*
X73664Y-53652D01*
X73665Y-53547D01*
X73624Y-53450D01*
X73550Y-53375D01*
X73452Y-53335D01*
X73347Y-53334D01*
X73250Y-53375D01*
X73175Y-53449D01*
X73135Y-53547D01*
X73135Y-53596D01*
X73019Y-53711D01*
X72978Y-53773D01*
X72964Y-53846D01*
X72964Y-55268D01*
X72644Y-55268D01*
X72611Y-55282D01*
X72585Y-55307D01*
X72572Y-55340D01*
X72571Y-55376D01*
X72571Y-56163D01*
X72585Y-56196D01*
X72610Y-56221D01*
X72644Y-56235D01*
X72679Y-56235D01*
X73663Y-56235D01*
X73696Y-56221D01*
X73722Y-56196D01*
X73735Y-56163D01*
X73736Y-56127D01*
X73736Y-55942D01*
X74736Y-55942D01*
X74736Y-56163D01*
X74750Y-56196D01*
X74775Y-56221D01*
X74809Y-56235D01*
X74844Y-56235D01*
X75828Y-56235D01*
X75861Y-56221D01*
X75887Y-56196D01*
X75890Y-56189D01*
X75890Y-57390D01*
X75890Y-57390D01*
G37*
G54D20*
X75890Y-57390D02*
X75890Y-57390D01*
X75890Y-56922D01*
X75830Y-56779D01*
X75721Y-56669D01*
X75577Y-56610D01*
X75422Y-56609D01*
X75279Y-56669D01*
X75169Y-56778D01*
X75110Y-56922D01*
X75109Y-57077D01*
X75169Y-57220D01*
X75278Y-57330D01*
X75422Y-57389D01*
X75577Y-57390D01*
X75720Y-57330D01*
X75830Y-57221D01*
X75889Y-57077D01*
X75890Y-56922D01*
X75890Y-57390D01*
X74896Y-57390D01*
X74896Y-57023D01*
X74875Y-56869D01*
X74857Y-56826D01*
X74810Y-56788D01*
X74711Y-56887D01*
X74711Y-56689D01*
X74673Y-56642D01*
X74523Y-56603D01*
X74369Y-56624D01*
X74326Y-56642D01*
X74288Y-56689D01*
X74500Y-56901D01*
X74711Y-56689D01*
X74711Y-56887D01*
X74598Y-57000D01*
X74810Y-57211D01*
X74857Y-57173D01*
X74896Y-57023D01*
X74896Y-57390D01*
X74524Y-57390D01*
X74630Y-57375D01*
X74673Y-57357D01*
X74711Y-57310D01*
X74500Y-57098D01*
X74401Y-57197D01*
X74401Y-57000D01*
X74189Y-56788D01*
X74142Y-56826D01*
X74103Y-56976D01*
X74124Y-57130D01*
X74142Y-57173D01*
X74189Y-57211D01*
X74401Y-57000D01*
X74401Y-57197D01*
X74288Y-57310D01*
X74326Y-57357D01*
X74451Y-57390D01*
X73896Y-57390D01*
X73896Y-57023D01*
X73875Y-56869D01*
X73857Y-56826D01*
X73810Y-56788D01*
X73711Y-56887D01*
X73711Y-56689D01*
X73673Y-56642D01*
X73523Y-56603D01*
X73369Y-56624D01*
X73326Y-56642D01*
X73288Y-56689D01*
X73500Y-56901D01*
X73711Y-56689D01*
X73711Y-56887D01*
X73598Y-57000D01*
X73810Y-57211D01*
X73857Y-57173D01*
X73896Y-57023D01*
X73896Y-57390D01*
X73524Y-57390D01*
X73630Y-57375D01*
X73673Y-57357D01*
X73711Y-57310D01*
X73500Y-57098D01*
X73401Y-57197D01*
X73401Y-57000D01*
X73189Y-56788D01*
X73142Y-56826D01*
X73103Y-56976D01*
X73124Y-57130D01*
X73142Y-57173D01*
X73189Y-57211D01*
X73401Y-57000D01*
X73401Y-57197D01*
X73288Y-57310D01*
X73326Y-57357D01*
X73451Y-57390D01*
X72890Y-57390D01*
X72890Y-57282D01*
X72890Y-56682D01*
X72876Y-56649D01*
X72851Y-56623D01*
X72817Y-56610D01*
X72782Y-56609D01*
X72182Y-56609D01*
X72149Y-56623D01*
X72123Y-56648D01*
X72110Y-56682D01*
X72109Y-56717D01*
X72109Y-57317D01*
X72123Y-57350D01*
X72148Y-57376D01*
X72182Y-57389D01*
X72217Y-57390D01*
X72817Y-57390D01*
X72850Y-57376D01*
X72876Y-57351D01*
X72889Y-57317D01*
X72890Y-57282D01*
X72890Y-57390D01*
X72109Y-57390D01*
X72109Y-50609D01*
X73475Y-50609D01*
X73369Y-50624D01*
X73326Y-50642D01*
X73288Y-50689D01*
X73500Y-50901D01*
X73711Y-50689D01*
X73673Y-50642D01*
X73548Y-50609D01*
X75890Y-50609D01*
X75890Y-51810D01*
X75887Y-51803D01*
X75862Y-51778D01*
X75828Y-51764D01*
X75793Y-51764D01*
X75509Y-51764D01*
X75509Y-51669D01*
X75494Y-51596D01*
X75464Y-51552D01*
X75465Y-51497D01*
X75424Y-51400D01*
X75409Y-51384D01*
X75422Y-51389D01*
X75577Y-51390D01*
X75720Y-51330D01*
X75830Y-51221D01*
X75889Y-51077D01*
X75890Y-50922D01*
X75830Y-50779D01*
X75721Y-50669D01*
X75577Y-50610D01*
X75422Y-50609D01*
X75279Y-50669D01*
X75169Y-50778D01*
X75110Y-50922D01*
X75110Y-50941D01*
X73940Y-52112D01*
X73940Y-51757D01*
X74341Y-51356D01*
X74422Y-51389D01*
X74577Y-51390D01*
X74720Y-51330D01*
X74830Y-51221D01*
X74889Y-51077D01*
X74890Y-50922D01*
X74830Y-50779D01*
X74721Y-50669D01*
X74577Y-50610D01*
X74422Y-50609D01*
X74279Y-50669D01*
X74169Y-50778D01*
X74110Y-50922D01*
X74109Y-51077D01*
X74143Y-51158D01*
X73896Y-51405D01*
X73896Y-51023D01*
X73875Y-50869D01*
X73857Y-50826D01*
X73810Y-50788D01*
X73598Y-51000D01*
X73810Y-51211D01*
X73857Y-51173D01*
X73896Y-51023D01*
X73896Y-51405D01*
X73701Y-51601D01*
X73670Y-51646D01*
X73660Y-51700D01*
X73660Y-51764D01*
X73628Y-51764D01*
X73344Y-51764D01*
X73344Y-51730D01*
X73374Y-51700D01*
X73414Y-51602D01*
X73415Y-51497D01*
X73374Y-51400D01*
X73334Y-51359D01*
X73476Y-51396D01*
X73630Y-51375D01*
X73673Y-51357D01*
X73711Y-51310D01*
X73500Y-51098D01*
X73401Y-51197D01*
X73401Y-51000D01*
X73189Y-50788D01*
X73142Y-50826D01*
X73103Y-50976D01*
X73124Y-51130D01*
X73142Y-51173D01*
X73189Y-51211D01*
X73401Y-51000D01*
X73401Y-51197D01*
X73288Y-51310D01*
X73303Y-51328D01*
X73300Y-51325D01*
X73202Y-51285D01*
X73097Y-51284D01*
X73000Y-51325D01*
X72925Y-51399D01*
X72890Y-51485D01*
X72890Y-51282D01*
X72890Y-50682D01*
X72876Y-50649D01*
X72851Y-50623D01*
X72817Y-50610D01*
X72782Y-50609D01*
X72182Y-50609D01*
X72149Y-50623D01*
X72123Y-50648D01*
X72110Y-50682D01*
X72109Y-50717D01*
X72109Y-51317D01*
X72123Y-51350D01*
X72148Y-51376D01*
X72182Y-51389D01*
X72217Y-51390D01*
X72817Y-51390D01*
X72850Y-51376D01*
X72876Y-51351D01*
X72889Y-51317D01*
X72890Y-51282D01*
X72890Y-51485D01*
X72885Y-51497D01*
X72884Y-51602D01*
X72925Y-51699D01*
X72964Y-51738D01*
X72964Y-51764D01*
X72644Y-51764D01*
X72611Y-51778D01*
X72585Y-51803D01*
X72572Y-51836D01*
X72571Y-51872D01*
X72571Y-52659D01*
X72585Y-52692D01*
X72610Y-52717D01*
X72644Y-52731D01*
X72679Y-52731D01*
X73660Y-52731D01*
X73660Y-53500D01*
X73670Y-53553D01*
X73701Y-53598D01*
X73751Y-53648D01*
X73802Y-53700D01*
X73607Y-53895D01*
X73559Y-53894D01*
X73484Y-53926D01*
X73426Y-53983D01*
X73395Y-54059D01*
X73394Y-54140D01*
X73426Y-54215D01*
X73483Y-54273D01*
X73559Y-54304D01*
X73640Y-54305D01*
X73715Y-54273D01*
X73773Y-54216D01*
X73804Y-54140D01*
X73805Y-54092D01*
X74000Y-53897D01*
X74516Y-54413D01*
X74561Y-54444D01*
X74561Y-54444D01*
X74615Y-54455D01*
X74824Y-54455D01*
X74828Y-54464D01*
X74836Y-54472D01*
X74828Y-54480D01*
X74815Y-54513D01*
X74814Y-54549D01*
X74814Y-54746D01*
X74815Y-54748D01*
X74750Y-54775D01*
X74675Y-54849D01*
X74635Y-54947D01*
X74634Y-55052D01*
X74675Y-55149D01*
X74749Y-55224D01*
X74847Y-55264D01*
X74952Y-55265D01*
X75049Y-55224D01*
X75060Y-55214D01*
X75075Y-55249D01*
X75093Y-55268D01*
X74809Y-55268D01*
X74776Y-55282D01*
X74750Y-55307D01*
X74737Y-55340D01*
X74736Y-55376D01*
X74736Y-55562D01*
X74602Y-55562D01*
X74602Y-54813D01*
X74561Y-54714D01*
X74486Y-54639D01*
X74388Y-54599D01*
X74282Y-54598D01*
X74183Y-54639D01*
X74108Y-54714D01*
X74068Y-54812D01*
X74067Y-54918D01*
X74108Y-55017D01*
X74183Y-55092D01*
X74281Y-55132D01*
X74387Y-55133D01*
X74486Y-55092D01*
X74561Y-55017D01*
X74601Y-54919D01*
X74602Y-54813D01*
X74602Y-55562D01*
X73736Y-55562D01*
X73736Y-55340D01*
X73722Y-55307D01*
X73697Y-55282D01*
X73663Y-55268D01*
X73628Y-55268D01*
X73344Y-55268D01*
X73344Y-53924D01*
X73403Y-53865D01*
X73452Y-53865D01*
X73549Y-53824D01*
X73624Y-53750D01*
X73664Y-53652D01*
X73665Y-53547D01*
X73624Y-53450D01*
X73550Y-53375D01*
X73452Y-53335D01*
X73347Y-53334D01*
X73250Y-53375D01*
X73175Y-53449D01*
X73135Y-53547D01*
X73135Y-53596D01*
X73019Y-53711D01*
X72978Y-53773D01*
X72964Y-53846D01*
X72964Y-55268D01*
X72644Y-55268D01*
X72611Y-55282D01*
X72585Y-55307D01*
X72572Y-55340D01*
X72571Y-55376D01*
X72571Y-56163D01*
X72585Y-56196D01*
X72610Y-56221D01*
X72644Y-56235D01*
X72679Y-56235D01*
X73663Y-56235D01*
X73696Y-56221D01*
X73722Y-56196D01*
X73735Y-56163D01*
X73736Y-56127D01*
X73736Y-55942D01*
X74736Y-55942D01*
X74736Y-56163D01*
X74750Y-56196D01*
X74775Y-56221D01*
X74809Y-56235D01*
X74844Y-56235D01*
X75828Y-56235D01*
X75861Y-56221D01*
X75887Y-56196D01*
X75890Y-56189D01*
X75890Y-57390D01*
M02*
