G04 (created by PCBNEW (2013-june-11)-stable) date Sat 19 Jul 2014 01:12:28 PM PDT*
%MOIN*%
G04 Gerber Fmt 3.4, Leading zero omitted, Abs format*
%FSLAX34Y34*%
G01*
G70*
G90*
G04 APERTURE LIST*
%ADD10C,0.00590551*%
%ADD11R,0.0906X0.0197*%
%ADD12R,0.0984X0.0777*%
%ADD13R,0.06X0.06*%
%ADD14C,0.06*%
%ADD15C,0.023*%
%ADD16C,0.035*%
%ADD17C,0.01*%
%ADD18C,0.02*%
%ADD19C,0.006*%
G04 APERTURE END LIST*
G54D10*
G54D11*
X75358Y-54630D03*
X75358Y-54315D03*
X75358Y-54000D03*
X75358Y-53685D03*
X75358Y-53370D03*
G54D12*
X75319Y-55742D03*
X73154Y-55742D03*
X75319Y-52258D03*
X73154Y-52258D03*
G54D13*
X72500Y-51500D03*
G54D14*
X73500Y-51500D03*
X74500Y-51500D03*
X75500Y-51500D03*
G54D13*
X72500Y-56500D03*
G54D14*
X73500Y-56500D03*
X74500Y-56500D03*
X75500Y-56500D03*
G54D15*
X74500Y-53675D03*
X74150Y-53675D03*
X74800Y-53675D03*
G54D16*
X75475Y-55125D03*
X74450Y-52650D03*
X75725Y-53000D03*
X74275Y-54425D03*
G54D17*
X74800Y-54000D02*
X74500Y-53700D01*
X74500Y-53700D02*
X74500Y-53675D01*
X74800Y-54000D02*
X75358Y-54000D01*
X75358Y-54315D02*
X74790Y-54315D01*
X74790Y-54315D02*
X74150Y-53675D01*
X74810Y-53685D02*
X74800Y-53675D01*
X75358Y-53685D02*
X74810Y-53685D01*
G54D18*
X75319Y-55281D02*
X75319Y-55742D01*
X75475Y-55125D02*
X75319Y-55281D01*
X74450Y-52650D02*
X74800Y-53000D01*
X74800Y-53000D02*
X75725Y-53000D01*
X75358Y-54630D02*
X74808Y-54630D01*
X74603Y-54425D02*
X74275Y-54425D01*
X74808Y-54630D02*
X74603Y-54425D01*
G54D10*
G36*
X75890Y-56890D02*
X74896Y-56890D01*
X74896Y-56523D01*
X74875Y-56369D01*
X74857Y-56326D01*
X74810Y-56288D01*
X74711Y-56387D01*
X74711Y-56189D01*
X74673Y-56142D01*
X74523Y-56103D01*
X74369Y-56124D01*
X74326Y-56142D01*
X74288Y-56189D01*
X74500Y-56401D01*
X74711Y-56189D01*
X74711Y-56387D01*
X74598Y-56500D01*
X74810Y-56711D01*
X74857Y-56673D01*
X74896Y-56523D01*
X74896Y-56890D01*
X74524Y-56890D01*
X74630Y-56875D01*
X74673Y-56857D01*
X74711Y-56810D01*
X74500Y-56598D01*
X74401Y-56697D01*
X74401Y-56500D01*
X74189Y-56288D01*
X74142Y-56326D01*
X74103Y-56476D01*
X74124Y-56630D01*
X74142Y-56673D01*
X74189Y-56711D01*
X74401Y-56500D01*
X74401Y-56697D01*
X74288Y-56810D01*
X74326Y-56857D01*
X74451Y-56890D01*
X73896Y-56890D01*
X73896Y-56523D01*
X73896Y-51523D01*
X73875Y-51369D01*
X73857Y-51326D01*
X73810Y-51288D01*
X73598Y-51500D01*
X73810Y-51711D01*
X73857Y-51673D01*
X73896Y-51523D01*
X73896Y-56523D01*
X73875Y-56369D01*
X73857Y-56326D01*
X73810Y-56288D01*
X73736Y-56362D01*
X73736Y-56112D01*
X73736Y-55335D01*
X73736Y-52628D01*
X73736Y-51851D01*
X73722Y-51818D01*
X73697Y-51793D01*
X73692Y-51791D01*
X73500Y-51598D01*
X73494Y-51604D01*
X73401Y-51511D01*
X73395Y-51505D01*
X73401Y-51500D01*
X73189Y-51288D01*
X73142Y-51326D01*
X73103Y-51476D01*
X73124Y-51630D01*
X73142Y-51673D01*
X73189Y-51711D01*
X73169Y-51731D01*
X73217Y-51779D01*
X72890Y-51779D01*
X72890Y-51182D01*
X72876Y-51149D01*
X72851Y-51123D01*
X72817Y-51110D01*
X72782Y-51109D01*
X72182Y-51109D01*
X72149Y-51123D01*
X72123Y-51148D01*
X72110Y-51182D01*
X72109Y-51217D01*
X72109Y-51817D01*
X72123Y-51850D01*
X72148Y-51876D01*
X72182Y-51889D01*
X72217Y-51890D01*
X72571Y-51890D01*
X72571Y-52664D01*
X72585Y-52697D01*
X72610Y-52722D01*
X72644Y-52736D01*
X72679Y-52736D01*
X73663Y-52736D01*
X73696Y-52722D01*
X73722Y-52697D01*
X73735Y-52664D01*
X73736Y-52628D01*
X73736Y-55335D01*
X73722Y-55302D01*
X73697Y-55277D01*
X73663Y-55263D01*
X73628Y-55263D01*
X72644Y-55263D01*
X72611Y-55277D01*
X72585Y-55302D01*
X72572Y-55335D01*
X72571Y-55371D01*
X72571Y-56109D01*
X72182Y-56109D01*
X72149Y-56123D01*
X72123Y-56148D01*
X72110Y-56182D01*
X72109Y-56217D01*
X72109Y-56817D01*
X72123Y-56850D01*
X72148Y-56876D01*
X72182Y-56889D01*
X72217Y-56890D01*
X72817Y-56890D01*
X72850Y-56876D01*
X72876Y-56851D01*
X72889Y-56817D01*
X72890Y-56782D01*
X72890Y-56220D01*
X73217Y-56220D01*
X73169Y-56268D01*
X73189Y-56288D01*
X73142Y-56326D01*
X73103Y-56476D01*
X73124Y-56630D01*
X73142Y-56673D01*
X73189Y-56711D01*
X73401Y-56500D01*
X73395Y-56494D01*
X73494Y-56395D01*
X73500Y-56401D01*
X73692Y-56208D01*
X73696Y-56206D01*
X73722Y-56181D01*
X73735Y-56148D01*
X73736Y-56112D01*
X73736Y-56362D01*
X73598Y-56500D01*
X73810Y-56711D01*
X73857Y-56673D01*
X73896Y-56523D01*
X73896Y-56890D01*
X73524Y-56890D01*
X73630Y-56875D01*
X73673Y-56857D01*
X73711Y-56810D01*
X73500Y-56598D01*
X73401Y-56697D01*
X73288Y-56810D01*
X73326Y-56857D01*
X73451Y-56890D01*
X72109Y-56890D01*
X72109Y-51109D01*
X73475Y-51109D01*
X73369Y-51124D01*
X73326Y-51142D01*
X73288Y-51189D01*
X73500Y-51401D01*
X73711Y-51189D01*
X73673Y-51142D01*
X73548Y-51109D01*
X75890Y-51109D01*
X75890Y-51825D01*
X75887Y-51818D01*
X75862Y-51793D01*
X75828Y-51779D01*
X75793Y-51779D01*
X75772Y-51779D01*
X75830Y-51721D01*
X75889Y-51577D01*
X75890Y-51422D01*
X75830Y-51279D01*
X75721Y-51169D01*
X75577Y-51110D01*
X75422Y-51109D01*
X75279Y-51169D01*
X75169Y-51278D01*
X75110Y-51422D01*
X75109Y-51577D01*
X75169Y-51720D01*
X75227Y-51779D01*
X74890Y-51779D01*
X74890Y-51422D01*
X74830Y-51279D01*
X74721Y-51169D01*
X74577Y-51110D01*
X74422Y-51109D01*
X74279Y-51169D01*
X74169Y-51278D01*
X74110Y-51422D01*
X74109Y-51577D01*
X74169Y-51720D01*
X74278Y-51830D01*
X74422Y-51889D01*
X74577Y-51890D01*
X74720Y-51830D01*
X74830Y-51721D01*
X74889Y-51577D01*
X74890Y-51422D01*
X74890Y-51779D01*
X74809Y-51779D01*
X74776Y-51793D01*
X74750Y-51818D01*
X74737Y-51851D01*
X74736Y-51887D01*
X74736Y-52664D01*
X74739Y-52671D01*
X74715Y-52646D01*
X74715Y-52597D01*
X74674Y-52500D01*
X74600Y-52425D01*
X74502Y-52385D01*
X74397Y-52384D01*
X74300Y-52425D01*
X74225Y-52499D01*
X74185Y-52597D01*
X74184Y-52702D01*
X74225Y-52799D01*
X74292Y-52866D01*
X74282Y-52866D01*
X74183Y-52907D01*
X74108Y-52982D01*
X74068Y-53080D01*
X74067Y-53186D01*
X74108Y-53285D01*
X74183Y-53360D01*
X74281Y-53400D01*
X74387Y-53401D01*
X74486Y-53360D01*
X74561Y-53285D01*
X74601Y-53187D01*
X74602Y-53081D01*
X74594Y-53063D01*
X74665Y-53134D01*
X74665Y-53134D01*
X74727Y-53175D01*
X74787Y-53187D01*
X74799Y-53190D01*
X74799Y-53189D01*
X74800Y-53190D01*
X74866Y-53190D01*
X74854Y-53195D01*
X74828Y-53220D01*
X74815Y-53253D01*
X74814Y-53289D01*
X74815Y-53298D01*
X74837Y-53320D01*
X75288Y-53320D01*
X75288Y-53292D01*
X75428Y-53292D01*
X75428Y-53320D01*
X75435Y-53320D01*
X75435Y-53419D01*
X75428Y-53419D01*
X75428Y-53447D01*
X75288Y-53447D01*
X75288Y-53419D01*
X74837Y-53419D01*
X74815Y-53441D01*
X74814Y-53450D01*
X74815Y-53470D01*
X74759Y-53469D01*
X74684Y-53501D01*
X74649Y-53535D01*
X74616Y-53501D01*
X74540Y-53470D01*
X74459Y-53469D01*
X74384Y-53501D01*
X74326Y-53558D01*
X74325Y-53561D01*
X74323Y-53559D01*
X74266Y-53501D01*
X74190Y-53470D01*
X74109Y-53469D01*
X74034Y-53501D01*
X73976Y-53558D01*
X73945Y-53634D01*
X73944Y-53715D01*
X73976Y-53790D01*
X74033Y-53848D01*
X74109Y-53879D01*
X74157Y-53880D01*
X74512Y-54235D01*
X74459Y-54235D01*
X74425Y-54200D01*
X74327Y-54160D01*
X74222Y-54159D01*
X74125Y-54200D01*
X74050Y-54274D01*
X74010Y-54372D01*
X74009Y-54477D01*
X74050Y-54574D01*
X74124Y-54649D01*
X74159Y-54663D01*
X74108Y-54714D01*
X74068Y-54812D01*
X74067Y-54918D01*
X74108Y-55017D01*
X74183Y-55092D01*
X74281Y-55132D01*
X74387Y-55133D01*
X74486Y-55092D01*
X74561Y-55017D01*
X74601Y-54919D01*
X74602Y-54813D01*
X74561Y-54714D01*
X74486Y-54639D01*
X74450Y-54624D01*
X74459Y-54615D01*
X74524Y-54615D01*
X74673Y-54764D01*
X74735Y-54805D01*
X74808Y-54820D01*
X75358Y-54820D01*
X75365Y-54818D01*
X75828Y-54818D01*
X75861Y-54804D01*
X75887Y-54779D01*
X75890Y-54772D01*
X75890Y-55309D01*
X75887Y-55302D01*
X75862Y-55277D01*
X75828Y-55263D01*
X75793Y-55263D01*
X75704Y-55263D01*
X75739Y-55177D01*
X75740Y-55072D01*
X75699Y-54975D01*
X75625Y-54900D01*
X75527Y-54860D01*
X75422Y-54859D01*
X75325Y-54900D01*
X75250Y-54974D01*
X75210Y-55072D01*
X75210Y-55121D01*
X75184Y-55146D01*
X75143Y-55208D01*
X75132Y-55263D01*
X74809Y-55263D01*
X74776Y-55277D01*
X74750Y-55302D01*
X74737Y-55335D01*
X74736Y-55371D01*
X74736Y-56148D01*
X74750Y-56181D01*
X74775Y-56206D01*
X74809Y-56220D01*
X74844Y-56220D01*
X75227Y-56220D01*
X75169Y-56278D01*
X75110Y-56422D01*
X75109Y-56577D01*
X75169Y-56720D01*
X75278Y-56830D01*
X75422Y-56889D01*
X75577Y-56890D01*
X75720Y-56830D01*
X75830Y-56721D01*
X75889Y-56577D01*
X75890Y-56422D01*
X75830Y-56279D01*
X75772Y-56220D01*
X75828Y-56220D01*
X75861Y-56206D01*
X75887Y-56181D01*
X75890Y-56174D01*
X75890Y-56890D01*
X75890Y-56890D01*
G37*
G54D19*
X75890Y-56890D02*
X74896Y-56890D01*
X74896Y-56523D01*
X74875Y-56369D01*
X74857Y-56326D01*
X74810Y-56288D01*
X74711Y-56387D01*
X74711Y-56189D01*
X74673Y-56142D01*
X74523Y-56103D01*
X74369Y-56124D01*
X74326Y-56142D01*
X74288Y-56189D01*
X74500Y-56401D01*
X74711Y-56189D01*
X74711Y-56387D01*
X74598Y-56500D01*
X74810Y-56711D01*
X74857Y-56673D01*
X74896Y-56523D01*
X74896Y-56890D01*
X74524Y-56890D01*
X74630Y-56875D01*
X74673Y-56857D01*
X74711Y-56810D01*
X74500Y-56598D01*
X74401Y-56697D01*
X74401Y-56500D01*
X74189Y-56288D01*
X74142Y-56326D01*
X74103Y-56476D01*
X74124Y-56630D01*
X74142Y-56673D01*
X74189Y-56711D01*
X74401Y-56500D01*
X74401Y-56697D01*
X74288Y-56810D01*
X74326Y-56857D01*
X74451Y-56890D01*
X73896Y-56890D01*
X73896Y-56523D01*
X73896Y-51523D01*
X73875Y-51369D01*
X73857Y-51326D01*
X73810Y-51288D01*
X73598Y-51500D01*
X73810Y-51711D01*
X73857Y-51673D01*
X73896Y-51523D01*
X73896Y-56523D01*
X73875Y-56369D01*
X73857Y-56326D01*
X73810Y-56288D01*
X73736Y-56362D01*
X73736Y-56112D01*
X73736Y-55335D01*
X73736Y-52628D01*
X73736Y-51851D01*
X73722Y-51818D01*
X73697Y-51793D01*
X73692Y-51791D01*
X73500Y-51598D01*
X73494Y-51604D01*
X73401Y-51511D01*
X73395Y-51505D01*
X73401Y-51500D01*
X73189Y-51288D01*
X73142Y-51326D01*
X73103Y-51476D01*
X73124Y-51630D01*
X73142Y-51673D01*
X73189Y-51711D01*
X73169Y-51731D01*
X73217Y-51779D01*
X72890Y-51779D01*
X72890Y-51182D01*
X72876Y-51149D01*
X72851Y-51123D01*
X72817Y-51110D01*
X72782Y-51109D01*
X72182Y-51109D01*
X72149Y-51123D01*
X72123Y-51148D01*
X72110Y-51182D01*
X72109Y-51217D01*
X72109Y-51817D01*
X72123Y-51850D01*
X72148Y-51876D01*
X72182Y-51889D01*
X72217Y-51890D01*
X72571Y-51890D01*
X72571Y-52664D01*
X72585Y-52697D01*
X72610Y-52722D01*
X72644Y-52736D01*
X72679Y-52736D01*
X73663Y-52736D01*
X73696Y-52722D01*
X73722Y-52697D01*
X73735Y-52664D01*
X73736Y-52628D01*
X73736Y-55335D01*
X73722Y-55302D01*
X73697Y-55277D01*
X73663Y-55263D01*
X73628Y-55263D01*
X72644Y-55263D01*
X72611Y-55277D01*
X72585Y-55302D01*
X72572Y-55335D01*
X72571Y-55371D01*
X72571Y-56109D01*
X72182Y-56109D01*
X72149Y-56123D01*
X72123Y-56148D01*
X72110Y-56182D01*
X72109Y-56217D01*
X72109Y-56817D01*
X72123Y-56850D01*
X72148Y-56876D01*
X72182Y-56889D01*
X72217Y-56890D01*
X72817Y-56890D01*
X72850Y-56876D01*
X72876Y-56851D01*
X72889Y-56817D01*
X72890Y-56782D01*
X72890Y-56220D01*
X73217Y-56220D01*
X73169Y-56268D01*
X73189Y-56288D01*
X73142Y-56326D01*
X73103Y-56476D01*
X73124Y-56630D01*
X73142Y-56673D01*
X73189Y-56711D01*
X73401Y-56500D01*
X73395Y-56494D01*
X73494Y-56395D01*
X73500Y-56401D01*
X73692Y-56208D01*
X73696Y-56206D01*
X73722Y-56181D01*
X73735Y-56148D01*
X73736Y-56112D01*
X73736Y-56362D01*
X73598Y-56500D01*
X73810Y-56711D01*
X73857Y-56673D01*
X73896Y-56523D01*
X73896Y-56890D01*
X73524Y-56890D01*
X73630Y-56875D01*
X73673Y-56857D01*
X73711Y-56810D01*
X73500Y-56598D01*
X73401Y-56697D01*
X73288Y-56810D01*
X73326Y-56857D01*
X73451Y-56890D01*
X72109Y-56890D01*
X72109Y-51109D01*
X73475Y-51109D01*
X73369Y-51124D01*
X73326Y-51142D01*
X73288Y-51189D01*
X73500Y-51401D01*
X73711Y-51189D01*
X73673Y-51142D01*
X73548Y-51109D01*
X75890Y-51109D01*
X75890Y-51825D01*
X75887Y-51818D01*
X75862Y-51793D01*
X75828Y-51779D01*
X75793Y-51779D01*
X75772Y-51779D01*
X75830Y-51721D01*
X75889Y-51577D01*
X75890Y-51422D01*
X75830Y-51279D01*
X75721Y-51169D01*
X75577Y-51110D01*
X75422Y-51109D01*
X75279Y-51169D01*
X75169Y-51278D01*
X75110Y-51422D01*
X75109Y-51577D01*
X75169Y-51720D01*
X75227Y-51779D01*
X74890Y-51779D01*
X74890Y-51422D01*
X74830Y-51279D01*
X74721Y-51169D01*
X74577Y-51110D01*
X74422Y-51109D01*
X74279Y-51169D01*
X74169Y-51278D01*
X74110Y-51422D01*
X74109Y-51577D01*
X74169Y-51720D01*
X74278Y-51830D01*
X74422Y-51889D01*
X74577Y-51890D01*
X74720Y-51830D01*
X74830Y-51721D01*
X74889Y-51577D01*
X74890Y-51422D01*
X74890Y-51779D01*
X74809Y-51779D01*
X74776Y-51793D01*
X74750Y-51818D01*
X74737Y-51851D01*
X74736Y-51887D01*
X74736Y-52664D01*
X74739Y-52671D01*
X74715Y-52646D01*
X74715Y-52597D01*
X74674Y-52500D01*
X74600Y-52425D01*
X74502Y-52385D01*
X74397Y-52384D01*
X74300Y-52425D01*
X74225Y-52499D01*
X74185Y-52597D01*
X74184Y-52702D01*
X74225Y-52799D01*
X74292Y-52866D01*
X74282Y-52866D01*
X74183Y-52907D01*
X74108Y-52982D01*
X74068Y-53080D01*
X74067Y-53186D01*
X74108Y-53285D01*
X74183Y-53360D01*
X74281Y-53400D01*
X74387Y-53401D01*
X74486Y-53360D01*
X74561Y-53285D01*
X74601Y-53187D01*
X74602Y-53081D01*
X74594Y-53063D01*
X74665Y-53134D01*
X74665Y-53134D01*
X74727Y-53175D01*
X74787Y-53187D01*
X74799Y-53190D01*
X74799Y-53189D01*
X74800Y-53190D01*
X74866Y-53190D01*
X74854Y-53195D01*
X74828Y-53220D01*
X74815Y-53253D01*
X74814Y-53289D01*
X74815Y-53298D01*
X74837Y-53320D01*
X75288Y-53320D01*
X75288Y-53292D01*
X75428Y-53292D01*
X75428Y-53320D01*
X75435Y-53320D01*
X75435Y-53419D01*
X75428Y-53419D01*
X75428Y-53447D01*
X75288Y-53447D01*
X75288Y-53419D01*
X74837Y-53419D01*
X74815Y-53441D01*
X74814Y-53450D01*
X74815Y-53470D01*
X74759Y-53469D01*
X74684Y-53501D01*
X74649Y-53535D01*
X74616Y-53501D01*
X74540Y-53470D01*
X74459Y-53469D01*
X74384Y-53501D01*
X74326Y-53558D01*
X74325Y-53561D01*
X74323Y-53559D01*
X74266Y-53501D01*
X74190Y-53470D01*
X74109Y-53469D01*
X74034Y-53501D01*
X73976Y-53558D01*
X73945Y-53634D01*
X73944Y-53715D01*
X73976Y-53790D01*
X74033Y-53848D01*
X74109Y-53879D01*
X74157Y-53880D01*
X74512Y-54235D01*
X74459Y-54235D01*
X74425Y-54200D01*
X74327Y-54160D01*
X74222Y-54159D01*
X74125Y-54200D01*
X74050Y-54274D01*
X74010Y-54372D01*
X74009Y-54477D01*
X74050Y-54574D01*
X74124Y-54649D01*
X74159Y-54663D01*
X74108Y-54714D01*
X74068Y-54812D01*
X74067Y-54918D01*
X74108Y-55017D01*
X74183Y-55092D01*
X74281Y-55132D01*
X74387Y-55133D01*
X74486Y-55092D01*
X74561Y-55017D01*
X74601Y-54919D01*
X74602Y-54813D01*
X74561Y-54714D01*
X74486Y-54639D01*
X74450Y-54624D01*
X74459Y-54615D01*
X74524Y-54615D01*
X74673Y-54764D01*
X74735Y-54805D01*
X74808Y-54820D01*
X75358Y-54820D01*
X75365Y-54818D01*
X75828Y-54818D01*
X75861Y-54804D01*
X75887Y-54779D01*
X75890Y-54772D01*
X75890Y-55309D01*
X75887Y-55302D01*
X75862Y-55277D01*
X75828Y-55263D01*
X75793Y-55263D01*
X75704Y-55263D01*
X75739Y-55177D01*
X75740Y-55072D01*
X75699Y-54975D01*
X75625Y-54900D01*
X75527Y-54860D01*
X75422Y-54859D01*
X75325Y-54900D01*
X75250Y-54974D01*
X75210Y-55072D01*
X75210Y-55121D01*
X75184Y-55146D01*
X75143Y-55208D01*
X75132Y-55263D01*
X74809Y-55263D01*
X74776Y-55277D01*
X74750Y-55302D01*
X74737Y-55335D01*
X74736Y-55371D01*
X74736Y-56148D01*
X74750Y-56181D01*
X74775Y-56206D01*
X74809Y-56220D01*
X74844Y-56220D01*
X75227Y-56220D01*
X75169Y-56278D01*
X75110Y-56422D01*
X75109Y-56577D01*
X75169Y-56720D01*
X75278Y-56830D01*
X75422Y-56889D01*
X75577Y-56890D01*
X75720Y-56830D01*
X75830Y-56721D01*
X75889Y-56577D01*
X75890Y-56422D01*
X75830Y-56279D01*
X75772Y-56220D01*
X75828Y-56220D01*
X75861Y-56206D01*
X75887Y-56181D01*
X75890Y-56174D01*
X75890Y-56890D01*
M02*
