G04 (created by PCBNEW (2013-june-11)-stable) date Thu 23 Jan 2014 03:09:13 PM PST*
%MOIN*%
G04 Gerber Fmt 3.4, Leading zero omitted, Abs format*
%FSLAX34Y34*%
G01*
G70*
G90*
G04 APERTURE LIST*
%ADD10C,0.00590551*%
%ADD11C,0.011811*%
%ADD12R,0.055X0.055*%
%ADD13C,0.055*%
G04 APERTURE END LIST*
G54D10*
G54D11*
X96154Y-36607D02*
X96178Y-36583D01*
X96202Y-36511D01*
X96202Y-36464D01*
X96178Y-36392D01*
X96130Y-36345D01*
X96083Y-36321D01*
X95988Y-36297D01*
X95916Y-36297D01*
X95821Y-36321D01*
X95773Y-36345D01*
X95726Y-36392D01*
X95702Y-36464D01*
X95702Y-36511D01*
X95726Y-36583D01*
X95750Y-36607D01*
X96202Y-36821D02*
X95702Y-36821D01*
X96202Y-37035D02*
X95940Y-37035D01*
X95892Y-37011D01*
X95869Y-36964D01*
X95869Y-36892D01*
X95892Y-36845D01*
X95916Y-36821D01*
X96202Y-37535D02*
X96202Y-37250D01*
X96202Y-37392D02*
X95702Y-37392D01*
X95773Y-37345D01*
X95821Y-37297D01*
X95845Y-37250D01*
X96011Y-37750D02*
X96011Y-38130D01*
X96202Y-37940D02*
X95821Y-37940D01*
X97154Y-36607D02*
X97178Y-36583D01*
X97202Y-36511D01*
X97202Y-36464D01*
X97178Y-36392D01*
X97130Y-36345D01*
X97083Y-36321D01*
X96988Y-36297D01*
X96916Y-36297D01*
X96821Y-36321D01*
X96773Y-36345D01*
X96726Y-36392D01*
X96702Y-36464D01*
X96702Y-36511D01*
X96726Y-36583D01*
X96750Y-36607D01*
X97202Y-36821D02*
X96702Y-36821D01*
X97202Y-37035D02*
X96940Y-37035D01*
X96892Y-37011D01*
X96869Y-36964D01*
X96869Y-36892D01*
X96892Y-36845D01*
X96916Y-36821D01*
X96750Y-37250D02*
X96726Y-37273D01*
X96702Y-37321D01*
X96702Y-37440D01*
X96726Y-37488D01*
X96750Y-37511D01*
X96797Y-37535D01*
X96845Y-37535D01*
X96916Y-37511D01*
X97202Y-37226D01*
X97202Y-37535D01*
X97011Y-37750D02*
X97011Y-38130D01*
X97202Y-37940D02*
X96821Y-37940D01*
X98154Y-36607D02*
X98178Y-36583D01*
X98202Y-36511D01*
X98202Y-36464D01*
X98178Y-36392D01*
X98130Y-36345D01*
X98083Y-36321D01*
X97988Y-36297D01*
X97916Y-36297D01*
X97821Y-36321D01*
X97773Y-36345D01*
X97726Y-36392D01*
X97702Y-36464D01*
X97702Y-36511D01*
X97726Y-36583D01*
X97750Y-36607D01*
X98202Y-36821D02*
X97702Y-36821D01*
X98202Y-37035D02*
X97940Y-37035D01*
X97892Y-37011D01*
X97869Y-36964D01*
X97869Y-36892D01*
X97892Y-36845D01*
X97916Y-36821D01*
X97702Y-37226D02*
X97702Y-37535D01*
X97892Y-37369D01*
X97892Y-37440D01*
X97916Y-37488D01*
X97940Y-37511D01*
X97988Y-37535D01*
X98107Y-37535D01*
X98154Y-37511D01*
X98178Y-37488D01*
X98202Y-37440D01*
X98202Y-37297D01*
X98178Y-37250D01*
X98154Y-37226D01*
X98011Y-37750D02*
X98011Y-38130D01*
X98202Y-37940D02*
X97821Y-37940D01*
X94154Y-36607D02*
X94178Y-36583D01*
X94202Y-36511D01*
X94202Y-36464D01*
X94178Y-36392D01*
X94130Y-36345D01*
X94083Y-36321D01*
X93988Y-36297D01*
X93916Y-36297D01*
X93821Y-36321D01*
X93773Y-36345D01*
X93726Y-36392D01*
X93702Y-36464D01*
X93702Y-36511D01*
X93726Y-36583D01*
X93750Y-36607D01*
X94202Y-36821D02*
X93702Y-36821D01*
X94202Y-37035D02*
X93940Y-37035D01*
X93892Y-37011D01*
X93869Y-36964D01*
X93869Y-36892D01*
X93892Y-36845D01*
X93916Y-36821D01*
X93702Y-37226D02*
X93702Y-37535D01*
X93892Y-37369D01*
X93892Y-37440D01*
X93916Y-37488D01*
X93940Y-37511D01*
X93988Y-37535D01*
X94107Y-37535D01*
X94154Y-37511D01*
X94178Y-37488D01*
X94202Y-37440D01*
X94202Y-37297D01*
X94178Y-37250D01*
X94154Y-37226D01*
X94011Y-37750D02*
X94011Y-38130D01*
X93154Y-36607D02*
X93178Y-36583D01*
X93202Y-36511D01*
X93202Y-36464D01*
X93178Y-36392D01*
X93130Y-36345D01*
X93083Y-36321D01*
X92988Y-36297D01*
X92916Y-36297D01*
X92821Y-36321D01*
X92773Y-36345D01*
X92726Y-36392D01*
X92702Y-36464D01*
X92702Y-36511D01*
X92726Y-36583D01*
X92750Y-36607D01*
X93202Y-36821D02*
X92702Y-36821D01*
X93202Y-37035D02*
X92940Y-37035D01*
X92892Y-37011D01*
X92869Y-36964D01*
X92869Y-36892D01*
X92892Y-36845D01*
X92916Y-36821D01*
X92750Y-37250D02*
X92726Y-37273D01*
X92702Y-37321D01*
X92702Y-37440D01*
X92726Y-37488D01*
X92750Y-37511D01*
X92797Y-37535D01*
X92845Y-37535D01*
X92916Y-37511D01*
X93202Y-37226D01*
X93202Y-37535D01*
X93011Y-37750D02*
X93011Y-38130D01*
X92154Y-36607D02*
X92178Y-36583D01*
X92202Y-36511D01*
X92202Y-36464D01*
X92178Y-36392D01*
X92130Y-36345D01*
X92083Y-36321D01*
X91988Y-36297D01*
X91916Y-36297D01*
X91821Y-36321D01*
X91773Y-36345D01*
X91726Y-36392D01*
X91702Y-36464D01*
X91702Y-36511D01*
X91726Y-36583D01*
X91750Y-36607D01*
X92202Y-36821D02*
X91702Y-36821D01*
X92202Y-37035D02*
X91940Y-37035D01*
X91892Y-37011D01*
X91869Y-36964D01*
X91869Y-36892D01*
X91892Y-36845D01*
X91916Y-36821D01*
X92202Y-37535D02*
X92202Y-37250D01*
X92202Y-37392D02*
X91702Y-37392D01*
X91773Y-37345D01*
X91821Y-37297D01*
X91845Y-37250D01*
X92011Y-37750D02*
X92011Y-38130D01*
X97726Y-30130D02*
X97702Y-30083D01*
X97702Y-30011D01*
X97726Y-29940D01*
X97773Y-29892D01*
X97821Y-29869D01*
X97916Y-29845D01*
X97988Y-29845D01*
X98083Y-29869D01*
X98130Y-29892D01*
X98178Y-29940D01*
X98202Y-30011D01*
X98202Y-30059D01*
X98178Y-30130D01*
X98154Y-30154D01*
X97988Y-30154D01*
X97988Y-30059D01*
X98202Y-30369D02*
X97702Y-30369D01*
X98202Y-30654D01*
X97702Y-30654D01*
X98202Y-30892D02*
X97702Y-30892D01*
X97702Y-31011D01*
X97726Y-31083D01*
X97773Y-31130D01*
X97821Y-31154D01*
X97916Y-31178D01*
X97988Y-31178D01*
X98083Y-31154D01*
X98130Y-31130D01*
X98178Y-31083D01*
X98202Y-31011D01*
X98202Y-30892D01*
X97154Y-30154D02*
X97178Y-30130D01*
X97202Y-30059D01*
X97202Y-30011D01*
X97178Y-29940D01*
X97130Y-29892D01*
X97083Y-29869D01*
X96988Y-29845D01*
X96916Y-29845D01*
X96821Y-29869D01*
X96773Y-29892D01*
X96726Y-29940D01*
X96702Y-30011D01*
X96702Y-30059D01*
X96726Y-30130D01*
X96750Y-30154D01*
X97202Y-30369D02*
X96702Y-30369D01*
X97202Y-30583D02*
X96940Y-30583D01*
X96892Y-30559D01*
X96869Y-30511D01*
X96869Y-30440D01*
X96892Y-30392D01*
X96916Y-30369D01*
X96702Y-30773D02*
X96702Y-31083D01*
X96892Y-30916D01*
X96892Y-30988D01*
X96916Y-31035D01*
X96940Y-31059D01*
X96988Y-31083D01*
X97107Y-31083D01*
X97154Y-31059D01*
X97178Y-31035D01*
X97202Y-30988D01*
X97202Y-30845D01*
X97178Y-30797D01*
X97154Y-30773D01*
X96154Y-30154D02*
X96178Y-30130D01*
X96202Y-30059D01*
X96202Y-30011D01*
X96178Y-29940D01*
X96130Y-29892D01*
X96083Y-29869D01*
X95988Y-29845D01*
X95916Y-29845D01*
X95821Y-29869D01*
X95773Y-29892D01*
X95726Y-29940D01*
X95702Y-30011D01*
X95702Y-30059D01*
X95726Y-30130D01*
X95750Y-30154D01*
X96202Y-30369D02*
X95702Y-30369D01*
X96202Y-30583D02*
X95940Y-30583D01*
X95892Y-30559D01*
X95869Y-30511D01*
X95869Y-30440D01*
X95892Y-30392D01*
X95916Y-30369D01*
X95750Y-30797D02*
X95726Y-30821D01*
X95702Y-30869D01*
X95702Y-30988D01*
X95726Y-31035D01*
X95750Y-31059D01*
X95797Y-31083D01*
X95845Y-31083D01*
X95916Y-31059D01*
X96202Y-30773D01*
X96202Y-31083D01*
X95154Y-30154D02*
X95178Y-30130D01*
X95202Y-30059D01*
X95202Y-30011D01*
X95178Y-29940D01*
X95130Y-29892D01*
X95083Y-29869D01*
X94988Y-29845D01*
X94916Y-29845D01*
X94821Y-29869D01*
X94773Y-29892D01*
X94726Y-29940D01*
X94702Y-30011D01*
X94702Y-30059D01*
X94726Y-30130D01*
X94750Y-30154D01*
X95202Y-30369D02*
X94702Y-30369D01*
X95202Y-30583D02*
X94940Y-30583D01*
X94892Y-30559D01*
X94869Y-30511D01*
X94869Y-30440D01*
X94892Y-30392D01*
X94916Y-30369D01*
X95202Y-31083D02*
X95202Y-30797D01*
X95202Y-30940D02*
X94702Y-30940D01*
X94773Y-30892D01*
X94821Y-30845D01*
X94845Y-30797D01*
X92726Y-30130D02*
X92702Y-30083D01*
X92702Y-30011D01*
X92726Y-29940D01*
X92773Y-29892D01*
X92821Y-29869D01*
X92916Y-29845D01*
X92988Y-29845D01*
X93083Y-29869D01*
X93130Y-29892D01*
X93178Y-29940D01*
X93202Y-30011D01*
X93202Y-30059D01*
X93178Y-30130D01*
X93154Y-30154D01*
X92988Y-30154D01*
X92988Y-30059D01*
X93202Y-30369D02*
X92702Y-30369D01*
X93202Y-30654D01*
X92702Y-30654D01*
X93202Y-30892D02*
X92702Y-30892D01*
X92702Y-31011D01*
X92726Y-31083D01*
X92773Y-31130D01*
X92821Y-31154D01*
X92916Y-31178D01*
X92988Y-31178D01*
X93083Y-31154D01*
X93130Y-31130D01*
X93178Y-31083D01*
X93202Y-31011D01*
X93202Y-30892D01*
X91702Y-29797D02*
X92202Y-29964D01*
X91702Y-30130D01*
X92202Y-30297D02*
X91869Y-30297D01*
X91702Y-30297D02*
X91726Y-30273D01*
X91750Y-30297D01*
X91726Y-30321D01*
X91702Y-30297D01*
X91750Y-30297D01*
X91869Y-30535D02*
X92202Y-30535D01*
X91916Y-30535D02*
X91892Y-30559D01*
X91869Y-30607D01*
X91869Y-30678D01*
X91892Y-30726D01*
X91940Y-30750D01*
X92202Y-30750D01*
%LPC*%
G54D12*
X95000Y-29000D03*
G54D13*
X96000Y-29000D03*
X97000Y-29000D03*
X98000Y-29000D03*
G54D12*
X96000Y-39000D03*
G54D13*
X97000Y-39000D03*
X98000Y-39000D03*
G54D12*
X92000Y-39000D03*
G54D13*
X93000Y-39000D03*
X94000Y-39000D03*
G54D12*
X92000Y-29000D03*
G54D13*
X93000Y-29000D03*
M02*
