M48
;DRILL file {Pcbnew (2013-june-11)-stable} date Thu 23 Jan 2014 03:09:15 PM PST
;FORMAT={-:-/ absolute / inch / decimal}
FMAT,2
INCH,TZ
T1C0.013
T2C0.015
T3C0.025
T4C0.032
%
G90
G05
M72
T1
X9.575Y-3.125
X9.575Y-3.15
X9.575Y-3.175
X9.575Y-3.425
X9.575Y-3.45
X9.575Y-3.475
X9.575Y-3.725
X9.575Y-3.75
X9.575Y-3.775
X9.6Y-3.175
X9.6Y-3.475
X9.6Y-3.775
X9.625Y-3.175
X9.625Y-3.475
X9.625Y-3.775
T2
X9.58Y-3.21
X9.58Y-3.51
X9.58Y-3.81
T3
X9.2Y-3.1
X9.25Y-3.4
X9.55Y-3.27
X9.55Y-3.57
X9.8Y-3.11
X9.8Y-3.35
X9.8Y-3.65
T4
X9.2Y-2.9
X9.2Y-3.9
X9.3Y-2.9
X9.3Y-3.9
X9.4Y-3.9
X9.5Y-2.9
X9.6Y-2.9
X9.6Y-3.9
X9.7Y-2.9
X9.7Y-3.9
X9.8Y-2.9
X9.8Y-3.9
T0
M30
