G04 (created by PCBNEW (2013-june-11)-stable) date Thu 23 Jan 2014 03:09:13 PM PST*
%MOIN*%
G04 Gerber Fmt 3.4, Leading zero omitted, Abs format*
%FSLAX34Y34*%
G01*
G70*
G90*
G04 APERTURE LIST*
%ADD10C,0.00590551*%
%ADD11C,0.012*%
%ADD12C,0.0039*%
%ADD13C,0.005*%
%ADD14C,0.0043*%
%ADD15C,0.0047*%
%ADD16C,0.0016*%
%ADD17R,0.055X0.055*%
%ADD18C,0.055*%
%ADD19R,0.0314961X0.0216535*%
%ADD20R,0.035X0.055*%
%ADD21R,0.23622X0.0787402*%
%ADD22R,0.063X0.0866*%
%ADD23R,0.071X0.063*%
%ADD24R,0.0394X0.0354*%
G04 APERTURE END LIST*
G54D10*
G54D11*
X94500Y-28500D02*
X94500Y-28500D01*
X94500Y-29500D02*
X94500Y-28500D01*
X94500Y-28500D02*
X94500Y-28500D01*
X94500Y-28500D02*
X98500Y-28500D01*
X98500Y-28500D02*
X98500Y-29500D01*
X98500Y-29500D02*
X94500Y-29500D01*
X95500Y-29500D02*
X95500Y-28500D01*
X95500Y-39500D02*
X95500Y-38500D01*
X95500Y-38500D02*
X98500Y-38500D01*
X98500Y-38500D02*
X98500Y-39500D01*
X98500Y-39500D02*
X95500Y-39500D01*
X96500Y-38500D02*
X96500Y-39500D01*
X91500Y-39500D02*
X91500Y-38500D01*
X91500Y-38500D02*
X94500Y-38500D01*
X94500Y-38500D02*
X94500Y-39500D01*
X94500Y-39500D02*
X91500Y-39500D01*
X92500Y-38500D02*
X92500Y-39500D01*
X91500Y-29500D02*
X91500Y-28500D01*
X91500Y-28500D02*
X93500Y-28500D01*
X93500Y-28500D02*
X93500Y-29500D01*
X93500Y-29500D02*
X91500Y-29500D01*
G54D10*
X95535Y-35340D02*
X95535Y-34159D01*
X95535Y-34159D02*
X96164Y-34159D01*
X96164Y-34159D02*
X96164Y-35301D01*
X96164Y-35301D02*
X96164Y-35340D01*
X96164Y-35340D02*
X95535Y-35340D01*
X95535Y-32340D02*
X95535Y-31159D01*
X95535Y-31159D02*
X96164Y-31159D01*
X96164Y-31159D02*
X96164Y-32301D01*
X96164Y-32301D02*
X96164Y-32340D01*
X96164Y-32340D02*
X95535Y-32340D01*
X95535Y-38340D02*
X95535Y-37159D01*
X95535Y-37159D02*
X96164Y-37159D01*
X96164Y-37159D02*
X96164Y-38301D01*
X96164Y-38301D02*
X96164Y-38340D01*
X96164Y-38340D02*
X95535Y-38340D01*
G54D12*
X96650Y-32300D02*
G75*
G03X96650Y-32300I-50J0D01*
G74*
G01*
X97050Y-32300D02*
X96650Y-32300D01*
X96650Y-32300D02*
X96650Y-31700D01*
X96650Y-31700D02*
X97050Y-31700D01*
X97450Y-31700D02*
X97850Y-31700D01*
X97850Y-31700D02*
X97850Y-32300D01*
X97850Y-32300D02*
X97450Y-32300D01*
X96650Y-35300D02*
G75*
G03X96650Y-35300I-50J0D01*
G74*
G01*
X97050Y-35300D02*
X96650Y-35300D01*
X96650Y-35300D02*
X96650Y-34700D01*
X96650Y-34700D02*
X97050Y-34700D01*
X97450Y-34700D02*
X97850Y-34700D01*
X97850Y-34700D02*
X97850Y-35300D01*
X97850Y-35300D02*
X97450Y-35300D01*
X96650Y-38300D02*
G75*
G03X96650Y-38300I-50J0D01*
G74*
G01*
X97050Y-38300D02*
X96650Y-38300D01*
X96650Y-38300D02*
X96650Y-37700D01*
X96650Y-37700D02*
X97050Y-37700D01*
X97450Y-37700D02*
X97850Y-37700D01*
X97850Y-37700D02*
X97850Y-38300D01*
X97850Y-38300D02*
X97450Y-38300D01*
G54D13*
X95200Y-33250D02*
X95120Y-33250D01*
X94600Y-32500D02*
X96400Y-32500D01*
X96400Y-32500D02*
X96400Y-32750D01*
X95760Y-34000D02*
X95760Y-32500D01*
X95890Y-34000D02*
X95890Y-32500D01*
X94600Y-33750D02*
X94600Y-34000D01*
X94600Y-34000D02*
X96400Y-34000D01*
X96400Y-34000D02*
X96400Y-33750D01*
X94600Y-32750D02*
X94600Y-32500D01*
X95450Y-33250D02*
X95200Y-33063D01*
X95200Y-33063D02*
X95200Y-33250D01*
X95200Y-33250D02*
X95200Y-33437D01*
X95200Y-33437D02*
X95450Y-33250D01*
X95450Y-33250D02*
X95450Y-33125D01*
X95450Y-33125D02*
X95388Y-33063D01*
X95450Y-33250D02*
X95450Y-33375D01*
X95450Y-33375D02*
X95512Y-33437D01*
X95450Y-33250D02*
X95887Y-33250D01*
X95200Y-36250D02*
X95120Y-36250D01*
X94600Y-35500D02*
X96400Y-35500D01*
X96400Y-35500D02*
X96400Y-35750D01*
X95760Y-37000D02*
X95760Y-35500D01*
X95890Y-37000D02*
X95890Y-35500D01*
X94600Y-36750D02*
X94600Y-37000D01*
X94600Y-37000D02*
X96400Y-37000D01*
X96400Y-37000D02*
X96400Y-36750D01*
X94600Y-35750D02*
X94600Y-35500D01*
X95450Y-36250D02*
X95200Y-36063D01*
X95200Y-36063D02*
X95200Y-36250D01*
X95200Y-36250D02*
X95200Y-36437D01*
X95200Y-36437D02*
X95450Y-36250D01*
X95450Y-36250D02*
X95450Y-36125D01*
X95450Y-36125D02*
X95388Y-36063D01*
X95450Y-36250D02*
X95450Y-36375D01*
X95450Y-36375D02*
X95512Y-36437D01*
X95450Y-36250D02*
X95887Y-36250D01*
X95200Y-30250D02*
X95120Y-30250D01*
X94600Y-29500D02*
X96400Y-29500D01*
X96400Y-29500D02*
X96400Y-29750D01*
X95760Y-31000D02*
X95760Y-29500D01*
X95890Y-31000D02*
X95890Y-29500D01*
X94600Y-30750D02*
X94600Y-31000D01*
X94600Y-31000D02*
X96400Y-31000D01*
X96400Y-31000D02*
X96400Y-30750D01*
X94600Y-29750D02*
X94600Y-29500D01*
X95450Y-30250D02*
X95200Y-30063D01*
X95200Y-30063D02*
X95200Y-30250D01*
X95200Y-30250D02*
X95200Y-30437D01*
X95200Y-30437D02*
X95450Y-30250D01*
X95450Y-30250D02*
X95450Y-30125D01*
X95450Y-30125D02*
X95388Y-30063D01*
X95450Y-30250D02*
X95450Y-30375D01*
X95450Y-30375D02*
X95512Y-30437D01*
X95450Y-30250D02*
X95887Y-30250D01*
X96930Y-36950D02*
X97570Y-36950D01*
X97570Y-36050D02*
X96930Y-36050D01*
X97570Y-35870D02*
X96930Y-35870D01*
X96930Y-35870D02*
X96930Y-37130D01*
X96930Y-37130D02*
X97570Y-37130D01*
X97570Y-37130D02*
X97570Y-35870D01*
X96930Y-33950D02*
X97570Y-33950D01*
X97570Y-33050D02*
X96930Y-33050D01*
X97570Y-32870D02*
X96930Y-32870D01*
X96930Y-32870D02*
X96930Y-34130D01*
X96930Y-34130D02*
X97570Y-34130D01*
X97570Y-34130D02*
X97570Y-32870D01*
X96930Y-30950D02*
X97570Y-30950D01*
X97570Y-30050D02*
X96930Y-30050D01*
X97570Y-29870D02*
X96930Y-29870D01*
X96930Y-29870D02*
X96930Y-31130D01*
X96930Y-31130D02*
X97570Y-31130D01*
X97570Y-31130D02*
X97570Y-29870D01*
X94910Y-37530D02*
X94590Y-37530D01*
X94600Y-37970D02*
X94910Y-37970D01*
X94590Y-38070D02*
X94590Y-37430D01*
X94590Y-37430D02*
X94910Y-37430D01*
X94910Y-37430D02*
X94910Y-38070D01*
X94910Y-38070D02*
X94590Y-38070D01*
X94910Y-34530D02*
X94590Y-34530D01*
X94600Y-34970D02*
X94910Y-34970D01*
X94590Y-35070D02*
X94590Y-34430D01*
X94590Y-34430D02*
X94910Y-34430D01*
X94910Y-34430D02*
X94910Y-35070D01*
X94910Y-35070D02*
X94590Y-35070D01*
X94910Y-31530D02*
X94590Y-31530D01*
X94600Y-31970D02*
X94910Y-31970D01*
X94590Y-32070D02*
X94590Y-31430D01*
X94590Y-31430D02*
X94910Y-31430D01*
X94910Y-31430D02*
X94910Y-32070D01*
X94910Y-32070D02*
X94590Y-32070D01*
G54D10*
X95685Y-34959D02*
X95909Y-34959D01*
X95935Y-34946D01*
X95948Y-34933D01*
X95961Y-34907D01*
X95961Y-34854D01*
X95948Y-34828D01*
X95935Y-34815D01*
X95909Y-34802D01*
X95685Y-34802D01*
X95712Y-34684D02*
X95699Y-34671D01*
X95685Y-34645D01*
X95685Y-34579D01*
X95699Y-34553D01*
X95712Y-34540D01*
X95738Y-34526D01*
X95764Y-34526D01*
X95804Y-34540D01*
X95961Y-34697D01*
X95961Y-34526D01*
X95685Y-31959D02*
X95909Y-31959D01*
X95935Y-31946D01*
X95948Y-31933D01*
X95961Y-31907D01*
X95961Y-31854D01*
X95948Y-31828D01*
X95935Y-31815D01*
X95909Y-31802D01*
X95685Y-31802D01*
X95961Y-31526D02*
X95961Y-31684D01*
X95961Y-31605D02*
X95685Y-31605D01*
X95725Y-31631D01*
X95751Y-31658D01*
X95764Y-31684D01*
X95685Y-37959D02*
X95909Y-37959D01*
X95935Y-37946D01*
X95948Y-37933D01*
X95961Y-37907D01*
X95961Y-37854D01*
X95948Y-37828D01*
X95935Y-37815D01*
X95909Y-37802D01*
X95685Y-37802D01*
X95685Y-37697D02*
X95685Y-37526D01*
X95790Y-37618D01*
X95790Y-37579D01*
X95804Y-37553D01*
X95817Y-37540D01*
X95843Y-37526D01*
X95909Y-37526D01*
X95935Y-37540D01*
X95948Y-37553D01*
X95961Y-37579D01*
X95961Y-37658D01*
X95948Y-37684D01*
X95935Y-37697D01*
G54D14*
X98079Y-32032D02*
X97985Y-32098D01*
X98079Y-32145D02*
X97882Y-32145D01*
X97882Y-32070D01*
X97892Y-32051D01*
X97901Y-32042D01*
X97920Y-32032D01*
X97948Y-32032D01*
X97967Y-32042D01*
X97976Y-32051D01*
X97985Y-32070D01*
X97985Y-32145D01*
X98079Y-31845D02*
X98079Y-31957D01*
X98079Y-31901D02*
X97882Y-31901D01*
X97910Y-31920D01*
X97929Y-31939D01*
X97939Y-31957D01*
X98079Y-35032D02*
X97985Y-35098D01*
X98079Y-35145D02*
X97882Y-35145D01*
X97882Y-35070D01*
X97892Y-35051D01*
X97901Y-35042D01*
X97920Y-35032D01*
X97948Y-35032D01*
X97967Y-35042D01*
X97976Y-35051D01*
X97985Y-35070D01*
X97985Y-35145D01*
X97901Y-34957D02*
X97892Y-34948D01*
X97882Y-34929D01*
X97882Y-34882D01*
X97892Y-34863D01*
X97901Y-34854D01*
X97920Y-34845D01*
X97939Y-34845D01*
X97967Y-34854D01*
X98079Y-34967D01*
X98079Y-34845D01*
X98079Y-38032D02*
X97985Y-38098D01*
X98079Y-38145D02*
X97882Y-38145D01*
X97882Y-38070D01*
X97892Y-38051D01*
X97901Y-38042D01*
X97920Y-38032D01*
X97948Y-38032D01*
X97967Y-38042D01*
X97976Y-38051D01*
X97985Y-38070D01*
X97985Y-38145D01*
X97882Y-37967D02*
X97882Y-37845D01*
X97957Y-37910D01*
X97957Y-37882D01*
X97967Y-37863D01*
X97976Y-37854D01*
X97995Y-37845D01*
X98042Y-37845D01*
X98060Y-37854D01*
X98070Y-37863D01*
X98079Y-37882D01*
X98079Y-37939D01*
X98070Y-37957D01*
X98060Y-37967D01*
G54D10*
X92493Y-30765D02*
X92737Y-30765D01*
X92606Y-30915D01*
X92662Y-30915D01*
X92700Y-30934D01*
X92718Y-30953D01*
X92737Y-30990D01*
X92737Y-31084D01*
X92718Y-31121D01*
X92700Y-31140D01*
X92662Y-31159D01*
X92550Y-31159D01*
X92512Y-31140D01*
X92493Y-31121D01*
X92868Y-30765D02*
X93112Y-30765D01*
X92981Y-30915D01*
X93037Y-30915D01*
X93074Y-30934D01*
X93093Y-30953D01*
X93112Y-30990D01*
X93112Y-31084D01*
X93093Y-31121D01*
X93074Y-31140D01*
X93037Y-31159D01*
X92925Y-31159D01*
X92887Y-31140D01*
X92868Y-31121D01*
X93449Y-30896D02*
X93449Y-31159D01*
X93281Y-30896D02*
X93281Y-31103D01*
X93299Y-31140D01*
X93337Y-31159D01*
X93393Y-31159D01*
X93431Y-31140D01*
X93449Y-31121D01*
X93637Y-31159D02*
X93637Y-30765D01*
X93637Y-30953D02*
X93862Y-30953D01*
X93862Y-31159D02*
X93862Y-30765D01*
X92493Y-33765D02*
X92737Y-33765D01*
X92606Y-33915D01*
X92662Y-33915D01*
X92700Y-33934D01*
X92718Y-33953D01*
X92737Y-33990D01*
X92737Y-34084D01*
X92718Y-34121D01*
X92700Y-34140D01*
X92662Y-34159D01*
X92550Y-34159D01*
X92512Y-34140D01*
X92493Y-34121D01*
X92868Y-33765D02*
X93112Y-33765D01*
X92981Y-33915D01*
X93037Y-33915D01*
X93074Y-33934D01*
X93093Y-33953D01*
X93112Y-33990D01*
X93112Y-34084D01*
X93093Y-34121D01*
X93074Y-34140D01*
X93037Y-34159D01*
X92925Y-34159D01*
X92887Y-34140D01*
X92868Y-34121D01*
X93449Y-33896D02*
X93449Y-34159D01*
X93281Y-33896D02*
X93281Y-34103D01*
X93299Y-34140D01*
X93337Y-34159D01*
X93393Y-34159D01*
X93431Y-34140D01*
X93449Y-34121D01*
X93637Y-34159D02*
X93637Y-33765D01*
X93637Y-33953D02*
X93862Y-33953D01*
X93862Y-34159D02*
X93862Y-33765D01*
X92493Y-36765D02*
X92737Y-36765D01*
X92606Y-36915D01*
X92662Y-36915D01*
X92700Y-36934D01*
X92718Y-36953D01*
X92737Y-36990D01*
X92737Y-37084D01*
X92718Y-37121D01*
X92700Y-37140D01*
X92662Y-37159D01*
X92550Y-37159D01*
X92512Y-37140D01*
X92493Y-37121D01*
X92868Y-36765D02*
X93112Y-36765D01*
X92981Y-36915D01*
X93037Y-36915D01*
X93074Y-36934D01*
X93093Y-36953D01*
X93112Y-36990D01*
X93112Y-37084D01*
X93093Y-37121D01*
X93074Y-37140D01*
X93037Y-37159D01*
X92925Y-37159D01*
X92887Y-37140D01*
X92868Y-37121D01*
X93449Y-36896D02*
X93449Y-37159D01*
X93281Y-36896D02*
X93281Y-37103D01*
X93299Y-37140D01*
X93337Y-37159D01*
X93393Y-37159D01*
X93431Y-37140D01*
X93449Y-37121D01*
X93637Y-37159D02*
X93637Y-36765D01*
X93637Y-36953D02*
X93862Y-36953D01*
X93862Y-37159D02*
X93862Y-36765D01*
G54D15*
X97820Y-36542D02*
X97830Y-36552D01*
X97839Y-36580D01*
X97839Y-36599D01*
X97830Y-36627D01*
X97811Y-36646D01*
X97792Y-36655D01*
X97755Y-36664D01*
X97727Y-36664D01*
X97689Y-36655D01*
X97670Y-36646D01*
X97652Y-36627D01*
X97642Y-36599D01*
X97642Y-36580D01*
X97652Y-36552D01*
X97661Y-36542D01*
X97642Y-36373D02*
X97642Y-36411D01*
X97652Y-36430D01*
X97661Y-36439D01*
X97689Y-36458D01*
X97727Y-36467D01*
X97802Y-36467D01*
X97820Y-36458D01*
X97830Y-36449D01*
X97839Y-36430D01*
X97839Y-36392D01*
X97830Y-36373D01*
X97820Y-36364D01*
X97802Y-36355D01*
X97755Y-36355D01*
X97736Y-36364D01*
X97727Y-36373D01*
X97717Y-36392D01*
X97717Y-36430D01*
X97727Y-36449D01*
X97736Y-36458D01*
X97755Y-36467D01*
X97820Y-33542D02*
X97830Y-33552D01*
X97839Y-33580D01*
X97839Y-33599D01*
X97830Y-33627D01*
X97811Y-33646D01*
X97792Y-33655D01*
X97755Y-33664D01*
X97727Y-33664D01*
X97689Y-33655D01*
X97670Y-33646D01*
X97652Y-33627D01*
X97642Y-33599D01*
X97642Y-33580D01*
X97652Y-33552D01*
X97661Y-33542D01*
X97642Y-33364D02*
X97642Y-33458D01*
X97736Y-33467D01*
X97727Y-33458D01*
X97717Y-33439D01*
X97717Y-33392D01*
X97727Y-33373D01*
X97736Y-33364D01*
X97755Y-33355D01*
X97802Y-33355D01*
X97820Y-33364D01*
X97830Y-33373D01*
X97839Y-33392D01*
X97839Y-33439D01*
X97830Y-33458D01*
X97820Y-33467D01*
X97820Y-30542D02*
X97830Y-30552D01*
X97839Y-30580D01*
X97839Y-30599D01*
X97830Y-30627D01*
X97811Y-30646D01*
X97792Y-30655D01*
X97755Y-30664D01*
X97727Y-30664D01*
X97689Y-30655D01*
X97670Y-30646D01*
X97652Y-30627D01*
X97642Y-30599D01*
X97642Y-30580D01*
X97652Y-30552D01*
X97661Y-30542D01*
X97708Y-30373D02*
X97839Y-30373D01*
X97633Y-30420D02*
X97774Y-30467D01*
X97774Y-30345D01*
G54D16*
X94524Y-37763D02*
X94528Y-37766D01*
X94531Y-37778D01*
X94531Y-37785D01*
X94528Y-37797D01*
X94520Y-37804D01*
X94513Y-37808D01*
X94498Y-37812D01*
X94486Y-37812D01*
X94471Y-37808D01*
X94464Y-37804D01*
X94456Y-37797D01*
X94452Y-37785D01*
X94452Y-37778D01*
X94456Y-37766D01*
X94460Y-37763D01*
X94452Y-37736D02*
X94452Y-37687D01*
X94483Y-37714D01*
X94483Y-37702D01*
X94486Y-37695D01*
X94490Y-37691D01*
X94498Y-37687D01*
X94516Y-37687D01*
X94524Y-37691D01*
X94528Y-37695D01*
X94531Y-37702D01*
X94531Y-37725D01*
X94528Y-37733D01*
X94524Y-37736D01*
X94524Y-34763D02*
X94528Y-34766D01*
X94531Y-34778D01*
X94531Y-34785D01*
X94528Y-34797D01*
X94520Y-34804D01*
X94513Y-34808D01*
X94498Y-34812D01*
X94486Y-34812D01*
X94471Y-34808D01*
X94464Y-34804D01*
X94456Y-34797D01*
X94452Y-34785D01*
X94452Y-34778D01*
X94456Y-34766D01*
X94460Y-34763D01*
X94460Y-34733D02*
X94456Y-34729D01*
X94452Y-34721D01*
X94452Y-34702D01*
X94456Y-34695D01*
X94460Y-34691D01*
X94468Y-34687D01*
X94475Y-34687D01*
X94486Y-34691D01*
X94531Y-34736D01*
X94531Y-34687D01*
X94524Y-31763D02*
X94528Y-31766D01*
X94531Y-31778D01*
X94531Y-31785D01*
X94528Y-31797D01*
X94520Y-31804D01*
X94513Y-31808D01*
X94498Y-31812D01*
X94486Y-31812D01*
X94471Y-31808D01*
X94464Y-31804D01*
X94456Y-31797D01*
X94452Y-31785D01*
X94452Y-31778D01*
X94456Y-31766D01*
X94460Y-31763D01*
X94531Y-31687D02*
X94531Y-31733D01*
X94531Y-31710D02*
X94452Y-31710D01*
X94464Y-31718D01*
X94471Y-31725D01*
X94475Y-31733D01*
%LPC*%
G54D17*
X95000Y-29000D03*
G54D18*
X96000Y-29000D03*
X97000Y-29000D03*
X98000Y-29000D03*
G54D17*
X96000Y-39000D03*
G54D18*
X97000Y-39000D03*
X98000Y-39000D03*
G54D17*
X92000Y-39000D03*
G54D18*
X93000Y-39000D03*
X94000Y-39000D03*
G54D17*
X92000Y-29000D03*
G54D18*
X93000Y-29000D03*
G54D19*
X95377Y-35124D03*
X95377Y-34750D03*
X95377Y-34375D03*
X96322Y-35124D03*
X96322Y-34375D03*
X95377Y-32124D03*
X95377Y-31750D03*
X95377Y-31375D03*
X96322Y-32124D03*
X96322Y-31375D03*
X95377Y-38124D03*
X95377Y-37750D03*
X95377Y-37375D03*
X96322Y-38124D03*
X96322Y-37375D03*
G54D20*
X96875Y-32000D03*
X97625Y-32000D03*
X96875Y-35000D03*
X97625Y-35000D03*
X96875Y-38000D03*
X97625Y-38000D03*
G54D21*
X93000Y-31846D03*
X93000Y-30153D03*
X93000Y-34846D03*
X93000Y-33153D03*
X93000Y-37846D03*
X93000Y-36153D03*
G54D22*
X94752Y-33250D03*
X96248Y-33250D03*
X94752Y-36250D03*
X96248Y-36250D03*
X94752Y-30250D03*
X96248Y-30250D03*
G54D23*
X97250Y-37050D03*
X97250Y-35950D03*
X97250Y-34050D03*
X97250Y-32950D03*
X97250Y-31050D03*
X97250Y-29950D03*
G54D24*
X94750Y-37454D03*
X94750Y-38046D03*
X94750Y-34454D03*
X94750Y-35046D03*
X94750Y-31454D03*
X94750Y-32046D03*
M02*
