G04 (created by PCBNEW (2013-june-11)-stable) date Thu 23 Jan 2014 03:09:13 PM PST*
%MOIN*%
G04 Gerber Fmt 3.4, Leading zero omitted, Abs format*
%FSLAX34Y34*%
G01*
G70*
G90*
G04 APERTURE LIST*
%ADD10C,0.00590551*%
%ADD11R,0.0314961X0.0216535*%
%ADD12R,0.035X0.055*%
%ADD13R,0.23622X0.0787402*%
%ADD14R,0.063X0.0866*%
%ADD15R,0.071X0.063*%
%ADD16R,0.0394X0.0354*%
G04 APERTURE END LIST*
G54D10*
G54D11*
X95377Y-35124D03*
X95377Y-34750D03*
X95377Y-34375D03*
X96322Y-35124D03*
X96322Y-34375D03*
X95377Y-32124D03*
X95377Y-31750D03*
X95377Y-31375D03*
X96322Y-32124D03*
X96322Y-31375D03*
X95377Y-38124D03*
X95377Y-37750D03*
X95377Y-37375D03*
X96322Y-38124D03*
X96322Y-37375D03*
G54D12*
X96875Y-32000D03*
X97625Y-32000D03*
X96875Y-35000D03*
X97625Y-35000D03*
X96875Y-38000D03*
X97625Y-38000D03*
G54D13*
X93000Y-31846D03*
X93000Y-30153D03*
X93000Y-34846D03*
X93000Y-33153D03*
X93000Y-37846D03*
X93000Y-36153D03*
G54D14*
X94752Y-33250D03*
X96248Y-33250D03*
X94752Y-36250D03*
X96248Y-36250D03*
X94752Y-30250D03*
X96248Y-30250D03*
G54D15*
X97250Y-37050D03*
X97250Y-35950D03*
X97250Y-34050D03*
X97250Y-32950D03*
X97250Y-31050D03*
X97250Y-29950D03*
G54D16*
X94750Y-37454D03*
X94750Y-38046D03*
X94750Y-34454D03*
X94750Y-35046D03*
X94750Y-31454D03*
X94750Y-32046D03*
M02*
