G04 (created by PCBNEW (2013-june-11)-stable) date Thu 23 Jan 2014 03:09:13 PM PST*
%MOIN*%
G04 Gerber Fmt 3.4, Leading zero omitted, Abs format*
%FSLAX34Y34*%
G01*
G70*
G90*
G04 APERTURE LIST*
%ADD10C,0.00590551*%
%ADD11C,0.02*%
%ADD12R,0.055X0.055*%
%ADD13C,0.055*%
%ADD14R,0.0314961X0.0216535*%
%ADD15R,0.035X0.055*%
%ADD16R,0.23622X0.0787402*%
%ADD17R,0.063X0.0866*%
%ADD18R,0.071X0.063*%
%ADD19R,0.0394X0.0354*%
%ADD20C,0.035*%
%ADD21C,0.023*%
%ADD22C,0.02*%
%ADD23C,0.01*%
%ADD24C,0.006*%
G04 APERTURE END LIST*
G54D10*
G54D11*
X95750Y-37500D03*
X95750Y-37250D03*
X95750Y-34250D03*
X95750Y-34500D03*
X95750Y-31500D03*
X95750Y-31250D03*
X96250Y-37750D03*
X96250Y-34750D03*
X96250Y-31750D03*
X96000Y-31750D03*
X96000Y-34750D03*
X95750Y-37750D03*
X96000Y-37750D03*
X95750Y-34750D03*
G54D12*
X95000Y-29000D03*
G54D13*
X96000Y-29000D03*
X97000Y-29000D03*
X98000Y-29000D03*
G54D12*
X96000Y-39000D03*
G54D13*
X97000Y-39000D03*
X98000Y-39000D03*
G54D12*
X92000Y-39000D03*
G54D13*
X93000Y-39000D03*
X94000Y-39000D03*
G54D12*
X92000Y-29000D03*
G54D13*
X93000Y-29000D03*
G54D14*
X95377Y-35124D03*
X95377Y-34750D03*
X95377Y-34375D03*
X96322Y-35124D03*
X96322Y-34375D03*
X95377Y-32124D03*
X95377Y-31750D03*
X95377Y-31375D03*
X96322Y-32124D03*
X96322Y-31375D03*
X95377Y-38124D03*
X95377Y-37750D03*
X95377Y-37375D03*
X96322Y-38124D03*
X96322Y-37375D03*
G54D15*
X96875Y-32000D03*
X97625Y-32000D03*
X96875Y-35000D03*
X97625Y-35000D03*
X96875Y-38000D03*
X97625Y-38000D03*
G54D16*
X93000Y-31846D03*
X93000Y-30153D03*
X93000Y-34846D03*
X93000Y-33153D03*
X93000Y-37846D03*
X93000Y-36153D03*
G54D17*
X94752Y-33250D03*
X96248Y-33250D03*
X94752Y-36250D03*
X96248Y-36250D03*
X94752Y-30250D03*
X96248Y-30250D03*
G54D18*
X97250Y-37050D03*
X97250Y-35950D03*
X97250Y-34050D03*
X97250Y-32950D03*
X97250Y-31050D03*
X97250Y-29950D03*
G54D19*
X94750Y-37454D03*
X94750Y-38046D03*
X94750Y-34454D03*
X94750Y-35046D03*
X94750Y-31454D03*
X94750Y-32046D03*
G54D11*
X95750Y-31750D03*
G54D20*
X95500Y-32700D03*
X92000Y-31000D03*
G54D21*
X95800Y-32100D03*
G54D20*
X95500Y-35700D03*
X92500Y-34000D03*
G54D21*
X95800Y-35100D03*
X95800Y-38100D03*
G54D20*
X98000Y-33500D03*
X98000Y-31100D03*
X98000Y-36500D03*
G54D22*
X95500Y-32500D02*
X95500Y-32700D01*
X94750Y-32046D02*
X94750Y-32250D01*
X95946Y-32500D02*
X96322Y-32124D01*
X95000Y-32500D02*
X95500Y-32500D01*
X95500Y-32500D02*
X95946Y-32500D01*
X94750Y-32250D02*
X95000Y-32500D01*
X96322Y-32124D02*
X96750Y-32124D01*
X96750Y-32124D02*
X96875Y-32000D01*
X93000Y-31846D02*
X92846Y-31846D01*
X92846Y-31846D02*
X92000Y-31000D01*
X94750Y-31454D02*
X93392Y-31454D01*
X93392Y-31454D02*
X93000Y-31846D01*
G54D23*
X95377Y-32124D02*
X95775Y-32124D01*
X95775Y-32124D02*
X95800Y-32100D01*
G54D22*
X95500Y-35500D02*
X95500Y-35700D01*
X96322Y-35124D02*
X96750Y-35124D01*
X96750Y-35124D02*
X96875Y-35000D01*
X94750Y-35046D02*
X94750Y-35250D01*
X95946Y-35500D02*
X96322Y-35124D01*
X95000Y-35500D02*
X95500Y-35500D01*
X95500Y-35500D02*
X95946Y-35500D01*
X94750Y-35250D02*
X95000Y-35500D01*
X94750Y-34454D02*
X93392Y-34454D01*
X93392Y-34454D02*
X93000Y-34846D01*
X93000Y-34500D02*
X93000Y-34846D01*
X92500Y-34000D02*
X93000Y-34500D01*
G54D23*
X95377Y-35124D02*
X95775Y-35124D01*
X95775Y-35124D02*
X95800Y-35100D01*
G54D22*
X96875Y-38000D02*
X96875Y-38125D01*
X97750Y-39000D02*
X98000Y-39000D01*
X96875Y-38125D02*
X97750Y-39000D01*
X94750Y-38046D02*
X94750Y-38250D01*
X95946Y-38500D02*
X96322Y-38124D01*
X95000Y-38500D02*
X95946Y-38500D01*
X94750Y-38250D02*
X95000Y-38500D01*
X96322Y-38124D02*
X96750Y-38124D01*
X96750Y-38124D02*
X96875Y-38000D01*
X94750Y-37454D02*
X93392Y-37454D01*
X93392Y-37454D02*
X93000Y-37846D01*
X93000Y-37846D02*
X93000Y-38000D01*
X93000Y-38000D02*
X94000Y-39000D01*
G54D23*
X95377Y-38124D02*
X95775Y-38124D01*
X95775Y-38124D02*
X95800Y-38100D01*
G54D22*
X95377Y-31375D02*
X95377Y-30875D01*
X95377Y-30875D02*
X94752Y-30250D01*
X93000Y-30153D02*
X94655Y-30153D01*
X94655Y-30153D02*
X94752Y-30250D01*
X95377Y-34375D02*
X95377Y-33875D01*
X95377Y-33875D02*
X94752Y-33250D01*
X93000Y-33153D02*
X94655Y-33153D01*
X94655Y-33153D02*
X94752Y-33250D01*
X95377Y-37375D02*
X95377Y-36875D01*
X95377Y-36875D02*
X94752Y-36250D01*
X93000Y-36153D02*
X94655Y-36153D01*
X94655Y-36153D02*
X94752Y-36250D01*
X96800Y-30900D02*
X97100Y-30900D01*
X97100Y-30900D02*
X97250Y-31050D01*
X96322Y-31375D02*
X96324Y-31375D01*
X96800Y-30900D02*
X96800Y-30600D01*
X96700Y-31000D02*
X96800Y-30900D01*
X96650Y-31050D02*
X96700Y-31000D01*
X96324Y-31375D02*
X96650Y-31050D01*
X96800Y-30600D02*
X96800Y-30700D01*
X96800Y-30700D02*
X96800Y-30600D01*
X96800Y-36900D02*
X97100Y-36900D01*
X97100Y-36900D02*
X97250Y-37050D01*
X96322Y-37375D02*
X96324Y-37375D01*
X96800Y-36900D02*
X96800Y-36600D01*
X96324Y-37375D02*
X96800Y-36900D01*
X96800Y-33900D02*
X97100Y-33900D01*
X97100Y-33900D02*
X97250Y-34050D01*
X96322Y-34375D02*
X96324Y-34375D01*
X96800Y-33900D02*
X96800Y-33600D01*
X96324Y-34375D02*
X96800Y-33900D01*
X97450Y-34050D02*
X98000Y-33500D01*
X97250Y-34050D02*
X97450Y-34050D01*
X97250Y-31050D02*
X97950Y-31050D01*
X97950Y-31050D02*
X98000Y-31100D01*
X97450Y-37050D02*
X97250Y-37050D01*
X98000Y-36500D02*
X97450Y-37050D01*
X97625Y-38000D02*
X97625Y-37425D01*
X97625Y-37425D02*
X96800Y-36600D01*
X96800Y-36600D02*
X96450Y-36250D01*
X96450Y-36250D02*
X96248Y-36250D01*
X97625Y-35000D02*
X97625Y-34425D01*
X97625Y-34425D02*
X96800Y-33600D01*
X96800Y-33600D02*
X96450Y-33250D01*
X96450Y-33250D02*
X96248Y-33250D01*
X97625Y-32000D02*
X97625Y-31425D01*
X97625Y-31425D02*
X97250Y-31050D01*
X96248Y-30250D02*
X96450Y-30250D01*
X96450Y-30250D02*
X96800Y-30600D01*
X96800Y-30600D02*
X97250Y-31050D01*
X96248Y-30250D02*
X96248Y-30248D01*
X96248Y-30248D02*
X95750Y-29750D01*
X92500Y-29500D02*
X92000Y-29000D01*
X95750Y-29750D02*
X95500Y-29500D01*
X95500Y-29500D02*
X92500Y-29500D01*
G54D10*
G36*
X94663Y-28609D02*
X94651Y-28614D01*
X94614Y-28651D01*
X94595Y-28699D01*
X94594Y-28750D01*
X94594Y-29270D01*
X92595Y-29270D01*
X92405Y-29079D01*
X92405Y-28699D01*
X92385Y-28651D01*
X92348Y-28614D01*
X92336Y-28609D01*
X94663Y-28609D01*
X94663Y-28609D01*
G37*
G54D24*
X94663Y-28609D02*
X94651Y-28614D01*
X94614Y-28651D01*
X94595Y-28699D01*
X94594Y-28750D01*
X94594Y-29270D01*
X92595Y-29270D01*
X92405Y-29079D01*
X92405Y-28699D01*
X92385Y-28651D01*
X92348Y-28614D01*
X92336Y-28609D01*
X94663Y-28609D01*
G54D10*
G36*
X98390Y-38884D02*
X98343Y-38770D01*
X98229Y-38656D01*
X98080Y-38595D01*
X97919Y-38594D01*
X97770Y-38656D01*
X97751Y-38676D01*
X97480Y-38405D01*
X97825Y-38405D01*
X97873Y-38385D01*
X97910Y-38348D01*
X97929Y-38300D01*
X97930Y-38249D01*
X97930Y-37699D01*
X97910Y-37651D01*
X97873Y-37614D01*
X97855Y-37607D01*
X97855Y-37425D01*
X97837Y-37336D01*
X97837Y-37336D01*
X97787Y-37262D01*
X97787Y-37262D01*
X97735Y-37209D01*
X97735Y-37090D01*
X98020Y-36805D01*
X98060Y-36805D01*
X98172Y-36758D01*
X98258Y-36672D01*
X98304Y-36560D01*
X98305Y-36439D01*
X98305Y-33439D01*
X98258Y-33327D01*
X98172Y-33241D01*
X98060Y-33195D01*
X97939Y-33194D01*
X97827Y-33241D01*
X97741Y-33327D01*
X97695Y-33439D01*
X97695Y-33479D01*
X97569Y-33604D01*
X97130Y-33604D01*
X96962Y-33437D01*
X96962Y-33437D01*
X96693Y-33167D01*
X96693Y-32791D01*
X96673Y-32743D01*
X96636Y-32706D01*
X96588Y-32687D01*
X96537Y-32686D01*
X96072Y-32686D01*
X96109Y-32662D01*
X96409Y-32362D01*
X96505Y-32362D01*
X96525Y-32354D01*
X96595Y-32354D01*
X96626Y-32385D01*
X96674Y-32404D01*
X96725Y-32405D01*
X97075Y-32405D01*
X97123Y-32385D01*
X97160Y-32348D01*
X97179Y-32300D01*
X97180Y-32249D01*
X97180Y-31699D01*
X97160Y-31651D01*
X97123Y-31614D01*
X97075Y-31595D01*
X97024Y-31594D01*
X96674Y-31594D01*
X96626Y-31614D01*
X96589Y-31651D01*
X96570Y-31699D01*
X96569Y-31750D01*
X96569Y-31894D01*
X96525Y-31894D01*
X96505Y-31885D01*
X96454Y-31885D01*
X96139Y-31885D01*
X96091Y-31905D01*
X96054Y-31942D01*
X96034Y-31989D01*
X96034Y-32027D01*
X96007Y-31961D01*
X95938Y-31892D01*
X95848Y-31855D01*
X95751Y-31854D01*
X95661Y-31892D01*
X95628Y-31925D01*
X95608Y-31905D01*
X95561Y-31885D01*
X95509Y-31885D01*
X95194Y-31885D01*
X95146Y-31905D01*
X95109Y-31942D01*
X95090Y-31989D01*
X95090Y-32041D01*
X95090Y-32258D01*
X95094Y-32269D01*
X95076Y-32250D01*
X95076Y-32248D01*
X95077Y-32197D01*
X95077Y-31843D01*
X95057Y-31795D01*
X95020Y-31758D01*
X94999Y-31750D01*
X95020Y-31741D01*
X95057Y-31704D01*
X95076Y-31656D01*
X95077Y-31605D01*
X95077Y-31251D01*
X95057Y-31203D01*
X95020Y-31166D01*
X94972Y-31147D01*
X94921Y-31146D01*
X94527Y-31146D01*
X94479Y-31166D01*
X94442Y-31203D01*
X94434Y-31224D01*
X93392Y-31224D01*
X93304Y-31241D01*
X93229Y-31291D01*
X93229Y-31291D01*
X93198Y-31322D01*
X92648Y-31322D01*
X92305Y-30979D01*
X92305Y-30939D01*
X92258Y-30827D01*
X92172Y-30741D01*
X92060Y-30695D01*
X91939Y-30694D01*
X91827Y-30741D01*
X91741Y-30827D01*
X91695Y-30939D01*
X91694Y-31060D01*
X91741Y-31172D01*
X91827Y-31258D01*
X91939Y-31304D01*
X91979Y-31304D01*
X91997Y-31322D01*
X91793Y-31322D01*
X91745Y-31342D01*
X91708Y-31379D01*
X91688Y-31426D01*
X91688Y-31478D01*
X91688Y-32265D01*
X91708Y-32313D01*
X91745Y-32350D01*
X91792Y-32370D01*
X91844Y-32370D01*
X94206Y-32370D01*
X94254Y-32350D01*
X94291Y-32313D01*
X94311Y-32266D01*
X94311Y-32214D01*
X94311Y-31684D01*
X94434Y-31684D01*
X94442Y-31704D01*
X94479Y-31741D01*
X94500Y-31749D01*
X94479Y-31758D01*
X94442Y-31795D01*
X94423Y-31843D01*
X94422Y-31894D01*
X94422Y-32248D01*
X94442Y-32296D01*
X94479Y-32333D01*
X94527Y-32352D01*
X94547Y-32352D01*
X94587Y-32412D01*
X94837Y-32662D01*
X94837Y-32662D01*
X94873Y-32686D01*
X94411Y-32686D01*
X94363Y-32706D01*
X94326Y-32743D01*
X94311Y-32781D01*
X94311Y-32734D01*
X94291Y-32686D01*
X94254Y-32649D01*
X94207Y-32629D01*
X94155Y-32629D01*
X91793Y-32629D01*
X91745Y-32649D01*
X91708Y-32686D01*
X91688Y-32733D01*
X91688Y-32785D01*
X91688Y-33572D01*
X91708Y-33620D01*
X91745Y-33657D01*
X91792Y-33677D01*
X91844Y-33677D01*
X94206Y-33677D01*
X94254Y-33657D01*
X94291Y-33620D01*
X94306Y-33583D01*
X94306Y-33708D01*
X94326Y-33756D01*
X94363Y-33793D01*
X94411Y-33812D01*
X94462Y-33813D01*
X94989Y-33813D01*
X95147Y-33970D01*
X95147Y-34157D01*
X95146Y-34157D01*
X95109Y-34193D01*
X95090Y-34241D01*
X95090Y-34293D01*
X95090Y-34509D01*
X95109Y-34557D01*
X95146Y-34594D01*
X95194Y-34614D01*
X95245Y-34614D01*
X95560Y-34614D01*
X95608Y-34594D01*
X95645Y-34557D01*
X95665Y-34510D01*
X95665Y-34458D01*
X95665Y-34241D01*
X95645Y-34194D01*
X95608Y-34157D01*
X95607Y-34157D01*
X95607Y-33875D01*
X95590Y-33787D01*
X95590Y-33787D01*
X95540Y-33712D01*
X95197Y-33369D01*
X95197Y-32791D01*
X95177Y-32743D01*
X95163Y-32730D01*
X95194Y-32730D01*
X95194Y-32760D01*
X95241Y-32872D01*
X95327Y-32958D01*
X95439Y-33004D01*
X95560Y-33005D01*
X95672Y-32958D01*
X95758Y-32872D01*
X95804Y-32760D01*
X95804Y-32730D01*
X95836Y-32730D01*
X95822Y-32743D01*
X95803Y-32791D01*
X95802Y-32842D01*
X95802Y-33708D01*
X95822Y-33756D01*
X95859Y-33793D01*
X95907Y-33812D01*
X95958Y-33813D01*
X96561Y-33813D01*
X96237Y-34137D01*
X96139Y-34137D01*
X96091Y-34157D01*
X96054Y-34193D01*
X96034Y-34241D01*
X96034Y-34293D01*
X96034Y-34509D01*
X96054Y-34557D01*
X96091Y-34594D01*
X96138Y-34614D01*
X96190Y-34614D01*
X96505Y-34614D01*
X96553Y-34594D01*
X96590Y-34557D01*
X96609Y-34510D01*
X96609Y-34458D01*
X96609Y-34415D01*
X96764Y-34260D01*
X96764Y-34390D01*
X96784Y-34438D01*
X96821Y-34475D01*
X96869Y-34494D01*
X96920Y-34495D01*
X97369Y-34495D01*
X97395Y-34520D01*
X97395Y-34607D01*
X97376Y-34614D01*
X97339Y-34651D01*
X97320Y-34699D01*
X97319Y-34750D01*
X97319Y-35300D01*
X97339Y-35348D01*
X97376Y-35385D01*
X97424Y-35404D01*
X97475Y-35405D01*
X97825Y-35405D01*
X97873Y-35385D01*
X97910Y-35348D01*
X97929Y-35300D01*
X97930Y-35249D01*
X97930Y-34699D01*
X97910Y-34651D01*
X97873Y-34614D01*
X97855Y-34607D01*
X97855Y-34425D01*
X97837Y-34336D01*
X97837Y-34336D01*
X97787Y-34262D01*
X97787Y-34262D01*
X97735Y-34209D01*
X97735Y-34090D01*
X98020Y-33805D01*
X98060Y-33805D01*
X98172Y-33758D01*
X98258Y-33672D01*
X98304Y-33560D01*
X98305Y-33439D01*
X98305Y-36439D01*
X98258Y-36327D01*
X98172Y-36241D01*
X98060Y-36195D01*
X97939Y-36194D01*
X97827Y-36241D01*
X97741Y-36327D01*
X97695Y-36439D01*
X97695Y-36479D01*
X97569Y-36604D01*
X97130Y-36604D01*
X96962Y-36437D01*
X96962Y-36437D01*
X96693Y-36167D01*
X96693Y-35791D01*
X96673Y-35743D01*
X96636Y-35706D01*
X96588Y-35687D01*
X96537Y-35686D01*
X96072Y-35686D01*
X96109Y-35662D01*
X96409Y-35362D01*
X96505Y-35362D01*
X96525Y-35354D01*
X96595Y-35354D01*
X96626Y-35385D01*
X96674Y-35404D01*
X96725Y-35405D01*
X97075Y-35405D01*
X97123Y-35385D01*
X97160Y-35348D01*
X97179Y-35300D01*
X97180Y-35249D01*
X97180Y-34699D01*
X97160Y-34651D01*
X97123Y-34614D01*
X97075Y-34595D01*
X97024Y-34594D01*
X96674Y-34594D01*
X96626Y-34614D01*
X96589Y-34651D01*
X96570Y-34699D01*
X96569Y-34750D01*
X96569Y-34894D01*
X96525Y-34894D01*
X96505Y-34885D01*
X96454Y-34885D01*
X96139Y-34885D01*
X96091Y-34905D01*
X96054Y-34942D01*
X96034Y-34989D01*
X96034Y-35027D01*
X96007Y-34961D01*
X95938Y-34892D01*
X95848Y-34855D01*
X95751Y-34854D01*
X95661Y-34892D01*
X95628Y-34925D01*
X95608Y-34905D01*
X95561Y-34885D01*
X95509Y-34885D01*
X95194Y-34885D01*
X95146Y-34905D01*
X95109Y-34942D01*
X95090Y-34989D01*
X95090Y-35041D01*
X95090Y-35258D01*
X95094Y-35269D01*
X95076Y-35250D01*
X95076Y-35248D01*
X95077Y-35197D01*
X95077Y-34843D01*
X95057Y-34795D01*
X95020Y-34758D01*
X94999Y-34750D01*
X95020Y-34741D01*
X95057Y-34704D01*
X95076Y-34656D01*
X95077Y-34605D01*
X95077Y-34251D01*
X95057Y-34203D01*
X95020Y-34166D01*
X94972Y-34147D01*
X94921Y-34146D01*
X94527Y-34146D01*
X94479Y-34166D01*
X94442Y-34203D01*
X94434Y-34224D01*
X93392Y-34224D01*
X93304Y-34241D01*
X93229Y-34291D01*
X93229Y-34291D01*
X93198Y-34322D01*
X93148Y-34322D01*
X92805Y-33979D01*
X92805Y-33939D01*
X92758Y-33827D01*
X92672Y-33741D01*
X92560Y-33695D01*
X92439Y-33694D01*
X92327Y-33741D01*
X92241Y-33827D01*
X92195Y-33939D01*
X92194Y-34060D01*
X92241Y-34172D01*
X92327Y-34258D01*
X92439Y-34304D01*
X92479Y-34304D01*
X92497Y-34322D01*
X91793Y-34322D01*
X91745Y-34342D01*
X91708Y-34379D01*
X91688Y-34426D01*
X91688Y-34478D01*
X91688Y-35265D01*
X91708Y-35313D01*
X91745Y-35350D01*
X91792Y-35370D01*
X91844Y-35370D01*
X94206Y-35370D01*
X94254Y-35350D01*
X94291Y-35313D01*
X94311Y-35266D01*
X94311Y-35214D01*
X94311Y-34684D01*
X94434Y-34684D01*
X94442Y-34704D01*
X94479Y-34741D01*
X94500Y-34749D01*
X94479Y-34758D01*
X94442Y-34795D01*
X94423Y-34843D01*
X94422Y-34894D01*
X94422Y-35248D01*
X94442Y-35296D01*
X94479Y-35333D01*
X94527Y-35352D01*
X94547Y-35352D01*
X94587Y-35412D01*
X94837Y-35662D01*
X94837Y-35662D01*
X94873Y-35686D01*
X94411Y-35686D01*
X94363Y-35706D01*
X94326Y-35743D01*
X94311Y-35781D01*
X94311Y-35734D01*
X94291Y-35686D01*
X94254Y-35649D01*
X94207Y-35629D01*
X94155Y-35629D01*
X91793Y-35629D01*
X91745Y-35649D01*
X91708Y-35686D01*
X91688Y-35733D01*
X91688Y-35785D01*
X91688Y-36572D01*
X91708Y-36620D01*
X91745Y-36657D01*
X91792Y-36677D01*
X91844Y-36677D01*
X94206Y-36677D01*
X94254Y-36657D01*
X94291Y-36620D01*
X94306Y-36583D01*
X94306Y-36708D01*
X94326Y-36756D01*
X94363Y-36793D01*
X94411Y-36812D01*
X94462Y-36813D01*
X94989Y-36813D01*
X95147Y-36970D01*
X95147Y-37157D01*
X95146Y-37157D01*
X95109Y-37193D01*
X95090Y-37241D01*
X95090Y-37293D01*
X95090Y-37509D01*
X95109Y-37557D01*
X95146Y-37594D01*
X95194Y-37614D01*
X95245Y-37614D01*
X95560Y-37614D01*
X95608Y-37594D01*
X95645Y-37557D01*
X95665Y-37510D01*
X95665Y-37458D01*
X95665Y-37241D01*
X95645Y-37194D01*
X95608Y-37157D01*
X95607Y-37157D01*
X95607Y-36875D01*
X95590Y-36787D01*
X95590Y-36787D01*
X95540Y-36712D01*
X95197Y-36369D01*
X95197Y-35791D01*
X95177Y-35743D01*
X95163Y-35730D01*
X95194Y-35730D01*
X95194Y-35760D01*
X95241Y-35872D01*
X95327Y-35958D01*
X95439Y-36004D01*
X95560Y-36005D01*
X95672Y-35958D01*
X95758Y-35872D01*
X95804Y-35760D01*
X95804Y-35730D01*
X95836Y-35730D01*
X95822Y-35743D01*
X95803Y-35791D01*
X95802Y-35842D01*
X95802Y-36708D01*
X95822Y-36756D01*
X95859Y-36793D01*
X95907Y-36812D01*
X95958Y-36813D01*
X96561Y-36813D01*
X96237Y-37137D01*
X96139Y-37137D01*
X96091Y-37157D01*
X96054Y-37193D01*
X96034Y-37241D01*
X96034Y-37293D01*
X96034Y-37509D01*
X96054Y-37557D01*
X96091Y-37594D01*
X96138Y-37614D01*
X96190Y-37614D01*
X96505Y-37614D01*
X96553Y-37594D01*
X96590Y-37557D01*
X96609Y-37510D01*
X96609Y-37458D01*
X96609Y-37415D01*
X96764Y-37260D01*
X96764Y-37390D01*
X96784Y-37438D01*
X96821Y-37475D01*
X96869Y-37494D01*
X96920Y-37495D01*
X97369Y-37495D01*
X97395Y-37520D01*
X97395Y-37607D01*
X97376Y-37614D01*
X97339Y-37651D01*
X97320Y-37699D01*
X97319Y-37750D01*
X97319Y-38244D01*
X97180Y-38104D01*
X97180Y-37699D01*
X97160Y-37651D01*
X97123Y-37614D01*
X97075Y-37595D01*
X97024Y-37594D01*
X96674Y-37594D01*
X96626Y-37614D01*
X96589Y-37651D01*
X96570Y-37699D01*
X96569Y-37750D01*
X96569Y-37894D01*
X96525Y-37894D01*
X96505Y-37885D01*
X96454Y-37885D01*
X96139Y-37885D01*
X96091Y-37905D01*
X96054Y-37942D01*
X96034Y-37989D01*
X96034Y-38027D01*
X96007Y-37961D01*
X95938Y-37892D01*
X95848Y-37855D01*
X95751Y-37854D01*
X95661Y-37892D01*
X95628Y-37925D01*
X95608Y-37905D01*
X95561Y-37885D01*
X95509Y-37885D01*
X95194Y-37885D01*
X95146Y-37905D01*
X95109Y-37942D01*
X95090Y-37989D01*
X95090Y-38041D01*
X95090Y-38258D01*
X95094Y-38269D01*
X95076Y-38250D01*
X95076Y-38248D01*
X95077Y-38197D01*
X95077Y-37843D01*
X95057Y-37795D01*
X95020Y-37758D01*
X94999Y-37750D01*
X95020Y-37741D01*
X95057Y-37704D01*
X95076Y-37656D01*
X95077Y-37605D01*
X95077Y-37251D01*
X95057Y-37203D01*
X95020Y-37166D01*
X94972Y-37147D01*
X94921Y-37146D01*
X94527Y-37146D01*
X94479Y-37166D01*
X94442Y-37203D01*
X94434Y-37224D01*
X93392Y-37224D01*
X93304Y-37241D01*
X93229Y-37291D01*
X93229Y-37291D01*
X93198Y-37322D01*
X91793Y-37322D01*
X91745Y-37342D01*
X91708Y-37379D01*
X91688Y-37426D01*
X91688Y-37478D01*
X91688Y-38265D01*
X91708Y-38313D01*
X91745Y-38350D01*
X91792Y-38370D01*
X91844Y-38370D01*
X93044Y-38370D01*
X93595Y-38920D01*
X93594Y-39080D01*
X93656Y-39229D01*
X93770Y-39343D01*
X93883Y-39390D01*
X93115Y-39390D01*
X93229Y-39343D01*
X93343Y-39229D01*
X93404Y-39080D01*
X93405Y-38919D01*
X93343Y-38770D01*
X93229Y-38656D01*
X93080Y-38595D01*
X92919Y-38594D01*
X92770Y-38656D01*
X92656Y-38770D01*
X92595Y-38919D01*
X92594Y-39080D01*
X92656Y-39229D01*
X92770Y-39343D01*
X92883Y-39390D01*
X92336Y-39390D01*
X92348Y-39385D01*
X92385Y-39348D01*
X92404Y-39300D01*
X92405Y-39249D01*
X92405Y-38699D01*
X92385Y-38651D01*
X92348Y-38614D01*
X92300Y-38595D01*
X92249Y-38594D01*
X91699Y-38594D01*
X91651Y-38614D01*
X91614Y-38651D01*
X91609Y-38663D01*
X91609Y-29336D01*
X91614Y-29348D01*
X91651Y-29385D01*
X91699Y-29404D01*
X91750Y-29405D01*
X92079Y-29405D01*
X92304Y-29629D01*
X91793Y-29629D01*
X91745Y-29649D01*
X91708Y-29686D01*
X91688Y-29733D01*
X91688Y-29785D01*
X91688Y-30572D01*
X91708Y-30620D01*
X91745Y-30657D01*
X91792Y-30677D01*
X91844Y-30677D01*
X94206Y-30677D01*
X94254Y-30657D01*
X94291Y-30620D01*
X94306Y-30583D01*
X94306Y-30708D01*
X94326Y-30756D01*
X94363Y-30793D01*
X94411Y-30812D01*
X94462Y-30813D01*
X94989Y-30813D01*
X95147Y-30970D01*
X95147Y-31157D01*
X95146Y-31157D01*
X95109Y-31193D01*
X95090Y-31241D01*
X95090Y-31293D01*
X95090Y-31509D01*
X95109Y-31557D01*
X95146Y-31594D01*
X95194Y-31614D01*
X95245Y-31614D01*
X95560Y-31614D01*
X95608Y-31594D01*
X95645Y-31557D01*
X95665Y-31510D01*
X95665Y-31458D01*
X95665Y-31241D01*
X95645Y-31194D01*
X95608Y-31157D01*
X95607Y-31157D01*
X95607Y-30875D01*
X95590Y-30787D01*
X95590Y-30787D01*
X95540Y-30712D01*
X95197Y-30369D01*
X95197Y-29791D01*
X95177Y-29743D01*
X95163Y-29730D01*
X95404Y-29730D01*
X95587Y-29912D01*
X95587Y-29912D01*
X95802Y-30128D01*
X95802Y-30708D01*
X95822Y-30756D01*
X95859Y-30793D01*
X95907Y-30812D01*
X95958Y-30813D01*
X96561Y-30813D01*
X96537Y-30837D01*
X96487Y-30887D01*
X96487Y-30887D01*
X96237Y-31137D01*
X96139Y-31137D01*
X96091Y-31157D01*
X96054Y-31193D01*
X96034Y-31241D01*
X96034Y-31293D01*
X96034Y-31509D01*
X96054Y-31557D01*
X96091Y-31594D01*
X96138Y-31614D01*
X96190Y-31614D01*
X96505Y-31614D01*
X96553Y-31594D01*
X96590Y-31557D01*
X96609Y-31510D01*
X96609Y-31458D01*
X96609Y-31415D01*
X96764Y-31260D01*
X96764Y-31390D01*
X96784Y-31438D01*
X96821Y-31475D01*
X96869Y-31494D01*
X96920Y-31495D01*
X97369Y-31495D01*
X97395Y-31520D01*
X97395Y-31607D01*
X97376Y-31614D01*
X97339Y-31651D01*
X97320Y-31699D01*
X97319Y-31750D01*
X97319Y-32300D01*
X97339Y-32348D01*
X97376Y-32385D01*
X97424Y-32404D01*
X97475Y-32405D01*
X97825Y-32405D01*
X97873Y-32385D01*
X97910Y-32348D01*
X97929Y-32300D01*
X97930Y-32249D01*
X97930Y-31699D01*
X97910Y-31651D01*
X97873Y-31614D01*
X97855Y-31607D01*
X97855Y-31425D01*
X97843Y-31365D01*
X97939Y-31404D01*
X98060Y-31405D01*
X98172Y-31358D01*
X98258Y-31272D01*
X98304Y-31160D01*
X98305Y-31039D01*
X98258Y-30927D01*
X98172Y-30841D01*
X98060Y-30795D01*
X97939Y-30794D01*
X97878Y-30820D01*
X97735Y-30820D01*
X97735Y-30709D01*
X97715Y-30661D01*
X97678Y-30624D01*
X97630Y-30605D01*
X97579Y-30604D01*
X97130Y-30604D01*
X96962Y-30437D01*
X96962Y-30437D01*
X96693Y-30167D01*
X96693Y-29791D01*
X96673Y-29743D01*
X96636Y-29706D01*
X96588Y-29687D01*
X96537Y-29686D01*
X96012Y-29686D01*
X95912Y-29587D01*
X95912Y-29587D01*
X95662Y-29337D01*
X95588Y-29287D01*
X95500Y-29270D01*
X95405Y-29270D01*
X95405Y-29249D01*
X95405Y-28699D01*
X95385Y-28651D01*
X95348Y-28614D01*
X95336Y-28609D01*
X95884Y-28609D01*
X95770Y-28656D01*
X95656Y-28770D01*
X95595Y-28919D01*
X95594Y-29080D01*
X95656Y-29229D01*
X95770Y-29343D01*
X95919Y-29404D01*
X96080Y-29405D01*
X96229Y-29343D01*
X96343Y-29229D01*
X96404Y-29080D01*
X96405Y-28919D01*
X96343Y-28770D01*
X96229Y-28656D01*
X96116Y-28609D01*
X96884Y-28609D01*
X96770Y-28656D01*
X96656Y-28770D01*
X96595Y-28919D01*
X96594Y-29080D01*
X96656Y-29229D01*
X96770Y-29343D01*
X96919Y-29404D01*
X97080Y-29405D01*
X97229Y-29343D01*
X97343Y-29229D01*
X97404Y-29080D01*
X97405Y-28919D01*
X97343Y-28770D01*
X97229Y-28656D01*
X97116Y-28609D01*
X98390Y-28609D01*
X98390Y-38884D01*
X98390Y-38884D01*
G37*
G54D24*
X98390Y-38884D02*
X98343Y-38770D01*
X98229Y-38656D01*
X98080Y-38595D01*
X97919Y-38594D01*
X97770Y-38656D01*
X97751Y-38676D01*
X97480Y-38405D01*
X97825Y-38405D01*
X97873Y-38385D01*
X97910Y-38348D01*
X97929Y-38300D01*
X97930Y-38249D01*
X97930Y-37699D01*
X97910Y-37651D01*
X97873Y-37614D01*
X97855Y-37607D01*
X97855Y-37425D01*
X97837Y-37336D01*
X97837Y-37336D01*
X97787Y-37262D01*
X97787Y-37262D01*
X97735Y-37209D01*
X97735Y-37090D01*
X98020Y-36805D01*
X98060Y-36805D01*
X98172Y-36758D01*
X98258Y-36672D01*
X98304Y-36560D01*
X98305Y-36439D01*
X98305Y-33439D01*
X98258Y-33327D01*
X98172Y-33241D01*
X98060Y-33195D01*
X97939Y-33194D01*
X97827Y-33241D01*
X97741Y-33327D01*
X97695Y-33439D01*
X97695Y-33479D01*
X97569Y-33604D01*
X97130Y-33604D01*
X96962Y-33437D01*
X96962Y-33437D01*
X96693Y-33167D01*
X96693Y-32791D01*
X96673Y-32743D01*
X96636Y-32706D01*
X96588Y-32687D01*
X96537Y-32686D01*
X96072Y-32686D01*
X96109Y-32662D01*
X96409Y-32362D01*
X96505Y-32362D01*
X96525Y-32354D01*
X96595Y-32354D01*
X96626Y-32385D01*
X96674Y-32404D01*
X96725Y-32405D01*
X97075Y-32405D01*
X97123Y-32385D01*
X97160Y-32348D01*
X97179Y-32300D01*
X97180Y-32249D01*
X97180Y-31699D01*
X97160Y-31651D01*
X97123Y-31614D01*
X97075Y-31595D01*
X97024Y-31594D01*
X96674Y-31594D01*
X96626Y-31614D01*
X96589Y-31651D01*
X96570Y-31699D01*
X96569Y-31750D01*
X96569Y-31894D01*
X96525Y-31894D01*
X96505Y-31885D01*
X96454Y-31885D01*
X96139Y-31885D01*
X96091Y-31905D01*
X96054Y-31942D01*
X96034Y-31989D01*
X96034Y-32027D01*
X96007Y-31961D01*
X95938Y-31892D01*
X95848Y-31855D01*
X95751Y-31854D01*
X95661Y-31892D01*
X95628Y-31925D01*
X95608Y-31905D01*
X95561Y-31885D01*
X95509Y-31885D01*
X95194Y-31885D01*
X95146Y-31905D01*
X95109Y-31942D01*
X95090Y-31989D01*
X95090Y-32041D01*
X95090Y-32258D01*
X95094Y-32269D01*
X95076Y-32250D01*
X95076Y-32248D01*
X95077Y-32197D01*
X95077Y-31843D01*
X95057Y-31795D01*
X95020Y-31758D01*
X94999Y-31750D01*
X95020Y-31741D01*
X95057Y-31704D01*
X95076Y-31656D01*
X95077Y-31605D01*
X95077Y-31251D01*
X95057Y-31203D01*
X95020Y-31166D01*
X94972Y-31147D01*
X94921Y-31146D01*
X94527Y-31146D01*
X94479Y-31166D01*
X94442Y-31203D01*
X94434Y-31224D01*
X93392Y-31224D01*
X93304Y-31241D01*
X93229Y-31291D01*
X93229Y-31291D01*
X93198Y-31322D01*
X92648Y-31322D01*
X92305Y-30979D01*
X92305Y-30939D01*
X92258Y-30827D01*
X92172Y-30741D01*
X92060Y-30695D01*
X91939Y-30694D01*
X91827Y-30741D01*
X91741Y-30827D01*
X91695Y-30939D01*
X91694Y-31060D01*
X91741Y-31172D01*
X91827Y-31258D01*
X91939Y-31304D01*
X91979Y-31304D01*
X91997Y-31322D01*
X91793Y-31322D01*
X91745Y-31342D01*
X91708Y-31379D01*
X91688Y-31426D01*
X91688Y-31478D01*
X91688Y-32265D01*
X91708Y-32313D01*
X91745Y-32350D01*
X91792Y-32370D01*
X91844Y-32370D01*
X94206Y-32370D01*
X94254Y-32350D01*
X94291Y-32313D01*
X94311Y-32266D01*
X94311Y-32214D01*
X94311Y-31684D01*
X94434Y-31684D01*
X94442Y-31704D01*
X94479Y-31741D01*
X94500Y-31749D01*
X94479Y-31758D01*
X94442Y-31795D01*
X94423Y-31843D01*
X94422Y-31894D01*
X94422Y-32248D01*
X94442Y-32296D01*
X94479Y-32333D01*
X94527Y-32352D01*
X94547Y-32352D01*
X94587Y-32412D01*
X94837Y-32662D01*
X94837Y-32662D01*
X94873Y-32686D01*
X94411Y-32686D01*
X94363Y-32706D01*
X94326Y-32743D01*
X94311Y-32781D01*
X94311Y-32734D01*
X94291Y-32686D01*
X94254Y-32649D01*
X94207Y-32629D01*
X94155Y-32629D01*
X91793Y-32629D01*
X91745Y-32649D01*
X91708Y-32686D01*
X91688Y-32733D01*
X91688Y-32785D01*
X91688Y-33572D01*
X91708Y-33620D01*
X91745Y-33657D01*
X91792Y-33677D01*
X91844Y-33677D01*
X94206Y-33677D01*
X94254Y-33657D01*
X94291Y-33620D01*
X94306Y-33583D01*
X94306Y-33708D01*
X94326Y-33756D01*
X94363Y-33793D01*
X94411Y-33812D01*
X94462Y-33813D01*
X94989Y-33813D01*
X95147Y-33970D01*
X95147Y-34157D01*
X95146Y-34157D01*
X95109Y-34193D01*
X95090Y-34241D01*
X95090Y-34293D01*
X95090Y-34509D01*
X95109Y-34557D01*
X95146Y-34594D01*
X95194Y-34614D01*
X95245Y-34614D01*
X95560Y-34614D01*
X95608Y-34594D01*
X95645Y-34557D01*
X95665Y-34510D01*
X95665Y-34458D01*
X95665Y-34241D01*
X95645Y-34194D01*
X95608Y-34157D01*
X95607Y-34157D01*
X95607Y-33875D01*
X95590Y-33787D01*
X95590Y-33787D01*
X95540Y-33712D01*
X95197Y-33369D01*
X95197Y-32791D01*
X95177Y-32743D01*
X95163Y-32730D01*
X95194Y-32730D01*
X95194Y-32760D01*
X95241Y-32872D01*
X95327Y-32958D01*
X95439Y-33004D01*
X95560Y-33005D01*
X95672Y-32958D01*
X95758Y-32872D01*
X95804Y-32760D01*
X95804Y-32730D01*
X95836Y-32730D01*
X95822Y-32743D01*
X95803Y-32791D01*
X95802Y-32842D01*
X95802Y-33708D01*
X95822Y-33756D01*
X95859Y-33793D01*
X95907Y-33812D01*
X95958Y-33813D01*
X96561Y-33813D01*
X96237Y-34137D01*
X96139Y-34137D01*
X96091Y-34157D01*
X96054Y-34193D01*
X96034Y-34241D01*
X96034Y-34293D01*
X96034Y-34509D01*
X96054Y-34557D01*
X96091Y-34594D01*
X96138Y-34614D01*
X96190Y-34614D01*
X96505Y-34614D01*
X96553Y-34594D01*
X96590Y-34557D01*
X96609Y-34510D01*
X96609Y-34458D01*
X96609Y-34415D01*
X96764Y-34260D01*
X96764Y-34390D01*
X96784Y-34438D01*
X96821Y-34475D01*
X96869Y-34494D01*
X96920Y-34495D01*
X97369Y-34495D01*
X97395Y-34520D01*
X97395Y-34607D01*
X97376Y-34614D01*
X97339Y-34651D01*
X97320Y-34699D01*
X97319Y-34750D01*
X97319Y-35300D01*
X97339Y-35348D01*
X97376Y-35385D01*
X97424Y-35404D01*
X97475Y-35405D01*
X97825Y-35405D01*
X97873Y-35385D01*
X97910Y-35348D01*
X97929Y-35300D01*
X97930Y-35249D01*
X97930Y-34699D01*
X97910Y-34651D01*
X97873Y-34614D01*
X97855Y-34607D01*
X97855Y-34425D01*
X97837Y-34336D01*
X97837Y-34336D01*
X97787Y-34262D01*
X97787Y-34262D01*
X97735Y-34209D01*
X97735Y-34090D01*
X98020Y-33805D01*
X98060Y-33805D01*
X98172Y-33758D01*
X98258Y-33672D01*
X98304Y-33560D01*
X98305Y-33439D01*
X98305Y-36439D01*
X98258Y-36327D01*
X98172Y-36241D01*
X98060Y-36195D01*
X97939Y-36194D01*
X97827Y-36241D01*
X97741Y-36327D01*
X97695Y-36439D01*
X97695Y-36479D01*
X97569Y-36604D01*
X97130Y-36604D01*
X96962Y-36437D01*
X96962Y-36437D01*
X96693Y-36167D01*
X96693Y-35791D01*
X96673Y-35743D01*
X96636Y-35706D01*
X96588Y-35687D01*
X96537Y-35686D01*
X96072Y-35686D01*
X96109Y-35662D01*
X96409Y-35362D01*
X96505Y-35362D01*
X96525Y-35354D01*
X96595Y-35354D01*
X96626Y-35385D01*
X96674Y-35404D01*
X96725Y-35405D01*
X97075Y-35405D01*
X97123Y-35385D01*
X97160Y-35348D01*
X97179Y-35300D01*
X97180Y-35249D01*
X97180Y-34699D01*
X97160Y-34651D01*
X97123Y-34614D01*
X97075Y-34595D01*
X97024Y-34594D01*
X96674Y-34594D01*
X96626Y-34614D01*
X96589Y-34651D01*
X96570Y-34699D01*
X96569Y-34750D01*
X96569Y-34894D01*
X96525Y-34894D01*
X96505Y-34885D01*
X96454Y-34885D01*
X96139Y-34885D01*
X96091Y-34905D01*
X96054Y-34942D01*
X96034Y-34989D01*
X96034Y-35027D01*
X96007Y-34961D01*
X95938Y-34892D01*
X95848Y-34855D01*
X95751Y-34854D01*
X95661Y-34892D01*
X95628Y-34925D01*
X95608Y-34905D01*
X95561Y-34885D01*
X95509Y-34885D01*
X95194Y-34885D01*
X95146Y-34905D01*
X95109Y-34942D01*
X95090Y-34989D01*
X95090Y-35041D01*
X95090Y-35258D01*
X95094Y-35269D01*
X95076Y-35250D01*
X95076Y-35248D01*
X95077Y-35197D01*
X95077Y-34843D01*
X95057Y-34795D01*
X95020Y-34758D01*
X94999Y-34750D01*
X95020Y-34741D01*
X95057Y-34704D01*
X95076Y-34656D01*
X95077Y-34605D01*
X95077Y-34251D01*
X95057Y-34203D01*
X95020Y-34166D01*
X94972Y-34147D01*
X94921Y-34146D01*
X94527Y-34146D01*
X94479Y-34166D01*
X94442Y-34203D01*
X94434Y-34224D01*
X93392Y-34224D01*
X93304Y-34241D01*
X93229Y-34291D01*
X93229Y-34291D01*
X93198Y-34322D01*
X93148Y-34322D01*
X92805Y-33979D01*
X92805Y-33939D01*
X92758Y-33827D01*
X92672Y-33741D01*
X92560Y-33695D01*
X92439Y-33694D01*
X92327Y-33741D01*
X92241Y-33827D01*
X92195Y-33939D01*
X92194Y-34060D01*
X92241Y-34172D01*
X92327Y-34258D01*
X92439Y-34304D01*
X92479Y-34304D01*
X92497Y-34322D01*
X91793Y-34322D01*
X91745Y-34342D01*
X91708Y-34379D01*
X91688Y-34426D01*
X91688Y-34478D01*
X91688Y-35265D01*
X91708Y-35313D01*
X91745Y-35350D01*
X91792Y-35370D01*
X91844Y-35370D01*
X94206Y-35370D01*
X94254Y-35350D01*
X94291Y-35313D01*
X94311Y-35266D01*
X94311Y-35214D01*
X94311Y-34684D01*
X94434Y-34684D01*
X94442Y-34704D01*
X94479Y-34741D01*
X94500Y-34749D01*
X94479Y-34758D01*
X94442Y-34795D01*
X94423Y-34843D01*
X94422Y-34894D01*
X94422Y-35248D01*
X94442Y-35296D01*
X94479Y-35333D01*
X94527Y-35352D01*
X94547Y-35352D01*
X94587Y-35412D01*
X94837Y-35662D01*
X94837Y-35662D01*
X94873Y-35686D01*
X94411Y-35686D01*
X94363Y-35706D01*
X94326Y-35743D01*
X94311Y-35781D01*
X94311Y-35734D01*
X94291Y-35686D01*
X94254Y-35649D01*
X94207Y-35629D01*
X94155Y-35629D01*
X91793Y-35629D01*
X91745Y-35649D01*
X91708Y-35686D01*
X91688Y-35733D01*
X91688Y-35785D01*
X91688Y-36572D01*
X91708Y-36620D01*
X91745Y-36657D01*
X91792Y-36677D01*
X91844Y-36677D01*
X94206Y-36677D01*
X94254Y-36657D01*
X94291Y-36620D01*
X94306Y-36583D01*
X94306Y-36708D01*
X94326Y-36756D01*
X94363Y-36793D01*
X94411Y-36812D01*
X94462Y-36813D01*
X94989Y-36813D01*
X95147Y-36970D01*
X95147Y-37157D01*
X95146Y-37157D01*
X95109Y-37193D01*
X95090Y-37241D01*
X95090Y-37293D01*
X95090Y-37509D01*
X95109Y-37557D01*
X95146Y-37594D01*
X95194Y-37614D01*
X95245Y-37614D01*
X95560Y-37614D01*
X95608Y-37594D01*
X95645Y-37557D01*
X95665Y-37510D01*
X95665Y-37458D01*
X95665Y-37241D01*
X95645Y-37194D01*
X95608Y-37157D01*
X95607Y-37157D01*
X95607Y-36875D01*
X95590Y-36787D01*
X95590Y-36787D01*
X95540Y-36712D01*
X95197Y-36369D01*
X95197Y-35791D01*
X95177Y-35743D01*
X95163Y-35730D01*
X95194Y-35730D01*
X95194Y-35760D01*
X95241Y-35872D01*
X95327Y-35958D01*
X95439Y-36004D01*
X95560Y-36005D01*
X95672Y-35958D01*
X95758Y-35872D01*
X95804Y-35760D01*
X95804Y-35730D01*
X95836Y-35730D01*
X95822Y-35743D01*
X95803Y-35791D01*
X95802Y-35842D01*
X95802Y-36708D01*
X95822Y-36756D01*
X95859Y-36793D01*
X95907Y-36812D01*
X95958Y-36813D01*
X96561Y-36813D01*
X96237Y-37137D01*
X96139Y-37137D01*
X96091Y-37157D01*
X96054Y-37193D01*
X96034Y-37241D01*
X96034Y-37293D01*
X96034Y-37509D01*
X96054Y-37557D01*
X96091Y-37594D01*
X96138Y-37614D01*
X96190Y-37614D01*
X96505Y-37614D01*
X96553Y-37594D01*
X96590Y-37557D01*
X96609Y-37510D01*
X96609Y-37458D01*
X96609Y-37415D01*
X96764Y-37260D01*
X96764Y-37390D01*
X96784Y-37438D01*
X96821Y-37475D01*
X96869Y-37494D01*
X96920Y-37495D01*
X97369Y-37495D01*
X97395Y-37520D01*
X97395Y-37607D01*
X97376Y-37614D01*
X97339Y-37651D01*
X97320Y-37699D01*
X97319Y-37750D01*
X97319Y-38244D01*
X97180Y-38104D01*
X97180Y-37699D01*
X97160Y-37651D01*
X97123Y-37614D01*
X97075Y-37595D01*
X97024Y-37594D01*
X96674Y-37594D01*
X96626Y-37614D01*
X96589Y-37651D01*
X96570Y-37699D01*
X96569Y-37750D01*
X96569Y-37894D01*
X96525Y-37894D01*
X96505Y-37885D01*
X96454Y-37885D01*
X96139Y-37885D01*
X96091Y-37905D01*
X96054Y-37942D01*
X96034Y-37989D01*
X96034Y-38027D01*
X96007Y-37961D01*
X95938Y-37892D01*
X95848Y-37855D01*
X95751Y-37854D01*
X95661Y-37892D01*
X95628Y-37925D01*
X95608Y-37905D01*
X95561Y-37885D01*
X95509Y-37885D01*
X95194Y-37885D01*
X95146Y-37905D01*
X95109Y-37942D01*
X95090Y-37989D01*
X95090Y-38041D01*
X95090Y-38258D01*
X95094Y-38269D01*
X95076Y-38250D01*
X95076Y-38248D01*
X95077Y-38197D01*
X95077Y-37843D01*
X95057Y-37795D01*
X95020Y-37758D01*
X94999Y-37750D01*
X95020Y-37741D01*
X95057Y-37704D01*
X95076Y-37656D01*
X95077Y-37605D01*
X95077Y-37251D01*
X95057Y-37203D01*
X95020Y-37166D01*
X94972Y-37147D01*
X94921Y-37146D01*
X94527Y-37146D01*
X94479Y-37166D01*
X94442Y-37203D01*
X94434Y-37224D01*
X93392Y-37224D01*
X93304Y-37241D01*
X93229Y-37291D01*
X93229Y-37291D01*
X93198Y-37322D01*
X91793Y-37322D01*
X91745Y-37342D01*
X91708Y-37379D01*
X91688Y-37426D01*
X91688Y-37478D01*
X91688Y-38265D01*
X91708Y-38313D01*
X91745Y-38350D01*
X91792Y-38370D01*
X91844Y-38370D01*
X93044Y-38370D01*
X93595Y-38920D01*
X93594Y-39080D01*
X93656Y-39229D01*
X93770Y-39343D01*
X93883Y-39390D01*
X93115Y-39390D01*
X93229Y-39343D01*
X93343Y-39229D01*
X93404Y-39080D01*
X93405Y-38919D01*
X93343Y-38770D01*
X93229Y-38656D01*
X93080Y-38595D01*
X92919Y-38594D01*
X92770Y-38656D01*
X92656Y-38770D01*
X92595Y-38919D01*
X92594Y-39080D01*
X92656Y-39229D01*
X92770Y-39343D01*
X92883Y-39390D01*
X92336Y-39390D01*
X92348Y-39385D01*
X92385Y-39348D01*
X92404Y-39300D01*
X92405Y-39249D01*
X92405Y-38699D01*
X92385Y-38651D01*
X92348Y-38614D01*
X92300Y-38595D01*
X92249Y-38594D01*
X91699Y-38594D01*
X91651Y-38614D01*
X91614Y-38651D01*
X91609Y-38663D01*
X91609Y-29336D01*
X91614Y-29348D01*
X91651Y-29385D01*
X91699Y-29404D01*
X91750Y-29405D01*
X92079Y-29405D01*
X92304Y-29629D01*
X91793Y-29629D01*
X91745Y-29649D01*
X91708Y-29686D01*
X91688Y-29733D01*
X91688Y-29785D01*
X91688Y-30572D01*
X91708Y-30620D01*
X91745Y-30657D01*
X91792Y-30677D01*
X91844Y-30677D01*
X94206Y-30677D01*
X94254Y-30657D01*
X94291Y-30620D01*
X94306Y-30583D01*
X94306Y-30708D01*
X94326Y-30756D01*
X94363Y-30793D01*
X94411Y-30812D01*
X94462Y-30813D01*
X94989Y-30813D01*
X95147Y-30970D01*
X95147Y-31157D01*
X95146Y-31157D01*
X95109Y-31193D01*
X95090Y-31241D01*
X95090Y-31293D01*
X95090Y-31509D01*
X95109Y-31557D01*
X95146Y-31594D01*
X95194Y-31614D01*
X95245Y-31614D01*
X95560Y-31614D01*
X95608Y-31594D01*
X95645Y-31557D01*
X95665Y-31510D01*
X95665Y-31458D01*
X95665Y-31241D01*
X95645Y-31194D01*
X95608Y-31157D01*
X95607Y-31157D01*
X95607Y-30875D01*
X95590Y-30787D01*
X95590Y-30787D01*
X95540Y-30712D01*
X95197Y-30369D01*
X95197Y-29791D01*
X95177Y-29743D01*
X95163Y-29730D01*
X95404Y-29730D01*
X95587Y-29912D01*
X95587Y-29912D01*
X95802Y-30128D01*
X95802Y-30708D01*
X95822Y-30756D01*
X95859Y-30793D01*
X95907Y-30812D01*
X95958Y-30813D01*
X96561Y-30813D01*
X96537Y-30837D01*
X96487Y-30887D01*
X96487Y-30887D01*
X96237Y-31137D01*
X96139Y-31137D01*
X96091Y-31157D01*
X96054Y-31193D01*
X96034Y-31241D01*
X96034Y-31293D01*
X96034Y-31509D01*
X96054Y-31557D01*
X96091Y-31594D01*
X96138Y-31614D01*
X96190Y-31614D01*
X96505Y-31614D01*
X96553Y-31594D01*
X96590Y-31557D01*
X96609Y-31510D01*
X96609Y-31458D01*
X96609Y-31415D01*
X96764Y-31260D01*
X96764Y-31390D01*
X96784Y-31438D01*
X96821Y-31475D01*
X96869Y-31494D01*
X96920Y-31495D01*
X97369Y-31495D01*
X97395Y-31520D01*
X97395Y-31607D01*
X97376Y-31614D01*
X97339Y-31651D01*
X97320Y-31699D01*
X97319Y-31750D01*
X97319Y-32300D01*
X97339Y-32348D01*
X97376Y-32385D01*
X97424Y-32404D01*
X97475Y-32405D01*
X97825Y-32405D01*
X97873Y-32385D01*
X97910Y-32348D01*
X97929Y-32300D01*
X97930Y-32249D01*
X97930Y-31699D01*
X97910Y-31651D01*
X97873Y-31614D01*
X97855Y-31607D01*
X97855Y-31425D01*
X97843Y-31365D01*
X97939Y-31404D01*
X98060Y-31405D01*
X98172Y-31358D01*
X98258Y-31272D01*
X98304Y-31160D01*
X98305Y-31039D01*
X98258Y-30927D01*
X98172Y-30841D01*
X98060Y-30795D01*
X97939Y-30794D01*
X97878Y-30820D01*
X97735Y-30820D01*
X97735Y-30709D01*
X97715Y-30661D01*
X97678Y-30624D01*
X97630Y-30605D01*
X97579Y-30604D01*
X97130Y-30604D01*
X96962Y-30437D01*
X96962Y-30437D01*
X96693Y-30167D01*
X96693Y-29791D01*
X96673Y-29743D01*
X96636Y-29706D01*
X96588Y-29687D01*
X96537Y-29686D01*
X96012Y-29686D01*
X95912Y-29587D01*
X95912Y-29587D01*
X95662Y-29337D01*
X95588Y-29287D01*
X95500Y-29270D01*
X95405Y-29270D01*
X95405Y-29249D01*
X95405Y-28699D01*
X95385Y-28651D01*
X95348Y-28614D01*
X95336Y-28609D01*
X95884Y-28609D01*
X95770Y-28656D01*
X95656Y-28770D01*
X95595Y-28919D01*
X95594Y-29080D01*
X95656Y-29229D01*
X95770Y-29343D01*
X95919Y-29404D01*
X96080Y-29405D01*
X96229Y-29343D01*
X96343Y-29229D01*
X96404Y-29080D01*
X96405Y-28919D01*
X96343Y-28770D01*
X96229Y-28656D01*
X96116Y-28609D01*
X96884Y-28609D01*
X96770Y-28656D01*
X96656Y-28770D01*
X96595Y-28919D01*
X96594Y-29080D01*
X96656Y-29229D01*
X96770Y-29343D01*
X96919Y-29404D01*
X97080Y-29405D01*
X97229Y-29343D01*
X97343Y-29229D01*
X97404Y-29080D01*
X97405Y-28919D01*
X97343Y-28770D01*
X97229Y-28656D01*
X97116Y-28609D01*
X98390Y-28609D01*
X98390Y-38884D01*
M02*
