G04 (created by PCBNEW (2013-june-11)-stable) date Wed 13 Aug 2014 10:13:30 AM PDT*
%MOIN*%
G04 Gerber Fmt 3.4, Leading zero omitted, Abs format*
%FSLAX34Y34*%
G01*
G70*
G90*
G04 APERTURE LIST*
%ADD10C,0.00590551*%
%ADD11C,0.012*%
%ADD12C,0.0028*%
%ADD13C,0.008*%
G04 APERTURE END LIST*
G54D10*
G54D11*
X81500Y-61500D02*
X86500Y-61500D01*
X86500Y-61500D02*
X86500Y-63500D01*
X86500Y-63500D02*
X81500Y-63500D01*
X81500Y-63500D02*
X81500Y-61500D01*
X85500Y-61480D02*
X85500Y-59500D01*
X85500Y-59500D02*
X86500Y-59500D01*
X86500Y-59500D02*
X86500Y-61500D01*
X86500Y-61500D02*
X85500Y-61500D01*
X85750Y-61500D02*
X85500Y-61250D01*
G54D12*
X85850Y-60600D02*
X85850Y-60800D01*
X85850Y-60800D02*
X86150Y-60800D01*
X86150Y-60800D02*
X86150Y-60600D01*
X85850Y-60400D02*
X85850Y-60200D01*
X85850Y-60200D02*
X86150Y-60200D01*
X86150Y-60200D02*
X86150Y-60400D01*
X81850Y-60600D02*
X81850Y-60800D01*
X81850Y-60800D02*
X82150Y-60800D01*
X82150Y-60800D02*
X82150Y-60600D01*
X81850Y-60400D02*
X81850Y-60200D01*
X81850Y-60200D02*
X82150Y-60200D01*
X82150Y-60200D02*
X82150Y-60400D01*
G54D13*
X85500Y-61500D02*
X82500Y-61500D01*
X82500Y-59500D02*
X85500Y-59500D01*
X85500Y-59500D02*
X85500Y-61500D01*
X82500Y-61500D02*
X82500Y-59500D01*
G54D11*
X81500Y-61480D02*
X81500Y-59500D01*
X81500Y-59500D02*
X82500Y-59500D01*
X82500Y-59500D02*
X82500Y-61500D01*
X82500Y-61500D02*
X81500Y-61500D01*
X81750Y-61500D02*
X81500Y-61250D01*
M02*
