G04 (created by PCBNEW (2013-june-11)-stable) date Tue 27 May 2014 12:55:06 PM PDT*
%MOIN*%
G04 Gerber Fmt 3.4, Leading zero omitted, Abs format*
%FSLAX34Y34*%
G01*
G70*
G90*
G04 APERTURE LIST*
%ADD10C,0.00590551*%
%ADD11R,0.06X0.06*%
%ADD12C,0.06*%
%ADD13C,0.055*%
%ADD14C,0.01*%
G04 APERTURE END LIST*
G54D10*
G54D11*
X82000Y-63000D03*
G54D12*
X82000Y-62000D03*
X83000Y-63000D03*
X83000Y-62000D03*
X84000Y-63000D03*
X84000Y-62000D03*
X85000Y-63000D03*
X85000Y-62000D03*
X86000Y-63000D03*
X86000Y-62000D03*
G54D13*
X82000Y-60000D03*
X82000Y-61000D03*
G54D11*
X85000Y-61000D03*
G54D12*
X85000Y-60000D03*
X84000Y-61000D03*
X84000Y-60000D03*
X83000Y-61000D03*
X83000Y-60000D03*
G54D13*
X86000Y-60000D03*
X86000Y-61000D03*
G54D14*
X85000Y-61000D02*
X86000Y-60000D01*
X83000Y-62000D02*
X83500Y-61500D01*
X84500Y-61500D02*
X85000Y-61000D01*
X83500Y-61500D02*
X84500Y-61500D01*
X82000Y-61000D02*
X83000Y-60000D01*
X82000Y-62000D02*
X82500Y-62500D01*
X85500Y-61500D02*
X86000Y-61000D01*
X85500Y-62500D02*
X85500Y-61500D01*
X84000Y-62500D02*
X85500Y-62500D01*
X82500Y-62500D02*
X84000Y-62500D01*
M02*
