G04 (created by PCBNEW (2013-june-11)-stable) date Fri 01 Aug 2014 05:27:08 PM PDT*
%MOIN*%
G04 Gerber Fmt 3.4, Leading zero omitted, Abs format*
%FSLAX34Y34*%
G01*
G70*
G90*
G04 APERTURE LIST*
%ADD10C,0.00590551*%
%ADD11R,0.0551X0.0236*%
%ADD12R,0.06X0.06*%
%ADD13C,0.06*%
%ADD14C,0.035*%
%ADD15C,0.02*%
G04 APERTURE END LIST*
G54D10*
G54D11*
X58050Y-25750D03*
X55950Y-25750D03*
X58050Y-26250D03*
X58050Y-26750D03*
X58050Y-27250D03*
X55950Y-26250D03*
X55950Y-26750D03*
X55950Y-27250D03*
G54D12*
X56000Y-25000D03*
G54D13*
X57000Y-25000D03*
X58000Y-25000D03*
G54D12*
X58000Y-28000D03*
G54D13*
X57000Y-28000D03*
X56000Y-28000D03*
G54D14*
X56600Y-26400D03*
X57400Y-26400D03*
G54D15*
X55950Y-26750D02*
X56250Y-26750D01*
X56600Y-25400D02*
X57000Y-25000D01*
X56600Y-26400D02*
X56600Y-25400D01*
X56250Y-26750D02*
X56600Y-26400D01*
X55950Y-27250D02*
X56350Y-27250D01*
X57800Y-25000D02*
X58000Y-25000D01*
X57000Y-25800D02*
X57800Y-25000D01*
X57000Y-26600D02*
X57000Y-25800D01*
X56350Y-27250D02*
X57000Y-26600D01*
X58000Y-28000D02*
X58000Y-27300D01*
X58000Y-27300D02*
X58050Y-27250D01*
X56000Y-28000D02*
X56200Y-28000D01*
X57550Y-26250D02*
X58050Y-26250D01*
X57400Y-26400D02*
X57550Y-26250D01*
X57400Y-26800D02*
X57400Y-26400D01*
X56200Y-28000D02*
X57400Y-26800D01*
X55950Y-25750D02*
X55950Y-25050D01*
X55950Y-25050D02*
X56000Y-25000D01*
M02*
