G04 (created by PCBNEW (2013-june-11)-stable) date Sat 02 Aug 2014 06:39:51 PM PDT*
%MOIN*%
G04 Gerber Fmt 3.4, Leading zero omitted, Abs format*
%FSLAX34Y34*%
G01*
G70*
G90*
G04 APERTURE LIST*
%ADD10C,0.00590551*%
%ADD11C,0.0047*%
%ADD12C,0.005*%
%ADD13C,0.0045*%
G04 APERTURE END LIST*
G54D10*
G54D11*
X56697Y-25494D02*
X56972Y-25494D01*
X56303Y-25494D02*
X56028Y-25494D01*
X56697Y-26006D02*
X56972Y-26006D01*
X56028Y-26006D02*
X56303Y-26006D01*
X56972Y-26000D02*
X56972Y-25500D01*
X56028Y-25500D02*
X56028Y-26000D01*
G54D12*
X56120Y-26150D02*
G75*
G03X56120Y-26150I-70J0D01*
G74*
G01*
X56700Y-27300D02*
X56100Y-27300D01*
X56100Y-27300D02*
X56100Y-26200D01*
X56100Y-26200D02*
X56700Y-26200D01*
X57300Y-26200D02*
X57900Y-26200D01*
X57900Y-26200D02*
X57900Y-27300D01*
X57900Y-27300D02*
X57300Y-27300D01*
G54D13*
X56561Y-25720D02*
X56571Y-25711D01*
X56580Y-25685D01*
X56580Y-25668D01*
X56571Y-25642D01*
X56552Y-25625D01*
X56533Y-25617D01*
X56495Y-25608D01*
X56466Y-25608D01*
X56428Y-25617D01*
X56409Y-25625D01*
X56390Y-25642D01*
X56380Y-25668D01*
X56380Y-25685D01*
X56390Y-25711D01*
X56400Y-25720D01*
X56580Y-25891D02*
X56580Y-25788D01*
X56580Y-25840D02*
X56380Y-25840D01*
X56409Y-25822D01*
X56428Y-25805D01*
X56438Y-25788D01*
G54D12*
X57121Y-26700D02*
X56978Y-26600D01*
X57121Y-26528D02*
X56821Y-26528D01*
X56821Y-26642D01*
X56835Y-26671D01*
X56850Y-26685D01*
X56878Y-26700D01*
X56921Y-26700D01*
X56950Y-26685D01*
X56964Y-26671D01*
X56978Y-26642D01*
X56978Y-26528D01*
X57121Y-26985D02*
X57121Y-26814D01*
X57121Y-26900D02*
X56821Y-26900D01*
X56864Y-26871D01*
X56892Y-26842D01*
X56907Y-26814D01*
M02*
