G04 (created by PCBNEW (2013-june-11)-stable) date Sat 19 Jul 2014 02:35:51 PM PDT*
%MOIN*%
G04 Gerber Fmt 3.4, Leading zero omitted, Abs format*
%FSLAX34Y34*%
G01*
G70*
G90*
G04 APERTURE LIST*
%ADD10C,0.00590551*%
%ADD11C,0.005*%
%ADD12C,0.0028*%
%ADD13R,0.025X0.045*%
%ADD14R,0.0236X0.0157*%
%ADD15R,0.06X0.06*%
%ADD16C,0.06*%
%ADD17R,0.0275X0.0315*%
%ADD18C,0.0122047*%
%ADD19R,0.071X0.063*%
%ADD20R,0.0315X0.0275*%
G04 APERTURE END LIST*
G54D10*
G54D11*
X85900Y-27350D02*
X85000Y-27350D01*
X85000Y-27350D02*
X85000Y-26850D01*
X85000Y-26850D02*
X85900Y-26850D01*
X85900Y-26850D02*
X85900Y-27350D01*
X86100Y-26850D02*
X87000Y-26850D01*
X87000Y-26850D02*
X87000Y-27350D01*
X87000Y-27350D02*
X86100Y-27350D01*
X86100Y-27350D02*
X86100Y-26850D01*
G54D12*
X85320Y-26600D02*
X85320Y-26800D01*
X85320Y-26800D02*
X85620Y-26800D01*
X85620Y-26800D02*
X85620Y-26600D01*
X85320Y-26400D02*
X85320Y-26200D01*
X85320Y-26200D02*
X85620Y-26200D01*
X85620Y-26200D02*
X85620Y-26400D01*
X86350Y-26600D02*
X86350Y-26800D01*
X86350Y-26800D02*
X86650Y-26800D01*
X86650Y-26800D02*
X86650Y-26600D01*
X86350Y-26400D02*
X86350Y-26200D01*
X86350Y-26200D02*
X86650Y-26200D01*
X86650Y-26200D02*
X86650Y-26400D01*
G54D11*
X87590Y-26270D02*
X87810Y-26270D01*
X87590Y-26530D02*
X87810Y-26530D01*
X87590Y-26610D02*
X87810Y-26610D01*
X87810Y-26610D02*
X87810Y-26190D01*
X87810Y-26190D02*
X87590Y-26190D01*
X87590Y-26190D02*
X87590Y-26610D01*
X87190Y-26270D02*
X87410Y-26270D01*
X87190Y-26530D02*
X87410Y-26530D01*
X87190Y-26610D02*
X87410Y-26610D01*
X87410Y-26610D02*
X87410Y-26190D01*
X87410Y-26190D02*
X87190Y-26190D01*
X87190Y-26190D02*
X87190Y-26610D01*
X85210Y-26530D02*
X84990Y-26530D01*
X85210Y-26270D02*
X84990Y-26270D01*
X85210Y-26190D02*
X84990Y-26190D01*
X84990Y-26190D02*
X84990Y-26610D01*
X84990Y-26610D02*
X85210Y-26610D01*
X85210Y-26610D02*
X85210Y-26190D01*
X87010Y-26530D02*
X86790Y-26530D01*
X87010Y-26270D02*
X86790Y-26270D01*
X87010Y-26190D02*
X86790Y-26190D01*
X86790Y-26190D02*
X86790Y-26610D01*
X86790Y-26610D02*
X87010Y-26610D01*
X87010Y-26610D02*
X87010Y-26190D01*
G54D10*
X85724Y-26775D02*
X86275Y-26775D01*
X86275Y-26775D02*
X86275Y-26303D01*
X86275Y-26303D02*
X86196Y-26224D01*
X86196Y-26224D02*
X85724Y-26224D01*
X85724Y-26224D02*
X85724Y-26775D01*
G54D11*
X84820Y-26050D02*
X84180Y-26050D01*
X84180Y-26950D02*
X84820Y-26950D01*
X84180Y-27130D02*
X84820Y-27130D01*
X84820Y-27130D02*
X84820Y-25870D01*
X84820Y-25870D02*
X84180Y-25870D01*
X84180Y-25870D02*
X84180Y-27130D01*
X85870Y-26110D02*
X85870Y-25890D01*
X86130Y-26110D02*
X86130Y-25890D01*
X86210Y-26110D02*
X86210Y-25890D01*
X86210Y-25890D02*
X85790Y-25890D01*
X85790Y-25890D02*
X85790Y-26110D01*
X85790Y-26110D02*
X86210Y-26110D01*
%LPC*%
G54D13*
X85750Y-27100D03*
X85150Y-27100D03*
X86250Y-27100D03*
X86850Y-27100D03*
G54D14*
X85470Y-26677D03*
X85470Y-26323D03*
X86500Y-26677D03*
X86500Y-26323D03*
G54D15*
X84500Y-25000D03*
G54D16*
X85500Y-25000D03*
X86500Y-25000D03*
X87500Y-25000D03*
G54D15*
X84500Y-28000D03*
G54D16*
X85500Y-28000D03*
X86500Y-28000D03*
X87500Y-28000D03*
G54D17*
X87700Y-26184D03*
X87700Y-26616D03*
X87300Y-26184D03*
X87300Y-26616D03*
X85100Y-26616D03*
X85100Y-26184D03*
X86900Y-26616D03*
X86900Y-26184D03*
G54D18*
X86157Y-26657D03*
X86000Y-26342D03*
X85842Y-26342D03*
X85842Y-26500D03*
X85842Y-26657D03*
X86000Y-26657D03*
X86157Y-26500D03*
X86157Y-26342D03*
X86000Y-26500D03*
G54D19*
X84500Y-25950D03*
X84500Y-27050D03*
G54D20*
X85784Y-26000D03*
X86216Y-26000D03*
M02*
