G04 (created by PCBNEW (2013-june-11)-stable) date Sat 19 Jul 2014 08:14:21 AM PDT*
%MOIN*%
G04 Gerber Fmt 3.4, Leading zero omitted, Abs format*
%FSLAX34Y34*%
G01*
G70*
G90*
G04 APERTURE LIST*
%ADD10C,0.00590551*%
%ADD11R,0.06X0.06*%
%ADD12C,0.06*%
%ADD13C,0.018*%
%ADD14C,0.027*%
%ADD15C,0.006*%
G04 APERTURE END LIST*
G54D10*
G54D11*
X84500Y-25000D03*
G54D12*
X85500Y-25000D03*
X86500Y-25000D03*
X87500Y-25000D03*
G54D11*
X84500Y-28000D03*
G54D12*
X85500Y-28000D03*
X86500Y-28000D03*
X87500Y-28000D03*
G54D13*
X85720Y-26500D03*
X86280Y-26500D03*
X86000Y-26780D03*
G54D14*
X84500Y-26500D03*
X86500Y-26000D03*
X85100Y-25800D03*
X85500Y-26000D03*
G54D13*
X85470Y-26550D03*
X87700Y-27000D03*
X86510Y-26550D03*
X87300Y-27000D03*
G54D10*
G36*
X87890Y-28390D02*
X87532Y-28390D01*
X87605Y-28377D01*
X87676Y-28349D01*
X87741Y-28308D01*
X87796Y-28256D01*
X87840Y-28193D01*
X87871Y-28123D01*
X87888Y-28049D01*
X87890Y-27961D01*
X87890Y-24961D01*
X87875Y-24886D01*
X87846Y-24816D01*
X87803Y-24752D01*
X87749Y-24698D01*
X87686Y-24655D01*
X87615Y-24625D01*
X87540Y-24610D01*
X87464Y-24609D01*
X87389Y-24624D01*
X87318Y-24652D01*
X87254Y-24694D01*
X87199Y-24748D01*
X87156Y-24811D01*
X87126Y-24881D01*
X87110Y-24956D01*
X87109Y-25032D01*
X87123Y-25108D01*
X87151Y-25179D01*
X87192Y-25243D01*
X87246Y-25298D01*
X87308Y-25342D01*
X87378Y-25372D01*
X87453Y-25389D01*
X87530Y-25390D01*
X87605Y-25377D01*
X87676Y-25349D01*
X87741Y-25308D01*
X87796Y-25256D01*
X87840Y-25193D01*
X87871Y-25123D01*
X87888Y-25049D01*
X87890Y-24961D01*
X87890Y-27961D01*
X87880Y-27911D01*
X87880Y-26982D01*
X87873Y-26947D01*
X87859Y-26915D01*
X87840Y-26885D01*
X87815Y-26860D01*
X87786Y-26840D01*
X87753Y-26827D01*
X87718Y-26820D01*
X87683Y-26819D01*
X87648Y-26826D01*
X87616Y-26839D01*
X87586Y-26859D01*
X87561Y-26883D01*
X87541Y-26912D01*
X87527Y-26945D01*
X87520Y-26979D01*
X87519Y-27015D01*
X87526Y-27049D01*
X87539Y-27082D01*
X87558Y-27112D01*
X87582Y-27137D01*
X87611Y-27157D01*
X87644Y-27172D01*
X87678Y-27179D01*
X87713Y-27180D01*
X87748Y-27174D01*
X87781Y-27161D01*
X87811Y-27142D01*
X87836Y-27118D01*
X87857Y-27089D01*
X87871Y-27057D01*
X87879Y-27022D01*
X87880Y-26982D01*
X87880Y-27911D01*
X87875Y-27886D01*
X87846Y-27816D01*
X87803Y-27752D01*
X87749Y-27698D01*
X87686Y-27655D01*
X87615Y-27625D01*
X87540Y-27610D01*
X87480Y-27609D01*
X87480Y-26982D01*
X87473Y-26947D01*
X87459Y-26915D01*
X87440Y-26885D01*
X87415Y-26860D01*
X87386Y-26840D01*
X87353Y-26827D01*
X87318Y-26820D01*
X87283Y-26819D01*
X87248Y-26826D01*
X87216Y-26839D01*
X87186Y-26859D01*
X87161Y-26883D01*
X87141Y-26912D01*
X87127Y-26945D01*
X87120Y-26979D01*
X87119Y-27015D01*
X87126Y-27049D01*
X87139Y-27082D01*
X87158Y-27112D01*
X87182Y-27137D01*
X87211Y-27157D01*
X87244Y-27172D01*
X87278Y-27179D01*
X87313Y-27180D01*
X87348Y-27174D01*
X87381Y-27161D01*
X87411Y-27142D01*
X87436Y-27118D01*
X87457Y-27089D01*
X87471Y-27057D01*
X87479Y-27022D01*
X87480Y-26982D01*
X87480Y-27609D01*
X87464Y-27609D01*
X87389Y-27624D01*
X87318Y-27652D01*
X87254Y-27694D01*
X87199Y-27748D01*
X87156Y-27811D01*
X87126Y-27881D01*
X87110Y-27956D01*
X87109Y-28032D01*
X87123Y-28108D01*
X87151Y-28179D01*
X87192Y-28243D01*
X87246Y-28298D01*
X87308Y-28342D01*
X87378Y-28372D01*
X87453Y-28389D01*
X87510Y-28390D01*
X86532Y-28390D01*
X86605Y-28377D01*
X86676Y-28349D01*
X86741Y-28308D01*
X86796Y-28256D01*
X86840Y-28193D01*
X86871Y-28123D01*
X86888Y-28049D01*
X86890Y-27961D01*
X86890Y-24961D01*
X86875Y-24886D01*
X86846Y-24816D01*
X86803Y-24752D01*
X86749Y-24698D01*
X86686Y-24655D01*
X86615Y-24625D01*
X86540Y-24610D01*
X86464Y-24609D01*
X86389Y-24624D01*
X86318Y-24652D01*
X86254Y-24694D01*
X86199Y-24748D01*
X86156Y-24811D01*
X86126Y-24881D01*
X86110Y-24956D01*
X86109Y-25032D01*
X86123Y-25108D01*
X86151Y-25179D01*
X86192Y-25243D01*
X86246Y-25298D01*
X86308Y-25342D01*
X86378Y-25372D01*
X86453Y-25389D01*
X86530Y-25390D01*
X86605Y-25377D01*
X86676Y-25349D01*
X86741Y-25308D01*
X86796Y-25256D01*
X86840Y-25193D01*
X86871Y-25123D01*
X86888Y-25049D01*
X86890Y-24961D01*
X86890Y-27961D01*
X86875Y-27886D01*
X86846Y-27816D01*
X86803Y-27752D01*
X86749Y-27698D01*
X86725Y-27681D01*
X86725Y-25977D01*
X86716Y-25934D01*
X86699Y-25893D01*
X86675Y-25857D01*
X86644Y-25825D01*
X86607Y-25801D01*
X86566Y-25784D01*
X86523Y-25775D01*
X86479Y-25774D01*
X86436Y-25783D01*
X86395Y-25799D01*
X86358Y-25823D01*
X86326Y-25854D01*
X86301Y-25891D01*
X86284Y-25931D01*
X86275Y-25974D01*
X86274Y-26018D01*
X86282Y-26062D01*
X86298Y-26103D01*
X86322Y-26140D01*
X86353Y-26172D01*
X86389Y-26197D01*
X86430Y-26215D01*
X86473Y-26224D01*
X86517Y-26225D01*
X86560Y-26217D01*
X86601Y-26201D01*
X86639Y-26178D01*
X86671Y-26147D01*
X86696Y-26111D01*
X86714Y-26071D01*
X86724Y-26028D01*
X86725Y-25977D01*
X86725Y-27681D01*
X86690Y-27657D01*
X86690Y-26532D01*
X86683Y-26497D01*
X86669Y-26465D01*
X86650Y-26435D01*
X86625Y-26410D01*
X86596Y-26390D01*
X86563Y-26377D01*
X86528Y-26370D01*
X86493Y-26369D01*
X86458Y-26376D01*
X86426Y-26389D01*
X86423Y-26391D01*
X86420Y-26385D01*
X86395Y-26360D01*
X86366Y-26340D01*
X86333Y-26327D01*
X86298Y-26320D01*
X86263Y-26319D01*
X86228Y-26326D01*
X86196Y-26339D01*
X86166Y-26359D01*
X86141Y-26383D01*
X86121Y-26412D01*
X86107Y-26445D01*
X86100Y-26479D01*
X86099Y-26515D01*
X86106Y-26549D01*
X86119Y-26582D01*
X86138Y-26612D01*
X86162Y-26637D01*
X86191Y-26657D01*
X86224Y-26672D01*
X86258Y-26679D01*
X86293Y-26680D01*
X86328Y-26674D01*
X86361Y-26661D01*
X86365Y-26658D01*
X86368Y-26662D01*
X86392Y-26687D01*
X86421Y-26707D01*
X86454Y-26722D01*
X86488Y-26729D01*
X86523Y-26730D01*
X86558Y-26724D01*
X86591Y-26711D01*
X86621Y-26692D01*
X86646Y-26668D01*
X86667Y-26639D01*
X86681Y-26607D01*
X86689Y-26572D01*
X86690Y-26532D01*
X86690Y-27657D01*
X86686Y-27655D01*
X86615Y-27625D01*
X86540Y-27610D01*
X86464Y-27609D01*
X86389Y-27624D01*
X86318Y-27652D01*
X86254Y-27694D01*
X86199Y-27748D01*
X86180Y-27777D01*
X86180Y-26762D01*
X86173Y-26727D01*
X86159Y-26695D01*
X86140Y-26665D01*
X86115Y-26640D01*
X86086Y-26620D01*
X86053Y-26607D01*
X86018Y-26600D01*
X85983Y-26599D01*
X85948Y-26606D01*
X85916Y-26619D01*
X85900Y-26630D01*
X85900Y-26482D01*
X85893Y-26447D01*
X85890Y-26440D01*
X85890Y-24961D01*
X85875Y-24886D01*
X85846Y-24816D01*
X85803Y-24752D01*
X85749Y-24698D01*
X85686Y-24655D01*
X85615Y-24625D01*
X85540Y-24610D01*
X85464Y-24609D01*
X85389Y-24624D01*
X85318Y-24652D01*
X85254Y-24694D01*
X85199Y-24748D01*
X85156Y-24811D01*
X85126Y-24881D01*
X85110Y-24956D01*
X85109Y-25032D01*
X85123Y-25108D01*
X85151Y-25179D01*
X85192Y-25243D01*
X85246Y-25298D01*
X85308Y-25342D01*
X85378Y-25372D01*
X85453Y-25389D01*
X85530Y-25390D01*
X85605Y-25377D01*
X85676Y-25349D01*
X85741Y-25308D01*
X85796Y-25256D01*
X85840Y-25193D01*
X85871Y-25123D01*
X85888Y-25049D01*
X85890Y-24961D01*
X85890Y-26440D01*
X85879Y-26415D01*
X85860Y-26385D01*
X85835Y-26360D01*
X85806Y-26340D01*
X85773Y-26327D01*
X85738Y-26320D01*
X85703Y-26319D01*
X85668Y-26326D01*
X85636Y-26339D01*
X85606Y-26359D01*
X85581Y-26383D01*
X85570Y-26400D01*
X85556Y-26390D01*
X85523Y-26377D01*
X85488Y-26370D01*
X85453Y-26369D01*
X85418Y-26376D01*
X85386Y-26389D01*
X85356Y-26409D01*
X85331Y-26433D01*
X85325Y-26443D01*
X85325Y-25777D01*
X85316Y-25734D01*
X85299Y-25693D01*
X85275Y-25657D01*
X85244Y-25625D01*
X85207Y-25601D01*
X85166Y-25584D01*
X85123Y-25575D01*
X85079Y-25574D01*
X85036Y-25583D01*
X84995Y-25599D01*
X84958Y-25623D01*
X84926Y-25654D01*
X84901Y-25691D01*
X84890Y-25718D01*
X84890Y-25291D01*
X84890Y-24708D01*
X84889Y-24690D01*
X84886Y-24673D01*
X84879Y-24656D01*
X84869Y-24642D01*
X84857Y-24629D01*
X84842Y-24620D01*
X84826Y-24613D01*
X84808Y-24609D01*
X84592Y-24610D01*
X84570Y-24632D01*
X84570Y-24930D01*
X84867Y-24930D01*
X84890Y-24907D01*
X84890Y-24708D01*
X84890Y-25291D01*
X84890Y-25092D01*
X84867Y-25070D01*
X84570Y-25070D01*
X84570Y-25367D01*
X84592Y-25390D01*
X84808Y-25390D01*
X84826Y-25386D01*
X84842Y-25379D01*
X84857Y-25370D01*
X84869Y-25357D01*
X84879Y-25343D01*
X84886Y-25326D01*
X84889Y-25309D01*
X84890Y-25291D01*
X84890Y-25718D01*
X84884Y-25731D01*
X84875Y-25774D01*
X84874Y-25818D01*
X84882Y-25862D01*
X84898Y-25903D01*
X84922Y-25940D01*
X84953Y-25972D01*
X84989Y-25997D01*
X85030Y-26015D01*
X85073Y-26024D01*
X85117Y-26025D01*
X85160Y-26017D01*
X85201Y-26001D01*
X85239Y-25978D01*
X85271Y-25947D01*
X85296Y-25911D01*
X85314Y-25871D01*
X85324Y-25828D01*
X85325Y-25777D01*
X85325Y-26443D01*
X85311Y-26462D01*
X85297Y-26495D01*
X85290Y-26529D01*
X85289Y-26565D01*
X85296Y-26599D01*
X85309Y-26632D01*
X85328Y-26662D01*
X85352Y-26687D01*
X85381Y-26707D01*
X85414Y-26722D01*
X85448Y-26729D01*
X85483Y-26730D01*
X85518Y-26724D01*
X85551Y-26711D01*
X85581Y-26692D01*
X85606Y-26668D01*
X85619Y-26649D01*
X85631Y-26657D01*
X85664Y-26672D01*
X85698Y-26679D01*
X85733Y-26680D01*
X85768Y-26674D01*
X85801Y-26661D01*
X85831Y-26642D01*
X85856Y-26618D01*
X85877Y-26589D01*
X85891Y-26557D01*
X85899Y-26522D01*
X85900Y-26482D01*
X85900Y-26630D01*
X85886Y-26639D01*
X85861Y-26663D01*
X85841Y-26692D01*
X85827Y-26725D01*
X85820Y-26759D01*
X85819Y-26795D01*
X85826Y-26829D01*
X85839Y-26862D01*
X85858Y-26892D01*
X85882Y-26917D01*
X85911Y-26937D01*
X85944Y-26952D01*
X85978Y-26959D01*
X86013Y-26960D01*
X86048Y-26954D01*
X86081Y-26941D01*
X86111Y-26922D01*
X86136Y-26898D01*
X86157Y-26869D01*
X86171Y-26837D01*
X86179Y-26802D01*
X86180Y-26762D01*
X86180Y-27777D01*
X86156Y-27811D01*
X86126Y-27881D01*
X86110Y-27956D01*
X86109Y-28032D01*
X86123Y-28108D01*
X86151Y-28179D01*
X86192Y-28243D01*
X86246Y-28298D01*
X86308Y-28342D01*
X86378Y-28372D01*
X86453Y-28389D01*
X86510Y-28390D01*
X85532Y-28390D01*
X85605Y-28377D01*
X85676Y-28349D01*
X85741Y-28308D01*
X85796Y-28256D01*
X85840Y-28193D01*
X85871Y-28123D01*
X85888Y-28049D01*
X85890Y-27961D01*
X85875Y-27886D01*
X85846Y-27816D01*
X85803Y-27752D01*
X85749Y-27698D01*
X85686Y-27655D01*
X85615Y-27625D01*
X85540Y-27610D01*
X85464Y-27609D01*
X85389Y-27624D01*
X85318Y-27652D01*
X85254Y-27694D01*
X85199Y-27748D01*
X85156Y-27811D01*
X85126Y-27881D01*
X85110Y-27956D01*
X85109Y-28032D01*
X85123Y-28108D01*
X85151Y-28179D01*
X85192Y-28243D01*
X85246Y-28298D01*
X85308Y-28342D01*
X85378Y-28372D01*
X85453Y-28389D01*
X85510Y-28390D01*
X84890Y-28390D01*
X84890Y-28291D01*
X84890Y-27691D01*
X84886Y-27673D01*
X84879Y-27657D01*
X84870Y-27642D01*
X84857Y-27630D01*
X84843Y-27620D01*
X84826Y-27613D01*
X84809Y-27610D01*
X84791Y-27609D01*
X84725Y-27609D01*
X84725Y-26477D01*
X84716Y-26434D01*
X84699Y-26393D01*
X84675Y-26357D01*
X84644Y-26325D01*
X84607Y-26301D01*
X84566Y-26284D01*
X84523Y-26275D01*
X84479Y-26274D01*
X84436Y-26283D01*
X84430Y-26285D01*
X84430Y-25367D01*
X84430Y-25070D01*
X84430Y-24930D01*
X84430Y-24632D01*
X84407Y-24610D01*
X84191Y-24609D01*
X84173Y-24613D01*
X84157Y-24620D01*
X84142Y-24629D01*
X84130Y-24642D01*
X84120Y-24656D01*
X84113Y-24673D01*
X84110Y-24690D01*
X84109Y-24708D01*
X84110Y-24907D01*
X84132Y-24930D01*
X84430Y-24930D01*
X84430Y-25070D01*
X84132Y-25070D01*
X84110Y-25092D01*
X84109Y-25291D01*
X84110Y-25309D01*
X84113Y-25326D01*
X84120Y-25343D01*
X84130Y-25357D01*
X84142Y-25370D01*
X84157Y-25379D01*
X84173Y-25386D01*
X84191Y-25390D01*
X84407Y-25390D01*
X84430Y-25367D01*
X84430Y-26285D01*
X84395Y-26299D01*
X84358Y-26323D01*
X84326Y-26354D01*
X84301Y-26391D01*
X84284Y-26431D01*
X84275Y-26474D01*
X84274Y-26518D01*
X84282Y-26562D01*
X84298Y-26603D01*
X84322Y-26640D01*
X84353Y-26672D01*
X84389Y-26697D01*
X84430Y-26715D01*
X84473Y-26724D01*
X84517Y-26725D01*
X84560Y-26717D01*
X84601Y-26701D01*
X84639Y-26678D01*
X84671Y-26647D01*
X84696Y-26611D01*
X84714Y-26571D01*
X84724Y-26528D01*
X84725Y-26477D01*
X84725Y-27609D01*
X84191Y-27609D01*
X84173Y-27613D01*
X84157Y-27620D01*
X84142Y-27629D01*
X84130Y-27642D01*
X84120Y-27656D01*
X84113Y-27673D01*
X84110Y-27690D01*
X84109Y-27708D01*
X84109Y-28308D01*
X84113Y-28326D01*
X84120Y-28342D01*
X84129Y-28357D01*
X84142Y-28369D01*
X84156Y-28379D01*
X84173Y-28386D01*
X84190Y-28389D01*
X84208Y-28390D01*
X84808Y-28390D01*
X84826Y-28386D01*
X84842Y-28379D01*
X84857Y-28370D01*
X84869Y-28357D01*
X84879Y-28343D01*
X84886Y-28326D01*
X84889Y-28309D01*
X84890Y-28291D01*
X84890Y-28390D01*
X84109Y-28390D01*
X84109Y-24609D01*
X87890Y-24609D01*
X87890Y-28390D01*
X87890Y-28390D01*
G37*
G54D15*
X87890Y-28390D02*
X87532Y-28390D01*
X87605Y-28377D01*
X87676Y-28349D01*
X87741Y-28308D01*
X87796Y-28256D01*
X87840Y-28193D01*
X87871Y-28123D01*
X87888Y-28049D01*
X87890Y-27961D01*
X87890Y-24961D01*
X87875Y-24886D01*
X87846Y-24816D01*
X87803Y-24752D01*
X87749Y-24698D01*
X87686Y-24655D01*
X87615Y-24625D01*
X87540Y-24610D01*
X87464Y-24609D01*
X87389Y-24624D01*
X87318Y-24652D01*
X87254Y-24694D01*
X87199Y-24748D01*
X87156Y-24811D01*
X87126Y-24881D01*
X87110Y-24956D01*
X87109Y-25032D01*
X87123Y-25108D01*
X87151Y-25179D01*
X87192Y-25243D01*
X87246Y-25298D01*
X87308Y-25342D01*
X87378Y-25372D01*
X87453Y-25389D01*
X87530Y-25390D01*
X87605Y-25377D01*
X87676Y-25349D01*
X87741Y-25308D01*
X87796Y-25256D01*
X87840Y-25193D01*
X87871Y-25123D01*
X87888Y-25049D01*
X87890Y-24961D01*
X87890Y-27961D01*
X87880Y-27911D01*
X87880Y-26982D01*
X87873Y-26947D01*
X87859Y-26915D01*
X87840Y-26885D01*
X87815Y-26860D01*
X87786Y-26840D01*
X87753Y-26827D01*
X87718Y-26820D01*
X87683Y-26819D01*
X87648Y-26826D01*
X87616Y-26839D01*
X87586Y-26859D01*
X87561Y-26883D01*
X87541Y-26912D01*
X87527Y-26945D01*
X87520Y-26979D01*
X87519Y-27015D01*
X87526Y-27049D01*
X87539Y-27082D01*
X87558Y-27112D01*
X87582Y-27137D01*
X87611Y-27157D01*
X87644Y-27172D01*
X87678Y-27179D01*
X87713Y-27180D01*
X87748Y-27174D01*
X87781Y-27161D01*
X87811Y-27142D01*
X87836Y-27118D01*
X87857Y-27089D01*
X87871Y-27057D01*
X87879Y-27022D01*
X87880Y-26982D01*
X87880Y-27911D01*
X87875Y-27886D01*
X87846Y-27816D01*
X87803Y-27752D01*
X87749Y-27698D01*
X87686Y-27655D01*
X87615Y-27625D01*
X87540Y-27610D01*
X87480Y-27609D01*
X87480Y-26982D01*
X87473Y-26947D01*
X87459Y-26915D01*
X87440Y-26885D01*
X87415Y-26860D01*
X87386Y-26840D01*
X87353Y-26827D01*
X87318Y-26820D01*
X87283Y-26819D01*
X87248Y-26826D01*
X87216Y-26839D01*
X87186Y-26859D01*
X87161Y-26883D01*
X87141Y-26912D01*
X87127Y-26945D01*
X87120Y-26979D01*
X87119Y-27015D01*
X87126Y-27049D01*
X87139Y-27082D01*
X87158Y-27112D01*
X87182Y-27137D01*
X87211Y-27157D01*
X87244Y-27172D01*
X87278Y-27179D01*
X87313Y-27180D01*
X87348Y-27174D01*
X87381Y-27161D01*
X87411Y-27142D01*
X87436Y-27118D01*
X87457Y-27089D01*
X87471Y-27057D01*
X87479Y-27022D01*
X87480Y-26982D01*
X87480Y-27609D01*
X87464Y-27609D01*
X87389Y-27624D01*
X87318Y-27652D01*
X87254Y-27694D01*
X87199Y-27748D01*
X87156Y-27811D01*
X87126Y-27881D01*
X87110Y-27956D01*
X87109Y-28032D01*
X87123Y-28108D01*
X87151Y-28179D01*
X87192Y-28243D01*
X87246Y-28298D01*
X87308Y-28342D01*
X87378Y-28372D01*
X87453Y-28389D01*
X87510Y-28390D01*
X86532Y-28390D01*
X86605Y-28377D01*
X86676Y-28349D01*
X86741Y-28308D01*
X86796Y-28256D01*
X86840Y-28193D01*
X86871Y-28123D01*
X86888Y-28049D01*
X86890Y-27961D01*
X86890Y-24961D01*
X86875Y-24886D01*
X86846Y-24816D01*
X86803Y-24752D01*
X86749Y-24698D01*
X86686Y-24655D01*
X86615Y-24625D01*
X86540Y-24610D01*
X86464Y-24609D01*
X86389Y-24624D01*
X86318Y-24652D01*
X86254Y-24694D01*
X86199Y-24748D01*
X86156Y-24811D01*
X86126Y-24881D01*
X86110Y-24956D01*
X86109Y-25032D01*
X86123Y-25108D01*
X86151Y-25179D01*
X86192Y-25243D01*
X86246Y-25298D01*
X86308Y-25342D01*
X86378Y-25372D01*
X86453Y-25389D01*
X86530Y-25390D01*
X86605Y-25377D01*
X86676Y-25349D01*
X86741Y-25308D01*
X86796Y-25256D01*
X86840Y-25193D01*
X86871Y-25123D01*
X86888Y-25049D01*
X86890Y-24961D01*
X86890Y-27961D01*
X86875Y-27886D01*
X86846Y-27816D01*
X86803Y-27752D01*
X86749Y-27698D01*
X86725Y-27681D01*
X86725Y-25977D01*
X86716Y-25934D01*
X86699Y-25893D01*
X86675Y-25857D01*
X86644Y-25825D01*
X86607Y-25801D01*
X86566Y-25784D01*
X86523Y-25775D01*
X86479Y-25774D01*
X86436Y-25783D01*
X86395Y-25799D01*
X86358Y-25823D01*
X86326Y-25854D01*
X86301Y-25891D01*
X86284Y-25931D01*
X86275Y-25974D01*
X86274Y-26018D01*
X86282Y-26062D01*
X86298Y-26103D01*
X86322Y-26140D01*
X86353Y-26172D01*
X86389Y-26197D01*
X86430Y-26215D01*
X86473Y-26224D01*
X86517Y-26225D01*
X86560Y-26217D01*
X86601Y-26201D01*
X86639Y-26178D01*
X86671Y-26147D01*
X86696Y-26111D01*
X86714Y-26071D01*
X86724Y-26028D01*
X86725Y-25977D01*
X86725Y-27681D01*
X86690Y-27657D01*
X86690Y-26532D01*
X86683Y-26497D01*
X86669Y-26465D01*
X86650Y-26435D01*
X86625Y-26410D01*
X86596Y-26390D01*
X86563Y-26377D01*
X86528Y-26370D01*
X86493Y-26369D01*
X86458Y-26376D01*
X86426Y-26389D01*
X86423Y-26391D01*
X86420Y-26385D01*
X86395Y-26360D01*
X86366Y-26340D01*
X86333Y-26327D01*
X86298Y-26320D01*
X86263Y-26319D01*
X86228Y-26326D01*
X86196Y-26339D01*
X86166Y-26359D01*
X86141Y-26383D01*
X86121Y-26412D01*
X86107Y-26445D01*
X86100Y-26479D01*
X86099Y-26515D01*
X86106Y-26549D01*
X86119Y-26582D01*
X86138Y-26612D01*
X86162Y-26637D01*
X86191Y-26657D01*
X86224Y-26672D01*
X86258Y-26679D01*
X86293Y-26680D01*
X86328Y-26674D01*
X86361Y-26661D01*
X86365Y-26658D01*
X86368Y-26662D01*
X86392Y-26687D01*
X86421Y-26707D01*
X86454Y-26722D01*
X86488Y-26729D01*
X86523Y-26730D01*
X86558Y-26724D01*
X86591Y-26711D01*
X86621Y-26692D01*
X86646Y-26668D01*
X86667Y-26639D01*
X86681Y-26607D01*
X86689Y-26572D01*
X86690Y-26532D01*
X86690Y-27657D01*
X86686Y-27655D01*
X86615Y-27625D01*
X86540Y-27610D01*
X86464Y-27609D01*
X86389Y-27624D01*
X86318Y-27652D01*
X86254Y-27694D01*
X86199Y-27748D01*
X86180Y-27777D01*
X86180Y-26762D01*
X86173Y-26727D01*
X86159Y-26695D01*
X86140Y-26665D01*
X86115Y-26640D01*
X86086Y-26620D01*
X86053Y-26607D01*
X86018Y-26600D01*
X85983Y-26599D01*
X85948Y-26606D01*
X85916Y-26619D01*
X85900Y-26630D01*
X85900Y-26482D01*
X85893Y-26447D01*
X85890Y-26440D01*
X85890Y-24961D01*
X85875Y-24886D01*
X85846Y-24816D01*
X85803Y-24752D01*
X85749Y-24698D01*
X85686Y-24655D01*
X85615Y-24625D01*
X85540Y-24610D01*
X85464Y-24609D01*
X85389Y-24624D01*
X85318Y-24652D01*
X85254Y-24694D01*
X85199Y-24748D01*
X85156Y-24811D01*
X85126Y-24881D01*
X85110Y-24956D01*
X85109Y-25032D01*
X85123Y-25108D01*
X85151Y-25179D01*
X85192Y-25243D01*
X85246Y-25298D01*
X85308Y-25342D01*
X85378Y-25372D01*
X85453Y-25389D01*
X85530Y-25390D01*
X85605Y-25377D01*
X85676Y-25349D01*
X85741Y-25308D01*
X85796Y-25256D01*
X85840Y-25193D01*
X85871Y-25123D01*
X85888Y-25049D01*
X85890Y-24961D01*
X85890Y-26440D01*
X85879Y-26415D01*
X85860Y-26385D01*
X85835Y-26360D01*
X85806Y-26340D01*
X85773Y-26327D01*
X85738Y-26320D01*
X85703Y-26319D01*
X85668Y-26326D01*
X85636Y-26339D01*
X85606Y-26359D01*
X85581Y-26383D01*
X85570Y-26400D01*
X85556Y-26390D01*
X85523Y-26377D01*
X85488Y-26370D01*
X85453Y-26369D01*
X85418Y-26376D01*
X85386Y-26389D01*
X85356Y-26409D01*
X85331Y-26433D01*
X85325Y-26443D01*
X85325Y-25777D01*
X85316Y-25734D01*
X85299Y-25693D01*
X85275Y-25657D01*
X85244Y-25625D01*
X85207Y-25601D01*
X85166Y-25584D01*
X85123Y-25575D01*
X85079Y-25574D01*
X85036Y-25583D01*
X84995Y-25599D01*
X84958Y-25623D01*
X84926Y-25654D01*
X84901Y-25691D01*
X84890Y-25718D01*
X84890Y-25291D01*
X84890Y-24708D01*
X84889Y-24690D01*
X84886Y-24673D01*
X84879Y-24656D01*
X84869Y-24642D01*
X84857Y-24629D01*
X84842Y-24620D01*
X84826Y-24613D01*
X84808Y-24609D01*
X84592Y-24610D01*
X84570Y-24632D01*
X84570Y-24930D01*
X84867Y-24930D01*
X84890Y-24907D01*
X84890Y-24708D01*
X84890Y-25291D01*
X84890Y-25092D01*
X84867Y-25070D01*
X84570Y-25070D01*
X84570Y-25367D01*
X84592Y-25390D01*
X84808Y-25390D01*
X84826Y-25386D01*
X84842Y-25379D01*
X84857Y-25370D01*
X84869Y-25357D01*
X84879Y-25343D01*
X84886Y-25326D01*
X84889Y-25309D01*
X84890Y-25291D01*
X84890Y-25718D01*
X84884Y-25731D01*
X84875Y-25774D01*
X84874Y-25818D01*
X84882Y-25862D01*
X84898Y-25903D01*
X84922Y-25940D01*
X84953Y-25972D01*
X84989Y-25997D01*
X85030Y-26015D01*
X85073Y-26024D01*
X85117Y-26025D01*
X85160Y-26017D01*
X85201Y-26001D01*
X85239Y-25978D01*
X85271Y-25947D01*
X85296Y-25911D01*
X85314Y-25871D01*
X85324Y-25828D01*
X85325Y-25777D01*
X85325Y-26443D01*
X85311Y-26462D01*
X85297Y-26495D01*
X85290Y-26529D01*
X85289Y-26565D01*
X85296Y-26599D01*
X85309Y-26632D01*
X85328Y-26662D01*
X85352Y-26687D01*
X85381Y-26707D01*
X85414Y-26722D01*
X85448Y-26729D01*
X85483Y-26730D01*
X85518Y-26724D01*
X85551Y-26711D01*
X85581Y-26692D01*
X85606Y-26668D01*
X85619Y-26649D01*
X85631Y-26657D01*
X85664Y-26672D01*
X85698Y-26679D01*
X85733Y-26680D01*
X85768Y-26674D01*
X85801Y-26661D01*
X85831Y-26642D01*
X85856Y-26618D01*
X85877Y-26589D01*
X85891Y-26557D01*
X85899Y-26522D01*
X85900Y-26482D01*
X85900Y-26630D01*
X85886Y-26639D01*
X85861Y-26663D01*
X85841Y-26692D01*
X85827Y-26725D01*
X85820Y-26759D01*
X85819Y-26795D01*
X85826Y-26829D01*
X85839Y-26862D01*
X85858Y-26892D01*
X85882Y-26917D01*
X85911Y-26937D01*
X85944Y-26952D01*
X85978Y-26959D01*
X86013Y-26960D01*
X86048Y-26954D01*
X86081Y-26941D01*
X86111Y-26922D01*
X86136Y-26898D01*
X86157Y-26869D01*
X86171Y-26837D01*
X86179Y-26802D01*
X86180Y-26762D01*
X86180Y-27777D01*
X86156Y-27811D01*
X86126Y-27881D01*
X86110Y-27956D01*
X86109Y-28032D01*
X86123Y-28108D01*
X86151Y-28179D01*
X86192Y-28243D01*
X86246Y-28298D01*
X86308Y-28342D01*
X86378Y-28372D01*
X86453Y-28389D01*
X86510Y-28390D01*
X85532Y-28390D01*
X85605Y-28377D01*
X85676Y-28349D01*
X85741Y-28308D01*
X85796Y-28256D01*
X85840Y-28193D01*
X85871Y-28123D01*
X85888Y-28049D01*
X85890Y-27961D01*
X85875Y-27886D01*
X85846Y-27816D01*
X85803Y-27752D01*
X85749Y-27698D01*
X85686Y-27655D01*
X85615Y-27625D01*
X85540Y-27610D01*
X85464Y-27609D01*
X85389Y-27624D01*
X85318Y-27652D01*
X85254Y-27694D01*
X85199Y-27748D01*
X85156Y-27811D01*
X85126Y-27881D01*
X85110Y-27956D01*
X85109Y-28032D01*
X85123Y-28108D01*
X85151Y-28179D01*
X85192Y-28243D01*
X85246Y-28298D01*
X85308Y-28342D01*
X85378Y-28372D01*
X85453Y-28389D01*
X85510Y-28390D01*
X84890Y-28390D01*
X84890Y-28291D01*
X84890Y-27691D01*
X84886Y-27673D01*
X84879Y-27657D01*
X84870Y-27642D01*
X84857Y-27630D01*
X84843Y-27620D01*
X84826Y-27613D01*
X84809Y-27610D01*
X84791Y-27609D01*
X84725Y-27609D01*
X84725Y-26477D01*
X84716Y-26434D01*
X84699Y-26393D01*
X84675Y-26357D01*
X84644Y-26325D01*
X84607Y-26301D01*
X84566Y-26284D01*
X84523Y-26275D01*
X84479Y-26274D01*
X84436Y-26283D01*
X84430Y-26285D01*
X84430Y-25367D01*
X84430Y-25070D01*
X84430Y-24930D01*
X84430Y-24632D01*
X84407Y-24610D01*
X84191Y-24609D01*
X84173Y-24613D01*
X84157Y-24620D01*
X84142Y-24629D01*
X84130Y-24642D01*
X84120Y-24656D01*
X84113Y-24673D01*
X84110Y-24690D01*
X84109Y-24708D01*
X84110Y-24907D01*
X84132Y-24930D01*
X84430Y-24930D01*
X84430Y-25070D01*
X84132Y-25070D01*
X84110Y-25092D01*
X84109Y-25291D01*
X84110Y-25309D01*
X84113Y-25326D01*
X84120Y-25343D01*
X84130Y-25357D01*
X84142Y-25370D01*
X84157Y-25379D01*
X84173Y-25386D01*
X84191Y-25390D01*
X84407Y-25390D01*
X84430Y-25367D01*
X84430Y-26285D01*
X84395Y-26299D01*
X84358Y-26323D01*
X84326Y-26354D01*
X84301Y-26391D01*
X84284Y-26431D01*
X84275Y-26474D01*
X84274Y-26518D01*
X84282Y-26562D01*
X84298Y-26603D01*
X84322Y-26640D01*
X84353Y-26672D01*
X84389Y-26697D01*
X84430Y-26715D01*
X84473Y-26724D01*
X84517Y-26725D01*
X84560Y-26717D01*
X84601Y-26701D01*
X84639Y-26678D01*
X84671Y-26647D01*
X84696Y-26611D01*
X84714Y-26571D01*
X84724Y-26528D01*
X84725Y-26477D01*
X84725Y-27609D01*
X84191Y-27609D01*
X84173Y-27613D01*
X84157Y-27620D01*
X84142Y-27629D01*
X84130Y-27642D01*
X84120Y-27656D01*
X84113Y-27673D01*
X84110Y-27690D01*
X84109Y-27708D01*
X84109Y-28308D01*
X84113Y-28326D01*
X84120Y-28342D01*
X84129Y-28357D01*
X84142Y-28369D01*
X84156Y-28379D01*
X84173Y-28386D01*
X84190Y-28389D01*
X84208Y-28390D01*
X84808Y-28390D01*
X84826Y-28386D01*
X84842Y-28379D01*
X84857Y-28370D01*
X84869Y-28357D01*
X84879Y-28343D01*
X84886Y-28326D01*
X84889Y-28309D01*
X84890Y-28291D01*
X84890Y-28390D01*
X84109Y-28390D01*
X84109Y-24609D01*
X87890Y-24609D01*
X87890Y-28390D01*
M02*
