G04 (created by PCBNEW (2013-june-11)-stable) date Sat 19 Jul 2014 08:14:21 AM PDT*
%MOIN*%
G04 Gerber Fmt 3.4, Leading zero omitted, Abs format*
%FSLAX34Y34*%
G01*
G70*
G90*
G04 APERTURE LIST*
%ADD10C,0.00590551*%
%ADD11R,0.06X0.06*%
%ADD12C,0.06*%
%ADD13C,0.018*%
%ADD14C,0.027*%
%ADD15C,0.006*%
G04 APERTURE END LIST*
G54D10*
G54D11*
X84500Y-25000D03*
G54D12*
X85500Y-25000D03*
X86500Y-25000D03*
X87500Y-25000D03*
G54D11*
X84500Y-28000D03*
G54D12*
X85500Y-28000D03*
X86500Y-28000D03*
X87500Y-28000D03*
G54D13*
X85720Y-26500D03*
X86280Y-26500D03*
X86000Y-26780D03*
G54D14*
X84500Y-26500D03*
X86500Y-26000D03*
X85100Y-25800D03*
X85500Y-26000D03*
G54D13*
X85470Y-26550D03*
X87700Y-27000D03*
X86510Y-26550D03*
X87300Y-27000D03*
G54D10*
G36*
X87890Y-28390D02*
X87500Y-28390D01*
X87553Y-28388D01*
X87628Y-28370D01*
X87670Y-28353D01*
X87706Y-28305D01*
X87500Y-28098D01*
X87401Y-28197D01*
X87401Y-28000D01*
X87194Y-27793D01*
X87146Y-27829D01*
X87120Y-27901D01*
X87108Y-27977D01*
X87111Y-28053D01*
X87129Y-28128D01*
X87146Y-28170D01*
X87194Y-28206D01*
X87401Y-28000D01*
X87401Y-28197D01*
X87293Y-28305D01*
X87329Y-28353D01*
X87401Y-28379D01*
X87471Y-28390D01*
X86532Y-28390D01*
X86605Y-28377D01*
X86676Y-28349D01*
X86741Y-28308D01*
X86796Y-28256D01*
X86840Y-28193D01*
X86871Y-28123D01*
X86888Y-28049D01*
X86890Y-27961D01*
X86890Y-24961D01*
X86875Y-24886D01*
X86846Y-24816D01*
X86803Y-24752D01*
X86749Y-24698D01*
X86686Y-24655D01*
X86615Y-24625D01*
X86540Y-24610D01*
X86464Y-24609D01*
X86389Y-24624D01*
X86318Y-24652D01*
X86254Y-24694D01*
X86199Y-24748D01*
X86156Y-24811D01*
X86126Y-24881D01*
X86110Y-24956D01*
X86109Y-25032D01*
X86123Y-25108D01*
X86151Y-25179D01*
X86192Y-25243D01*
X86246Y-25298D01*
X86308Y-25342D01*
X86378Y-25372D01*
X86453Y-25389D01*
X86530Y-25390D01*
X86605Y-25377D01*
X86676Y-25349D01*
X86741Y-25308D01*
X86796Y-25256D01*
X86840Y-25193D01*
X86871Y-25123D01*
X86888Y-25049D01*
X86890Y-24961D01*
X86890Y-27961D01*
X86875Y-27886D01*
X86846Y-27816D01*
X86803Y-27752D01*
X86749Y-27698D01*
X86690Y-27657D01*
X86690Y-26532D01*
X86683Y-26497D01*
X86669Y-26465D01*
X86650Y-26435D01*
X86625Y-26410D01*
X86596Y-26390D01*
X86563Y-26377D01*
X86528Y-26370D01*
X86493Y-26369D01*
X86458Y-26376D01*
X86426Y-26389D01*
X86396Y-26409D01*
X86371Y-26433D01*
X86351Y-26462D01*
X86337Y-26495D01*
X86330Y-26529D01*
X86329Y-26565D01*
X86336Y-26599D01*
X86349Y-26632D01*
X86368Y-26662D01*
X86392Y-26687D01*
X86421Y-26707D01*
X86454Y-26722D01*
X86488Y-26729D01*
X86523Y-26730D01*
X86558Y-26724D01*
X86591Y-26711D01*
X86621Y-26692D01*
X86646Y-26668D01*
X86667Y-26639D01*
X86681Y-26607D01*
X86689Y-26572D01*
X86690Y-26532D01*
X86690Y-27657D01*
X86686Y-27655D01*
X86615Y-27625D01*
X86540Y-27610D01*
X86464Y-27609D01*
X86389Y-27624D01*
X86318Y-27652D01*
X86254Y-27694D01*
X86199Y-27748D01*
X86156Y-27811D01*
X86126Y-27881D01*
X86110Y-27956D01*
X86109Y-28032D01*
X86123Y-28108D01*
X86151Y-28179D01*
X86192Y-28243D01*
X86246Y-28298D01*
X86308Y-28342D01*
X86378Y-28372D01*
X86453Y-28389D01*
X86510Y-28390D01*
X85900Y-28390D01*
X85900Y-26482D01*
X85893Y-26447D01*
X85890Y-26440D01*
X85890Y-24961D01*
X85875Y-24886D01*
X85846Y-24816D01*
X85803Y-24752D01*
X85749Y-24698D01*
X85686Y-24655D01*
X85615Y-24625D01*
X85540Y-24610D01*
X85464Y-24609D01*
X85389Y-24624D01*
X85318Y-24652D01*
X85254Y-24694D01*
X85199Y-24748D01*
X85156Y-24811D01*
X85126Y-24881D01*
X85110Y-24956D01*
X85109Y-25032D01*
X85123Y-25108D01*
X85151Y-25179D01*
X85192Y-25243D01*
X85246Y-25298D01*
X85308Y-25342D01*
X85378Y-25372D01*
X85453Y-25389D01*
X85530Y-25390D01*
X85605Y-25377D01*
X85676Y-25349D01*
X85741Y-25308D01*
X85796Y-25256D01*
X85840Y-25193D01*
X85871Y-25123D01*
X85888Y-25049D01*
X85890Y-24961D01*
X85890Y-26440D01*
X85879Y-26415D01*
X85860Y-26385D01*
X85835Y-26360D01*
X85806Y-26340D01*
X85773Y-26327D01*
X85738Y-26320D01*
X85725Y-26320D01*
X85725Y-25977D01*
X85716Y-25934D01*
X85699Y-25893D01*
X85675Y-25857D01*
X85644Y-25825D01*
X85607Y-25801D01*
X85566Y-25784D01*
X85523Y-25775D01*
X85479Y-25774D01*
X85436Y-25783D01*
X85395Y-25799D01*
X85358Y-25823D01*
X85326Y-25854D01*
X85301Y-25891D01*
X85284Y-25931D01*
X85275Y-25974D01*
X85274Y-26018D01*
X85282Y-26062D01*
X85298Y-26103D01*
X85322Y-26140D01*
X85353Y-26172D01*
X85389Y-26197D01*
X85430Y-26215D01*
X85473Y-26224D01*
X85517Y-26225D01*
X85560Y-26217D01*
X85601Y-26201D01*
X85639Y-26178D01*
X85671Y-26147D01*
X85696Y-26111D01*
X85714Y-26071D01*
X85724Y-26028D01*
X85725Y-25977D01*
X85725Y-26320D01*
X85703Y-26319D01*
X85668Y-26326D01*
X85636Y-26339D01*
X85606Y-26359D01*
X85581Y-26383D01*
X85570Y-26400D01*
X85556Y-26390D01*
X85523Y-26377D01*
X85488Y-26370D01*
X85453Y-26369D01*
X85418Y-26376D01*
X85386Y-26389D01*
X85356Y-26409D01*
X85331Y-26433D01*
X85311Y-26462D01*
X85297Y-26495D01*
X85290Y-26529D01*
X85289Y-26565D01*
X85296Y-26599D01*
X85309Y-26632D01*
X85328Y-26662D01*
X85352Y-26687D01*
X85381Y-26707D01*
X85414Y-26722D01*
X85448Y-26729D01*
X85483Y-26730D01*
X85518Y-26724D01*
X85551Y-26711D01*
X85581Y-26692D01*
X85606Y-26668D01*
X85619Y-26649D01*
X85631Y-26657D01*
X85664Y-26672D01*
X85698Y-26679D01*
X85733Y-26680D01*
X85768Y-26674D01*
X85801Y-26661D01*
X85831Y-26642D01*
X85856Y-26618D01*
X85877Y-26589D01*
X85891Y-26557D01*
X85899Y-26522D01*
X85900Y-26482D01*
X85900Y-28390D01*
X85532Y-28390D01*
X85605Y-28377D01*
X85676Y-28349D01*
X85741Y-28308D01*
X85796Y-28256D01*
X85840Y-28193D01*
X85871Y-28123D01*
X85888Y-28049D01*
X85890Y-27961D01*
X85875Y-27886D01*
X85846Y-27816D01*
X85803Y-27752D01*
X85749Y-27698D01*
X85686Y-27655D01*
X85615Y-27625D01*
X85540Y-27610D01*
X85464Y-27609D01*
X85389Y-27624D01*
X85318Y-27652D01*
X85254Y-27694D01*
X85199Y-27748D01*
X85156Y-27811D01*
X85126Y-27881D01*
X85110Y-27956D01*
X85109Y-28032D01*
X85123Y-28108D01*
X85151Y-28179D01*
X85192Y-28243D01*
X85246Y-28298D01*
X85308Y-28342D01*
X85378Y-28372D01*
X85453Y-28389D01*
X85510Y-28390D01*
X84890Y-28390D01*
X84890Y-28291D01*
X84890Y-25291D01*
X84890Y-24691D01*
X84886Y-24673D01*
X84879Y-24657D01*
X84870Y-24642D01*
X84857Y-24630D01*
X84843Y-24620D01*
X84826Y-24613D01*
X84809Y-24610D01*
X84791Y-24609D01*
X84191Y-24609D01*
X84173Y-24613D01*
X84157Y-24620D01*
X84142Y-24629D01*
X84130Y-24642D01*
X84120Y-24656D01*
X84113Y-24673D01*
X84110Y-24690D01*
X84109Y-24708D01*
X84109Y-25308D01*
X84113Y-25326D01*
X84120Y-25342D01*
X84129Y-25357D01*
X84142Y-25369D01*
X84156Y-25379D01*
X84173Y-25386D01*
X84190Y-25389D01*
X84208Y-25390D01*
X84808Y-25390D01*
X84826Y-25386D01*
X84842Y-25379D01*
X84857Y-25370D01*
X84869Y-25357D01*
X84879Y-25343D01*
X84886Y-25326D01*
X84889Y-25309D01*
X84890Y-25291D01*
X84890Y-28291D01*
X84890Y-27691D01*
X84886Y-27673D01*
X84879Y-27657D01*
X84870Y-27642D01*
X84857Y-27630D01*
X84843Y-27620D01*
X84826Y-27613D01*
X84809Y-27610D01*
X84791Y-27609D01*
X84191Y-27609D01*
X84173Y-27613D01*
X84157Y-27620D01*
X84142Y-27629D01*
X84130Y-27642D01*
X84120Y-27656D01*
X84113Y-27673D01*
X84110Y-27690D01*
X84109Y-27708D01*
X84109Y-28308D01*
X84113Y-28326D01*
X84120Y-28342D01*
X84129Y-28357D01*
X84142Y-28369D01*
X84156Y-28379D01*
X84173Y-28386D01*
X84190Y-28389D01*
X84208Y-28390D01*
X84808Y-28390D01*
X84826Y-28386D01*
X84842Y-28379D01*
X84857Y-28370D01*
X84869Y-28357D01*
X84879Y-28343D01*
X84886Y-28326D01*
X84889Y-28309D01*
X84890Y-28291D01*
X84890Y-28390D01*
X84109Y-28390D01*
X84109Y-24609D01*
X87499Y-24609D01*
X87446Y-24611D01*
X87371Y-24629D01*
X87329Y-24646D01*
X87293Y-24694D01*
X87500Y-24901D01*
X87706Y-24694D01*
X87670Y-24646D01*
X87598Y-24620D01*
X87528Y-24609D01*
X87890Y-24609D01*
X87890Y-24999D01*
X87888Y-24946D01*
X87870Y-24871D01*
X87853Y-24829D01*
X87805Y-24793D01*
X87598Y-25000D01*
X87805Y-25206D01*
X87853Y-25170D01*
X87879Y-25098D01*
X87890Y-25028D01*
X87890Y-27999D01*
X87888Y-27946D01*
X87880Y-27912D01*
X87880Y-26982D01*
X87873Y-26947D01*
X87859Y-26915D01*
X87840Y-26885D01*
X87815Y-26860D01*
X87786Y-26840D01*
X87753Y-26827D01*
X87718Y-26820D01*
X87706Y-26820D01*
X87706Y-25305D01*
X87500Y-25098D01*
X87401Y-25197D01*
X87401Y-25000D01*
X87194Y-24793D01*
X87146Y-24829D01*
X87120Y-24901D01*
X87108Y-24977D01*
X87111Y-25053D01*
X87129Y-25128D01*
X87146Y-25170D01*
X87194Y-25206D01*
X87401Y-25000D01*
X87401Y-25197D01*
X87293Y-25305D01*
X87329Y-25353D01*
X87401Y-25379D01*
X87477Y-25391D01*
X87553Y-25388D01*
X87628Y-25370D01*
X87670Y-25353D01*
X87706Y-25305D01*
X87706Y-26820D01*
X87683Y-26819D01*
X87648Y-26826D01*
X87616Y-26839D01*
X87586Y-26859D01*
X87561Y-26883D01*
X87541Y-26912D01*
X87527Y-26945D01*
X87520Y-26979D01*
X87519Y-27015D01*
X87526Y-27049D01*
X87539Y-27082D01*
X87558Y-27112D01*
X87582Y-27137D01*
X87611Y-27157D01*
X87644Y-27172D01*
X87678Y-27179D01*
X87713Y-27180D01*
X87748Y-27174D01*
X87781Y-27161D01*
X87811Y-27142D01*
X87836Y-27118D01*
X87857Y-27089D01*
X87871Y-27057D01*
X87879Y-27022D01*
X87880Y-26982D01*
X87880Y-27912D01*
X87870Y-27871D01*
X87853Y-27829D01*
X87805Y-27793D01*
X87706Y-27892D01*
X87706Y-27694D01*
X87670Y-27646D01*
X87598Y-27620D01*
X87522Y-27608D01*
X87480Y-27610D01*
X87480Y-26982D01*
X87473Y-26947D01*
X87459Y-26915D01*
X87440Y-26885D01*
X87415Y-26860D01*
X87386Y-26840D01*
X87353Y-26827D01*
X87318Y-26820D01*
X87283Y-26819D01*
X87248Y-26826D01*
X87216Y-26839D01*
X87186Y-26859D01*
X87161Y-26883D01*
X87141Y-26912D01*
X87127Y-26945D01*
X87120Y-26979D01*
X87119Y-27015D01*
X87126Y-27049D01*
X87139Y-27082D01*
X87158Y-27112D01*
X87182Y-27137D01*
X87211Y-27157D01*
X87244Y-27172D01*
X87278Y-27179D01*
X87313Y-27180D01*
X87348Y-27174D01*
X87381Y-27161D01*
X87411Y-27142D01*
X87436Y-27118D01*
X87457Y-27089D01*
X87471Y-27057D01*
X87479Y-27022D01*
X87480Y-26982D01*
X87480Y-27610D01*
X87446Y-27611D01*
X87371Y-27629D01*
X87329Y-27646D01*
X87293Y-27694D01*
X87500Y-27901D01*
X87706Y-27694D01*
X87706Y-27892D01*
X87598Y-28000D01*
X87805Y-28206D01*
X87853Y-28170D01*
X87879Y-28098D01*
X87890Y-28028D01*
X87890Y-28390D01*
X87890Y-28390D01*
G37*
G54D15*
X87890Y-28390D02*
X87500Y-28390D01*
X87553Y-28388D01*
X87628Y-28370D01*
X87670Y-28353D01*
X87706Y-28305D01*
X87500Y-28098D01*
X87401Y-28197D01*
X87401Y-28000D01*
X87194Y-27793D01*
X87146Y-27829D01*
X87120Y-27901D01*
X87108Y-27977D01*
X87111Y-28053D01*
X87129Y-28128D01*
X87146Y-28170D01*
X87194Y-28206D01*
X87401Y-28000D01*
X87401Y-28197D01*
X87293Y-28305D01*
X87329Y-28353D01*
X87401Y-28379D01*
X87471Y-28390D01*
X86532Y-28390D01*
X86605Y-28377D01*
X86676Y-28349D01*
X86741Y-28308D01*
X86796Y-28256D01*
X86840Y-28193D01*
X86871Y-28123D01*
X86888Y-28049D01*
X86890Y-27961D01*
X86890Y-24961D01*
X86875Y-24886D01*
X86846Y-24816D01*
X86803Y-24752D01*
X86749Y-24698D01*
X86686Y-24655D01*
X86615Y-24625D01*
X86540Y-24610D01*
X86464Y-24609D01*
X86389Y-24624D01*
X86318Y-24652D01*
X86254Y-24694D01*
X86199Y-24748D01*
X86156Y-24811D01*
X86126Y-24881D01*
X86110Y-24956D01*
X86109Y-25032D01*
X86123Y-25108D01*
X86151Y-25179D01*
X86192Y-25243D01*
X86246Y-25298D01*
X86308Y-25342D01*
X86378Y-25372D01*
X86453Y-25389D01*
X86530Y-25390D01*
X86605Y-25377D01*
X86676Y-25349D01*
X86741Y-25308D01*
X86796Y-25256D01*
X86840Y-25193D01*
X86871Y-25123D01*
X86888Y-25049D01*
X86890Y-24961D01*
X86890Y-27961D01*
X86875Y-27886D01*
X86846Y-27816D01*
X86803Y-27752D01*
X86749Y-27698D01*
X86690Y-27657D01*
X86690Y-26532D01*
X86683Y-26497D01*
X86669Y-26465D01*
X86650Y-26435D01*
X86625Y-26410D01*
X86596Y-26390D01*
X86563Y-26377D01*
X86528Y-26370D01*
X86493Y-26369D01*
X86458Y-26376D01*
X86426Y-26389D01*
X86396Y-26409D01*
X86371Y-26433D01*
X86351Y-26462D01*
X86337Y-26495D01*
X86330Y-26529D01*
X86329Y-26565D01*
X86336Y-26599D01*
X86349Y-26632D01*
X86368Y-26662D01*
X86392Y-26687D01*
X86421Y-26707D01*
X86454Y-26722D01*
X86488Y-26729D01*
X86523Y-26730D01*
X86558Y-26724D01*
X86591Y-26711D01*
X86621Y-26692D01*
X86646Y-26668D01*
X86667Y-26639D01*
X86681Y-26607D01*
X86689Y-26572D01*
X86690Y-26532D01*
X86690Y-27657D01*
X86686Y-27655D01*
X86615Y-27625D01*
X86540Y-27610D01*
X86464Y-27609D01*
X86389Y-27624D01*
X86318Y-27652D01*
X86254Y-27694D01*
X86199Y-27748D01*
X86156Y-27811D01*
X86126Y-27881D01*
X86110Y-27956D01*
X86109Y-28032D01*
X86123Y-28108D01*
X86151Y-28179D01*
X86192Y-28243D01*
X86246Y-28298D01*
X86308Y-28342D01*
X86378Y-28372D01*
X86453Y-28389D01*
X86510Y-28390D01*
X85900Y-28390D01*
X85900Y-26482D01*
X85893Y-26447D01*
X85890Y-26440D01*
X85890Y-24961D01*
X85875Y-24886D01*
X85846Y-24816D01*
X85803Y-24752D01*
X85749Y-24698D01*
X85686Y-24655D01*
X85615Y-24625D01*
X85540Y-24610D01*
X85464Y-24609D01*
X85389Y-24624D01*
X85318Y-24652D01*
X85254Y-24694D01*
X85199Y-24748D01*
X85156Y-24811D01*
X85126Y-24881D01*
X85110Y-24956D01*
X85109Y-25032D01*
X85123Y-25108D01*
X85151Y-25179D01*
X85192Y-25243D01*
X85246Y-25298D01*
X85308Y-25342D01*
X85378Y-25372D01*
X85453Y-25389D01*
X85530Y-25390D01*
X85605Y-25377D01*
X85676Y-25349D01*
X85741Y-25308D01*
X85796Y-25256D01*
X85840Y-25193D01*
X85871Y-25123D01*
X85888Y-25049D01*
X85890Y-24961D01*
X85890Y-26440D01*
X85879Y-26415D01*
X85860Y-26385D01*
X85835Y-26360D01*
X85806Y-26340D01*
X85773Y-26327D01*
X85738Y-26320D01*
X85725Y-26320D01*
X85725Y-25977D01*
X85716Y-25934D01*
X85699Y-25893D01*
X85675Y-25857D01*
X85644Y-25825D01*
X85607Y-25801D01*
X85566Y-25784D01*
X85523Y-25775D01*
X85479Y-25774D01*
X85436Y-25783D01*
X85395Y-25799D01*
X85358Y-25823D01*
X85326Y-25854D01*
X85301Y-25891D01*
X85284Y-25931D01*
X85275Y-25974D01*
X85274Y-26018D01*
X85282Y-26062D01*
X85298Y-26103D01*
X85322Y-26140D01*
X85353Y-26172D01*
X85389Y-26197D01*
X85430Y-26215D01*
X85473Y-26224D01*
X85517Y-26225D01*
X85560Y-26217D01*
X85601Y-26201D01*
X85639Y-26178D01*
X85671Y-26147D01*
X85696Y-26111D01*
X85714Y-26071D01*
X85724Y-26028D01*
X85725Y-25977D01*
X85725Y-26320D01*
X85703Y-26319D01*
X85668Y-26326D01*
X85636Y-26339D01*
X85606Y-26359D01*
X85581Y-26383D01*
X85570Y-26400D01*
X85556Y-26390D01*
X85523Y-26377D01*
X85488Y-26370D01*
X85453Y-26369D01*
X85418Y-26376D01*
X85386Y-26389D01*
X85356Y-26409D01*
X85331Y-26433D01*
X85311Y-26462D01*
X85297Y-26495D01*
X85290Y-26529D01*
X85289Y-26565D01*
X85296Y-26599D01*
X85309Y-26632D01*
X85328Y-26662D01*
X85352Y-26687D01*
X85381Y-26707D01*
X85414Y-26722D01*
X85448Y-26729D01*
X85483Y-26730D01*
X85518Y-26724D01*
X85551Y-26711D01*
X85581Y-26692D01*
X85606Y-26668D01*
X85619Y-26649D01*
X85631Y-26657D01*
X85664Y-26672D01*
X85698Y-26679D01*
X85733Y-26680D01*
X85768Y-26674D01*
X85801Y-26661D01*
X85831Y-26642D01*
X85856Y-26618D01*
X85877Y-26589D01*
X85891Y-26557D01*
X85899Y-26522D01*
X85900Y-26482D01*
X85900Y-28390D01*
X85532Y-28390D01*
X85605Y-28377D01*
X85676Y-28349D01*
X85741Y-28308D01*
X85796Y-28256D01*
X85840Y-28193D01*
X85871Y-28123D01*
X85888Y-28049D01*
X85890Y-27961D01*
X85875Y-27886D01*
X85846Y-27816D01*
X85803Y-27752D01*
X85749Y-27698D01*
X85686Y-27655D01*
X85615Y-27625D01*
X85540Y-27610D01*
X85464Y-27609D01*
X85389Y-27624D01*
X85318Y-27652D01*
X85254Y-27694D01*
X85199Y-27748D01*
X85156Y-27811D01*
X85126Y-27881D01*
X85110Y-27956D01*
X85109Y-28032D01*
X85123Y-28108D01*
X85151Y-28179D01*
X85192Y-28243D01*
X85246Y-28298D01*
X85308Y-28342D01*
X85378Y-28372D01*
X85453Y-28389D01*
X85510Y-28390D01*
X84890Y-28390D01*
X84890Y-28291D01*
X84890Y-25291D01*
X84890Y-24691D01*
X84886Y-24673D01*
X84879Y-24657D01*
X84870Y-24642D01*
X84857Y-24630D01*
X84843Y-24620D01*
X84826Y-24613D01*
X84809Y-24610D01*
X84791Y-24609D01*
X84191Y-24609D01*
X84173Y-24613D01*
X84157Y-24620D01*
X84142Y-24629D01*
X84130Y-24642D01*
X84120Y-24656D01*
X84113Y-24673D01*
X84110Y-24690D01*
X84109Y-24708D01*
X84109Y-25308D01*
X84113Y-25326D01*
X84120Y-25342D01*
X84129Y-25357D01*
X84142Y-25369D01*
X84156Y-25379D01*
X84173Y-25386D01*
X84190Y-25389D01*
X84208Y-25390D01*
X84808Y-25390D01*
X84826Y-25386D01*
X84842Y-25379D01*
X84857Y-25370D01*
X84869Y-25357D01*
X84879Y-25343D01*
X84886Y-25326D01*
X84889Y-25309D01*
X84890Y-25291D01*
X84890Y-28291D01*
X84890Y-27691D01*
X84886Y-27673D01*
X84879Y-27657D01*
X84870Y-27642D01*
X84857Y-27630D01*
X84843Y-27620D01*
X84826Y-27613D01*
X84809Y-27610D01*
X84791Y-27609D01*
X84191Y-27609D01*
X84173Y-27613D01*
X84157Y-27620D01*
X84142Y-27629D01*
X84130Y-27642D01*
X84120Y-27656D01*
X84113Y-27673D01*
X84110Y-27690D01*
X84109Y-27708D01*
X84109Y-28308D01*
X84113Y-28326D01*
X84120Y-28342D01*
X84129Y-28357D01*
X84142Y-28369D01*
X84156Y-28379D01*
X84173Y-28386D01*
X84190Y-28389D01*
X84208Y-28390D01*
X84808Y-28390D01*
X84826Y-28386D01*
X84842Y-28379D01*
X84857Y-28370D01*
X84869Y-28357D01*
X84879Y-28343D01*
X84886Y-28326D01*
X84889Y-28309D01*
X84890Y-28291D01*
X84890Y-28390D01*
X84109Y-28390D01*
X84109Y-24609D01*
X87499Y-24609D01*
X87446Y-24611D01*
X87371Y-24629D01*
X87329Y-24646D01*
X87293Y-24694D01*
X87500Y-24901D01*
X87706Y-24694D01*
X87670Y-24646D01*
X87598Y-24620D01*
X87528Y-24609D01*
X87890Y-24609D01*
X87890Y-24999D01*
X87888Y-24946D01*
X87870Y-24871D01*
X87853Y-24829D01*
X87805Y-24793D01*
X87598Y-25000D01*
X87805Y-25206D01*
X87853Y-25170D01*
X87879Y-25098D01*
X87890Y-25028D01*
X87890Y-27999D01*
X87888Y-27946D01*
X87880Y-27912D01*
X87880Y-26982D01*
X87873Y-26947D01*
X87859Y-26915D01*
X87840Y-26885D01*
X87815Y-26860D01*
X87786Y-26840D01*
X87753Y-26827D01*
X87718Y-26820D01*
X87706Y-26820D01*
X87706Y-25305D01*
X87500Y-25098D01*
X87401Y-25197D01*
X87401Y-25000D01*
X87194Y-24793D01*
X87146Y-24829D01*
X87120Y-24901D01*
X87108Y-24977D01*
X87111Y-25053D01*
X87129Y-25128D01*
X87146Y-25170D01*
X87194Y-25206D01*
X87401Y-25000D01*
X87401Y-25197D01*
X87293Y-25305D01*
X87329Y-25353D01*
X87401Y-25379D01*
X87477Y-25391D01*
X87553Y-25388D01*
X87628Y-25370D01*
X87670Y-25353D01*
X87706Y-25305D01*
X87706Y-26820D01*
X87683Y-26819D01*
X87648Y-26826D01*
X87616Y-26839D01*
X87586Y-26859D01*
X87561Y-26883D01*
X87541Y-26912D01*
X87527Y-26945D01*
X87520Y-26979D01*
X87519Y-27015D01*
X87526Y-27049D01*
X87539Y-27082D01*
X87558Y-27112D01*
X87582Y-27137D01*
X87611Y-27157D01*
X87644Y-27172D01*
X87678Y-27179D01*
X87713Y-27180D01*
X87748Y-27174D01*
X87781Y-27161D01*
X87811Y-27142D01*
X87836Y-27118D01*
X87857Y-27089D01*
X87871Y-27057D01*
X87879Y-27022D01*
X87880Y-26982D01*
X87880Y-27912D01*
X87870Y-27871D01*
X87853Y-27829D01*
X87805Y-27793D01*
X87706Y-27892D01*
X87706Y-27694D01*
X87670Y-27646D01*
X87598Y-27620D01*
X87522Y-27608D01*
X87480Y-27610D01*
X87480Y-26982D01*
X87473Y-26947D01*
X87459Y-26915D01*
X87440Y-26885D01*
X87415Y-26860D01*
X87386Y-26840D01*
X87353Y-26827D01*
X87318Y-26820D01*
X87283Y-26819D01*
X87248Y-26826D01*
X87216Y-26839D01*
X87186Y-26859D01*
X87161Y-26883D01*
X87141Y-26912D01*
X87127Y-26945D01*
X87120Y-26979D01*
X87119Y-27015D01*
X87126Y-27049D01*
X87139Y-27082D01*
X87158Y-27112D01*
X87182Y-27137D01*
X87211Y-27157D01*
X87244Y-27172D01*
X87278Y-27179D01*
X87313Y-27180D01*
X87348Y-27174D01*
X87381Y-27161D01*
X87411Y-27142D01*
X87436Y-27118D01*
X87457Y-27089D01*
X87471Y-27057D01*
X87479Y-27022D01*
X87480Y-26982D01*
X87480Y-27610D01*
X87446Y-27611D01*
X87371Y-27629D01*
X87329Y-27646D01*
X87293Y-27694D01*
X87500Y-27901D01*
X87706Y-27694D01*
X87706Y-27892D01*
X87598Y-28000D01*
X87805Y-28206D01*
X87853Y-28170D01*
X87879Y-28098D01*
X87890Y-28028D01*
X87890Y-28390D01*
M02*
