G04 (created by PCBNEW (2013-june-11)-stable) date Fri 01 Aug 2014 09:16:33 PM PDT*
%MOIN*%
G04 Gerber Fmt 3.4, Leading zero omitted, Abs format*
%FSLAX34Y34*%
G01*
G70*
G90*
G04 APERTURE LIST*
%ADD10C,0.00590551*%
%ADD11C,0.0075*%
G04 APERTURE END LIST*
G54D10*
G54D11*
X83792Y-50371D02*
X83792Y-50071D01*
X83692Y-50285D01*
X83592Y-50071D01*
X83592Y-50371D01*
X83464Y-50285D02*
X83321Y-50285D01*
X83492Y-50371D02*
X83392Y-50071D01*
X83292Y-50371D01*
X83221Y-50071D02*
X83021Y-50371D01*
X83021Y-50071D02*
X83221Y-50371D01*
X82935Y-50071D02*
X82750Y-50071D01*
X82850Y-50185D01*
X82807Y-50185D01*
X82778Y-50200D01*
X82764Y-50214D01*
X82750Y-50242D01*
X82750Y-50314D01*
X82764Y-50342D01*
X82778Y-50357D01*
X82807Y-50371D01*
X82892Y-50371D01*
X82921Y-50357D01*
X82935Y-50342D01*
X82492Y-50171D02*
X82492Y-50371D01*
X82564Y-50057D02*
X82635Y-50271D01*
X82450Y-50271D01*
X82207Y-50171D02*
X82207Y-50371D01*
X82278Y-50057D02*
X82350Y-50271D01*
X82164Y-50271D01*
X81992Y-50071D02*
X81964Y-50071D01*
X81935Y-50085D01*
X81921Y-50100D01*
X81907Y-50128D01*
X81892Y-50185D01*
X81892Y-50257D01*
X81907Y-50314D01*
X81921Y-50342D01*
X81935Y-50357D01*
X81964Y-50371D01*
X81992Y-50371D01*
X82021Y-50357D01*
X82035Y-50342D01*
X82050Y-50314D01*
X82064Y-50257D01*
X82064Y-50185D01*
X82050Y-50128D01*
X82035Y-50100D01*
X82021Y-50085D01*
X81992Y-50071D01*
X81635Y-50071D02*
X81692Y-50071D01*
X81721Y-50085D01*
X81735Y-50100D01*
X81764Y-50142D01*
X81778Y-50200D01*
X81778Y-50314D01*
X81764Y-50342D01*
X81750Y-50357D01*
X81721Y-50371D01*
X81664Y-50371D01*
X81635Y-50357D01*
X81621Y-50342D01*
X81607Y-50314D01*
X81607Y-50242D01*
X81621Y-50214D01*
X81635Y-50200D01*
X81664Y-50185D01*
X81721Y-50185D01*
X81750Y-50200D01*
X81764Y-50214D01*
X81778Y-50242D01*
X81250Y-50371D02*
X81250Y-50071D01*
X81250Y-50185D02*
X81221Y-50171D01*
X81164Y-50171D01*
X81135Y-50185D01*
X81121Y-50200D01*
X81107Y-50228D01*
X81107Y-50314D01*
X81121Y-50342D01*
X81135Y-50357D01*
X81164Y-50371D01*
X81221Y-50371D01*
X81250Y-50357D01*
X80978Y-50371D02*
X80978Y-50171D01*
X80978Y-50228D02*
X80964Y-50200D01*
X80950Y-50185D01*
X80921Y-50171D01*
X80892Y-50171D01*
X80678Y-50357D02*
X80707Y-50371D01*
X80764Y-50371D01*
X80792Y-50357D01*
X80807Y-50328D01*
X80807Y-50214D01*
X80792Y-50185D01*
X80764Y-50171D01*
X80707Y-50171D01*
X80678Y-50185D01*
X80664Y-50214D01*
X80664Y-50242D01*
X80807Y-50271D01*
X80407Y-50371D02*
X80407Y-50214D01*
X80421Y-50185D01*
X80450Y-50171D01*
X80507Y-50171D01*
X80535Y-50185D01*
X80407Y-50357D02*
X80435Y-50371D01*
X80507Y-50371D01*
X80535Y-50357D01*
X80550Y-50328D01*
X80550Y-50300D01*
X80535Y-50271D01*
X80507Y-50257D01*
X80435Y-50257D01*
X80407Y-50242D01*
X80264Y-50371D02*
X80264Y-50071D01*
X80235Y-50257D02*
X80150Y-50371D01*
X80150Y-50171D02*
X80264Y-50285D01*
X79978Y-50371D02*
X80007Y-50357D01*
X80021Y-50342D01*
X80035Y-50314D01*
X80035Y-50228D01*
X80021Y-50200D01*
X80007Y-50185D01*
X79978Y-50171D01*
X79935Y-50171D01*
X79907Y-50185D01*
X79892Y-50200D01*
X79878Y-50228D01*
X79878Y-50314D01*
X79892Y-50342D01*
X79907Y-50357D01*
X79935Y-50371D01*
X79978Y-50371D01*
X79621Y-50171D02*
X79621Y-50371D01*
X79750Y-50171D02*
X79750Y-50328D01*
X79735Y-50357D01*
X79707Y-50371D01*
X79664Y-50371D01*
X79635Y-50357D01*
X79621Y-50342D01*
X79521Y-50171D02*
X79407Y-50171D01*
X79478Y-50071D02*
X79478Y-50328D01*
X79464Y-50357D01*
X79435Y-50371D01*
X79407Y-50371D01*
X79107Y-50171D02*
X79035Y-50371D01*
X78964Y-50171D01*
X78792Y-50071D02*
X78764Y-50071D01*
X78735Y-50085D01*
X78721Y-50100D01*
X78707Y-50128D01*
X78692Y-50185D01*
X78692Y-50257D01*
X78707Y-50314D01*
X78721Y-50342D01*
X78735Y-50357D01*
X78764Y-50371D01*
X78792Y-50371D01*
X78821Y-50357D01*
X78835Y-50342D01*
X78850Y-50314D01*
X78864Y-50257D01*
X78864Y-50185D01*
X78850Y-50128D01*
X78835Y-50100D01*
X78821Y-50085D01*
X78792Y-50071D01*
M02*
