G04 (created by PCBNEW (2013-june-11)-stable) date Fri 01 Aug 2014 09:04:51 PM PDT*
%MOIN*%
G04 Gerber Fmt 3.4, Leading zero omitted, Abs format*
%FSLAX34Y34*%
G01*
G70*
G90*
G04 APERTURE LIST*
%ADD10C,0.00590551*%
%ADD11R,0.0984X0.0984*%
%ADD12O,0.0315X0.0098*%
%ADD13O,0.0098X0.0315*%
%ADD14R,0.05X0.1*%
%ADD15R,0.0157X0.0236*%
%ADD16R,0.055X0.055*%
%ADD17C,0.055*%
%ADD18C,0.027*%
%ADD19C,0.018*%
%ADD20C,0.01*%
%ADD21C,0.065*%
G04 APERTURE END LIST*
G54D10*
G54D11*
X78500Y-49500D03*
G54D12*
X77713Y-49008D03*
X77713Y-49205D03*
X77713Y-49402D03*
X77713Y-49598D03*
X77713Y-49795D03*
X77713Y-49992D03*
G54D13*
X78008Y-50287D03*
X78205Y-50287D03*
X78402Y-50287D03*
X78598Y-50287D03*
X78795Y-50287D03*
X78992Y-50287D03*
G54D12*
X79287Y-49992D03*
X79287Y-49795D03*
X79287Y-49598D03*
X79287Y-49402D03*
X79287Y-49205D03*
X79287Y-49008D03*
G54D13*
X78992Y-48713D03*
X78795Y-48713D03*
X78598Y-48713D03*
X78402Y-48713D03*
X78205Y-48713D03*
X78008Y-48713D03*
G54D14*
X73400Y-49200D03*
X74600Y-49200D03*
X75400Y-49200D03*
X76600Y-49200D03*
X80400Y-49100D03*
X81600Y-49100D03*
X82400Y-49100D03*
X83600Y-49100D03*
G54D15*
X79573Y-48750D03*
X79927Y-48750D03*
G54D16*
X73500Y-48000D03*
G54D17*
X74500Y-48000D03*
X75500Y-48000D03*
X76500Y-48000D03*
X77500Y-48000D03*
X78500Y-48000D03*
X79500Y-48000D03*
X80500Y-48000D03*
X81500Y-48000D03*
X82500Y-48000D03*
X83500Y-48000D03*
X73500Y-51000D03*
X74500Y-51000D03*
X75500Y-51000D03*
X76500Y-51000D03*
X77500Y-51000D03*
X78500Y-51000D03*
X79500Y-51000D03*
X80500Y-51000D03*
X81500Y-51000D03*
X82500Y-51000D03*
X83500Y-51000D03*
G54D15*
X83073Y-50250D03*
X83427Y-50250D03*
X81073Y-50250D03*
X81427Y-50250D03*
X76927Y-50250D03*
X76573Y-50250D03*
X74927Y-50250D03*
X74573Y-50250D03*
G54D18*
X79920Y-48380D03*
X77880Y-48420D03*
G54D19*
X77240Y-48590D03*
X77030Y-48400D03*
X80800Y-49400D03*
X79990Y-49930D03*
X79930Y-49020D03*
X79950Y-49260D03*
X78600Y-50530D03*
X75120Y-50250D03*
X82870Y-50250D03*
X80870Y-50250D03*
X77130Y-50250D03*
X77010Y-48940D03*
X77080Y-49240D03*
X79710Y-49610D03*
X79990Y-49500D03*
G54D18*
X79100Y-48400D03*
G54D20*
X78402Y-48713D02*
X78402Y-48502D01*
X77900Y-48000D02*
X77500Y-48000D01*
X78402Y-48502D02*
X77900Y-48000D01*
X78795Y-48713D02*
X78795Y-48305D01*
X79100Y-48000D02*
X79500Y-48000D01*
X78795Y-48305D02*
X79100Y-48000D01*
X78008Y-48713D02*
X78008Y-48908D01*
X78500Y-49400D02*
X78500Y-49500D01*
X78008Y-48908D02*
X78500Y-49400D01*
X79927Y-48750D02*
X79927Y-48387D01*
X79927Y-48387D02*
X79920Y-48380D01*
X78008Y-48713D02*
X78008Y-48548D01*
X78008Y-48548D02*
X77880Y-48420D01*
X77594Y-49008D02*
X77240Y-48653D01*
X77240Y-48653D02*
X77240Y-48590D01*
X77713Y-49008D02*
X77594Y-49008D01*
G54D21*
X73500Y-48000D02*
X73500Y-49100D01*
X73500Y-49100D02*
X73400Y-49200D01*
G54D20*
X77713Y-49205D02*
X77565Y-49205D01*
X77030Y-48670D02*
X77030Y-48400D01*
X77565Y-49205D02*
X77030Y-48670D01*
G54D21*
X74500Y-48000D02*
X74500Y-49100D01*
X74500Y-49100D02*
X74600Y-49200D01*
G54D20*
X77713Y-49992D02*
X77446Y-49992D01*
X76020Y-49820D02*
X75400Y-49200D01*
X77274Y-49820D02*
X76020Y-49820D01*
X77446Y-49992D02*
X77274Y-49820D01*
G54D21*
X75500Y-48000D02*
X75500Y-49100D01*
X75500Y-49100D02*
X75400Y-49200D01*
G54D20*
X77713Y-49795D02*
X77476Y-49795D01*
X76850Y-49450D02*
X76600Y-49200D01*
X77131Y-49450D02*
X76850Y-49450D01*
X77476Y-49795D02*
X77131Y-49450D01*
G54D21*
X76500Y-48000D02*
X76500Y-49100D01*
X76500Y-49100D02*
X76600Y-49200D01*
G54D20*
X79287Y-49992D02*
X79928Y-49992D01*
X80500Y-49100D02*
X80400Y-49100D01*
X80800Y-49400D02*
X80500Y-49100D01*
X79928Y-49992D02*
X79990Y-49930D01*
G54D21*
X80500Y-48000D02*
X80500Y-49000D01*
X80500Y-49000D02*
X80400Y-49100D01*
G54D20*
X79900Y-49720D02*
X80770Y-49720D01*
X79605Y-49795D02*
X79630Y-49820D01*
X79630Y-49820D02*
X79800Y-49820D01*
X79800Y-49820D02*
X79900Y-49720D01*
X79287Y-49795D02*
X79605Y-49795D01*
X80770Y-49720D02*
X81390Y-49100D01*
X81390Y-49100D02*
X81600Y-49100D01*
X81500Y-49000D02*
X81600Y-49100D01*
X81600Y-49100D02*
X81390Y-49100D01*
G54D21*
X81500Y-48000D02*
X81500Y-49000D01*
X81500Y-49000D02*
X81600Y-49100D01*
G54D20*
X79918Y-49008D02*
X79930Y-49020D01*
X79287Y-49008D02*
X79918Y-49008D01*
G54D21*
X82500Y-48000D02*
X82500Y-49000D01*
X82500Y-49000D02*
X82400Y-49100D01*
G54D20*
X79287Y-49205D02*
X79825Y-49205D01*
X79880Y-49260D02*
X79950Y-49260D01*
X79825Y-49205D02*
X79880Y-49260D01*
G54D21*
X83500Y-48000D02*
X83500Y-49000D01*
X83500Y-49000D02*
X83600Y-49100D01*
G54D20*
X74573Y-50250D02*
X74573Y-50217D01*
X77788Y-50560D02*
X77900Y-50560D01*
X77208Y-49980D02*
X77788Y-50560D01*
X74809Y-49980D02*
X77208Y-49980D01*
X74573Y-50217D02*
X74809Y-49980D01*
X78402Y-50287D02*
X78402Y-50428D01*
X78402Y-50428D02*
X78270Y-50560D01*
X78270Y-50560D02*
X77940Y-50560D01*
X77940Y-50560D02*
X77900Y-50560D01*
X77900Y-50560D02*
X77950Y-50560D01*
X74500Y-51000D02*
X74500Y-50323D01*
X74500Y-50323D02*
X74573Y-50250D01*
X78598Y-50287D02*
X78598Y-50528D01*
X78598Y-50528D02*
X78600Y-50530D01*
X76500Y-51000D02*
X76500Y-50323D01*
X76500Y-50323D02*
X76573Y-50250D01*
X78795Y-50287D02*
X78795Y-50435D01*
X81427Y-50147D02*
X81427Y-50250D01*
X81290Y-50010D02*
X81427Y-50147D01*
X80932Y-50010D02*
X81290Y-50010D01*
X80902Y-50040D02*
X80932Y-50010D01*
X80396Y-50040D02*
X80902Y-50040D01*
X80124Y-50312D02*
X80396Y-50040D01*
X79396Y-50312D02*
X80124Y-50312D01*
X79148Y-50560D02*
X79396Y-50312D01*
X78920Y-50560D02*
X79148Y-50560D01*
X78795Y-50435D02*
X78920Y-50560D01*
X81500Y-51000D02*
X81500Y-50323D01*
X81500Y-50323D02*
X81427Y-50250D01*
X80329Y-49880D02*
X80836Y-49880D01*
X79195Y-50287D02*
X79330Y-50152D01*
X79330Y-50152D02*
X80057Y-50152D01*
X80057Y-50152D02*
X80329Y-49880D01*
X83230Y-49880D02*
X83427Y-50077D01*
X83427Y-50250D02*
X83427Y-50077D01*
X79195Y-50287D02*
X78992Y-50287D01*
X83070Y-49720D02*
X83230Y-49880D01*
X80996Y-49720D02*
X83070Y-49720D01*
X80836Y-49880D02*
X80996Y-49720D01*
X83500Y-50323D02*
X83427Y-50250D01*
X83500Y-51000D02*
X83500Y-50323D01*
X83500Y-50323D02*
X83427Y-50250D01*
X74927Y-50250D02*
X75120Y-50250D01*
X82870Y-50250D02*
X83073Y-50250D01*
X81073Y-50250D02*
X80870Y-50250D01*
X76927Y-50250D02*
X77130Y-50250D01*
X77713Y-49402D02*
X77535Y-49402D01*
X77073Y-48940D02*
X77010Y-48940D01*
X77535Y-49402D02*
X77073Y-48940D01*
X77713Y-49598D02*
X77505Y-49598D01*
X77147Y-49240D02*
X77080Y-49240D01*
X77505Y-49598D02*
X77147Y-49240D01*
X79698Y-49598D02*
X79710Y-49610D01*
X79287Y-49598D02*
X79698Y-49598D01*
X79287Y-49402D02*
X79792Y-49402D01*
X79890Y-49500D02*
X79990Y-49500D01*
X79792Y-49402D02*
X79890Y-49500D01*
X78598Y-48713D02*
X78598Y-48098D01*
X78598Y-48098D02*
X78500Y-48000D01*
X78992Y-48713D02*
X78992Y-48508D01*
X79223Y-48400D02*
X79573Y-48750D01*
X79100Y-48400D02*
X79223Y-48400D01*
X78992Y-48508D02*
X79100Y-48400D01*
M02*
