G04 (created by PCBNEW (2013-june-11)-stable) date Fri 01 Aug 2014 09:16:33 PM PDT*
%MOIN*%
G04 Gerber Fmt 3.4, Leading zero omitted, Abs format*
%FSLAX34Y34*%
G01*
G70*
G90*
G04 APERTURE LIST*
%ADD10C,0.00590551*%
%ADD11C,0.01*%
%ADD12C,0.0059*%
%ADD13C,0.0079*%
%ADD14C,0.005*%
%ADD15C,0.0028*%
G04 APERTURE END LIST*
G54D10*
G54D11*
X74000Y-51500D02*
X84000Y-51500D01*
X84000Y-51500D02*
X84000Y-50500D01*
X84000Y-50500D02*
X74000Y-50500D01*
X73000Y-51500D02*
X73000Y-50500D01*
X73000Y-50500D02*
X74000Y-50500D01*
X74000Y-51500D02*
X73000Y-51500D01*
G54D12*
X77716Y-48520D02*
X79480Y-48520D01*
X77520Y-48716D02*
X77520Y-50480D01*
X77520Y-48716D02*
X77716Y-48520D01*
G54D13*
X77716Y-48814D02*
X77716Y-48716D01*
X77716Y-48716D02*
X77814Y-48716D01*
X77814Y-50284D02*
X77716Y-50284D01*
X77716Y-50284D02*
X77716Y-50186D01*
X79284Y-50186D02*
X79284Y-50284D01*
X79284Y-50284D02*
X79186Y-50284D01*
X79186Y-48716D02*
X79284Y-48716D01*
X79284Y-48716D02*
X79284Y-48814D01*
G54D12*
X79480Y-50480D02*
X77520Y-50480D01*
X79480Y-48520D02*
X79480Y-50480D01*
G54D14*
X73120Y-49800D02*
G75*
G03X73120Y-49800I-70J0D01*
G74*
G01*
X73700Y-48650D02*
X73100Y-48650D01*
X73100Y-48650D02*
X73100Y-49750D01*
X73100Y-49750D02*
X73700Y-49750D01*
X74300Y-49750D02*
X74900Y-49750D01*
X74900Y-49750D02*
X74900Y-48650D01*
X74900Y-48650D02*
X74300Y-48650D01*
X75120Y-49800D02*
G75*
G03X75120Y-49800I-70J0D01*
G74*
G01*
X75700Y-48650D02*
X75100Y-48650D01*
X75100Y-48650D02*
X75100Y-49750D01*
X75100Y-49750D02*
X75700Y-49750D01*
X76300Y-49750D02*
X76900Y-49750D01*
X76900Y-49750D02*
X76900Y-48650D01*
X76900Y-48650D02*
X76300Y-48650D01*
X80120Y-49700D02*
G75*
G03X80120Y-49700I-70J0D01*
G74*
G01*
X80700Y-48550D02*
X80100Y-48550D01*
X80100Y-48550D02*
X80100Y-49650D01*
X80100Y-49650D02*
X80700Y-49650D01*
X81300Y-49650D02*
X81900Y-49650D01*
X81900Y-49650D02*
X81900Y-48550D01*
X81900Y-48550D02*
X81300Y-48550D01*
X82120Y-49700D02*
G75*
G03X82120Y-49700I-70J0D01*
G74*
G01*
X82700Y-48550D02*
X82100Y-48550D01*
X82100Y-48550D02*
X82100Y-49650D01*
X82100Y-49650D02*
X82700Y-49650D01*
X83300Y-49650D02*
X83900Y-49650D01*
X83900Y-49650D02*
X83900Y-48550D01*
X83900Y-48550D02*
X83300Y-48550D01*
G54D15*
X79650Y-48600D02*
X79450Y-48600D01*
X79450Y-48600D02*
X79450Y-48900D01*
X79450Y-48900D02*
X79650Y-48900D01*
X79850Y-48600D02*
X80050Y-48600D01*
X80050Y-48600D02*
X80050Y-48900D01*
X80050Y-48900D02*
X79850Y-48900D01*
G54D11*
X74000Y-48500D02*
X84000Y-48500D01*
X84000Y-48500D02*
X84000Y-47500D01*
X84000Y-47500D02*
X74000Y-47500D01*
X73000Y-48500D02*
X73000Y-47500D01*
X73000Y-47500D02*
X74000Y-47500D01*
X74000Y-47500D02*
X74000Y-48500D01*
X74000Y-48500D02*
X73000Y-48500D01*
G54D15*
X83150Y-50100D02*
X82950Y-50100D01*
X82950Y-50100D02*
X82950Y-50400D01*
X82950Y-50400D02*
X83150Y-50400D01*
X83350Y-50100D02*
X83550Y-50100D01*
X83550Y-50100D02*
X83550Y-50400D01*
X83550Y-50400D02*
X83350Y-50400D01*
X81150Y-50100D02*
X80950Y-50100D01*
X80950Y-50100D02*
X80950Y-50400D01*
X80950Y-50400D02*
X81150Y-50400D01*
X81350Y-50100D02*
X81550Y-50100D01*
X81550Y-50100D02*
X81550Y-50400D01*
X81550Y-50400D02*
X81350Y-50400D01*
X76850Y-50400D02*
X77050Y-50400D01*
X77050Y-50400D02*
X77050Y-50100D01*
X77050Y-50100D02*
X76850Y-50100D01*
X76650Y-50400D02*
X76450Y-50400D01*
X76450Y-50400D02*
X76450Y-50100D01*
X76450Y-50100D02*
X76650Y-50100D01*
X74850Y-50400D02*
X75050Y-50400D01*
X75050Y-50400D02*
X75050Y-50100D01*
X75050Y-50100D02*
X74850Y-50100D01*
X74650Y-50400D02*
X74450Y-50400D01*
X74450Y-50400D02*
X74450Y-50100D01*
X74450Y-50100D02*
X74650Y-50100D01*
G54D14*
X74121Y-49250D02*
X73978Y-49350D01*
X74121Y-49421D02*
X73821Y-49421D01*
X73821Y-49307D01*
X73835Y-49278D01*
X73850Y-49264D01*
X73878Y-49250D01*
X73921Y-49250D01*
X73950Y-49264D01*
X73964Y-49278D01*
X73978Y-49307D01*
X73978Y-49421D01*
X74121Y-48964D02*
X74121Y-49135D01*
X74121Y-49050D02*
X73821Y-49050D01*
X73864Y-49078D01*
X73892Y-49107D01*
X73907Y-49135D01*
X76121Y-49250D02*
X75978Y-49350D01*
X76121Y-49421D02*
X75821Y-49421D01*
X75821Y-49307D01*
X75835Y-49278D01*
X75850Y-49264D01*
X75878Y-49250D01*
X75921Y-49250D01*
X75950Y-49264D01*
X75964Y-49278D01*
X75978Y-49307D01*
X75978Y-49421D01*
X75850Y-49135D02*
X75835Y-49121D01*
X75821Y-49092D01*
X75821Y-49021D01*
X75835Y-48992D01*
X75850Y-48978D01*
X75878Y-48964D01*
X75907Y-48964D01*
X75950Y-48978D01*
X76121Y-49150D01*
X76121Y-48964D01*
X81121Y-49150D02*
X80978Y-49250D01*
X81121Y-49321D02*
X80821Y-49321D01*
X80821Y-49207D01*
X80835Y-49178D01*
X80850Y-49164D01*
X80878Y-49150D01*
X80921Y-49150D01*
X80950Y-49164D01*
X80964Y-49178D01*
X80978Y-49207D01*
X80978Y-49321D01*
X80821Y-49050D02*
X80821Y-48864D01*
X80935Y-48964D01*
X80935Y-48921D01*
X80950Y-48892D01*
X80964Y-48878D01*
X80992Y-48864D01*
X81064Y-48864D01*
X81092Y-48878D01*
X81107Y-48892D01*
X81121Y-48921D01*
X81121Y-49007D01*
X81107Y-49035D01*
X81092Y-49050D01*
X83121Y-49150D02*
X82978Y-49250D01*
X83121Y-49321D02*
X82821Y-49321D01*
X82821Y-49207D01*
X82835Y-49178D01*
X82850Y-49164D01*
X82878Y-49150D01*
X82921Y-49150D01*
X82950Y-49164D01*
X82964Y-49178D01*
X82978Y-49207D01*
X82978Y-49321D01*
X82921Y-48892D02*
X83121Y-48892D01*
X82807Y-48964D02*
X83021Y-49035D01*
X83021Y-48850D01*
G54D15*
X79792Y-48770D02*
X79799Y-48775D01*
X79805Y-48792D01*
X79805Y-48804D01*
X79799Y-48821D01*
X79786Y-48832D01*
X79773Y-48838D01*
X79746Y-48844D01*
X79727Y-48844D01*
X79700Y-48838D01*
X79687Y-48832D01*
X79674Y-48821D01*
X79667Y-48804D01*
X79667Y-48792D01*
X79674Y-48775D01*
X79681Y-48770D01*
X79805Y-48655D02*
X79805Y-48724D01*
X79805Y-48690D02*
X79667Y-48690D01*
X79687Y-48701D01*
X79700Y-48712D01*
X79707Y-48724D01*
X83230Y-50305D02*
X83190Y-50240D01*
X83161Y-50305D02*
X83161Y-50167D01*
X83207Y-50167D01*
X83218Y-50174D01*
X83224Y-50181D01*
X83230Y-50194D01*
X83230Y-50213D01*
X83224Y-50227D01*
X83218Y-50233D01*
X83207Y-50240D01*
X83161Y-50240D01*
X83338Y-50167D02*
X83281Y-50167D01*
X83275Y-50233D01*
X83281Y-50227D01*
X83292Y-50220D01*
X83321Y-50220D01*
X83332Y-50227D01*
X83338Y-50233D01*
X83344Y-50246D01*
X83344Y-50279D01*
X83338Y-50292D01*
X83332Y-50299D01*
X83321Y-50305D01*
X83292Y-50305D01*
X83281Y-50299D01*
X83275Y-50292D01*
X81230Y-50305D02*
X81190Y-50240D01*
X81161Y-50305D02*
X81161Y-50167D01*
X81207Y-50167D01*
X81218Y-50174D01*
X81224Y-50181D01*
X81230Y-50194D01*
X81230Y-50213D01*
X81224Y-50227D01*
X81218Y-50233D01*
X81207Y-50240D01*
X81161Y-50240D01*
X81332Y-50167D02*
X81310Y-50167D01*
X81298Y-50174D01*
X81292Y-50181D01*
X81281Y-50200D01*
X81275Y-50227D01*
X81275Y-50279D01*
X81281Y-50292D01*
X81287Y-50299D01*
X81298Y-50305D01*
X81321Y-50305D01*
X81332Y-50299D01*
X81338Y-50292D01*
X81344Y-50279D01*
X81344Y-50246D01*
X81338Y-50233D01*
X81332Y-50227D01*
X81321Y-50220D01*
X81298Y-50220D01*
X81287Y-50227D01*
X81281Y-50233D01*
X81275Y-50246D01*
X76730Y-50305D02*
X76690Y-50240D01*
X76661Y-50305D02*
X76661Y-50167D01*
X76707Y-50167D01*
X76718Y-50174D01*
X76724Y-50181D01*
X76730Y-50194D01*
X76730Y-50213D01*
X76724Y-50227D01*
X76718Y-50233D01*
X76707Y-50240D01*
X76661Y-50240D01*
X76770Y-50167D02*
X76850Y-50167D01*
X76798Y-50305D01*
X74730Y-50305D02*
X74690Y-50240D01*
X74661Y-50305D02*
X74661Y-50167D01*
X74707Y-50167D01*
X74718Y-50174D01*
X74724Y-50181D01*
X74730Y-50194D01*
X74730Y-50213D01*
X74724Y-50227D01*
X74718Y-50233D01*
X74707Y-50240D01*
X74661Y-50240D01*
X74798Y-50227D02*
X74787Y-50220D01*
X74781Y-50213D01*
X74775Y-50200D01*
X74775Y-50194D01*
X74781Y-50181D01*
X74787Y-50174D01*
X74798Y-50167D01*
X74821Y-50167D01*
X74832Y-50174D01*
X74838Y-50181D01*
X74844Y-50194D01*
X74844Y-50200D01*
X74838Y-50213D01*
X74832Y-50220D01*
X74821Y-50227D01*
X74798Y-50227D01*
X74787Y-50233D01*
X74781Y-50240D01*
X74775Y-50253D01*
X74775Y-50279D01*
X74781Y-50292D01*
X74787Y-50299D01*
X74798Y-50305D01*
X74821Y-50305D01*
X74832Y-50299D01*
X74838Y-50292D01*
X74844Y-50279D01*
X74844Y-50253D01*
X74838Y-50240D01*
X74832Y-50233D01*
X74821Y-50227D01*
M02*
