G04 (created by PCBNEW (2013-june-11)-stable) date Fri 01 Aug 2014 09:04:51 PM PDT*
%MOIN*%
G04 Gerber Fmt 3.4, Leading zero omitted, Abs format*
%FSLAX34Y34*%
G01*
G70*
G90*
G04 APERTURE LIST*
%ADD10C,0.00590551*%
%ADD11R,0.0984X0.0984*%
%ADD12O,0.0315X0.0098*%
%ADD13O,0.0098X0.0315*%
%ADD14R,0.05X0.1*%
%ADD15R,0.0157X0.0236*%
G04 APERTURE END LIST*
G54D10*
G54D11*
X78500Y-49500D03*
G54D12*
X77713Y-49008D03*
X77713Y-49205D03*
X77713Y-49402D03*
X77713Y-49598D03*
X77713Y-49795D03*
X77713Y-49992D03*
G54D13*
X78008Y-50287D03*
X78205Y-50287D03*
X78402Y-50287D03*
X78598Y-50287D03*
X78795Y-50287D03*
X78992Y-50287D03*
G54D12*
X79287Y-49992D03*
X79287Y-49795D03*
X79287Y-49598D03*
X79287Y-49402D03*
X79287Y-49205D03*
X79287Y-49008D03*
G54D13*
X78992Y-48713D03*
X78795Y-48713D03*
X78598Y-48713D03*
X78402Y-48713D03*
X78205Y-48713D03*
X78008Y-48713D03*
G54D14*
X73400Y-49200D03*
X74600Y-49200D03*
X75400Y-49200D03*
X76600Y-49200D03*
X80400Y-49100D03*
X81600Y-49100D03*
X82400Y-49100D03*
X83600Y-49100D03*
G54D15*
X79573Y-48750D03*
X79927Y-48750D03*
X83073Y-50250D03*
X83427Y-50250D03*
X81073Y-50250D03*
X81427Y-50250D03*
X76927Y-50250D03*
X76573Y-50250D03*
X74927Y-50250D03*
X74573Y-50250D03*
M02*
