M48
;DRILL file {Pcbnew (2013-june-11)-stable} date Fri 01 Aug 2014 09:04:52 PM PDT
;FORMAT={-:-/ absolute / inch / decimal}
FMAT,2
INCH,TZ
T1C0.010
T2C0.032
%
G90
G05
M72
T1
X7.512Y-5.025
X7.701Y-4.894
X7.703Y-4.84
X7.708Y-4.924
X7.713Y-5.025
X7.724Y-4.859
X7.788Y-4.842
X7.86Y-5.053
X7.91Y-4.84
X7.971Y-4.961
X7.992Y-4.838
X7.993Y-4.902
X7.995Y-4.926
X7.999Y-4.95
X7.999Y-4.993
X8.08Y-4.94
X8.087Y-5.025
X8.287Y-5.025
T2
X7.35Y-4.8
X7.35Y-5.1
X7.45Y-4.8
X7.45Y-5.1
X7.55Y-4.8
X7.55Y-5.1
X7.65Y-4.8
X7.65Y-5.1
X7.75Y-4.8
X7.75Y-5.1
X7.85Y-4.8
X7.85Y-5.1
X7.95Y-4.8
X7.95Y-5.1
X8.05Y-4.8
X8.05Y-5.1
X8.15Y-4.8
X8.15Y-5.1
X8.25Y-4.8
X8.25Y-5.1
X8.35Y-4.8
X8.35Y-5.1
T0
M30
