G04 (created by PCBNEW (2013-june-11)-stable) date Fri 01 Aug 2014 09:04:51 PM PDT*
%MOIN*%
G04 Gerber Fmt 3.4, Leading zero omitted, Abs format*
%FSLAX34Y34*%
G01*
G70*
G90*
G04 APERTURE LIST*
%ADD10C,0.00590551*%
%ADD11R,0.055X0.055*%
%ADD12C,0.055*%
%ADD13C,0.027*%
%ADD14C,0.018*%
%ADD15C,0.01*%
G04 APERTURE END LIST*
G54D10*
G54D11*
X73500Y-48000D03*
G54D12*
X74500Y-48000D03*
X75500Y-48000D03*
X76500Y-48000D03*
X77500Y-48000D03*
X78500Y-48000D03*
X79500Y-48000D03*
X80500Y-48000D03*
X81500Y-48000D03*
X82500Y-48000D03*
X83500Y-48000D03*
X73500Y-51000D03*
X74500Y-51000D03*
X75500Y-51000D03*
X76500Y-51000D03*
X77500Y-51000D03*
X78500Y-51000D03*
X79500Y-51000D03*
X80500Y-51000D03*
X81500Y-51000D03*
X82500Y-51000D03*
X83500Y-51000D03*
G54D13*
X79920Y-48380D03*
X77880Y-48420D03*
G54D14*
X77240Y-48590D03*
X77030Y-48400D03*
X80800Y-49400D03*
X79990Y-49930D03*
X79930Y-49020D03*
X79950Y-49260D03*
X78600Y-50530D03*
X75120Y-50250D03*
X82870Y-50250D03*
X80870Y-50250D03*
X77130Y-50250D03*
X77010Y-48940D03*
X77080Y-49240D03*
X79710Y-49610D03*
X79990Y-49500D03*
G54D13*
X79100Y-48400D03*
G54D15*
X76690Y-48550D02*
X74050Y-48550D01*
X77240Y-48590D02*
X77220Y-48610D01*
X77220Y-48610D02*
X76949Y-48610D01*
X76949Y-48610D02*
X76890Y-48550D01*
X76890Y-48550D02*
X76690Y-48550D01*
X74050Y-48550D02*
X73500Y-48000D01*
X74890Y-48390D02*
X74500Y-48000D01*
X77020Y-48390D02*
X74890Y-48390D01*
X77030Y-48400D02*
X77020Y-48390D01*
X80520Y-49400D02*
X80800Y-49400D01*
X79990Y-49930D02*
X80520Y-49400D01*
X79930Y-49020D02*
X80500Y-48450D01*
X82090Y-48410D02*
X82500Y-48000D01*
X80540Y-48410D02*
X82090Y-48410D01*
X80500Y-48450D02*
X80540Y-48410D01*
X82929Y-48570D02*
X83500Y-48000D01*
X80606Y-48570D02*
X82929Y-48570D01*
X80138Y-49038D02*
X80606Y-48570D01*
X80138Y-49161D02*
X80138Y-49038D01*
X80040Y-49260D02*
X80138Y-49161D01*
X79950Y-49260D02*
X80040Y-49260D01*
X76940Y-50560D02*
X76500Y-51000D01*
X78570Y-50560D02*
X76940Y-50560D01*
X78600Y-50530D02*
X78570Y-50560D01*
X77130Y-50250D02*
X78750Y-50250D01*
X78750Y-50250D02*
X79500Y-51000D01*
X73500Y-49280D02*
X73500Y-51000D01*
X74069Y-48710D02*
X73500Y-49280D01*
X76780Y-48710D02*
X74069Y-48710D01*
X77010Y-48940D02*
X76780Y-48710D01*
X75500Y-49490D02*
X75500Y-51000D01*
X76119Y-48870D02*
X75500Y-49490D01*
X76650Y-48870D02*
X76119Y-48870D01*
X77020Y-49240D02*
X76650Y-48870D01*
X77080Y-49240D02*
X77020Y-49240D01*
X79710Y-49610D02*
X79710Y-49960D01*
X80500Y-50750D02*
X80500Y-51000D01*
X79710Y-49960D02*
X80500Y-50750D01*
X82500Y-49300D02*
X82500Y-51000D01*
X81930Y-48730D02*
X82500Y-49300D01*
X80672Y-48730D02*
X81930Y-48730D01*
X80306Y-49096D02*
X80672Y-48730D01*
X80306Y-49313D02*
X80306Y-49096D01*
X80120Y-49500D02*
X80306Y-49313D01*
X79990Y-49500D02*
X80120Y-49500D01*
M02*
