G04 (created by PCBNEW (2013-june-11)-stable) date Sat 19 Jul 2014 01:16:46 PM PDT*
%MOIN*%
G04 Gerber Fmt 3.4, Leading zero omitted, Abs format*
%FSLAX34Y34*%
G01*
G70*
G90*
G04 APERTURE LIST*
%ADD10C,0.00590551*%
%ADD11C,0.0354*%
%ADD12R,0.035X0.055*%
%ADD13R,0.025X0.045*%
%ADD14R,0.045X0.025*%
%ADD15R,0.0236X0.0157*%
%ADD16R,0.0157X0.0236*%
%ADD17R,0.055X0.055*%
%ADD18C,0.055*%
%ADD19R,0.0984252X0.0629921*%
%ADD20O,0.00984252X0.0315*%
G04 APERTURE END LIST*
G54D10*
G54D11*
X80085Y-33366D03*
X80085Y-31634D03*
G54D12*
X80725Y-31600D03*
X81475Y-31600D03*
G54D13*
X78900Y-30900D03*
X78300Y-30900D03*
G54D14*
X81500Y-32800D03*
X81500Y-32200D03*
G54D15*
X80500Y-32823D03*
X80500Y-33177D03*
X80500Y-32477D03*
X80500Y-32123D03*
G54D16*
X79323Y-30800D03*
X79677Y-30800D03*
X81677Y-33600D03*
X81323Y-33600D03*
X81677Y-33200D03*
X81323Y-33200D03*
G54D15*
X80900Y-32477D03*
X80900Y-32123D03*
X80900Y-32823D03*
X80900Y-33177D03*
G54D16*
X81677Y-34000D03*
X81323Y-34000D03*
X79002Y-33700D03*
X78648Y-33700D03*
X78977Y-31400D03*
X78623Y-31400D03*
G54D17*
X78500Y-35000D03*
G54D18*
X79500Y-35000D03*
X80500Y-35000D03*
X81500Y-35000D03*
G54D17*
X81500Y-30000D03*
G54D18*
X80500Y-30000D03*
X79500Y-30000D03*
X78500Y-30000D03*
G54D19*
X79100Y-32500D03*
G54D20*
X79542Y-31909D03*
X79365Y-31909D03*
X79188Y-31909D03*
X79011Y-31909D03*
X78834Y-31909D03*
X78657Y-31909D03*
X78657Y-33090D03*
X78834Y-33090D03*
X79011Y-33090D03*
X79188Y-33090D03*
X79365Y-33090D03*
X79542Y-33090D03*
M02*
