G04 (created by PCBNEW (2013-june-11)-stable) date Sun 19 Jan 2014 01:19:25 AM PST*
%MOIN*%
G04 Gerber Fmt 3.4, Leading zero omitted, Abs format*
%FSLAX34Y34*%
G01*
G70*
G90*
G04 APERTURE LIST*
%ADD10C,0.00590551*%
%ADD11C,0.023*%
%ADD12R,0.055X0.055*%
%ADD13C,0.055*%
%ADD14R,0.0984252X0.0629921*%
%ADD15O,0.0098X0.0315*%
%ADD16R,0.035X0.055*%
%ADD17R,0.045X0.025*%
%ADD18R,0.0236X0.0157*%
%ADD19R,0.0157X0.0236*%
%ADD20C,0.03*%
%ADD21C,0.02*%
%ADD22C,0.02*%
%ADD23C,0.01*%
G04 APERTURE END LIST*
G54D10*
G54D11*
X76475Y-29425D03*
G54D12*
X75000Y-29000D03*
G54D13*
X76000Y-29000D03*
X77000Y-29000D03*
X78000Y-29000D03*
X79000Y-29000D03*
G54D12*
X75000Y-35000D03*
G54D13*
X76000Y-35000D03*
X77000Y-35000D03*
X78000Y-35000D03*
X79000Y-35000D03*
G54D14*
X77750Y-32000D03*
G54D15*
X78242Y-31409D03*
X78045Y-31409D03*
X77848Y-31409D03*
X77652Y-31409D03*
X77455Y-31409D03*
X77258Y-31409D03*
X77258Y-32590D03*
X77455Y-32590D03*
X77652Y-32590D03*
X77848Y-32590D03*
X78045Y-32590D03*
X78242Y-32590D03*
G54D16*
X75975Y-30000D03*
X75225Y-30000D03*
G54D17*
X75900Y-31900D03*
X75900Y-31300D03*
X79000Y-30700D03*
X79000Y-30100D03*
G54D18*
X78850Y-32173D03*
X78850Y-32527D03*
X78850Y-31777D03*
X78850Y-31423D03*
G54D19*
X77777Y-29900D03*
X77423Y-29900D03*
G54D18*
X76100Y-32777D03*
X76100Y-32423D03*
X76500Y-31977D03*
X76500Y-31623D03*
G54D19*
X76977Y-29900D03*
X76623Y-29900D03*
G54D18*
X75600Y-32777D03*
X75600Y-32423D03*
X77700Y-33223D03*
X77700Y-33577D03*
G54D19*
X77577Y-30900D03*
X77223Y-30900D03*
G54D18*
X79200Y-31777D03*
X79200Y-31423D03*
X79200Y-32173D03*
X79200Y-32527D03*
G54D11*
X78400Y-30850D03*
G54D20*
X78550Y-30400D03*
G54D21*
X76950Y-31550D03*
X74875Y-32950D03*
X76775Y-33375D03*
X78325Y-33025D03*
G54D20*
X76650Y-32350D03*
X75150Y-30900D03*
X75850Y-33100D03*
G54D21*
X78500Y-31900D03*
X78500Y-32300D03*
X77375Y-32925D03*
X76450Y-33350D03*
X78350Y-33350D03*
X77475Y-34575D03*
G54D20*
X78900Y-33125D03*
X79000Y-29700D03*
G54D22*
X79000Y-30700D02*
X78850Y-30700D01*
X78850Y-30700D02*
X78550Y-30400D01*
X76977Y-29900D02*
X76977Y-29023D01*
X76977Y-29023D02*
X77000Y-29000D01*
X77400Y-30100D02*
X77400Y-29923D01*
G54D23*
X77848Y-31409D02*
X77848Y-30548D01*
X77848Y-30548D02*
X77800Y-30500D01*
G54D22*
X77400Y-30100D02*
X77800Y-30500D01*
X77377Y-29900D02*
X76977Y-29900D01*
X77400Y-29923D02*
X77377Y-29900D01*
G54D23*
X77258Y-31492D02*
X77200Y-31550D01*
X77200Y-31550D02*
X76950Y-31550D01*
X77258Y-31409D02*
X77258Y-31492D01*
X75000Y-33075D02*
X74875Y-32950D01*
X75000Y-33075D02*
X75000Y-35000D01*
X77000Y-34900D02*
X77000Y-35000D01*
X76775Y-34675D02*
X77000Y-34900D01*
X76775Y-34275D02*
X76775Y-34675D01*
X76775Y-33375D02*
X76775Y-34275D01*
X78045Y-32590D02*
X78045Y-32795D01*
X78275Y-33025D02*
X78325Y-33025D01*
X78045Y-32795D02*
X78275Y-33025D01*
X78242Y-32590D02*
X78242Y-32742D01*
X78577Y-32800D02*
X78850Y-32527D01*
X78300Y-32800D02*
X78577Y-32800D01*
X78242Y-32742D02*
X78300Y-32800D01*
X78350Y-31200D02*
X78627Y-31200D01*
X78242Y-31308D02*
X78350Y-31200D01*
X78242Y-31409D02*
X78242Y-31308D01*
X78627Y-31200D02*
X78850Y-31423D01*
G54D22*
X76500Y-31977D02*
X76500Y-32200D01*
X76500Y-32200D02*
X76650Y-32350D01*
X76500Y-31977D02*
X75977Y-31977D01*
X75977Y-31977D02*
X75900Y-31900D01*
X75600Y-32777D02*
X75327Y-32777D01*
X75150Y-32600D02*
X75150Y-30900D01*
X75327Y-32777D02*
X75150Y-32600D01*
X75800Y-33050D02*
X75800Y-32777D01*
X75850Y-33100D02*
X75800Y-33050D01*
X76100Y-32777D02*
X75800Y-32777D01*
X75800Y-32777D02*
X75600Y-32777D01*
G54D23*
X78623Y-31777D02*
X78500Y-31900D01*
X78850Y-31777D02*
X78623Y-31777D01*
X78750Y-31777D02*
X79200Y-31777D01*
X78627Y-32173D02*
X78500Y-32300D01*
X78850Y-32173D02*
X78627Y-32173D01*
X78750Y-32173D02*
X79200Y-32173D01*
X78045Y-31409D02*
X78045Y-30395D01*
X77777Y-30127D02*
X77777Y-29900D01*
X78045Y-30395D02*
X77777Y-30127D01*
X77777Y-29900D02*
X78100Y-29900D01*
X78100Y-29900D02*
X79000Y-29000D01*
X76450Y-33350D02*
X76450Y-34550D01*
X77455Y-32845D02*
X77375Y-32925D01*
X77455Y-32590D02*
X77455Y-32845D01*
X76450Y-34550D02*
X76000Y-35000D01*
X77848Y-32590D02*
X77848Y-32923D01*
X78275Y-33350D02*
X78350Y-33350D01*
X77848Y-32923D02*
X78275Y-33350D01*
X77425Y-33350D02*
X77425Y-34525D01*
X77258Y-32692D02*
X77150Y-32800D01*
X77150Y-32800D02*
X77150Y-33075D01*
X77150Y-33075D02*
X77425Y-33350D01*
X77258Y-32590D02*
X77258Y-32692D01*
X77425Y-34525D02*
X77475Y-34575D01*
G54D22*
X75975Y-29025D02*
X76000Y-29000D01*
X75975Y-30000D02*
X75975Y-29025D01*
X77577Y-30900D02*
X77577Y-30677D01*
X76275Y-30300D02*
X75975Y-30000D01*
X77200Y-30300D02*
X76275Y-30300D01*
X77577Y-30677D02*
X77200Y-30300D01*
X75900Y-31300D02*
X75900Y-30075D01*
X75900Y-30075D02*
X75975Y-30000D01*
G54D23*
X77652Y-31409D02*
X77652Y-30875D01*
G54D22*
X78662Y-33387D02*
X78662Y-33362D01*
G54D23*
X77873Y-33223D02*
X78250Y-33600D01*
X78250Y-33600D02*
X78450Y-33600D01*
X78450Y-33600D02*
X78662Y-33387D01*
X77700Y-33223D02*
X77873Y-33223D01*
G54D22*
X78662Y-33362D02*
X78900Y-33125D01*
X79000Y-30100D02*
X79000Y-29700D01*
G54D23*
X77652Y-32590D02*
X77652Y-33221D01*
G54D10*
G36*
X76835Y-28629D02*
X76770Y-28656D01*
X76656Y-28770D01*
X76595Y-28919D01*
X76594Y-29080D01*
X76656Y-29229D01*
X76747Y-29319D01*
X76747Y-29681D01*
X76723Y-29671D01*
X76704Y-29671D01*
X76704Y-29428D01*
X76688Y-29340D01*
X76685Y-29333D01*
X76648Y-29322D01*
X76577Y-29392D01*
X76577Y-29251D01*
X76566Y-29214D01*
X76478Y-29195D01*
X76390Y-29211D01*
X76383Y-29214D01*
X76372Y-29251D01*
X76475Y-29354D01*
X76577Y-29251D01*
X76577Y-29392D01*
X76545Y-29425D01*
X76648Y-29527D01*
X76685Y-29516D01*
X76704Y-29428D01*
X76704Y-29671D01*
X76689Y-29672D01*
X76662Y-29699D01*
X76662Y-29850D01*
X76680Y-29850D01*
X76680Y-29950D01*
X76662Y-29950D01*
X76662Y-29957D01*
X76583Y-29957D01*
X76583Y-29950D01*
X76583Y-29850D01*
X76583Y-29699D01*
X76577Y-29693D01*
X76577Y-29598D01*
X76475Y-29495D01*
X76404Y-29566D01*
X76404Y-29425D01*
X76301Y-29322D01*
X76264Y-29333D01*
X76245Y-29421D01*
X76261Y-29509D01*
X76264Y-29516D01*
X76301Y-29527D01*
X76404Y-29425D01*
X76404Y-29566D01*
X76372Y-29598D01*
X76383Y-29635D01*
X76471Y-29654D01*
X76559Y-29638D01*
X76566Y-29635D01*
X76577Y-29598D01*
X76577Y-29693D01*
X76556Y-29672D01*
X76522Y-29671D01*
X76482Y-29688D01*
X76451Y-29719D01*
X76434Y-29760D01*
X76434Y-29803D01*
X76434Y-29822D01*
X76462Y-29850D01*
X76583Y-29850D01*
X76583Y-29950D01*
X76462Y-29950D01*
X76434Y-29977D01*
X76434Y-29996D01*
X76434Y-30039D01*
X76446Y-30070D01*
X76370Y-30070D01*
X76280Y-29979D01*
X76280Y-29699D01*
X76260Y-29651D01*
X76223Y-29614D01*
X76205Y-29607D01*
X76205Y-29353D01*
X76229Y-29343D01*
X76343Y-29229D01*
X76404Y-29080D01*
X76405Y-28919D01*
X76343Y-28770D01*
X76229Y-28656D01*
X76164Y-28629D01*
X76835Y-28629D01*
X76835Y-28629D01*
G37*
G54D23*
X76835Y-28629D02*
X76770Y-28656D01*
X76656Y-28770D01*
X76595Y-28919D01*
X76594Y-29080D01*
X76656Y-29229D01*
X76747Y-29319D01*
X76747Y-29681D01*
X76723Y-29671D01*
X76704Y-29671D01*
X76704Y-29428D01*
X76688Y-29340D01*
X76685Y-29333D01*
X76648Y-29322D01*
X76577Y-29392D01*
X76577Y-29251D01*
X76566Y-29214D01*
X76478Y-29195D01*
X76390Y-29211D01*
X76383Y-29214D01*
X76372Y-29251D01*
X76475Y-29354D01*
X76577Y-29251D01*
X76577Y-29392D01*
X76545Y-29425D01*
X76648Y-29527D01*
X76685Y-29516D01*
X76704Y-29428D01*
X76704Y-29671D01*
X76689Y-29672D01*
X76662Y-29699D01*
X76662Y-29850D01*
X76680Y-29850D01*
X76680Y-29950D01*
X76662Y-29950D01*
X76662Y-29957D01*
X76583Y-29957D01*
X76583Y-29950D01*
X76583Y-29850D01*
X76583Y-29699D01*
X76577Y-29693D01*
X76577Y-29598D01*
X76475Y-29495D01*
X76404Y-29566D01*
X76404Y-29425D01*
X76301Y-29322D01*
X76264Y-29333D01*
X76245Y-29421D01*
X76261Y-29509D01*
X76264Y-29516D01*
X76301Y-29527D01*
X76404Y-29425D01*
X76404Y-29566D01*
X76372Y-29598D01*
X76383Y-29635D01*
X76471Y-29654D01*
X76559Y-29638D01*
X76566Y-29635D01*
X76577Y-29598D01*
X76577Y-29693D01*
X76556Y-29672D01*
X76522Y-29671D01*
X76482Y-29688D01*
X76451Y-29719D01*
X76434Y-29760D01*
X76434Y-29803D01*
X76434Y-29822D01*
X76462Y-29850D01*
X76583Y-29850D01*
X76583Y-29950D01*
X76462Y-29950D01*
X76434Y-29977D01*
X76434Y-29996D01*
X76434Y-30039D01*
X76446Y-30070D01*
X76370Y-30070D01*
X76280Y-29979D01*
X76280Y-29699D01*
X76260Y-29651D01*
X76223Y-29614D01*
X76205Y-29607D01*
X76205Y-29353D01*
X76229Y-29343D01*
X76343Y-29229D01*
X76404Y-29080D01*
X76405Y-28919D01*
X76343Y-28770D01*
X76229Y-28656D01*
X76164Y-28629D01*
X76835Y-28629D01*
G54D10*
G36*
X79370Y-31247D02*
X79355Y-31240D01*
X79355Y-30799D01*
X79355Y-30549D01*
X79335Y-30501D01*
X79298Y-30464D01*
X79250Y-30445D01*
X79199Y-30444D01*
X78920Y-30444D01*
X78830Y-30355D01*
X79250Y-30355D01*
X79298Y-30335D01*
X79335Y-30298D01*
X79354Y-30250D01*
X79355Y-30199D01*
X79355Y-29949D01*
X79335Y-29901D01*
X79298Y-29864D01*
X79250Y-29845D01*
X79242Y-29845D01*
X79279Y-29755D01*
X79280Y-29644D01*
X79237Y-29541D01*
X79158Y-29462D01*
X79055Y-29420D01*
X78944Y-29419D01*
X78841Y-29462D01*
X78762Y-29541D01*
X78720Y-29644D01*
X78719Y-29755D01*
X78756Y-29844D01*
X78749Y-29844D01*
X78701Y-29864D01*
X78664Y-29901D01*
X78645Y-29949D01*
X78644Y-30000D01*
X78644Y-30136D01*
X78605Y-30120D01*
X78494Y-30119D01*
X78391Y-30162D01*
X78312Y-30241D01*
X78270Y-30344D01*
X78269Y-30455D01*
X78312Y-30558D01*
X78379Y-30625D01*
X78315Y-30636D01*
X78308Y-30639D01*
X78297Y-30676D01*
X78400Y-30779D01*
X78405Y-30773D01*
X78476Y-30844D01*
X78470Y-30850D01*
X78573Y-30952D01*
X78610Y-30941D01*
X78629Y-30853D01*
X78618Y-30793D01*
X78644Y-30820D01*
X78644Y-30850D01*
X78664Y-30898D01*
X78701Y-30935D01*
X78749Y-30954D01*
X78800Y-30955D01*
X79250Y-30955D01*
X79298Y-30935D01*
X79335Y-30898D01*
X79354Y-30850D01*
X79355Y-30799D01*
X79355Y-31240D01*
X79339Y-31234D01*
X79296Y-31234D01*
X79277Y-31234D01*
X79250Y-31262D01*
X79250Y-31383D01*
X79257Y-31383D01*
X79257Y-31462D01*
X79250Y-31462D01*
X79250Y-31480D01*
X79150Y-31480D01*
X79150Y-31462D01*
X79142Y-31462D01*
X79142Y-31383D01*
X79150Y-31383D01*
X79150Y-31262D01*
X79122Y-31234D01*
X79103Y-31234D01*
X79060Y-31234D01*
X79025Y-31249D01*
X78989Y-31234D01*
X78946Y-31234D01*
X78887Y-31234D01*
X78740Y-31086D01*
X78688Y-31052D01*
X78627Y-31040D01*
X78497Y-31040D01*
X78502Y-31023D01*
X78400Y-30920D01*
X78297Y-31023D01*
X78305Y-31048D01*
X78288Y-31052D01*
X78236Y-31086D01*
X78205Y-31118D01*
X78205Y-30946D01*
X78226Y-30952D01*
X78329Y-30850D01*
X78226Y-30747D01*
X78205Y-30753D01*
X78205Y-30395D01*
X78192Y-30333D01*
X78158Y-30281D01*
X78158Y-30281D01*
X77951Y-30074D01*
X77957Y-30060D01*
X78100Y-30060D01*
X78161Y-30047D01*
X78161Y-30047D01*
X78213Y-30013D01*
X78865Y-29360D01*
X78923Y-29384D01*
X79076Y-29385D01*
X79217Y-29326D01*
X79326Y-29218D01*
X79370Y-29112D01*
X79370Y-31247D01*
X79370Y-31247D01*
G37*
G54D23*
X79370Y-31247D02*
X79355Y-31240D01*
X79355Y-30799D01*
X79355Y-30549D01*
X79335Y-30501D01*
X79298Y-30464D01*
X79250Y-30445D01*
X79199Y-30444D01*
X78920Y-30444D01*
X78830Y-30355D01*
X79250Y-30355D01*
X79298Y-30335D01*
X79335Y-30298D01*
X79354Y-30250D01*
X79355Y-30199D01*
X79355Y-29949D01*
X79335Y-29901D01*
X79298Y-29864D01*
X79250Y-29845D01*
X79242Y-29845D01*
X79279Y-29755D01*
X79280Y-29644D01*
X79237Y-29541D01*
X79158Y-29462D01*
X79055Y-29420D01*
X78944Y-29419D01*
X78841Y-29462D01*
X78762Y-29541D01*
X78720Y-29644D01*
X78719Y-29755D01*
X78756Y-29844D01*
X78749Y-29844D01*
X78701Y-29864D01*
X78664Y-29901D01*
X78645Y-29949D01*
X78644Y-30000D01*
X78644Y-30136D01*
X78605Y-30120D01*
X78494Y-30119D01*
X78391Y-30162D01*
X78312Y-30241D01*
X78270Y-30344D01*
X78269Y-30455D01*
X78312Y-30558D01*
X78379Y-30625D01*
X78315Y-30636D01*
X78308Y-30639D01*
X78297Y-30676D01*
X78400Y-30779D01*
X78405Y-30773D01*
X78476Y-30844D01*
X78470Y-30850D01*
X78573Y-30952D01*
X78610Y-30941D01*
X78629Y-30853D01*
X78618Y-30793D01*
X78644Y-30820D01*
X78644Y-30850D01*
X78664Y-30898D01*
X78701Y-30935D01*
X78749Y-30954D01*
X78800Y-30955D01*
X79250Y-30955D01*
X79298Y-30935D01*
X79335Y-30898D01*
X79354Y-30850D01*
X79355Y-30799D01*
X79355Y-31240D01*
X79339Y-31234D01*
X79296Y-31234D01*
X79277Y-31234D01*
X79250Y-31262D01*
X79250Y-31383D01*
X79257Y-31383D01*
X79257Y-31462D01*
X79250Y-31462D01*
X79250Y-31480D01*
X79150Y-31480D01*
X79150Y-31462D01*
X79142Y-31462D01*
X79142Y-31383D01*
X79150Y-31383D01*
X79150Y-31262D01*
X79122Y-31234D01*
X79103Y-31234D01*
X79060Y-31234D01*
X79025Y-31249D01*
X78989Y-31234D01*
X78946Y-31234D01*
X78887Y-31234D01*
X78740Y-31086D01*
X78688Y-31052D01*
X78627Y-31040D01*
X78497Y-31040D01*
X78502Y-31023D01*
X78400Y-30920D01*
X78297Y-31023D01*
X78305Y-31048D01*
X78288Y-31052D01*
X78236Y-31086D01*
X78205Y-31118D01*
X78205Y-30946D01*
X78226Y-30952D01*
X78329Y-30850D01*
X78226Y-30747D01*
X78205Y-30753D01*
X78205Y-30395D01*
X78192Y-30333D01*
X78158Y-30281D01*
X78158Y-30281D01*
X77951Y-30074D01*
X77957Y-30060D01*
X78100Y-30060D01*
X78161Y-30047D01*
X78161Y-30047D01*
X78213Y-30013D01*
X78865Y-29360D01*
X78923Y-29384D01*
X79076Y-29385D01*
X79217Y-29326D01*
X79326Y-29218D01*
X79370Y-29112D01*
X79370Y-31247D01*
G54D10*
G36*
X79370Y-34888D02*
X79326Y-34782D01*
X79218Y-34673D01*
X79076Y-34615D01*
X78923Y-34614D01*
X78782Y-34673D01*
X78673Y-34781D01*
X78615Y-34923D01*
X78614Y-35076D01*
X78673Y-35217D01*
X78781Y-35326D01*
X78887Y-35370D01*
X78111Y-35370D01*
X78217Y-35326D01*
X78326Y-35218D01*
X78384Y-35076D01*
X78385Y-34923D01*
X78326Y-34782D01*
X78218Y-34673D01*
X78076Y-34615D01*
X77928Y-34614D01*
X77928Y-33677D01*
X77928Y-33643D01*
X77900Y-33616D01*
X77750Y-33616D01*
X77750Y-33738D01*
X77777Y-33765D01*
X77796Y-33765D01*
X77839Y-33765D01*
X77880Y-33748D01*
X77911Y-33717D01*
X77928Y-33677D01*
X77928Y-34614D01*
X77923Y-34614D01*
X77782Y-34673D01*
X77673Y-34781D01*
X77615Y-34923D01*
X77614Y-35076D01*
X77673Y-35217D01*
X77781Y-35326D01*
X77887Y-35370D01*
X77111Y-35370D01*
X77217Y-35326D01*
X77326Y-35218D01*
X77384Y-35076D01*
X77385Y-34923D01*
X77326Y-34782D01*
X77218Y-34673D01*
X77076Y-34615D01*
X76941Y-34614D01*
X76935Y-34608D01*
X76935Y-34275D01*
X76935Y-33512D01*
X76952Y-33494D01*
X76984Y-33416D01*
X76985Y-33333D01*
X76953Y-33256D01*
X76930Y-33233D01*
X76930Y-32294D01*
X76887Y-32191D01*
X76808Y-32112D01*
X76745Y-32086D01*
X76747Y-32081D01*
X76748Y-32029D01*
X76748Y-31872D01*
X76728Y-31824D01*
X76691Y-31788D01*
X76688Y-31786D01*
X76711Y-31763D01*
X76728Y-31723D01*
X76728Y-31522D01*
X76711Y-31482D01*
X76680Y-31451D01*
X76639Y-31434D01*
X76596Y-31434D01*
X76577Y-31434D01*
X76550Y-31462D01*
X76550Y-31583D01*
X76700Y-31583D01*
X76728Y-31556D01*
X76728Y-31522D01*
X76728Y-31723D01*
X76728Y-31689D01*
X76700Y-31662D01*
X76550Y-31662D01*
X76550Y-31680D01*
X76450Y-31680D01*
X76450Y-31662D01*
X76450Y-31583D01*
X76450Y-31462D01*
X76422Y-31434D01*
X76403Y-31434D01*
X76360Y-31434D01*
X76319Y-31451D01*
X76288Y-31482D01*
X76271Y-31522D01*
X76272Y-31556D01*
X76299Y-31583D01*
X76450Y-31583D01*
X76450Y-31662D01*
X76299Y-31662D01*
X76272Y-31689D01*
X76271Y-31723D01*
X76281Y-31747D01*
X76254Y-31747D01*
X76235Y-31701D01*
X76198Y-31664D01*
X76150Y-31645D01*
X76099Y-31644D01*
X75649Y-31644D01*
X75601Y-31664D01*
X75564Y-31701D01*
X75545Y-31749D01*
X75544Y-31800D01*
X75544Y-32050D01*
X75564Y-32098D01*
X75601Y-32135D01*
X75649Y-32154D01*
X75700Y-32155D01*
X75837Y-32155D01*
X75837Y-32155D01*
X75888Y-32189D01*
X75976Y-32207D01*
X75976Y-32206D01*
X75977Y-32207D01*
X76271Y-32207D01*
X76280Y-32251D01*
X76239Y-32234D01*
X76196Y-32234D01*
X76177Y-32234D01*
X76150Y-32262D01*
X76150Y-32383D01*
X76300Y-32383D01*
X76328Y-32356D01*
X76328Y-32348D01*
X76337Y-32362D01*
X76369Y-32395D01*
X76369Y-32405D01*
X76412Y-32508D01*
X76491Y-32587D01*
X76499Y-32590D01*
X76422Y-32622D01*
X76348Y-32697D01*
X76348Y-32672D01*
X76328Y-32624D01*
X76291Y-32588D01*
X76288Y-32586D01*
X76311Y-32563D01*
X76328Y-32523D01*
X76328Y-32489D01*
X76300Y-32462D01*
X76150Y-32462D01*
X76150Y-32480D01*
X76050Y-32480D01*
X76050Y-32462D01*
X76050Y-32383D01*
X76050Y-32262D01*
X76022Y-32234D01*
X76003Y-32234D01*
X75960Y-32234D01*
X75919Y-32251D01*
X75888Y-32282D01*
X75871Y-32322D01*
X75872Y-32356D01*
X75899Y-32383D01*
X76050Y-32383D01*
X76050Y-32462D01*
X75899Y-32462D01*
X75872Y-32489D01*
X75871Y-32523D01*
X75881Y-32547D01*
X75818Y-32547D01*
X75828Y-32523D01*
X75828Y-32322D01*
X75811Y-32282D01*
X75780Y-32251D01*
X75739Y-32234D01*
X75696Y-32234D01*
X75677Y-32234D01*
X75650Y-32262D01*
X75650Y-32383D01*
X75800Y-32383D01*
X75828Y-32356D01*
X75828Y-32322D01*
X75828Y-32523D01*
X75828Y-32489D01*
X75800Y-32462D01*
X75650Y-32462D01*
X75650Y-32480D01*
X75550Y-32480D01*
X75550Y-32462D01*
X75542Y-32462D01*
X75542Y-32383D01*
X75550Y-32383D01*
X75550Y-32262D01*
X75522Y-32234D01*
X75510Y-32234D01*
X75510Y-30253D01*
X75510Y-29746D01*
X75509Y-29703D01*
X75493Y-29662D01*
X75462Y-29631D01*
X75421Y-29614D01*
X75385Y-29614D01*
X75385Y-29253D01*
X75385Y-29077D01*
X75357Y-29050D01*
X75050Y-29050D01*
X75050Y-29357D01*
X75077Y-29385D01*
X75296Y-29385D01*
X75337Y-29368D01*
X75368Y-29337D01*
X75384Y-29296D01*
X75385Y-29253D01*
X75385Y-29614D01*
X75302Y-29615D01*
X75275Y-29642D01*
X75275Y-29950D01*
X75482Y-29950D01*
X75510Y-29922D01*
X75510Y-29746D01*
X75510Y-30253D01*
X75510Y-30077D01*
X75482Y-30050D01*
X75275Y-30050D01*
X75275Y-30357D01*
X75302Y-30385D01*
X75421Y-30385D01*
X75462Y-30368D01*
X75493Y-30337D01*
X75509Y-30296D01*
X75510Y-30253D01*
X75510Y-32234D01*
X75503Y-32234D01*
X75460Y-32234D01*
X75419Y-32251D01*
X75388Y-32282D01*
X75380Y-32303D01*
X75380Y-31066D01*
X75387Y-31058D01*
X75429Y-30955D01*
X75430Y-30844D01*
X75387Y-30741D01*
X75308Y-30662D01*
X75205Y-30620D01*
X75175Y-30620D01*
X75175Y-30357D01*
X75175Y-30050D01*
X75175Y-29950D01*
X75175Y-29642D01*
X75147Y-29615D01*
X75028Y-29614D01*
X74987Y-29631D01*
X74956Y-29662D01*
X74940Y-29703D01*
X74939Y-29746D01*
X74940Y-29922D01*
X74967Y-29950D01*
X75175Y-29950D01*
X75175Y-30050D01*
X74967Y-30050D01*
X74940Y-30077D01*
X74939Y-30253D01*
X74940Y-30296D01*
X74956Y-30337D01*
X74987Y-30368D01*
X75028Y-30385D01*
X75147Y-30385D01*
X75175Y-30357D01*
X75175Y-30620D01*
X75094Y-30619D01*
X74991Y-30662D01*
X74912Y-30741D01*
X74870Y-30844D01*
X74869Y-30955D01*
X74912Y-31058D01*
X74920Y-31065D01*
X74920Y-32600D01*
X74937Y-32688D01*
X74987Y-32762D01*
X75164Y-32939D01*
X75238Y-32989D01*
X75238Y-32989D01*
X75327Y-33007D01*
X75570Y-33007D01*
X75570Y-33050D01*
X75570Y-33050D01*
X75569Y-33155D01*
X75612Y-33258D01*
X75691Y-33337D01*
X75794Y-33379D01*
X75905Y-33380D01*
X76008Y-33337D01*
X76087Y-33258D01*
X76129Y-33155D01*
X76130Y-33044D01*
X76113Y-33004D01*
X76188Y-32989D01*
X76193Y-32985D01*
X76243Y-32985D01*
X76291Y-32965D01*
X76308Y-32948D01*
X76341Y-33028D01*
X76422Y-33109D01*
X76527Y-33152D01*
X76641Y-33153D01*
X76747Y-33109D01*
X76828Y-33028D01*
X76871Y-32923D01*
X76872Y-32809D01*
X76828Y-32703D01*
X76747Y-32622D01*
X76735Y-32617D01*
X76808Y-32587D01*
X76887Y-32508D01*
X76929Y-32405D01*
X76930Y-32294D01*
X76930Y-33233D01*
X76894Y-33197D01*
X76816Y-33165D01*
X76733Y-33164D01*
X76656Y-33196D01*
X76624Y-33228D01*
X76569Y-33172D01*
X76491Y-33140D01*
X76408Y-33139D01*
X76331Y-33171D01*
X76272Y-33230D01*
X76240Y-33308D01*
X76239Y-33391D01*
X76271Y-33468D01*
X76290Y-33486D01*
X76290Y-34483D01*
X76134Y-34639D01*
X76076Y-34615D01*
X75923Y-34614D01*
X75782Y-34673D01*
X75673Y-34781D01*
X75615Y-34923D01*
X75614Y-35076D01*
X75673Y-35217D01*
X75781Y-35326D01*
X75887Y-35370D01*
X75332Y-35370D01*
X75337Y-35368D01*
X75368Y-35337D01*
X75384Y-35296D01*
X75385Y-35253D01*
X75385Y-34703D01*
X75368Y-34662D01*
X75337Y-34631D01*
X75296Y-34615D01*
X75253Y-34614D01*
X75160Y-34614D01*
X75160Y-33075D01*
X75159Y-33074D01*
X75147Y-33013D01*
X75113Y-32961D01*
X75113Y-32961D01*
X75085Y-32933D01*
X75085Y-32908D01*
X75053Y-32831D01*
X74994Y-32772D01*
X74916Y-32740D01*
X74833Y-32739D01*
X74756Y-32771D01*
X74697Y-32830D01*
X74665Y-32908D01*
X74664Y-32991D01*
X74696Y-33068D01*
X74755Y-33127D01*
X74833Y-33159D01*
X74840Y-33159D01*
X74840Y-34614D01*
X74703Y-34614D01*
X74662Y-34631D01*
X74631Y-34662D01*
X74629Y-34667D01*
X74629Y-29332D01*
X74631Y-29337D01*
X74662Y-29368D01*
X74703Y-29385D01*
X74922Y-29385D01*
X74950Y-29357D01*
X74950Y-29050D01*
X74942Y-29050D01*
X74942Y-28950D01*
X74950Y-28950D01*
X74950Y-28942D01*
X75050Y-28942D01*
X75050Y-28950D01*
X75357Y-28950D01*
X75385Y-28922D01*
X75385Y-28746D01*
X75384Y-28703D01*
X75368Y-28662D01*
X75337Y-28631D01*
X75332Y-28629D01*
X75835Y-28629D01*
X75770Y-28656D01*
X75656Y-28770D01*
X75595Y-28919D01*
X75594Y-29080D01*
X75656Y-29229D01*
X75745Y-29317D01*
X75745Y-29607D01*
X75726Y-29614D01*
X75689Y-29651D01*
X75670Y-29699D01*
X75669Y-29750D01*
X75669Y-30300D01*
X75670Y-30300D01*
X75670Y-31044D01*
X75649Y-31044D01*
X75601Y-31064D01*
X75564Y-31101D01*
X75545Y-31149D01*
X75544Y-31200D01*
X75544Y-31450D01*
X75564Y-31498D01*
X75601Y-31535D01*
X75649Y-31554D01*
X75700Y-31555D01*
X76150Y-31555D01*
X76198Y-31535D01*
X76235Y-31498D01*
X76254Y-31450D01*
X76255Y-31399D01*
X76255Y-31149D01*
X76235Y-31101D01*
X76198Y-31064D01*
X76150Y-31045D01*
X76130Y-31045D01*
X76130Y-30474D01*
X76186Y-30512D01*
X76274Y-30530D01*
X76274Y-30529D01*
X76275Y-30530D01*
X77104Y-30530D01*
X77268Y-30693D01*
X77262Y-30699D01*
X77262Y-30850D01*
X77280Y-30850D01*
X77280Y-30950D01*
X77262Y-30950D01*
X77262Y-31100D01*
X77289Y-31128D01*
X77323Y-31128D01*
X77363Y-31111D01*
X77386Y-31088D01*
X77388Y-31091D01*
X77424Y-31128D01*
X77472Y-31147D01*
X77472Y-31409D01*
X77473Y-31414D01*
X77473Y-31467D01*
X77430Y-31467D01*
X77430Y-31459D01*
X77418Y-31459D01*
X77418Y-31409D01*
X77417Y-31404D01*
X77417Y-31359D01*
X77430Y-31359D01*
X77430Y-31172D01*
X77406Y-31150D01*
X77377Y-31153D01*
X77354Y-31172D01*
X77318Y-31149D01*
X77258Y-31137D01*
X77197Y-31149D01*
X77183Y-31158D01*
X77183Y-31100D01*
X77183Y-30950D01*
X77183Y-30850D01*
X77183Y-30699D01*
X77156Y-30672D01*
X77122Y-30671D01*
X77082Y-30688D01*
X77051Y-30719D01*
X77034Y-30760D01*
X77034Y-30803D01*
X77034Y-30822D01*
X77062Y-30850D01*
X77183Y-30850D01*
X77183Y-30950D01*
X77062Y-30950D01*
X77034Y-30977D01*
X77034Y-30996D01*
X77034Y-31039D01*
X77051Y-31080D01*
X77082Y-31111D01*
X77122Y-31128D01*
X77156Y-31128D01*
X77183Y-31100D01*
X77183Y-31158D01*
X77145Y-31183D01*
X77111Y-31235D01*
X77099Y-31296D01*
X77099Y-31390D01*
X77087Y-31390D01*
X77069Y-31372D01*
X76991Y-31340D01*
X76908Y-31339D01*
X76872Y-31354D01*
X76872Y-31077D01*
X76828Y-30971D01*
X76747Y-30890D01*
X76642Y-30847D01*
X76528Y-30846D01*
X76422Y-30890D01*
X76341Y-30971D01*
X76298Y-31076D01*
X76297Y-31190D01*
X76341Y-31296D01*
X76422Y-31377D01*
X76527Y-31420D01*
X76641Y-31421D01*
X76747Y-31377D01*
X76828Y-31296D01*
X76871Y-31191D01*
X76872Y-31077D01*
X76872Y-31354D01*
X76831Y-31371D01*
X76772Y-31430D01*
X76740Y-31508D01*
X76739Y-31591D01*
X76771Y-31668D01*
X76830Y-31727D01*
X76908Y-31759D01*
X76991Y-31760D01*
X77068Y-31728D01*
X77086Y-31710D01*
X77147Y-31710D01*
X77147Y-31922D01*
X77175Y-31950D01*
X77700Y-31950D01*
X77700Y-31942D01*
X77800Y-31942D01*
X77800Y-31950D01*
X77807Y-31950D01*
X77807Y-32050D01*
X77800Y-32050D01*
X77800Y-32057D01*
X77700Y-32057D01*
X77700Y-32050D01*
X77175Y-32050D01*
X77147Y-32077D01*
X77147Y-32293D01*
X77147Y-32336D01*
X77156Y-32356D01*
X77145Y-32363D01*
X77111Y-32415D01*
X77099Y-32476D01*
X77099Y-32585D01*
X77098Y-32590D01*
X77098Y-32625D01*
X77036Y-32686D01*
X77002Y-32738D01*
X76990Y-32800D01*
X76990Y-33075D01*
X77002Y-33136D01*
X77036Y-33188D01*
X77265Y-33416D01*
X77265Y-34525D01*
X77266Y-34530D01*
X77265Y-34533D01*
X77264Y-34616D01*
X77296Y-34693D01*
X77355Y-34752D01*
X77433Y-34784D01*
X77516Y-34785D01*
X77593Y-34753D01*
X77652Y-34694D01*
X77684Y-34616D01*
X77685Y-34533D01*
X77653Y-34456D01*
X77594Y-34397D01*
X77585Y-34393D01*
X77585Y-33765D01*
X77603Y-33765D01*
X77622Y-33765D01*
X77650Y-33738D01*
X77650Y-33616D01*
X77642Y-33616D01*
X77642Y-33537D01*
X77650Y-33537D01*
X77650Y-33519D01*
X77750Y-33519D01*
X77750Y-33537D01*
X77900Y-33537D01*
X77916Y-33521D01*
X78122Y-33727D01*
X78122Y-33727D01*
X78181Y-33766D01*
X78250Y-33780D01*
X78450Y-33780D01*
X78518Y-33766D01*
X78577Y-33727D01*
X78693Y-33611D01*
X78750Y-33599D01*
X78825Y-33550D01*
X78874Y-33475D01*
X78875Y-33475D01*
X78945Y-33405D01*
X78955Y-33405D01*
X79058Y-33362D01*
X79137Y-33283D01*
X79179Y-33180D01*
X79180Y-33069D01*
X79137Y-32966D01*
X79058Y-32887D01*
X78955Y-32845D01*
X78844Y-32844D01*
X78741Y-32887D01*
X78662Y-32966D01*
X78620Y-33069D01*
X78620Y-33079D01*
X78499Y-33199D01*
X78498Y-33201D01*
X78472Y-33174D01*
X78502Y-33144D01*
X78534Y-33066D01*
X78535Y-32983D01*
X78525Y-32960D01*
X78577Y-32960D01*
X78638Y-32947D01*
X78638Y-32947D01*
X78690Y-32913D01*
X78887Y-32715D01*
X78989Y-32715D01*
X79025Y-32700D01*
X79060Y-32715D01*
X79103Y-32715D01*
X79122Y-32715D01*
X79150Y-32688D01*
X79150Y-32566D01*
X79142Y-32566D01*
X79142Y-32487D01*
X79150Y-32487D01*
X79150Y-32469D01*
X79250Y-32469D01*
X79250Y-32487D01*
X79257Y-32487D01*
X79257Y-32566D01*
X79250Y-32566D01*
X79250Y-32688D01*
X79277Y-32715D01*
X79296Y-32715D01*
X79339Y-32715D01*
X79370Y-32702D01*
X79370Y-34888D01*
X79370Y-34888D01*
G37*
G54D23*
X79370Y-34888D02*
X79326Y-34782D01*
X79218Y-34673D01*
X79076Y-34615D01*
X78923Y-34614D01*
X78782Y-34673D01*
X78673Y-34781D01*
X78615Y-34923D01*
X78614Y-35076D01*
X78673Y-35217D01*
X78781Y-35326D01*
X78887Y-35370D01*
X78111Y-35370D01*
X78217Y-35326D01*
X78326Y-35218D01*
X78384Y-35076D01*
X78385Y-34923D01*
X78326Y-34782D01*
X78218Y-34673D01*
X78076Y-34615D01*
X77928Y-34614D01*
X77928Y-33677D01*
X77928Y-33643D01*
X77900Y-33616D01*
X77750Y-33616D01*
X77750Y-33738D01*
X77777Y-33765D01*
X77796Y-33765D01*
X77839Y-33765D01*
X77880Y-33748D01*
X77911Y-33717D01*
X77928Y-33677D01*
X77928Y-34614D01*
X77923Y-34614D01*
X77782Y-34673D01*
X77673Y-34781D01*
X77615Y-34923D01*
X77614Y-35076D01*
X77673Y-35217D01*
X77781Y-35326D01*
X77887Y-35370D01*
X77111Y-35370D01*
X77217Y-35326D01*
X77326Y-35218D01*
X77384Y-35076D01*
X77385Y-34923D01*
X77326Y-34782D01*
X77218Y-34673D01*
X77076Y-34615D01*
X76941Y-34614D01*
X76935Y-34608D01*
X76935Y-34275D01*
X76935Y-33512D01*
X76952Y-33494D01*
X76984Y-33416D01*
X76985Y-33333D01*
X76953Y-33256D01*
X76930Y-33233D01*
X76930Y-32294D01*
X76887Y-32191D01*
X76808Y-32112D01*
X76745Y-32086D01*
X76747Y-32081D01*
X76748Y-32029D01*
X76748Y-31872D01*
X76728Y-31824D01*
X76691Y-31788D01*
X76688Y-31786D01*
X76711Y-31763D01*
X76728Y-31723D01*
X76728Y-31522D01*
X76711Y-31482D01*
X76680Y-31451D01*
X76639Y-31434D01*
X76596Y-31434D01*
X76577Y-31434D01*
X76550Y-31462D01*
X76550Y-31583D01*
X76700Y-31583D01*
X76728Y-31556D01*
X76728Y-31522D01*
X76728Y-31723D01*
X76728Y-31689D01*
X76700Y-31662D01*
X76550Y-31662D01*
X76550Y-31680D01*
X76450Y-31680D01*
X76450Y-31662D01*
X76450Y-31583D01*
X76450Y-31462D01*
X76422Y-31434D01*
X76403Y-31434D01*
X76360Y-31434D01*
X76319Y-31451D01*
X76288Y-31482D01*
X76271Y-31522D01*
X76272Y-31556D01*
X76299Y-31583D01*
X76450Y-31583D01*
X76450Y-31662D01*
X76299Y-31662D01*
X76272Y-31689D01*
X76271Y-31723D01*
X76281Y-31747D01*
X76254Y-31747D01*
X76235Y-31701D01*
X76198Y-31664D01*
X76150Y-31645D01*
X76099Y-31644D01*
X75649Y-31644D01*
X75601Y-31664D01*
X75564Y-31701D01*
X75545Y-31749D01*
X75544Y-31800D01*
X75544Y-32050D01*
X75564Y-32098D01*
X75601Y-32135D01*
X75649Y-32154D01*
X75700Y-32155D01*
X75837Y-32155D01*
X75837Y-32155D01*
X75888Y-32189D01*
X75976Y-32207D01*
X75976Y-32206D01*
X75977Y-32207D01*
X76271Y-32207D01*
X76280Y-32251D01*
X76239Y-32234D01*
X76196Y-32234D01*
X76177Y-32234D01*
X76150Y-32262D01*
X76150Y-32383D01*
X76300Y-32383D01*
X76328Y-32356D01*
X76328Y-32348D01*
X76337Y-32362D01*
X76369Y-32395D01*
X76369Y-32405D01*
X76412Y-32508D01*
X76491Y-32587D01*
X76499Y-32590D01*
X76422Y-32622D01*
X76348Y-32697D01*
X76348Y-32672D01*
X76328Y-32624D01*
X76291Y-32588D01*
X76288Y-32586D01*
X76311Y-32563D01*
X76328Y-32523D01*
X76328Y-32489D01*
X76300Y-32462D01*
X76150Y-32462D01*
X76150Y-32480D01*
X76050Y-32480D01*
X76050Y-32462D01*
X76050Y-32383D01*
X76050Y-32262D01*
X76022Y-32234D01*
X76003Y-32234D01*
X75960Y-32234D01*
X75919Y-32251D01*
X75888Y-32282D01*
X75871Y-32322D01*
X75872Y-32356D01*
X75899Y-32383D01*
X76050Y-32383D01*
X76050Y-32462D01*
X75899Y-32462D01*
X75872Y-32489D01*
X75871Y-32523D01*
X75881Y-32547D01*
X75818Y-32547D01*
X75828Y-32523D01*
X75828Y-32322D01*
X75811Y-32282D01*
X75780Y-32251D01*
X75739Y-32234D01*
X75696Y-32234D01*
X75677Y-32234D01*
X75650Y-32262D01*
X75650Y-32383D01*
X75800Y-32383D01*
X75828Y-32356D01*
X75828Y-32322D01*
X75828Y-32523D01*
X75828Y-32489D01*
X75800Y-32462D01*
X75650Y-32462D01*
X75650Y-32480D01*
X75550Y-32480D01*
X75550Y-32462D01*
X75542Y-32462D01*
X75542Y-32383D01*
X75550Y-32383D01*
X75550Y-32262D01*
X75522Y-32234D01*
X75510Y-32234D01*
X75510Y-30253D01*
X75510Y-29746D01*
X75509Y-29703D01*
X75493Y-29662D01*
X75462Y-29631D01*
X75421Y-29614D01*
X75385Y-29614D01*
X75385Y-29253D01*
X75385Y-29077D01*
X75357Y-29050D01*
X75050Y-29050D01*
X75050Y-29357D01*
X75077Y-29385D01*
X75296Y-29385D01*
X75337Y-29368D01*
X75368Y-29337D01*
X75384Y-29296D01*
X75385Y-29253D01*
X75385Y-29614D01*
X75302Y-29615D01*
X75275Y-29642D01*
X75275Y-29950D01*
X75482Y-29950D01*
X75510Y-29922D01*
X75510Y-29746D01*
X75510Y-30253D01*
X75510Y-30077D01*
X75482Y-30050D01*
X75275Y-30050D01*
X75275Y-30357D01*
X75302Y-30385D01*
X75421Y-30385D01*
X75462Y-30368D01*
X75493Y-30337D01*
X75509Y-30296D01*
X75510Y-30253D01*
X75510Y-32234D01*
X75503Y-32234D01*
X75460Y-32234D01*
X75419Y-32251D01*
X75388Y-32282D01*
X75380Y-32303D01*
X75380Y-31066D01*
X75387Y-31058D01*
X75429Y-30955D01*
X75430Y-30844D01*
X75387Y-30741D01*
X75308Y-30662D01*
X75205Y-30620D01*
X75175Y-30620D01*
X75175Y-30357D01*
X75175Y-30050D01*
X75175Y-29950D01*
X75175Y-29642D01*
X75147Y-29615D01*
X75028Y-29614D01*
X74987Y-29631D01*
X74956Y-29662D01*
X74940Y-29703D01*
X74939Y-29746D01*
X74940Y-29922D01*
X74967Y-29950D01*
X75175Y-29950D01*
X75175Y-30050D01*
X74967Y-30050D01*
X74940Y-30077D01*
X74939Y-30253D01*
X74940Y-30296D01*
X74956Y-30337D01*
X74987Y-30368D01*
X75028Y-30385D01*
X75147Y-30385D01*
X75175Y-30357D01*
X75175Y-30620D01*
X75094Y-30619D01*
X74991Y-30662D01*
X74912Y-30741D01*
X74870Y-30844D01*
X74869Y-30955D01*
X74912Y-31058D01*
X74920Y-31065D01*
X74920Y-32600D01*
X74937Y-32688D01*
X74987Y-32762D01*
X75164Y-32939D01*
X75238Y-32989D01*
X75238Y-32989D01*
X75327Y-33007D01*
X75570Y-33007D01*
X75570Y-33050D01*
X75570Y-33050D01*
X75569Y-33155D01*
X75612Y-33258D01*
X75691Y-33337D01*
X75794Y-33379D01*
X75905Y-33380D01*
X76008Y-33337D01*
X76087Y-33258D01*
X76129Y-33155D01*
X76130Y-33044D01*
X76113Y-33004D01*
X76188Y-32989D01*
X76193Y-32985D01*
X76243Y-32985D01*
X76291Y-32965D01*
X76308Y-32948D01*
X76341Y-33028D01*
X76422Y-33109D01*
X76527Y-33152D01*
X76641Y-33153D01*
X76747Y-33109D01*
X76828Y-33028D01*
X76871Y-32923D01*
X76872Y-32809D01*
X76828Y-32703D01*
X76747Y-32622D01*
X76735Y-32617D01*
X76808Y-32587D01*
X76887Y-32508D01*
X76929Y-32405D01*
X76930Y-32294D01*
X76930Y-33233D01*
X76894Y-33197D01*
X76816Y-33165D01*
X76733Y-33164D01*
X76656Y-33196D01*
X76624Y-33228D01*
X76569Y-33172D01*
X76491Y-33140D01*
X76408Y-33139D01*
X76331Y-33171D01*
X76272Y-33230D01*
X76240Y-33308D01*
X76239Y-33391D01*
X76271Y-33468D01*
X76290Y-33486D01*
X76290Y-34483D01*
X76134Y-34639D01*
X76076Y-34615D01*
X75923Y-34614D01*
X75782Y-34673D01*
X75673Y-34781D01*
X75615Y-34923D01*
X75614Y-35076D01*
X75673Y-35217D01*
X75781Y-35326D01*
X75887Y-35370D01*
X75332Y-35370D01*
X75337Y-35368D01*
X75368Y-35337D01*
X75384Y-35296D01*
X75385Y-35253D01*
X75385Y-34703D01*
X75368Y-34662D01*
X75337Y-34631D01*
X75296Y-34615D01*
X75253Y-34614D01*
X75160Y-34614D01*
X75160Y-33075D01*
X75159Y-33074D01*
X75147Y-33013D01*
X75113Y-32961D01*
X75113Y-32961D01*
X75085Y-32933D01*
X75085Y-32908D01*
X75053Y-32831D01*
X74994Y-32772D01*
X74916Y-32740D01*
X74833Y-32739D01*
X74756Y-32771D01*
X74697Y-32830D01*
X74665Y-32908D01*
X74664Y-32991D01*
X74696Y-33068D01*
X74755Y-33127D01*
X74833Y-33159D01*
X74840Y-33159D01*
X74840Y-34614D01*
X74703Y-34614D01*
X74662Y-34631D01*
X74631Y-34662D01*
X74629Y-34667D01*
X74629Y-29332D01*
X74631Y-29337D01*
X74662Y-29368D01*
X74703Y-29385D01*
X74922Y-29385D01*
X74950Y-29357D01*
X74950Y-29050D01*
X74942Y-29050D01*
X74942Y-28950D01*
X74950Y-28950D01*
X74950Y-28942D01*
X75050Y-28942D01*
X75050Y-28950D01*
X75357Y-28950D01*
X75385Y-28922D01*
X75385Y-28746D01*
X75384Y-28703D01*
X75368Y-28662D01*
X75337Y-28631D01*
X75332Y-28629D01*
X75835Y-28629D01*
X75770Y-28656D01*
X75656Y-28770D01*
X75595Y-28919D01*
X75594Y-29080D01*
X75656Y-29229D01*
X75745Y-29317D01*
X75745Y-29607D01*
X75726Y-29614D01*
X75689Y-29651D01*
X75670Y-29699D01*
X75669Y-29750D01*
X75669Y-30300D01*
X75670Y-30300D01*
X75670Y-31044D01*
X75649Y-31044D01*
X75601Y-31064D01*
X75564Y-31101D01*
X75545Y-31149D01*
X75544Y-31200D01*
X75544Y-31450D01*
X75564Y-31498D01*
X75601Y-31535D01*
X75649Y-31554D01*
X75700Y-31555D01*
X76150Y-31555D01*
X76198Y-31535D01*
X76235Y-31498D01*
X76254Y-31450D01*
X76255Y-31399D01*
X76255Y-31149D01*
X76235Y-31101D01*
X76198Y-31064D01*
X76150Y-31045D01*
X76130Y-31045D01*
X76130Y-30474D01*
X76186Y-30512D01*
X76274Y-30530D01*
X76274Y-30529D01*
X76275Y-30530D01*
X77104Y-30530D01*
X77268Y-30693D01*
X77262Y-30699D01*
X77262Y-30850D01*
X77280Y-30850D01*
X77280Y-30950D01*
X77262Y-30950D01*
X77262Y-31100D01*
X77289Y-31128D01*
X77323Y-31128D01*
X77363Y-31111D01*
X77386Y-31088D01*
X77388Y-31091D01*
X77424Y-31128D01*
X77472Y-31147D01*
X77472Y-31409D01*
X77473Y-31414D01*
X77473Y-31467D01*
X77430Y-31467D01*
X77430Y-31459D01*
X77418Y-31459D01*
X77418Y-31409D01*
X77417Y-31404D01*
X77417Y-31359D01*
X77430Y-31359D01*
X77430Y-31172D01*
X77406Y-31150D01*
X77377Y-31153D01*
X77354Y-31172D01*
X77318Y-31149D01*
X77258Y-31137D01*
X77197Y-31149D01*
X77183Y-31158D01*
X77183Y-31100D01*
X77183Y-30950D01*
X77183Y-30850D01*
X77183Y-30699D01*
X77156Y-30672D01*
X77122Y-30671D01*
X77082Y-30688D01*
X77051Y-30719D01*
X77034Y-30760D01*
X77034Y-30803D01*
X77034Y-30822D01*
X77062Y-30850D01*
X77183Y-30850D01*
X77183Y-30950D01*
X77062Y-30950D01*
X77034Y-30977D01*
X77034Y-30996D01*
X77034Y-31039D01*
X77051Y-31080D01*
X77082Y-31111D01*
X77122Y-31128D01*
X77156Y-31128D01*
X77183Y-31100D01*
X77183Y-31158D01*
X77145Y-31183D01*
X77111Y-31235D01*
X77099Y-31296D01*
X77099Y-31390D01*
X77087Y-31390D01*
X77069Y-31372D01*
X76991Y-31340D01*
X76908Y-31339D01*
X76872Y-31354D01*
X76872Y-31077D01*
X76828Y-30971D01*
X76747Y-30890D01*
X76642Y-30847D01*
X76528Y-30846D01*
X76422Y-30890D01*
X76341Y-30971D01*
X76298Y-31076D01*
X76297Y-31190D01*
X76341Y-31296D01*
X76422Y-31377D01*
X76527Y-31420D01*
X76641Y-31421D01*
X76747Y-31377D01*
X76828Y-31296D01*
X76871Y-31191D01*
X76872Y-31077D01*
X76872Y-31354D01*
X76831Y-31371D01*
X76772Y-31430D01*
X76740Y-31508D01*
X76739Y-31591D01*
X76771Y-31668D01*
X76830Y-31727D01*
X76908Y-31759D01*
X76991Y-31760D01*
X77068Y-31728D01*
X77086Y-31710D01*
X77147Y-31710D01*
X77147Y-31922D01*
X77175Y-31950D01*
X77700Y-31950D01*
X77700Y-31942D01*
X77800Y-31942D01*
X77800Y-31950D01*
X77807Y-31950D01*
X77807Y-32050D01*
X77800Y-32050D01*
X77800Y-32057D01*
X77700Y-32057D01*
X77700Y-32050D01*
X77175Y-32050D01*
X77147Y-32077D01*
X77147Y-32293D01*
X77147Y-32336D01*
X77156Y-32356D01*
X77145Y-32363D01*
X77111Y-32415D01*
X77099Y-32476D01*
X77099Y-32585D01*
X77098Y-32590D01*
X77098Y-32625D01*
X77036Y-32686D01*
X77002Y-32738D01*
X76990Y-32800D01*
X76990Y-33075D01*
X77002Y-33136D01*
X77036Y-33188D01*
X77265Y-33416D01*
X77265Y-34525D01*
X77266Y-34530D01*
X77265Y-34533D01*
X77264Y-34616D01*
X77296Y-34693D01*
X77355Y-34752D01*
X77433Y-34784D01*
X77516Y-34785D01*
X77593Y-34753D01*
X77652Y-34694D01*
X77684Y-34616D01*
X77685Y-34533D01*
X77653Y-34456D01*
X77594Y-34397D01*
X77585Y-34393D01*
X77585Y-33765D01*
X77603Y-33765D01*
X77622Y-33765D01*
X77650Y-33738D01*
X77650Y-33616D01*
X77642Y-33616D01*
X77642Y-33537D01*
X77650Y-33537D01*
X77650Y-33519D01*
X77750Y-33519D01*
X77750Y-33537D01*
X77900Y-33537D01*
X77916Y-33521D01*
X78122Y-33727D01*
X78122Y-33727D01*
X78181Y-33766D01*
X78250Y-33780D01*
X78450Y-33780D01*
X78518Y-33766D01*
X78577Y-33727D01*
X78693Y-33611D01*
X78750Y-33599D01*
X78825Y-33550D01*
X78874Y-33475D01*
X78875Y-33475D01*
X78945Y-33405D01*
X78955Y-33405D01*
X79058Y-33362D01*
X79137Y-33283D01*
X79179Y-33180D01*
X79180Y-33069D01*
X79137Y-32966D01*
X79058Y-32887D01*
X78955Y-32845D01*
X78844Y-32844D01*
X78741Y-32887D01*
X78662Y-32966D01*
X78620Y-33069D01*
X78620Y-33079D01*
X78499Y-33199D01*
X78498Y-33201D01*
X78472Y-33174D01*
X78502Y-33144D01*
X78534Y-33066D01*
X78535Y-32983D01*
X78525Y-32960D01*
X78577Y-32960D01*
X78638Y-32947D01*
X78638Y-32947D01*
X78690Y-32913D01*
X78887Y-32715D01*
X78989Y-32715D01*
X79025Y-32700D01*
X79060Y-32715D01*
X79103Y-32715D01*
X79122Y-32715D01*
X79150Y-32688D01*
X79150Y-32566D01*
X79142Y-32566D01*
X79142Y-32487D01*
X79150Y-32487D01*
X79150Y-32469D01*
X79250Y-32469D01*
X79250Y-32487D01*
X79257Y-32487D01*
X79257Y-32566D01*
X79250Y-32566D01*
X79250Y-32688D01*
X79277Y-32715D01*
X79296Y-32715D01*
X79339Y-32715D01*
X79370Y-32702D01*
X79370Y-34888D01*
M02*
