G04 (created by PCBNEW (2013-june-11)-stable) date Sun 16 Feb 2014 09:23:25 PM PST*
%MOIN*%
G04 Gerber Fmt 3.4, Leading zero omitted, Abs format*
%FSLAX34Y34*%
G01*
G70*
G90*
G04 APERTURE LIST*
%ADD10C,0.00590551*%
%ADD11C,0.0039*%
%ADD12C,0.005*%
%ADD13C,0.0028*%
%ADD14C,0.012*%
%ADD15C,0.0079*%
%ADD16C,0.0043*%
%ADD17C,0.0045*%
%ADD18C,0.0354*%
%ADD19R,0.035X0.055*%
%ADD20R,0.025X0.045*%
%ADD21R,0.045X0.025*%
%ADD22R,0.0236X0.0157*%
%ADD23R,0.0157X0.0236*%
%ADD24R,0.055X0.055*%
%ADD25C,0.055*%
%ADD26R,0.0984252X0.0629921*%
%ADD27O,0.00984252X0.0315*%
G04 APERTURE END LIST*
G54D10*
G54D11*
X80500Y-31900D02*
G75*
G03X80500Y-31900I-50J0D01*
G74*
G01*
X80900Y-31900D02*
X80500Y-31900D01*
X80500Y-31900D02*
X80500Y-31300D01*
X80500Y-31300D02*
X80900Y-31300D01*
X81300Y-31300D02*
X81700Y-31300D01*
X81700Y-31300D02*
X81700Y-31900D01*
X81700Y-31900D02*
X81300Y-31900D01*
G54D12*
X79050Y-31150D02*
X78150Y-31150D01*
X78150Y-31150D02*
X78150Y-30650D01*
X78150Y-30650D02*
X79050Y-30650D01*
X79050Y-30650D02*
X79050Y-31150D01*
X81250Y-32950D02*
X81250Y-32050D01*
X81250Y-32050D02*
X81750Y-32050D01*
X81750Y-32050D02*
X81750Y-32950D01*
X81750Y-32950D02*
X81250Y-32950D01*
G54D13*
X80650Y-32900D02*
X80650Y-32700D01*
X80650Y-32700D02*
X80350Y-32700D01*
X80350Y-32700D02*
X80350Y-32900D01*
X80650Y-33100D02*
X80650Y-33300D01*
X80650Y-33300D02*
X80350Y-33300D01*
X80350Y-33300D02*
X80350Y-33100D01*
X80350Y-32400D02*
X80350Y-32600D01*
X80350Y-32600D02*
X80650Y-32600D01*
X80650Y-32600D02*
X80650Y-32400D01*
X80350Y-32200D02*
X80350Y-32000D01*
X80350Y-32000D02*
X80650Y-32000D01*
X80650Y-32000D02*
X80650Y-32200D01*
X79400Y-30650D02*
X79200Y-30650D01*
X79200Y-30650D02*
X79200Y-30950D01*
X79200Y-30950D02*
X79400Y-30950D01*
X79600Y-30650D02*
X79800Y-30650D01*
X79800Y-30650D02*
X79800Y-30950D01*
X79800Y-30950D02*
X79600Y-30950D01*
X81600Y-33750D02*
X81800Y-33750D01*
X81800Y-33750D02*
X81800Y-33450D01*
X81800Y-33450D02*
X81600Y-33450D01*
X81400Y-33750D02*
X81200Y-33750D01*
X81200Y-33750D02*
X81200Y-33450D01*
X81200Y-33450D02*
X81400Y-33450D01*
X81600Y-33350D02*
X81800Y-33350D01*
X81800Y-33350D02*
X81800Y-33050D01*
X81800Y-33050D02*
X81600Y-33050D01*
X81400Y-33350D02*
X81200Y-33350D01*
X81200Y-33350D02*
X81200Y-33050D01*
X81200Y-33050D02*
X81400Y-33050D01*
X80750Y-32400D02*
X80750Y-32600D01*
X80750Y-32600D02*
X81050Y-32600D01*
X81050Y-32600D02*
X81050Y-32400D01*
X80750Y-32200D02*
X80750Y-32000D01*
X80750Y-32000D02*
X81050Y-32000D01*
X81050Y-32000D02*
X81050Y-32200D01*
X81050Y-32900D02*
X81050Y-32700D01*
X81050Y-32700D02*
X80750Y-32700D01*
X80750Y-32700D02*
X80750Y-32900D01*
X81050Y-33100D02*
X81050Y-33300D01*
X81050Y-33300D02*
X80750Y-33300D01*
X80750Y-33300D02*
X80750Y-33100D01*
X81600Y-34150D02*
X81800Y-34150D01*
X81800Y-34150D02*
X81800Y-33850D01*
X81800Y-33850D02*
X81600Y-33850D01*
X81400Y-34150D02*
X81200Y-34150D01*
X81200Y-34150D02*
X81200Y-33850D01*
X81200Y-33850D02*
X81400Y-33850D01*
X78925Y-33850D02*
X79125Y-33850D01*
X79125Y-33850D02*
X79125Y-33550D01*
X79125Y-33550D02*
X78925Y-33550D01*
X78725Y-33850D02*
X78525Y-33850D01*
X78525Y-33850D02*
X78525Y-33550D01*
X78525Y-33550D02*
X78725Y-33550D01*
X78900Y-31550D02*
X79100Y-31550D01*
X79100Y-31550D02*
X79100Y-31250D01*
X79100Y-31250D02*
X78900Y-31250D01*
X78700Y-31550D02*
X78500Y-31550D01*
X78500Y-31550D02*
X78500Y-31250D01*
X78500Y-31250D02*
X78700Y-31250D01*
G54D14*
X78000Y-34500D02*
X78000Y-34500D01*
X78000Y-35500D02*
X78000Y-34500D01*
X78000Y-34500D02*
X78000Y-34500D01*
X78000Y-34500D02*
X82000Y-34500D01*
X82000Y-34500D02*
X82000Y-35500D01*
X82000Y-35500D02*
X78000Y-35500D01*
X79000Y-35500D02*
X79000Y-34500D01*
X82000Y-30500D02*
X82000Y-30500D01*
X82000Y-29500D02*
X82000Y-30500D01*
X82000Y-30500D02*
X82000Y-30500D01*
X82000Y-30500D02*
X78000Y-30500D01*
X78000Y-30500D02*
X78000Y-29500D01*
X78000Y-29500D02*
X82000Y-29500D01*
X81000Y-29500D02*
X81000Y-30500D01*
G54D10*
X79788Y-31614D02*
X79985Y-31811D01*
X78214Y-31614D02*
X79788Y-31614D01*
X78214Y-33385D02*
X78214Y-31614D01*
X79985Y-31811D02*
X79985Y-33385D01*
X79985Y-33385D02*
X78214Y-33385D01*
G54D15*
X79687Y-31912D02*
X79785Y-31912D01*
X79687Y-31814D02*
X79687Y-31912D01*
X78512Y-31912D02*
X78512Y-31814D01*
X78414Y-31912D02*
X78512Y-31912D01*
X78512Y-33087D02*
X78414Y-33087D01*
X78512Y-33185D02*
X78512Y-33087D01*
X79687Y-33087D02*
X79687Y-33185D01*
X79785Y-33087D02*
X79687Y-33087D01*
G54D16*
X81067Y-31535D02*
X81057Y-31545D01*
X81029Y-31554D01*
X81010Y-31554D01*
X80982Y-31545D01*
X80963Y-31526D01*
X80954Y-31507D01*
X80945Y-31470D01*
X80945Y-31442D01*
X80954Y-31404D01*
X80963Y-31385D01*
X80982Y-31367D01*
X81010Y-31357D01*
X81029Y-31357D01*
X81057Y-31367D01*
X81067Y-31376D01*
X81132Y-31357D02*
X81264Y-31357D01*
X81179Y-31554D01*
X80823Y-31698D02*
X80823Y-31829D01*
X80776Y-31623D02*
X80729Y-31764D01*
X80851Y-31764D01*
X80926Y-31810D02*
X80935Y-31820D01*
X80926Y-31829D01*
X80917Y-31820D01*
X80926Y-31810D01*
X80926Y-31829D01*
X81001Y-31632D02*
X81132Y-31632D01*
X81048Y-31829D01*
X81292Y-31698D02*
X81292Y-31829D01*
X81207Y-31698D02*
X81207Y-31801D01*
X81217Y-31820D01*
X81236Y-31829D01*
X81264Y-31829D01*
X81282Y-31820D01*
X81292Y-31810D01*
X81451Y-31726D02*
X81386Y-31726D01*
X81386Y-31829D02*
X81386Y-31632D01*
X81479Y-31632D01*
G54D17*
X78450Y-30780D02*
X78450Y-30923D01*
X78441Y-30952D01*
X78424Y-30971D01*
X78398Y-30980D01*
X78381Y-30980D01*
X78535Y-30980D02*
X78535Y-30780D01*
X78604Y-30780D01*
X78621Y-30790D01*
X78630Y-30800D01*
X78638Y-30819D01*
X78638Y-30847D01*
X78630Y-30866D01*
X78621Y-30876D01*
X78604Y-30885D01*
X78535Y-30885D01*
X78810Y-30980D02*
X78707Y-30980D01*
X78758Y-30980D02*
X78758Y-30780D01*
X78741Y-30809D01*
X78724Y-30828D01*
X78707Y-30838D01*
X81476Y-32650D02*
X81476Y-32710D01*
X81580Y-32710D02*
X81380Y-32710D01*
X81380Y-32624D01*
X81476Y-32495D02*
X81485Y-32470D01*
X81495Y-32461D01*
X81514Y-32452D01*
X81542Y-32452D01*
X81561Y-32461D01*
X81571Y-32470D01*
X81580Y-32487D01*
X81580Y-32555D01*
X81380Y-32555D01*
X81380Y-32495D01*
X81390Y-32478D01*
X81400Y-32470D01*
X81419Y-32461D01*
X81438Y-32461D01*
X81457Y-32470D01*
X81466Y-32478D01*
X81476Y-32495D01*
X81476Y-32555D01*
X81580Y-32281D02*
X81580Y-32384D01*
X81580Y-32332D02*
X81380Y-32332D01*
X81409Y-32350D01*
X81428Y-32367D01*
X81438Y-32384D01*
G54D13*
X80555Y-33020D02*
X80490Y-33060D01*
X80555Y-33088D02*
X80417Y-33088D01*
X80417Y-33042D01*
X80424Y-33031D01*
X80431Y-33025D01*
X80444Y-33020D01*
X80463Y-33020D01*
X80477Y-33025D01*
X80483Y-33031D01*
X80490Y-33042D01*
X80490Y-33088D01*
X80417Y-32980D02*
X80417Y-32905D01*
X80470Y-32945D01*
X80470Y-32928D01*
X80477Y-32917D01*
X80483Y-32911D01*
X80496Y-32905D01*
X80529Y-32905D01*
X80542Y-32911D01*
X80549Y-32917D01*
X80555Y-32928D01*
X80555Y-32962D01*
X80549Y-32974D01*
X80542Y-32980D01*
X80555Y-32320D02*
X80490Y-32360D01*
X80555Y-32388D02*
X80417Y-32388D01*
X80417Y-32342D01*
X80424Y-32331D01*
X80431Y-32325D01*
X80444Y-32320D01*
X80463Y-32320D01*
X80477Y-32325D01*
X80483Y-32331D01*
X80490Y-32342D01*
X80490Y-32388D01*
X80463Y-32217D02*
X80555Y-32217D01*
X80411Y-32245D02*
X80509Y-32274D01*
X80509Y-32200D01*
X79480Y-30855D02*
X79440Y-30790D01*
X79411Y-30855D02*
X79411Y-30717D01*
X79457Y-30717D01*
X79468Y-30724D01*
X79474Y-30731D01*
X79480Y-30744D01*
X79480Y-30763D01*
X79474Y-30777D01*
X79468Y-30783D01*
X79457Y-30790D01*
X79411Y-30790D01*
X79525Y-30731D02*
X79531Y-30724D01*
X79542Y-30717D01*
X79571Y-30717D01*
X79582Y-30724D01*
X79588Y-30731D01*
X79594Y-30744D01*
X79594Y-30757D01*
X79588Y-30777D01*
X79520Y-30855D01*
X79594Y-30855D01*
X81480Y-33655D02*
X81440Y-33590D01*
X81411Y-33655D02*
X81411Y-33517D01*
X81457Y-33517D01*
X81468Y-33524D01*
X81474Y-33531D01*
X81480Y-33544D01*
X81480Y-33563D01*
X81474Y-33577D01*
X81468Y-33583D01*
X81457Y-33590D01*
X81411Y-33590D01*
X81594Y-33655D02*
X81525Y-33655D01*
X81560Y-33655D02*
X81560Y-33517D01*
X81548Y-33537D01*
X81537Y-33550D01*
X81525Y-33557D01*
X81480Y-33242D02*
X81474Y-33249D01*
X81457Y-33255D01*
X81445Y-33255D01*
X81428Y-33249D01*
X81417Y-33236D01*
X81411Y-33223D01*
X81405Y-33196D01*
X81405Y-33177D01*
X81411Y-33150D01*
X81417Y-33137D01*
X81428Y-33124D01*
X81445Y-33117D01*
X81457Y-33117D01*
X81474Y-33124D01*
X81480Y-33131D01*
X81520Y-33117D02*
X81594Y-33117D01*
X81554Y-33170D01*
X81571Y-33170D01*
X81582Y-33177D01*
X81588Y-33183D01*
X81594Y-33196D01*
X81594Y-33229D01*
X81588Y-33242D01*
X81582Y-33249D01*
X81571Y-33255D01*
X81537Y-33255D01*
X81525Y-33249D01*
X81520Y-33242D01*
X80942Y-32320D02*
X80949Y-32325D01*
X80955Y-32342D01*
X80955Y-32354D01*
X80949Y-32371D01*
X80936Y-32382D01*
X80923Y-32388D01*
X80896Y-32394D01*
X80877Y-32394D01*
X80850Y-32388D01*
X80837Y-32382D01*
X80824Y-32371D01*
X80817Y-32354D01*
X80817Y-32342D01*
X80824Y-32325D01*
X80831Y-32320D01*
X80863Y-32217D02*
X80955Y-32217D01*
X80811Y-32245D02*
X80909Y-32274D01*
X80909Y-32200D01*
X80942Y-33020D02*
X80949Y-33025D01*
X80955Y-33042D01*
X80955Y-33054D01*
X80949Y-33071D01*
X80936Y-33082D01*
X80923Y-33088D01*
X80896Y-33094D01*
X80877Y-33094D01*
X80850Y-33088D01*
X80837Y-33082D01*
X80824Y-33071D01*
X80817Y-33054D01*
X80817Y-33042D01*
X80824Y-33025D01*
X80831Y-33020D01*
X80817Y-32911D02*
X80817Y-32968D01*
X80883Y-32974D01*
X80877Y-32968D01*
X80870Y-32957D01*
X80870Y-32928D01*
X80877Y-32917D01*
X80883Y-32911D01*
X80896Y-32905D01*
X80929Y-32905D01*
X80942Y-32911D01*
X80949Y-32917D01*
X80955Y-32928D01*
X80955Y-32957D01*
X80949Y-32968D01*
X80942Y-32974D01*
X81480Y-34042D02*
X81474Y-34049D01*
X81457Y-34055D01*
X81445Y-34055D01*
X81428Y-34049D01*
X81417Y-34036D01*
X81411Y-34023D01*
X81405Y-33996D01*
X81405Y-33977D01*
X81411Y-33950D01*
X81417Y-33937D01*
X81428Y-33924D01*
X81445Y-33917D01*
X81457Y-33917D01*
X81474Y-33924D01*
X81480Y-33931D01*
X81594Y-34055D02*
X81525Y-34055D01*
X81560Y-34055D02*
X81560Y-33917D01*
X81548Y-33937D01*
X81537Y-33950D01*
X81525Y-33957D01*
X78805Y-33742D02*
X78799Y-33749D01*
X78782Y-33755D01*
X78770Y-33755D01*
X78753Y-33749D01*
X78742Y-33736D01*
X78736Y-33723D01*
X78730Y-33696D01*
X78730Y-33677D01*
X78736Y-33650D01*
X78742Y-33637D01*
X78753Y-33624D01*
X78770Y-33617D01*
X78782Y-33617D01*
X78799Y-33624D01*
X78805Y-33631D01*
X78907Y-33617D02*
X78885Y-33617D01*
X78873Y-33624D01*
X78867Y-33631D01*
X78856Y-33650D01*
X78850Y-33677D01*
X78850Y-33729D01*
X78856Y-33742D01*
X78862Y-33749D01*
X78873Y-33755D01*
X78896Y-33755D01*
X78907Y-33749D01*
X78913Y-33742D01*
X78919Y-33729D01*
X78919Y-33696D01*
X78913Y-33683D01*
X78907Y-33677D01*
X78896Y-33670D01*
X78873Y-33670D01*
X78862Y-33677D01*
X78856Y-33683D01*
X78850Y-33696D01*
X78780Y-31442D02*
X78774Y-31449D01*
X78757Y-31455D01*
X78745Y-31455D01*
X78728Y-31449D01*
X78717Y-31436D01*
X78711Y-31423D01*
X78705Y-31396D01*
X78705Y-31377D01*
X78711Y-31350D01*
X78717Y-31337D01*
X78728Y-31324D01*
X78745Y-31317D01*
X78757Y-31317D01*
X78774Y-31324D01*
X78780Y-31331D01*
X78848Y-31377D02*
X78837Y-31370D01*
X78831Y-31363D01*
X78825Y-31350D01*
X78825Y-31344D01*
X78831Y-31331D01*
X78837Y-31324D01*
X78848Y-31317D01*
X78871Y-31317D01*
X78882Y-31324D01*
X78888Y-31331D01*
X78894Y-31344D01*
X78894Y-31350D01*
X78888Y-31363D01*
X78882Y-31370D01*
X78871Y-31377D01*
X78848Y-31377D01*
X78837Y-31383D01*
X78831Y-31390D01*
X78825Y-31403D01*
X78825Y-31429D01*
X78831Y-31442D01*
X78837Y-31449D01*
X78848Y-31455D01*
X78871Y-31455D01*
X78882Y-31449D01*
X78888Y-31442D01*
X78894Y-31429D01*
X78894Y-31403D01*
X78888Y-31390D01*
X78882Y-31383D01*
X78871Y-31377D01*
%LPC*%
G54D18*
X80085Y-33366D03*
X80085Y-31634D03*
G54D19*
X80725Y-31600D03*
X81475Y-31600D03*
G54D20*
X78900Y-30900D03*
X78300Y-30900D03*
G54D21*
X81500Y-32800D03*
X81500Y-32200D03*
G54D22*
X80500Y-32823D03*
X80500Y-33177D03*
X80500Y-32477D03*
X80500Y-32123D03*
G54D23*
X79323Y-30800D03*
X79677Y-30800D03*
X81677Y-33600D03*
X81323Y-33600D03*
X81677Y-33200D03*
X81323Y-33200D03*
G54D22*
X80900Y-32477D03*
X80900Y-32123D03*
X80900Y-32823D03*
X80900Y-33177D03*
G54D23*
X81677Y-34000D03*
X81323Y-34000D03*
X79002Y-33700D03*
X78648Y-33700D03*
X78977Y-31400D03*
X78623Y-31400D03*
G54D24*
X78500Y-35000D03*
G54D25*
X79500Y-35000D03*
X80500Y-35000D03*
X81500Y-35000D03*
G54D24*
X81500Y-30000D03*
G54D25*
X80500Y-30000D03*
X79500Y-30000D03*
X78500Y-30000D03*
G54D26*
X79100Y-32500D03*
G54D27*
X79542Y-31909D03*
X79365Y-31909D03*
X79188Y-31909D03*
X79011Y-31909D03*
X78834Y-31909D03*
X78657Y-31909D03*
X78657Y-33090D03*
X78834Y-33090D03*
X79011Y-33090D03*
X79188Y-33090D03*
X79365Y-33090D03*
X79542Y-33090D03*
M02*
