M48
INCH,TZ
T10C0.013
T11C0.032
T12C0.035
%
T10
X078400Y-33225
X078875Y-31400
X079000Y-33425
X079225Y-31450
X079650Y-33400
X079800Y-31450
X079900Y-33825
X080075Y-31250
X080100Y-34000
X080175Y-32725
X080200Y-32400
X080275Y-30800
X081725Y-32500
X081725Y-34350
T11
X078500Y-30000
X078500Y-35000
X079500Y-30000
X079500Y-35000
X080500Y-30000
X080500Y-35000
X081500Y-30000
X081500Y-35000
T12
X080085Y-31634
X080085Y-33366
M30

