G04 (created by PCBNEW (2013-june-11)-stable) date Sun 16 Feb 2014 08:29:20 PM PST*
%MOIN*%
G04 Gerber Fmt 3.4, Leading zero omitted, Abs format*
%FSLAX34Y34*%
G01*
G70*
G90*
G04 APERTURE LIST*
%ADD10C,0.00590551*%
%ADD11C,0.023*%
%ADD12C,0.0354*%
%ADD13R,0.055X0.055*%
%ADD14C,0.055*%
%ADD15R,0.035X0.055*%
%ADD16R,0.045X0.025*%
%ADD17R,0.0236X0.0157*%
%ADD18R,0.0157X0.0236*%
%ADD19R,0.0984252X0.0629921*%
%ADD20O,0.00984252X0.0315*%
%ADD21C,0.02*%
%ADD22C,0.03*%
%ADD23C,0.019685*%
%ADD24C,0.00787402*%
%ADD25C,0.02*%
%ADD26C,0.006*%
G04 APERTURE END LIST*
G54D10*
G54D11*
X76225Y-33275D03*
X79125Y-33425D03*
X76900Y-30800D03*
G54D12*
X76585Y-32866D03*
X76585Y-31134D03*
G54D13*
X75000Y-29000D03*
G54D14*
X76000Y-29000D03*
X77000Y-29000D03*
X78000Y-29000D03*
X79000Y-29000D03*
G54D13*
X75000Y-35000D03*
G54D14*
X76000Y-35000D03*
X77000Y-35000D03*
X78000Y-35000D03*
X79000Y-35000D03*
G54D15*
X75975Y-30000D03*
X75225Y-30000D03*
G54D16*
X75900Y-31900D03*
X75900Y-31300D03*
X79000Y-30700D03*
X79000Y-30100D03*
G54D17*
X78850Y-32173D03*
X78850Y-32527D03*
X78850Y-31777D03*
X78850Y-31423D03*
G54D18*
X77777Y-29900D03*
X77423Y-29900D03*
G54D17*
X76100Y-32777D03*
X76100Y-32423D03*
X75400Y-31602D03*
X75400Y-31248D03*
G54D18*
X76977Y-29900D03*
X76623Y-29900D03*
G54D17*
X75600Y-32777D03*
X75600Y-32423D03*
X77700Y-33223D03*
X77700Y-33577D03*
G54D18*
X77577Y-30900D03*
X77223Y-30900D03*
G54D17*
X79200Y-31777D03*
X79200Y-31423D03*
X79200Y-32173D03*
X79200Y-32527D03*
G54D11*
X76500Y-29525D03*
G54D19*
X77750Y-32000D03*
G54D20*
X78192Y-31409D03*
X78015Y-31409D03*
X77838Y-31409D03*
X77661Y-31409D03*
X77484Y-31409D03*
X77307Y-31409D03*
X77307Y-32590D03*
X77484Y-32590D03*
X77661Y-32590D03*
X77838Y-32590D03*
X78015Y-32590D03*
X78192Y-32590D03*
G54D21*
X79200Y-34500D03*
G54D22*
X76400Y-31925D03*
X75175Y-33075D03*
G54D21*
X78450Y-31950D03*
X78450Y-32225D03*
X78325Y-30900D03*
X77325Y-33150D03*
G54D22*
X79125Y-29675D03*
X78325Y-33700D03*
G54D23*
X79000Y-30700D02*
X78950Y-30700D01*
X77000Y-29470D02*
X77000Y-29477D01*
X77979Y-29470D02*
X77000Y-29470D01*
X78575Y-30066D02*
X77979Y-29470D01*
X78575Y-30325D02*
X78575Y-30066D01*
X78950Y-30700D02*
X78575Y-30325D01*
X77000Y-29000D02*
X77000Y-29477D01*
X77000Y-29477D02*
X77423Y-29900D01*
X77423Y-29900D02*
X76977Y-29900D01*
G54D24*
X77838Y-31409D02*
X77838Y-30338D01*
X77423Y-29923D02*
X77423Y-29900D01*
X77838Y-30338D02*
X77423Y-29923D01*
X77307Y-31409D02*
X77307Y-31467D01*
X74825Y-34825D02*
X75000Y-35000D01*
X74825Y-32525D02*
X74825Y-34825D01*
X75150Y-32200D02*
X74825Y-32525D01*
X76575Y-32200D02*
X75150Y-32200D01*
X77307Y-31467D02*
X76575Y-32200D01*
X78015Y-32590D02*
X78015Y-32790D01*
X79200Y-33975D02*
X79200Y-34500D01*
X78015Y-32790D02*
X79200Y-33975D01*
X78192Y-32590D02*
X78192Y-32507D01*
X78773Y-32450D02*
X78850Y-32527D01*
X78250Y-32450D02*
X78773Y-32450D01*
X78192Y-32507D02*
X78250Y-32450D01*
X78192Y-31409D02*
X78192Y-31492D01*
X78723Y-31550D02*
X78850Y-31423D01*
X78250Y-31550D02*
X78723Y-31550D01*
X78192Y-31492D02*
X78250Y-31550D01*
G54D23*
X75900Y-31900D02*
X75698Y-31900D01*
X75698Y-31900D02*
X75400Y-31602D01*
X76375Y-31900D02*
X75900Y-31900D01*
X76400Y-31925D02*
X76375Y-31900D01*
X75600Y-32777D02*
X75473Y-32777D01*
X75473Y-32777D02*
X75175Y-33075D01*
G54D25*
X76100Y-32777D02*
X75800Y-32777D01*
X75800Y-32777D02*
X75600Y-32777D01*
G54D24*
X78850Y-31777D02*
X78623Y-31777D01*
X78623Y-31777D02*
X78450Y-31950D01*
X78850Y-31777D02*
X79200Y-31777D01*
X78850Y-32173D02*
X78502Y-32173D01*
X78502Y-32173D02*
X78450Y-32225D01*
X78850Y-32173D02*
X79200Y-32173D01*
X78325Y-30900D02*
X78325Y-30124D01*
X78100Y-29900D02*
X77777Y-29900D01*
X78325Y-30124D02*
X78100Y-29900D01*
X78015Y-31409D02*
X78015Y-31209D01*
X78015Y-31209D02*
X78325Y-30900D01*
X77484Y-32590D02*
X77484Y-32990D01*
X77484Y-32990D02*
X77325Y-33150D01*
X79000Y-35000D02*
X79000Y-33971D01*
X77838Y-32809D02*
X78389Y-33360D01*
X77838Y-32809D02*
X77838Y-32590D01*
X79000Y-33971D02*
X78389Y-33360D01*
X77307Y-32590D02*
X77307Y-32867D01*
X77100Y-34100D02*
X78000Y-35000D01*
X77100Y-33075D02*
X77100Y-34100D01*
X77307Y-32867D02*
X77100Y-33075D01*
G54D23*
X75975Y-30000D02*
X75975Y-29025D01*
X75975Y-29025D02*
X76000Y-29000D01*
X76425Y-30425D02*
X76400Y-30425D01*
X76400Y-30425D02*
X75975Y-30000D01*
X77577Y-30900D02*
X77577Y-30677D01*
X75900Y-30950D02*
X75900Y-31300D01*
X76425Y-30425D02*
X75900Y-30950D01*
X77325Y-30425D02*
X76425Y-30425D01*
X77577Y-30677D02*
X77325Y-30425D01*
G54D24*
X77661Y-31409D02*
X77661Y-30984D01*
X77661Y-30984D02*
X77577Y-30900D01*
G54D23*
X77700Y-33223D02*
X77943Y-33223D01*
X79000Y-29800D02*
X79000Y-30100D01*
X79125Y-29675D02*
X79000Y-29800D01*
X78325Y-33604D02*
X78325Y-33700D01*
X77943Y-33223D02*
X78325Y-33604D01*
X78000Y-29000D02*
X78000Y-29100D01*
X78000Y-29100D02*
X79000Y-30100D01*
G54D24*
X77661Y-32590D02*
X77661Y-33184D01*
X77661Y-33184D02*
X77700Y-33223D01*
G54D10*
G36*
X79390Y-35390D02*
X77365Y-35390D01*
X77365Y-34964D01*
X77351Y-34893D01*
X77323Y-34827D01*
X77284Y-34768D01*
X77233Y-34717D01*
X77174Y-34677D01*
X77108Y-34649D01*
X77038Y-34635D01*
X76966Y-34634D01*
X76896Y-34648D01*
X76830Y-34674D01*
X76770Y-34714D01*
X76719Y-34764D01*
X76678Y-34823D01*
X76650Y-34889D01*
X76635Y-34959D01*
X76634Y-35030D01*
X76647Y-35101D01*
X76673Y-35167D01*
X76712Y-35227D01*
X76762Y-35279D01*
X76821Y-35320D01*
X76886Y-35348D01*
X76956Y-35364D01*
X77028Y-35365D01*
X77098Y-35353D01*
X77165Y-35327D01*
X77225Y-35289D01*
X77277Y-35239D01*
X77318Y-35181D01*
X77348Y-35115D01*
X77363Y-35045D01*
X77365Y-34964D01*
X77365Y-35390D01*
X76365Y-35390D01*
X76365Y-34964D01*
X76351Y-34893D01*
X76323Y-34827D01*
X76284Y-34768D01*
X76233Y-34717D01*
X76174Y-34677D01*
X76108Y-34649D01*
X76038Y-34635D01*
X75966Y-34634D01*
X75896Y-34648D01*
X75830Y-34674D01*
X75770Y-34714D01*
X75719Y-34764D01*
X75678Y-34823D01*
X75650Y-34889D01*
X75635Y-34959D01*
X75634Y-35030D01*
X75647Y-35101D01*
X75673Y-35167D01*
X75712Y-35227D01*
X75762Y-35279D01*
X75821Y-35320D01*
X75886Y-35348D01*
X75956Y-35364D01*
X76028Y-35365D01*
X76098Y-35353D01*
X76165Y-35327D01*
X76225Y-35289D01*
X76277Y-35239D01*
X76318Y-35181D01*
X76348Y-35115D01*
X76363Y-35045D01*
X76365Y-34964D01*
X76365Y-35390D01*
X74609Y-35390D01*
X74609Y-28609D01*
X79390Y-28609D01*
X79390Y-31644D01*
X79388Y-31641D01*
X79375Y-31628D01*
X79361Y-31618D01*
X79344Y-31612D01*
X79327Y-31608D01*
X79309Y-31608D01*
X79073Y-31608D01*
X79055Y-31611D01*
X79039Y-31618D01*
X79024Y-31628D01*
X79011Y-31618D01*
X78994Y-31612D01*
X78977Y-31608D01*
X78959Y-31608D01*
X78847Y-31608D01*
X78864Y-31591D01*
X78976Y-31591D01*
X78994Y-31588D01*
X79010Y-31581D01*
X79025Y-31571D01*
X79037Y-31559D01*
X79047Y-31544D01*
X79054Y-31528D01*
X79057Y-31510D01*
X79058Y-31493D01*
X79058Y-31335D01*
X79054Y-31318D01*
X79047Y-31302D01*
X79038Y-31287D01*
X79025Y-31274D01*
X79011Y-31264D01*
X78994Y-31258D01*
X78977Y-31254D01*
X78959Y-31254D01*
X78723Y-31254D01*
X78705Y-31257D01*
X78689Y-31264D01*
X78674Y-31274D01*
X78662Y-31286D01*
X78652Y-31301D01*
X78645Y-31317D01*
X78642Y-31335D01*
X78641Y-31352D01*
X78641Y-31420D01*
X78342Y-31420D01*
X78342Y-31300D01*
X78340Y-31271D01*
X78331Y-31243D01*
X78317Y-31217D01*
X78299Y-31194D01*
X78276Y-31175D01*
X78251Y-31161D01*
X78247Y-31160D01*
X78318Y-31089D01*
X78339Y-31090D01*
X78376Y-31083D01*
X78411Y-31070D01*
X78442Y-31050D01*
X78469Y-31024D01*
X78491Y-30994D01*
X78506Y-30960D01*
X78514Y-30923D01*
X78515Y-30881D01*
X78507Y-30844D01*
X78493Y-30810D01*
X78472Y-30779D01*
X78454Y-30760D01*
X78454Y-30499D01*
X78664Y-30709D01*
X78664Y-30835D01*
X78669Y-30856D01*
X78677Y-30876D01*
X78689Y-30894D01*
X78704Y-30910D01*
X78722Y-30922D01*
X78742Y-30930D01*
X78763Y-30934D01*
X78785Y-30935D01*
X79235Y-30935D01*
X79256Y-30930D01*
X79276Y-30922D01*
X79294Y-30910D01*
X79310Y-30895D01*
X79322Y-30877D01*
X79330Y-30857D01*
X79334Y-30836D01*
X79335Y-30814D01*
X79335Y-30564D01*
X79330Y-30543D01*
X79322Y-30523D01*
X79310Y-30505D01*
X79295Y-30489D01*
X79277Y-30477D01*
X79257Y-30469D01*
X79236Y-30465D01*
X79214Y-30464D01*
X79009Y-30464D01*
X78879Y-30335D01*
X79235Y-30335D01*
X79256Y-30330D01*
X79276Y-30322D01*
X79294Y-30310D01*
X79310Y-30295D01*
X79322Y-30277D01*
X79330Y-30257D01*
X79334Y-30236D01*
X79335Y-30214D01*
X79335Y-29964D01*
X79330Y-29943D01*
X79322Y-29923D01*
X79310Y-29905D01*
X79295Y-29889D01*
X79283Y-29882D01*
X79285Y-29880D01*
X79322Y-29845D01*
X79352Y-29804D01*
X79372Y-29757D01*
X79384Y-29707D01*
X79385Y-29649D01*
X79375Y-29599D01*
X79365Y-29575D01*
X79365Y-28964D01*
X79351Y-28893D01*
X79323Y-28827D01*
X79284Y-28768D01*
X79233Y-28717D01*
X79174Y-28677D01*
X79108Y-28649D01*
X79038Y-28635D01*
X78966Y-28634D01*
X78896Y-28648D01*
X78830Y-28674D01*
X78770Y-28714D01*
X78719Y-28764D01*
X78678Y-28823D01*
X78650Y-28889D01*
X78635Y-28959D01*
X78634Y-29030D01*
X78647Y-29101D01*
X78673Y-29167D01*
X78712Y-29227D01*
X78762Y-29279D01*
X78821Y-29320D01*
X78886Y-29348D01*
X78956Y-29364D01*
X79028Y-29365D01*
X79098Y-29353D01*
X79165Y-29327D01*
X79225Y-29289D01*
X79277Y-29239D01*
X79318Y-29181D01*
X79348Y-29115D01*
X79363Y-29045D01*
X79365Y-28964D01*
X79365Y-29575D01*
X79355Y-29552D01*
X79327Y-29509D01*
X79291Y-29473D01*
X79249Y-29445D01*
X79202Y-29425D01*
X79152Y-29415D01*
X79101Y-29414D01*
X79051Y-29424D01*
X79003Y-29443D01*
X78961Y-29471D01*
X78924Y-29507D01*
X78896Y-29549D01*
X78875Y-29596D01*
X78866Y-29638D01*
X78852Y-29652D01*
X78850Y-29655D01*
X78351Y-29156D01*
X78367Y-29122D01*
X78383Y-29048D01*
X78385Y-28962D01*
X78370Y-28888D01*
X78341Y-28818D01*
X78299Y-28755D01*
X78246Y-28701D01*
X78184Y-28659D01*
X78114Y-28630D01*
X78040Y-28615D01*
X77964Y-28614D01*
X77890Y-28628D01*
X77820Y-28657D01*
X77757Y-28698D01*
X77703Y-28751D01*
X77660Y-28813D01*
X77631Y-28883D01*
X77615Y-28956D01*
X77614Y-29032D01*
X77628Y-29106D01*
X77655Y-29176D01*
X77696Y-29240D01*
X77718Y-29262D01*
X77282Y-29262D01*
X77292Y-29252D01*
X77336Y-29191D01*
X77367Y-29122D01*
X77383Y-29048D01*
X77385Y-28962D01*
X77370Y-28888D01*
X77341Y-28818D01*
X77299Y-28755D01*
X77246Y-28701D01*
X77184Y-28659D01*
X77114Y-28630D01*
X77040Y-28615D01*
X76964Y-28614D01*
X76890Y-28628D01*
X76820Y-28657D01*
X76757Y-28698D01*
X76703Y-28751D01*
X76660Y-28813D01*
X76631Y-28883D01*
X76615Y-28956D01*
X76614Y-29032D01*
X76628Y-29106D01*
X76655Y-29176D01*
X76696Y-29240D01*
X76749Y-29294D01*
X76791Y-29324D01*
X76791Y-29470D01*
X76791Y-29477D01*
X76793Y-29496D01*
X76795Y-29515D01*
X76795Y-29516D01*
X76795Y-29517D01*
X76801Y-29535D01*
X76806Y-29554D01*
X76806Y-29555D01*
X76807Y-29556D01*
X76816Y-29573D01*
X76825Y-29590D01*
X76825Y-29591D01*
X76826Y-29592D01*
X76838Y-29607D01*
X76850Y-29622D01*
X76852Y-29623D01*
X76852Y-29623D01*
X76852Y-29623D01*
X76852Y-29624D01*
X76900Y-29671D01*
X76887Y-29671D01*
X76866Y-29676D01*
X76846Y-29684D01*
X76828Y-29696D01*
X76813Y-29711D01*
X76801Y-29729D01*
X76792Y-29749D01*
X76788Y-29770D01*
X76788Y-29792D01*
X76788Y-29812D01*
X76784Y-29819D01*
X76772Y-29858D01*
X76768Y-29898D01*
X76772Y-29939D01*
X76783Y-29978D01*
X76788Y-29987D01*
X76788Y-30028D01*
X76792Y-30049D01*
X76800Y-30069D01*
X76812Y-30087D01*
X76828Y-30103D01*
X76845Y-30115D01*
X76865Y-30123D01*
X76886Y-30127D01*
X76908Y-30128D01*
X77066Y-30128D01*
X77087Y-30123D01*
X77107Y-30115D01*
X77118Y-30108D01*
X77281Y-30108D01*
X77291Y-30115D01*
X77311Y-30123D01*
X77332Y-30127D01*
X77354Y-30128D01*
X77416Y-30128D01*
X77689Y-30400D01*
X77689Y-30494D01*
X77472Y-30277D01*
X77457Y-30265D01*
X77442Y-30253D01*
X77441Y-30252D01*
X77440Y-30251D01*
X77423Y-30242D01*
X77407Y-30233D01*
X77406Y-30233D01*
X77405Y-30232D01*
X77386Y-30226D01*
X77368Y-30221D01*
X77367Y-30221D01*
X77366Y-30220D01*
X77347Y-30218D01*
X77327Y-30216D01*
X77325Y-30216D01*
X77325Y-30216D01*
X77325Y-30216D01*
X77325Y-30216D01*
X76486Y-30216D01*
X76260Y-29990D01*
X76260Y-29714D01*
X76255Y-29693D01*
X76247Y-29673D01*
X76235Y-29655D01*
X76220Y-29639D01*
X76202Y-29627D01*
X76183Y-29619D01*
X76183Y-29339D01*
X76238Y-29304D01*
X76292Y-29252D01*
X76336Y-29191D01*
X76367Y-29122D01*
X76383Y-29048D01*
X76385Y-28962D01*
X76370Y-28888D01*
X76341Y-28818D01*
X76299Y-28755D01*
X76246Y-28701D01*
X76184Y-28659D01*
X76114Y-28630D01*
X76040Y-28615D01*
X75964Y-28614D01*
X75890Y-28628D01*
X75820Y-28657D01*
X75757Y-28698D01*
X75703Y-28751D01*
X75660Y-28813D01*
X75631Y-28883D01*
X75615Y-28956D01*
X75614Y-29032D01*
X75628Y-29106D01*
X75655Y-29176D01*
X75696Y-29240D01*
X75749Y-29294D01*
X75766Y-29306D01*
X75766Y-29619D01*
X75748Y-29627D01*
X75730Y-29639D01*
X75714Y-29654D01*
X75702Y-29672D01*
X75694Y-29692D01*
X75690Y-29713D01*
X75689Y-29735D01*
X75689Y-30285D01*
X75694Y-30306D01*
X75702Y-30326D01*
X75714Y-30344D01*
X75729Y-30360D01*
X75747Y-30372D01*
X75767Y-30380D01*
X75788Y-30384D01*
X75810Y-30385D01*
X76065Y-30385D01*
X76117Y-30437D01*
X75752Y-30802D01*
X75740Y-30817D01*
X75728Y-30832D01*
X75727Y-30833D01*
X75726Y-30834D01*
X75717Y-30851D01*
X75708Y-30867D01*
X75708Y-30868D01*
X75707Y-30869D01*
X75701Y-30888D01*
X75696Y-30906D01*
X75696Y-30907D01*
X75695Y-30908D01*
X75693Y-30927D01*
X75691Y-30947D01*
X75691Y-30949D01*
X75691Y-30949D01*
X75691Y-30949D01*
X75691Y-30950D01*
X75691Y-31064D01*
X75664Y-31064D01*
X75643Y-31069D01*
X75623Y-31077D01*
X75605Y-31089D01*
X75589Y-31104D01*
X75577Y-31122D01*
X75569Y-31142D01*
X75565Y-31163D01*
X75564Y-31185D01*
X75564Y-31423D01*
X75550Y-31417D01*
X75529Y-31413D01*
X75507Y-31413D01*
X75487Y-31413D01*
X75480Y-31409D01*
X75441Y-31397D01*
X75400Y-31393D01*
X75360Y-31397D01*
X75321Y-31409D01*
X75312Y-31413D01*
X75271Y-31413D01*
X75250Y-31417D01*
X75230Y-31425D01*
X75212Y-31437D01*
X75196Y-31453D01*
X75184Y-31470D01*
X75176Y-31490D01*
X75172Y-31511D01*
X75171Y-31533D01*
X75171Y-31691D01*
X75176Y-31712D01*
X75184Y-31732D01*
X75196Y-31750D01*
X75211Y-31765D01*
X75229Y-31777D01*
X75249Y-31786D01*
X75270Y-31790D01*
X75292Y-31790D01*
X75293Y-31790D01*
X75550Y-32047D01*
X75565Y-32059D01*
X75572Y-32065D01*
X75574Y-32070D01*
X75150Y-32070D01*
X75138Y-32071D01*
X75126Y-32072D01*
X75125Y-32073D01*
X75124Y-32073D01*
X75113Y-32076D01*
X75101Y-32079D01*
X75101Y-32080D01*
X75100Y-32080D01*
X75090Y-32086D01*
X75079Y-32091D01*
X75079Y-32091D01*
X75078Y-32092D01*
X75069Y-32099D01*
X75059Y-32107D01*
X75058Y-32108D01*
X75058Y-32108D01*
X75058Y-32108D01*
X75058Y-32108D01*
X74733Y-32433D01*
X74725Y-32442D01*
X74718Y-32451D01*
X74717Y-32452D01*
X74717Y-32453D01*
X74711Y-32463D01*
X74706Y-32474D01*
X74705Y-32474D01*
X74705Y-32475D01*
X74702Y-32486D01*
X74698Y-32498D01*
X74698Y-32498D01*
X74698Y-32499D01*
X74696Y-32511D01*
X74695Y-32523D01*
X74695Y-32524D01*
X74695Y-32524D01*
X74695Y-32524D01*
X74695Y-32525D01*
X74695Y-34639D01*
X74682Y-34645D01*
X74667Y-34654D01*
X74655Y-34667D01*
X74645Y-34681D01*
X74638Y-34698D01*
X74635Y-34715D01*
X74634Y-34733D01*
X74634Y-35283D01*
X74638Y-35301D01*
X74645Y-35317D01*
X74654Y-35332D01*
X74667Y-35344D01*
X74681Y-35354D01*
X74698Y-35361D01*
X74715Y-35364D01*
X74733Y-35365D01*
X75283Y-35365D01*
X75301Y-35361D01*
X75317Y-35354D01*
X75332Y-35345D01*
X75344Y-35332D01*
X75354Y-35318D01*
X75361Y-35301D01*
X75364Y-35284D01*
X75365Y-35266D01*
X75365Y-34716D01*
X75361Y-34698D01*
X75354Y-34682D01*
X75345Y-34667D01*
X75332Y-34655D01*
X75318Y-34645D01*
X75301Y-34638D01*
X75284Y-34635D01*
X75266Y-34634D01*
X74954Y-34634D01*
X74954Y-33212D01*
X74970Y-33237D01*
X75005Y-33273D01*
X75047Y-33303D01*
X75094Y-33323D01*
X75144Y-33334D01*
X75195Y-33335D01*
X75245Y-33326D01*
X75292Y-33308D01*
X75335Y-33280D01*
X75372Y-33245D01*
X75402Y-33204D01*
X75422Y-33157D01*
X75433Y-33111D01*
X75559Y-32985D01*
X75583Y-32985D01*
X75597Y-32986D01*
X75600Y-32987D01*
X75800Y-32987D01*
X76100Y-32987D01*
X76140Y-32983D01*
X76180Y-32971D01*
X76190Y-32965D01*
X76228Y-32965D01*
X76249Y-32961D01*
X76269Y-32953D01*
X76287Y-32941D01*
X76303Y-32925D01*
X76315Y-32908D01*
X76319Y-32898D01*
X76327Y-32939D01*
X76346Y-32988D01*
X76374Y-33032D01*
X76411Y-33070D01*
X76454Y-33100D01*
X76502Y-33121D01*
X76553Y-33132D01*
X76605Y-33133D01*
X76657Y-33124D01*
X76705Y-33105D01*
X76750Y-33077D01*
X76788Y-33041D01*
X76818Y-32998D01*
X76839Y-32950D01*
X76851Y-32899D01*
X76852Y-32839D01*
X76841Y-32788D01*
X76821Y-32740D01*
X76792Y-32696D01*
X76756Y-32659D01*
X76712Y-32629D01*
X76664Y-32609D01*
X76613Y-32599D01*
X76560Y-32598D01*
X76509Y-32608D01*
X76460Y-32628D01*
X76416Y-32656D01*
X76379Y-32693D01*
X76349Y-32736D01*
X76329Y-32784D01*
X76328Y-32790D01*
X76328Y-32687D01*
X76323Y-32666D01*
X76315Y-32646D01*
X76303Y-32628D01*
X76288Y-32613D01*
X76270Y-32601D01*
X76250Y-32592D01*
X76229Y-32588D01*
X76207Y-32588D01*
X76190Y-32588D01*
X76182Y-32583D01*
X76143Y-32571D01*
X76102Y-32567D01*
X76100Y-32567D01*
X75800Y-32567D01*
X75600Y-32567D01*
X75583Y-32568D01*
X75473Y-32568D01*
X75453Y-32570D01*
X75434Y-32572D01*
X75433Y-32572D01*
X75432Y-32572D01*
X75414Y-32578D01*
X75395Y-32583D01*
X75394Y-32583D01*
X75393Y-32584D01*
X75376Y-32593D01*
X75359Y-32602D01*
X75358Y-32602D01*
X75357Y-32603D01*
X75342Y-32615D01*
X75327Y-32627D01*
X75326Y-32629D01*
X75326Y-32629D01*
X75326Y-32629D01*
X75325Y-32629D01*
X75137Y-32817D01*
X75101Y-32824D01*
X75053Y-32843D01*
X75011Y-32871D01*
X74974Y-32907D01*
X74954Y-32936D01*
X74954Y-32578D01*
X75203Y-32329D01*
X76575Y-32329D01*
X76586Y-32328D01*
X76598Y-32327D01*
X76599Y-32326D01*
X76600Y-32326D01*
X76611Y-32323D01*
X76623Y-32320D01*
X76623Y-32319D01*
X76624Y-32319D01*
X76634Y-32313D01*
X76645Y-32308D01*
X76645Y-32308D01*
X76646Y-32307D01*
X76655Y-32300D01*
X76665Y-32292D01*
X76666Y-32291D01*
X76666Y-32291D01*
X76666Y-32291D01*
X76666Y-32291D01*
X77290Y-31667D01*
X77306Y-31669D01*
X77335Y-31666D01*
X77363Y-31658D01*
X77389Y-31644D01*
X77412Y-31626D01*
X77430Y-31604D01*
X77445Y-31578D01*
X77453Y-31550D01*
X77457Y-31521D01*
X77457Y-31519D01*
X77457Y-31300D01*
X77454Y-31271D01*
X77445Y-31243D01*
X77432Y-31217D01*
X77413Y-31194D01*
X77391Y-31175D01*
X77365Y-31161D01*
X77337Y-31153D01*
X77308Y-31150D01*
X77278Y-31152D01*
X77250Y-31161D01*
X77224Y-31174D01*
X77202Y-31193D01*
X77183Y-31215D01*
X77169Y-31241D01*
X77160Y-31269D01*
X77157Y-31298D01*
X77157Y-31300D01*
X77157Y-31435D01*
X76852Y-31740D01*
X76852Y-31107D01*
X76841Y-31056D01*
X76821Y-31008D01*
X76792Y-30964D01*
X76756Y-30927D01*
X76712Y-30897D01*
X76664Y-30877D01*
X76613Y-30867D01*
X76560Y-30866D01*
X76509Y-30876D01*
X76460Y-30896D01*
X76416Y-30924D01*
X76379Y-30961D01*
X76349Y-31004D01*
X76329Y-31052D01*
X76318Y-31104D01*
X76317Y-31156D01*
X76327Y-31207D01*
X76346Y-31256D01*
X76374Y-31300D01*
X76411Y-31338D01*
X76454Y-31368D01*
X76502Y-31389D01*
X76553Y-31400D01*
X76605Y-31401D01*
X76657Y-31392D01*
X76705Y-31373D01*
X76750Y-31345D01*
X76788Y-31309D01*
X76818Y-31266D01*
X76839Y-31218D01*
X76851Y-31167D01*
X76852Y-31107D01*
X76852Y-31740D01*
X76659Y-31932D01*
X76660Y-31899D01*
X76650Y-31849D01*
X76630Y-31802D01*
X76602Y-31759D01*
X76566Y-31723D01*
X76524Y-31695D01*
X76477Y-31675D01*
X76427Y-31665D01*
X76376Y-31664D01*
X76326Y-31674D01*
X76283Y-31691D01*
X76197Y-31691D01*
X76195Y-31689D01*
X76177Y-31677D01*
X76157Y-31669D01*
X76136Y-31665D01*
X76114Y-31664D01*
X75757Y-31664D01*
X75628Y-31535D01*
X75628Y-31524D01*
X75642Y-31530D01*
X75663Y-31534D01*
X75685Y-31535D01*
X76135Y-31535D01*
X76156Y-31530D01*
X76176Y-31522D01*
X76194Y-31510D01*
X76210Y-31495D01*
X76222Y-31477D01*
X76230Y-31457D01*
X76234Y-31436D01*
X76235Y-31414D01*
X76235Y-31164D01*
X76230Y-31143D01*
X76222Y-31123D01*
X76210Y-31105D01*
X76195Y-31089D01*
X76177Y-31077D01*
X76157Y-31069D01*
X76136Y-31065D01*
X76114Y-31064D01*
X76108Y-31064D01*
X76108Y-31036D01*
X76511Y-30633D01*
X77238Y-30633D01*
X77368Y-30763D01*
X77368Y-30900D01*
X77372Y-30940D01*
X77384Y-30979D01*
X77388Y-30987D01*
X77388Y-31028D01*
X77392Y-31049D01*
X77400Y-31069D01*
X77412Y-31087D01*
X77428Y-31103D01*
X77445Y-31115D01*
X77465Y-31123D01*
X77486Y-31127D01*
X77508Y-31128D01*
X77512Y-31128D01*
X77512Y-31292D01*
X77511Y-31298D01*
X77511Y-31300D01*
X77511Y-31519D01*
X77514Y-31548D01*
X77522Y-31576D01*
X77536Y-31602D01*
X77554Y-31625D01*
X77577Y-31643D01*
X77603Y-31657D01*
X77631Y-31666D01*
X77660Y-31669D01*
X77689Y-31666D01*
X77717Y-31658D01*
X77743Y-31644D01*
X77749Y-31639D01*
X77754Y-31643D01*
X77780Y-31657D01*
X77808Y-31666D01*
X77837Y-31669D01*
X77866Y-31666D01*
X77894Y-31658D01*
X77920Y-31644D01*
X77927Y-31639D01*
X77931Y-31643D01*
X77957Y-31657D01*
X77985Y-31666D01*
X78014Y-31669D01*
X78043Y-31666D01*
X78071Y-31658D01*
X78097Y-31644D01*
X78104Y-31639D01*
X78108Y-31643D01*
X78134Y-31657D01*
X78162Y-31666D01*
X78191Y-31669D01*
X78198Y-31668D01*
X78199Y-31668D01*
X78199Y-31669D01*
X78200Y-31669D01*
X78211Y-31672D01*
X78223Y-31676D01*
X78223Y-31676D01*
X78224Y-31676D01*
X78236Y-31678D01*
X78248Y-31679D01*
X78249Y-31679D01*
X78249Y-31679D01*
X78249Y-31679D01*
X78250Y-31679D01*
X78538Y-31679D01*
X78532Y-31684D01*
X78531Y-31685D01*
X78531Y-31685D01*
X78531Y-31685D01*
X78531Y-31685D01*
X78457Y-31760D01*
X78432Y-31759D01*
X78396Y-31766D01*
X78361Y-31780D01*
X78330Y-31801D01*
X78303Y-31827D01*
X78282Y-31858D01*
X78268Y-31892D01*
X78260Y-31928D01*
X78259Y-31965D01*
X78266Y-32002D01*
X78280Y-32037D01*
X78300Y-32068D01*
X78318Y-32087D01*
X78303Y-32102D01*
X78282Y-32133D01*
X78268Y-32167D01*
X78260Y-32203D01*
X78259Y-32240D01*
X78266Y-32277D01*
X78280Y-32312D01*
X78285Y-32320D01*
X78250Y-32320D01*
X78238Y-32321D01*
X78226Y-32322D01*
X78225Y-32323D01*
X78224Y-32323D01*
X78213Y-32326D01*
X78201Y-32329D01*
X78201Y-32330D01*
X78200Y-32330D01*
X78199Y-32331D01*
X78193Y-32330D01*
X78164Y-32333D01*
X78136Y-32341D01*
X78110Y-32355D01*
X78104Y-32360D01*
X78099Y-32356D01*
X78073Y-32342D01*
X78045Y-32333D01*
X78016Y-32330D01*
X77987Y-32333D01*
X77959Y-32341D01*
X77933Y-32355D01*
X77927Y-32360D01*
X77922Y-32356D01*
X77896Y-32342D01*
X77868Y-32333D01*
X77839Y-32330D01*
X77810Y-32333D01*
X77782Y-32341D01*
X77756Y-32355D01*
X77750Y-32360D01*
X77745Y-32356D01*
X77719Y-32342D01*
X77691Y-32333D01*
X77662Y-32330D01*
X77633Y-32333D01*
X77605Y-32341D01*
X77579Y-32355D01*
X77572Y-32360D01*
X77568Y-32356D01*
X77542Y-32342D01*
X77514Y-32333D01*
X77485Y-32330D01*
X77456Y-32333D01*
X77428Y-32341D01*
X77402Y-32355D01*
X77395Y-32360D01*
X77391Y-32356D01*
X77365Y-32342D01*
X77337Y-32333D01*
X77308Y-32330D01*
X77278Y-32333D01*
X77250Y-32341D01*
X77224Y-32355D01*
X77202Y-32373D01*
X77183Y-32395D01*
X77169Y-32421D01*
X77160Y-32449D01*
X77157Y-32478D01*
X77157Y-32480D01*
X77157Y-32699D01*
X77159Y-32728D01*
X77168Y-32756D01*
X77177Y-32774D01*
X77177Y-32814D01*
X77008Y-32983D01*
X77000Y-32992D01*
X76993Y-33001D01*
X76992Y-33002D01*
X76992Y-33003D01*
X76986Y-33013D01*
X76981Y-33024D01*
X76980Y-33024D01*
X76980Y-33025D01*
X76977Y-33036D01*
X76973Y-33048D01*
X76973Y-33048D01*
X76973Y-33049D01*
X76971Y-33061D01*
X76970Y-33073D01*
X76970Y-33074D01*
X76970Y-33074D01*
X76970Y-33074D01*
X76970Y-33075D01*
X76970Y-34100D01*
X76971Y-34111D01*
X76972Y-34123D01*
X76973Y-34124D01*
X76973Y-34125D01*
X76976Y-34136D01*
X76979Y-34148D01*
X76980Y-34148D01*
X76980Y-34149D01*
X76986Y-34159D01*
X76991Y-34170D01*
X76991Y-34170D01*
X76992Y-34171D01*
X76999Y-34180D01*
X77007Y-34190D01*
X77008Y-34191D01*
X77008Y-34191D01*
X77008Y-34191D01*
X77008Y-34191D01*
X77667Y-34850D01*
X77650Y-34889D01*
X77635Y-34959D01*
X77634Y-35030D01*
X77647Y-35101D01*
X77673Y-35167D01*
X77712Y-35227D01*
X77762Y-35279D01*
X77821Y-35320D01*
X77886Y-35348D01*
X77956Y-35364D01*
X78028Y-35365D01*
X78098Y-35353D01*
X78165Y-35327D01*
X78225Y-35289D01*
X78277Y-35239D01*
X78318Y-35181D01*
X78348Y-35115D01*
X78363Y-35045D01*
X78365Y-34964D01*
X78351Y-34893D01*
X78323Y-34827D01*
X78284Y-34768D01*
X78233Y-34717D01*
X78174Y-34677D01*
X78108Y-34649D01*
X78038Y-34635D01*
X77966Y-34634D01*
X77896Y-34648D01*
X77849Y-34666D01*
X77229Y-34046D01*
X77229Y-33314D01*
X77231Y-33316D01*
X77266Y-33331D01*
X77302Y-33339D01*
X77339Y-33340D01*
X77376Y-33333D01*
X77411Y-33320D01*
X77442Y-33300D01*
X77469Y-33274D01*
X77471Y-33271D01*
X77471Y-33312D01*
X77476Y-33333D01*
X77484Y-33353D01*
X77496Y-33371D01*
X77511Y-33386D01*
X77529Y-33398D01*
X77549Y-33407D01*
X77570Y-33411D01*
X77592Y-33411D01*
X77612Y-33411D01*
X77617Y-33414D01*
X77656Y-33426D01*
X77697Y-33431D01*
X77700Y-33431D01*
X77857Y-33431D01*
X78070Y-33644D01*
X78065Y-33670D01*
X78064Y-33721D01*
X78073Y-33772D01*
X78092Y-33819D01*
X78120Y-33862D01*
X78155Y-33898D01*
X78197Y-33928D01*
X78244Y-33948D01*
X78294Y-33959D01*
X78345Y-33960D01*
X78395Y-33951D01*
X78442Y-33933D01*
X78485Y-33905D01*
X78522Y-33870D01*
X78552Y-33829D01*
X78572Y-33782D01*
X78583Y-33737D01*
X78870Y-34024D01*
X78870Y-34658D01*
X78830Y-34674D01*
X78770Y-34714D01*
X78719Y-34764D01*
X78678Y-34823D01*
X78650Y-34889D01*
X78635Y-34959D01*
X78634Y-35030D01*
X78647Y-35101D01*
X78673Y-35167D01*
X78712Y-35227D01*
X78762Y-35279D01*
X78821Y-35320D01*
X78886Y-35348D01*
X78956Y-35364D01*
X79028Y-35365D01*
X79098Y-35353D01*
X79165Y-35327D01*
X79225Y-35289D01*
X79277Y-35239D01*
X79318Y-35181D01*
X79348Y-35115D01*
X79363Y-35045D01*
X79365Y-34964D01*
X79351Y-34893D01*
X79323Y-34827D01*
X79284Y-34768D01*
X79233Y-34717D01*
X79193Y-34689D01*
X79214Y-34690D01*
X79251Y-34683D01*
X79286Y-34670D01*
X79317Y-34650D01*
X79344Y-34624D01*
X79366Y-34594D01*
X79381Y-34560D01*
X79389Y-34523D01*
X79390Y-34481D01*
X79382Y-34444D01*
X79368Y-34410D01*
X79347Y-34379D01*
X79329Y-34360D01*
X79329Y-33975D01*
X79328Y-33963D01*
X79327Y-33951D01*
X79326Y-33950D01*
X79326Y-33949D01*
X79323Y-33938D01*
X79320Y-33926D01*
X79319Y-33926D01*
X79319Y-33925D01*
X79313Y-33915D01*
X79308Y-33904D01*
X79308Y-33904D01*
X79307Y-33903D01*
X79300Y-33894D01*
X79292Y-33884D01*
X79291Y-33883D01*
X79291Y-33883D01*
X79291Y-33883D01*
X79291Y-33883D01*
X78247Y-32839D01*
X78249Y-32838D01*
X78275Y-32825D01*
X78297Y-32806D01*
X78316Y-32784D01*
X78330Y-32758D01*
X78339Y-32730D01*
X78342Y-32701D01*
X78342Y-32699D01*
X78342Y-32579D01*
X78641Y-32579D01*
X78641Y-32614D01*
X78645Y-32631D01*
X78652Y-32647D01*
X78661Y-32662D01*
X78674Y-32675D01*
X78688Y-32685D01*
X78705Y-32691D01*
X78722Y-32695D01*
X78740Y-32695D01*
X78976Y-32695D01*
X78994Y-32692D01*
X79010Y-32685D01*
X79025Y-32675D01*
X79037Y-32663D01*
X79047Y-32648D01*
X79054Y-32632D01*
X79057Y-32614D01*
X79058Y-32597D01*
X79058Y-32439D01*
X79054Y-32422D01*
X79047Y-32406D01*
X79038Y-32391D01*
X79025Y-32378D01*
X79011Y-32368D01*
X78994Y-32362D01*
X78977Y-32358D01*
X78959Y-32358D01*
X78864Y-32358D01*
X78855Y-32350D01*
X78846Y-32343D01*
X78845Y-32342D01*
X78844Y-32342D01*
X78843Y-32341D01*
X78976Y-32341D01*
X78994Y-32338D01*
X79010Y-32331D01*
X79025Y-32321D01*
X79038Y-32331D01*
X79055Y-32337D01*
X79072Y-32341D01*
X79090Y-32341D01*
X79326Y-32341D01*
X79344Y-32338D01*
X79360Y-32331D01*
X79375Y-32321D01*
X79387Y-32309D01*
X79390Y-32305D01*
X79390Y-35390D01*
X79390Y-35390D01*
G37*
G54D26*
X79390Y-35390D02*
X77365Y-35390D01*
X77365Y-34964D01*
X77351Y-34893D01*
X77323Y-34827D01*
X77284Y-34768D01*
X77233Y-34717D01*
X77174Y-34677D01*
X77108Y-34649D01*
X77038Y-34635D01*
X76966Y-34634D01*
X76896Y-34648D01*
X76830Y-34674D01*
X76770Y-34714D01*
X76719Y-34764D01*
X76678Y-34823D01*
X76650Y-34889D01*
X76635Y-34959D01*
X76634Y-35030D01*
X76647Y-35101D01*
X76673Y-35167D01*
X76712Y-35227D01*
X76762Y-35279D01*
X76821Y-35320D01*
X76886Y-35348D01*
X76956Y-35364D01*
X77028Y-35365D01*
X77098Y-35353D01*
X77165Y-35327D01*
X77225Y-35289D01*
X77277Y-35239D01*
X77318Y-35181D01*
X77348Y-35115D01*
X77363Y-35045D01*
X77365Y-34964D01*
X77365Y-35390D01*
X76365Y-35390D01*
X76365Y-34964D01*
X76351Y-34893D01*
X76323Y-34827D01*
X76284Y-34768D01*
X76233Y-34717D01*
X76174Y-34677D01*
X76108Y-34649D01*
X76038Y-34635D01*
X75966Y-34634D01*
X75896Y-34648D01*
X75830Y-34674D01*
X75770Y-34714D01*
X75719Y-34764D01*
X75678Y-34823D01*
X75650Y-34889D01*
X75635Y-34959D01*
X75634Y-35030D01*
X75647Y-35101D01*
X75673Y-35167D01*
X75712Y-35227D01*
X75762Y-35279D01*
X75821Y-35320D01*
X75886Y-35348D01*
X75956Y-35364D01*
X76028Y-35365D01*
X76098Y-35353D01*
X76165Y-35327D01*
X76225Y-35289D01*
X76277Y-35239D01*
X76318Y-35181D01*
X76348Y-35115D01*
X76363Y-35045D01*
X76365Y-34964D01*
X76365Y-35390D01*
X74609Y-35390D01*
X74609Y-28609D01*
X79390Y-28609D01*
X79390Y-31644D01*
X79388Y-31641D01*
X79375Y-31628D01*
X79361Y-31618D01*
X79344Y-31612D01*
X79327Y-31608D01*
X79309Y-31608D01*
X79073Y-31608D01*
X79055Y-31611D01*
X79039Y-31618D01*
X79024Y-31628D01*
X79011Y-31618D01*
X78994Y-31612D01*
X78977Y-31608D01*
X78959Y-31608D01*
X78847Y-31608D01*
X78864Y-31591D01*
X78976Y-31591D01*
X78994Y-31588D01*
X79010Y-31581D01*
X79025Y-31571D01*
X79037Y-31559D01*
X79047Y-31544D01*
X79054Y-31528D01*
X79057Y-31510D01*
X79058Y-31493D01*
X79058Y-31335D01*
X79054Y-31318D01*
X79047Y-31302D01*
X79038Y-31287D01*
X79025Y-31274D01*
X79011Y-31264D01*
X78994Y-31258D01*
X78977Y-31254D01*
X78959Y-31254D01*
X78723Y-31254D01*
X78705Y-31257D01*
X78689Y-31264D01*
X78674Y-31274D01*
X78662Y-31286D01*
X78652Y-31301D01*
X78645Y-31317D01*
X78642Y-31335D01*
X78641Y-31352D01*
X78641Y-31420D01*
X78342Y-31420D01*
X78342Y-31300D01*
X78340Y-31271D01*
X78331Y-31243D01*
X78317Y-31217D01*
X78299Y-31194D01*
X78276Y-31175D01*
X78251Y-31161D01*
X78247Y-31160D01*
X78318Y-31089D01*
X78339Y-31090D01*
X78376Y-31083D01*
X78411Y-31070D01*
X78442Y-31050D01*
X78469Y-31024D01*
X78491Y-30994D01*
X78506Y-30960D01*
X78514Y-30923D01*
X78515Y-30881D01*
X78507Y-30844D01*
X78493Y-30810D01*
X78472Y-30779D01*
X78454Y-30760D01*
X78454Y-30499D01*
X78664Y-30709D01*
X78664Y-30835D01*
X78669Y-30856D01*
X78677Y-30876D01*
X78689Y-30894D01*
X78704Y-30910D01*
X78722Y-30922D01*
X78742Y-30930D01*
X78763Y-30934D01*
X78785Y-30935D01*
X79235Y-30935D01*
X79256Y-30930D01*
X79276Y-30922D01*
X79294Y-30910D01*
X79310Y-30895D01*
X79322Y-30877D01*
X79330Y-30857D01*
X79334Y-30836D01*
X79335Y-30814D01*
X79335Y-30564D01*
X79330Y-30543D01*
X79322Y-30523D01*
X79310Y-30505D01*
X79295Y-30489D01*
X79277Y-30477D01*
X79257Y-30469D01*
X79236Y-30465D01*
X79214Y-30464D01*
X79009Y-30464D01*
X78879Y-30335D01*
X79235Y-30335D01*
X79256Y-30330D01*
X79276Y-30322D01*
X79294Y-30310D01*
X79310Y-30295D01*
X79322Y-30277D01*
X79330Y-30257D01*
X79334Y-30236D01*
X79335Y-30214D01*
X79335Y-29964D01*
X79330Y-29943D01*
X79322Y-29923D01*
X79310Y-29905D01*
X79295Y-29889D01*
X79283Y-29882D01*
X79285Y-29880D01*
X79322Y-29845D01*
X79352Y-29804D01*
X79372Y-29757D01*
X79384Y-29707D01*
X79385Y-29649D01*
X79375Y-29599D01*
X79365Y-29575D01*
X79365Y-28964D01*
X79351Y-28893D01*
X79323Y-28827D01*
X79284Y-28768D01*
X79233Y-28717D01*
X79174Y-28677D01*
X79108Y-28649D01*
X79038Y-28635D01*
X78966Y-28634D01*
X78896Y-28648D01*
X78830Y-28674D01*
X78770Y-28714D01*
X78719Y-28764D01*
X78678Y-28823D01*
X78650Y-28889D01*
X78635Y-28959D01*
X78634Y-29030D01*
X78647Y-29101D01*
X78673Y-29167D01*
X78712Y-29227D01*
X78762Y-29279D01*
X78821Y-29320D01*
X78886Y-29348D01*
X78956Y-29364D01*
X79028Y-29365D01*
X79098Y-29353D01*
X79165Y-29327D01*
X79225Y-29289D01*
X79277Y-29239D01*
X79318Y-29181D01*
X79348Y-29115D01*
X79363Y-29045D01*
X79365Y-28964D01*
X79365Y-29575D01*
X79355Y-29552D01*
X79327Y-29509D01*
X79291Y-29473D01*
X79249Y-29445D01*
X79202Y-29425D01*
X79152Y-29415D01*
X79101Y-29414D01*
X79051Y-29424D01*
X79003Y-29443D01*
X78961Y-29471D01*
X78924Y-29507D01*
X78896Y-29549D01*
X78875Y-29596D01*
X78866Y-29638D01*
X78852Y-29652D01*
X78850Y-29655D01*
X78351Y-29156D01*
X78367Y-29122D01*
X78383Y-29048D01*
X78385Y-28962D01*
X78370Y-28888D01*
X78341Y-28818D01*
X78299Y-28755D01*
X78246Y-28701D01*
X78184Y-28659D01*
X78114Y-28630D01*
X78040Y-28615D01*
X77964Y-28614D01*
X77890Y-28628D01*
X77820Y-28657D01*
X77757Y-28698D01*
X77703Y-28751D01*
X77660Y-28813D01*
X77631Y-28883D01*
X77615Y-28956D01*
X77614Y-29032D01*
X77628Y-29106D01*
X77655Y-29176D01*
X77696Y-29240D01*
X77718Y-29262D01*
X77282Y-29262D01*
X77292Y-29252D01*
X77336Y-29191D01*
X77367Y-29122D01*
X77383Y-29048D01*
X77385Y-28962D01*
X77370Y-28888D01*
X77341Y-28818D01*
X77299Y-28755D01*
X77246Y-28701D01*
X77184Y-28659D01*
X77114Y-28630D01*
X77040Y-28615D01*
X76964Y-28614D01*
X76890Y-28628D01*
X76820Y-28657D01*
X76757Y-28698D01*
X76703Y-28751D01*
X76660Y-28813D01*
X76631Y-28883D01*
X76615Y-28956D01*
X76614Y-29032D01*
X76628Y-29106D01*
X76655Y-29176D01*
X76696Y-29240D01*
X76749Y-29294D01*
X76791Y-29324D01*
X76791Y-29470D01*
X76791Y-29477D01*
X76793Y-29496D01*
X76795Y-29515D01*
X76795Y-29516D01*
X76795Y-29517D01*
X76801Y-29535D01*
X76806Y-29554D01*
X76806Y-29555D01*
X76807Y-29556D01*
X76816Y-29573D01*
X76825Y-29590D01*
X76825Y-29591D01*
X76826Y-29592D01*
X76838Y-29607D01*
X76850Y-29622D01*
X76852Y-29623D01*
X76852Y-29623D01*
X76852Y-29623D01*
X76852Y-29624D01*
X76900Y-29671D01*
X76887Y-29671D01*
X76866Y-29676D01*
X76846Y-29684D01*
X76828Y-29696D01*
X76813Y-29711D01*
X76801Y-29729D01*
X76792Y-29749D01*
X76788Y-29770D01*
X76788Y-29792D01*
X76788Y-29812D01*
X76784Y-29819D01*
X76772Y-29858D01*
X76768Y-29898D01*
X76772Y-29939D01*
X76783Y-29978D01*
X76788Y-29987D01*
X76788Y-30028D01*
X76792Y-30049D01*
X76800Y-30069D01*
X76812Y-30087D01*
X76828Y-30103D01*
X76845Y-30115D01*
X76865Y-30123D01*
X76886Y-30127D01*
X76908Y-30128D01*
X77066Y-30128D01*
X77087Y-30123D01*
X77107Y-30115D01*
X77118Y-30108D01*
X77281Y-30108D01*
X77291Y-30115D01*
X77311Y-30123D01*
X77332Y-30127D01*
X77354Y-30128D01*
X77416Y-30128D01*
X77689Y-30400D01*
X77689Y-30494D01*
X77472Y-30277D01*
X77457Y-30265D01*
X77442Y-30253D01*
X77441Y-30252D01*
X77440Y-30251D01*
X77423Y-30242D01*
X77407Y-30233D01*
X77406Y-30233D01*
X77405Y-30232D01*
X77386Y-30226D01*
X77368Y-30221D01*
X77367Y-30221D01*
X77366Y-30220D01*
X77347Y-30218D01*
X77327Y-30216D01*
X77325Y-30216D01*
X77325Y-30216D01*
X77325Y-30216D01*
X77325Y-30216D01*
X76486Y-30216D01*
X76260Y-29990D01*
X76260Y-29714D01*
X76255Y-29693D01*
X76247Y-29673D01*
X76235Y-29655D01*
X76220Y-29639D01*
X76202Y-29627D01*
X76183Y-29619D01*
X76183Y-29339D01*
X76238Y-29304D01*
X76292Y-29252D01*
X76336Y-29191D01*
X76367Y-29122D01*
X76383Y-29048D01*
X76385Y-28962D01*
X76370Y-28888D01*
X76341Y-28818D01*
X76299Y-28755D01*
X76246Y-28701D01*
X76184Y-28659D01*
X76114Y-28630D01*
X76040Y-28615D01*
X75964Y-28614D01*
X75890Y-28628D01*
X75820Y-28657D01*
X75757Y-28698D01*
X75703Y-28751D01*
X75660Y-28813D01*
X75631Y-28883D01*
X75615Y-28956D01*
X75614Y-29032D01*
X75628Y-29106D01*
X75655Y-29176D01*
X75696Y-29240D01*
X75749Y-29294D01*
X75766Y-29306D01*
X75766Y-29619D01*
X75748Y-29627D01*
X75730Y-29639D01*
X75714Y-29654D01*
X75702Y-29672D01*
X75694Y-29692D01*
X75690Y-29713D01*
X75689Y-29735D01*
X75689Y-30285D01*
X75694Y-30306D01*
X75702Y-30326D01*
X75714Y-30344D01*
X75729Y-30360D01*
X75747Y-30372D01*
X75767Y-30380D01*
X75788Y-30384D01*
X75810Y-30385D01*
X76065Y-30385D01*
X76117Y-30437D01*
X75752Y-30802D01*
X75740Y-30817D01*
X75728Y-30832D01*
X75727Y-30833D01*
X75726Y-30834D01*
X75717Y-30851D01*
X75708Y-30867D01*
X75708Y-30868D01*
X75707Y-30869D01*
X75701Y-30888D01*
X75696Y-30906D01*
X75696Y-30907D01*
X75695Y-30908D01*
X75693Y-30927D01*
X75691Y-30947D01*
X75691Y-30949D01*
X75691Y-30949D01*
X75691Y-30949D01*
X75691Y-30950D01*
X75691Y-31064D01*
X75664Y-31064D01*
X75643Y-31069D01*
X75623Y-31077D01*
X75605Y-31089D01*
X75589Y-31104D01*
X75577Y-31122D01*
X75569Y-31142D01*
X75565Y-31163D01*
X75564Y-31185D01*
X75564Y-31423D01*
X75550Y-31417D01*
X75529Y-31413D01*
X75507Y-31413D01*
X75487Y-31413D01*
X75480Y-31409D01*
X75441Y-31397D01*
X75400Y-31393D01*
X75360Y-31397D01*
X75321Y-31409D01*
X75312Y-31413D01*
X75271Y-31413D01*
X75250Y-31417D01*
X75230Y-31425D01*
X75212Y-31437D01*
X75196Y-31453D01*
X75184Y-31470D01*
X75176Y-31490D01*
X75172Y-31511D01*
X75171Y-31533D01*
X75171Y-31691D01*
X75176Y-31712D01*
X75184Y-31732D01*
X75196Y-31750D01*
X75211Y-31765D01*
X75229Y-31777D01*
X75249Y-31786D01*
X75270Y-31790D01*
X75292Y-31790D01*
X75293Y-31790D01*
X75550Y-32047D01*
X75565Y-32059D01*
X75572Y-32065D01*
X75574Y-32070D01*
X75150Y-32070D01*
X75138Y-32071D01*
X75126Y-32072D01*
X75125Y-32073D01*
X75124Y-32073D01*
X75113Y-32076D01*
X75101Y-32079D01*
X75101Y-32080D01*
X75100Y-32080D01*
X75090Y-32086D01*
X75079Y-32091D01*
X75079Y-32091D01*
X75078Y-32092D01*
X75069Y-32099D01*
X75059Y-32107D01*
X75058Y-32108D01*
X75058Y-32108D01*
X75058Y-32108D01*
X75058Y-32108D01*
X74733Y-32433D01*
X74725Y-32442D01*
X74718Y-32451D01*
X74717Y-32452D01*
X74717Y-32453D01*
X74711Y-32463D01*
X74706Y-32474D01*
X74705Y-32474D01*
X74705Y-32475D01*
X74702Y-32486D01*
X74698Y-32498D01*
X74698Y-32498D01*
X74698Y-32499D01*
X74696Y-32511D01*
X74695Y-32523D01*
X74695Y-32524D01*
X74695Y-32524D01*
X74695Y-32524D01*
X74695Y-32525D01*
X74695Y-34639D01*
X74682Y-34645D01*
X74667Y-34654D01*
X74655Y-34667D01*
X74645Y-34681D01*
X74638Y-34698D01*
X74635Y-34715D01*
X74634Y-34733D01*
X74634Y-35283D01*
X74638Y-35301D01*
X74645Y-35317D01*
X74654Y-35332D01*
X74667Y-35344D01*
X74681Y-35354D01*
X74698Y-35361D01*
X74715Y-35364D01*
X74733Y-35365D01*
X75283Y-35365D01*
X75301Y-35361D01*
X75317Y-35354D01*
X75332Y-35345D01*
X75344Y-35332D01*
X75354Y-35318D01*
X75361Y-35301D01*
X75364Y-35284D01*
X75365Y-35266D01*
X75365Y-34716D01*
X75361Y-34698D01*
X75354Y-34682D01*
X75345Y-34667D01*
X75332Y-34655D01*
X75318Y-34645D01*
X75301Y-34638D01*
X75284Y-34635D01*
X75266Y-34634D01*
X74954Y-34634D01*
X74954Y-33212D01*
X74970Y-33237D01*
X75005Y-33273D01*
X75047Y-33303D01*
X75094Y-33323D01*
X75144Y-33334D01*
X75195Y-33335D01*
X75245Y-33326D01*
X75292Y-33308D01*
X75335Y-33280D01*
X75372Y-33245D01*
X75402Y-33204D01*
X75422Y-33157D01*
X75433Y-33111D01*
X75559Y-32985D01*
X75583Y-32985D01*
X75597Y-32986D01*
X75600Y-32987D01*
X75800Y-32987D01*
X76100Y-32987D01*
X76140Y-32983D01*
X76180Y-32971D01*
X76190Y-32965D01*
X76228Y-32965D01*
X76249Y-32961D01*
X76269Y-32953D01*
X76287Y-32941D01*
X76303Y-32925D01*
X76315Y-32908D01*
X76319Y-32898D01*
X76327Y-32939D01*
X76346Y-32988D01*
X76374Y-33032D01*
X76411Y-33070D01*
X76454Y-33100D01*
X76502Y-33121D01*
X76553Y-33132D01*
X76605Y-33133D01*
X76657Y-33124D01*
X76705Y-33105D01*
X76750Y-33077D01*
X76788Y-33041D01*
X76818Y-32998D01*
X76839Y-32950D01*
X76851Y-32899D01*
X76852Y-32839D01*
X76841Y-32788D01*
X76821Y-32740D01*
X76792Y-32696D01*
X76756Y-32659D01*
X76712Y-32629D01*
X76664Y-32609D01*
X76613Y-32599D01*
X76560Y-32598D01*
X76509Y-32608D01*
X76460Y-32628D01*
X76416Y-32656D01*
X76379Y-32693D01*
X76349Y-32736D01*
X76329Y-32784D01*
X76328Y-32790D01*
X76328Y-32687D01*
X76323Y-32666D01*
X76315Y-32646D01*
X76303Y-32628D01*
X76288Y-32613D01*
X76270Y-32601D01*
X76250Y-32592D01*
X76229Y-32588D01*
X76207Y-32588D01*
X76190Y-32588D01*
X76182Y-32583D01*
X76143Y-32571D01*
X76102Y-32567D01*
X76100Y-32567D01*
X75800Y-32567D01*
X75600Y-32567D01*
X75583Y-32568D01*
X75473Y-32568D01*
X75453Y-32570D01*
X75434Y-32572D01*
X75433Y-32572D01*
X75432Y-32572D01*
X75414Y-32578D01*
X75395Y-32583D01*
X75394Y-32583D01*
X75393Y-32584D01*
X75376Y-32593D01*
X75359Y-32602D01*
X75358Y-32602D01*
X75357Y-32603D01*
X75342Y-32615D01*
X75327Y-32627D01*
X75326Y-32629D01*
X75326Y-32629D01*
X75326Y-32629D01*
X75325Y-32629D01*
X75137Y-32817D01*
X75101Y-32824D01*
X75053Y-32843D01*
X75011Y-32871D01*
X74974Y-32907D01*
X74954Y-32936D01*
X74954Y-32578D01*
X75203Y-32329D01*
X76575Y-32329D01*
X76586Y-32328D01*
X76598Y-32327D01*
X76599Y-32326D01*
X76600Y-32326D01*
X76611Y-32323D01*
X76623Y-32320D01*
X76623Y-32319D01*
X76624Y-32319D01*
X76634Y-32313D01*
X76645Y-32308D01*
X76645Y-32308D01*
X76646Y-32307D01*
X76655Y-32300D01*
X76665Y-32292D01*
X76666Y-32291D01*
X76666Y-32291D01*
X76666Y-32291D01*
X76666Y-32291D01*
X77290Y-31667D01*
X77306Y-31669D01*
X77335Y-31666D01*
X77363Y-31658D01*
X77389Y-31644D01*
X77412Y-31626D01*
X77430Y-31604D01*
X77445Y-31578D01*
X77453Y-31550D01*
X77457Y-31521D01*
X77457Y-31519D01*
X77457Y-31300D01*
X77454Y-31271D01*
X77445Y-31243D01*
X77432Y-31217D01*
X77413Y-31194D01*
X77391Y-31175D01*
X77365Y-31161D01*
X77337Y-31153D01*
X77308Y-31150D01*
X77278Y-31152D01*
X77250Y-31161D01*
X77224Y-31174D01*
X77202Y-31193D01*
X77183Y-31215D01*
X77169Y-31241D01*
X77160Y-31269D01*
X77157Y-31298D01*
X77157Y-31300D01*
X77157Y-31435D01*
X76852Y-31740D01*
X76852Y-31107D01*
X76841Y-31056D01*
X76821Y-31008D01*
X76792Y-30964D01*
X76756Y-30927D01*
X76712Y-30897D01*
X76664Y-30877D01*
X76613Y-30867D01*
X76560Y-30866D01*
X76509Y-30876D01*
X76460Y-30896D01*
X76416Y-30924D01*
X76379Y-30961D01*
X76349Y-31004D01*
X76329Y-31052D01*
X76318Y-31104D01*
X76317Y-31156D01*
X76327Y-31207D01*
X76346Y-31256D01*
X76374Y-31300D01*
X76411Y-31338D01*
X76454Y-31368D01*
X76502Y-31389D01*
X76553Y-31400D01*
X76605Y-31401D01*
X76657Y-31392D01*
X76705Y-31373D01*
X76750Y-31345D01*
X76788Y-31309D01*
X76818Y-31266D01*
X76839Y-31218D01*
X76851Y-31167D01*
X76852Y-31107D01*
X76852Y-31740D01*
X76659Y-31932D01*
X76660Y-31899D01*
X76650Y-31849D01*
X76630Y-31802D01*
X76602Y-31759D01*
X76566Y-31723D01*
X76524Y-31695D01*
X76477Y-31675D01*
X76427Y-31665D01*
X76376Y-31664D01*
X76326Y-31674D01*
X76283Y-31691D01*
X76197Y-31691D01*
X76195Y-31689D01*
X76177Y-31677D01*
X76157Y-31669D01*
X76136Y-31665D01*
X76114Y-31664D01*
X75757Y-31664D01*
X75628Y-31535D01*
X75628Y-31524D01*
X75642Y-31530D01*
X75663Y-31534D01*
X75685Y-31535D01*
X76135Y-31535D01*
X76156Y-31530D01*
X76176Y-31522D01*
X76194Y-31510D01*
X76210Y-31495D01*
X76222Y-31477D01*
X76230Y-31457D01*
X76234Y-31436D01*
X76235Y-31414D01*
X76235Y-31164D01*
X76230Y-31143D01*
X76222Y-31123D01*
X76210Y-31105D01*
X76195Y-31089D01*
X76177Y-31077D01*
X76157Y-31069D01*
X76136Y-31065D01*
X76114Y-31064D01*
X76108Y-31064D01*
X76108Y-31036D01*
X76511Y-30633D01*
X77238Y-30633D01*
X77368Y-30763D01*
X77368Y-30900D01*
X77372Y-30940D01*
X77384Y-30979D01*
X77388Y-30987D01*
X77388Y-31028D01*
X77392Y-31049D01*
X77400Y-31069D01*
X77412Y-31087D01*
X77428Y-31103D01*
X77445Y-31115D01*
X77465Y-31123D01*
X77486Y-31127D01*
X77508Y-31128D01*
X77512Y-31128D01*
X77512Y-31292D01*
X77511Y-31298D01*
X77511Y-31300D01*
X77511Y-31519D01*
X77514Y-31548D01*
X77522Y-31576D01*
X77536Y-31602D01*
X77554Y-31625D01*
X77577Y-31643D01*
X77603Y-31657D01*
X77631Y-31666D01*
X77660Y-31669D01*
X77689Y-31666D01*
X77717Y-31658D01*
X77743Y-31644D01*
X77749Y-31639D01*
X77754Y-31643D01*
X77780Y-31657D01*
X77808Y-31666D01*
X77837Y-31669D01*
X77866Y-31666D01*
X77894Y-31658D01*
X77920Y-31644D01*
X77927Y-31639D01*
X77931Y-31643D01*
X77957Y-31657D01*
X77985Y-31666D01*
X78014Y-31669D01*
X78043Y-31666D01*
X78071Y-31658D01*
X78097Y-31644D01*
X78104Y-31639D01*
X78108Y-31643D01*
X78134Y-31657D01*
X78162Y-31666D01*
X78191Y-31669D01*
X78198Y-31668D01*
X78199Y-31668D01*
X78199Y-31669D01*
X78200Y-31669D01*
X78211Y-31672D01*
X78223Y-31676D01*
X78223Y-31676D01*
X78224Y-31676D01*
X78236Y-31678D01*
X78248Y-31679D01*
X78249Y-31679D01*
X78249Y-31679D01*
X78249Y-31679D01*
X78250Y-31679D01*
X78538Y-31679D01*
X78532Y-31684D01*
X78531Y-31685D01*
X78531Y-31685D01*
X78531Y-31685D01*
X78531Y-31685D01*
X78457Y-31760D01*
X78432Y-31759D01*
X78396Y-31766D01*
X78361Y-31780D01*
X78330Y-31801D01*
X78303Y-31827D01*
X78282Y-31858D01*
X78268Y-31892D01*
X78260Y-31928D01*
X78259Y-31965D01*
X78266Y-32002D01*
X78280Y-32037D01*
X78300Y-32068D01*
X78318Y-32087D01*
X78303Y-32102D01*
X78282Y-32133D01*
X78268Y-32167D01*
X78260Y-32203D01*
X78259Y-32240D01*
X78266Y-32277D01*
X78280Y-32312D01*
X78285Y-32320D01*
X78250Y-32320D01*
X78238Y-32321D01*
X78226Y-32322D01*
X78225Y-32323D01*
X78224Y-32323D01*
X78213Y-32326D01*
X78201Y-32329D01*
X78201Y-32330D01*
X78200Y-32330D01*
X78199Y-32331D01*
X78193Y-32330D01*
X78164Y-32333D01*
X78136Y-32341D01*
X78110Y-32355D01*
X78104Y-32360D01*
X78099Y-32356D01*
X78073Y-32342D01*
X78045Y-32333D01*
X78016Y-32330D01*
X77987Y-32333D01*
X77959Y-32341D01*
X77933Y-32355D01*
X77927Y-32360D01*
X77922Y-32356D01*
X77896Y-32342D01*
X77868Y-32333D01*
X77839Y-32330D01*
X77810Y-32333D01*
X77782Y-32341D01*
X77756Y-32355D01*
X77750Y-32360D01*
X77745Y-32356D01*
X77719Y-32342D01*
X77691Y-32333D01*
X77662Y-32330D01*
X77633Y-32333D01*
X77605Y-32341D01*
X77579Y-32355D01*
X77572Y-32360D01*
X77568Y-32356D01*
X77542Y-32342D01*
X77514Y-32333D01*
X77485Y-32330D01*
X77456Y-32333D01*
X77428Y-32341D01*
X77402Y-32355D01*
X77395Y-32360D01*
X77391Y-32356D01*
X77365Y-32342D01*
X77337Y-32333D01*
X77308Y-32330D01*
X77278Y-32333D01*
X77250Y-32341D01*
X77224Y-32355D01*
X77202Y-32373D01*
X77183Y-32395D01*
X77169Y-32421D01*
X77160Y-32449D01*
X77157Y-32478D01*
X77157Y-32480D01*
X77157Y-32699D01*
X77159Y-32728D01*
X77168Y-32756D01*
X77177Y-32774D01*
X77177Y-32814D01*
X77008Y-32983D01*
X77000Y-32992D01*
X76993Y-33001D01*
X76992Y-33002D01*
X76992Y-33003D01*
X76986Y-33013D01*
X76981Y-33024D01*
X76980Y-33024D01*
X76980Y-33025D01*
X76977Y-33036D01*
X76973Y-33048D01*
X76973Y-33048D01*
X76973Y-33049D01*
X76971Y-33061D01*
X76970Y-33073D01*
X76970Y-33074D01*
X76970Y-33074D01*
X76970Y-33074D01*
X76970Y-33075D01*
X76970Y-34100D01*
X76971Y-34111D01*
X76972Y-34123D01*
X76973Y-34124D01*
X76973Y-34125D01*
X76976Y-34136D01*
X76979Y-34148D01*
X76980Y-34148D01*
X76980Y-34149D01*
X76986Y-34159D01*
X76991Y-34170D01*
X76991Y-34170D01*
X76992Y-34171D01*
X76999Y-34180D01*
X77007Y-34190D01*
X77008Y-34191D01*
X77008Y-34191D01*
X77008Y-34191D01*
X77008Y-34191D01*
X77667Y-34850D01*
X77650Y-34889D01*
X77635Y-34959D01*
X77634Y-35030D01*
X77647Y-35101D01*
X77673Y-35167D01*
X77712Y-35227D01*
X77762Y-35279D01*
X77821Y-35320D01*
X77886Y-35348D01*
X77956Y-35364D01*
X78028Y-35365D01*
X78098Y-35353D01*
X78165Y-35327D01*
X78225Y-35289D01*
X78277Y-35239D01*
X78318Y-35181D01*
X78348Y-35115D01*
X78363Y-35045D01*
X78365Y-34964D01*
X78351Y-34893D01*
X78323Y-34827D01*
X78284Y-34768D01*
X78233Y-34717D01*
X78174Y-34677D01*
X78108Y-34649D01*
X78038Y-34635D01*
X77966Y-34634D01*
X77896Y-34648D01*
X77849Y-34666D01*
X77229Y-34046D01*
X77229Y-33314D01*
X77231Y-33316D01*
X77266Y-33331D01*
X77302Y-33339D01*
X77339Y-33340D01*
X77376Y-33333D01*
X77411Y-33320D01*
X77442Y-33300D01*
X77469Y-33274D01*
X77471Y-33271D01*
X77471Y-33312D01*
X77476Y-33333D01*
X77484Y-33353D01*
X77496Y-33371D01*
X77511Y-33386D01*
X77529Y-33398D01*
X77549Y-33407D01*
X77570Y-33411D01*
X77592Y-33411D01*
X77612Y-33411D01*
X77617Y-33414D01*
X77656Y-33426D01*
X77697Y-33431D01*
X77700Y-33431D01*
X77857Y-33431D01*
X78070Y-33644D01*
X78065Y-33670D01*
X78064Y-33721D01*
X78073Y-33772D01*
X78092Y-33819D01*
X78120Y-33862D01*
X78155Y-33898D01*
X78197Y-33928D01*
X78244Y-33948D01*
X78294Y-33959D01*
X78345Y-33960D01*
X78395Y-33951D01*
X78442Y-33933D01*
X78485Y-33905D01*
X78522Y-33870D01*
X78552Y-33829D01*
X78572Y-33782D01*
X78583Y-33737D01*
X78870Y-34024D01*
X78870Y-34658D01*
X78830Y-34674D01*
X78770Y-34714D01*
X78719Y-34764D01*
X78678Y-34823D01*
X78650Y-34889D01*
X78635Y-34959D01*
X78634Y-35030D01*
X78647Y-35101D01*
X78673Y-35167D01*
X78712Y-35227D01*
X78762Y-35279D01*
X78821Y-35320D01*
X78886Y-35348D01*
X78956Y-35364D01*
X79028Y-35365D01*
X79098Y-35353D01*
X79165Y-35327D01*
X79225Y-35289D01*
X79277Y-35239D01*
X79318Y-35181D01*
X79348Y-35115D01*
X79363Y-35045D01*
X79365Y-34964D01*
X79351Y-34893D01*
X79323Y-34827D01*
X79284Y-34768D01*
X79233Y-34717D01*
X79193Y-34689D01*
X79214Y-34690D01*
X79251Y-34683D01*
X79286Y-34670D01*
X79317Y-34650D01*
X79344Y-34624D01*
X79366Y-34594D01*
X79381Y-34560D01*
X79389Y-34523D01*
X79390Y-34481D01*
X79382Y-34444D01*
X79368Y-34410D01*
X79347Y-34379D01*
X79329Y-34360D01*
X79329Y-33975D01*
X79328Y-33963D01*
X79327Y-33951D01*
X79326Y-33950D01*
X79326Y-33949D01*
X79323Y-33938D01*
X79320Y-33926D01*
X79319Y-33926D01*
X79319Y-33925D01*
X79313Y-33915D01*
X79308Y-33904D01*
X79308Y-33904D01*
X79307Y-33903D01*
X79300Y-33894D01*
X79292Y-33884D01*
X79291Y-33883D01*
X79291Y-33883D01*
X79291Y-33883D01*
X79291Y-33883D01*
X78247Y-32839D01*
X78249Y-32838D01*
X78275Y-32825D01*
X78297Y-32806D01*
X78316Y-32784D01*
X78330Y-32758D01*
X78339Y-32730D01*
X78342Y-32701D01*
X78342Y-32699D01*
X78342Y-32579D01*
X78641Y-32579D01*
X78641Y-32614D01*
X78645Y-32631D01*
X78652Y-32647D01*
X78661Y-32662D01*
X78674Y-32675D01*
X78688Y-32685D01*
X78705Y-32691D01*
X78722Y-32695D01*
X78740Y-32695D01*
X78976Y-32695D01*
X78994Y-32692D01*
X79010Y-32685D01*
X79025Y-32675D01*
X79037Y-32663D01*
X79047Y-32648D01*
X79054Y-32632D01*
X79057Y-32614D01*
X79058Y-32597D01*
X79058Y-32439D01*
X79054Y-32422D01*
X79047Y-32406D01*
X79038Y-32391D01*
X79025Y-32378D01*
X79011Y-32368D01*
X78994Y-32362D01*
X78977Y-32358D01*
X78959Y-32358D01*
X78864Y-32358D01*
X78855Y-32350D01*
X78846Y-32343D01*
X78845Y-32342D01*
X78844Y-32342D01*
X78843Y-32341D01*
X78976Y-32341D01*
X78994Y-32338D01*
X79010Y-32331D01*
X79025Y-32321D01*
X79038Y-32331D01*
X79055Y-32337D01*
X79072Y-32341D01*
X79090Y-32341D01*
X79326Y-32341D01*
X79344Y-32338D01*
X79360Y-32331D01*
X79375Y-32321D01*
X79387Y-32309D01*
X79390Y-32305D01*
X79390Y-35390D01*
M02*
