M48
;DRILL file {Pcbnew (2013-june-11)-stable} date Tue 22 Apr 2014 01:24:36 PM PDT
;FORMAT={-:-/ absolute / inch / decimal}
FMAT,2
INCH,TZ
T1C0.013
T2C0.032
T3C0.035
%
G90
G05
M72
T1
X7.84Y-3.3225
X7.8875Y-3.14
X7.9Y-3.3425
X7.9225Y-3.145
X7.965Y-3.34
X7.98Y-3.145
X7.99Y-3.3825
X8.0075Y-3.125
X8.01Y-3.4
X8.0175Y-3.2725
X8.02Y-3.24
X8.0275Y-3.08
X8.1725Y-3.25
X8.1725Y-3.435
T2
X7.85Y-3.
X7.85Y-3.5
X7.95Y-3.
X7.95Y-3.5
X8.05Y-3.
X8.05Y-3.5
X8.15Y-3.
X8.15Y-3.5
T3
X8.0085Y-3.1634
X8.0085Y-3.3366
T0
M30
