G04 (created by PCBNEW (2013-june-11)-stable) date Sat 19 Jul 2014 01:16:46 PM PDT*
%MOIN*%
G04 Gerber Fmt 3.4, Leading zero omitted, Abs format*
%FSLAX34Y34*%
G01*
G70*
G90*
G04 APERTURE LIST*
%ADD10C,0.00590551*%
%ADD11R,0.0906X0.0197*%
%ADD12R,0.0984X0.0787*%
%ADD13R,0.055X0.055*%
%ADD14C,0.055*%
%ADD15C,0.02*%
%ADD16C,0.006*%
G04 APERTURE END LIST*
G54D10*
G54D11*
X81108Y-33130D03*
X81108Y-32815D03*
X81108Y-32500D03*
X81108Y-32185D03*
X81108Y-31870D03*
G54D12*
X81069Y-34252D03*
X78904Y-34252D03*
X81069Y-30748D03*
X78904Y-30748D03*
G54D13*
X78500Y-35000D03*
G54D14*
X79500Y-35000D03*
X80500Y-35000D03*
X81500Y-35000D03*
G54D13*
X81500Y-30000D03*
G54D14*
X80500Y-30000D03*
X79500Y-30000D03*
X78500Y-30000D03*
G54D15*
X79000Y-33425D03*
X80275Y-30800D03*
X79900Y-33825D03*
X80175Y-32725D03*
X80200Y-32400D03*
X81725Y-34350D03*
X81725Y-32500D03*
X79225Y-31450D03*
X79800Y-31450D03*
X80100Y-34000D03*
X79650Y-33400D03*
X78400Y-33225D03*
X80075Y-31250D03*
X78875Y-31400D03*
G54D16*
X79000Y-33425D02*
X79900Y-32525D01*
X79900Y-32525D02*
X79900Y-32300D01*
X79900Y-32300D02*
X80425Y-31775D01*
X80425Y-31775D02*
X80425Y-30950D01*
X80425Y-30950D02*
X80275Y-30800D01*
X79500Y-34225D02*
X79500Y-35000D01*
X79900Y-33825D02*
X79500Y-34225D01*
X80265Y-32815D02*
X81108Y-32815D01*
X80175Y-32725D02*
X80265Y-32815D01*
X80300Y-32500D02*
X81108Y-32500D01*
X80200Y-32400D02*
X80300Y-32500D01*
X81725Y-34350D02*
X81627Y-34252D01*
X81627Y-34252D02*
X81069Y-34252D01*
X81108Y-33130D02*
X81545Y-33130D01*
X81725Y-32950D02*
X81725Y-32500D01*
X81545Y-33130D02*
X81725Y-32950D01*
X79304Y-31370D02*
X79225Y-31450D01*
X79720Y-31370D02*
X79304Y-31370D01*
X79800Y-31450D02*
X79720Y-31370D01*
X80500Y-34925D02*
X80500Y-35000D01*
X80100Y-34525D02*
X80500Y-34925D01*
X80100Y-34000D02*
X80100Y-34525D01*
X79425Y-33625D02*
X79650Y-33400D01*
X78800Y-33625D02*
X79425Y-33625D01*
X78400Y-33225D02*
X78800Y-33625D01*
X80075Y-31250D02*
X80075Y-30425D01*
X80075Y-30425D02*
X80500Y-30000D01*
X79025Y-31250D02*
X80075Y-31250D01*
X78875Y-31400D02*
X79025Y-31250D01*
G54D10*
G36*
X81890Y-35390D02*
X78109Y-35390D01*
X78109Y-29609D01*
X81890Y-29609D01*
X81890Y-32405D01*
X81872Y-32379D01*
X81846Y-32352D01*
X81815Y-32332D01*
X81781Y-32317D01*
X81744Y-32310D01*
X81707Y-32309D01*
X81671Y-32316D01*
X81638Y-32330D01*
X81640Y-32326D01*
X81647Y-32310D01*
X81650Y-32292D01*
X81651Y-32275D01*
X81651Y-32077D01*
X81647Y-32060D01*
X81640Y-32044D01*
X81631Y-32029D01*
X81618Y-32016D01*
X81604Y-32006D01*
X81587Y-32000D01*
X81570Y-31996D01*
X81552Y-31996D01*
X80646Y-31996D01*
X80628Y-31999D01*
X80612Y-32006D01*
X80597Y-32016D01*
X80585Y-32028D01*
X80575Y-32043D01*
X80568Y-32059D01*
X80565Y-32077D01*
X80564Y-32094D01*
X80564Y-32292D01*
X80568Y-32309D01*
X80575Y-32325D01*
X80584Y-32340D01*
X80586Y-32342D01*
X80585Y-32343D01*
X80575Y-32358D01*
X80568Y-32374D01*
X80567Y-32380D01*
X80389Y-32380D01*
X80382Y-32344D01*
X80368Y-32310D01*
X80347Y-32279D01*
X80321Y-32252D01*
X80290Y-32232D01*
X80256Y-32217D01*
X80219Y-32210D01*
X80182Y-32209D01*
X80154Y-32215D01*
X80509Y-31859D01*
X80516Y-31851D01*
X80524Y-31842D01*
X80524Y-31842D01*
X80524Y-31841D01*
X80529Y-31831D01*
X80535Y-31822D01*
X80535Y-31821D01*
X80535Y-31821D01*
X80539Y-31810D01*
X80542Y-31799D01*
X80542Y-31799D01*
X80542Y-31798D01*
X80543Y-31787D01*
X80544Y-31776D01*
X80544Y-31775D01*
X80544Y-31775D01*
X80544Y-31775D01*
X80545Y-31775D01*
X80545Y-31225D01*
X80550Y-31227D01*
X80567Y-31231D01*
X80585Y-31231D01*
X81569Y-31231D01*
X81587Y-31228D01*
X81603Y-31221D01*
X81618Y-31211D01*
X81630Y-31199D01*
X81640Y-31184D01*
X81647Y-31168D01*
X81650Y-31150D01*
X81651Y-31133D01*
X81651Y-30365D01*
X81783Y-30365D01*
X81801Y-30361D01*
X81817Y-30354D01*
X81832Y-30345D01*
X81844Y-30332D01*
X81854Y-30318D01*
X81861Y-30301D01*
X81864Y-30284D01*
X81865Y-30266D01*
X81865Y-29733D01*
X81864Y-29715D01*
X81861Y-29698D01*
X81854Y-29681D01*
X81844Y-29667D01*
X81832Y-29654D01*
X81817Y-29645D01*
X81801Y-29638D01*
X81783Y-29634D01*
X81592Y-29635D01*
X81570Y-29657D01*
X81570Y-29930D01*
X81842Y-29930D01*
X81865Y-29907D01*
X81865Y-29733D01*
X81865Y-30266D01*
X81865Y-30092D01*
X81842Y-30070D01*
X81570Y-30070D01*
X81570Y-30077D01*
X81430Y-30077D01*
X81430Y-30070D01*
X81430Y-29930D01*
X81430Y-29657D01*
X81407Y-29635D01*
X81216Y-29634D01*
X81198Y-29638D01*
X81182Y-29645D01*
X81167Y-29654D01*
X81155Y-29667D01*
X81145Y-29681D01*
X81138Y-29698D01*
X81135Y-29715D01*
X81134Y-29733D01*
X81135Y-29907D01*
X81157Y-29930D01*
X81430Y-29930D01*
X81430Y-30070D01*
X81157Y-30070D01*
X81135Y-30092D01*
X81134Y-30264D01*
X80751Y-30264D01*
X80777Y-30239D01*
X80818Y-30181D01*
X80848Y-30115D01*
X80863Y-30045D01*
X80865Y-29964D01*
X80851Y-29893D01*
X80823Y-29827D01*
X80784Y-29768D01*
X80733Y-29717D01*
X80674Y-29677D01*
X80608Y-29649D01*
X80538Y-29635D01*
X80466Y-29634D01*
X80396Y-29648D01*
X80330Y-29674D01*
X80270Y-29714D01*
X80219Y-29764D01*
X80178Y-29823D01*
X80150Y-29889D01*
X80135Y-29959D01*
X80134Y-30030D01*
X80147Y-30101D01*
X80170Y-30159D01*
X79990Y-30340D01*
X79983Y-30348D01*
X79975Y-30357D01*
X79975Y-30357D01*
X79975Y-30358D01*
X79970Y-30368D01*
X79964Y-30377D01*
X79964Y-30378D01*
X79964Y-30378D01*
X79960Y-30389D01*
X79957Y-30400D01*
X79957Y-30400D01*
X79957Y-30401D01*
X79956Y-30412D01*
X79955Y-30423D01*
X79955Y-30424D01*
X79955Y-30424D01*
X79955Y-30424D01*
X79955Y-30425D01*
X79955Y-31101D01*
X79928Y-31127D01*
X79926Y-31130D01*
X79486Y-31130D01*
X79486Y-30364D01*
X79528Y-30365D01*
X79598Y-30353D01*
X79665Y-30327D01*
X79725Y-30289D01*
X79777Y-30239D01*
X79818Y-30181D01*
X79848Y-30115D01*
X79863Y-30045D01*
X79865Y-29964D01*
X79851Y-29893D01*
X79823Y-29827D01*
X79784Y-29768D01*
X79733Y-29717D01*
X79674Y-29677D01*
X79608Y-29649D01*
X79538Y-29635D01*
X79466Y-29634D01*
X79396Y-29648D01*
X79330Y-29674D01*
X79270Y-29714D01*
X79219Y-29764D01*
X79178Y-29823D01*
X79150Y-29889D01*
X79135Y-29959D01*
X79134Y-30030D01*
X79147Y-30101D01*
X79173Y-30167D01*
X79212Y-30227D01*
X79247Y-30264D01*
X78751Y-30264D01*
X78777Y-30239D01*
X78818Y-30181D01*
X78848Y-30115D01*
X78863Y-30045D01*
X78865Y-29964D01*
X78851Y-29893D01*
X78823Y-29827D01*
X78784Y-29768D01*
X78733Y-29717D01*
X78674Y-29677D01*
X78608Y-29649D01*
X78538Y-29635D01*
X78466Y-29634D01*
X78396Y-29648D01*
X78330Y-29674D01*
X78270Y-29714D01*
X78219Y-29764D01*
X78178Y-29823D01*
X78150Y-29889D01*
X78135Y-29959D01*
X78134Y-30030D01*
X78147Y-30101D01*
X78173Y-30167D01*
X78212Y-30227D01*
X78262Y-30279D01*
X78321Y-30320D01*
X78327Y-30323D01*
X78325Y-30327D01*
X78322Y-30345D01*
X78321Y-30362D01*
X78321Y-31150D01*
X78325Y-31167D01*
X78332Y-31183D01*
X78341Y-31198D01*
X78354Y-31211D01*
X78368Y-31221D01*
X78385Y-31227D01*
X78402Y-31231D01*
X78420Y-31231D01*
X78785Y-31231D01*
X78755Y-31251D01*
X78728Y-31277D01*
X78707Y-31308D01*
X78693Y-31342D01*
X78685Y-31378D01*
X78684Y-31415D01*
X78691Y-31452D01*
X78705Y-31487D01*
X78725Y-31518D01*
X78751Y-31545D01*
X78781Y-31566D01*
X78816Y-31581D01*
X78852Y-31589D01*
X78889Y-31590D01*
X78926Y-31583D01*
X78961Y-31570D01*
X78992Y-31550D01*
X79019Y-31524D01*
X79040Y-31495D01*
X79041Y-31502D01*
X79055Y-31537D01*
X79075Y-31568D01*
X79101Y-31595D01*
X79131Y-31616D01*
X79166Y-31631D01*
X79202Y-31639D01*
X79239Y-31640D01*
X79276Y-31633D01*
X79311Y-31620D01*
X79342Y-31600D01*
X79369Y-31574D01*
X79391Y-31544D01*
X79406Y-31510D01*
X79410Y-31490D01*
X79614Y-31490D01*
X79616Y-31502D01*
X79630Y-31537D01*
X79650Y-31568D01*
X79676Y-31595D01*
X79706Y-31616D01*
X79741Y-31631D01*
X79777Y-31639D01*
X79814Y-31640D01*
X79817Y-31639D01*
X79817Y-31656D01*
X79827Y-31707D01*
X79846Y-31756D01*
X79874Y-31800D01*
X79911Y-31838D01*
X79954Y-31868D01*
X80002Y-31889D01*
X80053Y-31900D01*
X80105Y-31901D01*
X80133Y-31896D01*
X79815Y-32215D01*
X79808Y-32223D01*
X79800Y-32232D01*
X79800Y-32232D01*
X79800Y-32233D01*
X79795Y-32243D01*
X79789Y-32252D01*
X79789Y-32253D01*
X79789Y-32253D01*
X79785Y-32264D01*
X79782Y-32275D01*
X79782Y-32275D01*
X79782Y-32276D01*
X79781Y-32287D01*
X79780Y-32298D01*
X79780Y-32299D01*
X79780Y-32299D01*
X79780Y-32299D01*
X79780Y-32300D01*
X79780Y-32475D01*
X79020Y-33235D01*
X79019Y-33235D01*
X78982Y-33234D01*
X78946Y-33241D01*
X78911Y-33255D01*
X78880Y-33276D01*
X78853Y-33302D01*
X78832Y-33333D01*
X78818Y-33367D01*
X78810Y-33403D01*
X78809Y-33440D01*
X78815Y-33470D01*
X78589Y-33244D01*
X78590Y-33206D01*
X78582Y-33169D01*
X78568Y-33135D01*
X78547Y-33104D01*
X78521Y-33077D01*
X78490Y-33057D01*
X78456Y-33042D01*
X78419Y-33035D01*
X78382Y-33034D01*
X78346Y-33041D01*
X78311Y-33055D01*
X78280Y-33076D01*
X78253Y-33102D01*
X78232Y-33133D01*
X78218Y-33167D01*
X78210Y-33203D01*
X78209Y-33240D01*
X78216Y-33277D01*
X78230Y-33312D01*
X78250Y-33343D01*
X78276Y-33370D01*
X78306Y-33391D01*
X78341Y-33406D01*
X78377Y-33414D01*
X78414Y-33415D01*
X78419Y-33414D01*
X78715Y-33709D01*
X78723Y-33716D01*
X78732Y-33724D01*
X78732Y-33724D01*
X78733Y-33724D01*
X78743Y-33729D01*
X78752Y-33735D01*
X78753Y-33735D01*
X78753Y-33735D01*
X78764Y-33739D01*
X78775Y-33742D01*
X78775Y-33742D01*
X78776Y-33742D01*
X78787Y-33743D01*
X78798Y-33744D01*
X78799Y-33744D01*
X78799Y-33744D01*
X78799Y-33744D01*
X78800Y-33745D01*
X79425Y-33745D01*
X79436Y-33743D01*
X79447Y-33742D01*
X79447Y-33742D01*
X79448Y-33742D01*
X79458Y-33739D01*
X79469Y-33736D01*
X79470Y-33736D01*
X79470Y-33735D01*
X79480Y-33730D01*
X79490Y-33725D01*
X79490Y-33725D01*
X79491Y-33724D01*
X79500Y-33717D01*
X79508Y-33711D01*
X79509Y-33710D01*
X79509Y-33710D01*
X79509Y-33710D01*
X79509Y-33709D01*
X79630Y-33589D01*
X79664Y-33590D01*
X79701Y-33583D01*
X79736Y-33570D01*
X79767Y-33550D01*
X79794Y-33524D01*
X79816Y-33494D01*
X79831Y-33460D01*
X79832Y-33453D01*
X79846Y-33488D01*
X79874Y-33532D01*
X79911Y-33570D01*
X79954Y-33600D01*
X80002Y-33621D01*
X80053Y-33632D01*
X80105Y-33633D01*
X80157Y-33624D01*
X80205Y-33605D01*
X80250Y-33577D01*
X80288Y-33541D01*
X80318Y-33498D01*
X80339Y-33450D01*
X80351Y-33399D01*
X80352Y-33339D01*
X80341Y-33288D01*
X80321Y-33240D01*
X80292Y-33196D01*
X80256Y-33159D01*
X80212Y-33129D01*
X80164Y-33109D01*
X80113Y-33099D01*
X80060Y-33098D01*
X80009Y-33108D01*
X79960Y-33128D01*
X79916Y-33156D01*
X79879Y-33193D01*
X79849Y-33236D01*
X79829Y-33284D01*
X79822Y-33318D01*
X79818Y-33310D01*
X79797Y-33279D01*
X79771Y-33252D01*
X79740Y-33232D01*
X79706Y-33217D01*
X79669Y-33210D01*
X79632Y-33209D01*
X79596Y-33216D01*
X79561Y-33230D01*
X79530Y-33251D01*
X79503Y-33277D01*
X79482Y-33308D01*
X79468Y-33342D01*
X79460Y-33378D01*
X79459Y-33415D01*
X79460Y-33419D01*
X79375Y-33505D01*
X79172Y-33505D01*
X79181Y-33485D01*
X79189Y-33448D01*
X79190Y-33406D01*
X79189Y-33404D01*
X79984Y-32609D01*
X79991Y-32601D01*
X79999Y-32592D01*
X79999Y-32592D01*
X79999Y-32591D01*
X80004Y-32581D01*
X80010Y-32572D01*
X80010Y-32571D01*
X80010Y-32571D01*
X80014Y-32560D01*
X80017Y-32549D01*
X80017Y-32549D01*
X80017Y-32548D01*
X80018Y-32537D01*
X80019Y-32526D01*
X80019Y-32525D01*
X80019Y-32525D01*
X80019Y-32525D01*
X80020Y-32525D01*
X80020Y-32461D01*
X80030Y-32487D01*
X80050Y-32518D01*
X80076Y-32545D01*
X80089Y-32554D01*
X80086Y-32555D01*
X80055Y-32576D01*
X80028Y-32602D01*
X80007Y-32633D01*
X79993Y-32667D01*
X79985Y-32703D01*
X79984Y-32740D01*
X79991Y-32777D01*
X80005Y-32812D01*
X80025Y-32843D01*
X80051Y-32870D01*
X80081Y-32891D01*
X80116Y-32906D01*
X80152Y-32914D01*
X80189Y-32915D01*
X80197Y-32914D01*
X80197Y-32914D01*
X80198Y-32914D01*
X80208Y-32919D01*
X80217Y-32925D01*
X80218Y-32925D01*
X80218Y-32925D01*
X80229Y-32929D01*
X80240Y-32932D01*
X80240Y-32932D01*
X80241Y-32932D01*
X80252Y-32933D01*
X80263Y-32934D01*
X80264Y-32934D01*
X80264Y-32934D01*
X80264Y-32934D01*
X80265Y-32935D01*
X80567Y-32935D01*
X80568Y-32939D01*
X80575Y-32955D01*
X80584Y-32970D01*
X80586Y-32972D01*
X80585Y-32973D01*
X80575Y-32988D01*
X80568Y-33004D01*
X80565Y-33022D01*
X80564Y-33039D01*
X80564Y-33237D01*
X80568Y-33254D01*
X80575Y-33270D01*
X80584Y-33285D01*
X80597Y-33298D01*
X80611Y-33308D01*
X80628Y-33314D01*
X80645Y-33318D01*
X80663Y-33318D01*
X81569Y-33318D01*
X81587Y-33315D01*
X81603Y-33308D01*
X81618Y-33298D01*
X81630Y-33286D01*
X81640Y-33271D01*
X81647Y-33255D01*
X81650Y-33237D01*
X81651Y-33220D01*
X81651Y-33193D01*
X81809Y-33034D01*
X81816Y-33026D01*
X81824Y-33017D01*
X81824Y-33017D01*
X81824Y-33016D01*
X81829Y-33006D01*
X81835Y-32997D01*
X81835Y-32996D01*
X81835Y-32996D01*
X81839Y-32985D01*
X81842Y-32974D01*
X81842Y-32974D01*
X81842Y-32973D01*
X81843Y-32962D01*
X81844Y-32951D01*
X81844Y-32950D01*
X81844Y-32950D01*
X81844Y-32950D01*
X81845Y-32950D01*
X81845Y-32648D01*
X81869Y-32624D01*
X81890Y-32595D01*
X81890Y-34255D01*
X81872Y-34229D01*
X81846Y-34202D01*
X81815Y-34182D01*
X81781Y-34167D01*
X81744Y-34160D01*
X81707Y-34159D01*
X81703Y-34160D01*
X81703Y-34160D01*
X81694Y-34152D01*
X81694Y-34152D01*
X81693Y-34152D01*
X81683Y-34147D01*
X81674Y-34141D01*
X81673Y-34141D01*
X81673Y-34141D01*
X81662Y-34137D01*
X81651Y-34134D01*
X81651Y-34134D01*
X81651Y-34134D01*
X81651Y-33849D01*
X81647Y-33832D01*
X81640Y-33816D01*
X81631Y-33801D01*
X81618Y-33788D01*
X81604Y-33778D01*
X81587Y-33772D01*
X81570Y-33768D01*
X81552Y-33768D01*
X80568Y-33768D01*
X80550Y-33771D01*
X80534Y-33778D01*
X80519Y-33788D01*
X80507Y-33800D01*
X80497Y-33815D01*
X80490Y-33831D01*
X80487Y-33849D01*
X80486Y-33866D01*
X80486Y-34634D01*
X80466Y-34634D01*
X80396Y-34648D01*
X80393Y-34649D01*
X80220Y-34475D01*
X80220Y-34148D01*
X80244Y-34124D01*
X80266Y-34094D01*
X80281Y-34060D01*
X80289Y-34023D01*
X80290Y-33981D01*
X80282Y-33944D01*
X80268Y-33910D01*
X80247Y-33879D01*
X80221Y-33852D01*
X80190Y-33832D01*
X80156Y-33817D01*
X80119Y-33810D01*
X80089Y-33809D01*
X80090Y-33806D01*
X80082Y-33769D01*
X80068Y-33735D01*
X80047Y-33704D01*
X80021Y-33677D01*
X79990Y-33657D01*
X79956Y-33642D01*
X79919Y-33635D01*
X79882Y-33634D01*
X79846Y-33641D01*
X79811Y-33655D01*
X79780Y-33676D01*
X79753Y-33702D01*
X79732Y-33733D01*
X79718Y-33767D01*
X79710Y-33803D01*
X79709Y-33840D01*
X79710Y-33844D01*
X79486Y-34069D01*
X79486Y-33849D01*
X79482Y-33832D01*
X79475Y-33816D01*
X79466Y-33801D01*
X79453Y-33788D01*
X79439Y-33778D01*
X79422Y-33772D01*
X79405Y-33768D01*
X79387Y-33768D01*
X78403Y-33768D01*
X78385Y-33771D01*
X78369Y-33778D01*
X78354Y-33788D01*
X78342Y-33800D01*
X78332Y-33815D01*
X78325Y-33831D01*
X78322Y-33849D01*
X78321Y-33866D01*
X78321Y-34634D01*
X78216Y-34634D01*
X78198Y-34638D01*
X78182Y-34645D01*
X78167Y-34654D01*
X78155Y-34667D01*
X78145Y-34681D01*
X78138Y-34698D01*
X78135Y-34715D01*
X78134Y-34733D01*
X78134Y-35283D01*
X78138Y-35301D01*
X78145Y-35317D01*
X78154Y-35332D01*
X78167Y-35344D01*
X78181Y-35354D01*
X78198Y-35361D01*
X78215Y-35364D01*
X78233Y-35365D01*
X78783Y-35365D01*
X78801Y-35361D01*
X78817Y-35354D01*
X78832Y-35345D01*
X78844Y-35332D01*
X78854Y-35318D01*
X78861Y-35301D01*
X78864Y-35284D01*
X78865Y-35266D01*
X78865Y-34735D01*
X79248Y-34735D01*
X79219Y-34764D01*
X79178Y-34823D01*
X79150Y-34889D01*
X79135Y-34959D01*
X79134Y-35030D01*
X79147Y-35101D01*
X79173Y-35167D01*
X79212Y-35227D01*
X79262Y-35279D01*
X79321Y-35320D01*
X79386Y-35348D01*
X79456Y-35364D01*
X79528Y-35365D01*
X79598Y-35353D01*
X79665Y-35327D01*
X79725Y-35289D01*
X79777Y-35239D01*
X79818Y-35181D01*
X79848Y-35115D01*
X79863Y-35045D01*
X79865Y-34964D01*
X79851Y-34893D01*
X79823Y-34827D01*
X79784Y-34768D01*
X79733Y-34717D01*
X79674Y-34677D01*
X79620Y-34654D01*
X79620Y-34274D01*
X79880Y-34014D01*
X79909Y-34015D01*
X79909Y-34015D01*
X79916Y-34052D01*
X79930Y-34087D01*
X79950Y-34118D01*
X79976Y-34145D01*
X79980Y-34147D01*
X79980Y-34525D01*
X79981Y-34536D01*
X79982Y-34547D01*
X79982Y-34547D01*
X79982Y-34548D01*
X79985Y-34558D01*
X79988Y-34569D01*
X79988Y-34570D01*
X79989Y-34570D01*
X79994Y-34580D01*
X79999Y-34590D01*
X79999Y-34590D01*
X80000Y-34591D01*
X80007Y-34600D01*
X80013Y-34608D01*
X80014Y-34609D01*
X80014Y-34609D01*
X80014Y-34609D01*
X80015Y-34609D01*
X80198Y-34793D01*
X80178Y-34823D01*
X80150Y-34889D01*
X80135Y-34959D01*
X80134Y-35030D01*
X80147Y-35101D01*
X80173Y-35167D01*
X80212Y-35227D01*
X80262Y-35279D01*
X80321Y-35320D01*
X80386Y-35348D01*
X80456Y-35364D01*
X80528Y-35365D01*
X80598Y-35353D01*
X80665Y-35327D01*
X80725Y-35289D01*
X80777Y-35239D01*
X80818Y-35181D01*
X80848Y-35115D01*
X80863Y-35045D01*
X80865Y-34964D01*
X80851Y-34893D01*
X80823Y-34827D01*
X80784Y-34768D01*
X80751Y-34735D01*
X81248Y-34735D01*
X81219Y-34764D01*
X81178Y-34823D01*
X81150Y-34889D01*
X81135Y-34959D01*
X81134Y-35030D01*
X81147Y-35101D01*
X81173Y-35167D01*
X81212Y-35227D01*
X81262Y-35279D01*
X81321Y-35320D01*
X81386Y-35348D01*
X81456Y-35364D01*
X81528Y-35365D01*
X81598Y-35353D01*
X81665Y-35327D01*
X81725Y-35289D01*
X81777Y-35239D01*
X81818Y-35181D01*
X81848Y-35115D01*
X81863Y-35045D01*
X81865Y-34964D01*
X81851Y-34893D01*
X81823Y-34827D01*
X81784Y-34768D01*
X81733Y-34717D01*
X81674Y-34677D01*
X81648Y-34666D01*
X81650Y-34654D01*
X81651Y-34637D01*
X81651Y-34525D01*
X81666Y-34531D01*
X81702Y-34539D01*
X81739Y-34540D01*
X81776Y-34533D01*
X81811Y-34520D01*
X81842Y-34500D01*
X81869Y-34474D01*
X81890Y-34445D01*
X81890Y-35390D01*
X81890Y-35390D01*
G37*
G54D16*
X81890Y-35390D02*
X78109Y-35390D01*
X78109Y-29609D01*
X81890Y-29609D01*
X81890Y-32405D01*
X81872Y-32379D01*
X81846Y-32352D01*
X81815Y-32332D01*
X81781Y-32317D01*
X81744Y-32310D01*
X81707Y-32309D01*
X81671Y-32316D01*
X81638Y-32330D01*
X81640Y-32326D01*
X81647Y-32310D01*
X81650Y-32292D01*
X81651Y-32275D01*
X81651Y-32077D01*
X81647Y-32060D01*
X81640Y-32044D01*
X81631Y-32029D01*
X81618Y-32016D01*
X81604Y-32006D01*
X81587Y-32000D01*
X81570Y-31996D01*
X81552Y-31996D01*
X80646Y-31996D01*
X80628Y-31999D01*
X80612Y-32006D01*
X80597Y-32016D01*
X80585Y-32028D01*
X80575Y-32043D01*
X80568Y-32059D01*
X80565Y-32077D01*
X80564Y-32094D01*
X80564Y-32292D01*
X80568Y-32309D01*
X80575Y-32325D01*
X80584Y-32340D01*
X80586Y-32342D01*
X80585Y-32343D01*
X80575Y-32358D01*
X80568Y-32374D01*
X80567Y-32380D01*
X80389Y-32380D01*
X80382Y-32344D01*
X80368Y-32310D01*
X80347Y-32279D01*
X80321Y-32252D01*
X80290Y-32232D01*
X80256Y-32217D01*
X80219Y-32210D01*
X80182Y-32209D01*
X80154Y-32215D01*
X80509Y-31859D01*
X80516Y-31851D01*
X80524Y-31842D01*
X80524Y-31842D01*
X80524Y-31841D01*
X80529Y-31831D01*
X80535Y-31822D01*
X80535Y-31821D01*
X80535Y-31821D01*
X80539Y-31810D01*
X80542Y-31799D01*
X80542Y-31799D01*
X80542Y-31798D01*
X80543Y-31787D01*
X80544Y-31776D01*
X80544Y-31775D01*
X80544Y-31775D01*
X80544Y-31775D01*
X80545Y-31775D01*
X80545Y-31225D01*
X80550Y-31227D01*
X80567Y-31231D01*
X80585Y-31231D01*
X81569Y-31231D01*
X81587Y-31228D01*
X81603Y-31221D01*
X81618Y-31211D01*
X81630Y-31199D01*
X81640Y-31184D01*
X81647Y-31168D01*
X81650Y-31150D01*
X81651Y-31133D01*
X81651Y-30365D01*
X81783Y-30365D01*
X81801Y-30361D01*
X81817Y-30354D01*
X81832Y-30345D01*
X81844Y-30332D01*
X81854Y-30318D01*
X81861Y-30301D01*
X81864Y-30284D01*
X81865Y-30266D01*
X81865Y-29733D01*
X81864Y-29715D01*
X81861Y-29698D01*
X81854Y-29681D01*
X81844Y-29667D01*
X81832Y-29654D01*
X81817Y-29645D01*
X81801Y-29638D01*
X81783Y-29634D01*
X81592Y-29635D01*
X81570Y-29657D01*
X81570Y-29930D01*
X81842Y-29930D01*
X81865Y-29907D01*
X81865Y-29733D01*
X81865Y-30266D01*
X81865Y-30092D01*
X81842Y-30070D01*
X81570Y-30070D01*
X81570Y-30077D01*
X81430Y-30077D01*
X81430Y-30070D01*
X81430Y-29930D01*
X81430Y-29657D01*
X81407Y-29635D01*
X81216Y-29634D01*
X81198Y-29638D01*
X81182Y-29645D01*
X81167Y-29654D01*
X81155Y-29667D01*
X81145Y-29681D01*
X81138Y-29698D01*
X81135Y-29715D01*
X81134Y-29733D01*
X81135Y-29907D01*
X81157Y-29930D01*
X81430Y-29930D01*
X81430Y-30070D01*
X81157Y-30070D01*
X81135Y-30092D01*
X81134Y-30264D01*
X80751Y-30264D01*
X80777Y-30239D01*
X80818Y-30181D01*
X80848Y-30115D01*
X80863Y-30045D01*
X80865Y-29964D01*
X80851Y-29893D01*
X80823Y-29827D01*
X80784Y-29768D01*
X80733Y-29717D01*
X80674Y-29677D01*
X80608Y-29649D01*
X80538Y-29635D01*
X80466Y-29634D01*
X80396Y-29648D01*
X80330Y-29674D01*
X80270Y-29714D01*
X80219Y-29764D01*
X80178Y-29823D01*
X80150Y-29889D01*
X80135Y-29959D01*
X80134Y-30030D01*
X80147Y-30101D01*
X80170Y-30159D01*
X79990Y-30340D01*
X79983Y-30348D01*
X79975Y-30357D01*
X79975Y-30357D01*
X79975Y-30358D01*
X79970Y-30368D01*
X79964Y-30377D01*
X79964Y-30378D01*
X79964Y-30378D01*
X79960Y-30389D01*
X79957Y-30400D01*
X79957Y-30400D01*
X79957Y-30401D01*
X79956Y-30412D01*
X79955Y-30423D01*
X79955Y-30424D01*
X79955Y-30424D01*
X79955Y-30424D01*
X79955Y-30425D01*
X79955Y-31101D01*
X79928Y-31127D01*
X79926Y-31130D01*
X79486Y-31130D01*
X79486Y-30364D01*
X79528Y-30365D01*
X79598Y-30353D01*
X79665Y-30327D01*
X79725Y-30289D01*
X79777Y-30239D01*
X79818Y-30181D01*
X79848Y-30115D01*
X79863Y-30045D01*
X79865Y-29964D01*
X79851Y-29893D01*
X79823Y-29827D01*
X79784Y-29768D01*
X79733Y-29717D01*
X79674Y-29677D01*
X79608Y-29649D01*
X79538Y-29635D01*
X79466Y-29634D01*
X79396Y-29648D01*
X79330Y-29674D01*
X79270Y-29714D01*
X79219Y-29764D01*
X79178Y-29823D01*
X79150Y-29889D01*
X79135Y-29959D01*
X79134Y-30030D01*
X79147Y-30101D01*
X79173Y-30167D01*
X79212Y-30227D01*
X79247Y-30264D01*
X78751Y-30264D01*
X78777Y-30239D01*
X78818Y-30181D01*
X78848Y-30115D01*
X78863Y-30045D01*
X78865Y-29964D01*
X78851Y-29893D01*
X78823Y-29827D01*
X78784Y-29768D01*
X78733Y-29717D01*
X78674Y-29677D01*
X78608Y-29649D01*
X78538Y-29635D01*
X78466Y-29634D01*
X78396Y-29648D01*
X78330Y-29674D01*
X78270Y-29714D01*
X78219Y-29764D01*
X78178Y-29823D01*
X78150Y-29889D01*
X78135Y-29959D01*
X78134Y-30030D01*
X78147Y-30101D01*
X78173Y-30167D01*
X78212Y-30227D01*
X78262Y-30279D01*
X78321Y-30320D01*
X78327Y-30323D01*
X78325Y-30327D01*
X78322Y-30345D01*
X78321Y-30362D01*
X78321Y-31150D01*
X78325Y-31167D01*
X78332Y-31183D01*
X78341Y-31198D01*
X78354Y-31211D01*
X78368Y-31221D01*
X78385Y-31227D01*
X78402Y-31231D01*
X78420Y-31231D01*
X78785Y-31231D01*
X78755Y-31251D01*
X78728Y-31277D01*
X78707Y-31308D01*
X78693Y-31342D01*
X78685Y-31378D01*
X78684Y-31415D01*
X78691Y-31452D01*
X78705Y-31487D01*
X78725Y-31518D01*
X78751Y-31545D01*
X78781Y-31566D01*
X78816Y-31581D01*
X78852Y-31589D01*
X78889Y-31590D01*
X78926Y-31583D01*
X78961Y-31570D01*
X78992Y-31550D01*
X79019Y-31524D01*
X79040Y-31495D01*
X79041Y-31502D01*
X79055Y-31537D01*
X79075Y-31568D01*
X79101Y-31595D01*
X79131Y-31616D01*
X79166Y-31631D01*
X79202Y-31639D01*
X79239Y-31640D01*
X79276Y-31633D01*
X79311Y-31620D01*
X79342Y-31600D01*
X79369Y-31574D01*
X79391Y-31544D01*
X79406Y-31510D01*
X79410Y-31490D01*
X79614Y-31490D01*
X79616Y-31502D01*
X79630Y-31537D01*
X79650Y-31568D01*
X79676Y-31595D01*
X79706Y-31616D01*
X79741Y-31631D01*
X79777Y-31639D01*
X79814Y-31640D01*
X79817Y-31639D01*
X79817Y-31656D01*
X79827Y-31707D01*
X79846Y-31756D01*
X79874Y-31800D01*
X79911Y-31838D01*
X79954Y-31868D01*
X80002Y-31889D01*
X80053Y-31900D01*
X80105Y-31901D01*
X80133Y-31896D01*
X79815Y-32215D01*
X79808Y-32223D01*
X79800Y-32232D01*
X79800Y-32232D01*
X79800Y-32233D01*
X79795Y-32243D01*
X79789Y-32252D01*
X79789Y-32253D01*
X79789Y-32253D01*
X79785Y-32264D01*
X79782Y-32275D01*
X79782Y-32275D01*
X79782Y-32276D01*
X79781Y-32287D01*
X79780Y-32298D01*
X79780Y-32299D01*
X79780Y-32299D01*
X79780Y-32299D01*
X79780Y-32300D01*
X79780Y-32475D01*
X79020Y-33235D01*
X79019Y-33235D01*
X78982Y-33234D01*
X78946Y-33241D01*
X78911Y-33255D01*
X78880Y-33276D01*
X78853Y-33302D01*
X78832Y-33333D01*
X78818Y-33367D01*
X78810Y-33403D01*
X78809Y-33440D01*
X78815Y-33470D01*
X78589Y-33244D01*
X78590Y-33206D01*
X78582Y-33169D01*
X78568Y-33135D01*
X78547Y-33104D01*
X78521Y-33077D01*
X78490Y-33057D01*
X78456Y-33042D01*
X78419Y-33035D01*
X78382Y-33034D01*
X78346Y-33041D01*
X78311Y-33055D01*
X78280Y-33076D01*
X78253Y-33102D01*
X78232Y-33133D01*
X78218Y-33167D01*
X78210Y-33203D01*
X78209Y-33240D01*
X78216Y-33277D01*
X78230Y-33312D01*
X78250Y-33343D01*
X78276Y-33370D01*
X78306Y-33391D01*
X78341Y-33406D01*
X78377Y-33414D01*
X78414Y-33415D01*
X78419Y-33414D01*
X78715Y-33709D01*
X78723Y-33716D01*
X78732Y-33724D01*
X78732Y-33724D01*
X78733Y-33724D01*
X78743Y-33729D01*
X78752Y-33735D01*
X78753Y-33735D01*
X78753Y-33735D01*
X78764Y-33739D01*
X78775Y-33742D01*
X78775Y-33742D01*
X78776Y-33742D01*
X78787Y-33743D01*
X78798Y-33744D01*
X78799Y-33744D01*
X78799Y-33744D01*
X78799Y-33744D01*
X78800Y-33745D01*
X79425Y-33745D01*
X79436Y-33743D01*
X79447Y-33742D01*
X79447Y-33742D01*
X79448Y-33742D01*
X79458Y-33739D01*
X79469Y-33736D01*
X79470Y-33736D01*
X79470Y-33735D01*
X79480Y-33730D01*
X79490Y-33725D01*
X79490Y-33725D01*
X79491Y-33724D01*
X79500Y-33717D01*
X79508Y-33711D01*
X79509Y-33710D01*
X79509Y-33710D01*
X79509Y-33710D01*
X79509Y-33709D01*
X79630Y-33589D01*
X79664Y-33590D01*
X79701Y-33583D01*
X79736Y-33570D01*
X79767Y-33550D01*
X79794Y-33524D01*
X79816Y-33494D01*
X79831Y-33460D01*
X79832Y-33453D01*
X79846Y-33488D01*
X79874Y-33532D01*
X79911Y-33570D01*
X79954Y-33600D01*
X80002Y-33621D01*
X80053Y-33632D01*
X80105Y-33633D01*
X80157Y-33624D01*
X80205Y-33605D01*
X80250Y-33577D01*
X80288Y-33541D01*
X80318Y-33498D01*
X80339Y-33450D01*
X80351Y-33399D01*
X80352Y-33339D01*
X80341Y-33288D01*
X80321Y-33240D01*
X80292Y-33196D01*
X80256Y-33159D01*
X80212Y-33129D01*
X80164Y-33109D01*
X80113Y-33099D01*
X80060Y-33098D01*
X80009Y-33108D01*
X79960Y-33128D01*
X79916Y-33156D01*
X79879Y-33193D01*
X79849Y-33236D01*
X79829Y-33284D01*
X79822Y-33318D01*
X79818Y-33310D01*
X79797Y-33279D01*
X79771Y-33252D01*
X79740Y-33232D01*
X79706Y-33217D01*
X79669Y-33210D01*
X79632Y-33209D01*
X79596Y-33216D01*
X79561Y-33230D01*
X79530Y-33251D01*
X79503Y-33277D01*
X79482Y-33308D01*
X79468Y-33342D01*
X79460Y-33378D01*
X79459Y-33415D01*
X79460Y-33419D01*
X79375Y-33505D01*
X79172Y-33505D01*
X79181Y-33485D01*
X79189Y-33448D01*
X79190Y-33406D01*
X79189Y-33404D01*
X79984Y-32609D01*
X79991Y-32601D01*
X79999Y-32592D01*
X79999Y-32592D01*
X79999Y-32591D01*
X80004Y-32581D01*
X80010Y-32572D01*
X80010Y-32571D01*
X80010Y-32571D01*
X80014Y-32560D01*
X80017Y-32549D01*
X80017Y-32549D01*
X80017Y-32548D01*
X80018Y-32537D01*
X80019Y-32526D01*
X80019Y-32525D01*
X80019Y-32525D01*
X80019Y-32525D01*
X80020Y-32525D01*
X80020Y-32461D01*
X80030Y-32487D01*
X80050Y-32518D01*
X80076Y-32545D01*
X80089Y-32554D01*
X80086Y-32555D01*
X80055Y-32576D01*
X80028Y-32602D01*
X80007Y-32633D01*
X79993Y-32667D01*
X79985Y-32703D01*
X79984Y-32740D01*
X79991Y-32777D01*
X80005Y-32812D01*
X80025Y-32843D01*
X80051Y-32870D01*
X80081Y-32891D01*
X80116Y-32906D01*
X80152Y-32914D01*
X80189Y-32915D01*
X80197Y-32914D01*
X80197Y-32914D01*
X80198Y-32914D01*
X80208Y-32919D01*
X80217Y-32925D01*
X80218Y-32925D01*
X80218Y-32925D01*
X80229Y-32929D01*
X80240Y-32932D01*
X80240Y-32932D01*
X80241Y-32932D01*
X80252Y-32933D01*
X80263Y-32934D01*
X80264Y-32934D01*
X80264Y-32934D01*
X80264Y-32934D01*
X80265Y-32935D01*
X80567Y-32935D01*
X80568Y-32939D01*
X80575Y-32955D01*
X80584Y-32970D01*
X80586Y-32972D01*
X80585Y-32973D01*
X80575Y-32988D01*
X80568Y-33004D01*
X80565Y-33022D01*
X80564Y-33039D01*
X80564Y-33237D01*
X80568Y-33254D01*
X80575Y-33270D01*
X80584Y-33285D01*
X80597Y-33298D01*
X80611Y-33308D01*
X80628Y-33314D01*
X80645Y-33318D01*
X80663Y-33318D01*
X81569Y-33318D01*
X81587Y-33315D01*
X81603Y-33308D01*
X81618Y-33298D01*
X81630Y-33286D01*
X81640Y-33271D01*
X81647Y-33255D01*
X81650Y-33237D01*
X81651Y-33220D01*
X81651Y-33193D01*
X81809Y-33034D01*
X81816Y-33026D01*
X81824Y-33017D01*
X81824Y-33017D01*
X81824Y-33016D01*
X81829Y-33006D01*
X81835Y-32997D01*
X81835Y-32996D01*
X81835Y-32996D01*
X81839Y-32985D01*
X81842Y-32974D01*
X81842Y-32974D01*
X81842Y-32973D01*
X81843Y-32962D01*
X81844Y-32951D01*
X81844Y-32950D01*
X81844Y-32950D01*
X81844Y-32950D01*
X81845Y-32950D01*
X81845Y-32648D01*
X81869Y-32624D01*
X81890Y-32595D01*
X81890Y-34255D01*
X81872Y-34229D01*
X81846Y-34202D01*
X81815Y-34182D01*
X81781Y-34167D01*
X81744Y-34160D01*
X81707Y-34159D01*
X81703Y-34160D01*
X81703Y-34160D01*
X81694Y-34152D01*
X81694Y-34152D01*
X81693Y-34152D01*
X81683Y-34147D01*
X81674Y-34141D01*
X81673Y-34141D01*
X81673Y-34141D01*
X81662Y-34137D01*
X81651Y-34134D01*
X81651Y-34134D01*
X81651Y-34134D01*
X81651Y-33849D01*
X81647Y-33832D01*
X81640Y-33816D01*
X81631Y-33801D01*
X81618Y-33788D01*
X81604Y-33778D01*
X81587Y-33772D01*
X81570Y-33768D01*
X81552Y-33768D01*
X80568Y-33768D01*
X80550Y-33771D01*
X80534Y-33778D01*
X80519Y-33788D01*
X80507Y-33800D01*
X80497Y-33815D01*
X80490Y-33831D01*
X80487Y-33849D01*
X80486Y-33866D01*
X80486Y-34634D01*
X80466Y-34634D01*
X80396Y-34648D01*
X80393Y-34649D01*
X80220Y-34475D01*
X80220Y-34148D01*
X80244Y-34124D01*
X80266Y-34094D01*
X80281Y-34060D01*
X80289Y-34023D01*
X80290Y-33981D01*
X80282Y-33944D01*
X80268Y-33910D01*
X80247Y-33879D01*
X80221Y-33852D01*
X80190Y-33832D01*
X80156Y-33817D01*
X80119Y-33810D01*
X80089Y-33809D01*
X80090Y-33806D01*
X80082Y-33769D01*
X80068Y-33735D01*
X80047Y-33704D01*
X80021Y-33677D01*
X79990Y-33657D01*
X79956Y-33642D01*
X79919Y-33635D01*
X79882Y-33634D01*
X79846Y-33641D01*
X79811Y-33655D01*
X79780Y-33676D01*
X79753Y-33702D01*
X79732Y-33733D01*
X79718Y-33767D01*
X79710Y-33803D01*
X79709Y-33840D01*
X79710Y-33844D01*
X79486Y-34069D01*
X79486Y-33849D01*
X79482Y-33832D01*
X79475Y-33816D01*
X79466Y-33801D01*
X79453Y-33788D01*
X79439Y-33778D01*
X79422Y-33772D01*
X79405Y-33768D01*
X79387Y-33768D01*
X78403Y-33768D01*
X78385Y-33771D01*
X78369Y-33778D01*
X78354Y-33788D01*
X78342Y-33800D01*
X78332Y-33815D01*
X78325Y-33831D01*
X78322Y-33849D01*
X78321Y-33866D01*
X78321Y-34634D01*
X78216Y-34634D01*
X78198Y-34638D01*
X78182Y-34645D01*
X78167Y-34654D01*
X78155Y-34667D01*
X78145Y-34681D01*
X78138Y-34698D01*
X78135Y-34715D01*
X78134Y-34733D01*
X78134Y-35283D01*
X78138Y-35301D01*
X78145Y-35317D01*
X78154Y-35332D01*
X78167Y-35344D01*
X78181Y-35354D01*
X78198Y-35361D01*
X78215Y-35364D01*
X78233Y-35365D01*
X78783Y-35365D01*
X78801Y-35361D01*
X78817Y-35354D01*
X78832Y-35345D01*
X78844Y-35332D01*
X78854Y-35318D01*
X78861Y-35301D01*
X78864Y-35284D01*
X78865Y-35266D01*
X78865Y-34735D01*
X79248Y-34735D01*
X79219Y-34764D01*
X79178Y-34823D01*
X79150Y-34889D01*
X79135Y-34959D01*
X79134Y-35030D01*
X79147Y-35101D01*
X79173Y-35167D01*
X79212Y-35227D01*
X79262Y-35279D01*
X79321Y-35320D01*
X79386Y-35348D01*
X79456Y-35364D01*
X79528Y-35365D01*
X79598Y-35353D01*
X79665Y-35327D01*
X79725Y-35289D01*
X79777Y-35239D01*
X79818Y-35181D01*
X79848Y-35115D01*
X79863Y-35045D01*
X79865Y-34964D01*
X79851Y-34893D01*
X79823Y-34827D01*
X79784Y-34768D01*
X79733Y-34717D01*
X79674Y-34677D01*
X79620Y-34654D01*
X79620Y-34274D01*
X79880Y-34014D01*
X79909Y-34015D01*
X79909Y-34015D01*
X79916Y-34052D01*
X79930Y-34087D01*
X79950Y-34118D01*
X79976Y-34145D01*
X79980Y-34147D01*
X79980Y-34525D01*
X79981Y-34536D01*
X79982Y-34547D01*
X79982Y-34547D01*
X79982Y-34548D01*
X79985Y-34558D01*
X79988Y-34569D01*
X79988Y-34570D01*
X79989Y-34570D01*
X79994Y-34580D01*
X79999Y-34590D01*
X79999Y-34590D01*
X80000Y-34591D01*
X80007Y-34600D01*
X80013Y-34608D01*
X80014Y-34609D01*
X80014Y-34609D01*
X80014Y-34609D01*
X80015Y-34609D01*
X80198Y-34793D01*
X80178Y-34823D01*
X80150Y-34889D01*
X80135Y-34959D01*
X80134Y-35030D01*
X80147Y-35101D01*
X80173Y-35167D01*
X80212Y-35227D01*
X80262Y-35279D01*
X80321Y-35320D01*
X80386Y-35348D01*
X80456Y-35364D01*
X80528Y-35365D01*
X80598Y-35353D01*
X80665Y-35327D01*
X80725Y-35289D01*
X80777Y-35239D01*
X80818Y-35181D01*
X80848Y-35115D01*
X80863Y-35045D01*
X80865Y-34964D01*
X80851Y-34893D01*
X80823Y-34827D01*
X80784Y-34768D01*
X80751Y-34735D01*
X81248Y-34735D01*
X81219Y-34764D01*
X81178Y-34823D01*
X81150Y-34889D01*
X81135Y-34959D01*
X81134Y-35030D01*
X81147Y-35101D01*
X81173Y-35167D01*
X81212Y-35227D01*
X81262Y-35279D01*
X81321Y-35320D01*
X81386Y-35348D01*
X81456Y-35364D01*
X81528Y-35365D01*
X81598Y-35353D01*
X81665Y-35327D01*
X81725Y-35289D01*
X81777Y-35239D01*
X81818Y-35181D01*
X81848Y-35115D01*
X81863Y-35045D01*
X81865Y-34964D01*
X81851Y-34893D01*
X81823Y-34827D01*
X81784Y-34768D01*
X81733Y-34717D01*
X81674Y-34677D01*
X81648Y-34666D01*
X81650Y-34654D01*
X81651Y-34637D01*
X81651Y-34525D01*
X81666Y-34531D01*
X81702Y-34539D01*
X81739Y-34540D01*
X81776Y-34533D01*
X81811Y-34520D01*
X81842Y-34500D01*
X81869Y-34474D01*
X81890Y-34445D01*
X81890Y-35390D01*
M02*
