M48
;DRILL file {Pcbnew (2013-june-11)-stable} date Sun 19 Jan 2014 01:31:44 AM PST
;FORMAT={-:-/ absolute / inch / decimal}
FMAT,2
INCH,TZ
T1C0.013
T2C0.015
T3C0.020
T4C0.032
T5C0.035
%
G90
G05
M72
T1
X7.4875Y-3.295
X7.645Y-3.335
X7.6775Y-3.3375
X7.695Y-3.155
X7.7375Y-3.2925
X7.7475Y-3.4575
X7.8325Y-3.3025
X7.835Y-3.335
X7.85Y-3.19
X7.85Y-3.23
T2
X7.6475Y-2.9425
X7.84Y-3.085
T3
X7.515Y-3.09
X7.585Y-3.31
X7.665Y-3.235
X7.855Y-3.04
X7.89Y-3.3125
X7.9Y-2.97
T4
X7.5Y-2.9
X7.5Y-3.5
X7.6Y-2.9
X7.6Y-3.5
X7.7Y-2.9
X7.7Y-3.5
X7.8Y-2.9
X7.8Y-3.5
X7.9Y-2.9
X7.9Y-3.5
T5
X7.6585Y-3.1134
X7.6585Y-3.2866
T0
M30
