G04 (created by PCBNEW (2013-june-11)-stable) date Tue 22 Apr 2014 01:24:35 PM PDT*
%MOIN*%
G04 Gerber Fmt 3.4, Leading zero omitted, Abs format*
%FSLAX34Y34*%
G01*
G70*
G90*
G04 APERTURE LIST*
%ADD10C,0.00590551*%
%ADD11C,0.0354*%
%ADD12R,0.035X0.055*%
%ADD13R,0.025X0.045*%
%ADD14R,0.045X0.025*%
%ADD15R,0.0236X0.0157*%
%ADD16R,0.0157X0.0236*%
%ADD17R,0.055X0.055*%
%ADD18C,0.055*%
%ADD19R,0.0984252X0.0629921*%
%ADD20O,0.00984252X0.0315*%
%ADD21C,0.02*%
%ADD22C,0.006*%
G04 APERTURE END LIST*
G54D10*
G54D11*
X80085Y-33366D03*
X80085Y-31634D03*
G54D12*
X80725Y-31600D03*
X81475Y-31600D03*
G54D13*
X78900Y-30900D03*
X78300Y-30900D03*
G54D14*
X81500Y-32800D03*
X81500Y-32200D03*
G54D15*
X80500Y-32823D03*
X80500Y-33177D03*
X80500Y-32477D03*
X80500Y-32123D03*
G54D16*
X79323Y-30800D03*
X79677Y-30800D03*
X81677Y-33600D03*
X81323Y-33600D03*
X81677Y-33200D03*
X81323Y-33200D03*
G54D15*
X80900Y-32477D03*
X80900Y-32123D03*
X80900Y-32823D03*
X80900Y-33177D03*
G54D16*
X81677Y-34000D03*
X81323Y-34000D03*
X79002Y-33700D03*
X78648Y-33700D03*
X78977Y-31400D03*
X78623Y-31400D03*
G54D17*
X78500Y-35000D03*
G54D18*
X79500Y-35000D03*
X80500Y-35000D03*
X81500Y-35000D03*
G54D17*
X81500Y-30000D03*
G54D18*
X80500Y-30000D03*
X79500Y-30000D03*
X78500Y-30000D03*
G54D19*
X79100Y-32500D03*
G54D20*
X79542Y-31909D03*
X79365Y-31909D03*
X79188Y-31909D03*
X79011Y-31909D03*
X78834Y-31909D03*
X78657Y-31909D03*
X78657Y-33090D03*
X78834Y-33090D03*
X79011Y-33090D03*
X79188Y-33090D03*
X79365Y-33090D03*
X79542Y-33090D03*
G54D21*
X79000Y-33425D03*
X80275Y-30800D03*
X79900Y-33825D03*
X80175Y-32725D03*
X80200Y-32400D03*
X81725Y-34350D03*
X81725Y-32500D03*
X79225Y-31450D03*
X79800Y-31450D03*
X80100Y-34000D03*
X79650Y-33400D03*
X78400Y-33225D03*
X80075Y-31250D03*
X78875Y-31400D03*
G54D22*
X79011Y-33090D02*
X79011Y-33413D01*
X79011Y-33413D02*
X79000Y-33425D01*
X80275Y-30800D02*
X79677Y-30800D01*
X79011Y-33090D02*
X79011Y-33690D01*
X79011Y-33690D02*
X79002Y-33700D01*
X79677Y-30800D02*
X79677Y-30177D01*
X79677Y-30177D02*
X79500Y-30000D01*
X79188Y-31909D02*
X79188Y-31761D01*
X79188Y-31761D02*
X79677Y-31273D01*
X79677Y-31273D02*
X79677Y-30800D01*
X78300Y-30900D02*
X78300Y-30200D01*
X78300Y-30200D02*
X78500Y-30000D01*
X78657Y-31909D02*
X78657Y-31707D01*
X78300Y-31475D02*
X78300Y-30900D01*
X78475Y-31650D02*
X78300Y-31475D01*
X78600Y-31650D02*
X78475Y-31650D01*
X78657Y-31707D02*
X78600Y-31650D01*
X79365Y-33090D02*
X79365Y-33396D01*
X79890Y-33815D02*
X79900Y-33825D01*
X79784Y-33815D02*
X79890Y-33815D01*
X79365Y-33396D02*
X79784Y-33815D01*
X79542Y-33090D02*
X79542Y-32982D01*
X80427Y-33177D02*
X80500Y-33177D01*
X80175Y-32925D02*
X80427Y-33177D01*
X79600Y-32925D02*
X80175Y-32925D01*
X79542Y-32982D02*
X79600Y-32925D01*
X79542Y-31909D02*
X79542Y-32017D01*
X80452Y-32075D02*
X80500Y-32123D01*
X79600Y-32075D02*
X80452Y-32075D01*
X79542Y-32017D02*
X79600Y-32075D01*
X80500Y-32823D02*
X80273Y-32823D01*
X80273Y-32823D02*
X80175Y-32725D01*
X80500Y-32823D02*
X80900Y-32823D01*
X80500Y-32477D02*
X80277Y-32477D01*
X80277Y-32477D02*
X80200Y-32400D01*
X80500Y-32477D02*
X80900Y-32477D01*
X81677Y-33600D02*
X81677Y-34000D01*
X81677Y-34000D02*
X81725Y-34048D01*
X81725Y-34048D02*
X81725Y-34350D01*
X81677Y-33200D02*
X81677Y-32977D01*
X81677Y-32977D02*
X81500Y-32800D01*
X81500Y-32725D02*
X81500Y-32800D01*
X81725Y-32500D02*
X81500Y-32725D01*
X79150Y-31150D02*
X79150Y-30973D01*
X79150Y-30973D02*
X79323Y-30800D01*
X79365Y-31909D02*
X79365Y-31759D01*
X79150Y-31150D02*
X78900Y-30900D01*
X79150Y-31375D02*
X79150Y-31150D01*
X79225Y-31450D02*
X79150Y-31375D01*
X79675Y-31450D02*
X79800Y-31450D01*
X79365Y-31759D02*
X79675Y-31450D01*
X78834Y-33090D02*
X78834Y-33290D01*
X78425Y-34925D02*
X78500Y-35000D01*
X78425Y-33525D02*
X78425Y-34925D01*
X78575Y-33375D02*
X78425Y-33525D01*
X78750Y-33375D02*
X78575Y-33375D01*
X78834Y-33290D02*
X78750Y-33375D01*
X79188Y-33090D02*
X79188Y-33388D01*
X81000Y-34500D02*
X81500Y-35000D01*
X80300Y-34500D02*
X81000Y-34500D01*
X79188Y-33388D02*
X80300Y-34500D01*
X78657Y-33090D02*
X78657Y-33123D01*
X80100Y-33750D02*
X80100Y-34000D01*
X79975Y-33625D02*
X80100Y-33750D01*
X79875Y-33625D02*
X79975Y-33625D01*
X79650Y-33400D02*
X79875Y-33625D01*
X78555Y-33225D02*
X78400Y-33225D01*
X78657Y-33123D02*
X78555Y-33225D01*
X81500Y-32200D02*
X81325Y-32200D01*
X81325Y-32200D02*
X80725Y-31600D01*
X78977Y-31400D02*
X78875Y-31400D01*
X80675Y-31600D02*
X80725Y-31600D01*
X80325Y-31250D02*
X80675Y-31600D01*
X80075Y-31250D02*
X80325Y-31250D01*
X79011Y-31909D02*
X79011Y-31434D01*
X79011Y-31434D02*
X78977Y-31400D01*
G54D10*
G36*
X81890Y-35390D02*
X80865Y-35390D01*
X80865Y-34964D01*
X80851Y-34893D01*
X80823Y-34827D01*
X80784Y-34768D01*
X80733Y-34717D01*
X80674Y-34677D01*
X80608Y-34649D01*
X80538Y-34635D01*
X80466Y-34634D01*
X80396Y-34648D01*
X80330Y-34674D01*
X80270Y-34714D01*
X80219Y-34764D01*
X80178Y-34823D01*
X80150Y-34889D01*
X80135Y-34959D01*
X80134Y-35030D01*
X80147Y-35101D01*
X80173Y-35167D01*
X80212Y-35227D01*
X80262Y-35279D01*
X80321Y-35320D01*
X80386Y-35348D01*
X80456Y-35364D01*
X80528Y-35365D01*
X80598Y-35353D01*
X80665Y-35327D01*
X80725Y-35289D01*
X80777Y-35239D01*
X80818Y-35181D01*
X80848Y-35115D01*
X80863Y-35045D01*
X80865Y-34964D01*
X80865Y-35390D01*
X79865Y-35390D01*
X79865Y-34964D01*
X79851Y-34893D01*
X79823Y-34827D01*
X79784Y-34768D01*
X79733Y-34717D01*
X79674Y-34677D01*
X79608Y-34649D01*
X79538Y-34635D01*
X79466Y-34634D01*
X79396Y-34648D01*
X79330Y-34674D01*
X79270Y-34714D01*
X79219Y-34764D01*
X79178Y-34823D01*
X79150Y-34889D01*
X79135Y-34959D01*
X79134Y-35030D01*
X79147Y-35101D01*
X79173Y-35167D01*
X79212Y-35227D01*
X79262Y-35279D01*
X79321Y-35320D01*
X79386Y-35348D01*
X79456Y-35364D01*
X79528Y-35365D01*
X79598Y-35353D01*
X79665Y-35327D01*
X79725Y-35289D01*
X79777Y-35239D01*
X79818Y-35181D01*
X79848Y-35115D01*
X79863Y-35045D01*
X79865Y-34964D01*
X79865Y-35390D01*
X78109Y-35390D01*
X78109Y-31186D01*
X78117Y-31194D01*
X78131Y-31204D01*
X78148Y-31211D01*
X78165Y-31214D01*
X78180Y-31215D01*
X78180Y-31475D01*
X78181Y-31486D01*
X78182Y-31497D01*
X78182Y-31497D01*
X78182Y-31498D01*
X78185Y-31508D01*
X78188Y-31519D01*
X78188Y-31520D01*
X78189Y-31520D01*
X78194Y-31530D01*
X78199Y-31540D01*
X78199Y-31540D01*
X78200Y-31541D01*
X78207Y-31550D01*
X78213Y-31558D01*
X78214Y-31559D01*
X78214Y-31559D01*
X78214Y-31559D01*
X78215Y-31559D01*
X78390Y-31734D01*
X78398Y-31741D01*
X78407Y-31749D01*
X78407Y-31749D01*
X78408Y-31749D01*
X78418Y-31754D01*
X78427Y-31760D01*
X78428Y-31760D01*
X78428Y-31760D01*
X78439Y-31764D01*
X78450Y-31767D01*
X78450Y-31767D01*
X78451Y-31767D01*
X78462Y-31768D01*
X78473Y-31769D01*
X78474Y-31769D01*
X78474Y-31769D01*
X78474Y-31769D01*
X78475Y-31770D01*
X78510Y-31770D01*
X78507Y-31798D01*
X78507Y-31800D01*
X78507Y-32019D01*
X78509Y-32048D01*
X78518Y-32076D01*
X78532Y-32102D01*
X78550Y-32125D01*
X78573Y-32143D01*
X78598Y-32157D01*
X78626Y-32166D01*
X78656Y-32169D01*
X78685Y-32166D01*
X78713Y-32158D01*
X78739Y-32144D01*
X78762Y-32126D01*
X78780Y-32104D01*
X78795Y-32078D01*
X78803Y-32050D01*
X78807Y-32021D01*
X78807Y-32019D01*
X78807Y-31800D01*
X78804Y-31771D01*
X78795Y-31743D01*
X78782Y-31717D01*
X78777Y-31711D01*
X78777Y-31707D01*
X78776Y-31696D01*
X78775Y-31685D01*
X78774Y-31684D01*
X78774Y-31683D01*
X78771Y-31673D01*
X78768Y-31662D01*
X78768Y-31661D01*
X78768Y-31661D01*
X78762Y-31651D01*
X78757Y-31641D01*
X78757Y-31641D01*
X78757Y-31640D01*
X78750Y-31632D01*
X78743Y-31623D01*
X78742Y-31622D01*
X78742Y-31622D01*
X78742Y-31622D01*
X78741Y-31622D01*
X78684Y-31565D01*
X78676Y-31558D01*
X78667Y-31550D01*
X78667Y-31550D01*
X78666Y-31550D01*
X78656Y-31545D01*
X78647Y-31539D01*
X78646Y-31539D01*
X78646Y-31539D01*
X78635Y-31535D01*
X78624Y-31532D01*
X78624Y-31532D01*
X78623Y-31532D01*
X78612Y-31531D01*
X78601Y-31530D01*
X78600Y-31530D01*
X78600Y-31530D01*
X78600Y-31530D01*
X78600Y-31530D01*
X78524Y-31530D01*
X78420Y-31425D01*
X78420Y-31215D01*
X78433Y-31215D01*
X78451Y-31211D01*
X78467Y-31204D01*
X78482Y-31195D01*
X78494Y-31182D01*
X78504Y-31168D01*
X78511Y-31151D01*
X78514Y-31134D01*
X78515Y-31116D01*
X78515Y-30666D01*
X78511Y-30648D01*
X78504Y-30632D01*
X78495Y-30617D01*
X78482Y-30605D01*
X78468Y-30595D01*
X78451Y-30588D01*
X78434Y-30585D01*
X78420Y-30584D01*
X78420Y-30356D01*
X78456Y-30364D01*
X78528Y-30365D01*
X78598Y-30353D01*
X78665Y-30327D01*
X78725Y-30289D01*
X78777Y-30239D01*
X78818Y-30181D01*
X78848Y-30115D01*
X78863Y-30045D01*
X78865Y-29964D01*
X78851Y-29893D01*
X78823Y-29827D01*
X78784Y-29768D01*
X78733Y-29717D01*
X78674Y-29677D01*
X78608Y-29649D01*
X78538Y-29635D01*
X78466Y-29634D01*
X78396Y-29648D01*
X78330Y-29674D01*
X78270Y-29714D01*
X78219Y-29764D01*
X78178Y-29823D01*
X78150Y-29889D01*
X78135Y-29959D01*
X78134Y-30030D01*
X78147Y-30101D01*
X78173Y-30167D01*
X78181Y-30180D01*
X78181Y-30187D01*
X78180Y-30198D01*
X78180Y-30199D01*
X78180Y-30199D01*
X78180Y-30199D01*
X78180Y-30200D01*
X78180Y-30584D01*
X78166Y-30584D01*
X78148Y-30588D01*
X78132Y-30595D01*
X78117Y-30604D01*
X78109Y-30613D01*
X78109Y-29609D01*
X81890Y-29609D01*
X81890Y-32405D01*
X81872Y-32379D01*
X81865Y-32371D01*
X81865Y-30266D01*
X81865Y-29733D01*
X81864Y-29715D01*
X81861Y-29698D01*
X81854Y-29681D01*
X81844Y-29667D01*
X81832Y-29654D01*
X81817Y-29645D01*
X81801Y-29638D01*
X81783Y-29634D01*
X81592Y-29635D01*
X81570Y-29657D01*
X81570Y-29930D01*
X81842Y-29930D01*
X81865Y-29907D01*
X81865Y-29733D01*
X81865Y-30266D01*
X81865Y-30092D01*
X81842Y-30070D01*
X81570Y-30070D01*
X81570Y-30342D01*
X81592Y-30365D01*
X81783Y-30365D01*
X81801Y-30361D01*
X81817Y-30354D01*
X81832Y-30345D01*
X81844Y-30332D01*
X81854Y-30318D01*
X81861Y-30301D01*
X81864Y-30284D01*
X81865Y-30266D01*
X81865Y-32371D01*
X81846Y-32352D01*
X81815Y-32332D01*
X81814Y-32331D01*
X81815Y-32316D01*
X81815Y-32066D01*
X81811Y-32048D01*
X81804Y-32032D01*
X81795Y-32017D01*
X81782Y-32005D01*
X81768Y-31995D01*
X81751Y-31988D01*
X81734Y-31985D01*
X81716Y-31984D01*
X81430Y-31984D01*
X81430Y-30342D01*
X81430Y-30070D01*
X81430Y-29930D01*
X81430Y-29657D01*
X81407Y-29635D01*
X81216Y-29634D01*
X81198Y-29638D01*
X81182Y-29645D01*
X81167Y-29654D01*
X81155Y-29667D01*
X81145Y-29681D01*
X81138Y-29698D01*
X81135Y-29715D01*
X81134Y-29733D01*
X81135Y-29907D01*
X81157Y-29930D01*
X81430Y-29930D01*
X81430Y-30070D01*
X81157Y-30070D01*
X81135Y-30092D01*
X81134Y-30266D01*
X81135Y-30284D01*
X81138Y-30301D01*
X81145Y-30318D01*
X81155Y-30332D01*
X81167Y-30345D01*
X81182Y-30354D01*
X81198Y-30361D01*
X81216Y-30365D01*
X81407Y-30365D01*
X81430Y-30342D01*
X81430Y-31984D01*
X81279Y-31984D01*
X80990Y-31695D01*
X80990Y-31316D01*
X80986Y-31298D01*
X80979Y-31282D01*
X80970Y-31267D01*
X80957Y-31255D01*
X80943Y-31245D01*
X80926Y-31238D01*
X80909Y-31235D01*
X80891Y-31234D01*
X80865Y-31234D01*
X80865Y-29964D01*
X80851Y-29893D01*
X80823Y-29827D01*
X80784Y-29768D01*
X80733Y-29717D01*
X80674Y-29677D01*
X80608Y-29649D01*
X80538Y-29635D01*
X80466Y-29634D01*
X80396Y-29648D01*
X80330Y-29674D01*
X80270Y-29714D01*
X80219Y-29764D01*
X80178Y-29823D01*
X80150Y-29889D01*
X80135Y-29959D01*
X80134Y-30030D01*
X80147Y-30101D01*
X80173Y-30167D01*
X80212Y-30227D01*
X80262Y-30279D01*
X80321Y-30320D01*
X80386Y-30348D01*
X80456Y-30364D01*
X80528Y-30365D01*
X80598Y-30353D01*
X80665Y-30327D01*
X80725Y-30289D01*
X80777Y-30239D01*
X80818Y-30181D01*
X80848Y-30115D01*
X80863Y-30045D01*
X80865Y-29964D01*
X80865Y-31234D01*
X80541Y-31234D01*
X80523Y-31238D01*
X80507Y-31245D01*
X80496Y-31252D01*
X80409Y-31165D01*
X80401Y-31158D01*
X80392Y-31150D01*
X80392Y-31150D01*
X80391Y-31150D01*
X80381Y-31145D01*
X80372Y-31139D01*
X80371Y-31139D01*
X80371Y-31139D01*
X80360Y-31135D01*
X80349Y-31132D01*
X80349Y-31132D01*
X80348Y-31132D01*
X80337Y-31131D01*
X80326Y-31130D01*
X80325Y-31130D01*
X80325Y-31130D01*
X80325Y-31130D01*
X80325Y-31130D01*
X80223Y-31130D01*
X80222Y-31129D01*
X80196Y-31102D01*
X80165Y-31082D01*
X80131Y-31067D01*
X80094Y-31060D01*
X80057Y-31059D01*
X80021Y-31066D01*
X79986Y-31080D01*
X79955Y-31101D01*
X79928Y-31127D01*
X79907Y-31158D01*
X79893Y-31192D01*
X79885Y-31228D01*
X79884Y-31265D01*
X79887Y-31280D01*
X79856Y-31267D01*
X79819Y-31260D01*
X79797Y-31259D01*
X79797Y-30998D01*
X79797Y-30997D01*
X79812Y-30988D01*
X79825Y-30975D01*
X79835Y-30961D01*
X79841Y-30944D01*
X79845Y-30927D01*
X79845Y-30920D01*
X80126Y-30920D01*
X80151Y-30945D01*
X80181Y-30966D01*
X80216Y-30981D01*
X80252Y-30989D01*
X80289Y-30990D01*
X80326Y-30983D01*
X80361Y-30970D01*
X80392Y-30950D01*
X80419Y-30924D01*
X80441Y-30894D01*
X80456Y-30860D01*
X80464Y-30823D01*
X80465Y-30781D01*
X80457Y-30744D01*
X80443Y-30710D01*
X80422Y-30679D01*
X80396Y-30652D01*
X80365Y-30632D01*
X80331Y-30617D01*
X80294Y-30610D01*
X80257Y-30609D01*
X80221Y-30616D01*
X80186Y-30630D01*
X80155Y-30651D01*
X80128Y-30677D01*
X80126Y-30680D01*
X79845Y-30680D01*
X79845Y-30673D01*
X79842Y-30655D01*
X79835Y-30639D01*
X79825Y-30624D01*
X79813Y-30612D01*
X79798Y-30602D01*
X79797Y-30601D01*
X79797Y-30212D01*
X79818Y-30181D01*
X79848Y-30115D01*
X79863Y-30045D01*
X79865Y-29964D01*
X79851Y-29893D01*
X79823Y-29827D01*
X79784Y-29768D01*
X79733Y-29717D01*
X79674Y-29677D01*
X79608Y-29649D01*
X79538Y-29635D01*
X79466Y-29634D01*
X79396Y-29648D01*
X79330Y-29674D01*
X79270Y-29714D01*
X79219Y-29764D01*
X79178Y-29823D01*
X79150Y-29889D01*
X79135Y-29959D01*
X79134Y-30030D01*
X79147Y-30101D01*
X79173Y-30167D01*
X79212Y-30227D01*
X79262Y-30279D01*
X79321Y-30320D01*
X79386Y-30348D01*
X79456Y-30364D01*
X79528Y-30365D01*
X79557Y-30360D01*
X79557Y-30601D01*
X79556Y-30602D01*
X79541Y-30611D01*
X79528Y-30624D01*
X79518Y-30638D01*
X79512Y-30655D01*
X79508Y-30672D01*
X79508Y-30690D01*
X79508Y-30926D01*
X79511Y-30944D01*
X79518Y-30960D01*
X79528Y-30975D01*
X79540Y-30987D01*
X79555Y-30997D01*
X79557Y-30998D01*
X79557Y-31223D01*
X79401Y-31379D01*
X79393Y-31360D01*
X79372Y-31329D01*
X79346Y-31302D01*
X79315Y-31282D01*
X79281Y-31267D01*
X79270Y-31265D01*
X79270Y-31150D01*
X79270Y-31022D01*
X79284Y-31008D01*
X79410Y-31008D01*
X79427Y-31004D01*
X79443Y-30997D01*
X79458Y-30988D01*
X79471Y-30975D01*
X79481Y-30961D01*
X79487Y-30944D01*
X79491Y-30927D01*
X79491Y-30909D01*
X79491Y-30673D01*
X79488Y-30655D01*
X79481Y-30639D01*
X79471Y-30624D01*
X79459Y-30612D01*
X79444Y-30602D01*
X79428Y-30595D01*
X79410Y-30592D01*
X79393Y-30591D01*
X79235Y-30591D01*
X79218Y-30595D01*
X79202Y-30602D01*
X79187Y-30611D01*
X79174Y-30624D01*
X79164Y-30638D01*
X79158Y-30655D01*
X79154Y-30672D01*
X79154Y-30690D01*
X79154Y-30798D01*
X79115Y-30838D01*
X79115Y-30666D01*
X79111Y-30648D01*
X79104Y-30632D01*
X79095Y-30617D01*
X79082Y-30605D01*
X79068Y-30595D01*
X79051Y-30588D01*
X79034Y-30585D01*
X79016Y-30584D01*
X78766Y-30584D01*
X78748Y-30588D01*
X78732Y-30595D01*
X78717Y-30604D01*
X78705Y-30617D01*
X78695Y-30631D01*
X78688Y-30648D01*
X78685Y-30665D01*
X78684Y-30683D01*
X78684Y-31133D01*
X78688Y-31151D01*
X78695Y-31167D01*
X78704Y-31182D01*
X78717Y-31194D01*
X78731Y-31204D01*
X78748Y-31211D01*
X78765Y-31214D01*
X78783Y-31215D01*
X78830Y-31215D01*
X78821Y-31216D01*
X78786Y-31230D01*
X78755Y-31251D01*
X78728Y-31277D01*
X78707Y-31308D01*
X78693Y-31342D01*
X78685Y-31378D01*
X78684Y-31415D01*
X78691Y-31452D01*
X78705Y-31487D01*
X78725Y-31518D01*
X78751Y-31545D01*
X78781Y-31566D01*
X78816Y-31581D01*
X78840Y-31586D01*
X78840Y-31587D01*
X78855Y-31597D01*
X78871Y-31604D01*
X78889Y-31607D01*
X78891Y-31607D01*
X78891Y-31710D01*
X78887Y-31715D01*
X78873Y-31741D01*
X78864Y-31769D01*
X78861Y-31798D01*
X78861Y-31800D01*
X78861Y-32019D01*
X78864Y-32048D01*
X78872Y-32076D01*
X78886Y-32102D01*
X78904Y-32125D01*
X78927Y-32143D01*
X78953Y-32157D01*
X78981Y-32166D01*
X79010Y-32169D01*
X79039Y-32166D01*
X79067Y-32158D01*
X79093Y-32144D01*
X79099Y-32139D01*
X79104Y-32143D01*
X79130Y-32157D01*
X79158Y-32166D01*
X79187Y-32169D01*
X79216Y-32166D01*
X79244Y-32158D01*
X79270Y-32144D01*
X79277Y-32139D01*
X79281Y-32143D01*
X79307Y-32157D01*
X79335Y-32166D01*
X79364Y-32169D01*
X79393Y-32166D01*
X79421Y-32158D01*
X79447Y-32144D01*
X79454Y-32139D01*
X79458Y-32143D01*
X79484Y-32157D01*
X79512Y-32166D01*
X79524Y-32167D01*
X79532Y-32174D01*
X79532Y-32174D01*
X79533Y-32174D01*
X79543Y-32179D01*
X79552Y-32185D01*
X79553Y-32185D01*
X79553Y-32185D01*
X79564Y-32189D01*
X79575Y-32192D01*
X79575Y-32192D01*
X79576Y-32192D01*
X79587Y-32193D01*
X79598Y-32194D01*
X79599Y-32194D01*
X79599Y-32194D01*
X79599Y-32194D01*
X79600Y-32195D01*
X80291Y-32195D01*
X80291Y-32210D01*
X80295Y-32227D01*
X80299Y-32238D01*
X80290Y-32232D01*
X80256Y-32217D01*
X80219Y-32210D01*
X80182Y-32209D01*
X80146Y-32216D01*
X80111Y-32230D01*
X80080Y-32251D01*
X80053Y-32277D01*
X80032Y-32308D01*
X80018Y-32342D01*
X80010Y-32378D01*
X80009Y-32415D01*
X80016Y-32452D01*
X80030Y-32487D01*
X80050Y-32518D01*
X80076Y-32545D01*
X80089Y-32554D01*
X80086Y-32555D01*
X80055Y-32576D01*
X80028Y-32602D01*
X80007Y-32633D01*
X79993Y-32667D01*
X79985Y-32703D01*
X79984Y-32740D01*
X79991Y-32777D01*
X80002Y-32805D01*
X79600Y-32805D01*
X79588Y-32806D01*
X79577Y-32807D01*
X79577Y-32807D01*
X79576Y-32807D01*
X79566Y-32810D01*
X79555Y-32813D01*
X79554Y-32813D01*
X79554Y-32814D01*
X79544Y-32819D01*
X79534Y-32824D01*
X79534Y-32824D01*
X79533Y-32825D01*
X79524Y-32832D01*
X79524Y-32832D01*
X79514Y-32833D01*
X79486Y-32841D01*
X79460Y-32855D01*
X79454Y-32860D01*
X79449Y-32856D01*
X79423Y-32842D01*
X79395Y-32833D01*
X79366Y-32830D01*
X79337Y-32833D01*
X79309Y-32841D01*
X79283Y-32855D01*
X79277Y-32860D01*
X79272Y-32856D01*
X79246Y-32842D01*
X79218Y-32833D01*
X79189Y-32830D01*
X79160Y-32833D01*
X79132Y-32841D01*
X79106Y-32855D01*
X79100Y-32860D01*
X79095Y-32856D01*
X79069Y-32842D01*
X79041Y-32833D01*
X79012Y-32830D01*
X78983Y-32833D01*
X78955Y-32841D01*
X78929Y-32855D01*
X78922Y-32860D01*
X78918Y-32856D01*
X78892Y-32842D01*
X78864Y-32833D01*
X78835Y-32830D01*
X78806Y-32833D01*
X78778Y-32841D01*
X78752Y-32855D01*
X78745Y-32860D01*
X78741Y-32856D01*
X78715Y-32842D01*
X78687Y-32833D01*
X78658Y-32830D01*
X78628Y-32833D01*
X78600Y-32841D01*
X78574Y-32855D01*
X78552Y-32873D01*
X78533Y-32895D01*
X78519Y-32921D01*
X78510Y-32949D01*
X78507Y-32978D01*
X78507Y-32980D01*
X78507Y-33067D01*
X78490Y-33057D01*
X78456Y-33042D01*
X78419Y-33035D01*
X78382Y-33034D01*
X78346Y-33041D01*
X78311Y-33055D01*
X78280Y-33076D01*
X78253Y-33102D01*
X78232Y-33133D01*
X78218Y-33167D01*
X78210Y-33203D01*
X78209Y-33240D01*
X78216Y-33277D01*
X78230Y-33312D01*
X78250Y-33343D01*
X78276Y-33370D01*
X78306Y-33391D01*
X78341Y-33406D01*
X78367Y-33412D01*
X78340Y-33440D01*
X78333Y-33448D01*
X78325Y-33457D01*
X78325Y-33457D01*
X78325Y-33458D01*
X78320Y-33468D01*
X78314Y-33477D01*
X78314Y-33478D01*
X78314Y-33478D01*
X78310Y-33489D01*
X78307Y-33500D01*
X78307Y-33500D01*
X78307Y-33501D01*
X78306Y-33512D01*
X78305Y-33523D01*
X78305Y-33524D01*
X78305Y-33524D01*
X78305Y-33524D01*
X78305Y-33525D01*
X78305Y-34634D01*
X78216Y-34634D01*
X78198Y-34638D01*
X78182Y-34645D01*
X78167Y-34654D01*
X78155Y-34667D01*
X78145Y-34681D01*
X78138Y-34698D01*
X78135Y-34715D01*
X78134Y-34733D01*
X78134Y-35283D01*
X78138Y-35301D01*
X78145Y-35317D01*
X78154Y-35332D01*
X78167Y-35344D01*
X78181Y-35354D01*
X78198Y-35361D01*
X78215Y-35364D01*
X78233Y-35365D01*
X78783Y-35365D01*
X78801Y-35361D01*
X78817Y-35354D01*
X78832Y-35345D01*
X78844Y-35332D01*
X78854Y-35318D01*
X78861Y-35301D01*
X78864Y-35284D01*
X78865Y-35266D01*
X78865Y-34716D01*
X78861Y-34698D01*
X78854Y-34682D01*
X78845Y-34667D01*
X78832Y-34655D01*
X78818Y-34645D01*
X78801Y-34638D01*
X78784Y-34635D01*
X78766Y-34634D01*
X78545Y-34634D01*
X78545Y-33574D01*
X78624Y-33495D01*
X78750Y-33495D01*
X78761Y-33493D01*
X78772Y-33492D01*
X78772Y-33492D01*
X78773Y-33492D01*
X78783Y-33489D01*
X78794Y-33486D01*
X78795Y-33486D01*
X78795Y-33485D01*
X78805Y-33480D01*
X78815Y-33475D01*
X78815Y-33475D01*
X78816Y-33475D01*
X78816Y-33477D01*
X78830Y-33512D01*
X78845Y-33536D01*
X78843Y-33538D01*
X78837Y-33555D01*
X78833Y-33572D01*
X78833Y-33590D01*
X78833Y-33826D01*
X78836Y-33844D01*
X78843Y-33860D01*
X78853Y-33875D01*
X78865Y-33887D01*
X78880Y-33897D01*
X78896Y-33904D01*
X78914Y-33907D01*
X78931Y-33908D01*
X79089Y-33908D01*
X79106Y-33904D01*
X79122Y-33897D01*
X79137Y-33888D01*
X79150Y-33875D01*
X79160Y-33861D01*
X79166Y-33844D01*
X79170Y-33827D01*
X79170Y-33809D01*
X79170Y-33573D01*
X79167Y-33555D01*
X79160Y-33539D01*
X79156Y-33533D01*
X79159Y-33528D01*
X80215Y-34584D01*
X80223Y-34591D01*
X80232Y-34599D01*
X80232Y-34599D01*
X80233Y-34599D01*
X80243Y-34604D01*
X80252Y-34610D01*
X80253Y-34610D01*
X80253Y-34610D01*
X80264Y-34614D01*
X80275Y-34617D01*
X80275Y-34617D01*
X80276Y-34617D01*
X80287Y-34618D01*
X80298Y-34619D01*
X80299Y-34619D01*
X80299Y-34619D01*
X80299Y-34619D01*
X80300Y-34620D01*
X80950Y-34620D01*
X81171Y-34840D01*
X81150Y-34889D01*
X81135Y-34959D01*
X81134Y-35030D01*
X81147Y-35101D01*
X81173Y-35167D01*
X81212Y-35227D01*
X81262Y-35279D01*
X81321Y-35320D01*
X81386Y-35348D01*
X81456Y-35364D01*
X81528Y-35365D01*
X81598Y-35353D01*
X81665Y-35327D01*
X81725Y-35289D01*
X81777Y-35239D01*
X81818Y-35181D01*
X81848Y-35115D01*
X81863Y-35045D01*
X81865Y-34964D01*
X81851Y-34893D01*
X81823Y-34827D01*
X81784Y-34768D01*
X81733Y-34717D01*
X81674Y-34677D01*
X81608Y-34649D01*
X81538Y-34635D01*
X81466Y-34634D01*
X81396Y-34648D01*
X81340Y-34670D01*
X81084Y-34415D01*
X81076Y-34408D01*
X81067Y-34400D01*
X81067Y-34400D01*
X81066Y-34400D01*
X81056Y-34395D01*
X81047Y-34389D01*
X81046Y-34389D01*
X81046Y-34389D01*
X81035Y-34385D01*
X81024Y-34382D01*
X81024Y-34382D01*
X81023Y-34382D01*
X81012Y-34381D01*
X81001Y-34380D01*
X81000Y-34380D01*
X81000Y-34380D01*
X81000Y-34380D01*
X81000Y-34380D01*
X80349Y-34380D01*
X80152Y-34183D01*
X80186Y-34170D01*
X80217Y-34150D01*
X80244Y-34124D01*
X80266Y-34094D01*
X80281Y-34060D01*
X80289Y-34023D01*
X80290Y-33981D01*
X80282Y-33944D01*
X80268Y-33910D01*
X80247Y-33879D01*
X80221Y-33852D01*
X80220Y-33851D01*
X80220Y-33750D01*
X80218Y-33738D01*
X80217Y-33727D01*
X80217Y-33727D01*
X80217Y-33726D01*
X80214Y-33716D01*
X80211Y-33705D01*
X80211Y-33704D01*
X80210Y-33704D01*
X80205Y-33694D01*
X80200Y-33684D01*
X80200Y-33684D01*
X80199Y-33683D01*
X80192Y-33674D01*
X80186Y-33666D01*
X80185Y-33665D01*
X80185Y-33665D01*
X80185Y-33665D01*
X80184Y-33665D01*
X80146Y-33626D01*
X80157Y-33624D01*
X80205Y-33605D01*
X80250Y-33577D01*
X80288Y-33541D01*
X80318Y-33498D01*
X80339Y-33450D01*
X80351Y-33399D01*
X80352Y-33340D01*
X80355Y-33341D01*
X80372Y-33345D01*
X80390Y-33345D01*
X80626Y-33345D01*
X80644Y-33342D01*
X80660Y-33335D01*
X80675Y-33325D01*
X80687Y-33313D01*
X80697Y-33298D01*
X80704Y-33282D01*
X80707Y-33264D01*
X80708Y-33247D01*
X80708Y-33089D01*
X80704Y-33072D01*
X80697Y-33056D01*
X80688Y-33041D01*
X80675Y-33028D01*
X80661Y-33018D01*
X80644Y-33012D01*
X80627Y-33008D01*
X80609Y-33008D01*
X80428Y-33008D01*
X80411Y-32991D01*
X80626Y-32991D01*
X80644Y-32988D01*
X80660Y-32981D01*
X80675Y-32971D01*
X80687Y-32959D01*
X80697Y-32944D01*
X80698Y-32943D01*
X80701Y-32943D01*
X80702Y-32943D01*
X80711Y-32958D01*
X80724Y-32971D01*
X80738Y-32981D01*
X80755Y-32987D01*
X80772Y-32991D01*
X80790Y-32991D01*
X81026Y-32991D01*
X81044Y-32988D01*
X81060Y-32981D01*
X81075Y-32971D01*
X81087Y-32959D01*
X81097Y-32944D01*
X81104Y-32928D01*
X81107Y-32910D01*
X81108Y-32893D01*
X81108Y-32735D01*
X81104Y-32718D01*
X81097Y-32702D01*
X81088Y-32687D01*
X81075Y-32674D01*
X81061Y-32664D01*
X81044Y-32658D01*
X81027Y-32654D01*
X81009Y-32654D01*
X80773Y-32654D01*
X80755Y-32657D01*
X80739Y-32664D01*
X80724Y-32674D01*
X80712Y-32686D01*
X80702Y-32701D01*
X80701Y-32703D01*
X80698Y-32703D01*
X80697Y-32702D01*
X80688Y-32687D01*
X80675Y-32674D01*
X80661Y-32664D01*
X80644Y-32658D01*
X80627Y-32654D01*
X80609Y-32654D01*
X80373Y-32654D01*
X80355Y-32657D01*
X80353Y-32658D01*
X80344Y-32637D01*
X80355Y-32641D01*
X80372Y-32645D01*
X80390Y-32645D01*
X80626Y-32645D01*
X80644Y-32642D01*
X80660Y-32635D01*
X80675Y-32625D01*
X80687Y-32613D01*
X80697Y-32598D01*
X80698Y-32597D01*
X80701Y-32597D01*
X80702Y-32597D01*
X80711Y-32612D01*
X80724Y-32625D01*
X80738Y-32635D01*
X80755Y-32641D01*
X80772Y-32645D01*
X80790Y-32645D01*
X81026Y-32645D01*
X81044Y-32642D01*
X81060Y-32635D01*
X81075Y-32625D01*
X81087Y-32613D01*
X81097Y-32598D01*
X81104Y-32582D01*
X81107Y-32564D01*
X81108Y-32547D01*
X81108Y-32389D01*
X81104Y-32372D01*
X81097Y-32356D01*
X81088Y-32341D01*
X81075Y-32328D01*
X81061Y-32318D01*
X81044Y-32312D01*
X81027Y-32308D01*
X81009Y-32308D01*
X80773Y-32308D01*
X80755Y-32311D01*
X80739Y-32318D01*
X80724Y-32328D01*
X80712Y-32340D01*
X80702Y-32355D01*
X80701Y-32357D01*
X80698Y-32357D01*
X80697Y-32356D01*
X80688Y-32341D01*
X80675Y-32328D01*
X80661Y-32318D01*
X80644Y-32312D01*
X80627Y-32308D01*
X80609Y-32308D01*
X80373Y-32308D01*
X80368Y-32309D01*
X80353Y-32286D01*
X80355Y-32287D01*
X80372Y-32291D01*
X80390Y-32291D01*
X80626Y-32291D01*
X80644Y-32288D01*
X80660Y-32281D01*
X80675Y-32271D01*
X80687Y-32259D01*
X80697Y-32244D01*
X80704Y-32228D01*
X80707Y-32210D01*
X80708Y-32193D01*
X80708Y-32035D01*
X80704Y-32018D01*
X80697Y-32002D01*
X80688Y-31987D01*
X80675Y-31974D01*
X80661Y-31965D01*
X80908Y-31965D01*
X80918Y-31963D01*
X81184Y-32229D01*
X81184Y-32333D01*
X81188Y-32351D01*
X81195Y-32367D01*
X81204Y-32382D01*
X81217Y-32394D01*
X81231Y-32404D01*
X81248Y-32411D01*
X81265Y-32414D01*
X81283Y-32415D01*
X81554Y-32415D01*
X81543Y-32442D01*
X81535Y-32478D01*
X81534Y-32515D01*
X81535Y-32519D01*
X81470Y-32584D01*
X81266Y-32584D01*
X81248Y-32588D01*
X81232Y-32595D01*
X81217Y-32604D01*
X81205Y-32617D01*
X81195Y-32631D01*
X81188Y-32648D01*
X81185Y-32665D01*
X81184Y-32683D01*
X81184Y-32933D01*
X81188Y-32951D01*
X81195Y-32967D01*
X81204Y-32982D01*
X81217Y-32994D01*
X81231Y-33004D01*
X81248Y-33011D01*
X81265Y-33014D01*
X81283Y-33015D01*
X81538Y-33015D01*
X81528Y-33024D01*
X81518Y-33038D01*
X81512Y-33055D01*
X81508Y-33072D01*
X81508Y-33090D01*
X81508Y-33326D01*
X81511Y-33344D01*
X81518Y-33360D01*
X81528Y-33375D01*
X81540Y-33387D01*
X81555Y-33397D01*
X81561Y-33399D01*
X81556Y-33402D01*
X81541Y-33411D01*
X81528Y-33424D01*
X81518Y-33438D01*
X81512Y-33455D01*
X81508Y-33472D01*
X81508Y-33490D01*
X81508Y-33726D01*
X81511Y-33744D01*
X81518Y-33760D01*
X81528Y-33775D01*
X81540Y-33787D01*
X81555Y-33797D01*
X81557Y-33798D01*
X81557Y-33801D01*
X81556Y-33802D01*
X81541Y-33811D01*
X81528Y-33824D01*
X81518Y-33838D01*
X81512Y-33855D01*
X81508Y-33872D01*
X81508Y-33890D01*
X81508Y-34126D01*
X81511Y-34144D01*
X81518Y-34160D01*
X81528Y-34175D01*
X81540Y-34187D01*
X81555Y-34197D01*
X81571Y-34204D01*
X81589Y-34207D01*
X81598Y-34208D01*
X81578Y-34227D01*
X81557Y-34258D01*
X81543Y-34292D01*
X81535Y-34328D01*
X81534Y-34365D01*
X81541Y-34402D01*
X81555Y-34437D01*
X81575Y-34468D01*
X81601Y-34495D01*
X81631Y-34516D01*
X81666Y-34531D01*
X81702Y-34539D01*
X81739Y-34540D01*
X81776Y-34533D01*
X81811Y-34520D01*
X81842Y-34500D01*
X81869Y-34474D01*
X81890Y-34445D01*
X81890Y-35390D01*
X81890Y-35390D01*
G37*
G54D22*
X81890Y-35390D02*
X80865Y-35390D01*
X80865Y-34964D01*
X80851Y-34893D01*
X80823Y-34827D01*
X80784Y-34768D01*
X80733Y-34717D01*
X80674Y-34677D01*
X80608Y-34649D01*
X80538Y-34635D01*
X80466Y-34634D01*
X80396Y-34648D01*
X80330Y-34674D01*
X80270Y-34714D01*
X80219Y-34764D01*
X80178Y-34823D01*
X80150Y-34889D01*
X80135Y-34959D01*
X80134Y-35030D01*
X80147Y-35101D01*
X80173Y-35167D01*
X80212Y-35227D01*
X80262Y-35279D01*
X80321Y-35320D01*
X80386Y-35348D01*
X80456Y-35364D01*
X80528Y-35365D01*
X80598Y-35353D01*
X80665Y-35327D01*
X80725Y-35289D01*
X80777Y-35239D01*
X80818Y-35181D01*
X80848Y-35115D01*
X80863Y-35045D01*
X80865Y-34964D01*
X80865Y-35390D01*
X79865Y-35390D01*
X79865Y-34964D01*
X79851Y-34893D01*
X79823Y-34827D01*
X79784Y-34768D01*
X79733Y-34717D01*
X79674Y-34677D01*
X79608Y-34649D01*
X79538Y-34635D01*
X79466Y-34634D01*
X79396Y-34648D01*
X79330Y-34674D01*
X79270Y-34714D01*
X79219Y-34764D01*
X79178Y-34823D01*
X79150Y-34889D01*
X79135Y-34959D01*
X79134Y-35030D01*
X79147Y-35101D01*
X79173Y-35167D01*
X79212Y-35227D01*
X79262Y-35279D01*
X79321Y-35320D01*
X79386Y-35348D01*
X79456Y-35364D01*
X79528Y-35365D01*
X79598Y-35353D01*
X79665Y-35327D01*
X79725Y-35289D01*
X79777Y-35239D01*
X79818Y-35181D01*
X79848Y-35115D01*
X79863Y-35045D01*
X79865Y-34964D01*
X79865Y-35390D01*
X78109Y-35390D01*
X78109Y-31186D01*
X78117Y-31194D01*
X78131Y-31204D01*
X78148Y-31211D01*
X78165Y-31214D01*
X78180Y-31215D01*
X78180Y-31475D01*
X78181Y-31486D01*
X78182Y-31497D01*
X78182Y-31497D01*
X78182Y-31498D01*
X78185Y-31508D01*
X78188Y-31519D01*
X78188Y-31520D01*
X78189Y-31520D01*
X78194Y-31530D01*
X78199Y-31540D01*
X78199Y-31540D01*
X78200Y-31541D01*
X78207Y-31550D01*
X78213Y-31558D01*
X78214Y-31559D01*
X78214Y-31559D01*
X78214Y-31559D01*
X78215Y-31559D01*
X78390Y-31734D01*
X78398Y-31741D01*
X78407Y-31749D01*
X78407Y-31749D01*
X78408Y-31749D01*
X78418Y-31754D01*
X78427Y-31760D01*
X78428Y-31760D01*
X78428Y-31760D01*
X78439Y-31764D01*
X78450Y-31767D01*
X78450Y-31767D01*
X78451Y-31767D01*
X78462Y-31768D01*
X78473Y-31769D01*
X78474Y-31769D01*
X78474Y-31769D01*
X78474Y-31769D01*
X78475Y-31770D01*
X78510Y-31770D01*
X78507Y-31798D01*
X78507Y-31800D01*
X78507Y-32019D01*
X78509Y-32048D01*
X78518Y-32076D01*
X78532Y-32102D01*
X78550Y-32125D01*
X78573Y-32143D01*
X78598Y-32157D01*
X78626Y-32166D01*
X78656Y-32169D01*
X78685Y-32166D01*
X78713Y-32158D01*
X78739Y-32144D01*
X78762Y-32126D01*
X78780Y-32104D01*
X78795Y-32078D01*
X78803Y-32050D01*
X78807Y-32021D01*
X78807Y-32019D01*
X78807Y-31800D01*
X78804Y-31771D01*
X78795Y-31743D01*
X78782Y-31717D01*
X78777Y-31711D01*
X78777Y-31707D01*
X78776Y-31696D01*
X78775Y-31685D01*
X78774Y-31684D01*
X78774Y-31683D01*
X78771Y-31673D01*
X78768Y-31662D01*
X78768Y-31661D01*
X78768Y-31661D01*
X78762Y-31651D01*
X78757Y-31641D01*
X78757Y-31641D01*
X78757Y-31640D01*
X78750Y-31632D01*
X78743Y-31623D01*
X78742Y-31622D01*
X78742Y-31622D01*
X78742Y-31622D01*
X78741Y-31622D01*
X78684Y-31565D01*
X78676Y-31558D01*
X78667Y-31550D01*
X78667Y-31550D01*
X78666Y-31550D01*
X78656Y-31545D01*
X78647Y-31539D01*
X78646Y-31539D01*
X78646Y-31539D01*
X78635Y-31535D01*
X78624Y-31532D01*
X78624Y-31532D01*
X78623Y-31532D01*
X78612Y-31531D01*
X78601Y-31530D01*
X78600Y-31530D01*
X78600Y-31530D01*
X78600Y-31530D01*
X78600Y-31530D01*
X78524Y-31530D01*
X78420Y-31425D01*
X78420Y-31215D01*
X78433Y-31215D01*
X78451Y-31211D01*
X78467Y-31204D01*
X78482Y-31195D01*
X78494Y-31182D01*
X78504Y-31168D01*
X78511Y-31151D01*
X78514Y-31134D01*
X78515Y-31116D01*
X78515Y-30666D01*
X78511Y-30648D01*
X78504Y-30632D01*
X78495Y-30617D01*
X78482Y-30605D01*
X78468Y-30595D01*
X78451Y-30588D01*
X78434Y-30585D01*
X78420Y-30584D01*
X78420Y-30356D01*
X78456Y-30364D01*
X78528Y-30365D01*
X78598Y-30353D01*
X78665Y-30327D01*
X78725Y-30289D01*
X78777Y-30239D01*
X78818Y-30181D01*
X78848Y-30115D01*
X78863Y-30045D01*
X78865Y-29964D01*
X78851Y-29893D01*
X78823Y-29827D01*
X78784Y-29768D01*
X78733Y-29717D01*
X78674Y-29677D01*
X78608Y-29649D01*
X78538Y-29635D01*
X78466Y-29634D01*
X78396Y-29648D01*
X78330Y-29674D01*
X78270Y-29714D01*
X78219Y-29764D01*
X78178Y-29823D01*
X78150Y-29889D01*
X78135Y-29959D01*
X78134Y-30030D01*
X78147Y-30101D01*
X78173Y-30167D01*
X78181Y-30180D01*
X78181Y-30187D01*
X78180Y-30198D01*
X78180Y-30199D01*
X78180Y-30199D01*
X78180Y-30199D01*
X78180Y-30200D01*
X78180Y-30584D01*
X78166Y-30584D01*
X78148Y-30588D01*
X78132Y-30595D01*
X78117Y-30604D01*
X78109Y-30613D01*
X78109Y-29609D01*
X81890Y-29609D01*
X81890Y-32405D01*
X81872Y-32379D01*
X81865Y-32371D01*
X81865Y-30266D01*
X81865Y-29733D01*
X81864Y-29715D01*
X81861Y-29698D01*
X81854Y-29681D01*
X81844Y-29667D01*
X81832Y-29654D01*
X81817Y-29645D01*
X81801Y-29638D01*
X81783Y-29634D01*
X81592Y-29635D01*
X81570Y-29657D01*
X81570Y-29930D01*
X81842Y-29930D01*
X81865Y-29907D01*
X81865Y-29733D01*
X81865Y-30266D01*
X81865Y-30092D01*
X81842Y-30070D01*
X81570Y-30070D01*
X81570Y-30342D01*
X81592Y-30365D01*
X81783Y-30365D01*
X81801Y-30361D01*
X81817Y-30354D01*
X81832Y-30345D01*
X81844Y-30332D01*
X81854Y-30318D01*
X81861Y-30301D01*
X81864Y-30284D01*
X81865Y-30266D01*
X81865Y-32371D01*
X81846Y-32352D01*
X81815Y-32332D01*
X81814Y-32331D01*
X81815Y-32316D01*
X81815Y-32066D01*
X81811Y-32048D01*
X81804Y-32032D01*
X81795Y-32017D01*
X81782Y-32005D01*
X81768Y-31995D01*
X81751Y-31988D01*
X81734Y-31985D01*
X81716Y-31984D01*
X81430Y-31984D01*
X81430Y-30342D01*
X81430Y-30070D01*
X81430Y-29930D01*
X81430Y-29657D01*
X81407Y-29635D01*
X81216Y-29634D01*
X81198Y-29638D01*
X81182Y-29645D01*
X81167Y-29654D01*
X81155Y-29667D01*
X81145Y-29681D01*
X81138Y-29698D01*
X81135Y-29715D01*
X81134Y-29733D01*
X81135Y-29907D01*
X81157Y-29930D01*
X81430Y-29930D01*
X81430Y-30070D01*
X81157Y-30070D01*
X81135Y-30092D01*
X81134Y-30266D01*
X81135Y-30284D01*
X81138Y-30301D01*
X81145Y-30318D01*
X81155Y-30332D01*
X81167Y-30345D01*
X81182Y-30354D01*
X81198Y-30361D01*
X81216Y-30365D01*
X81407Y-30365D01*
X81430Y-30342D01*
X81430Y-31984D01*
X81279Y-31984D01*
X80990Y-31695D01*
X80990Y-31316D01*
X80986Y-31298D01*
X80979Y-31282D01*
X80970Y-31267D01*
X80957Y-31255D01*
X80943Y-31245D01*
X80926Y-31238D01*
X80909Y-31235D01*
X80891Y-31234D01*
X80865Y-31234D01*
X80865Y-29964D01*
X80851Y-29893D01*
X80823Y-29827D01*
X80784Y-29768D01*
X80733Y-29717D01*
X80674Y-29677D01*
X80608Y-29649D01*
X80538Y-29635D01*
X80466Y-29634D01*
X80396Y-29648D01*
X80330Y-29674D01*
X80270Y-29714D01*
X80219Y-29764D01*
X80178Y-29823D01*
X80150Y-29889D01*
X80135Y-29959D01*
X80134Y-30030D01*
X80147Y-30101D01*
X80173Y-30167D01*
X80212Y-30227D01*
X80262Y-30279D01*
X80321Y-30320D01*
X80386Y-30348D01*
X80456Y-30364D01*
X80528Y-30365D01*
X80598Y-30353D01*
X80665Y-30327D01*
X80725Y-30289D01*
X80777Y-30239D01*
X80818Y-30181D01*
X80848Y-30115D01*
X80863Y-30045D01*
X80865Y-29964D01*
X80865Y-31234D01*
X80541Y-31234D01*
X80523Y-31238D01*
X80507Y-31245D01*
X80496Y-31252D01*
X80409Y-31165D01*
X80401Y-31158D01*
X80392Y-31150D01*
X80392Y-31150D01*
X80391Y-31150D01*
X80381Y-31145D01*
X80372Y-31139D01*
X80371Y-31139D01*
X80371Y-31139D01*
X80360Y-31135D01*
X80349Y-31132D01*
X80349Y-31132D01*
X80348Y-31132D01*
X80337Y-31131D01*
X80326Y-31130D01*
X80325Y-31130D01*
X80325Y-31130D01*
X80325Y-31130D01*
X80325Y-31130D01*
X80223Y-31130D01*
X80222Y-31129D01*
X80196Y-31102D01*
X80165Y-31082D01*
X80131Y-31067D01*
X80094Y-31060D01*
X80057Y-31059D01*
X80021Y-31066D01*
X79986Y-31080D01*
X79955Y-31101D01*
X79928Y-31127D01*
X79907Y-31158D01*
X79893Y-31192D01*
X79885Y-31228D01*
X79884Y-31265D01*
X79887Y-31280D01*
X79856Y-31267D01*
X79819Y-31260D01*
X79797Y-31259D01*
X79797Y-30998D01*
X79797Y-30997D01*
X79812Y-30988D01*
X79825Y-30975D01*
X79835Y-30961D01*
X79841Y-30944D01*
X79845Y-30927D01*
X79845Y-30920D01*
X80126Y-30920D01*
X80151Y-30945D01*
X80181Y-30966D01*
X80216Y-30981D01*
X80252Y-30989D01*
X80289Y-30990D01*
X80326Y-30983D01*
X80361Y-30970D01*
X80392Y-30950D01*
X80419Y-30924D01*
X80441Y-30894D01*
X80456Y-30860D01*
X80464Y-30823D01*
X80465Y-30781D01*
X80457Y-30744D01*
X80443Y-30710D01*
X80422Y-30679D01*
X80396Y-30652D01*
X80365Y-30632D01*
X80331Y-30617D01*
X80294Y-30610D01*
X80257Y-30609D01*
X80221Y-30616D01*
X80186Y-30630D01*
X80155Y-30651D01*
X80128Y-30677D01*
X80126Y-30680D01*
X79845Y-30680D01*
X79845Y-30673D01*
X79842Y-30655D01*
X79835Y-30639D01*
X79825Y-30624D01*
X79813Y-30612D01*
X79798Y-30602D01*
X79797Y-30601D01*
X79797Y-30212D01*
X79818Y-30181D01*
X79848Y-30115D01*
X79863Y-30045D01*
X79865Y-29964D01*
X79851Y-29893D01*
X79823Y-29827D01*
X79784Y-29768D01*
X79733Y-29717D01*
X79674Y-29677D01*
X79608Y-29649D01*
X79538Y-29635D01*
X79466Y-29634D01*
X79396Y-29648D01*
X79330Y-29674D01*
X79270Y-29714D01*
X79219Y-29764D01*
X79178Y-29823D01*
X79150Y-29889D01*
X79135Y-29959D01*
X79134Y-30030D01*
X79147Y-30101D01*
X79173Y-30167D01*
X79212Y-30227D01*
X79262Y-30279D01*
X79321Y-30320D01*
X79386Y-30348D01*
X79456Y-30364D01*
X79528Y-30365D01*
X79557Y-30360D01*
X79557Y-30601D01*
X79556Y-30602D01*
X79541Y-30611D01*
X79528Y-30624D01*
X79518Y-30638D01*
X79512Y-30655D01*
X79508Y-30672D01*
X79508Y-30690D01*
X79508Y-30926D01*
X79511Y-30944D01*
X79518Y-30960D01*
X79528Y-30975D01*
X79540Y-30987D01*
X79555Y-30997D01*
X79557Y-30998D01*
X79557Y-31223D01*
X79401Y-31379D01*
X79393Y-31360D01*
X79372Y-31329D01*
X79346Y-31302D01*
X79315Y-31282D01*
X79281Y-31267D01*
X79270Y-31265D01*
X79270Y-31150D01*
X79270Y-31022D01*
X79284Y-31008D01*
X79410Y-31008D01*
X79427Y-31004D01*
X79443Y-30997D01*
X79458Y-30988D01*
X79471Y-30975D01*
X79481Y-30961D01*
X79487Y-30944D01*
X79491Y-30927D01*
X79491Y-30909D01*
X79491Y-30673D01*
X79488Y-30655D01*
X79481Y-30639D01*
X79471Y-30624D01*
X79459Y-30612D01*
X79444Y-30602D01*
X79428Y-30595D01*
X79410Y-30592D01*
X79393Y-30591D01*
X79235Y-30591D01*
X79218Y-30595D01*
X79202Y-30602D01*
X79187Y-30611D01*
X79174Y-30624D01*
X79164Y-30638D01*
X79158Y-30655D01*
X79154Y-30672D01*
X79154Y-30690D01*
X79154Y-30798D01*
X79115Y-30838D01*
X79115Y-30666D01*
X79111Y-30648D01*
X79104Y-30632D01*
X79095Y-30617D01*
X79082Y-30605D01*
X79068Y-30595D01*
X79051Y-30588D01*
X79034Y-30585D01*
X79016Y-30584D01*
X78766Y-30584D01*
X78748Y-30588D01*
X78732Y-30595D01*
X78717Y-30604D01*
X78705Y-30617D01*
X78695Y-30631D01*
X78688Y-30648D01*
X78685Y-30665D01*
X78684Y-30683D01*
X78684Y-31133D01*
X78688Y-31151D01*
X78695Y-31167D01*
X78704Y-31182D01*
X78717Y-31194D01*
X78731Y-31204D01*
X78748Y-31211D01*
X78765Y-31214D01*
X78783Y-31215D01*
X78830Y-31215D01*
X78821Y-31216D01*
X78786Y-31230D01*
X78755Y-31251D01*
X78728Y-31277D01*
X78707Y-31308D01*
X78693Y-31342D01*
X78685Y-31378D01*
X78684Y-31415D01*
X78691Y-31452D01*
X78705Y-31487D01*
X78725Y-31518D01*
X78751Y-31545D01*
X78781Y-31566D01*
X78816Y-31581D01*
X78840Y-31586D01*
X78840Y-31587D01*
X78855Y-31597D01*
X78871Y-31604D01*
X78889Y-31607D01*
X78891Y-31607D01*
X78891Y-31710D01*
X78887Y-31715D01*
X78873Y-31741D01*
X78864Y-31769D01*
X78861Y-31798D01*
X78861Y-31800D01*
X78861Y-32019D01*
X78864Y-32048D01*
X78872Y-32076D01*
X78886Y-32102D01*
X78904Y-32125D01*
X78927Y-32143D01*
X78953Y-32157D01*
X78981Y-32166D01*
X79010Y-32169D01*
X79039Y-32166D01*
X79067Y-32158D01*
X79093Y-32144D01*
X79099Y-32139D01*
X79104Y-32143D01*
X79130Y-32157D01*
X79158Y-32166D01*
X79187Y-32169D01*
X79216Y-32166D01*
X79244Y-32158D01*
X79270Y-32144D01*
X79277Y-32139D01*
X79281Y-32143D01*
X79307Y-32157D01*
X79335Y-32166D01*
X79364Y-32169D01*
X79393Y-32166D01*
X79421Y-32158D01*
X79447Y-32144D01*
X79454Y-32139D01*
X79458Y-32143D01*
X79484Y-32157D01*
X79512Y-32166D01*
X79524Y-32167D01*
X79532Y-32174D01*
X79532Y-32174D01*
X79533Y-32174D01*
X79543Y-32179D01*
X79552Y-32185D01*
X79553Y-32185D01*
X79553Y-32185D01*
X79564Y-32189D01*
X79575Y-32192D01*
X79575Y-32192D01*
X79576Y-32192D01*
X79587Y-32193D01*
X79598Y-32194D01*
X79599Y-32194D01*
X79599Y-32194D01*
X79599Y-32194D01*
X79600Y-32195D01*
X80291Y-32195D01*
X80291Y-32210D01*
X80295Y-32227D01*
X80299Y-32238D01*
X80290Y-32232D01*
X80256Y-32217D01*
X80219Y-32210D01*
X80182Y-32209D01*
X80146Y-32216D01*
X80111Y-32230D01*
X80080Y-32251D01*
X80053Y-32277D01*
X80032Y-32308D01*
X80018Y-32342D01*
X80010Y-32378D01*
X80009Y-32415D01*
X80016Y-32452D01*
X80030Y-32487D01*
X80050Y-32518D01*
X80076Y-32545D01*
X80089Y-32554D01*
X80086Y-32555D01*
X80055Y-32576D01*
X80028Y-32602D01*
X80007Y-32633D01*
X79993Y-32667D01*
X79985Y-32703D01*
X79984Y-32740D01*
X79991Y-32777D01*
X80002Y-32805D01*
X79600Y-32805D01*
X79588Y-32806D01*
X79577Y-32807D01*
X79577Y-32807D01*
X79576Y-32807D01*
X79566Y-32810D01*
X79555Y-32813D01*
X79554Y-32813D01*
X79554Y-32814D01*
X79544Y-32819D01*
X79534Y-32824D01*
X79534Y-32824D01*
X79533Y-32825D01*
X79524Y-32832D01*
X79524Y-32832D01*
X79514Y-32833D01*
X79486Y-32841D01*
X79460Y-32855D01*
X79454Y-32860D01*
X79449Y-32856D01*
X79423Y-32842D01*
X79395Y-32833D01*
X79366Y-32830D01*
X79337Y-32833D01*
X79309Y-32841D01*
X79283Y-32855D01*
X79277Y-32860D01*
X79272Y-32856D01*
X79246Y-32842D01*
X79218Y-32833D01*
X79189Y-32830D01*
X79160Y-32833D01*
X79132Y-32841D01*
X79106Y-32855D01*
X79100Y-32860D01*
X79095Y-32856D01*
X79069Y-32842D01*
X79041Y-32833D01*
X79012Y-32830D01*
X78983Y-32833D01*
X78955Y-32841D01*
X78929Y-32855D01*
X78922Y-32860D01*
X78918Y-32856D01*
X78892Y-32842D01*
X78864Y-32833D01*
X78835Y-32830D01*
X78806Y-32833D01*
X78778Y-32841D01*
X78752Y-32855D01*
X78745Y-32860D01*
X78741Y-32856D01*
X78715Y-32842D01*
X78687Y-32833D01*
X78658Y-32830D01*
X78628Y-32833D01*
X78600Y-32841D01*
X78574Y-32855D01*
X78552Y-32873D01*
X78533Y-32895D01*
X78519Y-32921D01*
X78510Y-32949D01*
X78507Y-32978D01*
X78507Y-32980D01*
X78507Y-33067D01*
X78490Y-33057D01*
X78456Y-33042D01*
X78419Y-33035D01*
X78382Y-33034D01*
X78346Y-33041D01*
X78311Y-33055D01*
X78280Y-33076D01*
X78253Y-33102D01*
X78232Y-33133D01*
X78218Y-33167D01*
X78210Y-33203D01*
X78209Y-33240D01*
X78216Y-33277D01*
X78230Y-33312D01*
X78250Y-33343D01*
X78276Y-33370D01*
X78306Y-33391D01*
X78341Y-33406D01*
X78367Y-33412D01*
X78340Y-33440D01*
X78333Y-33448D01*
X78325Y-33457D01*
X78325Y-33457D01*
X78325Y-33458D01*
X78320Y-33468D01*
X78314Y-33477D01*
X78314Y-33478D01*
X78314Y-33478D01*
X78310Y-33489D01*
X78307Y-33500D01*
X78307Y-33500D01*
X78307Y-33501D01*
X78306Y-33512D01*
X78305Y-33523D01*
X78305Y-33524D01*
X78305Y-33524D01*
X78305Y-33524D01*
X78305Y-33525D01*
X78305Y-34634D01*
X78216Y-34634D01*
X78198Y-34638D01*
X78182Y-34645D01*
X78167Y-34654D01*
X78155Y-34667D01*
X78145Y-34681D01*
X78138Y-34698D01*
X78135Y-34715D01*
X78134Y-34733D01*
X78134Y-35283D01*
X78138Y-35301D01*
X78145Y-35317D01*
X78154Y-35332D01*
X78167Y-35344D01*
X78181Y-35354D01*
X78198Y-35361D01*
X78215Y-35364D01*
X78233Y-35365D01*
X78783Y-35365D01*
X78801Y-35361D01*
X78817Y-35354D01*
X78832Y-35345D01*
X78844Y-35332D01*
X78854Y-35318D01*
X78861Y-35301D01*
X78864Y-35284D01*
X78865Y-35266D01*
X78865Y-34716D01*
X78861Y-34698D01*
X78854Y-34682D01*
X78845Y-34667D01*
X78832Y-34655D01*
X78818Y-34645D01*
X78801Y-34638D01*
X78784Y-34635D01*
X78766Y-34634D01*
X78545Y-34634D01*
X78545Y-33574D01*
X78624Y-33495D01*
X78750Y-33495D01*
X78761Y-33493D01*
X78772Y-33492D01*
X78772Y-33492D01*
X78773Y-33492D01*
X78783Y-33489D01*
X78794Y-33486D01*
X78795Y-33486D01*
X78795Y-33485D01*
X78805Y-33480D01*
X78815Y-33475D01*
X78815Y-33475D01*
X78816Y-33475D01*
X78816Y-33477D01*
X78830Y-33512D01*
X78845Y-33536D01*
X78843Y-33538D01*
X78837Y-33555D01*
X78833Y-33572D01*
X78833Y-33590D01*
X78833Y-33826D01*
X78836Y-33844D01*
X78843Y-33860D01*
X78853Y-33875D01*
X78865Y-33887D01*
X78880Y-33897D01*
X78896Y-33904D01*
X78914Y-33907D01*
X78931Y-33908D01*
X79089Y-33908D01*
X79106Y-33904D01*
X79122Y-33897D01*
X79137Y-33888D01*
X79150Y-33875D01*
X79160Y-33861D01*
X79166Y-33844D01*
X79170Y-33827D01*
X79170Y-33809D01*
X79170Y-33573D01*
X79167Y-33555D01*
X79160Y-33539D01*
X79156Y-33533D01*
X79159Y-33528D01*
X80215Y-34584D01*
X80223Y-34591D01*
X80232Y-34599D01*
X80232Y-34599D01*
X80233Y-34599D01*
X80243Y-34604D01*
X80252Y-34610D01*
X80253Y-34610D01*
X80253Y-34610D01*
X80264Y-34614D01*
X80275Y-34617D01*
X80275Y-34617D01*
X80276Y-34617D01*
X80287Y-34618D01*
X80298Y-34619D01*
X80299Y-34619D01*
X80299Y-34619D01*
X80299Y-34619D01*
X80300Y-34620D01*
X80950Y-34620D01*
X81171Y-34840D01*
X81150Y-34889D01*
X81135Y-34959D01*
X81134Y-35030D01*
X81147Y-35101D01*
X81173Y-35167D01*
X81212Y-35227D01*
X81262Y-35279D01*
X81321Y-35320D01*
X81386Y-35348D01*
X81456Y-35364D01*
X81528Y-35365D01*
X81598Y-35353D01*
X81665Y-35327D01*
X81725Y-35289D01*
X81777Y-35239D01*
X81818Y-35181D01*
X81848Y-35115D01*
X81863Y-35045D01*
X81865Y-34964D01*
X81851Y-34893D01*
X81823Y-34827D01*
X81784Y-34768D01*
X81733Y-34717D01*
X81674Y-34677D01*
X81608Y-34649D01*
X81538Y-34635D01*
X81466Y-34634D01*
X81396Y-34648D01*
X81340Y-34670D01*
X81084Y-34415D01*
X81076Y-34408D01*
X81067Y-34400D01*
X81067Y-34400D01*
X81066Y-34400D01*
X81056Y-34395D01*
X81047Y-34389D01*
X81046Y-34389D01*
X81046Y-34389D01*
X81035Y-34385D01*
X81024Y-34382D01*
X81024Y-34382D01*
X81023Y-34382D01*
X81012Y-34381D01*
X81001Y-34380D01*
X81000Y-34380D01*
X81000Y-34380D01*
X81000Y-34380D01*
X81000Y-34380D01*
X80349Y-34380D01*
X80152Y-34183D01*
X80186Y-34170D01*
X80217Y-34150D01*
X80244Y-34124D01*
X80266Y-34094D01*
X80281Y-34060D01*
X80289Y-34023D01*
X80290Y-33981D01*
X80282Y-33944D01*
X80268Y-33910D01*
X80247Y-33879D01*
X80221Y-33852D01*
X80220Y-33851D01*
X80220Y-33750D01*
X80218Y-33738D01*
X80217Y-33727D01*
X80217Y-33727D01*
X80217Y-33726D01*
X80214Y-33716D01*
X80211Y-33705D01*
X80211Y-33704D01*
X80210Y-33704D01*
X80205Y-33694D01*
X80200Y-33684D01*
X80200Y-33684D01*
X80199Y-33683D01*
X80192Y-33674D01*
X80186Y-33666D01*
X80185Y-33665D01*
X80185Y-33665D01*
X80185Y-33665D01*
X80184Y-33665D01*
X80146Y-33626D01*
X80157Y-33624D01*
X80205Y-33605D01*
X80250Y-33577D01*
X80288Y-33541D01*
X80318Y-33498D01*
X80339Y-33450D01*
X80351Y-33399D01*
X80352Y-33340D01*
X80355Y-33341D01*
X80372Y-33345D01*
X80390Y-33345D01*
X80626Y-33345D01*
X80644Y-33342D01*
X80660Y-33335D01*
X80675Y-33325D01*
X80687Y-33313D01*
X80697Y-33298D01*
X80704Y-33282D01*
X80707Y-33264D01*
X80708Y-33247D01*
X80708Y-33089D01*
X80704Y-33072D01*
X80697Y-33056D01*
X80688Y-33041D01*
X80675Y-33028D01*
X80661Y-33018D01*
X80644Y-33012D01*
X80627Y-33008D01*
X80609Y-33008D01*
X80428Y-33008D01*
X80411Y-32991D01*
X80626Y-32991D01*
X80644Y-32988D01*
X80660Y-32981D01*
X80675Y-32971D01*
X80687Y-32959D01*
X80697Y-32944D01*
X80698Y-32943D01*
X80701Y-32943D01*
X80702Y-32943D01*
X80711Y-32958D01*
X80724Y-32971D01*
X80738Y-32981D01*
X80755Y-32987D01*
X80772Y-32991D01*
X80790Y-32991D01*
X81026Y-32991D01*
X81044Y-32988D01*
X81060Y-32981D01*
X81075Y-32971D01*
X81087Y-32959D01*
X81097Y-32944D01*
X81104Y-32928D01*
X81107Y-32910D01*
X81108Y-32893D01*
X81108Y-32735D01*
X81104Y-32718D01*
X81097Y-32702D01*
X81088Y-32687D01*
X81075Y-32674D01*
X81061Y-32664D01*
X81044Y-32658D01*
X81027Y-32654D01*
X81009Y-32654D01*
X80773Y-32654D01*
X80755Y-32657D01*
X80739Y-32664D01*
X80724Y-32674D01*
X80712Y-32686D01*
X80702Y-32701D01*
X80701Y-32703D01*
X80698Y-32703D01*
X80697Y-32702D01*
X80688Y-32687D01*
X80675Y-32674D01*
X80661Y-32664D01*
X80644Y-32658D01*
X80627Y-32654D01*
X80609Y-32654D01*
X80373Y-32654D01*
X80355Y-32657D01*
X80353Y-32658D01*
X80344Y-32637D01*
X80355Y-32641D01*
X80372Y-32645D01*
X80390Y-32645D01*
X80626Y-32645D01*
X80644Y-32642D01*
X80660Y-32635D01*
X80675Y-32625D01*
X80687Y-32613D01*
X80697Y-32598D01*
X80698Y-32597D01*
X80701Y-32597D01*
X80702Y-32597D01*
X80711Y-32612D01*
X80724Y-32625D01*
X80738Y-32635D01*
X80755Y-32641D01*
X80772Y-32645D01*
X80790Y-32645D01*
X81026Y-32645D01*
X81044Y-32642D01*
X81060Y-32635D01*
X81075Y-32625D01*
X81087Y-32613D01*
X81097Y-32598D01*
X81104Y-32582D01*
X81107Y-32564D01*
X81108Y-32547D01*
X81108Y-32389D01*
X81104Y-32372D01*
X81097Y-32356D01*
X81088Y-32341D01*
X81075Y-32328D01*
X81061Y-32318D01*
X81044Y-32312D01*
X81027Y-32308D01*
X81009Y-32308D01*
X80773Y-32308D01*
X80755Y-32311D01*
X80739Y-32318D01*
X80724Y-32328D01*
X80712Y-32340D01*
X80702Y-32355D01*
X80701Y-32357D01*
X80698Y-32357D01*
X80697Y-32356D01*
X80688Y-32341D01*
X80675Y-32328D01*
X80661Y-32318D01*
X80644Y-32312D01*
X80627Y-32308D01*
X80609Y-32308D01*
X80373Y-32308D01*
X80368Y-32309D01*
X80353Y-32286D01*
X80355Y-32287D01*
X80372Y-32291D01*
X80390Y-32291D01*
X80626Y-32291D01*
X80644Y-32288D01*
X80660Y-32281D01*
X80675Y-32271D01*
X80687Y-32259D01*
X80697Y-32244D01*
X80704Y-32228D01*
X80707Y-32210D01*
X80708Y-32193D01*
X80708Y-32035D01*
X80704Y-32018D01*
X80697Y-32002D01*
X80688Y-31987D01*
X80675Y-31974D01*
X80661Y-31965D01*
X80908Y-31965D01*
X80918Y-31963D01*
X81184Y-32229D01*
X81184Y-32333D01*
X81188Y-32351D01*
X81195Y-32367D01*
X81204Y-32382D01*
X81217Y-32394D01*
X81231Y-32404D01*
X81248Y-32411D01*
X81265Y-32414D01*
X81283Y-32415D01*
X81554Y-32415D01*
X81543Y-32442D01*
X81535Y-32478D01*
X81534Y-32515D01*
X81535Y-32519D01*
X81470Y-32584D01*
X81266Y-32584D01*
X81248Y-32588D01*
X81232Y-32595D01*
X81217Y-32604D01*
X81205Y-32617D01*
X81195Y-32631D01*
X81188Y-32648D01*
X81185Y-32665D01*
X81184Y-32683D01*
X81184Y-32933D01*
X81188Y-32951D01*
X81195Y-32967D01*
X81204Y-32982D01*
X81217Y-32994D01*
X81231Y-33004D01*
X81248Y-33011D01*
X81265Y-33014D01*
X81283Y-33015D01*
X81538Y-33015D01*
X81528Y-33024D01*
X81518Y-33038D01*
X81512Y-33055D01*
X81508Y-33072D01*
X81508Y-33090D01*
X81508Y-33326D01*
X81511Y-33344D01*
X81518Y-33360D01*
X81528Y-33375D01*
X81540Y-33387D01*
X81555Y-33397D01*
X81561Y-33399D01*
X81556Y-33402D01*
X81541Y-33411D01*
X81528Y-33424D01*
X81518Y-33438D01*
X81512Y-33455D01*
X81508Y-33472D01*
X81508Y-33490D01*
X81508Y-33726D01*
X81511Y-33744D01*
X81518Y-33760D01*
X81528Y-33775D01*
X81540Y-33787D01*
X81555Y-33797D01*
X81557Y-33798D01*
X81557Y-33801D01*
X81556Y-33802D01*
X81541Y-33811D01*
X81528Y-33824D01*
X81518Y-33838D01*
X81512Y-33855D01*
X81508Y-33872D01*
X81508Y-33890D01*
X81508Y-34126D01*
X81511Y-34144D01*
X81518Y-34160D01*
X81528Y-34175D01*
X81540Y-34187D01*
X81555Y-34197D01*
X81571Y-34204D01*
X81589Y-34207D01*
X81598Y-34208D01*
X81578Y-34227D01*
X81557Y-34258D01*
X81543Y-34292D01*
X81535Y-34328D01*
X81534Y-34365D01*
X81541Y-34402D01*
X81555Y-34437D01*
X81575Y-34468D01*
X81601Y-34495D01*
X81631Y-34516D01*
X81666Y-34531D01*
X81702Y-34539D01*
X81739Y-34540D01*
X81776Y-34533D01*
X81811Y-34520D01*
X81842Y-34500D01*
X81869Y-34474D01*
X81890Y-34445D01*
X81890Y-35390D01*
M02*
