M48
;DRILL file {Pcbnew (2013-june-11)-stable} date Sun 16 Feb 2014 08:29:22 PM PST
;FORMAT={-:-/ absolute / inch / decimal}
FMAT,2
INCH,TZ
T1C0.013
T2C0.015
T3C0.020
T4C0.032
T5C0.035
%
G90
G05
M72
T1
X7.7325Y-3.315
X7.8325Y-3.09
X7.845Y-3.195
X7.845Y-3.2225
X7.92Y-3.45
T2
X7.6225Y-3.3275
X7.65Y-2.9525
X7.69Y-3.08
X7.9125Y-3.3425
T3
X7.5175Y-3.3075
X7.64Y-3.1925
X7.8325Y-3.37
X7.9125Y-2.9675
T4
X7.5Y-2.9
X7.5Y-3.5
X7.6Y-2.9
X7.6Y-3.5
X7.7Y-2.9
X7.7Y-3.5
X7.8Y-2.9
X7.8Y-3.5
X7.9Y-2.9
X7.9Y-3.5
T5
X7.6585Y-3.1134
X7.6585Y-3.2866
T0
M30
