G04 (created by PCBNEW (2013-june-11)-stable) date Sun 16 Feb 2014 08:29:20 PM PST*
%MOIN*%
G04 Gerber Fmt 3.4, Leading zero omitted, Abs format*
%FSLAX34Y34*%
G01*
G70*
G90*
G04 APERTURE LIST*
%ADD10C,0.00590551*%
%ADD11C,0.023*%
%ADD12R,0.0906X0.0197*%
%ADD13R,0.0984X0.0787*%
%ADD14C,0.0354*%
%ADD15R,0.055X0.055*%
%ADD16C,0.055*%
%ADD17C,0.02*%
%ADD18C,0.03*%
%ADD19C,0.00787402*%
%ADD20C,0.019685*%
%ADD21C,0.006*%
G04 APERTURE END LIST*
G54D10*
G54D11*
X76225Y-33275D03*
X79125Y-33425D03*
X76900Y-30800D03*
G54D12*
X77608Y-32630D03*
X77608Y-32315D03*
X77608Y-32000D03*
X77608Y-31685D03*
X77608Y-31370D03*
G54D13*
X77569Y-33752D03*
X75404Y-33752D03*
X77569Y-30248D03*
X75404Y-30248D03*
G54D14*
X76585Y-32866D03*
X76585Y-31134D03*
G54D15*
X75000Y-29000D03*
G54D16*
X76000Y-29000D03*
X77000Y-29000D03*
X78000Y-29000D03*
X79000Y-29000D03*
G54D15*
X75000Y-35000D03*
G54D16*
X76000Y-35000D03*
X77000Y-35000D03*
X78000Y-35000D03*
X79000Y-35000D03*
G54D11*
X76500Y-29525D03*
G54D17*
X79200Y-34500D03*
G54D18*
X76400Y-31925D03*
X75175Y-33075D03*
G54D17*
X78450Y-31950D03*
X78450Y-32225D03*
X78325Y-30900D03*
X77325Y-33150D03*
G54D18*
X79125Y-29675D03*
X78325Y-33700D03*
G54D19*
X77450Y-34550D02*
X77000Y-35000D01*
X79150Y-34550D02*
X77450Y-34550D01*
X79200Y-34500D02*
X79150Y-34550D01*
G54D20*
X77608Y-32630D02*
X77105Y-32630D01*
X77105Y-32630D02*
X76400Y-31925D01*
X75404Y-33529D02*
X75404Y-33752D01*
X75175Y-33300D02*
X75404Y-33529D01*
X75175Y-33075D02*
X75175Y-33300D01*
G54D19*
X78400Y-32000D02*
X77608Y-32000D01*
X78450Y-31950D02*
X78400Y-32000D01*
X78360Y-32315D02*
X77608Y-32315D01*
X78450Y-32225D02*
X78360Y-32315D01*
X78850Y-29150D02*
X79000Y-29000D01*
X78850Y-30375D02*
X78850Y-29150D01*
X78325Y-30900D02*
X78850Y-30375D01*
X76100Y-34900D02*
X76000Y-35000D01*
X76100Y-34050D02*
X76100Y-34900D01*
X77000Y-33150D02*
X76100Y-34050D01*
X77325Y-33150D02*
X77000Y-33150D01*
G54D20*
X79125Y-32900D02*
X79125Y-29675D01*
X78325Y-33700D02*
X79125Y-32900D01*
G54D10*
G36*
X79390Y-35390D02*
X79390Y-35390D01*
X79390Y-34481D01*
X79385Y-34456D01*
X79385Y-29649D01*
X79375Y-29599D01*
X79355Y-29552D01*
X79327Y-29509D01*
X79291Y-29473D01*
X79249Y-29445D01*
X79202Y-29425D01*
X79152Y-29415D01*
X79101Y-29414D01*
X79051Y-29424D01*
X79003Y-29443D01*
X78979Y-29459D01*
X78979Y-29364D01*
X79028Y-29365D01*
X79098Y-29353D01*
X79165Y-29327D01*
X79225Y-29289D01*
X79277Y-29239D01*
X79318Y-29181D01*
X79348Y-29115D01*
X79363Y-29045D01*
X79365Y-28964D01*
X79351Y-28893D01*
X79323Y-28827D01*
X79284Y-28768D01*
X79233Y-28717D01*
X79174Y-28677D01*
X79108Y-28649D01*
X79038Y-28635D01*
X78966Y-28634D01*
X78896Y-28648D01*
X78830Y-28674D01*
X78770Y-28714D01*
X78719Y-28764D01*
X78678Y-28823D01*
X78650Y-28889D01*
X78635Y-28959D01*
X78634Y-29030D01*
X78647Y-29101D01*
X78673Y-29167D01*
X78712Y-29227D01*
X78720Y-29236D01*
X78720Y-30321D01*
X78385Y-30657D01*
X78385Y-28962D01*
X78370Y-28888D01*
X78341Y-28818D01*
X78299Y-28755D01*
X78246Y-28701D01*
X78184Y-28659D01*
X78114Y-28630D01*
X78040Y-28615D01*
X77964Y-28614D01*
X77890Y-28628D01*
X77820Y-28657D01*
X77757Y-28698D01*
X77703Y-28751D01*
X77660Y-28813D01*
X77631Y-28883D01*
X77615Y-28956D01*
X77614Y-29032D01*
X77628Y-29106D01*
X77655Y-29176D01*
X77696Y-29240D01*
X77749Y-29294D01*
X77811Y-29337D01*
X77880Y-29367D01*
X77954Y-29384D01*
X78029Y-29385D01*
X78104Y-29372D01*
X78174Y-29345D01*
X78238Y-29304D01*
X78292Y-29252D01*
X78336Y-29191D01*
X78367Y-29122D01*
X78383Y-29048D01*
X78385Y-28962D01*
X78385Y-30657D01*
X78332Y-30710D01*
X78307Y-30709D01*
X78271Y-30716D01*
X78236Y-30730D01*
X78205Y-30751D01*
X78178Y-30777D01*
X78157Y-30808D01*
X78151Y-30823D01*
X78151Y-30633D01*
X78151Y-29845D01*
X78147Y-29828D01*
X78140Y-29812D01*
X78131Y-29797D01*
X78118Y-29784D01*
X78104Y-29774D01*
X78087Y-29768D01*
X78070Y-29764D01*
X78052Y-29764D01*
X77385Y-29764D01*
X77385Y-28962D01*
X77370Y-28888D01*
X77341Y-28818D01*
X77299Y-28755D01*
X77246Y-28701D01*
X77184Y-28659D01*
X77114Y-28630D01*
X77040Y-28615D01*
X76964Y-28614D01*
X76890Y-28628D01*
X76820Y-28657D01*
X76757Y-28698D01*
X76703Y-28751D01*
X76660Y-28813D01*
X76631Y-28883D01*
X76615Y-28956D01*
X76614Y-29032D01*
X76628Y-29106D01*
X76655Y-29176D01*
X76696Y-29240D01*
X76749Y-29294D01*
X76811Y-29337D01*
X76880Y-29367D01*
X76954Y-29384D01*
X77029Y-29385D01*
X77104Y-29372D01*
X77174Y-29345D01*
X77238Y-29304D01*
X77292Y-29252D01*
X77336Y-29191D01*
X77367Y-29122D01*
X77383Y-29048D01*
X77385Y-28962D01*
X77385Y-29764D01*
X77068Y-29764D01*
X77050Y-29767D01*
X77034Y-29774D01*
X77019Y-29784D01*
X77007Y-29796D01*
X76997Y-29811D01*
X76990Y-29827D01*
X76987Y-29845D01*
X76986Y-29862D01*
X76986Y-30650D01*
X76990Y-30667D01*
X76997Y-30683D01*
X77006Y-30698D01*
X77019Y-30711D01*
X77033Y-30721D01*
X77050Y-30727D01*
X77067Y-30731D01*
X77085Y-30731D01*
X78069Y-30731D01*
X78087Y-30728D01*
X78103Y-30721D01*
X78118Y-30711D01*
X78130Y-30699D01*
X78140Y-30684D01*
X78147Y-30668D01*
X78150Y-30650D01*
X78151Y-30633D01*
X78151Y-30823D01*
X78143Y-30842D01*
X78135Y-30878D01*
X78134Y-30915D01*
X78141Y-30952D01*
X78155Y-30987D01*
X78175Y-31018D01*
X78201Y-31045D01*
X78231Y-31066D01*
X78266Y-31081D01*
X78302Y-31089D01*
X78339Y-31090D01*
X78376Y-31083D01*
X78411Y-31070D01*
X78442Y-31050D01*
X78469Y-31024D01*
X78491Y-30994D01*
X78506Y-30960D01*
X78514Y-30923D01*
X78514Y-30893D01*
X78916Y-30491D01*
X78916Y-32813D01*
X78640Y-33090D01*
X78640Y-32206D01*
X78632Y-32169D01*
X78618Y-32135D01*
X78597Y-32104D01*
X78581Y-32087D01*
X78594Y-32074D01*
X78616Y-32044D01*
X78631Y-32010D01*
X78639Y-31973D01*
X78640Y-31931D01*
X78632Y-31894D01*
X78618Y-31860D01*
X78597Y-31829D01*
X78571Y-31802D01*
X78540Y-31782D01*
X78506Y-31767D01*
X78469Y-31760D01*
X78432Y-31759D01*
X78396Y-31766D01*
X78361Y-31780D01*
X78330Y-31801D01*
X78303Y-31827D01*
X78282Y-31858D01*
X78277Y-31870D01*
X78145Y-31870D01*
X78140Y-31859D01*
X78131Y-31844D01*
X78129Y-31842D01*
X78130Y-31841D01*
X78140Y-31826D01*
X78147Y-31810D01*
X78150Y-31792D01*
X78151Y-31775D01*
X78151Y-31577D01*
X78147Y-31560D01*
X78140Y-31544D01*
X78131Y-31529D01*
X78118Y-31516D01*
X78104Y-31506D01*
X78087Y-31500D01*
X78070Y-31496D01*
X78052Y-31496D01*
X77146Y-31496D01*
X77128Y-31499D01*
X77112Y-31506D01*
X77097Y-31516D01*
X77085Y-31528D01*
X77075Y-31543D01*
X77068Y-31559D01*
X77065Y-31577D01*
X77064Y-31594D01*
X77064Y-31792D01*
X77068Y-31809D01*
X77075Y-31825D01*
X77084Y-31840D01*
X77086Y-31842D01*
X77085Y-31843D01*
X77075Y-31858D01*
X77068Y-31874D01*
X77065Y-31892D01*
X77064Y-31909D01*
X77064Y-32107D01*
X77068Y-32124D01*
X77075Y-32140D01*
X77084Y-32155D01*
X77086Y-32157D01*
X77085Y-32158D01*
X77075Y-32173D01*
X77068Y-32189D01*
X77065Y-32207D01*
X77064Y-32224D01*
X77064Y-32295D01*
X76852Y-32082D01*
X76852Y-31107D01*
X76841Y-31056D01*
X76821Y-31008D01*
X76792Y-30964D01*
X76756Y-30927D01*
X76712Y-30897D01*
X76664Y-30877D01*
X76613Y-30867D01*
X76560Y-30866D01*
X76509Y-30876D01*
X76460Y-30896D01*
X76416Y-30924D01*
X76385Y-30956D01*
X76385Y-28962D01*
X76370Y-28888D01*
X76341Y-28818D01*
X76299Y-28755D01*
X76246Y-28701D01*
X76184Y-28659D01*
X76114Y-28630D01*
X76040Y-28615D01*
X75964Y-28614D01*
X75890Y-28628D01*
X75820Y-28657D01*
X75757Y-28698D01*
X75703Y-28751D01*
X75660Y-28813D01*
X75631Y-28883D01*
X75615Y-28956D01*
X75614Y-29032D01*
X75628Y-29106D01*
X75655Y-29176D01*
X75696Y-29240D01*
X75749Y-29294D01*
X75811Y-29337D01*
X75880Y-29367D01*
X75954Y-29384D01*
X76029Y-29385D01*
X76104Y-29372D01*
X76174Y-29345D01*
X76238Y-29304D01*
X76292Y-29252D01*
X76336Y-29191D01*
X76367Y-29122D01*
X76383Y-29048D01*
X76385Y-28962D01*
X76385Y-30956D01*
X76379Y-30961D01*
X76349Y-31004D01*
X76329Y-31052D01*
X76318Y-31104D01*
X76317Y-31156D01*
X76327Y-31207D01*
X76346Y-31256D01*
X76374Y-31300D01*
X76411Y-31338D01*
X76454Y-31368D01*
X76502Y-31389D01*
X76553Y-31400D01*
X76605Y-31401D01*
X76657Y-31392D01*
X76705Y-31373D01*
X76750Y-31345D01*
X76788Y-31309D01*
X76818Y-31266D01*
X76839Y-31218D01*
X76851Y-31167D01*
X76852Y-31107D01*
X76852Y-32082D01*
X76657Y-31887D01*
X76650Y-31849D01*
X76630Y-31802D01*
X76602Y-31759D01*
X76566Y-31723D01*
X76524Y-31695D01*
X76477Y-31675D01*
X76427Y-31665D01*
X76376Y-31664D01*
X76326Y-31674D01*
X76278Y-31693D01*
X76236Y-31721D01*
X76199Y-31757D01*
X76171Y-31799D01*
X76150Y-31846D01*
X76140Y-31895D01*
X76139Y-31946D01*
X76148Y-31997D01*
X76167Y-32044D01*
X76195Y-32087D01*
X76230Y-32123D01*
X76272Y-32153D01*
X76319Y-32173D01*
X76363Y-32183D01*
X76957Y-32777D01*
X76972Y-32789D01*
X76987Y-32801D01*
X76988Y-32802D01*
X76989Y-32803D01*
X77006Y-32812D01*
X77022Y-32821D01*
X77023Y-32821D01*
X77024Y-32822D01*
X77043Y-32828D01*
X77061Y-32833D01*
X77062Y-32833D01*
X77063Y-32834D01*
X77082Y-32836D01*
X77102Y-32838D01*
X77104Y-32838D01*
X77104Y-32838D01*
X77104Y-32838D01*
X77105Y-32838D01*
X77143Y-32838D01*
X77143Y-32838D01*
X77165Y-32838D01*
X78071Y-32838D01*
X78092Y-32834D01*
X78112Y-32826D01*
X78130Y-32814D01*
X78146Y-32798D01*
X78158Y-32781D01*
X78166Y-32761D01*
X78170Y-32740D01*
X78171Y-32718D01*
X78171Y-32520D01*
X78166Y-32499D01*
X78158Y-32479D01*
X78146Y-32461D01*
X78140Y-32455D01*
X78145Y-32444D01*
X78360Y-32444D01*
X78371Y-32443D01*
X78383Y-32442D01*
X78384Y-32441D01*
X78385Y-32441D01*
X78396Y-32438D01*
X78408Y-32435D01*
X78408Y-32434D01*
X78409Y-32434D01*
X78419Y-32428D01*
X78430Y-32423D01*
X78430Y-32423D01*
X78431Y-32422D01*
X78440Y-32415D01*
X78441Y-32414D01*
X78464Y-32415D01*
X78501Y-32408D01*
X78536Y-32395D01*
X78567Y-32375D01*
X78594Y-32349D01*
X78616Y-32319D01*
X78631Y-32285D01*
X78639Y-32248D01*
X78640Y-32206D01*
X78640Y-33090D01*
X78287Y-33442D01*
X78251Y-33449D01*
X78203Y-33468D01*
X78161Y-33496D01*
X78151Y-33506D01*
X78151Y-33349D01*
X78147Y-33332D01*
X78140Y-33316D01*
X78131Y-33301D01*
X78118Y-33288D01*
X78104Y-33278D01*
X78087Y-33272D01*
X78070Y-33268D01*
X78052Y-33268D01*
X77473Y-33268D01*
X77491Y-33244D01*
X77506Y-33210D01*
X77514Y-33173D01*
X77515Y-33131D01*
X77507Y-33094D01*
X77493Y-33060D01*
X77472Y-33029D01*
X77446Y-33002D01*
X77415Y-32982D01*
X77381Y-32967D01*
X77344Y-32960D01*
X77307Y-32959D01*
X77271Y-32966D01*
X77236Y-32980D01*
X77205Y-33001D01*
X77185Y-33020D01*
X77000Y-33020D01*
X76988Y-33021D01*
X76976Y-33022D01*
X76975Y-33023D01*
X76974Y-33023D01*
X76963Y-33026D01*
X76951Y-33029D01*
X76951Y-33030D01*
X76950Y-33030D01*
X76940Y-33036D01*
X76929Y-33041D01*
X76929Y-33041D01*
X76928Y-33042D01*
X76919Y-33049D01*
X76909Y-33057D01*
X76908Y-33058D01*
X76908Y-33058D01*
X76908Y-33058D01*
X76908Y-33058D01*
X76852Y-33115D01*
X76852Y-32839D01*
X76841Y-32788D01*
X76821Y-32740D01*
X76792Y-32696D01*
X76756Y-32659D01*
X76712Y-32629D01*
X76664Y-32609D01*
X76613Y-32599D01*
X76560Y-32598D01*
X76509Y-32608D01*
X76460Y-32628D01*
X76416Y-32656D01*
X76379Y-32693D01*
X76349Y-32736D01*
X76329Y-32784D01*
X76318Y-32836D01*
X76317Y-32888D01*
X76327Y-32939D01*
X76346Y-32988D01*
X76374Y-33032D01*
X76411Y-33070D01*
X76454Y-33100D01*
X76502Y-33121D01*
X76553Y-33132D01*
X76605Y-33133D01*
X76657Y-33124D01*
X76705Y-33105D01*
X76750Y-33077D01*
X76788Y-33041D01*
X76818Y-32998D01*
X76839Y-32950D01*
X76851Y-32899D01*
X76852Y-32839D01*
X76852Y-33115D01*
X76008Y-33958D01*
X76006Y-33961D01*
X76006Y-33347D01*
X76001Y-33326D01*
X75993Y-33306D01*
X75986Y-33295D01*
X75986Y-30633D01*
X75986Y-29845D01*
X75982Y-29828D01*
X75975Y-29812D01*
X75966Y-29797D01*
X75953Y-29784D01*
X75939Y-29774D01*
X75922Y-29768D01*
X75905Y-29764D01*
X75887Y-29764D01*
X74903Y-29764D01*
X74885Y-29767D01*
X74869Y-29774D01*
X74854Y-29784D01*
X74842Y-29796D01*
X74832Y-29811D01*
X74825Y-29827D01*
X74822Y-29845D01*
X74821Y-29862D01*
X74821Y-30650D01*
X74825Y-30667D01*
X74832Y-30683D01*
X74841Y-30698D01*
X74854Y-30711D01*
X74868Y-30721D01*
X74885Y-30727D01*
X74902Y-30731D01*
X74920Y-30731D01*
X75904Y-30731D01*
X75922Y-30728D01*
X75938Y-30721D01*
X75953Y-30711D01*
X75965Y-30699D01*
X75975Y-30684D01*
X75982Y-30668D01*
X75985Y-30650D01*
X75986Y-30633D01*
X75986Y-33295D01*
X75981Y-33288D01*
X75966Y-33273D01*
X75948Y-33261D01*
X75928Y-33252D01*
X75907Y-33248D01*
X75885Y-33248D01*
X75418Y-33248D01*
X75390Y-33220D01*
X75402Y-33204D01*
X75422Y-33157D01*
X75434Y-33107D01*
X75435Y-33049D01*
X75425Y-32999D01*
X75405Y-32952D01*
X75377Y-32909D01*
X75341Y-32873D01*
X75299Y-32845D01*
X75252Y-32825D01*
X75202Y-32815D01*
X75151Y-32814D01*
X75101Y-32824D01*
X75053Y-32843D01*
X75011Y-32871D01*
X74974Y-32907D01*
X74946Y-32949D01*
X74925Y-32996D01*
X74915Y-33045D01*
X74914Y-33096D01*
X74923Y-33147D01*
X74942Y-33194D01*
X74966Y-33231D01*
X74966Y-33248D01*
X74901Y-33248D01*
X74880Y-33252D01*
X74860Y-33260D01*
X74842Y-33272D01*
X74826Y-33288D01*
X74814Y-33305D01*
X74806Y-33325D01*
X74802Y-33346D01*
X74801Y-33368D01*
X74801Y-34156D01*
X74806Y-34177D01*
X74814Y-34197D01*
X74826Y-34215D01*
X74841Y-34230D01*
X74859Y-34242D01*
X74879Y-34251D01*
X74900Y-34255D01*
X74922Y-34255D01*
X75906Y-34255D01*
X75927Y-34251D01*
X75947Y-34243D01*
X75965Y-34231D01*
X75970Y-34226D01*
X75970Y-34634D01*
X75966Y-34634D01*
X75896Y-34648D01*
X75830Y-34674D01*
X75770Y-34714D01*
X75719Y-34764D01*
X75678Y-34823D01*
X75650Y-34889D01*
X75635Y-34959D01*
X75634Y-35030D01*
X75647Y-35101D01*
X75673Y-35167D01*
X75712Y-35227D01*
X75762Y-35279D01*
X75821Y-35320D01*
X75886Y-35348D01*
X75956Y-35364D01*
X76028Y-35365D01*
X76098Y-35353D01*
X76165Y-35327D01*
X76225Y-35289D01*
X76277Y-35239D01*
X76318Y-35181D01*
X76348Y-35115D01*
X76363Y-35045D01*
X76365Y-34964D01*
X76351Y-34893D01*
X76323Y-34827D01*
X76284Y-34768D01*
X76233Y-34717D01*
X76229Y-34714D01*
X76229Y-34103D01*
X76987Y-33345D01*
X76987Y-33349D01*
X76986Y-33366D01*
X76986Y-34154D01*
X76990Y-34171D01*
X76997Y-34187D01*
X77006Y-34202D01*
X77019Y-34215D01*
X77033Y-34225D01*
X77050Y-34231D01*
X77067Y-34235D01*
X77085Y-34235D01*
X78069Y-34235D01*
X78087Y-34232D01*
X78103Y-34225D01*
X78118Y-34215D01*
X78130Y-34203D01*
X78140Y-34188D01*
X78147Y-34172D01*
X78150Y-34154D01*
X78151Y-34137D01*
X78151Y-33894D01*
X78155Y-33898D01*
X78197Y-33928D01*
X78244Y-33948D01*
X78294Y-33959D01*
X78345Y-33960D01*
X78395Y-33951D01*
X78442Y-33933D01*
X78485Y-33905D01*
X78522Y-33870D01*
X78552Y-33829D01*
X78572Y-33782D01*
X78583Y-33736D01*
X79272Y-33047D01*
X79284Y-33032D01*
X79296Y-33017D01*
X79297Y-33016D01*
X79298Y-33015D01*
X79307Y-32998D01*
X79316Y-32982D01*
X79316Y-32981D01*
X79317Y-32980D01*
X79323Y-32961D01*
X79328Y-32943D01*
X79328Y-32942D01*
X79329Y-32941D01*
X79331Y-32922D01*
X79333Y-32902D01*
X79333Y-32900D01*
X79333Y-32900D01*
X79333Y-32900D01*
X79333Y-32900D01*
X79333Y-29830D01*
X79352Y-29804D01*
X79372Y-29757D01*
X79384Y-29707D01*
X79385Y-29649D01*
X79385Y-34456D01*
X79382Y-34444D01*
X79368Y-34410D01*
X79347Y-34379D01*
X79321Y-34352D01*
X79290Y-34332D01*
X79256Y-34317D01*
X79219Y-34310D01*
X79182Y-34309D01*
X79146Y-34316D01*
X79111Y-34330D01*
X79080Y-34351D01*
X79053Y-34377D01*
X79032Y-34408D01*
X79027Y-34420D01*
X77450Y-34420D01*
X77438Y-34421D01*
X77426Y-34422D01*
X77425Y-34423D01*
X77424Y-34423D01*
X77413Y-34426D01*
X77401Y-34429D01*
X77401Y-34430D01*
X77400Y-34430D01*
X77390Y-34436D01*
X77379Y-34441D01*
X77379Y-34441D01*
X77378Y-34442D01*
X77369Y-34449D01*
X77359Y-34457D01*
X77358Y-34458D01*
X77358Y-34458D01*
X77358Y-34458D01*
X77358Y-34458D01*
X77149Y-34667D01*
X77108Y-34649D01*
X77038Y-34635D01*
X76966Y-34634D01*
X76896Y-34648D01*
X76830Y-34674D01*
X76770Y-34714D01*
X76719Y-34764D01*
X76678Y-34823D01*
X76650Y-34889D01*
X76635Y-34959D01*
X76634Y-35030D01*
X76647Y-35101D01*
X76673Y-35167D01*
X76712Y-35227D01*
X76762Y-35279D01*
X76821Y-35320D01*
X76886Y-35348D01*
X76956Y-35364D01*
X77028Y-35365D01*
X77098Y-35353D01*
X77165Y-35327D01*
X77225Y-35289D01*
X77277Y-35239D01*
X77318Y-35181D01*
X77348Y-35115D01*
X77363Y-35045D01*
X77365Y-34964D01*
X77351Y-34893D01*
X77332Y-34849D01*
X77503Y-34679D01*
X77823Y-34679D01*
X77770Y-34714D01*
X77719Y-34764D01*
X77678Y-34823D01*
X77650Y-34889D01*
X77635Y-34959D01*
X77634Y-35030D01*
X77647Y-35101D01*
X77673Y-35167D01*
X77712Y-35227D01*
X77762Y-35279D01*
X77821Y-35320D01*
X77886Y-35348D01*
X77956Y-35364D01*
X78028Y-35365D01*
X78098Y-35353D01*
X78165Y-35327D01*
X78225Y-35289D01*
X78277Y-35239D01*
X78318Y-35181D01*
X78348Y-35115D01*
X78363Y-35045D01*
X78365Y-34964D01*
X78351Y-34893D01*
X78323Y-34827D01*
X78284Y-34768D01*
X78233Y-34717D01*
X78177Y-34679D01*
X78823Y-34679D01*
X78770Y-34714D01*
X78719Y-34764D01*
X78678Y-34823D01*
X78650Y-34889D01*
X78635Y-34959D01*
X78634Y-35030D01*
X78647Y-35101D01*
X78673Y-35167D01*
X78712Y-35227D01*
X78762Y-35279D01*
X78821Y-35320D01*
X78886Y-35348D01*
X78956Y-35364D01*
X79028Y-35365D01*
X79098Y-35353D01*
X79165Y-35327D01*
X79225Y-35289D01*
X79277Y-35239D01*
X79318Y-35181D01*
X79348Y-35115D01*
X79363Y-35045D01*
X79365Y-34964D01*
X79351Y-34893D01*
X79323Y-34827D01*
X79284Y-34768D01*
X79233Y-34717D01*
X79193Y-34689D01*
X79214Y-34690D01*
X79251Y-34683D01*
X79286Y-34670D01*
X79317Y-34650D01*
X79344Y-34624D01*
X79366Y-34594D01*
X79381Y-34560D01*
X79389Y-34523D01*
X79390Y-34481D01*
X79390Y-35390D01*
X75365Y-35390D01*
X75365Y-35266D01*
X75365Y-34716D01*
X75361Y-34698D01*
X75354Y-34682D01*
X75345Y-34667D01*
X75332Y-34655D01*
X75318Y-34645D01*
X75301Y-34638D01*
X75284Y-34635D01*
X75266Y-34634D01*
X74716Y-34634D01*
X74698Y-34638D01*
X74682Y-34645D01*
X74667Y-34654D01*
X74655Y-34667D01*
X74645Y-34681D01*
X74638Y-34698D01*
X74635Y-34715D01*
X74634Y-34733D01*
X74634Y-35283D01*
X74638Y-35301D01*
X74645Y-35317D01*
X74654Y-35332D01*
X74667Y-35344D01*
X74681Y-35354D01*
X74698Y-35361D01*
X74715Y-35364D01*
X74733Y-35365D01*
X75283Y-35365D01*
X75301Y-35361D01*
X75317Y-35354D01*
X75332Y-35345D01*
X75344Y-35332D01*
X75354Y-35318D01*
X75361Y-35301D01*
X75364Y-35284D01*
X75365Y-35266D01*
X75365Y-35390D01*
X74609Y-35390D01*
X74609Y-28609D01*
X79390Y-28609D01*
X79390Y-35390D01*
X79390Y-35390D01*
G37*
G54D21*
X79390Y-35390D02*
X79390Y-35390D01*
X79390Y-34481D01*
X79385Y-34456D01*
X79385Y-29649D01*
X79375Y-29599D01*
X79355Y-29552D01*
X79327Y-29509D01*
X79291Y-29473D01*
X79249Y-29445D01*
X79202Y-29425D01*
X79152Y-29415D01*
X79101Y-29414D01*
X79051Y-29424D01*
X79003Y-29443D01*
X78979Y-29459D01*
X78979Y-29364D01*
X79028Y-29365D01*
X79098Y-29353D01*
X79165Y-29327D01*
X79225Y-29289D01*
X79277Y-29239D01*
X79318Y-29181D01*
X79348Y-29115D01*
X79363Y-29045D01*
X79365Y-28964D01*
X79351Y-28893D01*
X79323Y-28827D01*
X79284Y-28768D01*
X79233Y-28717D01*
X79174Y-28677D01*
X79108Y-28649D01*
X79038Y-28635D01*
X78966Y-28634D01*
X78896Y-28648D01*
X78830Y-28674D01*
X78770Y-28714D01*
X78719Y-28764D01*
X78678Y-28823D01*
X78650Y-28889D01*
X78635Y-28959D01*
X78634Y-29030D01*
X78647Y-29101D01*
X78673Y-29167D01*
X78712Y-29227D01*
X78720Y-29236D01*
X78720Y-30321D01*
X78385Y-30657D01*
X78385Y-28962D01*
X78370Y-28888D01*
X78341Y-28818D01*
X78299Y-28755D01*
X78246Y-28701D01*
X78184Y-28659D01*
X78114Y-28630D01*
X78040Y-28615D01*
X77964Y-28614D01*
X77890Y-28628D01*
X77820Y-28657D01*
X77757Y-28698D01*
X77703Y-28751D01*
X77660Y-28813D01*
X77631Y-28883D01*
X77615Y-28956D01*
X77614Y-29032D01*
X77628Y-29106D01*
X77655Y-29176D01*
X77696Y-29240D01*
X77749Y-29294D01*
X77811Y-29337D01*
X77880Y-29367D01*
X77954Y-29384D01*
X78029Y-29385D01*
X78104Y-29372D01*
X78174Y-29345D01*
X78238Y-29304D01*
X78292Y-29252D01*
X78336Y-29191D01*
X78367Y-29122D01*
X78383Y-29048D01*
X78385Y-28962D01*
X78385Y-30657D01*
X78332Y-30710D01*
X78307Y-30709D01*
X78271Y-30716D01*
X78236Y-30730D01*
X78205Y-30751D01*
X78178Y-30777D01*
X78157Y-30808D01*
X78151Y-30823D01*
X78151Y-30633D01*
X78151Y-29845D01*
X78147Y-29828D01*
X78140Y-29812D01*
X78131Y-29797D01*
X78118Y-29784D01*
X78104Y-29774D01*
X78087Y-29768D01*
X78070Y-29764D01*
X78052Y-29764D01*
X77385Y-29764D01*
X77385Y-28962D01*
X77370Y-28888D01*
X77341Y-28818D01*
X77299Y-28755D01*
X77246Y-28701D01*
X77184Y-28659D01*
X77114Y-28630D01*
X77040Y-28615D01*
X76964Y-28614D01*
X76890Y-28628D01*
X76820Y-28657D01*
X76757Y-28698D01*
X76703Y-28751D01*
X76660Y-28813D01*
X76631Y-28883D01*
X76615Y-28956D01*
X76614Y-29032D01*
X76628Y-29106D01*
X76655Y-29176D01*
X76696Y-29240D01*
X76749Y-29294D01*
X76811Y-29337D01*
X76880Y-29367D01*
X76954Y-29384D01*
X77029Y-29385D01*
X77104Y-29372D01*
X77174Y-29345D01*
X77238Y-29304D01*
X77292Y-29252D01*
X77336Y-29191D01*
X77367Y-29122D01*
X77383Y-29048D01*
X77385Y-28962D01*
X77385Y-29764D01*
X77068Y-29764D01*
X77050Y-29767D01*
X77034Y-29774D01*
X77019Y-29784D01*
X77007Y-29796D01*
X76997Y-29811D01*
X76990Y-29827D01*
X76987Y-29845D01*
X76986Y-29862D01*
X76986Y-30650D01*
X76990Y-30667D01*
X76997Y-30683D01*
X77006Y-30698D01*
X77019Y-30711D01*
X77033Y-30721D01*
X77050Y-30727D01*
X77067Y-30731D01*
X77085Y-30731D01*
X78069Y-30731D01*
X78087Y-30728D01*
X78103Y-30721D01*
X78118Y-30711D01*
X78130Y-30699D01*
X78140Y-30684D01*
X78147Y-30668D01*
X78150Y-30650D01*
X78151Y-30633D01*
X78151Y-30823D01*
X78143Y-30842D01*
X78135Y-30878D01*
X78134Y-30915D01*
X78141Y-30952D01*
X78155Y-30987D01*
X78175Y-31018D01*
X78201Y-31045D01*
X78231Y-31066D01*
X78266Y-31081D01*
X78302Y-31089D01*
X78339Y-31090D01*
X78376Y-31083D01*
X78411Y-31070D01*
X78442Y-31050D01*
X78469Y-31024D01*
X78491Y-30994D01*
X78506Y-30960D01*
X78514Y-30923D01*
X78514Y-30893D01*
X78916Y-30491D01*
X78916Y-32813D01*
X78640Y-33090D01*
X78640Y-32206D01*
X78632Y-32169D01*
X78618Y-32135D01*
X78597Y-32104D01*
X78581Y-32087D01*
X78594Y-32074D01*
X78616Y-32044D01*
X78631Y-32010D01*
X78639Y-31973D01*
X78640Y-31931D01*
X78632Y-31894D01*
X78618Y-31860D01*
X78597Y-31829D01*
X78571Y-31802D01*
X78540Y-31782D01*
X78506Y-31767D01*
X78469Y-31760D01*
X78432Y-31759D01*
X78396Y-31766D01*
X78361Y-31780D01*
X78330Y-31801D01*
X78303Y-31827D01*
X78282Y-31858D01*
X78277Y-31870D01*
X78145Y-31870D01*
X78140Y-31859D01*
X78131Y-31844D01*
X78129Y-31842D01*
X78130Y-31841D01*
X78140Y-31826D01*
X78147Y-31810D01*
X78150Y-31792D01*
X78151Y-31775D01*
X78151Y-31577D01*
X78147Y-31560D01*
X78140Y-31544D01*
X78131Y-31529D01*
X78118Y-31516D01*
X78104Y-31506D01*
X78087Y-31500D01*
X78070Y-31496D01*
X78052Y-31496D01*
X77146Y-31496D01*
X77128Y-31499D01*
X77112Y-31506D01*
X77097Y-31516D01*
X77085Y-31528D01*
X77075Y-31543D01*
X77068Y-31559D01*
X77065Y-31577D01*
X77064Y-31594D01*
X77064Y-31792D01*
X77068Y-31809D01*
X77075Y-31825D01*
X77084Y-31840D01*
X77086Y-31842D01*
X77085Y-31843D01*
X77075Y-31858D01*
X77068Y-31874D01*
X77065Y-31892D01*
X77064Y-31909D01*
X77064Y-32107D01*
X77068Y-32124D01*
X77075Y-32140D01*
X77084Y-32155D01*
X77086Y-32157D01*
X77085Y-32158D01*
X77075Y-32173D01*
X77068Y-32189D01*
X77065Y-32207D01*
X77064Y-32224D01*
X77064Y-32295D01*
X76852Y-32082D01*
X76852Y-31107D01*
X76841Y-31056D01*
X76821Y-31008D01*
X76792Y-30964D01*
X76756Y-30927D01*
X76712Y-30897D01*
X76664Y-30877D01*
X76613Y-30867D01*
X76560Y-30866D01*
X76509Y-30876D01*
X76460Y-30896D01*
X76416Y-30924D01*
X76385Y-30956D01*
X76385Y-28962D01*
X76370Y-28888D01*
X76341Y-28818D01*
X76299Y-28755D01*
X76246Y-28701D01*
X76184Y-28659D01*
X76114Y-28630D01*
X76040Y-28615D01*
X75964Y-28614D01*
X75890Y-28628D01*
X75820Y-28657D01*
X75757Y-28698D01*
X75703Y-28751D01*
X75660Y-28813D01*
X75631Y-28883D01*
X75615Y-28956D01*
X75614Y-29032D01*
X75628Y-29106D01*
X75655Y-29176D01*
X75696Y-29240D01*
X75749Y-29294D01*
X75811Y-29337D01*
X75880Y-29367D01*
X75954Y-29384D01*
X76029Y-29385D01*
X76104Y-29372D01*
X76174Y-29345D01*
X76238Y-29304D01*
X76292Y-29252D01*
X76336Y-29191D01*
X76367Y-29122D01*
X76383Y-29048D01*
X76385Y-28962D01*
X76385Y-30956D01*
X76379Y-30961D01*
X76349Y-31004D01*
X76329Y-31052D01*
X76318Y-31104D01*
X76317Y-31156D01*
X76327Y-31207D01*
X76346Y-31256D01*
X76374Y-31300D01*
X76411Y-31338D01*
X76454Y-31368D01*
X76502Y-31389D01*
X76553Y-31400D01*
X76605Y-31401D01*
X76657Y-31392D01*
X76705Y-31373D01*
X76750Y-31345D01*
X76788Y-31309D01*
X76818Y-31266D01*
X76839Y-31218D01*
X76851Y-31167D01*
X76852Y-31107D01*
X76852Y-32082D01*
X76657Y-31887D01*
X76650Y-31849D01*
X76630Y-31802D01*
X76602Y-31759D01*
X76566Y-31723D01*
X76524Y-31695D01*
X76477Y-31675D01*
X76427Y-31665D01*
X76376Y-31664D01*
X76326Y-31674D01*
X76278Y-31693D01*
X76236Y-31721D01*
X76199Y-31757D01*
X76171Y-31799D01*
X76150Y-31846D01*
X76140Y-31895D01*
X76139Y-31946D01*
X76148Y-31997D01*
X76167Y-32044D01*
X76195Y-32087D01*
X76230Y-32123D01*
X76272Y-32153D01*
X76319Y-32173D01*
X76363Y-32183D01*
X76957Y-32777D01*
X76972Y-32789D01*
X76987Y-32801D01*
X76988Y-32802D01*
X76989Y-32803D01*
X77006Y-32812D01*
X77022Y-32821D01*
X77023Y-32821D01*
X77024Y-32822D01*
X77043Y-32828D01*
X77061Y-32833D01*
X77062Y-32833D01*
X77063Y-32834D01*
X77082Y-32836D01*
X77102Y-32838D01*
X77104Y-32838D01*
X77104Y-32838D01*
X77104Y-32838D01*
X77105Y-32838D01*
X77143Y-32838D01*
X77143Y-32838D01*
X77165Y-32838D01*
X78071Y-32838D01*
X78092Y-32834D01*
X78112Y-32826D01*
X78130Y-32814D01*
X78146Y-32798D01*
X78158Y-32781D01*
X78166Y-32761D01*
X78170Y-32740D01*
X78171Y-32718D01*
X78171Y-32520D01*
X78166Y-32499D01*
X78158Y-32479D01*
X78146Y-32461D01*
X78140Y-32455D01*
X78145Y-32444D01*
X78360Y-32444D01*
X78371Y-32443D01*
X78383Y-32442D01*
X78384Y-32441D01*
X78385Y-32441D01*
X78396Y-32438D01*
X78408Y-32435D01*
X78408Y-32434D01*
X78409Y-32434D01*
X78419Y-32428D01*
X78430Y-32423D01*
X78430Y-32423D01*
X78431Y-32422D01*
X78440Y-32415D01*
X78441Y-32414D01*
X78464Y-32415D01*
X78501Y-32408D01*
X78536Y-32395D01*
X78567Y-32375D01*
X78594Y-32349D01*
X78616Y-32319D01*
X78631Y-32285D01*
X78639Y-32248D01*
X78640Y-32206D01*
X78640Y-33090D01*
X78287Y-33442D01*
X78251Y-33449D01*
X78203Y-33468D01*
X78161Y-33496D01*
X78151Y-33506D01*
X78151Y-33349D01*
X78147Y-33332D01*
X78140Y-33316D01*
X78131Y-33301D01*
X78118Y-33288D01*
X78104Y-33278D01*
X78087Y-33272D01*
X78070Y-33268D01*
X78052Y-33268D01*
X77473Y-33268D01*
X77491Y-33244D01*
X77506Y-33210D01*
X77514Y-33173D01*
X77515Y-33131D01*
X77507Y-33094D01*
X77493Y-33060D01*
X77472Y-33029D01*
X77446Y-33002D01*
X77415Y-32982D01*
X77381Y-32967D01*
X77344Y-32960D01*
X77307Y-32959D01*
X77271Y-32966D01*
X77236Y-32980D01*
X77205Y-33001D01*
X77185Y-33020D01*
X77000Y-33020D01*
X76988Y-33021D01*
X76976Y-33022D01*
X76975Y-33023D01*
X76974Y-33023D01*
X76963Y-33026D01*
X76951Y-33029D01*
X76951Y-33030D01*
X76950Y-33030D01*
X76940Y-33036D01*
X76929Y-33041D01*
X76929Y-33041D01*
X76928Y-33042D01*
X76919Y-33049D01*
X76909Y-33057D01*
X76908Y-33058D01*
X76908Y-33058D01*
X76908Y-33058D01*
X76908Y-33058D01*
X76852Y-33115D01*
X76852Y-32839D01*
X76841Y-32788D01*
X76821Y-32740D01*
X76792Y-32696D01*
X76756Y-32659D01*
X76712Y-32629D01*
X76664Y-32609D01*
X76613Y-32599D01*
X76560Y-32598D01*
X76509Y-32608D01*
X76460Y-32628D01*
X76416Y-32656D01*
X76379Y-32693D01*
X76349Y-32736D01*
X76329Y-32784D01*
X76318Y-32836D01*
X76317Y-32888D01*
X76327Y-32939D01*
X76346Y-32988D01*
X76374Y-33032D01*
X76411Y-33070D01*
X76454Y-33100D01*
X76502Y-33121D01*
X76553Y-33132D01*
X76605Y-33133D01*
X76657Y-33124D01*
X76705Y-33105D01*
X76750Y-33077D01*
X76788Y-33041D01*
X76818Y-32998D01*
X76839Y-32950D01*
X76851Y-32899D01*
X76852Y-32839D01*
X76852Y-33115D01*
X76008Y-33958D01*
X76006Y-33961D01*
X76006Y-33347D01*
X76001Y-33326D01*
X75993Y-33306D01*
X75986Y-33295D01*
X75986Y-30633D01*
X75986Y-29845D01*
X75982Y-29828D01*
X75975Y-29812D01*
X75966Y-29797D01*
X75953Y-29784D01*
X75939Y-29774D01*
X75922Y-29768D01*
X75905Y-29764D01*
X75887Y-29764D01*
X74903Y-29764D01*
X74885Y-29767D01*
X74869Y-29774D01*
X74854Y-29784D01*
X74842Y-29796D01*
X74832Y-29811D01*
X74825Y-29827D01*
X74822Y-29845D01*
X74821Y-29862D01*
X74821Y-30650D01*
X74825Y-30667D01*
X74832Y-30683D01*
X74841Y-30698D01*
X74854Y-30711D01*
X74868Y-30721D01*
X74885Y-30727D01*
X74902Y-30731D01*
X74920Y-30731D01*
X75904Y-30731D01*
X75922Y-30728D01*
X75938Y-30721D01*
X75953Y-30711D01*
X75965Y-30699D01*
X75975Y-30684D01*
X75982Y-30668D01*
X75985Y-30650D01*
X75986Y-30633D01*
X75986Y-33295D01*
X75981Y-33288D01*
X75966Y-33273D01*
X75948Y-33261D01*
X75928Y-33252D01*
X75907Y-33248D01*
X75885Y-33248D01*
X75418Y-33248D01*
X75390Y-33220D01*
X75402Y-33204D01*
X75422Y-33157D01*
X75434Y-33107D01*
X75435Y-33049D01*
X75425Y-32999D01*
X75405Y-32952D01*
X75377Y-32909D01*
X75341Y-32873D01*
X75299Y-32845D01*
X75252Y-32825D01*
X75202Y-32815D01*
X75151Y-32814D01*
X75101Y-32824D01*
X75053Y-32843D01*
X75011Y-32871D01*
X74974Y-32907D01*
X74946Y-32949D01*
X74925Y-32996D01*
X74915Y-33045D01*
X74914Y-33096D01*
X74923Y-33147D01*
X74942Y-33194D01*
X74966Y-33231D01*
X74966Y-33248D01*
X74901Y-33248D01*
X74880Y-33252D01*
X74860Y-33260D01*
X74842Y-33272D01*
X74826Y-33288D01*
X74814Y-33305D01*
X74806Y-33325D01*
X74802Y-33346D01*
X74801Y-33368D01*
X74801Y-34156D01*
X74806Y-34177D01*
X74814Y-34197D01*
X74826Y-34215D01*
X74841Y-34230D01*
X74859Y-34242D01*
X74879Y-34251D01*
X74900Y-34255D01*
X74922Y-34255D01*
X75906Y-34255D01*
X75927Y-34251D01*
X75947Y-34243D01*
X75965Y-34231D01*
X75970Y-34226D01*
X75970Y-34634D01*
X75966Y-34634D01*
X75896Y-34648D01*
X75830Y-34674D01*
X75770Y-34714D01*
X75719Y-34764D01*
X75678Y-34823D01*
X75650Y-34889D01*
X75635Y-34959D01*
X75634Y-35030D01*
X75647Y-35101D01*
X75673Y-35167D01*
X75712Y-35227D01*
X75762Y-35279D01*
X75821Y-35320D01*
X75886Y-35348D01*
X75956Y-35364D01*
X76028Y-35365D01*
X76098Y-35353D01*
X76165Y-35327D01*
X76225Y-35289D01*
X76277Y-35239D01*
X76318Y-35181D01*
X76348Y-35115D01*
X76363Y-35045D01*
X76365Y-34964D01*
X76351Y-34893D01*
X76323Y-34827D01*
X76284Y-34768D01*
X76233Y-34717D01*
X76229Y-34714D01*
X76229Y-34103D01*
X76987Y-33345D01*
X76987Y-33349D01*
X76986Y-33366D01*
X76986Y-34154D01*
X76990Y-34171D01*
X76997Y-34187D01*
X77006Y-34202D01*
X77019Y-34215D01*
X77033Y-34225D01*
X77050Y-34231D01*
X77067Y-34235D01*
X77085Y-34235D01*
X78069Y-34235D01*
X78087Y-34232D01*
X78103Y-34225D01*
X78118Y-34215D01*
X78130Y-34203D01*
X78140Y-34188D01*
X78147Y-34172D01*
X78150Y-34154D01*
X78151Y-34137D01*
X78151Y-33894D01*
X78155Y-33898D01*
X78197Y-33928D01*
X78244Y-33948D01*
X78294Y-33959D01*
X78345Y-33960D01*
X78395Y-33951D01*
X78442Y-33933D01*
X78485Y-33905D01*
X78522Y-33870D01*
X78552Y-33829D01*
X78572Y-33782D01*
X78583Y-33736D01*
X79272Y-33047D01*
X79284Y-33032D01*
X79296Y-33017D01*
X79297Y-33016D01*
X79298Y-33015D01*
X79307Y-32998D01*
X79316Y-32982D01*
X79316Y-32981D01*
X79317Y-32980D01*
X79323Y-32961D01*
X79328Y-32943D01*
X79328Y-32942D01*
X79329Y-32941D01*
X79331Y-32922D01*
X79333Y-32902D01*
X79333Y-32900D01*
X79333Y-32900D01*
X79333Y-32900D01*
X79333Y-32900D01*
X79333Y-29830D01*
X79352Y-29804D01*
X79372Y-29757D01*
X79384Y-29707D01*
X79385Y-29649D01*
X79385Y-34456D01*
X79382Y-34444D01*
X79368Y-34410D01*
X79347Y-34379D01*
X79321Y-34352D01*
X79290Y-34332D01*
X79256Y-34317D01*
X79219Y-34310D01*
X79182Y-34309D01*
X79146Y-34316D01*
X79111Y-34330D01*
X79080Y-34351D01*
X79053Y-34377D01*
X79032Y-34408D01*
X79027Y-34420D01*
X77450Y-34420D01*
X77438Y-34421D01*
X77426Y-34422D01*
X77425Y-34423D01*
X77424Y-34423D01*
X77413Y-34426D01*
X77401Y-34429D01*
X77401Y-34430D01*
X77400Y-34430D01*
X77390Y-34436D01*
X77379Y-34441D01*
X77379Y-34441D01*
X77378Y-34442D01*
X77369Y-34449D01*
X77359Y-34457D01*
X77358Y-34458D01*
X77358Y-34458D01*
X77358Y-34458D01*
X77358Y-34458D01*
X77149Y-34667D01*
X77108Y-34649D01*
X77038Y-34635D01*
X76966Y-34634D01*
X76896Y-34648D01*
X76830Y-34674D01*
X76770Y-34714D01*
X76719Y-34764D01*
X76678Y-34823D01*
X76650Y-34889D01*
X76635Y-34959D01*
X76634Y-35030D01*
X76647Y-35101D01*
X76673Y-35167D01*
X76712Y-35227D01*
X76762Y-35279D01*
X76821Y-35320D01*
X76886Y-35348D01*
X76956Y-35364D01*
X77028Y-35365D01*
X77098Y-35353D01*
X77165Y-35327D01*
X77225Y-35289D01*
X77277Y-35239D01*
X77318Y-35181D01*
X77348Y-35115D01*
X77363Y-35045D01*
X77365Y-34964D01*
X77351Y-34893D01*
X77332Y-34849D01*
X77503Y-34679D01*
X77823Y-34679D01*
X77770Y-34714D01*
X77719Y-34764D01*
X77678Y-34823D01*
X77650Y-34889D01*
X77635Y-34959D01*
X77634Y-35030D01*
X77647Y-35101D01*
X77673Y-35167D01*
X77712Y-35227D01*
X77762Y-35279D01*
X77821Y-35320D01*
X77886Y-35348D01*
X77956Y-35364D01*
X78028Y-35365D01*
X78098Y-35353D01*
X78165Y-35327D01*
X78225Y-35289D01*
X78277Y-35239D01*
X78318Y-35181D01*
X78348Y-35115D01*
X78363Y-35045D01*
X78365Y-34964D01*
X78351Y-34893D01*
X78323Y-34827D01*
X78284Y-34768D01*
X78233Y-34717D01*
X78177Y-34679D01*
X78823Y-34679D01*
X78770Y-34714D01*
X78719Y-34764D01*
X78678Y-34823D01*
X78650Y-34889D01*
X78635Y-34959D01*
X78634Y-35030D01*
X78647Y-35101D01*
X78673Y-35167D01*
X78712Y-35227D01*
X78762Y-35279D01*
X78821Y-35320D01*
X78886Y-35348D01*
X78956Y-35364D01*
X79028Y-35365D01*
X79098Y-35353D01*
X79165Y-35327D01*
X79225Y-35289D01*
X79277Y-35239D01*
X79318Y-35181D01*
X79348Y-35115D01*
X79363Y-35045D01*
X79365Y-34964D01*
X79351Y-34893D01*
X79323Y-34827D01*
X79284Y-34768D01*
X79233Y-34717D01*
X79193Y-34689D01*
X79214Y-34690D01*
X79251Y-34683D01*
X79286Y-34670D01*
X79317Y-34650D01*
X79344Y-34624D01*
X79366Y-34594D01*
X79381Y-34560D01*
X79389Y-34523D01*
X79390Y-34481D01*
X79390Y-35390D01*
X75365Y-35390D01*
X75365Y-35266D01*
X75365Y-34716D01*
X75361Y-34698D01*
X75354Y-34682D01*
X75345Y-34667D01*
X75332Y-34655D01*
X75318Y-34645D01*
X75301Y-34638D01*
X75284Y-34635D01*
X75266Y-34634D01*
X74716Y-34634D01*
X74698Y-34638D01*
X74682Y-34645D01*
X74667Y-34654D01*
X74655Y-34667D01*
X74645Y-34681D01*
X74638Y-34698D01*
X74635Y-34715D01*
X74634Y-34733D01*
X74634Y-35283D01*
X74638Y-35301D01*
X74645Y-35317D01*
X74654Y-35332D01*
X74667Y-35344D01*
X74681Y-35354D01*
X74698Y-35361D01*
X74715Y-35364D01*
X74733Y-35365D01*
X75283Y-35365D01*
X75301Y-35361D01*
X75317Y-35354D01*
X75332Y-35345D01*
X75344Y-35332D01*
X75354Y-35318D01*
X75361Y-35301D01*
X75364Y-35284D01*
X75365Y-35266D01*
X75365Y-35390D01*
X74609Y-35390D01*
X74609Y-28609D01*
X79390Y-28609D01*
X79390Y-35390D01*
M02*
