G04 (created by PCBNEW (2013-june-11)-stable) date Sat 19 Jul 2014 01:16:46 PM PDT*
%MOIN*%
G04 Gerber Fmt 3.4, Leading zero omitted, Abs format*
%FSLAX34Y34*%
G01*
G70*
G90*
G04 APERTURE LIST*
%ADD10C,0.00590551*%
%ADD11C,0.0039*%
%ADD12C,0.005*%
%ADD13C,0.0028*%
%ADD14C,0.012*%
%ADD15C,0.0079*%
%ADD16C,0.0043*%
%ADD17C,0.0045*%
%ADD18C,0.0354*%
%ADD19R,0.035X0.055*%
%ADD20R,0.025X0.045*%
%ADD21R,0.045X0.025*%
%ADD22R,0.0236X0.0157*%
%ADD23R,0.0157X0.0236*%
%ADD24R,0.055X0.055*%
%ADD25C,0.055*%
%ADD26R,0.0984252X0.0629921*%
%ADD27O,0.00984252X0.0315*%
G04 APERTURE END LIST*
G54D10*
G54D11*
X80500Y-31900D02*
G75*
G03X80500Y-31900I-50J0D01*
G74*
G01*
X80900Y-31900D02*
X80500Y-31900D01*
X80500Y-31900D02*
X80500Y-31300D01*
X80500Y-31300D02*
X80900Y-31300D01*
X81300Y-31300D02*
X81700Y-31300D01*
X81700Y-31300D02*
X81700Y-31900D01*
X81700Y-31900D02*
X81300Y-31900D01*
G54D12*
X79050Y-31150D02*
X78150Y-31150D01*
X78150Y-31150D02*
X78150Y-30650D01*
X78150Y-30650D02*
X79050Y-30650D01*
X79050Y-30650D02*
X79050Y-31150D01*
X81250Y-32950D02*
X81250Y-32050D01*
X81250Y-32050D02*
X81750Y-32050D01*
X81750Y-32050D02*
X81750Y-32950D01*
X81750Y-32950D02*
X81250Y-32950D01*
G54D13*
X80650Y-32900D02*
X80650Y-32700D01*
X80650Y-32700D02*
X80350Y-32700D01*
X80350Y-32700D02*
X80350Y-32900D01*
X80650Y-33100D02*
X80650Y-33300D01*
X80650Y-33300D02*
X80350Y-33300D01*
X80350Y-33300D02*
X80350Y-33100D01*
X80350Y-32400D02*
X80350Y-32600D01*
X80350Y-32600D02*
X80650Y-32600D01*
X80650Y-32600D02*
X80650Y-32400D01*
X80350Y-32200D02*
X80350Y-32000D01*
X80350Y-32000D02*
X80650Y-32000D01*
X80650Y-32000D02*
X80650Y-32200D01*
X79400Y-30650D02*
X79200Y-30650D01*
X79200Y-30650D02*
X79200Y-30950D01*
X79200Y-30950D02*
X79400Y-30950D01*
X79600Y-30650D02*
X79800Y-30650D01*
X79800Y-30650D02*
X79800Y-30950D01*
X79800Y-30950D02*
X79600Y-30950D01*
X81600Y-33750D02*
X81800Y-33750D01*
X81800Y-33750D02*
X81800Y-33450D01*
X81800Y-33450D02*
X81600Y-33450D01*
X81400Y-33750D02*
X81200Y-33750D01*
X81200Y-33750D02*
X81200Y-33450D01*
X81200Y-33450D02*
X81400Y-33450D01*
X81600Y-33350D02*
X81800Y-33350D01*
X81800Y-33350D02*
X81800Y-33050D01*
X81800Y-33050D02*
X81600Y-33050D01*
X81400Y-33350D02*
X81200Y-33350D01*
X81200Y-33350D02*
X81200Y-33050D01*
X81200Y-33050D02*
X81400Y-33050D01*
X80750Y-32400D02*
X80750Y-32600D01*
X80750Y-32600D02*
X81050Y-32600D01*
X81050Y-32600D02*
X81050Y-32400D01*
X80750Y-32200D02*
X80750Y-32000D01*
X80750Y-32000D02*
X81050Y-32000D01*
X81050Y-32000D02*
X81050Y-32200D01*
X81050Y-32900D02*
X81050Y-32700D01*
X81050Y-32700D02*
X80750Y-32700D01*
X80750Y-32700D02*
X80750Y-32900D01*
X81050Y-33100D02*
X81050Y-33300D01*
X81050Y-33300D02*
X80750Y-33300D01*
X80750Y-33300D02*
X80750Y-33100D01*
X81600Y-34150D02*
X81800Y-34150D01*
X81800Y-34150D02*
X81800Y-33850D01*
X81800Y-33850D02*
X81600Y-33850D01*
X81400Y-34150D02*
X81200Y-34150D01*
X81200Y-34150D02*
X81200Y-33850D01*
X81200Y-33850D02*
X81400Y-33850D01*
X78925Y-33850D02*
X79125Y-33850D01*
X79125Y-33850D02*
X79125Y-33550D01*
X79125Y-33550D02*
X78925Y-33550D01*
X78725Y-33850D02*
X78525Y-33850D01*
X78525Y-33850D02*
X78525Y-33550D01*
X78525Y-33550D02*
X78725Y-33550D01*
X78900Y-31550D02*
X79100Y-31550D01*
X79100Y-31550D02*
X79100Y-31250D01*
X79100Y-31250D02*
X78900Y-31250D01*
X78700Y-31550D02*
X78500Y-31550D01*
X78500Y-31550D02*
X78500Y-31250D01*
X78500Y-31250D02*
X78700Y-31250D01*
G54D14*
X78000Y-34500D02*
X78000Y-34500D01*
X78000Y-35500D02*
X78000Y-34500D01*
X78000Y-34500D02*
X78000Y-34500D01*
X78000Y-34500D02*
X82000Y-34500D01*
X82000Y-34500D02*
X82000Y-35500D01*
X82000Y-35500D02*
X78000Y-35500D01*
X79000Y-35500D02*
X79000Y-34500D01*
X82000Y-30500D02*
X82000Y-30500D01*
X82000Y-29500D02*
X82000Y-30500D01*
X82000Y-30500D02*
X82000Y-30500D01*
X82000Y-30500D02*
X78000Y-30500D01*
X78000Y-30500D02*
X78000Y-29500D01*
X78000Y-29500D02*
X82000Y-29500D01*
X81000Y-29500D02*
X81000Y-30500D01*
G54D10*
X79788Y-31614D02*
X79985Y-31811D01*
X78214Y-31614D02*
X79788Y-31614D01*
X78214Y-33385D02*
X78214Y-31614D01*
X79985Y-31811D02*
X79985Y-33385D01*
X79985Y-33385D02*
X78214Y-33385D01*
G54D15*
X79687Y-31912D02*
X79785Y-31912D01*
X79687Y-31814D02*
X79687Y-31912D01*
X78512Y-31912D02*
X78512Y-31814D01*
X78414Y-31912D02*
X78512Y-31912D01*
X78512Y-33087D02*
X78414Y-33087D01*
X78512Y-33185D02*
X78512Y-33087D01*
X79687Y-33087D02*
X79687Y-33185D01*
X79785Y-33087D02*
X79687Y-33087D01*
G54D16*
X81185Y-31632D02*
X81195Y-31642D01*
X81204Y-31670D01*
X81204Y-31689D01*
X81195Y-31717D01*
X81176Y-31736D01*
X81157Y-31745D01*
X81120Y-31754D01*
X81092Y-31754D01*
X81054Y-31745D01*
X81035Y-31736D01*
X81017Y-31717D01*
X81007Y-31689D01*
X81007Y-31670D01*
X81017Y-31642D01*
X81026Y-31632D01*
X81007Y-31567D02*
X81007Y-31435D01*
X81204Y-31520D01*
G54D17*
X78480Y-31050D02*
X78623Y-31050D01*
X78652Y-31058D01*
X78671Y-31075D01*
X78680Y-31101D01*
X78680Y-31118D01*
X78680Y-30964D02*
X78480Y-30964D01*
X78480Y-30895D01*
X78490Y-30878D01*
X78500Y-30870D01*
X78519Y-30861D01*
X78547Y-30861D01*
X78566Y-30870D01*
X78576Y-30878D01*
X78585Y-30895D01*
X78585Y-30964D01*
X78680Y-30690D02*
X78680Y-30792D01*
X78680Y-30741D02*
X78480Y-30741D01*
X78509Y-30758D01*
X78528Y-30775D01*
X78538Y-30792D01*
X81350Y-32501D02*
X81290Y-32501D01*
X81290Y-32605D02*
X81290Y-32405D01*
X81375Y-32405D01*
X81504Y-32501D02*
X81530Y-32510D01*
X81538Y-32520D01*
X81547Y-32539D01*
X81547Y-32567D01*
X81538Y-32586D01*
X81530Y-32596D01*
X81512Y-32605D01*
X81444Y-32605D01*
X81444Y-32405D01*
X81504Y-32405D01*
X81521Y-32415D01*
X81530Y-32425D01*
X81538Y-32444D01*
X81538Y-32463D01*
X81530Y-32482D01*
X81521Y-32491D01*
X81504Y-32501D01*
X81444Y-32501D01*
X81718Y-32605D02*
X81615Y-32605D01*
X81667Y-32605D02*
X81667Y-32405D01*
X81650Y-32434D01*
X81632Y-32453D01*
X81615Y-32463D01*
G54D13*
X80480Y-33055D02*
X80440Y-32990D01*
X80411Y-33055D02*
X80411Y-32917D01*
X80457Y-32917D01*
X80468Y-32924D01*
X80474Y-32931D01*
X80480Y-32944D01*
X80480Y-32963D01*
X80474Y-32977D01*
X80468Y-32983D01*
X80457Y-32990D01*
X80411Y-32990D01*
X80520Y-32917D02*
X80594Y-32917D01*
X80554Y-32970D01*
X80571Y-32970D01*
X80582Y-32977D01*
X80588Y-32983D01*
X80594Y-32996D01*
X80594Y-33029D01*
X80588Y-33042D01*
X80582Y-33049D01*
X80571Y-33055D01*
X80537Y-33055D01*
X80525Y-33049D01*
X80520Y-33042D01*
X80480Y-32355D02*
X80440Y-32290D01*
X80411Y-32355D02*
X80411Y-32217D01*
X80457Y-32217D01*
X80468Y-32224D01*
X80474Y-32231D01*
X80480Y-32244D01*
X80480Y-32263D01*
X80474Y-32277D01*
X80468Y-32283D01*
X80457Y-32290D01*
X80411Y-32290D01*
X80582Y-32263D02*
X80582Y-32355D01*
X80554Y-32211D02*
X80525Y-32309D01*
X80600Y-32309D01*
X79555Y-30820D02*
X79490Y-30860D01*
X79555Y-30888D02*
X79417Y-30888D01*
X79417Y-30842D01*
X79424Y-30831D01*
X79431Y-30825D01*
X79444Y-30820D01*
X79463Y-30820D01*
X79477Y-30825D01*
X79483Y-30831D01*
X79490Y-30842D01*
X79490Y-30888D01*
X79431Y-30774D02*
X79424Y-30768D01*
X79417Y-30757D01*
X79417Y-30728D01*
X79424Y-30717D01*
X79431Y-30711D01*
X79444Y-30705D01*
X79457Y-30705D01*
X79477Y-30711D01*
X79555Y-30780D01*
X79555Y-30705D01*
X81555Y-33620D02*
X81490Y-33660D01*
X81555Y-33688D02*
X81417Y-33688D01*
X81417Y-33642D01*
X81424Y-33631D01*
X81431Y-33625D01*
X81444Y-33620D01*
X81463Y-33620D01*
X81477Y-33625D01*
X81483Y-33631D01*
X81490Y-33642D01*
X81490Y-33688D01*
X81555Y-33505D02*
X81555Y-33574D01*
X81555Y-33540D02*
X81417Y-33540D01*
X81437Y-33551D01*
X81450Y-33562D01*
X81457Y-33574D01*
X81542Y-33220D02*
X81549Y-33225D01*
X81555Y-33242D01*
X81555Y-33254D01*
X81549Y-33271D01*
X81536Y-33282D01*
X81523Y-33288D01*
X81496Y-33294D01*
X81477Y-33294D01*
X81450Y-33288D01*
X81437Y-33282D01*
X81424Y-33271D01*
X81417Y-33254D01*
X81417Y-33242D01*
X81424Y-33225D01*
X81431Y-33220D01*
X81417Y-33180D02*
X81417Y-33105D01*
X81470Y-33145D01*
X81470Y-33128D01*
X81477Y-33117D01*
X81483Y-33111D01*
X81496Y-33105D01*
X81529Y-33105D01*
X81542Y-33111D01*
X81549Y-33117D01*
X81555Y-33128D01*
X81555Y-33162D01*
X81549Y-33174D01*
X81542Y-33180D01*
X80880Y-32342D02*
X80874Y-32349D01*
X80857Y-32355D01*
X80845Y-32355D01*
X80828Y-32349D01*
X80817Y-32336D01*
X80811Y-32323D01*
X80805Y-32296D01*
X80805Y-32277D01*
X80811Y-32250D01*
X80817Y-32237D01*
X80828Y-32224D01*
X80845Y-32217D01*
X80857Y-32217D01*
X80874Y-32224D01*
X80880Y-32231D01*
X80982Y-32263D02*
X80982Y-32355D01*
X80954Y-32211D02*
X80925Y-32309D01*
X81000Y-32309D01*
X80880Y-33042D02*
X80874Y-33049D01*
X80857Y-33055D01*
X80845Y-33055D01*
X80828Y-33049D01*
X80817Y-33036D01*
X80811Y-33023D01*
X80805Y-32996D01*
X80805Y-32977D01*
X80811Y-32950D01*
X80817Y-32937D01*
X80828Y-32924D01*
X80845Y-32917D01*
X80857Y-32917D01*
X80874Y-32924D01*
X80880Y-32931D01*
X80988Y-32917D02*
X80931Y-32917D01*
X80925Y-32983D01*
X80931Y-32977D01*
X80942Y-32970D01*
X80971Y-32970D01*
X80982Y-32977D01*
X80988Y-32983D01*
X80994Y-32996D01*
X80994Y-33029D01*
X80988Y-33042D01*
X80982Y-33049D01*
X80971Y-33055D01*
X80942Y-33055D01*
X80931Y-33049D01*
X80925Y-33042D01*
X81542Y-34020D02*
X81549Y-34025D01*
X81555Y-34042D01*
X81555Y-34054D01*
X81549Y-34071D01*
X81536Y-34082D01*
X81523Y-34088D01*
X81496Y-34094D01*
X81477Y-34094D01*
X81450Y-34088D01*
X81437Y-34082D01*
X81424Y-34071D01*
X81417Y-34054D01*
X81417Y-34042D01*
X81424Y-34025D01*
X81431Y-34020D01*
X81555Y-33905D02*
X81555Y-33974D01*
X81555Y-33940D02*
X81417Y-33940D01*
X81437Y-33951D01*
X81450Y-33962D01*
X81457Y-33974D01*
X78867Y-33720D02*
X78874Y-33725D01*
X78880Y-33742D01*
X78880Y-33754D01*
X78874Y-33771D01*
X78861Y-33782D01*
X78848Y-33788D01*
X78821Y-33794D01*
X78802Y-33794D01*
X78775Y-33788D01*
X78762Y-33782D01*
X78749Y-33771D01*
X78742Y-33754D01*
X78742Y-33742D01*
X78749Y-33725D01*
X78756Y-33720D01*
X78742Y-33617D02*
X78742Y-33640D01*
X78749Y-33651D01*
X78756Y-33657D01*
X78775Y-33668D01*
X78802Y-33674D01*
X78854Y-33674D01*
X78867Y-33668D01*
X78874Y-33662D01*
X78880Y-33651D01*
X78880Y-33628D01*
X78874Y-33617D01*
X78867Y-33611D01*
X78854Y-33605D01*
X78821Y-33605D01*
X78808Y-33611D01*
X78802Y-33617D01*
X78795Y-33628D01*
X78795Y-33651D01*
X78802Y-33662D01*
X78808Y-33668D01*
X78821Y-33674D01*
X78442Y-31395D02*
X78449Y-31400D01*
X78455Y-31417D01*
X78455Y-31429D01*
X78449Y-31446D01*
X78436Y-31457D01*
X78423Y-31463D01*
X78396Y-31469D01*
X78377Y-31469D01*
X78350Y-31463D01*
X78337Y-31457D01*
X78324Y-31446D01*
X78317Y-31429D01*
X78317Y-31417D01*
X78324Y-31400D01*
X78331Y-31395D01*
X78377Y-31326D02*
X78370Y-31337D01*
X78363Y-31343D01*
X78350Y-31349D01*
X78344Y-31349D01*
X78331Y-31343D01*
X78324Y-31337D01*
X78317Y-31326D01*
X78317Y-31303D01*
X78324Y-31292D01*
X78331Y-31286D01*
X78344Y-31280D01*
X78350Y-31280D01*
X78363Y-31286D01*
X78370Y-31292D01*
X78377Y-31303D01*
X78377Y-31326D01*
X78383Y-31337D01*
X78390Y-31343D01*
X78403Y-31349D01*
X78429Y-31349D01*
X78442Y-31343D01*
X78449Y-31337D01*
X78455Y-31326D01*
X78455Y-31303D01*
X78449Y-31292D01*
X78442Y-31286D01*
X78429Y-31280D01*
X78403Y-31280D01*
X78390Y-31286D01*
X78383Y-31292D01*
X78377Y-31303D01*
%LPC*%
G54D18*
X80085Y-33366D03*
X80085Y-31634D03*
G54D19*
X80725Y-31600D03*
X81475Y-31600D03*
G54D20*
X78900Y-30900D03*
X78300Y-30900D03*
G54D21*
X81500Y-32800D03*
X81500Y-32200D03*
G54D22*
X80500Y-32823D03*
X80500Y-33177D03*
X80500Y-32477D03*
X80500Y-32123D03*
G54D23*
X79323Y-30800D03*
X79677Y-30800D03*
X81677Y-33600D03*
X81323Y-33600D03*
X81677Y-33200D03*
X81323Y-33200D03*
G54D22*
X80900Y-32477D03*
X80900Y-32123D03*
X80900Y-32823D03*
X80900Y-33177D03*
G54D23*
X81677Y-34000D03*
X81323Y-34000D03*
X79002Y-33700D03*
X78648Y-33700D03*
X78977Y-31400D03*
X78623Y-31400D03*
G54D24*
X78500Y-35000D03*
G54D25*
X79500Y-35000D03*
X80500Y-35000D03*
X81500Y-35000D03*
G54D24*
X81500Y-30000D03*
G54D25*
X80500Y-30000D03*
X79500Y-30000D03*
X78500Y-30000D03*
G54D26*
X79100Y-32500D03*
G54D27*
X79542Y-31909D03*
X79365Y-31909D03*
X79188Y-31909D03*
X79011Y-31909D03*
X78834Y-31909D03*
X78657Y-31909D03*
X78657Y-33090D03*
X78834Y-33090D03*
X79011Y-33090D03*
X79188Y-33090D03*
X79365Y-33090D03*
X79542Y-33090D03*
M02*
