G04 (created by PCBNEW (2013-june-11)-stable) date Sun 16 Feb 2014 08:29:20 PM PST*
%MOIN*%
G04 Gerber Fmt 3.4, Leading zero omitted, Abs format*
%FSLAX34Y34*%
G01*
G70*
G90*
G04 APERTURE LIST*
%ADD10C,0.00590551*%
%ADD11C,0.012*%
%ADD12C,0.0039*%
%ADD13C,0.005*%
%ADD14C,0.0028*%
%ADD15C,0.0079*%
%ADD16C,0.0043*%
%ADD17C,0.0045*%
%ADD18C,0.023*%
%ADD19C,0.0354*%
%ADD20R,0.055X0.055*%
%ADD21C,0.055*%
%ADD22R,0.035X0.055*%
%ADD23R,0.045X0.025*%
%ADD24R,0.0236X0.0157*%
%ADD25R,0.0157X0.0236*%
%ADD26R,0.0984252X0.0629921*%
%ADD27O,0.00984252X0.0315*%
G04 APERTURE END LIST*
G54D10*
G54D11*
X74500Y-29500D02*
X74500Y-28500D01*
X74500Y-28500D02*
X79500Y-28500D01*
X79500Y-28500D02*
X79500Y-29500D01*
X79500Y-29500D02*
X74500Y-29500D01*
X75500Y-29500D02*
X75500Y-28500D01*
X74500Y-35500D02*
X74500Y-34500D01*
X74500Y-34500D02*
X79500Y-34500D01*
X79500Y-34500D02*
X79500Y-35500D01*
X79500Y-35500D02*
X74500Y-35500D01*
X75500Y-35500D02*
X75500Y-34500D01*
G54D12*
X76300Y-29700D02*
G75*
G03X76300Y-29700I-50J0D01*
G74*
G01*
X75800Y-29700D02*
X76200Y-29700D01*
X76200Y-29700D02*
X76200Y-30300D01*
X76200Y-30300D02*
X75800Y-30300D01*
X75400Y-30300D02*
X75000Y-30300D01*
X75000Y-30300D02*
X75000Y-29700D01*
X75000Y-29700D02*
X75400Y-29700D01*
G54D13*
X75650Y-32050D02*
X75650Y-31150D01*
X75650Y-31150D02*
X76150Y-31150D01*
X76150Y-31150D02*
X76150Y-32050D01*
X76150Y-32050D02*
X75650Y-32050D01*
X78750Y-30850D02*
X78750Y-29950D01*
X78750Y-29950D02*
X79250Y-29950D01*
X79250Y-29950D02*
X79250Y-30850D01*
X79250Y-30850D02*
X78750Y-30850D01*
G54D14*
X79000Y-32250D02*
X79000Y-32050D01*
X79000Y-32050D02*
X78700Y-32050D01*
X78700Y-32050D02*
X78700Y-32250D01*
X79000Y-32450D02*
X79000Y-32650D01*
X79000Y-32650D02*
X78700Y-32650D01*
X78700Y-32650D02*
X78700Y-32450D01*
X78700Y-31700D02*
X78700Y-31900D01*
X78700Y-31900D02*
X79000Y-31900D01*
X79000Y-31900D02*
X79000Y-31700D01*
X78700Y-31500D02*
X78700Y-31300D01*
X78700Y-31300D02*
X79000Y-31300D01*
X79000Y-31300D02*
X79000Y-31500D01*
X77700Y-30050D02*
X77900Y-30050D01*
X77900Y-30050D02*
X77900Y-29750D01*
X77900Y-29750D02*
X77700Y-29750D01*
X77500Y-30050D02*
X77300Y-30050D01*
X77300Y-30050D02*
X77300Y-29750D01*
X77300Y-29750D02*
X77500Y-29750D01*
X75950Y-32700D02*
X75950Y-32900D01*
X75950Y-32900D02*
X76250Y-32900D01*
X76250Y-32900D02*
X76250Y-32700D01*
X75950Y-32500D02*
X75950Y-32300D01*
X75950Y-32300D02*
X76250Y-32300D01*
X76250Y-32300D02*
X76250Y-32500D01*
X75250Y-31525D02*
X75250Y-31725D01*
X75250Y-31725D02*
X75550Y-31725D01*
X75550Y-31725D02*
X75550Y-31525D01*
X75250Y-31325D02*
X75250Y-31125D01*
X75250Y-31125D02*
X75550Y-31125D01*
X75550Y-31125D02*
X75550Y-31325D01*
X76900Y-30050D02*
X77100Y-30050D01*
X77100Y-30050D02*
X77100Y-29750D01*
X77100Y-29750D02*
X76900Y-29750D01*
X76700Y-30050D02*
X76500Y-30050D01*
X76500Y-30050D02*
X76500Y-29750D01*
X76500Y-29750D02*
X76700Y-29750D01*
X75450Y-32700D02*
X75450Y-32900D01*
X75450Y-32900D02*
X75750Y-32900D01*
X75750Y-32900D02*
X75750Y-32700D01*
X75450Y-32500D02*
X75450Y-32300D01*
X75450Y-32300D02*
X75750Y-32300D01*
X75750Y-32300D02*
X75750Y-32500D01*
X77850Y-33300D02*
X77850Y-33100D01*
X77850Y-33100D02*
X77550Y-33100D01*
X77550Y-33100D02*
X77550Y-33300D01*
X77850Y-33500D02*
X77850Y-33700D01*
X77850Y-33700D02*
X77550Y-33700D01*
X77550Y-33700D02*
X77550Y-33500D01*
X77500Y-31050D02*
X77700Y-31050D01*
X77700Y-31050D02*
X77700Y-30750D01*
X77700Y-30750D02*
X77500Y-30750D01*
X77300Y-31050D02*
X77100Y-31050D01*
X77100Y-31050D02*
X77100Y-30750D01*
X77100Y-30750D02*
X77300Y-30750D01*
X79050Y-31700D02*
X79050Y-31900D01*
X79050Y-31900D02*
X79350Y-31900D01*
X79350Y-31900D02*
X79350Y-31700D01*
X79050Y-31500D02*
X79050Y-31300D01*
X79050Y-31300D02*
X79350Y-31300D01*
X79350Y-31300D02*
X79350Y-31500D01*
X79350Y-32250D02*
X79350Y-32050D01*
X79350Y-32050D02*
X79050Y-32050D01*
X79050Y-32050D02*
X79050Y-32250D01*
X79350Y-32450D02*
X79350Y-32650D01*
X79350Y-32650D02*
X79050Y-32650D01*
X79050Y-32650D02*
X79050Y-32450D01*
G54D10*
X78438Y-31114D02*
X78635Y-31311D01*
X76864Y-31114D02*
X78438Y-31114D01*
X76864Y-32885D02*
X76864Y-31114D01*
X78635Y-31311D02*
X78635Y-32885D01*
X78635Y-32885D02*
X76864Y-32885D01*
G54D15*
X78337Y-31412D02*
X78435Y-31412D01*
X78337Y-31314D02*
X78337Y-31412D01*
X77162Y-31412D02*
X77162Y-31314D01*
X77064Y-31412D02*
X77162Y-31412D01*
X77162Y-32587D02*
X77064Y-32587D01*
X77162Y-32685D02*
X77162Y-32587D01*
X78337Y-32587D02*
X78337Y-32685D01*
X78435Y-32587D02*
X78337Y-32587D01*
G54D16*
X75567Y-30185D02*
X75557Y-30195D01*
X75529Y-30204D01*
X75510Y-30204D01*
X75482Y-30195D01*
X75463Y-30176D01*
X75454Y-30157D01*
X75445Y-30120D01*
X75445Y-30092D01*
X75454Y-30054D01*
X75463Y-30035D01*
X75482Y-30017D01*
X75510Y-30007D01*
X75529Y-30007D01*
X75557Y-30017D01*
X75567Y-30026D01*
X75632Y-30007D02*
X75764Y-30007D01*
X75679Y-30204D01*
X75323Y-29798D02*
X75323Y-29929D01*
X75276Y-29723D02*
X75229Y-29864D01*
X75351Y-29864D01*
X75426Y-29910D02*
X75435Y-29920D01*
X75426Y-29929D01*
X75417Y-29920D01*
X75426Y-29910D01*
X75426Y-29929D01*
X75501Y-29732D02*
X75632Y-29732D01*
X75548Y-29929D01*
X75792Y-29798D02*
X75792Y-29929D01*
X75707Y-29798D02*
X75707Y-29901D01*
X75717Y-29920D01*
X75736Y-29929D01*
X75764Y-29929D01*
X75782Y-29920D01*
X75792Y-29910D01*
X75951Y-29826D02*
X75886Y-29826D01*
X75886Y-29929D02*
X75886Y-29732D01*
X75979Y-29732D01*
G54D17*
X75876Y-31750D02*
X75876Y-31810D01*
X75980Y-31810D02*
X75780Y-31810D01*
X75780Y-31724D01*
X75876Y-31595D02*
X75885Y-31570D01*
X75895Y-31561D01*
X75914Y-31552D01*
X75942Y-31552D01*
X75961Y-31561D01*
X75971Y-31570D01*
X75980Y-31587D01*
X75980Y-31655D01*
X75780Y-31655D01*
X75780Y-31595D01*
X75790Y-31578D01*
X75800Y-31570D01*
X75819Y-31561D01*
X75838Y-31561D01*
X75857Y-31570D01*
X75866Y-31578D01*
X75876Y-31595D01*
X75876Y-31655D01*
X75980Y-31381D02*
X75980Y-31484D01*
X75980Y-31432D02*
X75780Y-31432D01*
X75809Y-31450D01*
X75828Y-31467D01*
X75838Y-31484D01*
X78880Y-30550D02*
X79023Y-30550D01*
X79052Y-30558D01*
X79071Y-30575D01*
X79080Y-30601D01*
X79080Y-30618D01*
X79080Y-30464D02*
X78880Y-30464D01*
X78880Y-30395D01*
X78890Y-30378D01*
X78900Y-30370D01*
X78919Y-30361D01*
X78947Y-30361D01*
X78966Y-30370D01*
X78976Y-30378D01*
X78985Y-30395D01*
X78985Y-30464D01*
X79080Y-30190D02*
X79080Y-30292D01*
X79080Y-30241D02*
X78880Y-30241D01*
X78909Y-30258D01*
X78928Y-30275D01*
X78938Y-30292D01*
G54D14*
X78905Y-32370D02*
X78840Y-32410D01*
X78905Y-32438D02*
X78767Y-32438D01*
X78767Y-32392D01*
X78774Y-32381D01*
X78781Y-32375D01*
X78794Y-32370D01*
X78813Y-32370D01*
X78827Y-32375D01*
X78833Y-32381D01*
X78840Y-32392D01*
X78840Y-32438D01*
X78767Y-32330D02*
X78767Y-32255D01*
X78820Y-32295D01*
X78820Y-32278D01*
X78827Y-32267D01*
X78833Y-32261D01*
X78846Y-32255D01*
X78879Y-32255D01*
X78892Y-32261D01*
X78899Y-32267D01*
X78905Y-32278D01*
X78905Y-32312D01*
X78899Y-32324D01*
X78892Y-32330D01*
X78905Y-31620D02*
X78840Y-31660D01*
X78905Y-31688D02*
X78767Y-31688D01*
X78767Y-31642D01*
X78774Y-31631D01*
X78781Y-31625D01*
X78794Y-31620D01*
X78813Y-31620D01*
X78827Y-31625D01*
X78833Y-31631D01*
X78840Y-31642D01*
X78840Y-31688D01*
X78813Y-31517D02*
X78905Y-31517D01*
X78761Y-31545D02*
X78859Y-31574D01*
X78859Y-31500D01*
X77580Y-29955D02*
X77540Y-29890D01*
X77511Y-29955D02*
X77511Y-29817D01*
X77557Y-29817D01*
X77568Y-29824D01*
X77574Y-29831D01*
X77580Y-29844D01*
X77580Y-29863D01*
X77574Y-29877D01*
X77568Y-29883D01*
X77557Y-29890D01*
X77511Y-29890D01*
X77625Y-29831D02*
X77631Y-29824D01*
X77642Y-29817D01*
X77671Y-29817D01*
X77682Y-29824D01*
X77688Y-29831D01*
X77694Y-29844D01*
X77694Y-29857D01*
X77688Y-29877D01*
X77620Y-29955D01*
X77694Y-29955D01*
X76155Y-32620D02*
X76090Y-32660D01*
X76155Y-32688D02*
X76017Y-32688D01*
X76017Y-32642D01*
X76024Y-32631D01*
X76031Y-32625D01*
X76044Y-32620D01*
X76063Y-32620D01*
X76077Y-32625D01*
X76083Y-32631D01*
X76090Y-32642D01*
X76090Y-32688D01*
X76155Y-32505D02*
X76155Y-32574D01*
X76155Y-32540D02*
X76017Y-32540D01*
X76037Y-32551D01*
X76050Y-32562D01*
X76057Y-32574D01*
X75442Y-31445D02*
X75449Y-31450D01*
X75455Y-31467D01*
X75455Y-31479D01*
X75449Y-31496D01*
X75436Y-31507D01*
X75423Y-31513D01*
X75396Y-31519D01*
X75377Y-31519D01*
X75350Y-31513D01*
X75337Y-31507D01*
X75324Y-31496D01*
X75317Y-31479D01*
X75317Y-31467D01*
X75324Y-31450D01*
X75331Y-31445D01*
X75317Y-31405D02*
X75317Y-31330D01*
X75370Y-31370D01*
X75370Y-31353D01*
X75377Y-31342D01*
X75383Y-31336D01*
X75396Y-31330D01*
X75429Y-31330D01*
X75442Y-31336D01*
X75449Y-31342D01*
X75455Y-31353D01*
X75455Y-31387D01*
X75449Y-31399D01*
X75442Y-31405D01*
X76780Y-29942D02*
X76774Y-29949D01*
X76757Y-29955D01*
X76745Y-29955D01*
X76728Y-29949D01*
X76717Y-29936D01*
X76711Y-29923D01*
X76705Y-29896D01*
X76705Y-29877D01*
X76711Y-29850D01*
X76717Y-29837D01*
X76728Y-29824D01*
X76745Y-29817D01*
X76757Y-29817D01*
X76774Y-29824D01*
X76780Y-29831D01*
X76825Y-29831D02*
X76831Y-29824D01*
X76842Y-29817D01*
X76871Y-29817D01*
X76882Y-29824D01*
X76888Y-29831D01*
X76894Y-29844D01*
X76894Y-29857D01*
X76888Y-29877D01*
X76820Y-29955D01*
X76894Y-29955D01*
X75642Y-32620D02*
X75649Y-32625D01*
X75655Y-32642D01*
X75655Y-32654D01*
X75649Y-32671D01*
X75636Y-32682D01*
X75623Y-32688D01*
X75596Y-32694D01*
X75577Y-32694D01*
X75550Y-32688D01*
X75537Y-32682D01*
X75524Y-32671D01*
X75517Y-32654D01*
X75517Y-32642D01*
X75524Y-32625D01*
X75531Y-32620D01*
X75655Y-32505D02*
X75655Y-32574D01*
X75655Y-32540D02*
X75517Y-32540D01*
X75537Y-32551D01*
X75550Y-32562D01*
X75557Y-32574D01*
X77742Y-33420D02*
X77749Y-33425D01*
X77755Y-33442D01*
X77755Y-33454D01*
X77749Y-33471D01*
X77736Y-33482D01*
X77723Y-33488D01*
X77696Y-33494D01*
X77677Y-33494D01*
X77650Y-33488D01*
X77637Y-33482D01*
X77624Y-33471D01*
X77617Y-33454D01*
X77617Y-33442D01*
X77624Y-33425D01*
X77631Y-33420D01*
X77617Y-33317D02*
X77617Y-33340D01*
X77624Y-33351D01*
X77631Y-33357D01*
X77650Y-33368D01*
X77677Y-33374D01*
X77729Y-33374D01*
X77742Y-33368D01*
X77749Y-33362D01*
X77755Y-33351D01*
X77755Y-33328D01*
X77749Y-33317D01*
X77742Y-33311D01*
X77729Y-33305D01*
X77696Y-33305D01*
X77683Y-33311D01*
X77677Y-33317D01*
X77670Y-33328D01*
X77670Y-33351D01*
X77677Y-33362D01*
X77683Y-33368D01*
X77696Y-33374D01*
X77380Y-30942D02*
X77374Y-30949D01*
X77357Y-30955D01*
X77345Y-30955D01*
X77328Y-30949D01*
X77317Y-30936D01*
X77311Y-30923D01*
X77305Y-30896D01*
X77305Y-30877D01*
X77311Y-30850D01*
X77317Y-30837D01*
X77328Y-30824D01*
X77345Y-30817D01*
X77357Y-30817D01*
X77374Y-30824D01*
X77380Y-30831D01*
X77448Y-30877D02*
X77437Y-30870D01*
X77431Y-30863D01*
X77425Y-30850D01*
X77425Y-30844D01*
X77431Y-30831D01*
X77437Y-30824D01*
X77448Y-30817D01*
X77471Y-30817D01*
X77482Y-30824D01*
X77488Y-30831D01*
X77494Y-30844D01*
X77494Y-30850D01*
X77488Y-30863D01*
X77482Y-30870D01*
X77471Y-30877D01*
X77448Y-30877D01*
X77437Y-30883D01*
X77431Y-30890D01*
X77425Y-30903D01*
X77425Y-30929D01*
X77431Y-30942D01*
X77437Y-30949D01*
X77448Y-30955D01*
X77471Y-30955D01*
X77482Y-30949D01*
X77488Y-30942D01*
X77494Y-30929D01*
X77494Y-30903D01*
X77488Y-30890D01*
X77482Y-30883D01*
X77471Y-30877D01*
X79242Y-31620D02*
X79249Y-31625D01*
X79255Y-31642D01*
X79255Y-31654D01*
X79249Y-31671D01*
X79236Y-31682D01*
X79223Y-31688D01*
X79196Y-31694D01*
X79177Y-31694D01*
X79150Y-31688D01*
X79137Y-31682D01*
X79124Y-31671D01*
X79117Y-31654D01*
X79117Y-31642D01*
X79124Y-31625D01*
X79131Y-31620D01*
X79163Y-31517D02*
X79255Y-31517D01*
X79111Y-31545D02*
X79209Y-31574D01*
X79209Y-31500D01*
X79242Y-32370D02*
X79249Y-32375D01*
X79255Y-32392D01*
X79255Y-32404D01*
X79249Y-32421D01*
X79236Y-32432D01*
X79223Y-32438D01*
X79196Y-32444D01*
X79177Y-32444D01*
X79150Y-32438D01*
X79137Y-32432D01*
X79124Y-32421D01*
X79117Y-32404D01*
X79117Y-32392D01*
X79124Y-32375D01*
X79131Y-32370D01*
X79117Y-32261D02*
X79117Y-32318D01*
X79183Y-32324D01*
X79177Y-32318D01*
X79170Y-32307D01*
X79170Y-32278D01*
X79177Y-32267D01*
X79183Y-32261D01*
X79196Y-32255D01*
X79229Y-32255D01*
X79242Y-32261D01*
X79249Y-32267D01*
X79255Y-32278D01*
X79255Y-32307D01*
X79249Y-32318D01*
X79242Y-32324D01*
%LPC*%
G54D18*
X76225Y-33275D03*
X79125Y-33425D03*
X76900Y-30800D03*
G54D19*
X76585Y-32866D03*
X76585Y-31134D03*
G54D20*
X75000Y-29000D03*
G54D21*
X76000Y-29000D03*
X77000Y-29000D03*
X78000Y-29000D03*
X79000Y-29000D03*
G54D20*
X75000Y-35000D03*
G54D21*
X76000Y-35000D03*
X77000Y-35000D03*
X78000Y-35000D03*
X79000Y-35000D03*
G54D22*
X75975Y-30000D03*
X75225Y-30000D03*
G54D23*
X75900Y-31900D03*
X75900Y-31300D03*
X79000Y-30700D03*
X79000Y-30100D03*
G54D24*
X78850Y-32173D03*
X78850Y-32527D03*
X78850Y-31777D03*
X78850Y-31423D03*
G54D25*
X77777Y-29900D03*
X77423Y-29900D03*
G54D24*
X76100Y-32777D03*
X76100Y-32423D03*
X75400Y-31602D03*
X75400Y-31248D03*
G54D25*
X76977Y-29900D03*
X76623Y-29900D03*
G54D24*
X75600Y-32777D03*
X75600Y-32423D03*
X77700Y-33223D03*
X77700Y-33577D03*
G54D25*
X77577Y-30900D03*
X77223Y-30900D03*
G54D24*
X79200Y-31777D03*
X79200Y-31423D03*
X79200Y-32173D03*
X79200Y-32527D03*
G54D18*
X76500Y-29525D03*
G54D26*
X77750Y-32000D03*
G54D27*
X78192Y-31409D03*
X78015Y-31409D03*
X77838Y-31409D03*
X77661Y-31409D03*
X77484Y-31409D03*
X77307Y-31409D03*
X77307Y-32590D03*
X77484Y-32590D03*
X77661Y-32590D03*
X77838Y-32590D03*
X78015Y-32590D03*
X78192Y-32590D03*
M02*
