G04 (created by PCBNEW (2013-june-11)-stable) date Sun 16 Feb 2014 09:23:25 PM PST*
%MOIN*%
G04 Gerber Fmt 3.4, Leading zero omitted, Abs format*
%FSLAX34Y34*%
G01*
G70*
G90*
G04 APERTURE LIST*
%ADD10C,0.00590551*%
%ADD11C,0.015*%
%ADD12C,0.008*%
%ADD13R,0.0906X0.0197*%
%ADD14R,0.0984X0.0787*%
%ADD15C,0.0354*%
%ADD16R,0.055X0.055*%
%ADD17C,0.055*%
G04 APERTURE END LIST*
G54D10*
G54D11*
X78333Y-34016D02*
X78333Y-30984D01*
X77939Y-34016D02*
X77939Y-30984D01*
X77939Y-30984D02*
X81561Y-30984D01*
X81561Y-30984D02*
X81561Y-34016D01*
X81561Y-34016D02*
X77939Y-34016D01*
G54D12*
X80235Y-29906D02*
X80254Y-29925D01*
X80311Y-29944D01*
X80350Y-29944D01*
X80407Y-29925D01*
X80445Y-29887D01*
X80464Y-29849D01*
X80483Y-29773D01*
X80483Y-29716D01*
X80464Y-29640D01*
X80445Y-29602D01*
X80407Y-29563D01*
X80350Y-29544D01*
X80311Y-29544D01*
X80254Y-29563D01*
X80235Y-29583D01*
X79988Y-29544D02*
X79911Y-29544D01*
X79873Y-29563D01*
X79835Y-29602D01*
X79816Y-29678D01*
X79816Y-29811D01*
X79835Y-29887D01*
X79873Y-29925D01*
X79911Y-29944D01*
X79988Y-29944D01*
X80026Y-29925D01*
X80064Y-29887D01*
X80083Y-29811D01*
X80083Y-29678D01*
X80064Y-29602D01*
X80026Y-29563D01*
X79988Y-29544D01*
X79645Y-29944D02*
X79645Y-29544D01*
X79416Y-29944D01*
X79416Y-29544D01*
X79016Y-29944D02*
X79245Y-29944D01*
X79130Y-29944D02*
X79130Y-29544D01*
X79169Y-29602D01*
X79207Y-29640D01*
X79245Y-29659D01*
%LPC*%
G54D13*
X81108Y-33130D03*
X81108Y-32815D03*
X81108Y-32500D03*
X81108Y-32185D03*
X81108Y-31870D03*
G54D14*
X81069Y-34252D03*
X78904Y-34252D03*
X81069Y-30748D03*
X78904Y-30748D03*
G54D15*
X80085Y-33366D03*
X80085Y-31634D03*
G54D16*
X78500Y-35000D03*
G54D17*
X79500Y-35000D03*
X80500Y-35000D03*
X81500Y-35000D03*
G54D16*
X81500Y-30000D03*
G54D17*
X80500Y-30000D03*
X79500Y-30000D03*
X78500Y-30000D03*
M02*
