G04 (created by PCBNEW (2013-june-11)-stable) date Sun 16 Feb 2014 08:29:20 PM PST*
%MOIN*%
G04 Gerber Fmt 3.4, Leading zero omitted, Abs format*
%FSLAX34Y34*%
G01*
G70*
G90*
G04 APERTURE LIST*
%ADD10C,0.00590551*%
%ADD11R,0.035X0.055*%
%ADD12R,0.045X0.025*%
%ADD13R,0.0236X0.0157*%
%ADD14R,0.0157X0.0236*%
%ADD15R,0.0905512X0.0551181*%
%ADD16O,0.00984252X0.0315*%
G04 APERTURE END LIST*
G54D10*
G54D11*
X75975Y-30000D03*
X75225Y-30000D03*
G54D12*
X75900Y-31900D03*
X75900Y-31300D03*
X79000Y-30700D03*
X79000Y-30100D03*
G54D13*
X78850Y-32173D03*
X78850Y-32527D03*
X78850Y-31777D03*
X78850Y-31423D03*
G54D14*
X77777Y-29900D03*
X77423Y-29900D03*
G54D13*
X76100Y-32777D03*
X76100Y-32423D03*
X75400Y-31602D03*
X75400Y-31248D03*
G54D14*
X76977Y-29900D03*
X76623Y-29900D03*
G54D13*
X75600Y-32777D03*
X75600Y-32423D03*
X77700Y-33223D03*
X77700Y-33577D03*
G54D14*
X77577Y-30900D03*
X77223Y-30900D03*
G54D13*
X79200Y-31777D03*
X79200Y-31423D03*
X79200Y-32173D03*
X79200Y-32527D03*
G54D15*
X77750Y-32000D03*
G54D16*
X78192Y-31409D03*
X78015Y-31409D03*
X77838Y-31409D03*
X77661Y-31409D03*
X77484Y-31409D03*
X77307Y-31409D03*
X77307Y-32590D03*
X77484Y-32590D03*
X77661Y-32590D03*
X77838Y-32590D03*
X78015Y-32590D03*
X78192Y-32590D03*
M02*
