G04 (created by PCBNEW (2013-june-11)-stable) date Wed 21 May 2014 07:10:03 PM PDT*
%MOIN*%
G04 Gerber Fmt 3.4, Leading zero omitted, Abs format*
%FSLAX34Y34*%
G01*
G70*
G90*
G04 APERTURE LIST*
%ADD10C,0.00590551*%
%ADD11C,0.005*%
G04 APERTURE END LIST*
G54D10*
G54D11*
X21526Y-13930D02*
X21526Y-13730D01*
X21459Y-13873D01*
X21392Y-13730D01*
X21392Y-13930D01*
X21211Y-13797D02*
X21211Y-13930D01*
X21259Y-13721D02*
X21307Y-13864D01*
X21183Y-13864D01*
X21002Y-13930D02*
X21116Y-13930D01*
X21059Y-13930D02*
X21059Y-13730D01*
X21078Y-13759D01*
X21097Y-13778D01*
X21116Y-13788D01*
X20945Y-13730D02*
X20830Y-13730D01*
X20888Y-13930D02*
X20888Y-13730D01*
X20678Y-13730D02*
X20716Y-13730D01*
X20735Y-13740D01*
X20745Y-13750D01*
X20764Y-13778D01*
X20773Y-13816D01*
X20773Y-13892D01*
X20764Y-13911D01*
X20754Y-13921D01*
X20735Y-13930D01*
X20697Y-13930D01*
X20678Y-13921D01*
X20669Y-13911D01*
X20659Y-13892D01*
X20659Y-13845D01*
X20669Y-13826D01*
X20678Y-13816D01*
X20697Y-13807D01*
X20735Y-13807D01*
X20754Y-13816D01*
X20764Y-13826D01*
X20773Y-13845D01*
X20583Y-13750D02*
X20573Y-13740D01*
X20554Y-13730D01*
X20507Y-13730D01*
X20488Y-13740D01*
X20478Y-13750D01*
X20469Y-13769D01*
X20469Y-13788D01*
X20478Y-13816D01*
X20592Y-13930D01*
X20469Y-13930D01*
X20135Y-13930D02*
X20230Y-13930D01*
X20230Y-13730D01*
X19954Y-13911D02*
X19964Y-13921D01*
X19992Y-13930D01*
X20011Y-13930D01*
X20040Y-13921D01*
X20059Y-13902D01*
X20069Y-13883D01*
X20078Y-13845D01*
X20078Y-13816D01*
X20069Y-13778D01*
X20059Y-13759D01*
X20040Y-13740D01*
X20011Y-13730D01*
X19992Y-13730D01*
X19964Y-13740D01*
X19954Y-13750D01*
X19754Y-13911D02*
X19764Y-13921D01*
X19792Y-13930D01*
X19811Y-13930D01*
X19840Y-13921D01*
X19859Y-13902D01*
X19869Y-13883D01*
X19878Y-13845D01*
X19878Y-13816D01*
X19869Y-13778D01*
X19859Y-13759D01*
X19840Y-13740D01*
X19811Y-13730D01*
X19792Y-13730D01*
X19764Y-13740D01*
X19754Y-13750D01*
X19640Y-13816D02*
X19659Y-13807D01*
X19669Y-13797D01*
X19678Y-13778D01*
X19678Y-13769D01*
X19669Y-13750D01*
X19659Y-13740D01*
X19640Y-13730D01*
X19602Y-13730D01*
X19583Y-13740D01*
X19573Y-13750D01*
X19564Y-13769D01*
X19564Y-13778D01*
X19573Y-13797D01*
X19583Y-13807D01*
X19602Y-13816D01*
X19640Y-13816D01*
X19659Y-13826D01*
X19669Y-13835D01*
X19678Y-13854D01*
X19678Y-13892D01*
X19669Y-13911D01*
X19659Y-13921D01*
X19640Y-13930D01*
X19602Y-13930D01*
X19583Y-13921D01*
X19573Y-13911D01*
X19564Y-13892D01*
X19564Y-13854D01*
X19573Y-13835D01*
X19583Y-13826D01*
X19602Y-13816D01*
X21321Y-14260D02*
X21321Y-14060D01*
X21273Y-14060D01*
X21245Y-14070D01*
X21226Y-14089D01*
X21216Y-14108D01*
X21207Y-14146D01*
X21207Y-14175D01*
X21216Y-14213D01*
X21226Y-14232D01*
X21245Y-14251D01*
X21273Y-14260D01*
X21321Y-14260D01*
X21121Y-14260D02*
X21121Y-14060D01*
X21026Y-14260D02*
X21026Y-14060D01*
X20950Y-14060D01*
X20930Y-14070D01*
X20921Y-14080D01*
X20911Y-14099D01*
X20911Y-14127D01*
X20921Y-14146D01*
X20930Y-14156D01*
X20950Y-14165D01*
X21026Y-14165D01*
X20588Y-14251D02*
X20607Y-14260D01*
X20645Y-14260D01*
X20664Y-14251D01*
X20673Y-14241D01*
X20683Y-14222D01*
X20683Y-14165D01*
X20673Y-14146D01*
X20664Y-14137D01*
X20645Y-14127D01*
X20607Y-14127D01*
X20588Y-14137D01*
X20416Y-14260D02*
X20416Y-14156D01*
X20426Y-14137D01*
X20445Y-14127D01*
X20483Y-14127D01*
X20502Y-14137D01*
X20416Y-14251D02*
X20435Y-14260D01*
X20483Y-14260D01*
X20502Y-14251D01*
X20511Y-14232D01*
X20511Y-14213D01*
X20502Y-14194D01*
X20483Y-14184D01*
X20435Y-14184D01*
X20416Y-14175D01*
X20321Y-14260D02*
X20321Y-14127D01*
X20321Y-14165D02*
X20311Y-14146D01*
X20302Y-14137D01*
X20283Y-14127D01*
X20264Y-14127D01*
X20197Y-14260D02*
X20197Y-14127D01*
X20197Y-14165D02*
X20188Y-14146D01*
X20178Y-14137D01*
X20159Y-14127D01*
X20140Y-14127D01*
X20073Y-14260D02*
X20073Y-14127D01*
X20073Y-14060D02*
X20083Y-14070D01*
X20073Y-14080D01*
X20064Y-14070D01*
X20073Y-14060D01*
X20073Y-14080D01*
X19902Y-14251D02*
X19921Y-14260D01*
X19959Y-14260D01*
X19978Y-14251D01*
X19988Y-14232D01*
X19988Y-14156D01*
X19978Y-14137D01*
X19959Y-14127D01*
X19921Y-14127D01*
X19902Y-14137D01*
X19892Y-14156D01*
X19892Y-14175D01*
X19988Y-14194D01*
X19807Y-14260D02*
X19807Y-14127D01*
X19807Y-14165D02*
X19797Y-14146D01*
X19788Y-14137D01*
X19769Y-14127D01*
X19749Y-14127D01*
X21369Y-14457D02*
X21321Y-14590D01*
X21273Y-14457D01*
X21121Y-14581D02*
X21140Y-14590D01*
X21178Y-14590D01*
X21197Y-14581D01*
X21207Y-14562D01*
X21207Y-14486D01*
X21197Y-14467D01*
X21178Y-14457D01*
X21140Y-14457D01*
X21121Y-14467D01*
X21111Y-14486D01*
X21111Y-14505D01*
X21207Y-14524D01*
X21026Y-14590D02*
X21026Y-14457D01*
X21026Y-14495D02*
X21016Y-14476D01*
X21007Y-14467D01*
X20988Y-14457D01*
X20969Y-14457D01*
X20911Y-14581D02*
X20892Y-14590D01*
X20854Y-14590D01*
X20835Y-14581D01*
X20826Y-14562D01*
X20826Y-14552D01*
X20835Y-14533D01*
X20854Y-14524D01*
X20883Y-14524D01*
X20902Y-14514D01*
X20911Y-14495D01*
X20911Y-14486D01*
X20902Y-14467D01*
X20883Y-14457D01*
X20854Y-14457D01*
X20835Y-14467D01*
X20740Y-14590D02*
X20740Y-14457D01*
X20740Y-14390D02*
X20750Y-14400D01*
X20740Y-14410D01*
X20730Y-14400D01*
X20740Y-14390D01*
X20740Y-14410D01*
X20616Y-14590D02*
X20635Y-14581D01*
X20645Y-14571D01*
X20654Y-14552D01*
X20654Y-14495D01*
X20645Y-14476D01*
X20635Y-14467D01*
X20616Y-14457D01*
X20588Y-14457D01*
X20569Y-14467D01*
X20559Y-14476D01*
X20550Y-14495D01*
X20550Y-14552D01*
X20559Y-14571D01*
X20569Y-14581D01*
X20588Y-14590D01*
X20616Y-14590D01*
X20464Y-14457D02*
X20464Y-14590D01*
X20464Y-14476D02*
X20454Y-14467D01*
X20435Y-14457D01*
X20407Y-14457D01*
X20388Y-14467D01*
X20378Y-14486D01*
X20378Y-14590D01*
X20026Y-14590D02*
X20140Y-14590D01*
X20083Y-14590D02*
X20083Y-14390D01*
X20102Y-14419D01*
X20121Y-14438D01*
X20140Y-14448D01*
X19940Y-14571D02*
X19930Y-14581D01*
X19940Y-14590D01*
X19949Y-14581D01*
X19940Y-14571D01*
X19940Y-14590D01*
X19807Y-14390D02*
X19788Y-14390D01*
X19769Y-14400D01*
X19759Y-14410D01*
X19749Y-14429D01*
X19740Y-14467D01*
X19740Y-14514D01*
X19749Y-14552D01*
X19759Y-14571D01*
X19769Y-14581D01*
X19788Y-14590D01*
X19807Y-14590D01*
X19826Y-14581D01*
X19835Y-14571D01*
X19845Y-14552D01*
X19854Y-14514D01*
X19854Y-14467D01*
X19845Y-14429D01*
X19835Y-14410D01*
X19826Y-14400D01*
X19807Y-14390D01*
M02*
