G04 (created by PCBNEW (2013-june-11)-stable) date Wed 21 May 2014 07:10:03 PM PDT*
%MOIN*%
G04 Gerber Fmt 3.4, Leading zero omitted, Abs format*
%FSLAX34Y34*%
G01*
G70*
G90*
G04 APERTURE LIST*
%ADD10C,0.00590551*%
%ADD11C,0.06*%
%ADD12R,0.0236X0.0157*%
%ADD13R,0.06X0.06*%
%ADD14R,0.019685X0.0314961*%
%ADD15C,0.035*%
%ADD16C,0.01*%
G04 APERTURE END LIST*
G54D10*
G54D11*
X21500Y-13000D03*
X20500Y-13000D03*
X19500Y-13000D03*
G54D12*
X21300Y-14323D03*
X21300Y-14677D03*
G54D13*
X19500Y-16000D03*
G54D11*
X20500Y-16000D03*
X21500Y-16000D03*
G54D14*
X19718Y-14263D03*
X20072Y-14263D03*
X20781Y-14263D03*
X20427Y-14263D03*
X20427Y-14736D03*
X20781Y-14736D03*
X20072Y-14736D03*
X19718Y-14736D03*
G54D15*
X21150Y-15000D03*
G54D16*
X19718Y-14263D02*
X19718Y-13218D01*
X19718Y-13218D02*
X19500Y-13000D01*
X19718Y-14736D02*
X19718Y-15781D01*
X19718Y-15781D02*
X19500Y-16000D01*
X20072Y-14736D02*
X20072Y-15572D01*
X20072Y-15572D02*
X20500Y-16000D01*
X21300Y-14323D02*
X21300Y-13200D01*
X21300Y-13200D02*
X21500Y-13000D01*
X20781Y-14263D02*
X21240Y-14263D01*
X21240Y-14263D02*
X21300Y-14323D01*
X21300Y-14677D02*
X21300Y-14850D01*
X20427Y-14877D02*
X20600Y-15050D01*
X20600Y-15050D02*
X21100Y-15050D01*
X21100Y-15050D02*
X21150Y-15000D01*
X20427Y-14877D02*
X20427Y-14736D01*
X21300Y-14850D02*
X21150Y-15000D01*
X20427Y-14263D02*
X20427Y-13072D01*
X20427Y-13072D02*
X20500Y-13000D01*
M02*
