G04 (created by PCBNEW (2013-june-11)-stable) date Wed 21 May 2014 07:10:03 PM PDT*
%MOIN*%
G04 Gerber Fmt 3.4, Leading zero omitted, Abs format*
%FSLAX34Y34*%
G01*
G70*
G90*
G04 APERTURE LIST*
%ADD10C,0.00590551*%
%ADD11C,0.006*%
%ADD12C,0.0028*%
%ADD13C,0.001*%
G04 APERTURE END LIST*
G54D10*
G54D11*
X22000Y-12500D02*
X22000Y-13500D01*
X22000Y-13500D02*
X19000Y-13500D01*
X19000Y-13500D02*
X19000Y-12500D01*
X19000Y-12500D02*
X22000Y-12500D01*
G54D12*
X21450Y-14400D02*
X21450Y-14200D01*
X21450Y-14200D02*
X21150Y-14200D01*
X21150Y-14200D02*
X21150Y-14400D01*
X21450Y-14600D02*
X21450Y-14800D01*
X21450Y-14800D02*
X21150Y-14800D01*
X21150Y-14800D02*
X21150Y-14600D01*
G54D11*
X19000Y-16500D02*
X19000Y-15500D01*
X19000Y-15500D02*
X22000Y-15500D01*
X22000Y-15500D02*
X22000Y-16500D01*
X22000Y-16500D02*
X19000Y-16500D01*
X20000Y-15500D02*
X20000Y-16500D01*
G54D13*
X19954Y-14559D02*
X19836Y-14559D01*
X19836Y-14559D02*
X19836Y-14440D01*
X19954Y-14559D02*
X19836Y-14440D01*
G54D12*
X21342Y-14634D02*
X21349Y-14640D01*
X21355Y-14657D01*
X21355Y-14668D01*
X21349Y-14685D01*
X21336Y-14697D01*
X21323Y-14702D01*
X21296Y-14708D01*
X21277Y-14708D01*
X21250Y-14702D01*
X21237Y-14697D01*
X21224Y-14685D01*
X21217Y-14668D01*
X21217Y-14657D01*
X21224Y-14640D01*
X21231Y-14634D01*
X21355Y-14520D02*
X21355Y-14588D01*
X21355Y-14554D02*
X21217Y-14554D01*
X21237Y-14565D01*
X21250Y-14577D01*
X21257Y-14588D01*
X21217Y-14445D02*
X21217Y-14434D01*
X21224Y-14422D01*
X21231Y-14417D01*
X21244Y-14411D01*
X21270Y-14405D01*
X21303Y-14405D01*
X21329Y-14411D01*
X21342Y-14417D01*
X21349Y-14422D01*
X21355Y-14434D01*
X21355Y-14445D01*
X21349Y-14457D01*
X21342Y-14462D01*
X21329Y-14468D01*
X21303Y-14474D01*
X21270Y-14474D01*
X21244Y-14468D01*
X21231Y-14462D01*
X21224Y-14457D01*
X21217Y-14445D01*
X21355Y-14291D02*
X21355Y-14360D01*
X21355Y-14325D02*
X21217Y-14325D01*
X21237Y-14337D01*
X21250Y-14348D01*
X21257Y-14360D01*
M02*
