G04 (created by PCBNEW (2013-june-11)-stable) date Sun 26 Jan 2014 07:41:43 PM PST*
%MOIN*%
G04 Gerber Fmt 3.4, Leading zero omitted, Abs format*
%FSLAX34Y34*%
G01*
G70*
G90*
G04 APERTURE LIST*
%ADD10C,0.00590551*%
%ADD11R,0.0216535X0.0314961*%
%ADD12R,0.06X0.06*%
%ADD13C,0.06*%
%ADD14R,0.045X0.025*%
%ADD15C,0.023*%
%ADD16C,0.01*%
%ADD17C,0.006*%
G04 APERTURE END LIST*
G54D10*
G54D11*
X74374Y-28972D03*
X74000Y-28972D03*
X73625Y-28972D03*
X74374Y-28027D03*
X73625Y-28027D03*
G54D12*
X73000Y-27000D03*
G54D13*
X74000Y-27000D03*
X75000Y-27000D03*
G54D12*
X73000Y-30000D03*
G54D13*
X74000Y-30000D03*
X75000Y-30000D03*
G54D14*
X73000Y-28200D03*
X73000Y-28800D03*
X75000Y-28800D03*
X75000Y-28200D03*
G54D15*
X75250Y-28750D03*
X74669Y-27930D03*
X74000Y-27800D03*
G54D16*
X75000Y-28800D02*
X75200Y-28800D01*
X75200Y-28800D02*
X75250Y-28750D01*
X74374Y-28027D02*
X74374Y-27625D01*
X74374Y-27625D02*
X75000Y-27000D01*
X73625Y-28027D02*
X73625Y-28075D01*
X74900Y-28300D02*
X75000Y-28200D01*
X73850Y-28300D02*
X74900Y-28300D01*
X73625Y-28075D02*
X73850Y-28300D01*
X73000Y-28200D02*
X73453Y-28200D01*
X73453Y-28200D02*
X73625Y-28027D01*
X73625Y-28027D02*
X73625Y-27625D01*
X73625Y-27625D02*
X73000Y-27000D01*
X74689Y-28460D02*
X73339Y-28460D01*
X73339Y-28460D02*
X73000Y-28800D01*
X74669Y-27930D02*
X75280Y-27930D01*
X74374Y-28775D02*
X74374Y-28972D01*
X74689Y-28460D02*
X74374Y-28775D01*
X75289Y-28460D02*
X74689Y-28460D01*
X75350Y-28400D02*
X75289Y-28460D01*
X75350Y-28000D02*
X75350Y-28400D01*
X75280Y-27930D02*
X75350Y-28000D01*
X74664Y-27935D02*
X74664Y-27946D01*
X74669Y-27930D02*
X74664Y-27935D01*
X74374Y-28972D02*
X74374Y-29374D01*
X74374Y-29374D02*
X75000Y-30000D01*
X74000Y-27800D02*
X74000Y-27000D01*
X73625Y-28972D02*
X73625Y-29374D01*
X73625Y-29374D02*
X73000Y-30000D01*
G54D10*
G36*
X75390Y-27842D02*
X75378Y-27831D01*
X75368Y-27822D01*
X75359Y-27814D01*
X75358Y-27814D01*
X75357Y-27813D01*
X75346Y-27807D01*
X75335Y-27801D01*
X75334Y-27801D01*
X75333Y-27800D01*
X75321Y-27796D01*
X75309Y-27793D01*
X75308Y-27792D01*
X75307Y-27792D01*
X75294Y-27791D01*
X75281Y-27790D01*
X75280Y-27790D01*
X75280Y-27790D01*
X75280Y-27790D01*
X75280Y-27790D01*
X74818Y-27790D01*
X74800Y-27771D01*
X74766Y-27748D01*
X74729Y-27733D01*
X74690Y-27725D01*
X74650Y-27724D01*
X74610Y-27732D01*
X74573Y-27747D01*
X74539Y-27769D01*
X74520Y-27788D01*
X74514Y-27785D01*
X74514Y-27683D01*
X74841Y-27356D01*
X74878Y-27372D01*
X74953Y-27389D01*
X75030Y-27390D01*
X75105Y-27377D01*
X75176Y-27349D01*
X75241Y-27308D01*
X75296Y-27256D01*
X75340Y-27193D01*
X75371Y-27123D01*
X75388Y-27049D01*
X75390Y-26961D01*
X75375Y-26886D01*
X75346Y-26816D01*
X75303Y-26752D01*
X75249Y-26698D01*
X75186Y-26655D01*
X75115Y-26625D01*
X75040Y-26610D01*
X74964Y-26609D01*
X74889Y-26624D01*
X74818Y-26652D01*
X74754Y-26694D01*
X74699Y-26748D01*
X74656Y-26811D01*
X74626Y-26881D01*
X74610Y-26956D01*
X74609Y-27032D01*
X74623Y-27108D01*
X74643Y-27158D01*
X74391Y-27410D01*
X74391Y-27022D01*
X74388Y-26946D01*
X74370Y-26871D01*
X74353Y-26829D01*
X74305Y-26793D01*
X74098Y-27000D01*
X74305Y-27206D01*
X74353Y-27170D01*
X74379Y-27098D01*
X74391Y-27022D01*
X74391Y-27410D01*
X74275Y-27526D01*
X74266Y-27537D01*
X74258Y-27546D01*
X74258Y-27547D01*
X74257Y-27548D01*
X74251Y-27559D01*
X74245Y-27570D01*
X74245Y-27571D01*
X74244Y-27572D01*
X74240Y-27584D01*
X74237Y-27596D01*
X74236Y-27597D01*
X74236Y-27598D01*
X74235Y-27611D01*
X74234Y-27624D01*
X74234Y-27625D01*
X74234Y-27625D01*
X74234Y-27625D01*
X74234Y-27625D01*
X74234Y-27785D01*
X74223Y-27790D01*
X74208Y-27799D01*
X74206Y-27801D01*
X74206Y-27305D01*
X74000Y-27098D01*
X73901Y-27197D01*
X73901Y-27000D01*
X73694Y-26793D01*
X73646Y-26829D01*
X73620Y-26901D01*
X73608Y-26977D01*
X73611Y-27053D01*
X73629Y-27128D01*
X73646Y-27170D01*
X73694Y-27206D01*
X73901Y-27000D01*
X73901Y-27197D01*
X73793Y-27305D01*
X73829Y-27353D01*
X73901Y-27379D01*
X73977Y-27391D01*
X74053Y-27388D01*
X74128Y-27370D01*
X74170Y-27353D01*
X74206Y-27305D01*
X74206Y-27801D01*
X74196Y-27812D01*
X74186Y-27827D01*
X74179Y-27843D01*
X74175Y-27860D01*
X74175Y-27878D01*
X74175Y-28160D01*
X73907Y-28160D01*
X73824Y-28076D01*
X73824Y-27861D01*
X73820Y-27843D01*
X73814Y-27827D01*
X73804Y-27812D01*
X73791Y-27800D01*
X73777Y-27790D01*
X73765Y-27785D01*
X73765Y-27625D01*
X73764Y-27613D01*
X73763Y-27600D01*
X73763Y-27599D01*
X73763Y-27598D01*
X73759Y-27586D01*
X73755Y-27573D01*
X73755Y-27573D01*
X73755Y-27572D01*
X73749Y-27561D01*
X73743Y-27549D01*
X73742Y-27549D01*
X73742Y-27548D01*
X73734Y-27538D01*
X73726Y-27528D01*
X73725Y-27527D01*
X73725Y-27527D01*
X73725Y-27527D01*
X73724Y-27526D01*
X73390Y-27192D01*
X73390Y-26691D01*
X73386Y-26673D01*
X73379Y-26657D01*
X73370Y-26642D01*
X73357Y-26630D01*
X73343Y-26620D01*
X73326Y-26613D01*
X73309Y-26610D01*
X73291Y-26609D01*
X72691Y-26609D01*
X72673Y-26613D01*
X72657Y-26620D01*
X72642Y-26629D01*
X72630Y-26642D01*
X72620Y-26656D01*
X72613Y-26673D01*
X72610Y-26690D01*
X72609Y-26708D01*
X72609Y-27308D01*
X72613Y-27326D01*
X72620Y-27342D01*
X72629Y-27357D01*
X72642Y-27369D01*
X72656Y-27379D01*
X72673Y-27386D01*
X72690Y-27389D01*
X72708Y-27390D01*
X73192Y-27390D01*
X73485Y-27683D01*
X73485Y-27785D01*
X73475Y-27790D01*
X73460Y-27799D01*
X73448Y-27812D01*
X73438Y-27827D01*
X73431Y-27843D01*
X73427Y-27860D01*
X73427Y-27878D01*
X73427Y-28027D01*
X73395Y-28060D01*
X73313Y-28060D01*
X73311Y-28048D01*
X73304Y-28032D01*
X73295Y-28017D01*
X73282Y-28005D01*
X73268Y-27995D01*
X73251Y-27988D01*
X73234Y-27985D01*
X73216Y-27984D01*
X72766Y-27984D01*
X72748Y-27988D01*
X72732Y-27995D01*
X72717Y-28004D01*
X72705Y-28017D01*
X72695Y-28031D01*
X72688Y-28048D01*
X72685Y-28065D01*
X72684Y-28083D01*
X72684Y-28333D01*
X72688Y-28351D01*
X72695Y-28367D01*
X72704Y-28382D01*
X72717Y-28394D01*
X72731Y-28404D01*
X72748Y-28411D01*
X72765Y-28414D01*
X72783Y-28415D01*
X73187Y-28415D01*
X73017Y-28584D01*
X72766Y-28584D01*
X72748Y-28588D01*
X72732Y-28595D01*
X72717Y-28604D01*
X72705Y-28617D01*
X72695Y-28631D01*
X72688Y-28648D01*
X72685Y-28665D01*
X72684Y-28683D01*
X72684Y-28933D01*
X72688Y-28951D01*
X72695Y-28967D01*
X72704Y-28982D01*
X72717Y-28994D01*
X72731Y-29004D01*
X72748Y-29011D01*
X72765Y-29014D01*
X72783Y-29015D01*
X73233Y-29015D01*
X73251Y-29011D01*
X73267Y-29004D01*
X73282Y-28995D01*
X73294Y-28982D01*
X73304Y-28968D01*
X73311Y-28951D01*
X73314Y-28934D01*
X73315Y-28916D01*
X73315Y-28682D01*
X73397Y-28600D01*
X74352Y-28600D01*
X74275Y-28676D01*
X74266Y-28687D01*
X74258Y-28696D01*
X74258Y-28697D01*
X74257Y-28698D01*
X74251Y-28709D01*
X74245Y-28720D01*
X74245Y-28721D01*
X74244Y-28722D01*
X74243Y-28727D01*
X74239Y-28728D01*
X74223Y-28735D01*
X74208Y-28744D01*
X74196Y-28757D01*
X74187Y-28770D01*
X74177Y-28757D01*
X74165Y-28744D01*
X74150Y-28735D01*
X74134Y-28728D01*
X74117Y-28724D01*
X74076Y-28724D01*
X74054Y-28747D01*
X74054Y-28902D01*
X74077Y-28902D01*
X74077Y-29042D01*
X74054Y-29042D01*
X74054Y-29197D01*
X74076Y-29219D01*
X74117Y-29219D01*
X74134Y-29216D01*
X74150Y-29209D01*
X74165Y-29200D01*
X74177Y-29187D01*
X74187Y-29174D01*
X74195Y-29187D01*
X74208Y-29199D01*
X74222Y-29209D01*
X74234Y-29214D01*
X74234Y-29374D01*
X74235Y-29386D01*
X74236Y-29399D01*
X74236Y-29400D01*
X74236Y-29401D01*
X74240Y-29413D01*
X74244Y-29426D01*
X74244Y-29426D01*
X74244Y-29427D01*
X74250Y-29438D01*
X74256Y-29450D01*
X74257Y-29450D01*
X74257Y-29451D01*
X74265Y-29461D01*
X74273Y-29471D01*
X74274Y-29472D01*
X74274Y-29472D01*
X74274Y-29472D01*
X74275Y-29473D01*
X74643Y-29841D01*
X74626Y-29881D01*
X74610Y-29956D01*
X74609Y-30032D01*
X74623Y-30108D01*
X74651Y-30179D01*
X74692Y-30243D01*
X74746Y-30298D01*
X74808Y-30342D01*
X74878Y-30372D01*
X74953Y-30389D01*
X75010Y-30390D01*
X74391Y-30390D01*
X74391Y-30022D01*
X74388Y-29946D01*
X74370Y-29871D01*
X74353Y-29829D01*
X74305Y-29793D01*
X74206Y-29892D01*
X74206Y-29694D01*
X74170Y-29646D01*
X74098Y-29620D01*
X74022Y-29608D01*
X73946Y-29611D01*
X73945Y-29611D01*
X73945Y-29197D01*
X73945Y-29042D01*
X73922Y-29042D01*
X73922Y-28902D01*
X73945Y-28902D01*
X73945Y-28747D01*
X73923Y-28724D01*
X73882Y-28724D01*
X73865Y-28728D01*
X73849Y-28735D01*
X73834Y-28744D01*
X73822Y-28757D01*
X73812Y-28770D01*
X73804Y-28757D01*
X73791Y-28745D01*
X73777Y-28735D01*
X73760Y-28728D01*
X73743Y-28725D01*
X73726Y-28724D01*
X73508Y-28724D01*
X73491Y-28728D01*
X73475Y-28735D01*
X73460Y-28744D01*
X73448Y-28757D01*
X73438Y-28771D01*
X73431Y-28788D01*
X73427Y-28805D01*
X73427Y-28823D01*
X73427Y-29138D01*
X73431Y-29156D01*
X73437Y-29172D01*
X73447Y-29187D01*
X73460Y-29199D01*
X73474Y-29209D01*
X73485Y-29214D01*
X73485Y-29316D01*
X73192Y-29609D01*
X72691Y-29609D01*
X72673Y-29613D01*
X72657Y-29620D01*
X72642Y-29629D01*
X72630Y-29642D01*
X72620Y-29656D01*
X72613Y-29673D01*
X72610Y-29690D01*
X72609Y-29708D01*
X72609Y-30308D01*
X72613Y-30326D01*
X72620Y-30342D01*
X72629Y-30357D01*
X72642Y-30369D01*
X72656Y-30379D01*
X72673Y-30386D01*
X72690Y-30389D01*
X72708Y-30390D01*
X73308Y-30390D01*
X73326Y-30386D01*
X73342Y-30379D01*
X73357Y-30370D01*
X73369Y-30357D01*
X73379Y-30343D01*
X73386Y-30326D01*
X73389Y-30309D01*
X73390Y-30291D01*
X73390Y-29807D01*
X73724Y-29473D01*
X73733Y-29462D01*
X73741Y-29453D01*
X73741Y-29452D01*
X73742Y-29451D01*
X73748Y-29440D01*
X73754Y-29429D01*
X73754Y-29428D01*
X73755Y-29427D01*
X73759Y-29415D01*
X73762Y-29403D01*
X73763Y-29402D01*
X73763Y-29401D01*
X73764Y-29388D01*
X73765Y-29375D01*
X73765Y-29374D01*
X73765Y-29374D01*
X73765Y-29374D01*
X73765Y-29374D01*
X73765Y-29214D01*
X73776Y-29209D01*
X73791Y-29200D01*
X73803Y-29187D01*
X73812Y-29174D01*
X73822Y-29187D01*
X73834Y-29200D01*
X73849Y-29209D01*
X73865Y-29216D01*
X73882Y-29219D01*
X73923Y-29219D01*
X73945Y-29197D01*
X73945Y-29611D01*
X73871Y-29629D01*
X73829Y-29646D01*
X73793Y-29694D01*
X74000Y-29901D01*
X74206Y-29694D01*
X74206Y-29892D01*
X74098Y-30000D01*
X74305Y-30206D01*
X74353Y-30170D01*
X74379Y-30098D01*
X74391Y-30022D01*
X74391Y-30390D01*
X74000Y-30390D01*
X74053Y-30388D01*
X74128Y-30370D01*
X74170Y-30353D01*
X74206Y-30305D01*
X74000Y-30098D01*
X73901Y-30197D01*
X73901Y-30000D01*
X73694Y-29793D01*
X73646Y-29829D01*
X73620Y-29901D01*
X73608Y-29977D01*
X73611Y-30053D01*
X73629Y-30128D01*
X73646Y-30170D01*
X73694Y-30206D01*
X73901Y-30000D01*
X73901Y-30197D01*
X73793Y-30305D01*
X73829Y-30353D01*
X73901Y-30379D01*
X73971Y-30390D01*
X72609Y-30390D01*
X72609Y-26609D01*
X73999Y-26609D01*
X73946Y-26611D01*
X73871Y-26629D01*
X73829Y-26646D01*
X73793Y-26694D01*
X74000Y-26901D01*
X74206Y-26694D01*
X74170Y-26646D01*
X74098Y-26620D01*
X74028Y-26609D01*
X75390Y-26609D01*
X75390Y-27842D01*
X75390Y-27842D01*
G37*
G54D17*
X75390Y-27842D02*
X75378Y-27831D01*
X75368Y-27822D01*
X75359Y-27814D01*
X75358Y-27814D01*
X75357Y-27813D01*
X75346Y-27807D01*
X75335Y-27801D01*
X75334Y-27801D01*
X75333Y-27800D01*
X75321Y-27796D01*
X75309Y-27793D01*
X75308Y-27792D01*
X75307Y-27792D01*
X75294Y-27791D01*
X75281Y-27790D01*
X75280Y-27790D01*
X75280Y-27790D01*
X75280Y-27790D01*
X75280Y-27790D01*
X74818Y-27790D01*
X74800Y-27771D01*
X74766Y-27748D01*
X74729Y-27733D01*
X74690Y-27725D01*
X74650Y-27724D01*
X74610Y-27732D01*
X74573Y-27747D01*
X74539Y-27769D01*
X74520Y-27788D01*
X74514Y-27785D01*
X74514Y-27683D01*
X74841Y-27356D01*
X74878Y-27372D01*
X74953Y-27389D01*
X75030Y-27390D01*
X75105Y-27377D01*
X75176Y-27349D01*
X75241Y-27308D01*
X75296Y-27256D01*
X75340Y-27193D01*
X75371Y-27123D01*
X75388Y-27049D01*
X75390Y-26961D01*
X75375Y-26886D01*
X75346Y-26816D01*
X75303Y-26752D01*
X75249Y-26698D01*
X75186Y-26655D01*
X75115Y-26625D01*
X75040Y-26610D01*
X74964Y-26609D01*
X74889Y-26624D01*
X74818Y-26652D01*
X74754Y-26694D01*
X74699Y-26748D01*
X74656Y-26811D01*
X74626Y-26881D01*
X74610Y-26956D01*
X74609Y-27032D01*
X74623Y-27108D01*
X74643Y-27158D01*
X74391Y-27410D01*
X74391Y-27022D01*
X74388Y-26946D01*
X74370Y-26871D01*
X74353Y-26829D01*
X74305Y-26793D01*
X74098Y-27000D01*
X74305Y-27206D01*
X74353Y-27170D01*
X74379Y-27098D01*
X74391Y-27022D01*
X74391Y-27410D01*
X74275Y-27526D01*
X74266Y-27537D01*
X74258Y-27546D01*
X74258Y-27547D01*
X74257Y-27548D01*
X74251Y-27559D01*
X74245Y-27570D01*
X74245Y-27571D01*
X74244Y-27572D01*
X74240Y-27584D01*
X74237Y-27596D01*
X74236Y-27597D01*
X74236Y-27598D01*
X74235Y-27611D01*
X74234Y-27624D01*
X74234Y-27625D01*
X74234Y-27625D01*
X74234Y-27625D01*
X74234Y-27625D01*
X74234Y-27785D01*
X74223Y-27790D01*
X74208Y-27799D01*
X74206Y-27801D01*
X74206Y-27305D01*
X74000Y-27098D01*
X73901Y-27197D01*
X73901Y-27000D01*
X73694Y-26793D01*
X73646Y-26829D01*
X73620Y-26901D01*
X73608Y-26977D01*
X73611Y-27053D01*
X73629Y-27128D01*
X73646Y-27170D01*
X73694Y-27206D01*
X73901Y-27000D01*
X73901Y-27197D01*
X73793Y-27305D01*
X73829Y-27353D01*
X73901Y-27379D01*
X73977Y-27391D01*
X74053Y-27388D01*
X74128Y-27370D01*
X74170Y-27353D01*
X74206Y-27305D01*
X74206Y-27801D01*
X74196Y-27812D01*
X74186Y-27827D01*
X74179Y-27843D01*
X74175Y-27860D01*
X74175Y-27878D01*
X74175Y-28160D01*
X73907Y-28160D01*
X73824Y-28076D01*
X73824Y-27861D01*
X73820Y-27843D01*
X73814Y-27827D01*
X73804Y-27812D01*
X73791Y-27800D01*
X73777Y-27790D01*
X73765Y-27785D01*
X73765Y-27625D01*
X73764Y-27613D01*
X73763Y-27600D01*
X73763Y-27599D01*
X73763Y-27598D01*
X73759Y-27586D01*
X73755Y-27573D01*
X73755Y-27573D01*
X73755Y-27572D01*
X73749Y-27561D01*
X73743Y-27549D01*
X73742Y-27549D01*
X73742Y-27548D01*
X73734Y-27538D01*
X73726Y-27528D01*
X73725Y-27527D01*
X73725Y-27527D01*
X73725Y-27527D01*
X73724Y-27526D01*
X73390Y-27192D01*
X73390Y-26691D01*
X73386Y-26673D01*
X73379Y-26657D01*
X73370Y-26642D01*
X73357Y-26630D01*
X73343Y-26620D01*
X73326Y-26613D01*
X73309Y-26610D01*
X73291Y-26609D01*
X72691Y-26609D01*
X72673Y-26613D01*
X72657Y-26620D01*
X72642Y-26629D01*
X72630Y-26642D01*
X72620Y-26656D01*
X72613Y-26673D01*
X72610Y-26690D01*
X72609Y-26708D01*
X72609Y-27308D01*
X72613Y-27326D01*
X72620Y-27342D01*
X72629Y-27357D01*
X72642Y-27369D01*
X72656Y-27379D01*
X72673Y-27386D01*
X72690Y-27389D01*
X72708Y-27390D01*
X73192Y-27390D01*
X73485Y-27683D01*
X73485Y-27785D01*
X73475Y-27790D01*
X73460Y-27799D01*
X73448Y-27812D01*
X73438Y-27827D01*
X73431Y-27843D01*
X73427Y-27860D01*
X73427Y-27878D01*
X73427Y-28027D01*
X73395Y-28060D01*
X73313Y-28060D01*
X73311Y-28048D01*
X73304Y-28032D01*
X73295Y-28017D01*
X73282Y-28005D01*
X73268Y-27995D01*
X73251Y-27988D01*
X73234Y-27985D01*
X73216Y-27984D01*
X72766Y-27984D01*
X72748Y-27988D01*
X72732Y-27995D01*
X72717Y-28004D01*
X72705Y-28017D01*
X72695Y-28031D01*
X72688Y-28048D01*
X72685Y-28065D01*
X72684Y-28083D01*
X72684Y-28333D01*
X72688Y-28351D01*
X72695Y-28367D01*
X72704Y-28382D01*
X72717Y-28394D01*
X72731Y-28404D01*
X72748Y-28411D01*
X72765Y-28414D01*
X72783Y-28415D01*
X73187Y-28415D01*
X73017Y-28584D01*
X72766Y-28584D01*
X72748Y-28588D01*
X72732Y-28595D01*
X72717Y-28604D01*
X72705Y-28617D01*
X72695Y-28631D01*
X72688Y-28648D01*
X72685Y-28665D01*
X72684Y-28683D01*
X72684Y-28933D01*
X72688Y-28951D01*
X72695Y-28967D01*
X72704Y-28982D01*
X72717Y-28994D01*
X72731Y-29004D01*
X72748Y-29011D01*
X72765Y-29014D01*
X72783Y-29015D01*
X73233Y-29015D01*
X73251Y-29011D01*
X73267Y-29004D01*
X73282Y-28995D01*
X73294Y-28982D01*
X73304Y-28968D01*
X73311Y-28951D01*
X73314Y-28934D01*
X73315Y-28916D01*
X73315Y-28682D01*
X73397Y-28600D01*
X74352Y-28600D01*
X74275Y-28676D01*
X74266Y-28687D01*
X74258Y-28696D01*
X74258Y-28697D01*
X74257Y-28698D01*
X74251Y-28709D01*
X74245Y-28720D01*
X74245Y-28721D01*
X74244Y-28722D01*
X74243Y-28727D01*
X74239Y-28728D01*
X74223Y-28735D01*
X74208Y-28744D01*
X74196Y-28757D01*
X74187Y-28770D01*
X74177Y-28757D01*
X74165Y-28744D01*
X74150Y-28735D01*
X74134Y-28728D01*
X74117Y-28724D01*
X74076Y-28724D01*
X74054Y-28747D01*
X74054Y-28902D01*
X74077Y-28902D01*
X74077Y-29042D01*
X74054Y-29042D01*
X74054Y-29197D01*
X74076Y-29219D01*
X74117Y-29219D01*
X74134Y-29216D01*
X74150Y-29209D01*
X74165Y-29200D01*
X74177Y-29187D01*
X74187Y-29174D01*
X74195Y-29187D01*
X74208Y-29199D01*
X74222Y-29209D01*
X74234Y-29214D01*
X74234Y-29374D01*
X74235Y-29386D01*
X74236Y-29399D01*
X74236Y-29400D01*
X74236Y-29401D01*
X74240Y-29413D01*
X74244Y-29426D01*
X74244Y-29426D01*
X74244Y-29427D01*
X74250Y-29438D01*
X74256Y-29450D01*
X74257Y-29450D01*
X74257Y-29451D01*
X74265Y-29461D01*
X74273Y-29471D01*
X74274Y-29472D01*
X74274Y-29472D01*
X74274Y-29472D01*
X74275Y-29473D01*
X74643Y-29841D01*
X74626Y-29881D01*
X74610Y-29956D01*
X74609Y-30032D01*
X74623Y-30108D01*
X74651Y-30179D01*
X74692Y-30243D01*
X74746Y-30298D01*
X74808Y-30342D01*
X74878Y-30372D01*
X74953Y-30389D01*
X75010Y-30390D01*
X74391Y-30390D01*
X74391Y-30022D01*
X74388Y-29946D01*
X74370Y-29871D01*
X74353Y-29829D01*
X74305Y-29793D01*
X74206Y-29892D01*
X74206Y-29694D01*
X74170Y-29646D01*
X74098Y-29620D01*
X74022Y-29608D01*
X73946Y-29611D01*
X73945Y-29611D01*
X73945Y-29197D01*
X73945Y-29042D01*
X73922Y-29042D01*
X73922Y-28902D01*
X73945Y-28902D01*
X73945Y-28747D01*
X73923Y-28724D01*
X73882Y-28724D01*
X73865Y-28728D01*
X73849Y-28735D01*
X73834Y-28744D01*
X73822Y-28757D01*
X73812Y-28770D01*
X73804Y-28757D01*
X73791Y-28745D01*
X73777Y-28735D01*
X73760Y-28728D01*
X73743Y-28725D01*
X73726Y-28724D01*
X73508Y-28724D01*
X73491Y-28728D01*
X73475Y-28735D01*
X73460Y-28744D01*
X73448Y-28757D01*
X73438Y-28771D01*
X73431Y-28788D01*
X73427Y-28805D01*
X73427Y-28823D01*
X73427Y-29138D01*
X73431Y-29156D01*
X73437Y-29172D01*
X73447Y-29187D01*
X73460Y-29199D01*
X73474Y-29209D01*
X73485Y-29214D01*
X73485Y-29316D01*
X73192Y-29609D01*
X72691Y-29609D01*
X72673Y-29613D01*
X72657Y-29620D01*
X72642Y-29629D01*
X72630Y-29642D01*
X72620Y-29656D01*
X72613Y-29673D01*
X72610Y-29690D01*
X72609Y-29708D01*
X72609Y-30308D01*
X72613Y-30326D01*
X72620Y-30342D01*
X72629Y-30357D01*
X72642Y-30369D01*
X72656Y-30379D01*
X72673Y-30386D01*
X72690Y-30389D01*
X72708Y-30390D01*
X73308Y-30390D01*
X73326Y-30386D01*
X73342Y-30379D01*
X73357Y-30370D01*
X73369Y-30357D01*
X73379Y-30343D01*
X73386Y-30326D01*
X73389Y-30309D01*
X73390Y-30291D01*
X73390Y-29807D01*
X73724Y-29473D01*
X73733Y-29462D01*
X73741Y-29453D01*
X73741Y-29452D01*
X73742Y-29451D01*
X73748Y-29440D01*
X73754Y-29429D01*
X73754Y-29428D01*
X73755Y-29427D01*
X73759Y-29415D01*
X73762Y-29403D01*
X73763Y-29402D01*
X73763Y-29401D01*
X73764Y-29388D01*
X73765Y-29375D01*
X73765Y-29374D01*
X73765Y-29374D01*
X73765Y-29374D01*
X73765Y-29374D01*
X73765Y-29214D01*
X73776Y-29209D01*
X73791Y-29200D01*
X73803Y-29187D01*
X73812Y-29174D01*
X73822Y-29187D01*
X73834Y-29200D01*
X73849Y-29209D01*
X73865Y-29216D01*
X73882Y-29219D01*
X73923Y-29219D01*
X73945Y-29197D01*
X73945Y-29611D01*
X73871Y-29629D01*
X73829Y-29646D01*
X73793Y-29694D01*
X74000Y-29901D01*
X74206Y-29694D01*
X74206Y-29892D01*
X74098Y-30000D01*
X74305Y-30206D01*
X74353Y-30170D01*
X74379Y-30098D01*
X74391Y-30022D01*
X74391Y-30390D01*
X74000Y-30390D01*
X74053Y-30388D01*
X74128Y-30370D01*
X74170Y-30353D01*
X74206Y-30305D01*
X74000Y-30098D01*
X73901Y-30197D01*
X73901Y-30000D01*
X73694Y-29793D01*
X73646Y-29829D01*
X73620Y-29901D01*
X73608Y-29977D01*
X73611Y-30053D01*
X73629Y-30128D01*
X73646Y-30170D01*
X73694Y-30206D01*
X73901Y-30000D01*
X73901Y-30197D01*
X73793Y-30305D01*
X73829Y-30353D01*
X73901Y-30379D01*
X73971Y-30390D01*
X72609Y-30390D01*
X72609Y-26609D01*
X73999Y-26609D01*
X73946Y-26611D01*
X73871Y-26629D01*
X73829Y-26646D01*
X73793Y-26694D01*
X74000Y-26901D01*
X74206Y-26694D01*
X74170Y-26646D01*
X74098Y-26620D01*
X74028Y-26609D01*
X75390Y-26609D01*
X75390Y-27842D01*
M02*
