G04 (created by PCBNEW (2013-june-11)-stable) date Sun 26 Jan 2014 07:41:43 PM PST*
%MOIN*%
G04 Gerber Fmt 3.4, Leading zero omitted, Abs format*
%FSLAX34Y34*%
G01*
G70*
G90*
G04 APERTURE LIST*
%ADD10C,0.00590551*%
%ADD11C,0.006*%
%ADD12C,0.005*%
%ADD13C,0.00325*%
G04 APERTURE END LIST*
G54D10*
G54D11*
X72500Y-26500D02*
X72500Y-27500D01*
X72500Y-27500D02*
X75500Y-27500D01*
X75500Y-27500D02*
X75500Y-26500D01*
X75500Y-26500D02*
X72500Y-26500D01*
X73500Y-27500D02*
X73500Y-26500D01*
X72500Y-29500D02*
X72500Y-30500D01*
X72500Y-30500D02*
X75500Y-30500D01*
X75500Y-30500D02*
X75500Y-29500D01*
X75500Y-29500D02*
X72500Y-29500D01*
X73500Y-30500D02*
X73500Y-29500D01*
G54D12*
X75150Y-28450D02*
X75150Y-27550D01*
X75150Y-27550D02*
X74650Y-27550D01*
X74650Y-27550D02*
X74650Y-28450D01*
X74650Y-28450D02*
X75150Y-28450D01*
X72850Y-28550D02*
X72850Y-29450D01*
X72850Y-29450D02*
X73350Y-29450D01*
X73350Y-29450D02*
X73350Y-28550D01*
X73350Y-28550D02*
X72850Y-28550D01*
X73450Y-28550D02*
X73450Y-29450D01*
X73450Y-29450D02*
X73950Y-29450D01*
X73950Y-29450D02*
X73950Y-28550D01*
X73950Y-28550D02*
X73450Y-28550D01*
X74050Y-28550D02*
X74050Y-29450D01*
X74050Y-29450D02*
X74550Y-29450D01*
X74550Y-29450D02*
X74550Y-28550D01*
X74550Y-28550D02*
X74050Y-28550D01*
X74650Y-28550D02*
X74650Y-29450D01*
X74650Y-29450D02*
X75150Y-29450D01*
X75150Y-29450D02*
X75150Y-28550D01*
X75150Y-28550D02*
X74650Y-28550D01*
X73950Y-28450D02*
X73950Y-27550D01*
X73950Y-27550D02*
X73450Y-27550D01*
X73450Y-27550D02*
X73450Y-28450D01*
X73450Y-28450D02*
X73950Y-28450D01*
X74550Y-28450D02*
X74550Y-27550D01*
X74550Y-27550D02*
X74050Y-27550D01*
X74050Y-27550D02*
X74050Y-28450D01*
X74050Y-28450D02*
X74550Y-28450D01*
X72850Y-27550D02*
X72850Y-28450D01*
X72850Y-28450D02*
X73350Y-28450D01*
X73350Y-28450D02*
X73350Y-27550D01*
X73350Y-27550D02*
X72850Y-27550D01*
G54D13*
X75085Y-27922D02*
X75005Y-27922D01*
X75048Y-27972D01*
X75029Y-27972D01*
X75017Y-27978D01*
X75011Y-27984D01*
X75005Y-27996D01*
X75005Y-28027D01*
X75011Y-28040D01*
X75017Y-28046D01*
X75029Y-28052D01*
X75067Y-28052D01*
X75079Y-28046D01*
X75085Y-28040D01*
X74949Y-28003D02*
X74850Y-28003D01*
X74732Y-27965D02*
X74732Y-28052D01*
X74763Y-27916D02*
X74794Y-28009D01*
X74714Y-28009D01*
X73205Y-29052D02*
X73279Y-29052D01*
X73242Y-29052D02*
X73242Y-28922D01*
X73254Y-28941D01*
X73267Y-28953D01*
X73279Y-28959D01*
X73149Y-29003D02*
X73050Y-29003D01*
X72994Y-28935D02*
X72988Y-28928D01*
X72976Y-28922D01*
X72945Y-28922D01*
X72932Y-28928D01*
X72926Y-28935D01*
X72920Y-28947D01*
X72920Y-28959D01*
X72926Y-28978D01*
X73000Y-29052D01*
X72920Y-29052D01*
X73805Y-29052D02*
X73879Y-29052D01*
X73842Y-29052D02*
X73842Y-28922D01*
X73854Y-28941D01*
X73867Y-28953D01*
X73879Y-28959D01*
X73749Y-29003D02*
X73650Y-29003D01*
X73600Y-28922D02*
X73520Y-28922D01*
X73563Y-28972D01*
X73545Y-28972D01*
X73532Y-28978D01*
X73526Y-28984D01*
X73520Y-28996D01*
X73520Y-29027D01*
X73526Y-29040D01*
X73532Y-29046D01*
X73545Y-29052D01*
X73582Y-29052D01*
X73594Y-29046D01*
X73600Y-29040D01*
X74405Y-29052D02*
X74479Y-29052D01*
X74442Y-29052D02*
X74442Y-28922D01*
X74454Y-28941D01*
X74467Y-28953D01*
X74479Y-28959D01*
X74349Y-29003D02*
X74250Y-29003D01*
X74126Y-28922D02*
X74188Y-28922D01*
X74194Y-28984D01*
X74188Y-28978D01*
X74176Y-28972D01*
X74145Y-28972D01*
X74132Y-28978D01*
X74126Y-28984D01*
X74120Y-28996D01*
X74120Y-29027D01*
X74126Y-29040D01*
X74132Y-29046D01*
X74145Y-29052D01*
X74176Y-29052D01*
X74188Y-29046D01*
X74194Y-29040D01*
X75005Y-29052D02*
X75079Y-29052D01*
X75042Y-29052D02*
X75042Y-28922D01*
X75054Y-28941D01*
X75067Y-28953D01*
X75079Y-28959D01*
X74949Y-29003D02*
X74850Y-29003D01*
X74732Y-28965D02*
X74732Y-29052D01*
X74763Y-28916D02*
X74794Y-29009D01*
X74714Y-29009D01*
X73879Y-27935D02*
X73873Y-27928D01*
X73860Y-27922D01*
X73829Y-27922D01*
X73817Y-27928D01*
X73811Y-27935D01*
X73805Y-27947D01*
X73805Y-27959D01*
X73811Y-27978D01*
X73885Y-28052D01*
X73805Y-28052D01*
X73749Y-28003D02*
X73650Y-28003D01*
X73600Y-27922D02*
X73520Y-27922D01*
X73563Y-27972D01*
X73545Y-27972D01*
X73532Y-27978D01*
X73526Y-27984D01*
X73520Y-27996D01*
X73520Y-28027D01*
X73526Y-28040D01*
X73532Y-28046D01*
X73545Y-28052D01*
X73582Y-28052D01*
X73594Y-28046D01*
X73600Y-28040D01*
X74479Y-27935D02*
X74473Y-27928D01*
X74460Y-27922D01*
X74429Y-27922D01*
X74417Y-27928D01*
X74411Y-27935D01*
X74405Y-27947D01*
X74405Y-27959D01*
X74411Y-27978D01*
X74485Y-28052D01*
X74405Y-28052D01*
X74349Y-28003D02*
X74250Y-28003D01*
X74126Y-27922D02*
X74188Y-27922D01*
X74194Y-27984D01*
X74188Y-27978D01*
X74176Y-27972D01*
X74145Y-27972D01*
X74132Y-27978D01*
X74126Y-27984D01*
X74120Y-27996D01*
X74120Y-28027D01*
X74126Y-28040D01*
X74132Y-28046D01*
X74145Y-28052D01*
X74176Y-28052D01*
X74188Y-28046D01*
X74194Y-28040D01*
X73279Y-27935D02*
X73273Y-27928D01*
X73260Y-27922D01*
X73229Y-27922D01*
X73217Y-27928D01*
X73211Y-27935D01*
X73205Y-27947D01*
X73205Y-27959D01*
X73211Y-27978D01*
X73285Y-28052D01*
X73205Y-28052D01*
X73149Y-28003D02*
X73050Y-28003D01*
X72932Y-27965D02*
X72932Y-28052D01*
X72963Y-27916D02*
X72994Y-28009D01*
X72914Y-28009D01*
M02*
