G04 (created by PCBNEW (2013-june-11)-stable) date Sat 19 Jul 2014 01:47:26 PM PDT*
%MOIN*%
G04 Gerber Fmt 3.4, Leading zero omitted, Abs format*
%FSLAX34Y34*%
G01*
G70*
G90*
G04 APERTURE LIST*
%ADD10C,0.00590551*%
%ADD11C,0.00492126*%
%ADD12C,0.005*%
G04 APERTURE END LIST*
G54D10*
G54D11*
X83080Y-37516D02*
X82880Y-37516D01*
X82880Y-37592D01*
X82890Y-37611D01*
X82900Y-37621D01*
X82919Y-37630D01*
X82947Y-37630D01*
X82966Y-37621D01*
X82976Y-37611D01*
X82985Y-37592D01*
X82985Y-37516D01*
X83023Y-37707D02*
X83023Y-37802D01*
X83080Y-37688D02*
X82880Y-37754D01*
X83080Y-37821D01*
X82880Y-37983D02*
X82880Y-37888D01*
X82976Y-37878D01*
X82966Y-37888D01*
X82957Y-37907D01*
X82957Y-37954D01*
X82966Y-37973D01*
X82976Y-37983D01*
X82995Y-37992D01*
X83042Y-37992D01*
X83061Y-37983D01*
X83071Y-37973D01*
X83080Y-37954D01*
X83080Y-37907D01*
X83071Y-37888D01*
X83061Y-37878D01*
X82080Y-37516D02*
X81880Y-37516D01*
X81880Y-37592D01*
X81890Y-37611D01*
X81900Y-37621D01*
X81919Y-37630D01*
X81947Y-37630D01*
X81966Y-37621D01*
X81976Y-37611D01*
X81985Y-37592D01*
X81985Y-37516D01*
X82023Y-37707D02*
X82023Y-37802D01*
X82080Y-37688D02*
X81880Y-37754D01*
X82080Y-37821D01*
X81947Y-37973D02*
X82080Y-37973D01*
X81871Y-37926D02*
X82014Y-37878D01*
X82014Y-38002D01*
X81080Y-37516D02*
X80880Y-37516D01*
X80880Y-37592D01*
X80890Y-37611D01*
X80900Y-37621D01*
X80919Y-37630D01*
X80947Y-37630D01*
X80966Y-37621D01*
X80976Y-37611D01*
X80985Y-37592D01*
X80985Y-37516D01*
X81023Y-37707D02*
X81023Y-37802D01*
X81080Y-37688D02*
X80880Y-37754D01*
X81080Y-37821D01*
X80880Y-37869D02*
X80880Y-37992D01*
X80957Y-37926D01*
X80957Y-37954D01*
X80966Y-37973D01*
X80976Y-37983D01*
X80995Y-37992D01*
X81042Y-37992D01*
X81061Y-37983D01*
X81071Y-37973D01*
X81080Y-37954D01*
X81080Y-37897D01*
X81071Y-37878D01*
X81061Y-37869D01*
X80080Y-37516D02*
X79880Y-37516D01*
X79880Y-37592D01*
X79890Y-37611D01*
X79900Y-37621D01*
X79919Y-37630D01*
X79947Y-37630D01*
X79966Y-37621D01*
X79976Y-37611D01*
X79985Y-37592D01*
X79985Y-37516D01*
X80023Y-37707D02*
X80023Y-37802D01*
X80080Y-37688D02*
X79880Y-37754D01*
X80080Y-37821D01*
X79900Y-37878D02*
X79890Y-37888D01*
X79880Y-37907D01*
X79880Y-37954D01*
X79890Y-37973D01*
X79900Y-37983D01*
X79919Y-37992D01*
X79938Y-37992D01*
X79966Y-37983D01*
X80080Y-37869D01*
X80080Y-37992D01*
X79080Y-37516D02*
X78880Y-37516D01*
X78880Y-37592D01*
X78890Y-37611D01*
X78900Y-37621D01*
X78919Y-37630D01*
X78947Y-37630D01*
X78966Y-37621D01*
X78976Y-37611D01*
X78985Y-37592D01*
X78985Y-37516D01*
X79023Y-37707D02*
X79023Y-37802D01*
X79080Y-37688D02*
X78880Y-37754D01*
X79080Y-37821D01*
X79080Y-37992D02*
X79080Y-37878D01*
X79080Y-37935D02*
X78880Y-37935D01*
X78909Y-37916D01*
X78928Y-37897D01*
X78938Y-37878D01*
X78080Y-37516D02*
X77880Y-37516D01*
X77880Y-37592D01*
X77890Y-37611D01*
X77900Y-37621D01*
X77919Y-37630D01*
X77947Y-37630D01*
X77966Y-37621D01*
X77976Y-37611D01*
X77985Y-37592D01*
X77985Y-37516D01*
X78023Y-37707D02*
X78023Y-37802D01*
X78080Y-37688D02*
X77880Y-37754D01*
X78080Y-37821D01*
X77880Y-37926D02*
X77880Y-37945D01*
X77890Y-37964D01*
X77900Y-37973D01*
X77919Y-37983D01*
X77957Y-37992D01*
X78004Y-37992D01*
X78042Y-37983D01*
X78061Y-37973D01*
X78071Y-37964D01*
X78080Y-37945D01*
X78080Y-37926D01*
X78071Y-37907D01*
X78061Y-37897D01*
X78042Y-37888D01*
X78004Y-37878D01*
X77957Y-37878D01*
X77919Y-37888D01*
X77900Y-37897D01*
X77890Y-37907D01*
X77880Y-37926D01*
X76890Y-37597D02*
X76880Y-37578D01*
X76880Y-37550D01*
X76890Y-37521D01*
X76909Y-37502D01*
X76928Y-37492D01*
X76966Y-37483D01*
X76995Y-37483D01*
X77033Y-37492D01*
X77052Y-37502D01*
X77071Y-37521D01*
X77080Y-37550D01*
X77080Y-37569D01*
X77071Y-37597D01*
X77061Y-37607D01*
X76995Y-37607D01*
X76995Y-37569D01*
X77080Y-37692D02*
X76880Y-37692D01*
X77080Y-37807D01*
X76880Y-37807D01*
X77080Y-37902D02*
X76880Y-37902D01*
X76880Y-37950D01*
X76890Y-37978D01*
X76909Y-37997D01*
X76928Y-38007D01*
X76966Y-38016D01*
X76995Y-38016D01*
X77033Y-38007D01*
X77052Y-37997D01*
X77071Y-37978D01*
X77080Y-37950D01*
X77080Y-37902D01*
G54D12*
X83080Y-39016D02*
X82880Y-39016D01*
X82880Y-39092D01*
X82890Y-39111D01*
X82900Y-39121D01*
X82919Y-39130D01*
X82947Y-39130D01*
X82966Y-39121D01*
X82976Y-39111D01*
X82985Y-39092D01*
X82985Y-39016D01*
X83023Y-39207D02*
X83023Y-39302D01*
X83080Y-39188D02*
X82880Y-39254D01*
X83080Y-39321D01*
X82880Y-39473D02*
X82880Y-39435D01*
X82890Y-39416D01*
X82900Y-39407D01*
X82928Y-39388D01*
X82966Y-39378D01*
X83042Y-39378D01*
X83061Y-39388D01*
X83071Y-39397D01*
X83080Y-39416D01*
X83080Y-39454D01*
X83071Y-39473D01*
X83061Y-39483D01*
X83042Y-39492D01*
X82995Y-39492D01*
X82976Y-39483D01*
X82966Y-39473D01*
X82957Y-39454D01*
X82957Y-39416D01*
X82966Y-39397D01*
X82976Y-39388D01*
X82995Y-39378D01*
X82080Y-39016D02*
X81880Y-39016D01*
X81880Y-39092D01*
X81890Y-39111D01*
X81900Y-39121D01*
X81919Y-39130D01*
X81947Y-39130D01*
X81966Y-39121D01*
X81976Y-39111D01*
X81985Y-39092D01*
X81985Y-39016D01*
X82023Y-39207D02*
X82023Y-39302D01*
X82080Y-39188D02*
X81880Y-39254D01*
X82080Y-39321D01*
X81880Y-39369D02*
X81880Y-39502D01*
X82080Y-39416D01*
X81080Y-39002D02*
X80880Y-39002D01*
X80880Y-39078D01*
X80890Y-39097D01*
X80900Y-39107D01*
X80919Y-39116D01*
X80947Y-39116D01*
X80966Y-39107D01*
X80976Y-39097D01*
X80985Y-39078D01*
X80985Y-39002D01*
X80976Y-39269D02*
X80985Y-39297D01*
X80995Y-39307D01*
X81014Y-39316D01*
X81042Y-39316D01*
X81061Y-39307D01*
X81071Y-39297D01*
X81080Y-39278D01*
X81080Y-39202D01*
X80880Y-39202D01*
X80880Y-39269D01*
X80890Y-39288D01*
X80900Y-39297D01*
X80919Y-39307D01*
X80938Y-39307D01*
X80957Y-39297D01*
X80966Y-39288D01*
X80976Y-39269D01*
X80976Y-39202D01*
X80900Y-39392D02*
X80890Y-39402D01*
X80880Y-39421D01*
X80880Y-39469D01*
X80890Y-39488D01*
X80900Y-39497D01*
X80919Y-39507D01*
X80938Y-39507D01*
X80966Y-39497D01*
X81080Y-39383D01*
X81080Y-39507D01*
X80080Y-39002D02*
X79880Y-39002D01*
X79880Y-39078D01*
X79890Y-39097D01*
X79900Y-39107D01*
X79919Y-39116D01*
X79947Y-39116D01*
X79966Y-39107D01*
X79976Y-39097D01*
X79985Y-39078D01*
X79985Y-39002D01*
X79976Y-39269D02*
X79985Y-39297D01*
X79995Y-39307D01*
X80014Y-39316D01*
X80042Y-39316D01*
X80061Y-39307D01*
X80071Y-39297D01*
X80080Y-39278D01*
X80080Y-39202D01*
X79880Y-39202D01*
X79880Y-39269D01*
X79890Y-39288D01*
X79900Y-39297D01*
X79919Y-39307D01*
X79938Y-39307D01*
X79957Y-39297D01*
X79966Y-39288D01*
X79976Y-39269D01*
X79976Y-39202D01*
X79880Y-39383D02*
X79880Y-39507D01*
X79957Y-39440D01*
X79957Y-39469D01*
X79966Y-39488D01*
X79976Y-39497D01*
X79995Y-39507D01*
X80042Y-39507D01*
X80061Y-39497D01*
X80071Y-39488D01*
X80080Y-39469D01*
X80080Y-39411D01*
X80071Y-39392D01*
X80061Y-39383D01*
X79080Y-39002D02*
X78880Y-39002D01*
X78880Y-39078D01*
X78890Y-39097D01*
X78900Y-39107D01*
X78919Y-39116D01*
X78947Y-39116D01*
X78966Y-39107D01*
X78976Y-39097D01*
X78985Y-39078D01*
X78985Y-39002D01*
X78976Y-39269D02*
X78985Y-39297D01*
X78995Y-39307D01*
X79014Y-39316D01*
X79042Y-39316D01*
X79061Y-39307D01*
X79071Y-39297D01*
X79080Y-39278D01*
X79080Y-39202D01*
X78880Y-39202D01*
X78880Y-39269D01*
X78890Y-39288D01*
X78900Y-39297D01*
X78919Y-39307D01*
X78938Y-39307D01*
X78957Y-39297D01*
X78966Y-39288D01*
X78976Y-39269D01*
X78976Y-39202D01*
X79080Y-39507D02*
X79080Y-39392D01*
X79080Y-39450D02*
X78880Y-39450D01*
X78909Y-39430D01*
X78928Y-39411D01*
X78938Y-39392D01*
X78080Y-39002D02*
X77880Y-39002D01*
X77880Y-39078D01*
X77890Y-39097D01*
X77900Y-39107D01*
X77919Y-39116D01*
X77947Y-39116D01*
X77966Y-39107D01*
X77976Y-39097D01*
X77985Y-39078D01*
X77985Y-39002D01*
X77976Y-39269D02*
X77985Y-39297D01*
X77995Y-39307D01*
X78014Y-39316D01*
X78042Y-39316D01*
X78061Y-39307D01*
X78071Y-39297D01*
X78080Y-39278D01*
X78080Y-39202D01*
X77880Y-39202D01*
X77880Y-39269D01*
X77890Y-39288D01*
X77900Y-39297D01*
X77919Y-39307D01*
X77938Y-39307D01*
X77957Y-39297D01*
X77966Y-39288D01*
X77976Y-39269D01*
X77976Y-39202D01*
X77880Y-39440D02*
X77880Y-39459D01*
X77890Y-39478D01*
X77900Y-39488D01*
X77919Y-39497D01*
X77957Y-39507D01*
X78004Y-39507D01*
X78042Y-39497D01*
X78061Y-39488D01*
X78071Y-39478D01*
X78080Y-39459D01*
X78080Y-39440D01*
X78071Y-39421D01*
X78061Y-39411D01*
X78042Y-39402D01*
X78004Y-39392D01*
X77957Y-39392D01*
X77919Y-39402D01*
X77900Y-39411D01*
X77890Y-39421D01*
X77880Y-39440D01*
G54D11*
X76880Y-39011D02*
X77080Y-39078D01*
X76880Y-39145D01*
X77071Y-39297D02*
X77080Y-39278D01*
X77080Y-39240D01*
X77071Y-39221D01*
X77061Y-39211D01*
X77042Y-39202D01*
X76985Y-39202D01*
X76966Y-39211D01*
X76957Y-39221D01*
X76947Y-39240D01*
X76947Y-39278D01*
X76957Y-39297D01*
X77071Y-39469D02*
X77080Y-39450D01*
X77080Y-39411D01*
X77071Y-39392D01*
X77061Y-39383D01*
X77042Y-39373D01*
X76985Y-39373D01*
X76966Y-39383D01*
X76957Y-39392D01*
X76947Y-39411D01*
X76947Y-39450D01*
X76957Y-39469D01*
M02*
