M48
INCH,TZ
T10C0.010
T11C0.025
T12C0.032
T13C0.039
%
T10
X077850Y-38300
X078260Y-38670
X078414Y-38273
X078679Y-38253
X078680Y-38679
X078750Y-39050
X080050Y-38900
X081600Y-38300
T11
X078600Y-37800
X081300Y-39100
X082300Y-39100
T12
X077000Y-37000
X077000Y-40000
X078000Y-37000
X078000Y-40000
X079000Y-37000
X079000Y-40000
X080000Y-37000
X080000Y-40000
X081000Y-37000
X081000Y-40000
X082000Y-37000
X082000Y-40000
X083000Y-37000
X083000Y-40000
T13
X080800Y-38100
X080800Y-38900
X082800Y-38500
M30

