M48
;DRILL file {Pcbnew (2013-june-11)-stable} date Sat 19 Jul 2014 08:00:19 AM PDT
;FORMAT={-:-/ absolute / inch / decimal}
FMAT,2
INCH,TZ
T1C0.010
T2C0.025
T3C0.032
%
G90
G05
M72
T1
X7.785Y-3.83
X7.826Y-3.867
X7.8414Y-3.8273
X7.8679Y-3.8253
X7.868Y-3.8679
X7.875Y-3.905
X8.005Y-3.89
X8.16Y-3.83
T2
X7.86Y-3.78
X8.13Y-3.91
X8.23Y-3.91
T3
X7.7Y-3.7
X7.7Y-4.
X7.8Y-3.7
X7.8Y-4.
X7.9Y-3.7
X7.9Y-4.
X8.Y-3.7
X8.Y-4.
X8.1Y-3.7
X8.1Y-4.
X8.2Y-3.7
X8.2Y-4.
X8.3Y-3.7
X8.3Y-4.
T0
M30
