G04 (created by PCBNEW (2013-june-11)-stable) date Sat 19 Jul 2014 07:59:30 AM PDT*
%MOIN*%
G04 Gerber Fmt 3.4, Leading zero omitted, Abs format*
%FSLAX34Y34*%
G01*
G70*
G90*
G04 APERTURE LIST*
%ADD10C,0.00590551*%
%ADD11R,0.055X0.055*%
%ADD12C,0.055*%
%ADD13C,0.035*%
%ADD14C,0.018*%
%ADD15C,0.005*%
G04 APERTURE END LIST*
G54D10*
G54D11*
X77000Y-40000D03*
G54D12*
X78000Y-40000D03*
X79000Y-40000D03*
X80000Y-40000D03*
X81000Y-40000D03*
X82000Y-40000D03*
X83000Y-40000D03*
X83000Y-37000D03*
X82000Y-37000D03*
X81000Y-37000D03*
X80000Y-37000D03*
X79000Y-37000D03*
X78000Y-37000D03*
X77000Y-37000D03*
G54D13*
X78600Y-37800D03*
X81300Y-39100D03*
G54D14*
X78414Y-38273D03*
X78679Y-38253D03*
X78680Y-38679D03*
X77850Y-38300D03*
X81600Y-38300D03*
X78750Y-39050D03*
X78260Y-38670D03*
X80050Y-38900D03*
G54D13*
X82300Y-39100D03*
G54D10*
G36*
X83405Y-40405D02*
X83350Y-40405D01*
X83350Y-37268D01*
X83350Y-36717D01*
X83347Y-36703D01*
X83341Y-36689D01*
X83333Y-36677D01*
X83323Y-36666D01*
X83310Y-36658D01*
X83297Y-36653D01*
X83282Y-36650D01*
X83268Y-36649D01*
X82717Y-36649D01*
X82703Y-36652D01*
X82689Y-36658D01*
X82677Y-36666D01*
X82666Y-36676D01*
X82658Y-36689D01*
X82653Y-36702D01*
X82650Y-36717D01*
X82649Y-36731D01*
X82649Y-37282D01*
X82652Y-37296D01*
X82658Y-37310D01*
X82666Y-37322D01*
X82676Y-37333D01*
X82689Y-37341D01*
X82702Y-37346D01*
X82717Y-37349D01*
X82731Y-37350D01*
X83282Y-37350D01*
X83296Y-37347D01*
X83310Y-37341D01*
X83322Y-37333D01*
X83333Y-37323D01*
X83341Y-37310D01*
X83346Y-37297D01*
X83349Y-37282D01*
X83350Y-37268D01*
X83350Y-40405D01*
X83350Y-40405D01*
X83350Y-39965D01*
X83336Y-39898D01*
X83310Y-39834D01*
X83272Y-39777D01*
X83224Y-39729D01*
X83167Y-39690D01*
X83103Y-39664D01*
X83069Y-39656D01*
X83069Y-38473D01*
X83059Y-38421D01*
X83039Y-38372D01*
X83009Y-38328D01*
X82972Y-38291D01*
X82928Y-38261D01*
X82880Y-38241D01*
X82828Y-38230D01*
X82775Y-38230D01*
X82723Y-38240D01*
X82674Y-38260D01*
X82630Y-38288D01*
X82592Y-38325D01*
X82562Y-38369D01*
X82541Y-38418D01*
X82530Y-38469D01*
X82530Y-38522D01*
X82539Y-38574D01*
X82559Y-38623D01*
X82587Y-38668D01*
X82624Y-38706D01*
X82667Y-38736D01*
X82716Y-38757D01*
X82767Y-38768D01*
X82820Y-38770D01*
X82872Y-38760D01*
X82922Y-38741D01*
X82966Y-38713D01*
X83004Y-38676D01*
X83035Y-38633D01*
X83056Y-38585D01*
X83068Y-38533D01*
X83069Y-38473D01*
X83069Y-39656D01*
X83036Y-39650D01*
X82968Y-39649D01*
X82900Y-39662D01*
X82837Y-39688D01*
X82779Y-39725D01*
X82730Y-39773D01*
X82691Y-39830D01*
X82664Y-39893D01*
X82650Y-39960D01*
X82649Y-40029D01*
X82661Y-40096D01*
X82687Y-40160D01*
X82724Y-40218D01*
X82772Y-40267D01*
X82828Y-40307D01*
X82891Y-40334D01*
X82958Y-40349D01*
X83026Y-40350D01*
X83094Y-40338D01*
X83158Y-40313D01*
X83216Y-40277D01*
X83266Y-40229D01*
X83305Y-40173D01*
X83333Y-40111D01*
X83348Y-40044D01*
X83350Y-39965D01*
X83350Y-40405D01*
X82350Y-40405D01*
X82350Y-39965D01*
X82350Y-36965D01*
X82336Y-36898D01*
X82310Y-36834D01*
X82272Y-36777D01*
X82224Y-36729D01*
X82167Y-36690D01*
X82103Y-36664D01*
X82036Y-36650D01*
X81968Y-36649D01*
X81900Y-36662D01*
X81837Y-36688D01*
X81779Y-36725D01*
X81730Y-36773D01*
X81691Y-36830D01*
X81664Y-36893D01*
X81650Y-36960D01*
X81649Y-37029D01*
X81661Y-37096D01*
X81687Y-37160D01*
X81724Y-37218D01*
X81772Y-37267D01*
X81828Y-37307D01*
X81891Y-37334D01*
X81958Y-37349D01*
X82026Y-37350D01*
X82094Y-37338D01*
X82158Y-37313D01*
X82216Y-37277D01*
X82266Y-37229D01*
X82305Y-37173D01*
X82333Y-37111D01*
X82348Y-37044D01*
X82350Y-36965D01*
X82350Y-39965D01*
X82336Y-39898D01*
X82310Y-39834D01*
X82272Y-39777D01*
X82224Y-39729D01*
X82167Y-39690D01*
X82103Y-39664D01*
X82036Y-39650D01*
X81968Y-39649D01*
X81900Y-39662D01*
X81837Y-39688D01*
X81779Y-39725D01*
X81730Y-39773D01*
X81691Y-39830D01*
X81664Y-39893D01*
X81650Y-39960D01*
X81649Y-40029D01*
X81661Y-40096D01*
X81687Y-40160D01*
X81724Y-40218D01*
X81772Y-40267D01*
X81828Y-40307D01*
X81891Y-40334D01*
X81958Y-40349D01*
X82026Y-40350D01*
X82094Y-40338D01*
X82158Y-40313D01*
X82216Y-40277D01*
X82266Y-40229D01*
X82305Y-40173D01*
X82333Y-40111D01*
X82348Y-40044D01*
X82350Y-39965D01*
X82350Y-40405D01*
X81550Y-40405D01*
X81550Y-39075D01*
X81540Y-39027D01*
X81521Y-38982D01*
X81494Y-38941D01*
X81460Y-38906D01*
X81419Y-38879D01*
X81374Y-38860D01*
X81350Y-38855D01*
X81350Y-36965D01*
X81336Y-36898D01*
X81310Y-36834D01*
X81272Y-36777D01*
X81224Y-36729D01*
X81167Y-36690D01*
X81103Y-36664D01*
X81036Y-36650D01*
X80968Y-36649D01*
X80900Y-36662D01*
X80837Y-36688D01*
X80779Y-36725D01*
X80730Y-36773D01*
X80691Y-36830D01*
X80664Y-36893D01*
X80650Y-36960D01*
X80649Y-37029D01*
X80661Y-37096D01*
X80687Y-37160D01*
X80724Y-37218D01*
X80772Y-37267D01*
X80828Y-37307D01*
X80891Y-37334D01*
X80958Y-37349D01*
X81026Y-37350D01*
X81094Y-37338D01*
X81158Y-37313D01*
X81216Y-37277D01*
X81266Y-37229D01*
X81305Y-37173D01*
X81333Y-37111D01*
X81348Y-37044D01*
X81350Y-36965D01*
X81350Y-38855D01*
X81326Y-38850D01*
X81277Y-38849D01*
X81229Y-38859D01*
X81183Y-38877D01*
X81142Y-38904D01*
X81107Y-38938D01*
X81079Y-38978D01*
X81069Y-39004D01*
X81069Y-38873D01*
X81069Y-38073D01*
X81058Y-38021D01*
X81038Y-37973D01*
X81009Y-37929D01*
X80972Y-37891D01*
X80928Y-37862D01*
X80879Y-37841D01*
X80828Y-37831D01*
X80775Y-37830D01*
X80723Y-37840D01*
X80674Y-37860D01*
X80630Y-37889D01*
X80592Y-37926D01*
X80563Y-37969D01*
X80542Y-38018D01*
X80531Y-38069D01*
X80530Y-38122D01*
X80540Y-38174D01*
X80559Y-38223D01*
X80588Y-38267D01*
X80624Y-38305D01*
X80668Y-38335D01*
X80716Y-38357D01*
X80767Y-38368D01*
X80820Y-38369D01*
X80872Y-38360D01*
X80921Y-38341D01*
X80966Y-38313D01*
X81004Y-38276D01*
X81035Y-38233D01*
X81056Y-38185D01*
X81068Y-38133D01*
X81069Y-38073D01*
X81069Y-38873D01*
X81058Y-38821D01*
X81038Y-38773D01*
X81009Y-38729D01*
X80972Y-38691D01*
X80928Y-38662D01*
X80879Y-38641D01*
X80828Y-38631D01*
X80775Y-38630D01*
X80723Y-38640D01*
X80674Y-38660D01*
X80630Y-38689D01*
X80592Y-38726D01*
X80563Y-38769D01*
X80542Y-38818D01*
X80531Y-38869D01*
X80530Y-38922D01*
X80540Y-38974D01*
X80559Y-39023D01*
X80588Y-39067D01*
X80624Y-39105D01*
X80668Y-39135D01*
X80716Y-39157D01*
X80767Y-39168D01*
X80820Y-39169D01*
X80872Y-39160D01*
X80921Y-39141D01*
X80966Y-39113D01*
X81004Y-39076D01*
X81035Y-39033D01*
X81056Y-38985D01*
X81068Y-38933D01*
X81069Y-38873D01*
X81069Y-39004D01*
X81060Y-39024D01*
X81050Y-39071D01*
X81049Y-39121D01*
X81058Y-39169D01*
X81076Y-39214D01*
X81103Y-39256D01*
X81137Y-39291D01*
X81177Y-39319D01*
X81222Y-39338D01*
X81270Y-39349D01*
X81319Y-39350D01*
X81367Y-39341D01*
X81413Y-39324D01*
X81454Y-39297D01*
X81490Y-39264D01*
X81518Y-39224D01*
X81538Y-39179D01*
X81549Y-39131D01*
X81550Y-39075D01*
X81550Y-40405D01*
X81350Y-40405D01*
X81350Y-39965D01*
X81336Y-39898D01*
X81310Y-39834D01*
X81272Y-39777D01*
X81224Y-39729D01*
X81167Y-39690D01*
X81103Y-39664D01*
X81036Y-39650D01*
X80968Y-39649D01*
X80900Y-39662D01*
X80837Y-39688D01*
X80779Y-39725D01*
X80730Y-39773D01*
X80691Y-39830D01*
X80664Y-39893D01*
X80650Y-39960D01*
X80649Y-40029D01*
X80661Y-40096D01*
X80687Y-40160D01*
X80724Y-40218D01*
X80772Y-40267D01*
X80828Y-40307D01*
X80891Y-40334D01*
X80958Y-40349D01*
X81026Y-40350D01*
X81094Y-40338D01*
X81158Y-40313D01*
X81216Y-40277D01*
X81266Y-40229D01*
X81305Y-40173D01*
X81333Y-40111D01*
X81348Y-40044D01*
X81350Y-39965D01*
X81350Y-40405D01*
X80350Y-40405D01*
X80350Y-39965D01*
X80350Y-36965D01*
X80336Y-36898D01*
X80310Y-36834D01*
X80272Y-36777D01*
X80224Y-36729D01*
X80167Y-36690D01*
X80103Y-36664D01*
X80036Y-36650D01*
X79968Y-36649D01*
X79900Y-36662D01*
X79837Y-36688D01*
X79779Y-36725D01*
X79730Y-36773D01*
X79691Y-36830D01*
X79664Y-36893D01*
X79650Y-36960D01*
X79649Y-37029D01*
X79661Y-37096D01*
X79687Y-37160D01*
X79724Y-37218D01*
X79772Y-37267D01*
X79828Y-37307D01*
X79891Y-37334D01*
X79958Y-37349D01*
X80026Y-37350D01*
X80094Y-37338D01*
X80158Y-37313D01*
X80216Y-37277D01*
X80266Y-37229D01*
X80305Y-37173D01*
X80333Y-37111D01*
X80348Y-37044D01*
X80350Y-36965D01*
X80350Y-39965D01*
X80336Y-39898D01*
X80310Y-39834D01*
X80272Y-39777D01*
X80224Y-39729D01*
X80167Y-39690D01*
X80103Y-39664D01*
X80036Y-39650D01*
X79968Y-39649D01*
X79900Y-39662D01*
X79837Y-39688D01*
X79779Y-39725D01*
X79730Y-39773D01*
X79691Y-39830D01*
X79664Y-39893D01*
X79650Y-39960D01*
X79649Y-40029D01*
X79661Y-40096D01*
X79687Y-40160D01*
X79724Y-40218D01*
X79772Y-40267D01*
X79828Y-40307D01*
X79891Y-40334D01*
X79958Y-40349D01*
X80026Y-40350D01*
X80094Y-40338D01*
X80158Y-40313D01*
X80216Y-40277D01*
X80266Y-40229D01*
X80305Y-40173D01*
X80333Y-40111D01*
X80348Y-40044D01*
X80350Y-39965D01*
X80350Y-40405D01*
X79350Y-40405D01*
X79350Y-39965D01*
X79350Y-36965D01*
X79336Y-36898D01*
X79310Y-36834D01*
X79272Y-36777D01*
X79224Y-36729D01*
X79167Y-36690D01*
X79103Y-36664D01*
X79036Y-36650D01*
X78968Y-36649D01*
X78900Y-36662D01*
X78837Y-36688D01*
X78779Y-36725D01*
X78730Y-36773D01*
X78691Y-36830D01*
X78664Y-36893D01*
X78650Y-36960D01*
X78649Y-37029D01*
X78661Y-37096D01*
X78687Y-37160D01*
X78724Y-37218D01*
X78772Y-37267D01*
X78828Y-37307D01*
X78891Y-37334D01*
X78958Y-37349D01*
X79026Y-37350D01*
X79094Y-37338D01*
X79158Y-37313D01*
X79216Y-37277D01*
X79266Y-37229D01*
X79305Y-37173D01*
X79333Y-37111D01*
X79348Y-37044D01*
X79350Y-36965D01*
X79350Y-39965D01*
X79336Y-39898D01*
X79310Y-39834D01*
X79272Y-39777D01*
X79224Y-39729D01*
X79167Y-39690D01*
X79103Y-39664D01*
X79036Y-39650D01*
X78968Y-39649D01*
X78900Y-39662D01*
X78850Y-39683D01*
X78850Y-37775D01*
X78840Y-37727D01*
X78821Y-37682D01*
X78794Y-37641D01*
X78760Y-37606D01*
X78719Y-37579D01*
X78674Y-37560D01*
X78626Y-37550D01*
X78577Y-37549D01*
X78529Y-37559D01*
X78483Y-37577D01*
X78442Y-37604D01*
X78407Y-37638D01*
X78379Y-37678D01*
X78360Y-37724D01*
X78350Y-37771D01*
X78350Y-37796D01*
X78350Y-36965D01*
X78336Y-36898D01*
X78310Y-36834D01*
X78272Y-36777D01*
X78224Y-36729D01*
X78167Y-36690D01*
X78103Y-36664D01*
X78036Y-36650D01*
X77968Y-36649D01*
X77900Y-36662D01*
X77837Y-36688D01*
X77779Y-36725D01*
X77730Y-36773D01*
X77691Y-36830D01*
X77664Y-36893D01*
X77650Y-36960D01*
X77649Y-37029D01*
X77661Y-37096D01*
X77687Y-37160D01*
X77724Y-37218D01*
X77772Y-37267D01*
X77828Y-37307D01*
X77891Y-37334D01*
X77958Y-37349D01*
X78026Y-37350D01*
X78094Y-37338D01*
X78158Y-37313D01*
X78216Y-37277D01*
X78266Y-37229D01*
X78305Y-37173D01*
X78333Y-37111D01*
X78348Y-37044D01*
X78350Y-36965D01*
X78350Y-37796D01*
X78349Y-37821D01*
X78358Y-37869D01*
X78376Y-37914D01*
X78403Y-37956D01*
X78437Y-37991D01*
X78477Y-38019D01*
X78522Y-38038D01*
X78570Y-38049D01*
X78619Y-38050D01*
X78667Y-38041D01*
X78713Y-38024D01*
X78754Y-37997D01*
X78790Y-37964D01*
X78818Y-37924D01*
X78838Y-37879D01*
X78849Y-37831D01*
X78850Y-37775D01*
X78850Y-39683D01*
X78837Y-39688D01*
X78815Y-39702D01*
X78815Y-38633D01*
X78815Y-38283D01*
X78808Y-38252D01*
X78796Y-38222D01*
X78778Y-38195D01*
X78755Y-38172D01*
X78728Y-38154D01*
X78699Y-38141D01*
X78667Y-38135D01*
X78634Y-38134D01*
X78603Y-38140D01*
X78573Y-38153D01*
X78546Y-38170D01*
X78524Y-38191D01*
X78505Y-38172D01*
X78478Y-38154D01*
X78449Y-38141D01*
X78417Y-38135D01*
X78384Y-38134D01*
X78353Y-38140D01*
X78323Y-38153D01*
X78296Y-38170D01*
X78272Y-38193D01*
X78254Y-38220D01*
X78241Y-38249D01*
X78235Y-38281D01*
X78234Y-38313D01*
X78240Y-38345D01*
X78252Y-38375D01*
X78270Y-38402D01*
X78292Y-38426D01*
X78319Y-38444D01*
X78348Y-38457D01*
X78380Y-38464D01*
X78412Y-38465D01*
X78444Y-38459D01*
X78474Y-38447D01*
X78502Y-38430D01*
X78525Y-38408D01*
X78542Y-38426D01*
X78569Y-38444D01*
X78598Y-38457D01*
X78630Y-38464D01*
X78662Y-38465D01*
X78694Y-38459D01*
X78724Y-38447D01*
X78752Y-38430D01*
X78775Y-38408D01*
X78794Y-38381D01*
X78807Y-38352D01*
X78814Y-38320D01*
X78815Y-38283D01*
X78815Y-38633D01*
X78808Y-38602D01*
X78796Y-38572D01*
X78778Y-38545D01*
X78755Y-38522D01*
X78728Y-38504D01*
X78699Y-38491D01*
X78667Y-38485D01*
X78634Y-38484D01*
X78603Y-38490D01*
X78573Y-38503D01*
X78546Y-38520D01*
X78522Y-38543D01*
X78504Y-38570D01*
X78491Y-38599D01*
X78485Y-38631D01*
X78484Y-38663D01*
X78490Y-38695D01*
X78502Y-38725D01*
X78520Y-38752D01*
X78542Y-38776D01*
X78569Y-38794D01*
X78598Y-38807D01*
X78630Y-38814D01*
X78662Y-38815D01*
X78694Y-38809D01*
X78724Y-38797D01*
X78752Y-38780D01*
X78775Y-38758D01*
X78794Y-38731D01*
X78807Y-38702D01*
X78814Y-38670D01*
X78815Y-38633D01*
X78815Y-39702D01*
X78779Y-39725D01*
X78730Y-39773D01*
X78691Y-39830D01*
X78664Y-39893D01*
X78650Y-39960D01*
X78649Y-40029D01*
X78661Y-40096D01*
X78687Y-40160D01*
X78724Y-40218D01*
X78772Y-40267D01*
X78828Y-40307D01*
X78891Y-40334D01*
X78958Y-40349D01*
X79026Y-40350D01*
X79094Y-40338D01*
X79158Y-40313D01*
X79216Y-40277D01*
X79266Y-40229D01*
X79305Y-40173D01*
X79333Y-40111D01*
X79348Y-40044D01*
X79350Y-39965D01*
X79350Y-40405D01*
X78350Y-40405D01*
X78350Y-39965D01*
X78336Y-39898D01*
X78310Y-39834D01*
X78272Y-39777D01*
X78224Y-39729D01*
X78167Y-39690D01*
X78103Y-39664D01*
X78036Y-39650D01*
X77968Y-39649D01*
X77900Y-39662D01*
X77837Y-39688D01*
X77779Y-39725D01*
X77730Y-39773D01*
X77691Y-39830D01*
X77664Y-39893D01*
X77650Y-39960D01*
X77649Y-40029D01*
X77661Y-40096D01*
X77687Y-40160D01*
X77724Y-40218D01*
X77772Y-40267D01*
X77828Y-40307D01*
X77891Y-40334D01*
X77958Y-40349D01*
X78026Y-40350D01*
X78094Y-40338D01*
X78158Y-40313D01*
X78216Y-40277D01*
X78266Y-40229D01*
X78305Y-40173D01*
X78333Y-40111D01*
X78348Y-40044D01*
X78350Y-39965D01*
X78350Y-40405D01*
X77350Y-40405D01*
X77350Y-40268D01*
X77350Y-39731D01*
X77350Y-39726D01*
X77350Y-36965D01*
X77336Y-36898D01*
X77310Y-36834D01*
X77272Y-36777D01*
X77224Y-36729D01*
X77167Y-36690D01*
X77103Y-36664D01*
X77036Y-36650D01*
X76968Y-36649D01*
X76900Y-36662D01*
X76837Y-36688D01*
X76779Y-36725D01*
X76730Y-36773D01*
X76691Y-36830D01*
X76664Y-36893D01*
X76650Y-36960D01*
X76649Y-37029D01*
X76661Y-37096D01*
X76687Y-37160D01*
X76724Y-37218D01*
X76772Y-37267D01*
X76828Y-37307D01*
X76891Y-37334D01*
X76958Y-37349D01*
X77026Y-37350D01*
X77094Y-37338D01*
X77158Y-37313D01*
X77216Y-37277D01*
X77266Y-37229D01*
X77305Y-37173D01*
X77333Y-37111D01*
X77348Y-37044D01*
X77350Y-36965D01*
X77350Y-39726D01*
X77349Y-39717D01*
X77346Y-39702D01*
X77341Y-39689D01*
X77333Y-39676D01*
X77322Y-39666D01*
X77310Y-39658D01*
X77296Y-39652D01*
X77282Y-39649D01*
X77093Y-39650D01*
X77075Y-39668D01*
X77075Y-39925D01*
X77331Y-39925D01*
X77350Y-39906D01*
X77350Y-39731D01*
X77350Y-40268D01*
X77350Y-40093D01*
X77331Y-40075D01*
X77075Y-40075D01*
X77075Y-40331D01*
X77093Y-40350D01*
X77282Y-40350D01*
X77296Y-40347D01*
X77310Y-40341D01*
X77322Y-40333D01*
X77333Y-40323D01*
X77341Y-40310D01*
X77346Y-40297D01*
X77349Y-40282D01*
X77350Y-40268D01*
X77350Y-40405D01*
X76925Y-40405D01*
X76925Y-40331D01*
X76925Y-40075D01*
X76925Y-39925D01*
X76925Y-39668D01*
X76906Y-39650D01*
X76717Y-39649D01*
X76703Y-39652D01*
X76689Y-39658D01*
X76677Y-39666D01*
X76666Y-39676D01*
X76658Y-39689D01*
X76653Y-39702D01*
X76650Y-39717D01*
X76649Y-39731D01*
X76650Y-39906D01*
X76668Y-39925D01*
X76925Y-39925D01*
X76925Y-40075D01*
X76668Y-40075D01*
X76650Y-40093D01*
X76649Y-40268D01*
X76650Y-40282D01*
X76653Y-40297D01*
X76658Y-40310D01*
X76666Y-40323D01*
X76677Y-40333D01*
X76689Y-40341D01*
X76703Y-40347D01*
X76717Y-40350D01*
X76906Y-40350D01*
X76925Y-40331D01*
X76925Y-40405D01*
X76594Y-40405D01*
X76594Y-36594D01*
X83405Y-36594D01*
X83405Y-40405D01*
X83405Y-40405D01*
G37*
G54D15*
X83405Y-40405D02*
X83350Y-40405D01*
X83350Y-37268D01*
X83350Y-36717D01*
X83347Y-36703D01*
X83341Y-36689D01*
X83333Y-36677D01*
X83323Y-36666D01*
X83310Y-36658D01*
X83297Y-36653D01*
X83282Y-36650D01*
X83268Y-36649D01*
X82717Y-36649D01*
X82703Y-36652D01*
X82689Y-36658D01*
X82677Y-36666D01*
X82666Y-36676D01*
X82658Y-36689D01*
X82653Y-36702D01*
X82650Y-36717D01*
X82649Y-36731D01*
X82649Y-37282D01*
X82652Y-37296D01*
X82658Y-37310D01*
X82666Y-37322D01*
X82676Y-37333D01*
X82689Y-37341D01*
X82702Y-37346D01*
X82717Y-37349D01*
X82731Y-37350D01*
X83282Y-37350D01*
X83296Y-37347D01*
X83310Y-37341D01*
X83322Y-37333D01*
X83333Y-37323D01*
X83341Y-37310D01*
X83346Y-37297D01*
X83349Y-37282D01*
X83350Y-37268D01*
X83350Y-40405D01*
X83350Y-40405D01*
X83350Y-39965D01*
X83336Y-39898D01*
X83310Y-39834D01*
X83272Y-39777D01*
X83224Y-39729D01*
X83167Y-39690D01*
X83103Y-39664D01*
X83069Y-39656D01*
X83069Y-38473D01*
X83059Y-38421D01*
X83039Y-38372D01*
X83009Y-38328D01*
X82972Y-38291D01*
X82928Y-38261D01*
X82880Y-38241D01*
X82828Y-38230D01*
X82775Y-38230D01*
X82723Y-38240D01*
X82674Y-38260D01*
X82630Y-38288D01*
X82592Y-38325D01*
X82562Y-38369D01*
X82541Y-38418D01*
X82530Y-38469D01*
X82530Y-38522D01*
X82539Y-38574D01*
X82559Y-38623D01*
X82587Y-38668D01*
X82624Y-38706D01*
X82667Y-38736D01*
X82716Y-38757D01*
X82767Y-38768D01*
X82820Y-38770D01*
X82872Y-38760D01*
X82922Y-38741D01*
X82966Y-38713D01*
X83004Y-38676D01*
X83035Y-38633D01*
X83056Y-38585D01*
X83068Y-38533D01*
X83069Y-38473D01*
X83069Y-39656D01*
X83036Y-39650D01*
X82968Y-39649D01*
X82900Y-39662D01*
X82837Y-39688D01*
X82779Y-39725D01*
X82730Y-39773D01*
X82691Y-39830D01*
X82664Y-39893D01*
X82650Y-39960D01*
X82649Y-40029D01*
X82661Y-40096D01*
X82687Y-40160D01*
X82724Y-40218D01*
X82772Y-40267D01*
X82828Y-40307D01*
X82891Y-40334D01*
X82958Y-40349D01*
X83026Y-40350D01*
X83094Y-40338D01*
X83158Y-40313D01*
X83216Y-40277D01*
X83266Y-40229D01*
X83305Y-40173D01*
X83333Y-40111D01*
X83348Y-40044D01*
X83350Y-39965D01*
X83350Y-40405D01*
X82350Y-40405D01*
X82350Y-39965D01*
X82350Y-36965D01*
X82336Y-36898D01*
X82310Y-36834D01*
X82272Y-36777D01*
X82224Y-36729D01*
X82167Y-36690D01*
X82103Y-36664D01*
X82036Y-36650D01*
X81968Y-36649D01*
X81900Y-36662D01*
X81837Y-36688D01*
X81779Y-36725D01*
X81730Y-36773D01*
X81691Y-36830D01*
X81664Y-36893D01*
X81650Y-36960D01*
X81649Y-37029D01*
X81661Y-37096D01*
X81687Y-37160D01*
X81724Y-37218D01*
X81772Y-37267D01*
X81828Y-37307D01*
X81891Y-37334D01*
X81958Y-37349D01*
X82026Y-37350D01*
X82094Y-37338D01*
X82158Y-37313D01*
X82216Y-37277D01*
X82266Y-37229D01*
X82305Y-37173D01*
X82333Y-37111D01*
X82348Y-37044D01*
X82350Y-36965D01*
X82350Y-39965D01*
X82336Y-39898D01*
X82310Y-39834D01*
X82272Y-39777D01*
X82224Y-39729D01*
X82167Y-39690D01*
X82103Y-39664D01*
X82036Y-39650D01*
X81968Y-39649D01*
X81900Y-39662D01*
X81837Y-39688D01*
X81779Y-39725D01*
X81730Y-39773D01*
X81691Y-39830D01*
X81664Y-39893D01*
X81650Y-39960D01*
X81649Y-40029D01*
X81661Y-40096D01*
X81687Y-40160D01*
X81724Y-40218D01*
X81772Y-40267D01*
X81828Y-40307D01*
X81891Y-40334D01*
X81958Y-40349D01*
X82026Y-40350D01*
X82094Y-40338D01*
X82158Y-40313D01*
X82216Y-40277D01*
X82266Y-40229D01*
X82305Y-40173D01*
X82333Y-40111D01*
X82348Y-40044D01*
X82350Y-39965D01*
X82350Y-40405D01*
X81550Y-40405D01*
X81550Y-39075D01*
X81540Y-39027D01*
X81521Y-38982D01*
X81494Y-38941D01*
X81460Y-38906D01*
X81419Y-38879D01*
X81374Y-38860D01*
X81350Y-38855D01*
X81350Y-36965D01*
X81336Y-36898D01*
X81310Y-36834D01*
X81272Y-36777D01*
X81224Y-36729D01*
X81167Y-36690D01*
X81103Y-36664D01*
X81036Y-36650D01*
X80968Y-36649D01*
X80900Y-36662D01*
X80837Y-36688D01*
X80779Y-36725D01*
X80730Y-36773D01*
X80691Y-36830D01*
X80664Y-36893D01*
X80650Y-36960D01*
X80649Y-37029D01*
X80661Y-37096D01*
X80687Y-37160D01*
X80724Y-37218D01*
X80772Y-37267D01*
X80828Y-37307D01*
X80891Y-37334D01*
X80958Y-37349D01*
X81026Y-37350D01*
X81094Y-37338D01*
X81158Y-37313D01*
X81216Y-37277D01*
X81266Y-37229D01*
X81305Y-37173D01*
X81333Y-37111D01*
X81348Y-37044D01*
X81350Y-36965D01*
X81350Y-38855D01*
X81326Y-38850D01*
X81277Y-38849D01*
X81229Y-38859D01*
X81183Y-38877D01*
X81142Y-38904D01*
X81107Y-38938D01*
X81079Y-38978D01*
X81069Y-39004D01*
X81069Y-38873D01*
X81069Y-38073D01*
X81058Y-38021D01*
X81038Y-37973D01*
X81009Y-37929D01*
X80972Y-37891D01*
X80928Y-37862D01*
X80879Y-37841D01*
X80828Y-37831D01*
X80775Y-37830D01*
X80723Y-37840D01*
X80674Y-37860D01*
X80630Y-37889D01*
X80592Y-37926D01*
X80563Y-37969D01*
X80542Y-38018D01*
X80531Y-38069D01*
X80530Y-38122D01*
X80540Y-38174D01*
X80559Y-38223D01*
X80588Y-38267D01*
X80624Y-38305D01*
X80668Y-38335D01*
X80716Y-38357D01*
X80767Y-38368D01*
X80820Y-38369D01*
X80872Y-38360D01*
X80921Y-38341D01*
X80966Y-38313D01*
X81004Y-38276D01*
X81035Y-38233D01*
X81056Y-38185D01*
X81068Y-38133D01*
X81069Y-38073D01*
X81069Y-38873D01*
X81058Y-38821D01*
X81038Y-38773D01*
X81009Y-38729D01*
X80972Y-38691D01*
X80928Y-38662D01*
X80879Y-38641D01*
X80828Y-38631D01*
X80775Y-38630D01*
X80723Y-38640D01*
X80674Y-38660D01*
X80630Y-38689D01*
X80592Y-38726D01*
X80563Y-38769D01*
X80542Y-38818D01*
X80531Y-38869D01*
X80530Y-38922D01*
X80540Y-38974D01*
X80559Y-39023D01*
X80588Y-39067D01*
X80624Y-39105D01*
X80668Y-39135D01*
X80716Y-39157D01*
X80767Y-39168D01*
X80820Y-39169D01*
X80872Y-39160D01*
X80921Y-39141D01*
X80966Y-39113D01*
X81004Y-39076D01*
X81035Y-39033D01*
X81056Y-38985D01*
X81068Y-38933D01*
X81069Y-38873D01*
X81069Y-39004D01*
X81060Y-39024D01*
X81050Y-39071D01*
X81049Y-39121D01*
X81058Y-39169D01*
X81076Y-39214D01*
X81103Y-39256D01*
X81137Y-39291D01*
X81177Y-39319D01*
X81222Y-39338D01*
X81270Y-39349D01*
X81319Y-39350D01*
X81367Y-39341D01*
X81413Y-39324D01*
X81454Y-39297D01*
X81490Y-39264D01*
X81518Y-39224D01*
X81538Y-39179D01*
X81549Y-39131D01*
X81550Y-39075D01*
X81550Y-40405D01*
X81350Y-40405D01*
X81350Y-39965D01*
X81336Y-39898D01*
X81310Y-39834D01*
X81272Y-39777D01*
X81224Y-39729D01*
X81167Y-39690D01*
X81103Y-39664D01*
X81036Y-39650D01*
X80968Y-39649D01*
X80900Y-39662D01*
X80837Y-39688D01*
X80779Y-39725D01*
X80730Y-39773D01*
X80691Y-39830D01*
X80664Y-39893D01*
X80650Y-39960D01*
X80649Y-40029D01*
X80661Y-40096D01*
X80687Y-40160D01*
X80724Y-40218D01*
X80772Y-40267D01*
X80828Y-40307D01*
X80891Y-40334D01*
X80958Y-40349D01*
X81026Y-40350D01*
X81094Y-40338D01*
X81158Y-40313D01*
X81216Y-40277D01*
X81266Y-40229D01*
X81305Y-40173D01*
X81333Y-40111D01*
X81348Y-40044D01*
X81350Y-39965D01*
X81350Y-40405D01*
X80350Y-40405D01*
X80350Y-39965D01*
X80350Y-36965D01*
X80336Y-36898D01*
X80310Y-36834D01*
X80272Y-36777D01*
X80224Y-36729D01*
X80167Y-36690D01*
X80103Y-36664D01*
X80036Y-36650D01*
X79968Y-36649D01*
X79900Y-36662D01*
X79837Y-36688D01*
X79779Y-36725D01*
X79730Y-36773D01*
X79691Y-36830D01*
X79664Y-36893D01*
X79650Y-36960D01*
X79649Y-37029D01*
X79661Y-37096D01*
X79687Y-37160D01*
X79724Y-37218D01*
X79772Y-37267D01*
X79828Y-37307D01*
X79891Y-37334D01*
X79958Y-37349D01*
X80026Y-37350D01*
X80094Y-37338D01*
X80158Y-37313D01*
X80216Y-37277D01*
X80266Y-37229D01*
X80305Y-37173D01*
X80333Y-37111D01*
X80348Y-37044D01*
X80350Y-36965D01*
X80350Y-39965D01*
X80336Y-39898D01*
X80310Y-39834D01*
X80272Y-39777D01*
X80224Y-39729D01*
X80167Y-39690D01*
X80103Y-39664D01*
X80036Y-39650D01*
X79968Y-39649D01*
X79900Y-39662D01*
X79837Y-39688D01*
X79779Y-39725D01*
X79730Y-39773D01*
X79691Y-39830D01*
X79664Y-39893D01*
X79650Y-39960D01*
X79649Y-40029D01*
X79661Y-40096D01*
X79687Y-40160D01*
X79724Y-40218D01*
X79772Y-40267D01*
X79828Y-40307D01*
X79891Y-40334D01*
X79958Y-40349D01*
X80026Y-40350D01*
X80094Y-40338D01*
X80158Y-40313D01*
X80216Y-40277D01*
X80266Y-40229D01*
X80305Y-40173D01*
X80333Y-40111D01*
X80348Y-40044D01*
X80350Y-39965D01*
X80350Y-40405D01*
X79350Y-40405D01*
X79350Y-39965D01*
X79350Y-36965D01*
X79336Y-36898D01*
X79310Y-36834D01*
X79272Y-36777D01*
X79224Y-36729D01*
X79167Y-36690D01*
X79103Y-36664D01*
X79036Y-36650D01*
X78968Y-36649D01*
X78900Y-36662D01*
X78837Y-36688D01*
X78779Y-36725D01*
X78730Y-36773D01*
X78691Y-36830D01*
X78664Y-36893D01*
X78650Y-36960D01*
X78649Y-37029D01*
X78661Y-37096D01*
X78687Y-37160D01*
X78724Y-37218D01*
X78772Y-37267D01*
X78828Y-37307D01*
X78891Y-37334D01*
X78958Y-37349D01*
X79026Y-37350D01*
X79094Y-37338D01*
X79158Y-37313D01*
X79216Y-37277D01*
X79266Y-37229D01*
X79305Y-37173D01*
X79333Y-37111D01*
X79348Y-37044D01*
X79350Y-36965D01*
X79350Y-39965D01*
X79336Y-39898D01*
X79310Y-39834D01*
X79272Y-39777D01*
X79224Y-39729D01*
X79167Y-39690D01*
X79103Y-39664D01*
X79036Y-39650D01*
X78968Y-39649D01*
X78900Y-39662D01*
X78850Y-39683D01*
X78850Y-37775D01*
X78840Y-37727D01*
X78821Y-37682D01*
X78794Y-37641D01*
X78760Y-37606D01*
X78719Y-37579D01*
X78674Y-37560D01*
X78626Y-37550D01*
X78577Y-37549D01*
X78529Y-37559D01*
X78483Y-37577D01*
X78442Y-37604D01*
X78407Y-37638D01*
X78379Y-37678D01*
X78360Y-37724D01*
X78350Y-37771D01*
X78350Y-37796D01*
X78350Y-36965D01*
X78336Y-36898D01*
X78310Y-36834D01*
X78272Y-36777D01*
X78224Y-36729D01*
X78167Y-36690D01*
X78103Y-36664D01*
X78036Y-36650D01*
X77968Y-36649D01*
X77900Y-36662D01*
X77837Y-36688D01*
X77779Y-36725D01*
X77730Y-36773D01*
X77691Y-36830D01*
X77664Y-36893D01*
X77650Y-36960D01*
X77649Y-37029D01*
X77661Y-37096D01*
X77687Y-37160D01*
X77724Y-37218D01*
X77772Y-37267D01*
X77828Y-37307D01*
X77891Y-37334D01*
X77958Y-37349D01*
X78026Y-37350D01*
X78094Y-37338D01*
X78158Y-37313D01*
X78216Y-37277D01*
X78266Y-37229D01*
X78305Y-37173D01*
X78333Y-37111D01*
X78348Y-37044D01*
X78350Y-36965D01*
X78350Y-37796D01*
X78349Y-37821D01*
X78358Y-37869D01*
X78376Y-37914D01*
X78403Y-37956D01*
X78437Y-37991D01*
X78477Y-38019D01*
X78522Y-38038D01*
X78570Y-38049D01*
X78619Y-38050D01*
X78667Y-38041D01*
X78713Y-38024D01*
X78754Y-37997D01*
X78790Y-37964D01*
X78818Y-37924D01*
X78838Y-37879D01*
X78849Y-37831D01*
X78850Y-37775D01*
X78850Y-39683D01*
X78837Y-39688D01*
X78815Y-39702D01*
X78815Y-38633D01*
X78815Y-38283D01*
X78808Y-38252D01*
X78796Y-38222D01*
X78778Y-38195D01*
X78755Y-38172D01*
X78728Y-38154D01*
X78699Y-38141D01*
X78667Y-38135D01*
X78634Y-38134D01*
X78603Y-38140D01*
X78573Y-38153D01*
X78546Y-38170D01*
X78524Y-38191D01*
X78505Y-38172D01*
X78478Y-38154D01*
X78449Y-38141D01*
X78417Y-38135D01*
X78384Y-38134D01*
X78353Y-38140D01*
X78323Y-38153D01*
X78296Y-38170D01*
X78272Y-38193D01*
X78254Y-38220D01*
X78241Y-38249D01*
X78235Y-38281D01*
X78234Y-38313D01*
X78240Y-38345D01*
X78252Y-38375D01*
X78270Y-38402D01*
X78292Y-38426D01*
X78319Y-38444D01*
X78348Y-38457D01*
X78380Y-38464D01*
X78412Y-38465D01*
X78444Y-38459D01*
X78474Y-38447D01*
X78502Y-38430D01*
X78525Y-38408D01*
X78542Y-38426D01*
X78569Y-38444D01*
X78598Y-38457D01*
X78630Y-38464D01*
X78662Y-38465D01*
X78694Y-38459D01*
X78724Y-38447D01*
X78752Y-38430D01*
X78775Y-38408D01*
X78794Y-38381D01*
X78807Y-38352D01*
X78814Y-38320D01*
X78815Y-38283D01*
X78815Y-38633D01*
X78808Y-38602D01*
X78796Y-38572D01*
X78778Y-38545D01*
X78755Y-38522D01*
X78728Y-38504D01*
X78699Y-38491D01*
X78667Y-38485D01*
X78634Y-38484D01*
X78603Y-38490D01*
X78573Y-38503D01*
X78546Y-38520D01*
X78522Y-38543D01*
X78504Y-38570D01*
X78491Y-38599D01*
X78485Y-38631D01*
X78484Y-38663D01*
X78490Y-38695D01*
X78502Y-38725D01*
X78520Y-38752D01*
X78542Y-38776D01*
X78569Y-38794D01*
X78598Y-38807D01*
X78630Y-38814D01*
X78662Y-38815D01*
X78694Y-38809D01*
X78724Y-38797D01*
X78752Y-38780D01*
X78775Y-38758D01*
X78794Y-38731D01*
X78807Y-38702D01*
X78814Y-38670D01*
X78815Y-38633D01*
X78815Y-39702D01*
X78779Y-39725D01*
X78730Y-39773D01*
X78691Y-39830D01*
X78664Y-39893D01*
X78650Y-39960D01*
X78649Y-40029D01*
X78661Y-40096D01*
X78687Y-40160D01*
X78724Y-40218D01*
X78772Y-40267D01*
X78828Y-40307D01*
X78891Y-40334D01*
X78958Y-40349D01*
X79026Y-40350D01*
X79094Y-40338D01*
X79158Y-40313D01*
X79216Y-40277D01*
X79266Y-40229D01*
X79305Y-40173D01*
X79333Y-40111D01*
X79348Y-40044D01*
X79350Y-39965D01*
X79350Y-40405D01*
X78350Y-40405D01*
X78350Y-39965D01*
X78336Y-39898D01*
X78310Y-39834D01*
X78272Y-39777D01*
X78224Y-39729D01*
X78167Y-39690D01*
X78103Y-39664D01*
X78036Y-39650D01*
X77968Y-39649D01*
X77900Y-39662D01*
X77837Y-39688D01*
X77779Y-39725D01*
X77730Y-39773D01*
X77691Y-39830D01*
X77664Y-39893D01*
X77650Y-39960D01*
X77649Y-40029D01*
X77661Y-40096D01*
X77687Y-40160D01*
X77724Y-40218D01*
X77772Y-40267D01*
X77828Y-40307D01*
X77891Y-40334D01*
X77958Y-40349D01*
X78026Y-40350D01*
X78094Y-40338D01*
X78158Y-40313D01*
X78216Y-40277D01*
X78266Y-40229D01*
X78305Y-40173D01*
X78333Y-40111D01*
X78348Y-40044D01*
X78350Y-39965D01*
X78350Y-40405D01*
X77350Y-40405D01*
X77350Y-40268D01*
X77350Y-39731D01*
X77350Y-39726D01*
X77350Y-36965D01*
X77336Y-36898D01*
X77310Y-36834D01*
X77272Y-36777D01*
X77224Y-36729D01*
X77167Y-36690D01*
X77103Y-36664D01*
X77036Y-36650D01*
X76968Y-36649D01*
X76900Y-36662D01*
X76837Y-36688D01*
X76779Y-36725D01*
X76730Y-36773D01*
X76691Y-36830D01*
X76664Y-36893D01*
X76650Y-36960D01*
X76649Y-37029D01*
X76661Y-37096D01*
X76687Y-37160D01*
X76724Y-37218D01*
X76772Y-37267D01*
X76828Y-37307D01*
X76891Y-37334D01*
X76958Y-37349D01*
X77026Y-37350D01*
X77094Y-37338D01*
X77158Y-37313D01*
X77216Y-37277D01*
X77266Y-37229D01*
X77305Y-37173D01*
X77333Y-37111D01*
X77348Y-37044D01*
X77350Y-36965D01*
X77350Y-39726D01*
X77349Y-39717D01*
X77346Y-39702D01*
X77341Y-39689D01*
X77333Y-39676D01*
X77322Y-39666D01*
X77310Y-39658D01*
X77296Y-39652D01*
X77282Y-39649D01*
X77093Y-39650D01*
X77075Y-39668D01*
X77075Y-39925D01*
X77331Y-39925D01*
X77350Y-39906D01*
X77350Y-39731D01*
X77350Y-40268D01*
X77350Y-40093D01*
X77331Y-40075D01*
X77075Y-40075D01*
X77075Y-40331D01*
X77093Y-40350D01*
X77282Y-40350D01*
X77296Y-40347D01*
X77310Y-40341D01*
X77322Y-40333D01*
X77333Y-40323D01*
X77341Y-40310D01*
X77346Y-40297D01*
X77349Y-40282D01*
X77350Y-40268D01*
X77350Y-40405D01*
X76925Y-40405D01*
X76925Y-40331D01*
X76925Y-40075D01*
X76925Y-39925D01*
X76925Y-39668D01*
X76906Y-39650D01*
X76717Y-39649D01*
X76703Y-39652D01*
X76689Y-39658D01*
X76677Y-39666D01*
X76666Y-39676D01*
X76658Y-39689D01*
X76653Y-39702D01*
X76650Y-39717D01*
X76649Y-39731D01*
X76650Y-39906D01*
X76668Y-39925D01*
X76925Y-39925D01*
X76925Y-40075D01*
X76668Y-40075D01*
X76650Y-40093D01*
X76649Y-40268D01*
X76650Y-40282D01*
X76653Y-40297D01*
X76658Y-40310D01*
X76666Y-40323D01*
X76677Y-40333D01*
X76689Y-40341D01*
X76703Y-40347D01*
X76717Y-40350D01*
X76906Y-40350D01*
X76925Y-40331D01*
X76925Y-40405D01*
X76594Y-40405D01*
X76594Y-36594D01*
X83405Y-36594D01*
X83405Y-40405D01*
M02*
