G04 (created by PCBNEW (2013-june-11)-stable) date Sat 19 Jul 2014 01:47:26 PM PDT*
%MOIN*%
G04 Gerber Fmt 3.4, Leading zero omitted, Abs format*
%FSLAX34Y34*%
G01*
G70*
G90*
G04 APERTURE LIST*
%ADD10C,0.00590551*%
%ADD11C,0.005*%
%ADD12C,0.0028*%
%ADD13C,0.0045*%
G04 APERTURE END LIST*
G54D10*
X78905Y-38850D02*
G75*
G03X78905Y-38850I-55J0D01*
G74*
G01*
X78987Y-38987D02*
X77944Y-38987D01*
X77944Y-38987D02*
X77944Y-37944D01*
X77944Y-37944D02*
X78987Y-37944D01*
X78987Y-37944D02*
X78987Y-38987D01*
G54D11*
X76750Y-39350D02*
X76750Y-38450D01*
X76750Y-38450D02*
X77250Y-38450D01*
X77250Y-38450D02*
X77250Y-39350D01*
X77250Y-39350D02*
X76750Y-39350D01*
G54D12*
X76850Y-38100D02*
X76850Y-38300D01*
X76850Y-38300D02*
X77150Y-38300D01*
X77150Y-38300D02*
X77150Y-38100D01*
X76850Y-37900D02*
X76850Y-37700D01*
X76850Y-37700D02*
X77150Y-37700D01*
X77150Y-37700D02*
X77150Y-37900D01*
G54D11*
X80775Y-37750D02*
X82620Y-37750D01*
X80775Y-39250D02*
X82620Y-39250D01*
X83085Y-38215D02*
X82620Y-37750D01*
X83085Y-38785D02*
X82620Y-39250D01*
X83085Y-38785D02*
G75*
G03X83085Y-38215I-285J285D01*
G74*
G01*
X80400Y-38875D02*
X80400Y-38125D01*
X80775Y-37750D02*
G75*
G03X80400Y-38125I0J-375D01*
G74*
G01*
X80400Y-38875D02*
G75*
G03X80775Y-39250I375J0D01*
G74*
G01*
G54D13*
X76850Y-38876D02*
X76790Y-38876D01*
X76790Y-38980D02*
X76790Y-38780D01*
X76875Y-38780D01*
X77004Y-38876D02*
X77030Y-38885D01*
X77038Y-38895D01*
X77047Y-38914D01*
X77047Y-38942D01*
X77038Y-38961D01*
X77030Y-38971D01*
X77012Y-38980D01*
X76944Y-38980D01*
X76944Y-38780D01*
X77004Y-38780D01*
X77021Y-38790D01*
X77030Y-38800D01*
X77038Y-38819D01*
X77038Y-38838D01*
X77030Y-38857D01*
X77021Y-38866D01*
X77004Y-38876D01*
X76944Y-38876D01*
X77218Y-38980D02*
X77115Y-38980D01*
X77167Y-38980D02*
X77167Y-38780D01*
X77150Y-38809D01*
X77132Y-38828D01*
X77115Y-38838D01*
G54D12*
X76980Y-38042D02*
X76974Y-38049D01*
X76957Y-38055D01*
X76945Y-38055D01*
X76928Y-38049D01*
X76917Y-38036D01*
X76911Y-38023D01*
X76905Y-37996D01*
X76905Y-37977D01*
X76911Y-37950D01*
X76917Y-37937D01*
X76928Y-37924D01*
X76945Y-37917D01*
X76957Y-37917D01*
X76974Y-37924D01*
X76980Y-37931D01*
X77094Y-38055D02*
X77025Y-38055D01*
X77060Y-38055D02*
X77060Y-37917D01*
X77048Y-37937D01*
X77037Y-37950D01*
X77025Y-37957D01*
M02*
