G04 (created by PCBNEW (2013-june-11)-stable) date Sat 19 Jul 2014 07:59:30 AM PDT*
%MOIN*%
G04 Gerber Fmt 3.4, Leading zero omitted, Abs format*
%FSLAX34Y34*%
G01*
G70*
G90*
G04 APERTURE LIST*
%ADD10C,0.00590551*%
%ADD11R,0.055X0.055*%
%ADD12C,0.055*%
%ADD13C,0.00984252*%
%ADD14R,0.045X0.025*%
%ADD15R,0.0236X0.0157*%
%ADD16C,0.0309*%
%ADD17C,0.0389*%
%ADD18C,0.0388*%
G04 APERTURE END LIST*
G54D10*
G54D11*
X77000Y-40000D03*
G54D12*
X78000Y-40000D03*
X79000Y-40000D03*
X80000Y-40000D03*
X81000Y-40000D03*
X82000Y-40000D03*
X83000Y-40000D03*
X83000Y-37000D03*
X82000Y-37000D03*
X81000Y-37000D03*
X80000Y-37000D03*
X79000Y-37000D03*
X78000Y-37000D03*
X77000Y-37000D03*
G54D13*
X78594Y-38850D03*
X78338Y-38850D03*
X78082Y-38850D03*
X78850Y-38594D03*
X78594Y-38594D03*
X78338Y-38594D03*
X78082Y-38594D03*
X78850Y-38338D03*
X78594Y-38338D03*
X78338Y-38338D03*
X78082Y-38338D03*
X78850Y-38082D03*
X78594Y-38082D03*
X78338Y-38082D03*
X78082Y-38082D03*
G54D14*
X77000Y-39200D03*
X77000Y-38600D03*
G54D15*
X77000Y-38177D03*
X77000Y-37823D03*
G54D16*
X82300Y-38250D03*
X82300Y-38750D03*
X81800Y-38250D03*
X81800Y-38750D03*
X81300Y-38250D03*
X81300Y-38750D03*
G54D17*
X82800Y-38500D03*
G54D18*
X80800Y-38900D03*
X80800Y-38100D03*
M02*
