G04 (created by PCBNEW (2013-june-11)-stable) date Sat 19 Jul 2014 04:59:49 PM PDT*
%MOIN*%
G04 Gerber Fmt 3.4, Leading zero omitted, Abs format*
%FSLAX34Y34*%
G01*
G70*
G90*
G04 APERTURE LIST*
%ADD10C,0.00590551*%
%ADD11R,0.06X0.06*%
%ADD12C,0.06*%
%ADD13R,0.045X0.025*%
%ADD14R,0.0315X0.0275*%
%ADD15R,0.011811X0.0364173*%
%ADD16R,0.0314961X0.011811*%
%ADD17R,0.071X0.063*%
%ADD18C,0.01*%
%ADD19C,0.006*%
G04 APERTURE END LIST*
G54D10*
G54D11*
X63000Y-43000D03*
G54D12*
X64000Y-43000D03*
X65000Y-43000D03*
X66000Y-43000D03*
X67000Y-43000D03*
X67000Y-40000D03*
X66000Y-40000D03*
X65000Y-40000D03*
X64000Y-40000D03*
X63000Y-40000D03*
G54D13*
X64000Y-41200D03*
X64000Y-41800D03*
G54D14*
X65216Y-41000D03*
X64784Y-41000D03*
X65216Y-42000D03*
X64784Y-42000D03*
G54D15*
X65606Y-42006D03*
X65803Y-42006D03*
X66000Y-42006D03*
X66196Y-42006D03*
X66393Y-42006D03*
G54D16*
X66501Y-41696D03*
X66501Y-41500D03*
X66501Y-41303D03*
G54D15*
X66393Y-40993D03*
X66196Y-40993D03*
X66000Y-40993D03*
X65803Y-40993D03*
X65606Y-40993D03*
G54D16*
X65498Y-41303D03*
X65498Y-41500D03*
X65498Y-41696D03*
G54D17*
X63250Y-40950D03*
X63250Y-42050D03*
G54D18*
X66501Y-41303D02*
X66765Y-41303D01*
X67050Y-42949D02*
X67000Y-43000D01*
X67050Y-41587D02*
X67050Y-42949D01*
X66765Y-41303D02*
X67050Y-41587D01*
X66000Y-40993D02*
X66000Y-40000D01*
X66393Y-40993D02*
X66393Y-40606D01*
X66393Y-40606D02*
X67000Y-40000D01*
X66501Y-41500D02*
X66750Y-41500D01*
X66162Y-43000D02*
X66000Y-43000D01*
X66900Y-42262D02*
X66162Y-43000D01*
X66900Y-41650D02*
X66900Y-42262D01*
X66750Y-41500D02*
X66900Y-41650D01*
X66501Y-41696D02*
X66696Y-41696D01*
X65499Y-42500D02*
X65000Y-43000D01*
X66449Y-42500D02*
X65499Y-42500D01*
X66750Y-42200D02*
X66449Y-42500D01*
X66750Y-41750D02*
X66750Y-42200D01*
X66696Y-41696D02*
X66750Y-41750D01*
X66196Y-42006D02*
X66196Y-42253D01*
X64650Y-42350D02*
X64000Y-43000D01*
X66100Y-42350D02*
X64650Y-42350D01*
X66196Y-42253D02*
X66100Y-42350D01*
X63000Y-43000D02*
X63250Y-43000D01*
X64000Y-42250D02*
X64000Y-41800D01*
X63250Y-43000D02*
X64000Y-42250D01*
X65216Y-42000D02*
X65216Y-41966D01*
X64050Y-41750D02*
X64000Y-41800D01*
X65000Y-41750D02*
X64050Y-41750D01*
X65216Y-41966D02*
X65000Y-41750D01*
X65216Y-42000D02*
X65599Y-42000D01*
X65599Y-42000D02*
X65606Y-42006D01*
X65498Y-41303D02*
X64553Y-41303D01*
X64450Y-41200D02*
X64000Y-41200D01*
X64553Y-41303D02*
X64450Y-41200D01*
X64000Y-41200D02*
X63500Y-41200D01*
X63500Y-41200D02*
X63250Y-40950D01*
X63000Y-40000D02*
X63000Y-40700D01*
X63000Y-40700D02*
X63250Y-40950D01*
X65498Y-41303D02*
X65303Y-41303D01*
X65216Y-41216D02*
X65216Y-41000D01*
X65303Y-41303D02*
X65216Y-41216D01*
G54D10*
G36*
X67390Y-43390D02*
X67390Y-43390D01*
X67390Y-42922D01*
X67330Y-42779D01*
X67221Y-42669D01*
X67190Y-42656D01*
X67190Y-41587D01*
X67179Y-41534D01*
X67179Y-41534D01*
X67148Y-41488D01*
X66864Y-41204D01*
X66818Y-41173D01*
X66765Y-41163D01*
X66707Y-41163D01*
X66678Y-41151D01*
X66641Y-41151D01*
X66545Y-41151D01*
X66545Y-40792D01*
X66533Y-40763D01*
X66533Y-40664D01*
X66841Y-40356D01*
X66922Y-40389D01*
X67077Y-40390D01*
X67220Y-40330D01*
X67330Y-40221D01*
X67389Y-40077D01*
X67390Y-39922D01*
X67330Y-39779D01*
X67221Y-39669D01*
X67077Y-39610D01*
X66922Y-39609D01*
X66779Y-39669D01*
X66669Y-39778D01*
X66610Y-39922D01*
X66609Y-40077D01*
X66643Y-40158D01*
X66294Y-40507D01*
X66264Y-40552D01*
X66253Y-40606D01*
X66253Y-40718D01*
X66237Y-40718D01*
X66140Y-40718D01*
X66140Y-40364D01*
X66220Y-40330D01*
X66330Y-40221D01*
X66389Y-40077D01*
X66390Y-39922D01*
X66330Y-39779D01*
X66221Y-39669D01*
X66077Y-39610D01*
X65922Y-39609D01*
X65779Y-39669D01*
X65669Y-39778D01*
X65610Y-39922D01*
X65609Y-40077D01*
X65669Y-40220D01*
X65778Y-40330D01*
X65860Y-40364D01*
X65860Y-40763D01*
X65847Y-40792D01*
X65847Y-40829D01*
X65847Y-41193D01*
X65862Y-41227D01*
X65888Y-41253D01*
X65922Y-41268D01*
X65959Y-41268D01*
X66077Y-41268D01*
X66098Y-41259D01*
X66119Y-41268D01*
X66156Y-41268D01*
X66251Y-41268D01*
X66251Y-41380D01*
X66260Y-41401D01*
X66251Y-41422D01*
X66251Y-41459D01*
X66251Y-41577D01*
X66260Y-41598D01*
X66251Y-41619D01*
X66251Y-41656D01*
X66251Y-41731D01*
X66237Y-41731D01*
X66119Y-41731D01*
X66098Y-41740D01*
X66077Y-41731D01*
X66040Y-41731D01*
X65922Y-41731D01*
X65901Y-41740D01*
X65880Y-41731D01*
X65843Y-41731D01*
X65748Y-41731D01*
X65748Y-41540D01*
X65748Y-41422D01*
X65739Y-41401D01*
X65748Y-41380D01*
X65748Y-41343D01*
X65748Y-41225D01*
X65734Y-41191D01*
X65708Y-41165D01*
X65674Y-41151D01*
X65637Y-41151D01*
X65463Y-41151D01*
X65463Y-41119D01*
X65463Y-40844D01*
X65449Y-40811D01*
X65424Y-40786D01*
X65396Y-40774D01*
X65396Y-40023D01*
X65375Y-39869D01*
X65357Y-39826D01*
X65310Y-39788D01*
X65098Y-40000D01*
X65310Y-40211D01*
X65357Y-40173D01*
X65396Y-40023D01*
X65396Y-40774D01*
X65391Y-40772D01*
X65355Y-40772D01*
X65211Y-40772D01*
X65211Y-40310D01*
X65000Y-40098D01*
X64901Y-40197D01*
X64901Y-40000D01*
X64689Y-39788D01*
X64642Y-39826D01*
X64603Y-39976D01*
X64624Y-40130D01*
X64642Y-40173D01*
X64689Y-40211D01*
X64901Y-40000D01*
X64901Y-40197D01*
X64788Y-40310D01*
X64826Y-40357D01*
X64976Y-40396D01*
X65130Y-40375D01*
X65173Y-40357D01*
X65211Y-40310D01*
X65211Y-40772D01*
X65040Y-40772D01*
X65007Y-40786D01*
X64982Y-40811D01*
X64968Y-40844D01*
X64968Y-40880D01*
X64968Y-41155D01*
X64971Y-41163D01*
X64611Y-41163D01*
X64548Y-41101D01*
X64503Y-41070D01*
X64450Y-41060D01*
X64396Y-41060D01*
X64396Y-40023D01*
X64375Y-39869D01*
X64357Y-39826D01*
X64310Y-39788D01*
X64098Y-40000D01*
X64310Y-40211D01*
X64357Y-40173D01*
X64396Y-40023D01*
X64396Y-41060D01*
X64315Y-41060D01*
X64315Y-41057D01*
X64301Y-41024D01*
X64276Y-40998D01*
X64242Y-40985D01*
X64211Y-40984D01*
X64211Y-40310D01*
X64000Y-40098D01*
X63901Y-40197D01*
X63901Y-40000D01*
X63689Y-39788D01*
X63642Y-39826D01*
X63603Y-39976D01*
X63624Y-40130D01*
X63642Y-40173D01*
X63689Y-40211D01*
X63901Y-40000D01*
X63901Y-40197D01*
X63788Y-40310D01*
X63826Y-40357D01*
X63976Y-40396D01*
X64130Y-40375D01*
X64173Y-40357D01*
X64211Y-40310D01*
X64211Y-40984D01*
X64207Y-40984D01*
X63757Y-40984D01*
X63724Y-40998D01*
X63698Y-41023D01*
X63695Y-41032D01*
X63695Y-40617D01*
X63681Y-40584D01*
X63656Y-40558D01*
X63622Y-40545D01*
X63587Y-40544D01*
X63140Y-40544D01*
X63140Y-40364D01*
X63220Y-40330D01*
X63330Y-40221D01*
X63389Y-40077D01*
X63390Y-39922D01*
X63330Y-39779D01*
X63221Y-39669D01*
X63077Y-39610D01*
X62922Y-39609D01*
X62779Y-39669D01*
X62669Y-39778D01*
X62610Y-39922D01*
X62609Y-40077D01*
X62669Y-40220D01*
X62778Y-40330D01*
X62860Y-40364D01*
X62860Y-40552D01*
X62844Y-40558D01*
X62818Y-40583D01*
X62805Y-40617D01*
X62804Y-40652D01*
X62804Y-41282D01*
X62818Y-41315D01*
X62843Y-41341D01*
X62877Y-41354D01*
X62912Y-41355D01*
X63622Y-41355D01*
X63655Y-41341D01*
X63657Y-41340D01*
X63684Y-41340D01*
X63684Y-41342D01*
X63698Y-41375D01*
X63723Y-41401D01*
X63757Y-41414D01*
X63792Y-41415D01*
X64242Y-41415D01*
X64275Y-41401D01*
X64301Y-41376D01*
X64314Y-41342D01*
X64314Y-41340D01*
X64392Y-41340D01*
X64454Y-41402D01*
X64454Y-41402D01*
X64499Y-41432D01*
X64499Y-41432D01*
X64553Y-41443D01*
X64553Y-41443D01*
X65247Y-41443D01*
X65247Y-41459D01*
X65247Y-41577D01*
X65261Y-41611D01*
X65287Y-41637D01*
X65321Y-41652D01*
X65358Y-41652D01*
X65673Y-41652D01*
X65708Y-41637D01*
X65734Y-41611D01*
X65748Y-41577D01*
X65748Y-41540D01*
X65748Y-41731D01*
X65725Y-41731D01*
X65704Y-41740D01*
X65683Y-41731D01*
X65646Y-41731D01*
X65528Y-41731D01*
X65494Y-41745D01*
X65468Y-41772D01*
X65454Y-41806D01*
X65454Y-41822D01*
X65449Y-41811D01*
X65424Y-41786D01*
X65391Y-41772D01*
X65355Y-41772D01*
X65220Y-41772D01*
X65098Y-41651D01*
X65053Y-41620D01*
X65000Y-41610D01*
X64287Y-41610D01*
X64276Y-41598D01*
X64242Y-41585D01*
X64207Y-41584D01*
X63757Y-41584D01*
X63724Y-41598D01*
X63698Y-41623D01*
X63685Y-41657D01*
X63684Y-41692D01*
X63684Y-41942D01*
X63698Y-41975D01*
X63723Y-42001D01*
X63757Y-42014D01*
X63792Y-42015D01*
X63860Y-42015D01*
X63860Y-42192D01*
X63384Y-42667D01*
X63376Y-42649D01*
X63351Y-42623D01*
X63317Y-42610D01*
X63282Y-42609D01*
X62682Y-42609D01*
X62649Y-42623D01*
X62623Y-42648D01*
X62610Y-42682D01*
X62609Y-42717D01*
X62609Y-43317D01*
X62623Y-43350D01*
X62648Y-43376D01*
X62682Y-43389D01*
X62717Y-43390D01*
X63317Y-43390D01*
X63350Y-43376D01*
X63376Y-43351D01*
X63389Y-43317D01*
X63390Y-43282D01*
X63390Y-43057D01*
X64098Y-42348D01*
X64098Y-42348D01*
X64119Y-42318D01*
X64129Y-42303D01*
X64129Y-42303D01*
X64139Y-42250D01*
X64140Y-42250D01*
X64140Y-42015D01*
X64242Y-42015D01*
X64275Y-42001D01*
X64301Y-41976D01*
X64314Y-41942D01*
X64315Y-41907D01*
X64315Y-41890D01*
X64942Y-41890D01*
X64968Y-41916D01*
X64968Y-42155D01*
X64982Y-42188D01*
X65003Y-42210D01*
X64650Y-42210D01*
X64596Y-42220D01*
X64581Y-42230D01*
X64551Y-42251D01*
X64158Y-42643D01*
X64077Y-42610D01*
X63922Y-42609D01*
X63779Y-42669D01*
X63669Y-42778D01*
X63610Y-42922D01*
X63609Y-43077D01*
X63669Y-43220D01*
X63778Y-43330D01*
X63922Y-43389D01*
X64077Y-43390D01*
X64220Y-43330D01*
X64330Y-43221D01*
X64389Y-43077D01*
X64390Y-42922D01*
X64356Y-42841D01*
X64707Y-42490D01*
X65312Y-42490D01*
X65158Y-42643D01*
X65077Y-42610D01*
X64922Y-42609D01*
X64779Y-42669D01*
X64669Y-42778D01*
X64610Y-42922D01*
X64609Y-43077D01*
X64669Y-43220D01*
X64778Y-43330D01*
X64922Y-43389D01*
X65077Y-43390D01*
X65220Y-43330D01*
X65330Y-43221D01*
X65389Y-43077D01*
X65390Y-42922D01*
X65356Y-42841D01*
X65557Y-42640D01*
X65849Y-42640D01*
X65779Y-42669D01*
X65669Y-42778D01*
X65610Y-42922D01*
X65609Y-43077D01*
X65669Y-43220D01*
X65778Y-43330D01*
X65922Y-43389D01*
X66077Y-43390D01*
X66220Y-43330D01*
X66330Y-43221D01*
X66389Y-43077D01*
X66390Y-42970D01*
X66910Y-42450D01*
X66910Y-42615D01*
X66779Y-42669D01*
X66669Y-42778D01*
X66610Y-42922D01*
X66609Y-43077D01*
X66669Y-43220D01*
X66778Y-43330D01*
X66922Y-43389D01*
X67077Y-43390D01*
X67220Y-43330D01*
X67330Y-43221D01*
X67389Y-43077D01*
X67390Y-42922D01*
X67390Y-43390D01*
X62609Y-43390D01*
X62609Y-39609D01*
X63975Y-39609D01*
X63869Y-39624D01*
X63826Y-39642D01*
X63788Y-39689D01*
X64000Y-39901D01*
X64211Y-39689D01*
X64173Y-39642D01*
X64048Y-39609D01*
X64975Y-39609D01*
X64869Y-39624D01*
X64826Y-39642D01*
X64788Y-39689D01*
X65000Y-39901D01*
X65211Y-39689D01*
X65173Y-39642D01*
X65048Y-39609D01*
X67390Y-39609D01*
X67390Y-43390D01*
X67390Y-43390D01*
G37*
G54D19*
X67390Y-43390D02*
X67390Y-43390D01*
X67390Y-42922D01*
X67330Y-42779D01*
X67221Y-42669D01*
X67190Y-42656D01*
X67190Y-41587D01*
X67179Y-41534D01*
X67179Y-41534D01*
X67148Y-41488D01*
X66864Y-41204D01*
X66818Y-41173D01*
X66765Y-41163D01*
X66707Y-41163D01*
X66678Y-41151D01*
X66641Y-41151D01*
X66545Y-41151D01*
X66545Y-40792D01*
X66533Y-40763D01*
X66533Y-40664D01*
X66841Y-40356D01*
X66922Y-40389D01*
X67077Y-40390D01*
X67220Y-40330D01*
X67330Y-40221D01*
X67389Y-40077D01*
X67390Y-39922D01*
X67330Y-39779D01*
X67221Y-39669D01*
X67077Y-39610D01*
X66922Y-39609D01*
X66779Y-39669D01*
X66669Y-39778D01*
X66610Y-39922D01*
X66609Y-40077D01*
X66643Y-40158D01*
X66294Y-40507D01*
X66264Y-40552D01*
X66253Y-40606D01*
X66253Y-40718D01*
X66237Y-40718D01*
X66140Y-40718D01*
X66140Y-40364D01*
X66220Y-40330D01*
X66330Y-40221D01*
X66389Y-40077D01*
X66390Y-39922D01*
X66330Y-39779D01*
X66221Y-39669D01*
X66077Y-39610D01*
X65922Y-39609D01*
X65779Y-39669D01*
X65669Y-39778D01*
X65610Y-39922D01*
X65609Y-40077D01*
X65669Y-40220D01*
X65778Y-40330D01*
X65860Y-40364D01*
X65860Y-40763D01*
X65847Y-40792D01*
X65847Y-40829D01*
X65847Y-41193D01*
X65862Y-41227D01*
X65888Y-41253D01*
X65922Y-41268D01*
X65959Y-41268D01*
X66077Y-41268D01*
X66098Y-41259D01*
X66119Y-41268D01*
X66156Y-41268D01*
X66251Y-41268D01*
X66251Y-41380D01*
X66260Y-41401D01*
X66251Y-41422D01*
X66251Y-41459D01*
X66251Y-41577D01*
X66260Y-41598D01*
X66251Y-41619D01*
X66251Y-41656D01*
X66251Y-41731D01*
X66237Y-41731D01*
X66119Y-41731D01*
X66098Y-41740D01*
X66077Y-41731D01*
X66040Y-41731D01*
X65922Y-41731D01*
X65901Y-41740D01*
X65880Y-41731D01*
X65843Y-41731D01*
X65748Y-41731D01*
X65748Y-41540D01*
X65748Y-41422D01*
X65739Y-41401D01*
X65748Y-41380D01*
X65748Y-41343D01*
X65748Y-41225D01*
X65734Y-41191D01*
X65708Y-41165D01*
X65674Y-41151D01*
X65637Y-41151D01*
X65463Y-41151D01*
X65463Y-41119D01*
X65463Y-40844D01*
X65449Y-40811D01*
X65424Y-40786D01*
X65396Y-40774D01*
X65396Y-40023D01*
X65375Y-39869D01*
X65357Y-39826D01*
X65310Y-39788D01*
X65098Y-40000D01*
X65310Y-40211D01*
X65357Y-40173D01*
X65396Y-40023D01*
X65396Y-40774D01*
X65391Y-40772D01*
X65355Y-40772D01*
X65211Y-40772D01*
X65211Y-40310D01*
X65000Y-40098D01*
X64901Y-40197D01*
X64901Y-40000D01*
X64689Y-39788D01*
X64642Y-39826D01*
X64603Y-39976D01*
X64624Y-40130D01*
X64642Y-40173D01*
X64689Y-40211D01*
X64901Y-40000D01*
X64901Y-40197D01*
X64788Y-40310D01*
X64826Y-40357D01*
X64976Y-40396D01*
X65130Y-40375D01*
X65173Y-40357D01*
X65211Y-40310D01*
X65211Y-40772D01*
X65040Y-40772D01*
X65007Y-40786D01*
X64982Y-40811D01*
X64968Y-40844D01*
X64968Y-40880D01*
X64968Y-41155D01*
X64971Y-41163D01*
X64611Y-41163D01*
X64548Y-41101D01*
X64503Y-41070D01*
X64450Y-41060D01*
X64396Y-41060D01*
X64396Y-40023D01*
X64375Y-39869D01*
X64357Y-39826D01*
X64310Y-39788D01*
X64098Y-40000D01*
X64310Y-40211D01*
X64357Y-40173D01*
X64396Y-40023D01*
X64396Y-41060D01*
X64315Y-41060D01*
X64315Y-41057D01*
X64301Y-41024D01*
X64276Y-40998D01*
X64242Y-40985D01*
X64211Y-40984D01*
X64211Y-40310D01*
X64000Y-40098D01*
X63901Y-40197D01*
X63901Y-40000D01*
X63689Y-39788D01*
X63642Y-39826D01*
X63603Y-39976D01*
X63624Y-40130D01*
X63642Y-40173D01*
X63689Y-40211D01*
X63901Y-40000D01*
X63901Y-40197D01*
X63788Y-40310D01*
X63826Y-40357D01*
X63976Y-40396D01*
X64130Y-40375D01*
X64173Y-40357D01*
X64211Y-40310D01*
X64211Y-40984D01*
X64207Y-40984D01*
X63757Y-40984D01*
X63724Y-40998D01*
X63698Y-41023D01*
X63695Y-41032D01*
X63695Y-40617D01*
X63681Y-40584D01*
X63656Y-40558D01*
X63622Y-40545D01*
X63587Y-40544D01*
X63140Y-40544D01*
X63140Y-40364D01*
X63220Y-40330D01*
X63330Y-40221D01*
X63389Y-40077D01*
X63390Y-39922D01*
X63330Y-39779D01*
X63221Y-39669D01*
X63077Y-39610D01*
X62922Y-39609D01*
X62779Y-39669D01*
X62669Y-39778D01*
X62610Y-39922D01*
X62609Y-40077D01*
X62669Y-40220D01*
X62778Y-40330D01*
X62860Y-40364D01*
X62860Y-40552D01*
X62844Y-40558D01*
X62818Y-40583D01*
X62805Y-40617D01*
X62804Y-40652D01*
X62804Y-41282D01*
X62818Y-41315D01*
X62843Y-41341D01*
X62877Y-41354D01*
X62912Y-41355D01*
X63622Y-41355D01*
X63655Y-41341D01*
X63657Y-41340D01*
X63684Y-41340D01*
X63684Y-41342D01*
X63698Y-41375D01*
X63723Y-41401D01*
X63757Y-41414D01*
X63792Y-41415D01*
X64242Y-41415D01*
X64275Y-41401D01*
X64301Y-41376D01*
X64314Y-41342D01*
X64314Y-41340D01*
X64392Y-41340D01*
X64454Y-41402D01*
X64454Y-41402D01*
X64499Y-41432D01*
X64499Y-41432D01*
X64553Y-41443D01*
X64553Y-41443D01*
X65247Y-41443D01*
X65247Y-41459D01*
X65247Y-41577D01*
X65261Y-41611D01*
X65287Y-41637D01*
X65321Y-41652D01*
X65358Y-41652D01*
X65673Y-41652D01*
X65708Y-41637D01*
X65734Y-41611D01*
X65748Y-41577D01*
X65748Y-41540D01*
X65748Y-41731D01*
X65725Y-41731D01*
X65704Y-41740D01*
X65683Y-41731D01*
X65646Y-41731D01*
X65528Y-41731D01*
X65494Y-41745D01*
X65468Y-41772D01*
X65454Y-41806D01*
X65454Y-41822D01*
X65449Y-41811D01*
X65424Y-41786D01*
X65391Y-41772D01*
X65355Y-41772D01*
X65220Y-41772D01*
X65098Y-41651D01*
X65053Y-41620D01*
X65000Y-41610D01*
X64287Y-41610D01*
X64276Y-41598D01*
X64242Y-41585D01*
X64207Y-41584D01*
X63757Y-41584D01*
X63724Y-41598D01*
X63698Y-41623D01*
X63685Y-41657D01*
X63684Y-41692D01*
X63684Y-41942D01*
X63698Y-41975D01*
X63723Y-42001D01*
X63757Y-42014D01*
X63792Y-42015D01*
X63860Y-42015D01*
X63860Y-42192D01*
X63384Y-42667D01*
X63376Y-42649D01*
X63351Y-42623D01*
X63317Y-42610D01*
X63282Y-42609D01*
X62682Y-42609D01*
X62649Y-42623D01*
X62623Y-42648D01*
X62610Y-42682D01*
X62609Y-42717D01*
X62609Y-43317D01*
X62623Y-43350D01*
X62648Y-43376D01*
X62682Y-43389D01*
X62717Y-43390D01*
X63317Y-43390D01*
X63350Y-43376D01*
X63376Y-43351D01*
X63389Y-43317D01*
X63390Y-43282D01*
X63390Y-43057D01*
X64098Y-42348D01*
X64098Y-42348D01*
X64119Y-42318D01*
X64129Y-42303D01*
X64129Y-42303D01*
X64139Y-42250D01*
X64140Y-42250D01*
X64140Y-42015D01*
X64242Y-42015D01*
X64275Y-42001D01*
X64301Y-41976D01*
X64314Y-41942D01*
X64315Y-41907D01*
X64315Y-41890D01*
X64942Y-41890D01*
X64968Y-41916D01*
X64968Y-42155D01*
X64982Y-42188D01*
X65003Y-42210D01*
X64650Y-42210D01*
X64596Y-42220D01*
X64581Y-42230D01*
X64551Y-42251D01*
X64158Y-42643D01*
X64077Y-42610D01*
X63922Y-42609D01*
X63779Y-42669D01*
X63669Y-42778D01*
X63610Y-42922D01*
X63609Y-43077D01*
X63669Y-43220D01*
X63778Y-43330D01*
X63922Y-43389D01*
X64077Y-43390D01*
X64220Y-43330D01*
X64330Y-43221D01*
X64389Y-43077D01*
X64390Y-42922D01*
X64356Y-42841D01*
X64707Y-42490D01*
X65312Y-42490D01*
X65158Y-42643D01*
X65077Y-42610D01*
X64922Y-42609D01*
X64779Y-42669D01*
X64669Y-42778D01*
X64610Y-42922D01*
X64609Y-43077D01*
X64669Y-43220D01*
X64778Y-43330D01*
X64922Y-43389D01*
X65077Y-43390D01*
X65220Y-43330D01*
X65330Y-43221D01*
X65389Y-43077D01*
X65390Y-42922D01*
X65356Y-42841D01*
X65557Y-42640D01*
X65849Y-42640D01*
X65779Y-42669D01*
X65669Y-42778D01*
X65610Y-42922D01*
X65609Y-43077D01*
X65669Y-43220D01*
X65778Y-43330D01*
X65922Y-43389D01*
X66077Y-43390D01*
X66220Y-43330D01*
X66330Y-43221D01*
X66389Y-43077D01*
X66390Y-42970D01*
X66910Y-42450D01*
X66910Y-42615D01*
X66779Y-42669D01*
X66669Y-42778D01*
X66610Y-42922D01*
X66609Y-43077D01*
X66669Y-43220D01*
X66778Y-43330D01*
X66922Y-43389D01*
X67077Y-43390D01*
X67220Y-43330D01*
X67330Y-43221D01*
X67389Y-43077D01*
X67390Y-42922D01*
X67390Y-43390D01*
X62609Y-43390D01*
X62609Y-39609D01*
X63975Y-39609D01*
X63869Y-39624D01*
X63826Y-39642D01*
X63788Y-39689D01*
X64000Y-39901D01*
X64211Y-39689D01*
X64173Y-39642D01*
X64048Y-39609D01*
X64975Y-39609D01*
X64869Y-39624D01*
X64826Y-39642D01*
X64788Y-39689D01*
X65000Y-39901D01*
X65211Y-39689D01*
X65173Y-39642D01*
X65048Y-39609D01*
X67390Y-39609D01*
X67390Y-43390D01*
M02*
