G04 (created by PCBNEW (2013-june-11)-stable) date Sat 19 Jul 2014 04:59:49 PM PDT*
%MOIN*%
G04 Gerber Fmt 3.4, Leading zero omitted, Abs format*
%FSLAX34Y34*%
G01*
G70*
G90*
G04 APERTURE LIST*
%ADD10C,0.00590551*%
%ADD11R,0.06X0.06*%
%ADD12C,0.06*%
%ADD13C,0.006*%
G04 APERTURE END LIST*
G54D10*
G54D11*
X63000Y-43000D03*
G54D12*
X64000Y-43000D03*
X65000Y-43000D03*
X66000Y-43000D03*
X67000Y-43000D03*
X67000Y-40000D03*
X66000Y-40000D03*
X65000Y-40000D03*
X64000Y-40000D03*
X63000Y-40000D03*
G54D10*
G36*
X67390Y-43390D02*
X67390Y-43390D01*
X67390Y-42922D01*
X67390Y-39922D01*
X67330Y-39779D01*
X67221Y-39669D01*
X67077Y-39610D01*
X66922Y-39609D01*
X66779Y-39669D01*
X66669Y-39778D01*
X66610Y-39922D01*
X66609Y-40077D01*
X66669Y-40220D01*
X66778Y-40330D01*
X66922Y-40389D01*
X67077Y-40390D01*
X67220Y-40330D01*
X67330Y-40221D01*
X67389Y-40077D01*
X67390Y-39922D01*
X67390Y-42922D01*
X67330Y-42779D01*
X67221Y-42669D01*
X67077Y-42610D01*
X66922Y-42609D01*
X66779Y-42669D01*
X66669Y-42778D01*
X66610Y-42922D01*
X66609Y-43077D01*
X66669Y-43220D01*
X66778Y-43330D01*
X66922Y-43389D01*
X67077Y-43390D01*
X67220Y-43330D01*
X67330Y-43221D01*
X67389Y-43077D01*
X67390Y-42922D01*
X67390Y-43390D01*
X66390Y-43390D01*
X66390Y-42922D01*
X66390Y-39922D01*
X66330Y-39779D01*
X66221Y-39669D01*
X66077Y-39610D01*
X65922Y-39609D01*
X65779Y-39669D01*
X65669Y-39778D01*
X65610Y-39922D01*
X65609Y-40077D01*
X65669Y-40220D01*
X65778Y-40330D01*
X65922Y-40389D01*
X66077Y-40390D01*
X66220Y-40330D01*
X66330Y-40221D01*
X66389Y-40077D01*
X66390Y-39922D01*
X66390Y-42922D01*
X66330Y-42779D01*
X66221Y-42669D01*
X66077Y-42610D01*
X65922Y-42609D01*
X65779Y-42669D01*
X65669Y-42778D01*
X65610Y-42922D01*
X65609Y-43077D01*
X65669Y-43220D01*
X65778Y-43330D01*
X65922Y-43389D01*
X66077Y-43390D01*
X66220Y-43330D01*
X66330Y-43221D01*
X66389Y-43077D01*
X66390Y-42922D01*
X66390Y-43390D01*
X65396Y-43390D01*
X65396Y-40023D01*
X65375Y-39869D01*
X65357Y-39826D01*
X65310Y-39788D01*
X65098Y-40000D01*
X65310Y-40211D01*
X65357Y-40173D01*
X65396Y-40023D01*
X65396Y-43390D01*
X65390Y-43390D01*
X65390Y-42922D01*
X65330Y-42779D01*
X65221Y-42669D01*
X65211Y-42665D01*
X65211Y-40310D01*
X65000Y-40098D01*
X64901Y-40197D01*
X64901Y-40000D01*
X64689Y-39788D01*
X64642Y-39826D01*
X64603Y-39976D01*
X64624Y-40130D01*
X64642Y-40173D01*
X64689Y-40211D01*
X64901Y-40000D01*
X64901Y-40197D01*
X64788Y-40310D01*
X64826Y-40357D01*
X64976Y-40396D01*
X65130Y-40375D01*
X65173Y-40357D01*
X65211Y-40310D01*
X65211Y-42665D01*
X65077Y-42610D01*
X64922Y-42609D01*
X64779Y-42669D01*
X64669Y-42778D01*
X64610Y-42922D01*
X64609Y-43077D01*
X64669Y-43220D01*
X64778Y-43330D01*
X64922Y-43389D01*
X65077Y-43390D01*
X65220Y-43330D01*
X65330Y-43221D01*
X65389Y-43077D01*
X65390Y-42922D01*
X65390Y-43390D01*
X64396Y-43390D01*
X64396Y-40023D01*
X64375Y-39869D01*
X64357Y-39826D01*
X64310Y-39788D01*
X64098Y-40000D01*
X64310Y-40211D01*
X64357Y-40173D01*
X64396Y-40023D01*
X64396Y-43390D01*
X64390Y-43390D01*
X64390Y-42922D01*
X64330Y-42779D01*
X64221Y-42669D01*
X64211Y-42665D01*
X64211Y-40310D01*
X64000Y-40098D01*
X63901Y-40197D01*
X63901Y-40000D01*
X63689Y-39788D01*
X63642Y-39826D01*
X63603Y-39976D01*
X63624Y-40130D01*
X63642Y-40173D01*
X63689Y-40211D01*
X63901Y-40000D01*
X63901Y-40197D01*
X63788Y-40310D01*
X63826Y-40357D01*
X63976Y-40396D01*
X64130Y-40375D01*
X64173Y-40357D01*
X64211Y-40310D01*
X64211Y-42665D01*
X64077Y-42610D01*
X63922Y-42609D01*
X63779Y-42669D01*
X63669Y-42778D01*
X63610Y-42922D01*
X63609Y-43077D01*
X63669Y-43220D01*
X63778Y-43330D01*
X63922Y-43389D01*
X64077Y-43390D01*
X64220Y-43330D01*
X64330Y-43221D01*
X64389Y-43077D01*
X64390Y-42922D01*
X64390Y-43390D01*
X63390Y-43390D01*
X63390Y-39922D01*
X63330Y-39779D01*
X63221Y-39669D01*
X63077Y-39610D01*
X62922Y-39609D01*
X62779Y-39669D01*
X62669Y-39778D01*
X62610Y-39922D01*
X62609Y-40077D01*
X62669Y-40220D01*
X62778Y-40330D01*
X62922Y-40389D01*
X63077Y-40390D01*
X63220Y-40330D01*
X63330Y-40221D01*
X63389Y-40077D01*
X63390Y-39922D01*
X63390Y-43390D01*
X63390Y-43390D01*
X63390Y-43282D01*
X63390Y-42682D01*
X63376Y-42649D01*
X63351Y-42623D01*
X63317Y-42610D01*
X63282Y-42609D01*
X62682Y-42609D01*
X62649Y-42623D01*
X62623Y-42648D01*
X62610Y-42682D01*
X62609Y-42717D01*
X62609Y-43317D01*
X62623Y-43350D01*
X62648Y-43376D01*
X62682Y-43389D01*
X62717Y-43390D01*
X63317Y-43390D01*
X63350Y-43376D01*
X63376Y-43351D01*
X63389Y-43317D01*
X63390Y-43282D01*
X63390Y-43390D01*
X62609Y-43390D01*
X62609Y-39609D01*
X63975Y-39609D01*
X63869Y-39624D01*
X63826Y-39642D01*
X63788Y-39689D01*
X64000Y-39901D01*
X64211Y-39689D01*
X64173Y-39642D01*
X64048Y-39609D01*
X64975Y-39609D01*
X64869Y-39624D01*
X64826Y-39642D01*
X64788Y-39689D01*
X65000Y-39901D01*
X65211Y-39689D01*
X65173Y-39642D01*
X65048Y-39609D01*
X67390Y-39609D01*
X67390Y-43390D01*
X67390Y-43390D01*
G37*
G54D13*
X67390Y-43390D02*
X67390Y-43390D01*
X67390Y-42922D01*
X67390Y-39922D01*
X67330Y-39779D01*
X67221Y-39669D01*
X67077Y-39610D01*
X66922Y-39609D01*
X66779Y-39669D01*
X66669Y-39778D01*
X66610Y-39922D01*
X66609Y-40077D01*
X66669Y-40220D01*
X66778Y-40330D01*
X66922Y-40389D01*
X67077Y-40390D01*
X67220Y-40330D01*
X67330Y-40221D01*
X67389Y-40077D01*
X67390Y-39922D01*
X67390Y-42922D01*
X67330Y-42779D01*
X67221Y-42669D01*
X67077Y-42610D01*
X66922Y-42609D01*
X66779Y-42669D01*
X66669Y-42778D01*
X66610Y-42922D01*
X66609Y-43077D01*
X66669Y-43220D01*
X66778Y-43330D01*
X66922Y-43389D01*
X67077Y-43390D01*
X67220Y-43330D01*
X67330Y-43221D01*
X67389Y-43077D01*
X67390Y-42922D01*
X67390Y-43390D01*
X66390Y-43390D01*
X66390Y-42922D01*
X66390Y-39922D01*
X66330Y-39779D01*
X66221Y-39669D01*
X66077Y-39610D01*
X65922Y-39609D01*
X65779Y-39669D01*
X65669Y-39778D01*
X65610Y-39922D01*
X65609Y-40077D01*
X65669Y-40220D01*
X65778Y-40330D01*
X65922Y-40389D01*
X66077Y-40390D01*
X66220Y-40330D01*
X66330Y-40221D01*
X66389Y-40077D01*
X66390Y-39922D01*
X66390Y-42922D01*
X66330Y-42779D01*
X66221Y-42669D01*
X66077Y-42610D01*
X65922Y-42609D01*
X65779Y-42669D01*
X65669Y-42778D01*
X65610Y-42922D01*
X65609Y-43077D01*
X65669Y-43220D01*
X65778Y-43330D01*
X65922Y-43389D01*
X66077Y-43390D01*
X66220Y-43330D01*
X66330Y-43221D01*
X66389Y-43077D01*
X66390Y-42922D01*
X66390Y-43390D01*
X65396Y-43390D01*
X65396Y-40023D01*
X65375Y-39869D01*
X65357Y-39826D01*
X65310Y-39788D01*
X65098Y-40000D01*
X65310Y-40211D01*
X65357Y-40173D01*
X65396Y-40023D01*
X65396Y-43390D01*
X65390Y-43390D01*
X65390Y-42922D01*
X65330Y-42779D01*
X65221Y-42669D01*
X65211Y-42665D01*
X65211Y-40310D01*
X65000Y-40098D01*
X64901Y-40197D01*
X64901Y-40000D01*
X64689Y-39788D01*
X64642Y-39826D01*
X64603Y-39976D01*
X64624Y-40130D01*
X64642Y-40173D01*
X64689Y-40211D01*
X64901Y-40000D01*
X64901Y-40197D01*
X64788Y-40310D01*
X64826Y-40357D01*
X64976Y-40396D01*
X65130Y-40375D01*
X65173Y-40357D01*
X65211Y-40310D01*
X65211Y-42665D01*
X65077Y-42610D01*
X64922Y-42609D01*
X64779Y-42669D01*
X64669Y-42778D01*
X64610Y-42922D01*
X64609Y-43077D01*
X64669Y-43220D01*
X64778Y-43330D01*
X64922Y-43389D01*
X65077Y-43390D01*
X65220Y-43330D01*
X65330Y-43221D01*
X65389Y-43077D01*
X65390Y-42922D01*
X65390Y-43390D01*
X64396Y-43390D01*
X64396Y-40023D01*
X64375Y-39869D01*
X64357Y-39826D01*
X64310Y-39788D01*
X64098Y-40000D01*
X64310Y-40211D01*
X64357Y-40173D01*
X64396Y-40023D01*
X64396Y-43390D01*
X64390Y-43390D01*
X64390Y-42922D01*
X64330Y-42779D01*
X64221Y-42669D01*
X64211Y-42665D01*
X64211Y-40310D01*
X64000Y-40098D01*
X63901Y-40197D01*
X63901Y-40000D01*
X63689Y-39788D01*
X63642Y-39826D01*
X63603Y-39976D01*
X63624Y-40130D01*
X63642Y-40173D01*
X63689Y-40211D01*
X63901Y-40000D01*
X63901Y-40197D01*
X63788Y-40310D01*
X63826Y-40357D01*
X63976Y-40396D01*
X64130Y-40375D01*
X64173Y-40357D01*
X64211Y-40310D01*
X64211Y-42665D01*
X64077Y-42610D01*
X63922Y-42609D01*
X63779Y-42669D01*
X63669Y-42778D01*
X63610Y-42922D01*
X63609Y-43077D01*
X63669Y-43220D01*
X63778Y-43330D01*
X63922Y-43389D01*
X64077Y-43390D01*
X64220Y-43330D01*
X64330Y-43221D01*
X64389Y-43077D01*
X64390Y-42922D01*
X64390Y-43390D01*
X63390Y-43390D01*
X63390Y-39922D01*
X63330Y-39779D01*
X63221Y-39669D01*
X63077Y-39610D01*
X62922Y-39609D01*
X62779Y-39669D01*
X62669Y-39778D01*
X62610Y-39922D01*
X62609Y-40077D01*
X62669Y-40220D01*
X62778Y-40330D01*
X62922Y-40389D01*
X63077Y-40390D01*
X63220Y-40330D01*
X63330Y-40221D01*
X63389Y-40077D01*
X63390Y-39922D01*
X63390Y-43390D01*
X63390Y-43390D01*
X63390Y-43282D01*
X63390Y-42682D01*
X63376Y-42649D01*
X63351Y-42623D01*
X63317Y-42610D01*
X63282Y-42609D01*
X62682Y-42609D01*
X62649Y-42623D01*
X62623Y-42648D01*
X62610Y-42682D01*
X62609Y-42717D01*
X62609Y-43317D01*
X62623Y-43350D01*
X62648Y-43376D01*
X62682Y-43389D01*
X62717Y-43390D01*
X63317Y-43390D01*
X63350Y-43376D01*
X63376Y-43351D01*
X63389Y-43317D01*
X63390Y-43282D01*
X63390Y-43390D01*
X62609Y-43390D01*
X62609Y-39609D01*
X63975Y-39609D01*
X63869Y-39624D01*
X63826Y-39642D01*
X63788Y-39689D01*
X64000Y-39901D01*
X64211Y-39689D01*
X64173Y-39642D01*
X64048Y-39609D01*
X64975Y-39609D01*
X64869Y-39624D01*
X64826Y-39642D01*
X64788Y-39689D01*
X65000Y-39901D01*
X65211Y-39689D01*
X65173Y-39642D01*
X65048Y-39609D01*
X67390Y-39609D01*
X67390Y-43390D01*
M02*
