G04 (created by PCBNEW (2013-june-11)-stable) date Mon 20 Jan 2014 10:16:48 PM PST*
%MOIN*%
G04 Gerber Fmt 3.4, Leading zero omitted, Abs format*
%FSLAX34Y34*%
G01*
G70*
G90*
G04 APERTURE LIST*
%ADD10C,0.00590551*%
%ADD11C,0.02*%
%ADD12C,0.0472*%
%ADD13R,0.055X0.055*%
%ADD14C,0.055*%
%ADD15R,0.06X0.06*%
%ADD16C,0.06*%
%ADD17C,0.035*%
%ADD18C,0.023*%
%ADD19C,0.02*%
%ADD20C,0.01*%
%ADD21C,0.006*%
G04 APERTURE END LIST*
G54D10*
G54D11*
X70020Y-33980D03*
X71200Y-35450D03*
X71350Y-36350D03*
X69300Y-34850D03*
X68800Y-35200D03*
X69800Y-36750D03*
X68800Y-35550D03*
X68900Y-34850D03*
X69350Y-36750D03*
X70700Y-36750D03*
X71150Y-36750D03*
X71850Y-35750D03*
X69150Y-36150D03*
X70250Y-36750D03*
X68950Y-35850D03*
X69150Y-36450D03*
X72050Y-31650D03*
X70600Y-34850D03*
X71550Y-36000D03*
X70150Y-34850D03*
X69700Y-34850D03*
X70750Y-35250D03*
G54D12*
X61835Y-32634D03*
X61835Y-34366D03*
G54D13*
X72500Y-36500D03*
G54D14*
X73500Y-36500D03*
X74500Y-36500D03*
X75500Y-36500D03*
X76500Y-36500D03*
X77500Y-36500D03*
X78500Y-36500D03*
X79500Y-36500D03*
G54D13*
X65500Y-36500D03*
G54D14*
X66500Y-36500D03*
X67500Y-36500D03*
X68500Y-36500D03*
G54D15*
X78500Y-32500D03*
G54D16*
X79500Y-32500D03*
X78500Y-33500D03*
X79500Y-33500D03*
X78500Y-34500D03*
X79500Y-34500D03*
G54D13*
X60500Y-36500D03*
G54D14*
X61500Y-36500D03*
X62500Y-36500D03*
X63500Y-36500D03*
X64500Y-36500D03*
G54D13*
X79500Y-30500D03*
G54D14*
X78500Y-30500D03*
X77500Y-30500D03*
X76500Y-30500D03*
G54D13*
X67500Y-30500D03*
G54D14*
X66500Y-30500D03*
X65500Y-30500D03*
X64500Y-30500D03*
X63500Y-30500D03*
X62500Y-30500D03*
X61500Y-30500D03*
X60500Y-30500D03*
G54D13*
X75500Y-30500D03*
G54D14*
X74500Y-30500D03*
X73500Y-30500D03*
X72500Y-30500D03*
X71500Y-30500D03*
X70500Y-30500D03*
X69500Y-30500D03*
X68500Y-30500D03*
G54D11*
X70900Y-35550D03*
G54D17*
X76200Y-34500D03*
X71800Y-36400D03*
G54D18*
X61400Y-33700D03*
X61700Y-33400D03*
X72350Y-31650D03*
X72550Y-31400D03*
X74600Y-34200D03*
X71250Y-34750D03*
X74800Y-34450D03*
X71000Y-34950D03*
X68050Y-34300D03*
G54D17*
X61000Y-34250D03*
X64250Y-34500D03*
X63650Y-33400D03*
X63650Y-32750D03*
X71630Y-31350D03*
X77200Y-33100D03*
X75900Y-31300D03*
X74900Y-32300D03*
X69400Y-34100D03*
X65000Y-32250D03*
X69250Y-32500D03*
G54D19*
X75500Y-34500D02*
X76200Y-34500D01*
X74600Y-35400D02*
X75500Y-34500D01*
X74300Y-35400D02*
X74600Y-35400D01*
X74000Y-35100D02*
X74300Y-35400D01*
X73100Y-35100D02*
X74000Y-35100D01*
X71800Y-36400D02*
X73100Y-35100D01*
G54D20*
X60800Y-30500D02*
X60500Y-30500D01*
X61239Y-30939D02*
X60800Y-30500D01*
X61239Y-33539D02*
X61239Y-30939D01*
X61400Y-33700D02*
X61239Y-33539D01*
X61400Y-30600D02*
X61500Y-30500D01*
X61400Y-33100D02*
X61400Y-30600D01*
X61700Y-33400D02*
X61400Y-33100D01*
X69060Y-31060D02*
X68500Y-30500D01*
X72183Y-31060D02*
X69060Y-31060D01*
X72300Y-31176D02*
X72183Y-31060D01*
X72300Y-31600D02*
X72300Y-31176D01*
X72350Y-31650D02*
X72300Y-31600D01*
X69900Y-30900D02*
X69500Y-30500D01*
X72250Y-30900D02*
X69900Y-30900D01*
X72550Y-31200D02*
X72250Y-30900D01*
X72550Y-31400D02*
X72550Y-31200D01*
X71800Y-34200D02*
X74600Y-34200D01*
X71250Y-34750D02*
X71800Y-34200D01*
X71000Y-34650D02*
X71700Y-33950D01*
X71700Y-33950D02*
X74700Y-33950D01*
X74700Y-33950D02*
X74850Y-34100D01*
X74850Y-34100D02*
X74850Y-34400D01*
X74850Y-34400D02*
X74800Y-34450D01*
X71000Y-34950D02*
X71000Y-34650D01*
X71000Y-34950D02*
X71000Y-34900D01*
X68350Y-34600D02*
X68050Y-34300D01*
X70700Y-34600D02*
X68350Y-34600D01*
X71000Y-34900D02*
X70700Y-34600D01*
G54D19*
X61000Y-34250D02*
X60500Y-34750D01*
X60500Y-34750D02*
X60500Y-36500D01*
X63650Y-33400D02*
X63650Y-33900D01*
X63650Y-33900D02*
X64250Y-34500D01*
X63650Y-32750D02*
X63650Y-33400D01*
X70450Y-31300D02*
X70275Y-31475D01*
X71580Y-31300D02*
X70450Y-31300D01*
X71630Y-31350D02*
X71580Y-31300D01*
X77300Y-32000D02*
X77300Y-33000D01*
X77300Y-33000D02*
X77200Y-33100D01*
X79000Y-32000D02*
X79500Y-32500D01*
X76600Y-32000D02*
X77300Y-32000D01*
X77300Y-32000D02*
X79000Y-32000D01*
X75900Y-31300D02*
X76600Y-32000D01*
X71000Y-32200D02*
X73900Y-32200D01*
X71000Y-32200D02*
X70275Y-31475D01*
X74000Y-32300D02*
X74900Y-32300D01*
X73900Y-32200D02*
X74000Y-32300D01*
X70275Y-31475D02*
X69250Y-32500D01*
X69250Y-32500D02*
X69250Y-33950D01*
X69250Y-33950D02*
X69400Y-34100D01*
X62500Y-32750D02*
X62500Y-36500D01*
X62500Y-32750D02*
X63250Y-32000D01*
X63250Y-32000D02*
X64750Y-32000D01*
X64750Y-32000D02*
X65000Y-32250D01*
G54D10*
G36*
X79890Y-36890D02*
X79890Y-36890D01*
X79890Y-33422D01*
X79890Y-32422D01*
X79865Y-32362D01*
X79865Y-30757D01*
X79865Y-30207D01*
X79851Y-30174D01*
X79826Y-30148D01*
X79792Y-30135D01*
X79757Y-30134D01*
X79207Y-30134D01*
X79174Y-30148D01*
X79148Y-30173D01*
X79135Y-30207D01*
X79134Y-30242D01*
X79134Y-30792D01*
X79148Y-30825D01*
X79173Y-30851D01*
X79207Y-30864D01*
X79242Y-30865D01*
X79792Y-30865D01*
X79825Y-30851D01*
X79851Y-30826D01*
X79864Y-30792D01*
X79865Y-30757D01*
X79865Y-32362D01*
X79830Y-32279D01*
X79721Y-32169D01*
X79577Y-32110D01*
X79422Y-32109D01*
X79391Y-32122D01*
X79134Y-31865D01*
X79072Y-31824D01*
X79000Y-31810D01*
X78865Y-31810D01*
X78865Y-30427D01*
X78809Y-30293D01*
X78707Y-30190D01*
X78572Y-30135D01*
X78427Y-30134D01*
X78293Y-30190D01*
X78190Y-30292D01*
X78135Y-30427D01*
X78134Y-30572D01*
X78190Y-30706D01*
X78292Y-30809D01*
X78427Y-30864D01*
X78572Y-30865D01*
X78706Y-30809D01*
X78809Y-30707D01*
X78864Y-30572D01*
X78865Y-30427D01*
X78865Y-31810D01*
X77865Y-31810D01*
X77865Y-30427D01*
X77809Y-30293D01*
X77707Y-30190D01*
X77572Y-30135D01*
X77427Y-30134D01*
X77293Y-30190D01*
X77190Y-30292D01*
X77135Y-30427D01*
X77134Y-30572D01*
X77190Y-30706D01*
X77292Y-30809D01*
X77427Y-30864D01*
X77572Y-30865D01*
X77706Y-30809D01*
X77809Y-30707D01*
X77864Y-30572D01*
X77865Y-30427D01*
X77865Y-31810D01*
X77300Y-31810D01*
X76865Y-31810D01*
X76865Y-30427D01*
X76809Y-30293D01*
X76707Y-30190D01*
X76572Y-30135D01*
X76427Y-30134D01*
X76293Y-30190D01*
X76190Y-30292D01*
X76135Y-30427D01*
X76134Y-30572D01*
X76190Y-30706D01*
X76292Y-30809D01*
X76427Y-30864D01*
X76572Y-30865D01*
X76706Y-30809D01*
X76809Y-30707D01*
X76864Y-30572D01*
X76865Y-30427D01*
X76865Y-31810D01*
X76678Y-31810D01*
X76165Y-31296D01*
X76165Y-31247D01*
X76124Y-31150D01*
X76050Y-31075D01*
X75952Y-31035D01*
X75865Y-31034D01*
X75865Y-30757D01*
X75865Y-30207D01*
X75851Y-30174D01*
X75826Y-30148D01*
X75792Y-30135D01*
X75757Y-30134D01*
X75207Y-30134D01*
X75174Y-30148D01*
X75148Y-30173D01*
X75135Y-30207D01*
X75134Y-30242D01*
X75134Y-30792D01*
X75148Y-30825D01*
X75173Y-30851D01*
X75207Y-30864D01*
X75242Y-30865D01*
X75792Y-30865D01*
X75825Y-30851D01*
X75851Y-30826D01*
X75864Y-30792D01*
X75865Y-30757D01*
X75865Y-31034D01*
X75847Y-31034D01*
X75750Y-31075D01*
X75675Y-31149D01*
X75635Y-31247D01*
X75634Y-31352D01*
X75675Y-31449D01*
X75749Y-31524D01*
X75847Y-31564D01*
X75896Y-31564D01*
X76465Y-32134D01*
X76465Y-32134D01*
X76527Y-32175D01*
X76599Y-32190D01*
X76599Y-32189D01*
X76600Y-32190D01*
X77110Y-32190D01*
X77110Y-32850D01*
X77050Y-32875D01*
X76975Y-32949D01*
X76935Y-33047D01*
X76934Y-33152D01*
X76975Y-33249D01*
X77049Y-33324D01*
X77147Y-33364D01*
X77252Y-33365D01*
X77349Y-33324D01*
X77424Y-33250D01*
X77464Y-33152D01*
X77465Y-33088D01*
X77475Y-33072D01*
X77490Y-33000D01*
X77490Y-32190D01*
X78110Y-32190D01*
X78109Y-32217D01*
X78109Y-32817D01*
X78123Y-32850D01*
X78148Y-32876D01*
X78182Y-32889D01*
X78217Y-32890D01*
X78817Y-32890D01*
X78850Y-32876D01*
X78876Y-32851D01*
X78889Y-32817D01*
X78890Y-32782D01*
X78890Y-32190D01*
X78921Y-32190D01*
X79122Y-32391D01*
X79110Y-32422D01*
X79109Y-32577D01*
X79169Y-32720D01*
X79278Y-32830D01*
X79422Y-32889D01*
X79577Y-32890D01*
X79720Y-32830D01*
X79830Y-32721D01*
X79889Y-32577D01*
X79890Y-32422D01*
X79890Y-33422D01*
X79830Y-33279D01*
X79721Y-33169D01*
X79577Y-33110D01*
X79422Y-33109D01*
X79279Y-33169D01*
X79169Y-33278D01*
X79110Y-33422D01*
X79109Y-33577D01*
X79169Y-33720D01*
X79278Y-33830D01*
X79422Y-33889D01*
X79577Y-33890D01*
X79720Y-33830D01*
X79830Y-33721D01*
X79889Y-33577D01*
X79890Y-33422D01*
X79890Y-36890D01*
X79865Y-36890D01*
X79865Y-36427D01*
X79809Y-36293D01*
X79707Y-36190D01*
X79572Y-36135D01*
X79427Y-36134D01*
X79293Y-36190D01*
X79190Y-36292D01*
X79135Y-36427D01*
X79134Y-36572D01*
X79190Y-36706D01*
X79292Y-36809D01*
X79427Y-36864D01*
X79572Y-36865D01*
X79706Y-36809D01*
X79809Y-36707D01*
X79864Y-36572D01*
X79865Y-36427D01*
X79865Y-36890D01*
X78890Y-36890D01*
X78890Y-34422D01*
X78890Y-33422D01*
X78830Y-33279D01*
X78721Y-33169D01*
X78577Y-33110D01*
X78422Y-33109D01*
X78279Y-33169D01*
X78169Y-33278D01*
X78110Y-33422D01*
X78109Y-33577D01*
X78169Y-33720D01*
X78278Y-33830D01*
X78422Y-33889D01*
X78577Y-33890D01*
X78720Y-33830D01*
X78830Y-33721D01*
X78889Y-33577D01*
X78890Y-33422D01*
X78890Y-34422D01*
X78830Y-34279D01*
X78721Y-34169D01*
X78577Y-34110D01*
X78422Y-34109D01*
X78279Y-34169D01*
X78169Y-34278D01*
X78110Y-34422D01*
X78109Y-34577D01*
X78169Y-34720D01*
X78278Y-34830D01*
X78422Y-34889D01*
X78577Y-34890D01*
X78720Y-34830D01*
X78830Y-34721D01*
X78889Y-34577D01*
X78890Y-34422D01*
X78890Y-36890D01*
X78865Y-36890D01*
X78865Y-36427D01*
X78809Y-36293D01*
X78707Y-36190D01*
X78572Y-36135D01*
X78427Y-36134D01*
X78293Y-36190D01*
X78190Y-36292D01*
X78135Y-36427D01*
X78134Y-36572D01*
X78190Y-36706D01*
X78292Y-36809D01*
X78427Y-36864D01*
X78572Y-36865D01*
X78706Y-36809D01*
X78809Y-36707D01*
X78864Y-36572D01*
X78865Y-36427D01*
X78865Y-36890D01*
X77865Y-36890D01*
X77865Y-36427D01*
X77809Y-36293D01*
X77707Y-36190D01*
X77572Y-36135D01*
X77427Y-36134D01*
X77293Y-36190D01*
X77190Y-36292D01*
X77135Y-36427D01*
X77134Y-36572D01*
X77190Y-36706D01*
X77292Y-36809D01*
X77427Y-36864D01*
X77572Y-36865D01*
X77706Y-36809D01*
X77809Y-36707D01*
X77864Y-36572D01*
X77865Y-36427D01*
X77865Y-36890D01*
X76865Y-36890D01*
X76865Y-36427D01*
X76809Y-36293D01*
X76707Y-36190D01*
X76572Y-36135D01*
X76465Y-36134D01*
X76465Y-34447D01*
X76424Y-34350D01*
X76350Y-34275D01*
X76252Y-34235D01*
X76147Y-34234D01*
X76050Y-34275D01*
X76015Y-34310D01*
X75500Y-34310D01*
X75427Y-34324D01*
X75365Y-34365D01*
X75165Y-34566D01*
X75165Y-32247D01*
X75124Y-32150D01*
X75050Y-32075D01*
X74952Y-32035D01*
X74865Y-32034D01*
X74865Y-30427D01*
X74809Y-30293D01*
X74707Y-30190D01*
X74572Y-30135D01*
X74427Y-30134D01*
X74293Y-30190D01*
X74190Y-30292D01*
X74135Y-30427D01*
X74134Y-30572D01*
X74190Y-30706D01*
X74292Y-30809D01*
X74427Y-30864D01*
X74572Y-30865D01*
X74706Y-30809D01*
X74809Y-30707D01*
X74864Y-30572D01*
X74865Y-30427D01*
X74865Y-32034D01*
X74847Y-32034D01*
X74750Y-32075D01*
X74715Y-32110D01*
X74078Y-32110D01*
X74034Y-32065D01*
X73972Y-32024D01*
X73900Y-32010D01*
X73865Y-32010D01*
X73865Y-30427D01*
X73809Y-30293D01*
X73707Y-30190D01*
X73572Y-30135D01*
X73427Y-30134D01*
X73293Y-30190D01*
X73190Y-30292D01*
X73135Y-30427D01*
X73134Y-30572D01*
X73190Y-30706D01*
X73292Y-30809D01*
X73427Y-30864D01*
X73572Y-30865D01*
X73706Y-30809D01*
X73809Y-30707D01*
X73864Y-30572D01*
X73865Y-30427D01*
X73865Y-32010D01*
X71078Y-32010D01*
X70558Y-31490D01*
X71401Y-31490D01*
X71405Y-31499D01*
X71479Y-31574D01*
X71577Y-31614D01*
X71682Y-31615D01*
X71779Y-31574D01*
X71854Y-31500D01*
X71894Y-31402D01*
X71895Y-31297D01*
X71854Y-31200D01*
X71854Y-31200D01*
X72125Y-31200D01*
X72160Y-31234D01*
X72160Y-31573D01*
X72145Y-31609D01*
X72144Y-31690D01*
X72176Y-31765D01*
X72233Y-31823D01*
X72309Y-31854D01*
X72390Y-31855D01*
X72465Y-31823D01*
X72523Y-31766D01*
X72554Y-31690D01*
X72555Y-31609D01*
X72553Y-31605D01*
X72590Y-31605D01*
X72665Y-31573D01*
X72723Y-31516D01*
X72754Y-31440D01*
X72755Y-31359D01*
X72723Y-31284D01*
X72690Y-31250D01*
X72690Y-31200D01*
X72689Y-31199D01*
X72679Y-31146D01*
X72679Y-31146D01*
X72669Y-31131D01*
X72648Y-31101D01*
X72648Y-31101D01*
X72402Y-30854D01*
X72427Y-30864D01*
X72572Y-30865D01*
X72706Y-30809D01*
X72809Y-30707D01*
X72864Y-30572D01*
X72865Y-30427D01*
X72809Y-30293D01*
X72707Y-30190D01*
X72572Y-30135D01*
X72427Y-30134D01*
X72293Y-30190D01*
X72190Y-30292D01*
X72135Y-30427D01*
X72134Y-30572D01*
X72190Y-30706D01*
X72243Y-30760D01*
X71756Y-30760D01*
X71809Y-30707D01*
X71864Y-30572D01*
X71865Y-30427D01*
X71809Y-30293D01*
X71707Y-30190D01*
X71572Y-30135D01*
X71427Y-30134D01*
X71293Y-30190D01*
X71190Y-30292D01*
X71135Y-30427D01*
X71134Y-30572D01*
X71190Y-30706D01*
X71243Y-30760D01*
X70756Y-30760D01*
X70809Y-30707D01*
X70864Y-30572D01*
X70865Y-30427D01*
X70809Y-30293D01*
X70707Y-30190D01*
X70572Y-30135D01*
X70427Y-30134D01*
X70293Y-30190D01*
X70190Y-30292D01*
X70135Y-30427D01*
X70134Y-30572D01*
X70190Y-30706D01*
X70243Y-30760D01*
X69957Y-30760D01*
X69837Y-30639D01*
X69864Y-30572D01*
X69865Y-30427D01*
X69809Y-30293D01*
X69707Y-30190D01*
X69572Y-30135D01*
X69427Y-30134D01*
X69293Y-30190D01*
X69190Y-30292D01*
X69135Y-30427D01*
X69134Y-30572D01*
X69190Y-30706D01*
X69292Y-30809D01*
X69427Y-30864D01*
X69572Y-30865D01*
X69639Y-30837D01*
X69722Y-30920D01*
X69117Y-30920D01*
X68837Y-30639D01*
X68864Y-30572D01*
X68865Y-30427D01*
X68809Y-30293D01*
X68707Y-30190D01*
X68572Y-30135D01*
X68427Y-30134D01*
X68293Y-30190D01*
X68190Y-30292D01*
X68135Y-30427D01*
X68134Y-30572D01*
X68190Y-30706D01*
X68292Y-30809D01*
X68427Y-30864D01*
X68572Y-30865D01*
X68639Y-30837D01*
X68961Y-31158D01*
X69006Y-31189D01*
X69006Y-31189D01*
X69060Y-31200D01*
X70281Y-31200D01*
X70140Y-31340D01*
X69246Y-32234D01*
X69197Y-32234D01*
X69100Y-32275D01*
X69025Y-32349D01*
X68985Y-32447D01*
X68984Y-32552D01*
X69025Y-32649D01*
X69060Y-32684D01*
X69060Y-33950D01*
X69074Y-34022D01*
X69115Y-34084D01*
X69134Y-34103D01*
X69134Y-34152D01*
X69175Y-34249D01*
X69249Y-34324D01*
X69347Y-34364D01*
X69452Y-34365D01*
X69549Y-34324D01*
X69624Y-34250D01*
X69664Y-34152D01*
X69665Y-34047D01*
X69624Y-33950D01*
X69550Y-33875D01*
X69452Y-33835D01*
X69440Y-33835D01*
X69440Y-32684D01*
X69474Y-32650D01*
X69514Y-32552D01*
X69514Y-32503D01*
X70274Y-31743D01*
X70865Y-32334D01*
X70927Y-32375D01*
X71000Y-32390D01*
X73821Y-32390D01*
X73865Y-32434D01*
X73927Y-32475D01*
X74000Y-32490D01*
X74715Y-32490D01*
X74749Y-32524D01*
X74847Y-32564D01*
X74952Y-32565D01*
X75049Y-32524D01*
X75124Y-32450D01*
X75164Y-32352D01*
X75165Y-32247D01*
X75165Y-34566D01*
X75005Y-34726D01*
X75005Y-34409D01*
X74990Y-34373D01*
X74990Y-34100D01*
X74979Y-34046D01*
X74979Y-34046D01*
X74948Y-34001D01*
X74798Y-33851D01*
X74753Y-33820D01*
X74700Y-33810D01*
X71700Y-33810D01*
X71646Y-33820D01*
X71631Y-33830D01*
X71601Y-33851D01*
X70901Y-34551D01*
X70880Y-34582D01*
X70798Y-34501D01*
X70753Y-34470D01*
X70700Y-34460D01*
X68407Y-34460D01*
X68254Y-34307D01*
X68255Y-34259D01*
X68223Y-34184D01*
X68166Y-34126D01*
X68090Y-34095D01*
X68009Y-34094D01*
X67934Y-34126D01*
X67876Y-34183D01*
X67865Y-34210D01*
X67865Y-30757D01*
X67865Y-30207D01*
X67851Y-30174D01*
X67826Y-30148D01*
X67792Y-30135D01*
X67757Y-30134D01*
X67207Y-30134D01*
X67174Y-30148D01*
X67148Y-30173D01*
X67135Y-30207D01*
X67134Y-30242D01*
X67134Y-30792D01*
X67148Y-30825D01*
X67173Y-30851D01*
X67207Y-30864D01*
X67242Y-30865D01*
X67792Y-30865D01*
X67825Y-30851D01*
X67851Y-30826D01*
X67864Y-30792D01*
X67865Y-30757D01*
X67865Y-34210D01*
X67845Y-34259D01*
X67844Y-34340D01*
X67876Y-34415D01*
X67933Y-34473D01*
X68009Y-34504D01*
X68057Y-34505D01*
X68251Y-34698D01*
X68251Y-34698D01*
X68281Y-34719D01*
X68296Y-34729D01*
X68296Y-34729D01*
X68349Y-34739D01*
X68350Y-34740D01*
X70642Y-34740D01*
X70799Y-34897D01*
X70795Y-34909D01*
X70794Y-34990D01*
X70826Y-35065D01*
X70883Y-35123D01*
X70959Y-35154D01*
X71040Y-35155D01*
X71115Y-35123D01*
X71173Y-35066D01*
X71204Y-34990D01*
X71204Y-34953D01*
X71209Y-34954D01*
X71290Y-34955D01*
X71365Y-34923D01*
X71423Y-34866D01*
X71454Y-34790D01*
X71455Y-34742D01*
X71857Y-34340D01*
X74450Y-34340D01*
X74483Y-34373D01*
X74559Y-34404D01*
X74596Y-34404D01*
X74595Y-34409D01*
X74594Y-34490D01*
X74626Y-34565D01*
X74683Y-34623D01*
X74759Y-34654D01*
X74840Y-34655D01*
X74915Y-34623D01*
X74973Y-34566D01*
X75004Y-34490D01*
X75005Y-34409D01*
X75005Y-34726D01*
X74521Y-35210D01*
X74378Y-35210D01*
X74134Y-34965D01*
X74072Y-34924D01*
X74000Y-34910D01*
X73100Y-34910D01*
X73027Y-34924D01*
X72965Y-34965D01*
X71796Y-36134D01*
X71747Y-36134D01*
X71650Y-36175D01*
X71575Y-36249D01*
X71535Y-36347D01*
X71534Y-36452D01*
X71575Y-36549D01*
X71649Y-36624D01*
X71747Y-36664D01*
X71852Y-36665D01*
X71949Y-36624D01*
X72024Y-36550D01*
X72064Y-36452D01*
X72064Y-36403D01*
X72134Y-36333D01*
X72134Y-36792D01*
X72148Y-36825D01*
X72173Y-36851D01*
X72207Y-36864D01*
X72242Y-36865D01*
X72792Y-36865D01*
X72825Y-36851D01*
X72851Y-36826D01*
X72864Y-36792D01*
X72865Y-36757D01*
X72865Y-36207D01*
X72851Y-36174D01*
X72826Y-36148D01*
X72792Y-36135D01*
X72757Y-36134D01*
X72333Y-36134D01*
X73178Y-35290D01*
X73921Y-35290D01*
X74165Y-35534D01*
X74165Y-35534D01*
X74227Y-35575D01*
X74299Y-35590D01*
X74299Y-35589D01*
X74300Y-35590D01*
X74600Y-35590D01*
X74672Y-35575D01*
X74734Y-35534D01*
X75578Y-34690D01*
X76015Y-34690D01*
X76049Y-34724D01*
X76147Y-34764D01*
X76252Y-34765D01*
X76349Y-34724D01*
X76424Y-34650D01*
X76464Y-34552D01*
X76465Y-34447D01*
X76465Y-36134D01*
X76427Y-36134D01*
X76293Y-36190D01*
X76190Y-36292D01*
X76135Y-36427D01*
X76134Y-36572D01*
X76190Y-36706D01*
X76292Y-36809D01*
X76427Y-36864D01*
X76572Y-36865D01*
X76706Y-36809D01*
X76809Y-36707D01*
X76864Y-36572D01*
X76865Y-36427D01*
X76865Y-36890D01*
X75865Y-36890D01*
X75865Y-36427D01*
X75809Y-36293D01*
X75707Y-36190D01*
X75572Y-36135D01*
X75427Y-36134D01*
X75293Y-36190D01*
X75190Y-36292D01*
X75135Y-36427D01*
X75134Y-36572D01*
X75190Y-36706D01*
X75292Y-36809D01*
X75427Y-36864D01*
X75572Y-36865D01*
X75706Y-36809D01*
X75809Y-36707D01*
X75864Y-36572D01*
X75865Y-36427D01*
X75865Y-36890D01*
X74865Y-36890D01*
X74865Y-36427D01*
X74809Y-36293D01*
X74707Y-36190D01*
X74572Y-36135D01*
X74427Y-36134D01*
X74293Y-36190D01*
X74190Y-36292D01*
X74135Y-36427D01*
X74134Y-36572D01*
X74190Y-36706D01*
X74292Y-36809D01*
X74427Y-36864D01*
X74572Y-36865D01*
X74706Y-36809D01*
X74809Y-36707D01*
X74864Y-36572D01*
X74865Y-36427D01*
X74865Y-36890D01*
X73865Y-36890D01*
X73865Y-36427D01*
X73809Y-36293D01*
X73707Y-36190D01*
X73572Y-36135D01*
X73427Y-36134D01*
X73293Y-36190D01*
X73190Y-36292D01*
X73135Y-36427D01*
X73134Y-36572D01*
X73190Y-36706D01*
X73292Y-36809D01*
X73427Y-36864D01*
X73572Y-36865D01*
X73706Y-36809D01*
X73809Y-36707D01*
X73864Y-36572D01*
X73865Y-36427D01*
X73865Y-36890D01*
X68865Y-36890D01*
X68865Y-36427D01*
X68809Y-36293D01*
X68707Y-36190D01*
X68572Y-36135D01*
X68427Y-36134D01*
X68293Y-36190D01*
X68190Y-36292D01*
X68135Y-36427D01*
X68134Y-36572D01*
X68190Y-36706D01*
X68292Y-36809D01*
X68427Y-36864D01*
X68572Y-36865D01*
X68706Y-36809D01*
X68809Y-36707D01*
X68864Y-36572D01*
X68865Y-36427D01*
X68865Y-36890D01*
X67865Y-36890D01*
X67865Y-36427D01*
X67809Y-36293D01*
X67707Y-36190D01*
X67572Y-36135D01*
X67427Y-36134D01*
X67293Y-36190D01*
X67190Y-36292D01*
X67135Y-36427D01*
X67134Y-36572D01*
X67190Y-36706D01*
X67292Y-36809D01*
X67427Y-36864D01*
X67572Y-36865D01*
X67706Y-36809D01*
X67809Y-36707D01*
X67864Y-36572D01*
X67865Y-36427D01*
X67865Y-36890D01*
X66865Y-36890D01*
X66865Y-36427D01*
X66865Y-30427D01*
X66809Y-30293D01*
X66707Y-30190D01*
X66572Y-30135D01*
X66427Y-30134D01*
X66293Y-30190D01*
X66190Y-30292D01*
X66135Y-30427D01*
X66134Y-30572D01*
X66190Y-30706D01*
X66292Y-30809D01*
X66427Y-30864D01*
X66572Y-30865D01*
X66706Y-30809D01*
X66809Y-30707D01*
X66864Y-30572D01*
X66865Y-30427D01*
X66865Y-36427D01*
X66809Y-36293D01*
X66707Y-36190D01*
X66572Y-36135D01*
X66427Y-36134D01*
X66293Y-36190D01*
X66190Y-36292D01*
X66135Y-36427D01*
X66134Y-36572D01*
X66190Y-36706D01*
X66292Y-36809D01*
X66427Y-36864D01*
X66572Y-36865D01*
X66706Y-36809D01*
X66809Y-36707D01*
X66864Y-36572D01*
X66865Y-36427D01*
X66865Y-36890D01*
X65865Y-36890D01*
X65865Y-30427D01*
X65809Y-30293D01*
X65707Y-30190D01*
X65572Y-30135D01*
X65427Y-30134D01*
X65293Y-30190D01*
X65190Y-30292D01*
X65135Y-30427D01*
X65134Y-30572D01*
X65190Y-30706D01*
X65292Y-30809D01*
X65427Y-30864D01*
X65572Y-30865D01*
X65706Y-30809D01*
X65809Y-30707D01*
X65864Y-30572D01*
X65865Y-30427D01*
X65865Y-36890D01*
X65865Y-36890D01*
X65865Y-36757D01*
X65865Y-36207D01*
X65851Y-36174D01*
X65826Y-36148D01*
X65792Y-36135D01*
X65757Y-36134D01*
X65207Y-36134D01*
X65174Y-36148D01*
X65148Y-36173D01*
X65135Y-36207D01*
X65134Y-36242D01*
X65134Y-36792D01*
X65148Y-36825D01*
X65173Y-36851D01*
X65207Y-36864D01*
X65242Y-36865D01*
X65792Y-36865D01*
X65825Y-36851D01*
X65851Y-36826D01*
X65864Y-36792D01*
X65865Y-36757D01*
X65865Y-36890D01*
X65000Y-36890D01*
X65000Y-36000D01*
X64515Y-36000D01*
X64515Y-34447D01*
X64474Y-34350D01*
X64400Y-34275D01*
X64302Y-34235D01*
X64253Y-34235D01*
X63840Y-33821D01*
X63840Y-33584D01*
X63874Y-33550D01*
X63914Y-33452D01*
X63915Y-33347D01*
X63874Y-33250D01*
X63840Y-33215D01*
X63840Y-32934D01*
X63874Y-32900D01*
X63914Y-32802D01*
X63915Y-32697D01*
X63874Y-32600D01*
X63800Y-32525D01*
X63702Y-32485D01*
X63597Y-32484D01*
X63500Y-32525D01*
X63425Y-32599D01*
X63385Y-32697D01*
X63384Y-32802D01*
X63425Y-32899D01*
X63460Y-32934D01*
X63460Y-33215D01*
X63425Y-33249D01*
X63385Y-33347D01*
X63384Y-33452D01*
X63425Y-33549D01*
X63460Y-33584D01*
X63460Y-33900D01*
X63474Y-33972D01*
X63515Y-34034D01*
X63984Y-34503D01*
X63984Y-34552D01*
X64025Y-34649D01*
X64099Y-34724D01*
X64197Y-34764D01*
X64302Y-34765D01*
X64399Y-34724D01*
X64474Y-34650D01*
X64514Y-34552D01*
X64515Y-34447D01*
X64515Y-36000D01*
X62690Y-36000D01*
X62690Y-32828D01*
X63328Y-32190D01*
X64671Y-32190D01*
X64734Y-32253D01*
X64734Y-32302D01*
X64775Y-32399D01*
X64849Y-32474D01*
X64947Y-32514D01*
X65052Y-32515D01*
X65149Y-32474D01*
X65224Y-32400D01*
X65264Y-32302D01*
X65265Y-32197D01*
X65224Y-32100D01*
X65150Y-32025D01*
X65052Y-31985D01*
X65003Y-31985D01*
X64884Y-31865D01*
X64865Y-31852D01*
X64865Y-30427D01*
X64809Y-30293D01*
X64707Y-30190D01*
X64572Y-30135D01*
X64427Y-30134D01*
X64293Y-30190D01*
X64190Y-30292D01*
X64135Y-30427D01*
X64134Y-30572D01*
X64190Y-30706D01*
X64292Y-30809D01*
X64427Y-30864D01*
X64572Y-30865D01*
X64706Y-30809D01*
X64809Y-30707D01*
X64864Y-30572D01*
X64865Y-30427D01*
X64865Y-31852D01*
X64822Y-31824D01*
X64750Y-31810D01*
X63865Y-31810D01*
X63865Y-30427D01*
X63809Y-30293D01*
X63707Y-30190D01*
X63572Y-30135D01*
X63427Y-30134D01*
X63293Y-30190D01*
X63190Y-30292D01*
X63135Y-30427D01*
X63134Y-30572D01*
X63190Y-30706D01*
X63292Y-30809D01*
X63427Y-30864D01*
X63572Y-30865D01*
X63706Y-30809D01*
X63809Y-30707D01*
X63864Y-30572D01*
X63865Y-30427D01*
X63865Y-31810D01*
X63250Y-31810D01*
X63249Y-31810D01*
X63237Y-31812D01*
X63177Y-31824D01*
X63115Y-31865D01*
X63115Y-31865D01*
X62865Y-32116D01*
X62865Y-30427D01*
X62809Y-30293D01*
X62707Y-30190D01*
X62572Y-30135D01*
X62427Y-30134D01*
X62293Y-30190D01*
X62190Y-30292D01*
X62135Y-30427D01*
X62134Y-30572D01*
X62190Y-30706D01*
X62292Y-30809D01*
X62427Y-30864D01*
X62572Y-30865D01*
X62706Y-30809D01*
X62809Y-30707D01*
X62864Y-30572D01*
X62865Y-30427D01*
X62865Y-32116D01*
X62365Y-32615D01*
X62324Y-32677D01*
X62310Y-32750D01*
X62310Y-36000D01*
X61905Y-36000D01*
X61905Y-33359D01*
X61873Y-33284D01*
X61816Y-33226D01*
X61740Y-33195D01*
X61692Y-33194D01*
X61540Y-33042D01*
X61540Y-30865D01*
X61572Y-30865D01*
X61706Y-30809D01*
X61809Y-30707D01*
X61864Y-30572D01*
X61865Y-30427D01*
X61809Y-30293D01*
X61707Y-30190D01*
X61572Y-30135D01*
X61427Y-30134D01*
X61293Y-30190D01*
X61190Y-30292D01*
X61135Y-30427D01*
X61134Y-30572D01*
X61180Y-30682D01*
X60898Y-30401D01*
X60853Y-30370D01*
X60840Y-30368D01*
X60809Y-30293D01*
X60707Y-30190D01*
X60572Y-30135D01*
X60427Y-30134D01*
X60293Y-30190D01*
X60190Y-30292D01*
X60135Y-30427D01*
X60134Y-30572D01*
X60190Y-30706D01*
X60292Y-30809D01*
X60427Y-30864D01*
X60572Y-30865D01*
X60706Y-30809D01*
X60809Y-30707D01*
X61099Y-30997D01*
X61099Y-33539D01*
X61110Y-33593D01*
X61141Y-33638D01*
X61195Y-33692D01*
X61194Y-33740D01*
X61226Y-33815D01*
X61283Y-33873D01*
X61359Y-33904D01*
X61440Y-33905D01*
X61515Y-33873D01*
X61573Y-33816D01*
X61604Y-33740D01*
X61605Y-33659D01*
X61573Y-33584D01*
X61516Y-33526D01*
X61440Y-33495D01*
X61392Y-33494D01*
X61379Y-33482D01*
X61379Y-33277D01*
X61495Y-33392D01*
X61494Y-33440D01*
X61526Y-33515D01*
X61583Y-33573D01*
X61659Y-33604D01*
X61740Y-33605D01*
X61815Y-33573D01*
X61873Y-33516D01*
X61904Y-33440D01*
X61905Y-33359D01*
X61905Y-36000D01*
X60690Y-36000D01*
X60690Y-34828D01*
X61003Y-34515D01*
X61052Y-34515D01*
X61149Y-34474D01*
X61224Y-34400D01*
X61264Y-34302D01*
X61265Y-34197D01*
X61224Y-34100D01*
X61150Y-34025D01*
X61052Y-33985D01*
X60947Y-33984D01*
X60850Y-34025D01*
X60775Y-34099D01*
X60735Y-34197D01*
X60735Y-34246D01*
X60365Y-34615D01*
X60324Y-34677D01*
X60310Y-34750D01*
X60310Y-36000D01*
X60109Y-36000D01*
X60109Y-30109D01*
X79890Y-30109D01*
X79890Y-36890D01*
X79890Y-36890D01*
G37*
G54D21*
X79890Y-36890D02*
X79890Y-36890D01*
X79890Y-33422D01*
X79890Y-32422D01*
X79865Y-32362D01*
X79865Y-30757D01*
X79865Y-30207D01*
X79851Y-30174D01*
X79826Y-30148D01*
X79792Y-30135D01*
X79757Y-30134D01*
X79207Y-30134D01*
X79174Y-30148D01*
X79148Y-30173D01*
X79135Y-30207D01*
X79134Y-30242D01*
X79134Y-30792D01*
X79148Y-30825D01*
X79173Y-30851D01*
X79207Y-30864D01*
X79242Y-30865D01*
X79792Y-30865D01*
X79825Y-30851D01*
X79851Y-30826D01*
X79864Y-30792D01*
X79865Y-30757D01*
X79865Y-32362D01*
X79830Y-32279D01*
X79721Y-32169D01*
X79577Y-32110D01*
X79422Y-32109D01*
X79391Y-32122D01*
X79134Y-31865D01*
X79072Y-31824D01*
X79000Y-31810D01*
X78865Y-31810D01*
X78865Y-30427D01*
X78809Y-30293D01*
X78707Y-30190D01*
X78572Y-30135D01*
X78427Y-30134D01*
X78293Y-30190D01*
X78190Y-30292D01*
X78135Y-30427D01*
X78134Y-30572D01*
X78190Y-30706D01*
X78292Y-30809D01*
X78427Y-30864D01*
X78572Y-30865D01*
X78706Y-30809D01*
X78809Y-30707D01*
X78864Y-30572D01*
X78865Y-30427D01*
X78865Y-31810D01*
X77865Y-31810D01*
X77865Y-30427D01*
X77809Y-30293D01*
X77707Y-30190D01*
X77572Y-30135D01*
X77427Y-30134D01*
X77293Y-30190D01*
X77190Y-30292D01*
X77135Y-30427D01*
X77134Y-30572D01*
X77190Y-30706D01*
X77292Y-30809D01*
X77427Y-30864D01*
X77572Y-30865D01*
X77706Y-30809D01*
X77809Y-30707D01*
X77864Y-30572D01*
X77865Y-30427D01*
X77865Y-31810D01*
X77300Y-31810D01*
X76865Y-31810D01*
X76865Y-30427D01*
X76809Y-30293D01*
X76707Y-30190D01*
X76572Y-30135D01*
X76427Y-30134D01*
X76293Y-30190D01*
X76190Y-30292D01*
X76135Y-30427D01*
X76134Y-30572D01*
X76190Y-30706D01*
X76292Y-30809D01*
X76427Y-30864D01*
X76572Y-30865D01*
X76706Y-30809D01*
X76809Y-30707D01*
X76864Y-30572D01*
X76865Y-30427D01*
X76865Y-31810D01*
X76678Y-31810D01*
X76165Y-31296D01*
X76165Y-31247D01*
X76124Y-31150D01*
X76050Y-31075D01*
X75952Y-31035D01*
X75865Y-31034D01*
X75865Y-30757D01*
X75865Y-30207D01*
X75851Y-30174D01*
X75826Y-30148D01*
X75792Y-30135D01*
X75757Y-30134D01*
X75207Y-30134D01*
X75174Y-30148D01*
X75148Y-30173D01*
X75135Y-30207D01*
X75134Y-30242D01*
X75134Y-30792D01*
X75148Y-30825D01*
X75173Y-30851D01*
X75207Y-30864D01*
X75242Y-30865D01*
X75792Y-30865D01*
X75825Y-30851D01*
X75851Y-30826D01*
X75864Y-30792D01*
X75865Y-30757D01*
X75865Y-31034D01*
X75847Y-31034D01*
X75750Y-31075D01*
X75675Y-31149D01*
X75635Y-31247D01*
X75634Y-31352D01*
X75675Y-31449D01*
X75749Y-31524D01*
X75847Y-31564D01*
X75896Y-31564D01*
X76465Y-32134D01*
X76465Y-32134D01*
X76527Y-32175D01*
X76599Y-32190D01*
X76599Y-32189D01*
X76600Y-32190D01*
X77110Y-32190D01*
X77110Y-32850D01*
X77050Y-32875D01*
X76975Y-32949D01*
X76935Y-33047D01*
X76934Y-33152D01*
X76975Y-33249D01*
X77049Y-33324D01*
X77147Y-33364D01*
X77252Y-33365D01*
X77349Y-33324D01*
X77424Y-33250D01*
X77464Y-33152D01*
X77465Y-33088D01*
X77475Y-33072D01*
X77490Y-33000D01*
X77490Y-32190D01*
X78110Y-32190D01*
X78109Y-32217D01*
X78109Y-32817D01*
X78123Y-32850D01*
X78148Y-32876D01*
X78182Y-32889D01*
X78217Y-32890D01*
X78817Y-32890D01*
X78850Y-32876D01*
X78876Y-32851D01*
X78889Y-32817D01*
X78890Y-32782D01*
X78890Y-32190D01*
X78921Y-32190D01*
X79122Y-32391D01*
X79110Y-32422D01*
X79109Y-32577D01*
X79169Y-32720D01*
X79278Y-32830D01*
X79422Y-32889D01*
X79577Y-32890D01*
X79720Y-32830D01*
X79830Y-32721D01*
X79889Y-32577D01*
X79890Y-32422D01*
X79890Y-33422D01*
X79830Y-33279D01*
X79721Y-33169D01*
X79577Y-33110D01*
X79422Y-33109D01*
X79279Y-33169D01*
X79169Y-33278D01*
X79110Y-33422D01*
X79109Y-33577D01*
X79169Y-33720D01*
X79278Y-33830D01*
X79422Y-33889D01*
X79577Y-33890D01*
X79720Y-33830D01*
X79830Y-33721D01*
X79889Y-33577D01*
X79890Y-33422D01*
X79890Y-36890D01*
X79865Y-36890D01*
X79865Y-36427D01*
X79809Y-36293D01*
X79707Y-36190D01*
X79572Y-36135D01*
X79427Y-36134D01*
X79293Y-36190D01*
X79190Y-36292D01*
X79135Y-36427D01*
X79134Y-36572D01*
X79190Y-36706D01*
X79292Y-36809D01*
X79427Y-36864D01*
X79572Y-36865D01*
X79706Y-36809D01*
X79809Y-36707D01*
X79864Y-36572D01*
X79865Y-36427D01*
X79865Y-36890D01*
X78890Y-36890D01*
X78890Y-34422D01*
X78890Y-33422D01*
X78830Y-33279D01*
X78721Y-33169D01*
X78577Y-33110D01*
X78422Y-33109D01*
X78279Y-33169D01*
X78169Y-33278D01*
X78110Y-33422D01*
X78109Y-33577D01*
X78169Y-33720D01*
X78278Y-33830D01*
X78422Y-33889D01*
X78577Y-33890D01*
X78720Y-33830D01*
X78830Y-33721D01*
X78889Y-33577D01*
X78890Y-33422D01*
X78890Y-34422D01*
X78830Y-34279D01*
X78721Y-34169D01*
X78577Y-34110D01*
X78422Y-34109D01*
X78279Y-34169D01*
X78169Y-34278D01*
X78110Y-34422D01*
X78109Y-34577D01*
X78169Y-34720D01*
X78278Y-34830D01*
X78422Y-34889D01*
X78577Y-34890D01*
X78720Y-34830D01*
X78830Y-34721D01*
X78889Y-34577D01*
X78890Y-34422D01*
X78890Y-36890D01*
X78865Y-36890D01*
X78865Y-36427D01*
X78809Y-36293D01*
X78707Y-36190D01*
X78572Y-36135D01*
X78427Y-36134D01*
X78293Y-36190D01*
X78190Y-36292D01*
X78135Y-36427D01*
X78134Y-36572D01*
X78190Y-36706D01*
X78292Y-36809D01*
X78427Y-36864D01*
X78572Y-36865D01*
X78706Y-36809D01*
X78809Y-36707D01*
X78864Y-36572D01*
X78865Y-36427D01*
X78865Y-36890D01*
X77865Y-36890D01*
X77865Y-36427D01*
X77809Y-36293D01*
X77707Y-36190D01*
X77572Y-36135D01*
X77427Y-36134D01*
X77293Y-36190D01*
X77190Y-36292D01*
X77135Y-36427D01*
X77134Y-36572D01*
X77190Y-36706D01*
X77292Y-36809D01*
X77427Y-36864D01*
X77572Y-36865D01*
X77706Y-36809D01*
X77809Y-36707D01*
X77864Y-36572D01*
X77865Y-36427D01*
X77865Y-36890D01*
X76865Y-36890D01*
X76865Y-36427D01*
X76809Y-36293D01*
X76707Y-36190D01*
X76572Y-36135D01*
X76465Y-36134D01*
X76465Y-34447D01*
X76424Y-34350D01*
X76350Y-34275D01*
X76252Y-34235D01*
X76147Y-34234D01*
X76050Y-34275D01*
X76015Y-34310D01*
X75500Y-34310D01*
X75427Y-34324D01*
X75365Y-34365D01*
X75165Y-34566D01*
X75165Y-32247D01*
X75124Y-32150D01*
X75050Y-32075D01*
X74952Y-32035D01*
X74865Y-32034D01*
X74865Y-30427D01*
X74809Y-30293D01*
X74707Y-30190D01*
X74572Y-30135D01*
X74427Y-30134D01*
X74293Y-30190D01*
X74190Y-30292D01*
X74135Y-30427D01*
X74134Y-30572D01*
X74190Y-30706D01*
X74292Y-30809D01*
X74427Y-30864D01*
X74572Y-30865D01*
X74706Y-30809D01*
X74809Y-30707D01*
X74864Y-30572D01*
X74865Y-30427D01*
X74865Y-32034D01*
X74847Y-32034D01*
X74750Y-32075D01*
X74715Y-32110D01*
X74078Y-32110D01*
X74034Y-32065D01*
X73972Y-32024D01*
X73900Y-32010D01*
X73865Y-32010D01*
X73865Y-30427D01*
X73809Y-30293D01*
X73707Y-30190D01*
X73572Y-30135D01*
X73427Y-30134D01*
X73293Y-30190D01*
X73190Y-30292D01*
X73135Y-30427D01*
X73134Y-30572D01*
X73190Y-30706D01*
X73292Y-30809D01*
X73427Y-30864D01*
X73572Y-30865D01*
X73706Y-30809D01*
X73809Y-30707D01*
X73864Y-30572D01*
X73865Y-30427D01*
X73865Y-32010D01*
X71078Y-32010D01*
X70558Y-31490D01*
X71401Y-31490D01*
X71405Y-31499D01*
X71479Y-31574D01*
X71577Y-31614D01*
X71682Y-31615D01*
X71779Y-31574D01*
X71854Y-31500D01*
X71894Y-31402D01*
X71895Y-31297D01*
X71854Y-31200D01*
X71854Y-31200D01*
X72125Y-31200D01*
X72160Y-31234D01*
X72160Y-31573D01*
X72145Y-31609D01*
X72144Y-31690D01*
X72176Y-31765D01*
X72233Y-31823D01*
X72309Y-31854D01*
X72390Y-31855D01*
X72465Y-31823D01*
X72523Y-31766D01*
X72554Y-31690D01*
X72555Y-31609D01*
X72553Y-31605D01*
X72590Y-31605D01*
X72665Y-31573D01*
X72723Y-31516D01*
X72754Y-31440D01*
X72755Y-31359D01*
X72723Y-31284D01*
X72690Y-31250D01*
X72690Y-31200D01*
X72689Y-31199D01*
X72679Y-31146D01*
X72679Y-31146D01*
X72669Y-31131D01*
X72648Y-31101D01*
X72648Y-31101D01*
X72402Y-30854D01*
X72427Y-30864D01*
X72572Y-30865D01*
X72706Y-30809D01*
X72809Y-30707D01*
X72864Y-30572D01*
X72865Y-30427D01*
X72809Y-30293D01*
X72707Y-30190D01*
X72572Y-30135D01*
X72427Y-30134D01*
X72293Y-30190D01*
X72190Y-30292D01*
X72135Y-30427D01*
X72134Y-30572D01*
X72190Y-30706D01*
X72243Y-30760D01*
X71756Y-30760D01*
X71809Y-30707D01*
X71864Y-30572D01*
X71865Y-30427D01*
X71809Y-30293D01*
X71707Y-30190D01*
X71572Y-30135D01*
X71427Y-30134D01*
X71293Y-30190D01*
X71190Y-30292D01*
X71135Y-30427D01*
X71134Y-30572D01*
X71190Y-30706D01*
X71243Y-30760D01*
X70756Y-30760D01*
X70809Y-30707D01*
X70864Y-30572D01*
X70865Y-30427D01*
X70809Y-30293D01*
X70707Y-30190D01*
X70572Y-30135D01*
X70427Y-30134D01*
X70293Y-30190D01*
X70190Y-30292D01*
X70135Y-30427D01*
X70134Y-30572D01*
X70190Y-30706D01*
X70243Y-30760D01*
X69957Y-30760D01*
X69837Y-30639D01*
X69864Y-30572D01*
X69865Y-30427D01*
X69809Y-30293D01*
X69707Y-30190D01*
X69572Y-30135D01*
X69427Y-30134D01*
X69293Y-30190D01*
X69190Y-30292D01*
X69135Y-30427D01*
X69134Y-30572D01*
X69190Y-30706D01*
X69292Y-30809D01*
X69427Y-30864D01*
X69572Y-30865D01*
X69639Y-30837D01*
X69722Y-30920D01*
X69117Y-30920D01*
X68837Y-30639D01*
X68864Y-30572D01*
X68865Y-30427D01*
X68809Y-30293D01*
X68707Y-30190D01*
X68572Y-30135D01*
X68427Y-30134D01*
X68293Y-30190D01*
X68190Y-30292D01*
X68135Y-30427D01*
X68134Y-30572D01*
X68190Y-30706D01*
X68292Y-30809D01*
X68427Y-30864D01*
X68572Y-30865D01*
X68639Y-30837D01*
X68961Y-31158D01*
X69006Y-31189D01*
X69006Y-31189D01*
X69060Y-31200D01*
X70281Y-31200D01*
X70140Y-31340D01*
X69246Y-32234D01*
X69197Y-32234D01*
X69100Y-32275D01*
X69025Y-32349D01*
X68985Y-32447D01*
X68984Y-32552D01*
X69025Y-32649D01*
X69060Y-32684D01*
X69060Y-33950D01*
X69074Y-34022D01*
X69115Y-34084D01*
X69134Y-34103D01*
X69134Y-34152D01*
X69175Y-34249D01*
X69249Y-34324D01*
X69347Y-34364D01*
X69452Y-34365D01*
X69549Y-34324D01*
X69624Y-34250D01*
X69664Y-34152D01*
X69665Y-34047D01*
X69624Y-33950D01*
X69550Y-33875D01*
X69452Y-33835D01*
X69440Y-33835D01*
X69440Y-32684D01*
X69474Y-32650D01*
X69514Y-32552D01*
X69514Y-32503D01*
X70274Y-31743D01*
X70865Y-32334D01*
X70927Y-32375D01*
X71000Y-32390D01*
X73821Y-32390D01*
X73865Y-32434D01*
X73927Y-32475D01*
X74000Y-32490D01*
X74715Y-32490D01*
X74749Y-32524D01*
X74847Y-32564D01*
X74952Y-32565D01*
X75049Y-32524D01*
X75124Y-32450D01*
X75164Y-32352D01*
X75165Y-32247D01*
X75165Y-34566D01*
X75005Y-34726D01*
X75005Y-34409D01*
X74990Y-34373D01*
X74990Y-34100D01*
X74979Y-34046D01*
X74979Y-34046D01*
X74948Y-34001D01*
X74798Y-33851D01*
X74753Y-33820D01*
X74700Y-33810D01*
X71700Y-33810D01*
X71646Y-33820D01*
X71631Y-33830D01*
X71601Y-33851D01*
X70901Y-34551D01*
X70880Y-34582D01*
X70798Y-34501D01*
X70753Y-34470D01*
X70700Y-34460D01*
X68407Y-34460D01*
X68254Y-34307D01*
X68255Y-34259D01*
X68223Y-34184D01*
X68166Y-34126D01*
X68090Y-34095D01*
X68009Y-34094D01*
X67934Y-34126D01*
X67876Y-34183D01*
X67865Y-34210D01*
X67865Y-30757D01*
X67865Y-30207D01*
X67851Y-30174D01*
X67826Y-30148D01*
X67792Y-30135D01*
X67757Y-30134D01*
X67207Y-30134D01*
X67174Y-30148D01*
X67148Y-30173D01*
X67135Y-30207D01*
X67134Y-30242D01*
X67134Y-30792D01*
X67148Y-30825D01*
X67173Y-30851D01*
X67207Y-30864D01*
X67242Y-30865D01*
X67792Y-30865D01*
X67825Y-30851D01*
X67851Y-30826D01*
X67864Y-30792D01*
X67865Y-30757D01*
X67865Y-34210D01*
X67845Y-34259D01*
X67844Y-34340D01*
X67876Y-34415D01*
X67933Y-34473D01*
X68009Y-34504D01*
X68057Y-34505D01*
X68251Y-34698D01*
X68251Y-34698D01*
X68281Y-34719D01*
X68296Y-34729D01*
X68296Y-34729D01*
X68349Y-34739D01*
X68350Y-34740D01*
X70642Y-34740D01*
X70799Y-34897D01*
X70795Y-34909D01*
X70794Y-34990D01*
X70826Y-35065D01*
X70883Y-35123D01*
X70959Y-35154D01*
X71040Y-35155D01*
X71115Y-35123D01*
X71173Y-35066D01*
X71204Y-34990D01*
X71204Y-34953D01*
X71209Y-34954D01*
X71290Y-34955D01*
X71365Y-34923D01*
X71423Y-34866D01*
X71454Y-34790D01*
X71455Y-34742D01*
X71857Y-34340D01*
X74450Y-34340D01*
X74483Y-34373D01*
X74559Y-34404D01*
X74596Y-34404D01*
X74595Y-34409D01*
X74594Y-34490D01*
X74626Y-34565D01*
X74683Y-34623D01*
X74759Y-34654D01*
X74840Y-34655D01*
X74915Y-34623D01*
X74973Y-34566D01*
X75004Y-34490D01*
X75005Y-34409D01*
X75005Y-34726D01*
X74521Y-35210D01*
X74378Y-35210D01*
X74134Y-34965D01*
X74072Y-34924D01*
X74000Y-34910D01*
X73100Y-34910D01*
X73027Y-34924D01*
X72965Y-34965D01*
X71796Y-36134D01*
X71747Y-36134D01*
X71650Y-36175D01*
X71575Y-36249D01*
X71535Y-36347D01*
X71534Y-36452D01*
X71575Y-36549D01*
X71649Y-36624D01*
X71747Y-36664D01*
X71852Y-36665D01*
X71949Y-36624D01*
X72024Y-36550D01*
X72064Y-36452D01*
X72064Y-36403D01*
X72134Y-36333D01*
X72134Y-36792D01*
X72148Y-36825D01*
X72173Y-36851D01*
X72207Y-36864D01*
X72242Y-36865D01*
X72792Y-36865D01*
X72825Y-36851D01*
X72851Y-36826D01*
X72864Y-36792D01*
X72865Y-36757D01*
X72865Y-36207D01*
X72851Y-36174D01*
X72826Y-36148D01*
X72792Y-36135D01*
X72757Y-36134D01*
X72333Y-36134D01*
X73178Y-35290D01*
X73921Y-35290D01*
X74165Y-35534D01*
X74165Y-35534D01*
X74227Y-35575D01*
X74299Y-35590D01*
X74299Y-35589D01*
X74300Y-35590D01*
X74600Y-35590D01*
X74672Y-35575D01*
X74734Y-35534D01*
X75578Y-34690D01*
X76015Y-34690D01*
X76049Y-34724D01*
X76147Y-34764D01*
X76252Y-34765D01*
X76349Y-34724D01*
X76424Y-34650D01*
X76464Y-34552D01*
X76465Y-34447D01*
X76465Y-36134D01*
X76427Y-36134D01*
X76293Y-36190D01*
X76190Y-36292D01*
X76135Y-36427D01*
X76134Y-36572D01*
X76190Y-36706D01*
X76292Y-36809D01*
X76427Y-36864D01*
X76572Y-36865D01*
X76706Y-36809D01*
X76809Y-36707D01*
X76864Y-36572D01*
X76865Y-36427D01*
X76865Y-36890D01*
X75865Y-36890D01*
X75865Y-36427D01*
X75809Y-36293D01*
X75707Y-36190D01*
X75572Y-36135D01*
X75427Y-36134D01*
X75293Y-36190D01*
X75190Y-36292D01*
X75135Y-36427D01*
X75134Y-36572D01*
X75190Y-36706D01*
X75292Y-36809D01*
X75427Y-36864D01*
X75572Y-36865D01*
X75706Y-36809D01*
X75809Y-36707D01*
X75864Y-36572D01*
X75865Y-36427D01*
X75865Y-36890D01*
X74865Y-36890D01*
X74865Y-36427D01*
X74809Y-36293D01*
X74707Y-36190D01*
X74572Y-36135D01*
X74427Y-36134D01*
X74293Y-36190D01*
X74190Y-36292D01*
X74135Y-36427D01*
X74134Y-36572D01*
X74190Y-36706D01*
X74292Y-36809D01*
X74427Y-36864D01*
X74572Y-36865D01*
X74706Y-36809D01*
X74809Y-36707D01*
X74864Y-36572D01*
X74865Y-36427D01*
X74865Y-36890D01*
X73865Y-36890D01*
X73865Y-36427D01*
X73809Y-36293D01*
X73707Y-36190D01*
X73572Y-36135D01*
X73427Y-36134D01*
X73293Y-36190D01*
X73190Y-36292D01*
X73135Y-36427D01*
X73134Y-36572D01*
X73190Y-36706D01*
X73292Y-36809D01*
X73427Y-36864D01*
X73572Y-36865D01*
X73706Y-36809D01*
X73809Y-36707D01*
X73864Y-36572D01*
X73865Y-36427D01*
X73865Y-36890D01*
X68865Y-36890D01*
X68865Y-36427D01*
X68809Y-36293D01*
X68707Y-36190D01*
X68572Y-36135D01*
X68427Y-36134D01*
X68293Y-36190D01*
X68190Y-36292D01*
X68135Y-36427D01*
X68134Y-36572D01*
X68190Y-36706D01*
X68292Y-36809D01*
X68427Y-36864D01*
X68572Y-36865D01*
X68706Y-36809D01*
X68809Y-36707D01*
X68864Y-36572D01*
X68865Y-36427D01*
X68865Y-36890D01*
X67865Y-36890D01*
X67865Y-36427D01*
X67809Y-36293D01*
X67707Y-36190D01*
X67572Y-36135D01*
X67427Y-36134D01*
X67293Y-36190D01*
X67190Y-36292D01*
X67135Y-36427D01*
X67134Y-36572D01*
X67190Y-36706D01*
X67292Y-36809D01*
X67427Y-36864D01*
X67572Y-36865D01*
X67706Y-36809D01*
X67809Y-36707D01*
X67864Y-36572D01*
X67865Y-36427D01*
X67865Y-36890D01*
X66865Y-36890D01*
X66865Y-36427D01*
X66865Y-30427D01*
X66809Y-30293D01*
X66707Y-30190D01*
X66572Y-30135D01*
X66427Y-30134D01*
X66293Y-30190D01*
X66190Y-30292D01*
X66135Y-30427D01*
X66134Y-30572D01*
X66190Y-30706D01*
X66292Y-30809D01*
X66427Y-30864D01*
X66572Y-30865D01*
X66706Y-30809D01*
X66809Y-30707D01*
X66864Y-30572D01*
X66865Y-30427D01*
X66865Y-36427D01*
X66809Y-36293D01*
X66707Y-36190D01*
X66572Y-36135D01*
X66427Y-36134D01*
X66293Y-36190D01*
X66190Y-36292D01*
X66135Y-36427D01*
X66134Y-36572D01*
X66190Y-36706D01*
X66292Y-36809D01*
X66427Y-36864D01*
X66572Y-36865D01*
X66706Y-36809D01*
X66809Y-36707D01*
X66864Y-36572D01*
X66865Y-36427D01*
X66865Y-36890D01*
X65865Y-36890D01*
X65865Y-30427D01*
X65809Y-30293D01*
X65707Y-30190D01*
X65572Y-30135D01*
X65427Y-30134D01*
X65293Y-30190D01*
X65190Y-30292D01*
X65135Y-30427D01*
X65134Y-30572D01*
X65190Y-30706D01*
X65292Y-30809D01*
X65427Y-30864D01*
X65572Y-30865D01*
X65706Y-30809D01*
X65809Y-30707D01*
X65864Y-30572D01*
X65865Y-30427D01*
X65865Y-36890D01*
X65865Y-36890D01*
X65865Y-36757D01*
X65865Y-36207D01*
X65851Y-36174D01*
X65826Y-36148D01*
X65792Y-36135D01*
X65757Y-36134D01*
X65207Y-36134D01*
X65174Y-36148D01*
X65148Y-36173D01*
X65135Y-36207D01*
X65134Y-36242D01*
X65134Y-36792D01*
X65148Y-36825D01*
X65173Y-36851D01*
X65207Y-36864D01*
X65242Y-36865D01*
X65792Y-36865D01*
X65825Y-36851D01*
X65851Y-36826D01*
X65864Y-36792D01*
X65865Y-36757D01*
X65865Y-36890D01*
X65000Y-36890D01*
X65000Y-36000D01*
X64515Y-36000D01*
X64515Y-34447D01*
X64474Y-34350D01*
X64400Y-34275D01*
X64302Y-34235D01*
X64253Y-34235D01*
X63840Y-33821D01*
X63840Y-33584D01*
X63874Y-33550D01*
X63914Y-33452D01*
X63915Y-33347D01*
X63874Y-33250D01*
X63840Y-33215D01*
X63840Y-32934D01*
X63874Y-32900D01*
X63914Y-32802D01*
X63915Y-32697D01*
X63874Y-32600D01*
X63800Y-32525D01*
X63702Y-32485D01*
X63597Y-32484D01*
X63500Y-32525D01*
X63425Y-32599D01*
X63385Y-32697D01*
X63384Y-32802D01*
X63425Y-32899D01*
X63460Y-32934D01*
X63460Y-33215D01*
X63425Y-33249D01*
X63385Y-33347D01*
X63384Y-33452D01*
X63425Y-33549D01*
X63460Y-33584D01*
X63460Y-33900D01*
X63474Y-33972D01*
X63515Y-34034D01*
X63984Y-34503D01*
X63984Y-34552D01*
X64025Y-34649D01*
X64099Y-34724D01*
X64197Y-34764D01*
X64302Y-34765D01*
X64399Y-34724D01*
X64474Y-34650D01*
X64514Y-34552D01*
X64515Y-34447D01*
X64515Y-36000D01*
X62690Y-36000D01*
X62690Y-32828D01*
X63328Y-32190D01*
X64671Y-32190D01*
X64734Y-32253D01*
X64734Y-32302D01*
X64775Y-32399D01*
X64849Y-32474D01*
X64947Y-32514D01*
X65052Y-32515D01*
X65149Y-32474D01*
X65224Y-32400D01*
X65264Y-32302D01*
X65265Y-32197D01*
X65224Y-32100D01*
X65150Y-32025D01*
X65052Y-31985D01*
X65003Y-31985D01*
X64884Y-31865D01*
X64865Y-31852D01*
X64865Y-30427D01*
X64809Y-30293D01*
X64707Y-30190D01*
X64572Y-30135D01*
X64427Y-30134D01*
X64293Y-30190D01*
X64190Y-30292D01*
X64135Y-30427D01*
X64134Y-30572D01*
X64190Y-30706D01*
X64292Y-30809D01*
X64427Y-30864D01*
X64572Y-30865D01*
X64706Y-30809D01*
X64809Y-30707D01*
X64864Y-30572D01*
X64865Y-30427D01*
X64865Y-31852D01*
X64822Y-31824D01*
X64750Y-31810D01*
X63865Y-31810D01*
X63865Y-30427D01*
X63809Y-30293D01*
X63707Y-30190D01*
X63572Y-30135D01*
X63427Y-30134D01*
X63293Y-30190D01*
X63190Y-30292D01*
X63135Y-30427D01*
X63134Y-30572D01*
X63190Y-30706D01*
X63292Y-30809D01*
X63427Y-30864D01*
X63572Y-30865D01*
X63706Y-30809D01*
X63809Y-30707D01*
X63864Y-30572D01*
X63865Y-30427D01*
X63865Y-31810D01*
X63250Y-31810D01*
X63249Y-31810D01*
X63237Y-31812D01*
X63177Y-31824D01*
X63115Y-31865D01*
X63115Y-31865D01*
X62865Y-32116D01*
X62865Y-30427D01*
X62809Y-30293D01*
X62707Y-30190D01*
X62572Y-30135D01*
X62427Y-30134D01*
X62293Y-30190D01*
X62190Y-30292D01*
X62135Y-30427D01*
X62134Y-30572D01*
X62190Y-30706D01*
X62292Y-30809D01*
X62427Y-30864D01*
X62572Y-30865D01*
X62706Y-30809D01*
X62809Y-30707D01*
X62864Y-30572D01*
X62865Y-30427D01*
X62865Y-32116D01*
X62365Y-32615D01*
X62324Y-32677D01*
X62310Y-32750D01*
X62310Y-36000D01*
X61905Y-36000D01*
X61905Y-33359D01*
X61873Y-33284D01*
X61816Y-33226D01*
X61740Y-33195D01*
X61692Y-33194D01*
X61540Y-33042D01*
X61540Y-30865D01*
X61572Y-30865D01*
X61706Y-30809D01*
X61809Y-30707D01*
X61864Y-30572D01*
X61865Y-30427D01*
X61809Y-30293D01*
X61707Y-30190D01*
X61572Y-30135D01*
X61427Y-30134D01*
X61293Y-30190D01*
X61190Y-30292D01*
X61135Y-30427D01*
X61134Y-30572D01*
X61180Y-30682D01*
X60898Y-30401D01*
X60853Y-30370D01*
X60840Y-30368D01*
X60809Y-30293D01*
X60707Y-30190D01*
X60572Y-30135D01*
X60427Y-30134D01*
X60293Y-30190D01*
X60190Y-30292D01*
X60135Y-30427D01*
X60134Y-30572D01*
X60190Y-30706D01*
X60292Y-30809D01*
X60427Y-30864D01*
X60572Y-30865D01*
X60706Y-30809D01*
X60809Y-30707D01*
X61099Y-30997D01*
X61099Y-33539D01*
X61110Y-33593D01*
X61141Y-33638D01*
X61195Y-33692D01*
X61194Y-33740D01*
X61226Y-33815D01*
X61283Y-33873D01*
X61359Y-33904D01*
X61440Y-33905D01*
X61515Y-33873D01*
X61573Y-33816D01*
X61604Y-33740D01*
X61605Y-33659D01*
X61573Y-33584D01*
X61516Y-33526D01*
X61440Y-33495D01*
X61392Y-33494D01*
X61379Y-33482D01*
X61379Y-33277D01*
X61495Y-33392D01*
X61494Y-33440D01*
X61526Y-33515D01*
X61583Y-33573D01*
X61659Y-33604D01*
X61740Y-33605D01*
X61815Y-33573D01*
X61873Y-33516D01*
X61904Y-33440D01*
X61905Y-33359D01*
X61905Y-36000D01*
X60690Y-36000D01*
X60690Y-34828D01*
X61003Y-34515D01*
X61052Y-34515D01*
X61149Y-34474D01*
X61224Y-34400D01*
X61264Y-34302D01*
X61265Y-34197D01*
X61224Y-34100D01*
X61150Y-34025D01*
X61052Y-33985D01*
X60947Y-33984D01*
X60850Y-34025D01*
X60775Y-34099D01*
X60735Y-34197D01*
X60735Y-34246D01*
X60365Y-34615D01*
X60324Y-34677D01*
X60310Y-34750D01*
X60310Y-36000D01*
X60109Y-36000D01*
X60109Y-30109D01*
X79890Y-30109D01*
X79890Y-36890D01*
G54D10*
G36*
X64970Y-36890D02*
X64865Y-36890D01*
X64865Y-36427D01*
X64809Y-36293D01*
X64707Y-36190D01*
X64572Y-36135D01*
X64427Y-36134D01*
X64293Y-36190D01*
X64190Y-36292D01*
X64135Y-36427D01*
X64134Y-36572D01*
X64190Y-36706D01*
X64292Y-36809D01*
X64427Y-36864D01*
X64572Y-36865D01*
X64706Y-36809D01*
X64809Y-36707D01*
X64864Y-36572D01*
X64865Y-36427D01*
X64865Y-36890D01*
X63871Y-36890D01*
X63871Y-36517D01*
X63850Y-36373D01*
X63836Y-36341D01*
X63791Y-36307D01*
X63692Y-36406D01*
X63692Y-36208D01*
X63658Y-36163D01*
X63517Y-36128D01*
X63373Y-36149D01*
X63341Y-36163D01*
X63307Y-36208D01*
X63500Y-36401D01*
X63692Y-36208D01*
X63692Y-36406D01*
X63598Y-36500D01*
X63791Y-36692D01*
X63836Y-36658D01*
X63871Y-36517D01*
X63871Y-36890D01*
X63692Y-36890D01*
X63692Y-36791D01*
X63500Y-36598D01*
X63401Y-36697D01*
X63401Y-36500D01*
X63208Y-36307D01*
X63163Y-36341D01*
X63128Y-36482D01*
X63149Y-36626D01*
X63163Y-36658D01*
X63208Y-36692D01*
X63401Y-36500D01*
X63401Y-36697D01*
X63307Y-36791D01*
X63341Y-36836D01*
X63482Y-36871D01*
X63626Y-36850D01*
X63658Y-36836D01*
X63692Y-36791D01*
X63692Y-36890D01*
X61865Y-36890D01*
X61865Y-36427D01*
X61809Y-36293D01*
X61707Y-36190D01*
X61572Y-36135D01*
X61427Y-36134D01*
X61293Y-36190D01*
X61190Y-36292D01*
X61135Y-36427D01*
X61134Y-36572D01*
X61190Y-36706D01*
X61292Y-36809D01*
X61427Y-36864D01*
X61572Y-36865D01*
X61706Y-36809D01*
X61809Y-36707D01*
X61864Y-36572D01*
X61865Y-36427D01*
X61865Y-36890D01*
X60109Y-36890D01*
X60109Y-36030D01*
X60310Y-36030D01*
X60310Y-36134D01*
X60207Y-36134D01*
X60174Y-36148D01*
X60148Y-36173D01*
X60135Y-36207D01*
X60134Y-36242D01*
X60134Y-36792D01*
X60148Y-36825D01*
X60173Y-36851D01*
X60207Y-36864D01*
X60242Y-36865D01*
X60792Y-36865D01*
X60825Y-36851D01*
X60851Y-36826D01*
X60864Y-36792D01*
X60865Y-36757D01*
X60865Y-36207D01*
X60851Y-36174D01*
X60826Y-36148D01*
X60792Y-36135D01*
X60757Y-36134D01*
X60690Y-36134D01*
X60690Y-36030D01*
X62310Y-36030D01*
X62310Y-36183D01*
X62293Y-36190D01*
X62190Y-36292D01*
X62135Y-36427D01*
X62134Y-36572D01*
X62190Y-36706D01*
X62292Y-36809D01*
X62427Y-36864D01*
X62572Y-36865D01*
X62706Y-36809D01*
X62809Y-36707D01*
X62864Y-36572D01*
X62865Y-36427D01*
X62809Y-36293D01*
X62707Y-36190D01*
X62690Y-36183D01*
X62690Y-36030D01*
X64970Y-36030D01*
X64970Y-36890D01*
X64970Y-36890D01*
G37*
G54D21*
X64970Y-36890D02*
X64865Y-36890D01*
X64865Y-36427D01*
X64809Y-36293D01*
X64707Y-36190D01*
X64572Y-36135D01*
X64427Y-36134D01*
X64293Y-36190D01*
X64190Y-36292D01*
X64135Y-36427D01*
X64134Y-36572D01*
X64190Y-36706D01*
X64292Y-36809D01*
X64427Y-36864D01*
X64572Y-36865D01*
X64706Y-36809D01*
X64809Y-36707D01*
X64864Y-36572D01*
X64865Y-36427D01*
X64865Y-36890D01*
X63871Y-36890D01*
X63871Y-36517D01*
X63850Y-36373D01*
X63836Y-36341D01*
X63791Y-36307D01*
X63692Y-36406D01*
X63692Y-36208D01*
X63658Y-36163D01*
X63517Y-36128D01*
X63373Y-36149D01*
X63341Y-36163D01*
X63307Y-36208D01*
X63500Y-36401D01*
X63692Y-36208D01*
X63692Y-36406D01*
X63598Y-36500D01*
X63791Y-36692D01*
X63836Y-36658D01*
X63871Y-36517D01*
X63871Y-36890D01*
X63692Y-36890D01*
X63692Y-36791D01*
X63500Y-36598D01*
X63401Y-36697D01*
X63401Y-36500D01*
X63208Y-36307D01*
X63163Y-36341D01*
X63128Y-36482D01*
X63149Y-36626D01*
X63163Y-36658D01*
X63208Y-36692D01*
X63401Y-36500D01*
X63401Y-36697D01*
X63307Y-36791D01*
X63341Y-36836D01*
X63482Y-36871D01*
X63626Y-36850D01*
X63658Y-36836D01*
X63692Y-36791D01*
X63692Y-36890D01*
X61865Y-36890D01*
X61865Y-36427D01*
X61809Y-36293D01*
X61707Y-36190D01*
X61572Y-36135D01*
X61427Y-36134D01*
X61293Y-36190D01*
X61190Y-36292D01*
X61135Y-36427D01*
X61134Y-36572D01*
X61190Y-36706D01*
X61292Y-36809D01*
X61427Y-36864D01*
X61572Y-36865D01*
X61706Y-36809D01*
X61809Y-36707D01*
X61864Y-36572D01*
X61865Y-36427D01*
X61865Y-36890D01*
X60109Y-36890D01*
X60109Y-36030D01*
X60310Y-36030D01*
X60310Y-36134D01*
X60207Y-36134D01*
X60174Y-36148D01*
X60148Y-36173D01*
X60135Y-36207D01*
X60134Y-36242D01*
X60134Y-36792D01*
X60148Y-36825D01*
X60173Y-36851D01*
X60207Y-36864D01*
X60242Y-36865D01*
X60792Y-36865D01*
X60825Y-36851D01*
X60851Y-36826D01*
X60864Y-36792D01*
X60865Y-36757D01*
X60865Y-36207D01*
X60851Y-36174D01*
X60826Y-36148D01*
X60792Y-36135D01*
X60757Y-36134D01*
X60690Y-36134D01*
X60690Y-36030D01*
X62310Y-36030D01*
X62310Y-36183D01*
X62293Y-36190D01*
X62190Y-36292D01*
X62135Y-36427D01*
X62134Y-36572D01*
X62190Y-36706D01*
X62292Y-36809D01*
X62427Y-36864D01*
X62572Y-36865D01*
X62706Y-36809D01*
X62809Y-36707D01*
X62864Y-36572D01*
X62865Y-36427D01*
X62809Y-36293D01*
X62707Y-36190D01*
X62690Y-36183D01*
X62690Y-36030D01*
X64970Y-36030D01*
X64970Y-36890D01*
M02*
