G04 (created by PCBNEW (2013-june-11)-stable) date Mon 03 Feb 2014 03:15:05 PM PST*
%MOIN*%
G04 Gerber Fmt 3.4, Leading zero omitted, Abs format*
%FSLAX34Y34*%
G01*
G70*
G90*
G04 APERTURE LIST*
%ADD10C,0.00590551*%
%ADD11C,0.0039*%
%ADD12C,0.015*%
%ADD13C,0.012*%
%ADD14C,0.008*%
%ADD15C,0.005*%
%ADD16C,0.0028*%
%ADD17C,0.01*%
%ADD18C,0.0043*%
%ADD19C,0.0045*%
%ADD20R,0.035X0.055*%
%ADD21R,0.0354331X0.0314961*%
%ADD22R,0.0906X0.0197*%
%ADD23R,0.0984X0.0787*%
%ADD24C,0.0354*%
%ADD25R,0.055X0.055*%
%ADD26C,0.055*%
%ADD27R,0.06X0.06*%
%ADD28C,0.06*%
%ADD29R,0.0177X0.0118*%
%ADD30R,0.0452756X0.0551181*%
%ADD31R,0.025X0.045*%
%ADD32R,0.0157X0.0236*%
%ADD33R,0.0236X0.0157*%
%ADD34R,0.03543X0.01102*%
%ADD35R,0.01102X0.03543*%
%ADD36R,0.18503X0.18503*%
G04 APERTURE END LIST*
G54D10*
G54D11*
X77300Y-34200D02*
X77700Y-34200D01*
X77700Y-34200D02*
X77700Y-34800D01*
X77700Y-34800D02*
X77300Y-34800D01*
X76900Y-34800D02*
X76500Y-34800D01*
X76500Y-34800D02*
X76500Y-34200D01*
X76500Y-34200D02*
X76900Y-34200D01*
G54D10*
X64539Y-33909D02*
X63909Y-33909D01*
X63929Y-33909D02*
X63929Y-35090D01*
X63929Y-35090D02*
X64559Y-35090D01*
X64559Y-35090D02*
X64559Y-33909D01*
G54D12*
X60083Y-31984D02*
X60083Y-35016D01*
X59689Y-31984D02*
X59689Y-35016D01*
X59689Y-35016D02*
X63311Y-35016D01*
X63311Y-35016D02*
X63311Y-31984D01*
X63311Y-31984D02*
X59689Y-31984D01*
G54D13*
X72000Y-36000D02*
X80000Y-36000D01*
X80000Y-36000D02*
X80000Y-37000D01*
X80000Y-37000D02*
X72000Y-37000D01*
X72000Y-37000D02*
X72000Y-36000D01*
X73000Y-37000D02*
X73000Y-36000D01*
X65000Y-36000D02*
X65000Y-36000D01*
X65000Y-37000D02*
X65000Y-36000D01*
X65000Y-36000D02*
X65000Y-36000D01*
X65000Y-36000D02*
X69000Y-36000D01*
X69000Y-36000D02*
X69000Y-37000D01*
X69000Y-37000D02*
X65000Y-37000D01*
X66000Y-37000D02*
X66000Y-36000D01*
G54D14*
X78000Y-35000D02*
X78000Y-32000D01*
X80000Y-32000D02*
X80000Y-35000D01*
X80000Y-35000D02*
X78000Y-35000D01*
X78000Y-32000D02*
X80000Y-32000D01*
G54D13*
X60000Y-37000D02*
X60000Y-36000D01*
X60000Y-36000D02*
X65000Y-36000D01*
X65000Y-36000D02*
X65000Y-37000D01*
X65000Y-37000D02*
X60000Y-37000D01*
X61000Y-37000D02*
X61000Y-36000D01*
X80000Y-31000D02*
X80000Y-31000D01*
X80000Y-30000D02*
X80000Y-31000D01*
X80000Y-31000D02*
X80000Y-31000D01*
X80000Y-31000D02*
X76000Y-31000D01*
X76000Y-31000D02*
X76000Y-30000D01*
X76000Y-30000D02*
X80000Y-30000D01*
X79000Y-30000D02*
X79000Y-31000D01*
X68000Y-31000D02*
X60000Y-31000D01*
X60000Y-31000D02*
X60000Y-30000D01*
X60000Y-30000D02*
X68000Y-30000D01*
X68000Y-30000D02*
X68000Y-31000D01*
X67000Y-30000D02*
X67000Y-31000D01*
X76000Y-31000D02*
X68000Y-31000D01*
X68000Y-31000D02*
X68000Y-30000D01*
X68000Y-30000D02*
X76000Y-30000D01*
X76000Y-30000D02*
X76000Y-31000D01*
X75000Y-30000D02*
X75000Y-31000D01*
G54D11*
X63887Y-33165D02*
X64713Y-33165D01*
X64713Y-33165D02*
X64713Y-33835D01*
X64713Y-33835D02*
X63887Y-33835D01*
X63887Y-33835D02*
X63887Y-33165D01*
G54D15*
X77700Y-34000D02*
X76800Y-34000D01*
X76800Y-34000D02*
X76800Y-33500D01*
X76800Y-33500D02*
X77700Y-33500D01*
X77700Y-33500D02*
X77700Y-34000D01*
G54D16*
X63900Y-32100D02*
X63700Y-32100D01*
X63700Y-32100D02*
X63700Y-32400D01*
X63700Y-32400D02*
X63900Y-32400D01*
X64100Y-32100D02*
X64300Y-32100D01*
X64300Y-32100D02*
X64300Y-32400D01*
X64300Y-32400D02*
X64100Y-32400D01*
X77850Y-32800D02*
X77850Y-32600D01*
X77850Y-32600D02*
X77550Y-32600D01*
X77550Y-32600D02*
X77550Y-32800D01*
X77850Y-33000D02*
X77850Y-33200D01*
X77850Y-33200D02*
X77550Y-33200D01*
X77550Y-33200D02*
X77550Y-33000D01*
X64100Y-31900D02*
X64300Y-31900D01*
X64300Y-31900D02*
X64300Y-31600D01*
X64300Y-31600D02*
X64100Y-31600D01*
X63900Y-31900D02*
X63700Y-31900D01*
X63700Y-31900D02*
X63700Y-31600D01*
X63700Y-31600D02*
X63900Y-31600D01*
X63900Y-35350D02*
X63700Y-35350D01*
X63700Y-35350D02*
X63700Y-35650D01*
X63700Y-35650D02*
X63900Y-35650D01*
X64100Y-35350D02*
X64300Y-35350D01*
X64300Y-35350D02*
X64300Y-35650D01*
X64300Y-35650D02*
X64100Y-35650D01*
X64850Y-35650D02*
X65050Y-35650D01*
X65050Y-35650D02*
X65050Y-35350D01*
X65050Y-35350D02*
X64850Y-35350D01*
X64650Y-35650D02*
X64450Y-35650D01*
X64450Y-35650D02*
X64450Y-35350D01*
X64450Y-35350D02*
X64650Y-35350D01*
X72250Y-35550D02*
X72050Y-35550D01*
X72050Y-35550D02*
X72050Y-35850D01*
X72050Y-35850D02*
X72250Y-35850D01*
X72450Y-35550D02*
X72650Y-35550D01*
X72650Y-35550D02*
X72650Y-35850D01*
X72650Y-35850D02*
X72450Y-35850D01*
X74550Y-32750D02*
X74550Y-32550D01*
X74550Y-32550D02*
X74250Y-32550D01*
X74250Y-32550D02*
X74250Y-32750D01*
X74550Y-32950D02*
X74550Y-33150D01*
X74550Y-33150D02*
X74250Y-33150D01*
X74250Y-33150D02*
X74250Y-32950D01*
X71700Y-31150D02*
X71500Y-31150D01*
X71500Y-31150D02*
X71500Y-31450D01*
X71500Y-31450D02*
X71700Y-31450D01*
X71900Y-31150D02*
X72100Y-31150D01*
X72100Y-31150D02*
X72100Y-31450D01*
X72100Y-31450D02*
X71900Y-31450D01*
X70160Y-34170D02*
X70160Y-34370D01*
X70160Y-34370D02*
X70460Y-34370D01*
X70460Y-34370D02*
X70460Y-34170D01*
X70160Y-33970D02*
X70160Y-33770D01*
X70160Y-33770D02*
X70460Y-33770D01*
X70460Y-33770D02*
X70460Y-33970D01*
X69000Y-35500D02*
X69000Y-35700D01*
X69000Y-35700D02*
X69300Y-35700D01*
X69300Y-35700D02*
X69300Y-35500D01*
X69000Y-35300D02*
X69000Y-35100D01*
X69000Y-35100D02*
X69300Y-35100D01*
X69300Y-35100D02*
X69300Y-35300D01*
X70950Y-36150D02*
X70950Y-35950D01*
X70950Y-35950D02*
X70650Y-35950D01*
X70650Y-35950D02*
X70650Y-36150D01*
X70950Y-36350D02*
X70950Y-36550D01*
X70950Y-36550D02*
X70650Y-36550D01*
X70650Y-36550D02*
X70650Y-36350D01*
G54D17*
X70823Y-31923D02*
X70823Y-35076D01*
X70823Y-35076D02*
X73976Y-35076D01*
X73976Y-35076D02*
X73976Y-31923D01*
X73976Y-31923D02*
X70823Y-31923D01*
X73976Y-35076D02*
X74126Y-35226D01*
G54D18*
X77160Y-34532D02*
X77170Y-34542D01*
X77179Y-34570D01*
X77179Y-34589D01*
X77170Y-34617D01*
X77151Y-34636D01*
X77132Y-34645D01*
X77095Y-34654D01*
X77067Y-34654D01*
X77029Y-34645D01*
X77010Y-34636D01*
X76992Y-34617D01*
X76982Y-34589D01*
X76982Y-34570D01*
X76992Y-34542D01*
X77001Y-34532D01*
X76982Y-34363D02*
X76982Y-34401D01*
X76992Y-34420D01*
X77001Y-34429D01*
X77029Y-34448D01*
X77067Y-34457D01*
X77142Y-34457D01*
X77160Y-34448D01*
X77170Y-34439D01*
X77179Y-34420D01*
X77179Y-34382D01*
X77170Y-34363D01*
X77160Y-34354D01*
X77142Y-34345D01*
X77095Y-34345D01*
X77076Y-34354D01*
X77067Y-34363D01*
X77057Y-34382D01*
X77057Y-34420D01*
X77067Y-34439D01*
X77076Y-34448D01*
X77095Y-34457D01*
G54D10*
X64059Y-34761D02*
X64059Y-34963D01*
X64071Y-34987D01*
X64083Y-34999D01*
X64107Y-35011D01*
X64154Y-35011D01*
X64178Y-34999D01*
X64190Y-34987D01*
X64202Y-34963D01*
X64202Y-34761D01*
X64309Y-34785D02*
X64321Y-34773D01*
X64345Y-34761D01*
X64404Y-34761D01*
X64428Y-34773D01*
X64440Y-34785D01*
X64452Y-34808D01*
X64452Y-34832D01*
X64440Y-34868D01*
X64297Y-35011D01*
X64452Y-35011D01*
G54D14*
X60719Y-33623D02*
X60699Y-33642D01*
X60642Y-33661D01*
X60604Y-33661D01*
X60547Y-33642D01*
X60509Y-33604D01*
X60490Y-33566D01*
X60471Y-33490D01*
X60471Y-33433D01*
X60490Y-33357D01*
X60509Y-33319D01*
X60547Y-33280D01*
X60604Y-33261D01*
X60642Y-33261D01*
X60699Y-33280D01*
X60719Y-33300D01*
X60966Y-33261D02*
X61042Y-33261D01*
X61080Y-33280D01*
X61119Y-33319D01*
X61138Y-33395D01*
X61138Y-33528D01*
X61119Y-33604D01*
X61080Y-33642D01*
X61042Y-33661D01*
X60966Y-33661D01*
X60928Y-33642D01*
X60890Y-33604D01*
X60871Y-33528D01*
X60871Y-33395D01*
X60890Y-33319D01*
X60928Y-33280D01*
X60966Y-33261D01*
X61309Y-33661D02*
X61309Y-33261D01*
X61538Y-33661D01*
X61538Y-33261D01*
X61938Y-33661D02*
X61709Y-33661D01*
X61823Y-33661D02*
X61823Y-33261D01*
X61785Y-33319D01*
X61747Y-33357D01*
X61709Y-33376D01*
G54D17*
X75161Y-35842D02*
X75161Y-35242D01*
X75314Y-35242D01*
X75352Y-35271D01*
X75371Y-35300D01*
X75390Y-35357D01*
X75390Y-35442D01*
X75371Y-35500D01*
X75352Y-35528D01*
X75314Y-35557D01*
X75161Y-35557D01*
X75638Y-35242D02*
X75714Y-35242D01*
X75752Y-35271D01*
X75790Y-35328D01*
X75809Y-35442D01*
X75809Y-35642D01*
X75790Y-35757D01*
X75752Y-35814D01*
X75714Y-35842D01*
X75638Y-35842D01*
X75600Y-35814D01*
X75561Y-35757D01*
X75542Y-35642D01*
X75542Y-35442D01*
X75561Y-35328D01*
X75600Y-35271D01*
X75638Y-35242D01*
X76209Y-35842D02*
X76076Y-35557D01*
X75980Y-35842D02*
X75980Y-35242D01*
X76133Y-35242D01*
X76171Y-35271D01*
X76190Y-35300D01*
X76209Y-35357D01*
X76209Y-35442D01*
X76190Y-35500D01*
X76171Y-35528D01*
X76133Y-35557D01*
X75980Y-35557D01*
X76323Y-35242D02*
X76552Y-35242D01*
X76438Y-35842D02*
X76438Y-35242D01*
X76666Y-35671D02*
X76857Y-35671D01*
X76628Y-35842D02*
X76761Y-35242D01*
X76895Y-35842D01*
X66252Y-35842D02*
X66252Y-35242D01*
X66404Y-35242D01*
X66442Y-35271D01*
X66461Y-35300D01*
X66480Y-35357D01*
X66480Y-35442D01*
X66461Y-35500D01*
X66442Y-35528D01*
X66404Y-35557D01*
X66252Y-35557D01*
X66728Y-35242D02*
X66804Y-35242D01*
X66842Y-35271D01*
X66880Y-35328D01*
X66900Y-35442D01*
X66900Y-35642D01*
X66880Y-35757D01*
X66842Y-35814D01*
X66804Y-35842D01*
X66728Y-35842D01*
X66690Y-35814D01*
X66652Y-35757D01*
X66633Y-35642D01*
X66633Y-35442D01*
X66652Y-35328D01*
X66690Y-35271D01*
X66728Y-35242D01*
X67300Y-35842D02*
X67166Y-35557D01*
X67071Y-35842D02*
X67071Y-35242D01*
X67223Y-35242D01*
X67261Y-35271D01*
X67280Y-35300D01*
X67300Y-35357D01*
X67300Y-35442D01*
X67280Y-35500D01*
X67261Y-35528D01*
X67223Y-35557D01*
X67071Y-35557D01*
X67414Y-35242D02*
X67642Y-35242D01*
X67528Y-35842D02*
X67528Y-35242D01*
X67776Y-35528D02*
X67909Y-35528D01*
X67966Y-35842D02*
X67776Y-35842D01*
X67776Y-35242D01*
X67966Y-35242D01*
G54D14*
X78600Y-35561D02*
X78600Y-35161D01*
X78752Y-35161D01*
X78790Y-35180D01*
X78809Y-35200D01*
X78828Y-35238D01*
X78828Y-35295D01*
X78809Y-35333D01*
X78790Y-35352D01*
X78752Y-35371D01*
X78600Y-35371D01*
X79000Y-35561D02*
X79000Y-35161D01*
X79095Y-35161D01*
X79152Y-35180D01*
X79190Y-35219D01*
X79209Y-35257D01*
X79228Y-35333D01*
X79228Y-35390D01*
X79209Y-35466D01*
X79190Y-35504D01*
X79152Y-35542D01*
X79095Y-35561D01*
X79000Y-35561D01*
X79400Y-35561D02*
X79400Y-35161D01*
G54D17*
X77133Y-31742D02*
X77133Y-31142D01*
X77285Y-31142D01*
X77323Y-31171D01*
X77342Y-31200D01*
X77361Y-31257D01*
X77361Y-31342D01*
X77342Y-31400D01*
X77323Y-31428D01*
X77285Y-31457D01*
X77133Y-31457D01*
X77609Y-31142D02*
X77685Y-31142D01*
X77723Y-31171D01*
X77761Y-31228D01*
X77780Y-31342D01*
X77780Y-31542D01*
X77761Y-31657D01*
X77723Y-31714D01*
X77685Y-31742D01*
X77609Y-31742D01*
X77571Y-31714D01*
X77533Y-31657D01*
X77514Y-31542D01*
X77514Y-31342D01*
X77533Y-31228D01*
X77571Y-31171D01*
X77609Y-31142D01*
X78180Y-31742D02*
X78047Y-31457D01*
X77952Y-31742D02*
X77952Y-31142D01*
X78104Y-31142D01*
X78142Y-31171D01*
X78161Y-31200D01*
X78180Y-31257D01*
X78180Y-31342D01*
X78161Y-31400D01*
X78142Y-31428D01*
X78104Y-31457D01*
X77952Y-31457D01*
X78295Y-31142D02*
X78523Y-31142D01*
X78409Y-31742D02*
X78409Y-31142D01*
X78790Y-31428D02*
X78847Y-31457D01*
X78866Y-31485D01*
X78885Y-31542D01*
X78885Y-31628D01*
X78866Y-31685D01*
X78847Y-31714D01*
X78809Y-31742D01*
X78657Y-31742D01*
X78657Y-31142D01*
X78790Y-31142D01*
X78828Y-31171D01*
X78847Y-31200D01*
X78866Y-31257D01*
X78866Y-31314D01*
X78847Y-31371D01*
X78828Y-31400D01*
X78790Y-31428D01*
X78657Y-31428D01*
X64733Y-31742D02*
X64733Y-31142D01*
X64885Y-31142D01*
X64923Y-31171D01*
X64942Y-31200D01*
X64961Y-31257D01*
X64961Y-31342D01*
X64942Y-31400D01*
X64923Y-31428D01*
X64885Y-31457D01*
X64733Y-31457D01*
X65209Y-31142D02*
X65285Y-31142D01*
X65323Y-31171D01*
X65361Y-31228D01*
X65380Y-31342D01*
X65380Y-31542D01*
X65361Y-31657D01*
X65323Y-31714D01*
X65285Y-31742D01*
X65209Y-31742D01*
X65171Y-31714D01*
X65133Y-31657D01*
X65114Y-31542D01*
X65114Y-31342D01*
X65133Y-31228D01*
X65171Y-31171D01*
X65209Y-31142D01*
X65780Y-31742D02*
X65647Y-31457D01*
X65552Y-31742D02*
X65552Y-31142D01*
X65704Y-31142D01*
X65742Y-31171D01*
X65761Y-31200D01*
X65780Y-31257D01*
X65780Y-31342D01*
X65761Y-31400D01*
X65742Y-31428D01*
X65704Y-31457D01*
X65552Y-31457D01*
X65895Y-31142D02*
X66123Y-31142D01*
X66009Y-31742D02*
X66009Y-31142D01*
X66257Y-31742D02*
X66257Y-31142D01*
X66352Y-31142D01*
X66409Y-31171D01*
X66447Y-31228D01*
X66466Y-31285D01*
X66485Y-31400D01*
X66485Y-31485D01*
X66466Y-31600D01*
X66447Y-31657D01*
X66409Y-31714D01*
X66352Y-31742D01*
X66257Y-31742D01*
X69333Y-31742D02*
X69333Y-31142D01*
X69485Y-31142D01*
X69523Y-31171D01*
X69542Y-31200D01*
X69561Y-31257D01*
X69561Y-31342D01*
X69542Y-31400D01*
X69523Y-31428D01*
X69485Y-31457D01*
X69333Y-31457D01*
X69809Y-31142D02*
X69885Y-31142D01*
X69923Y-31171D01*
X69961Y-31228D01*
X69980Y-31342D01*
X69980Y-31542D01*
X69961Y-31657D01*
X69923Y-31714D01*
X69885Y-31742D01*
X69809Y-31742D01*
X69771Y-31714D01*
X69733Y-31657D01*
X69714Y-31542D01*
X69714Y-31342D01*
X69733Y-31228D01*
X69771Y-31171D01*
X69809Y-31142D01*
X70380Y-31742D02*
X70247Y-31457D01*
X70152Y-31742D02*
X70152Y-31142D01*
X70304Y-31142D01*
X70342Y-31171D01*
X70361Y-31200D01*
X70380Y-31257D01*
X70380Y-31342D01*
X70361Y-31400D01*
X70342Y-31428D01*
X70304Y-31457D01*
X70152Y-31457D01*
X70495Y-31142D02*
X70723Y-31142D01*
X70609Y-31742D02*
X70609Y-31142D01*
X71085Y-31685D02*
X71066Y-31714D01*
X71009Y-31742D01*
X70971Y-31742D01*
X70914Y-31714D01*
X70876Y-31657D01*
X70857Y-31600D01*
X70838Y-31485D01*
X70838Y-31400D01*
X70857Y-31285D01*
X70876Y-31228D01*
X70914Y-31171D01*
X70971Y-31142D01*
X71009Y-31142D01*
X71066Y-31171D01*
X71085Y-31200D01*
G54D11*
X64202Y-33650D02*
X64362Y-33650D01*
X64380Y-33640D01*
X64390Y-33631D01*
X64399Y-33612D01*
X64399Y-33575D01*
X64390Y-33556D01*
X64380Y-33546D01*
X64362Y-33537D01*
X64202Y-33537D01*
X64202Y-33462D02*
X64202Y-33340D01*
X64277Y-33406D01*
X64277Y-33378D01*
X64287Y-33359D01*
X64296Y-33349D01*
X64315Y-33340D01*
X64362Y-33340D01*
X64380Y-33349D01*
X64390Y-33359D01*
X64399Y-33378D01*
X64399Y-33434D01*
X64390Y-33453D01*
X64380Y-33462D01*
G54D19*
X77226Y-33900D02*
X77226Y-33960D01*
X77330Y-33960D02*
X77130Y-33960D01*
X77130Y-33874D01*
X77226Y-33745D02*
X77235Y-33720D01*
X77245Y-33711D01*
X77264Y-33702D01*
X77292Y-33702D01*
X77311Y-33711D01*
X77321Y-33720D01*
X77330Y-33737D01*
X77330Y-33805D01*
X77130Y-33805D01*
X77130Y-33745D01*
X77140Y-33728D01*
X77150Y-33720D01*
X77169Y-33711D01*
X77188Y-33711D01*
X77207Y-33720D01*
X77216Y-33728D01*
X77226Y-33745D01*
X77226Y-33805D01*
X77330Y-33531D02*
X77330Y-33634D01*
X77330Y-33582D02*
X77130Y-33582D01*
X77159Y-33600D01*
X77178Y-33617D01*
X77188Y-33634D01*
G54D16*
X64075Y-32260D02*
X64010Y-32300D01*
X64075Y-32328D02*
X63937Y-32328D01*
X63937Y-32282D01*
X63944Y-32271D01*
X63951Y-32265D01*
X63964Y-32260D01*
X63983Y-32260D01*
X63997Y-32265D01*
X64003Y-32271D01*
X64010Y-32282D01*
X64010Y-32328D01*
X63951Y-32214D02*
X63944Y-32208D01*
X63937Y-32197D01*
X63937Y-32168D01*
X63944Y-32157D01*
X63951Y-32151D01*
X63964Y-32145D01*
X63977Y-32145D01*
X63997Y-32151D01*
X64075Y-32220D01*
X64075Y-32145D01*
X77505Y-32870D02*
X77440Y-32910D01*
X77505Y-32938D02*
X77367Y-32938D01*
X77367Y-32892D01*
X77374Y-32881D01*
X77381Y-32875D01*
X77394Y-32870D01*
X77413Y-32870D01*
X77427Y-32875D01*
X77433Y-32881D01*
X77440Y-32892D01*
X77440Y-32938D01*
X77505Y-32755D02*
X77505Y-32824D01*
X77505Y-32790D02*
X77367Y-32790D01*
X77387Y-32801D01*
X77400Y-32812D01*
X77407Y-32824D01*
X64062Y-31770D02*
X64069Y-31775D01*
X64075Y-31792D01*
X64075Y-31804D01*
X64069Y-31821D01*
X64056Y-31832D01*
X64043Y-31838D01*
X64016Y-31844D01*
X63997Y-31844D01*
X63970Y-31838D01*
X63957Y-31832D01*
X63944Y-31821D01*
X63937Y-31804D01*
X63937Y-31792D01*
X63944Y-31775D01*
X63951Y-31770D01*
X63997Y-31701D02*
X63990Y-31712D01*
X63983Y-31718D01*
X63970Y-31724D01*
X63964Y-31724D01*
X63951Y-31718D01*
X63944Y-31712D01*
X63937Y-31701D01*
X63937Y-31678D01*
X63944Y-31667D01*
X63951Y-31661D01*
X63964Y-31655D01*
X63970Y-31655D01*
X63983Y-31661D01*
X63990Y-31667D01*
X63997Y-31678D01*
X63997Y-31701D01*
X64003Y-31712D01*
X64010Y-31718D01*
X64023Y-31724D01*
X64049Y-31724D01*
X64062Y-31718D01*
X64069Y-31712D01*
X64075Y-31701D01*
X64075Y-31678D01*
X64069Y-31667D01*
X64062Y-31661D01*
X64049Y-31655D01*
X64023Y-31655D01*
X64010Y-31661D01*
X64003Y-31667D01*
X63997Y-31678D01*
X64052Y-35577D02*
X64059Y-35582D01*
X64065Y-35600D01*
X64065Y-35611D01*
X64059Y-35628D01*
X64046Y-35640D01*
X64033Y-35645D01*
X64006Y-35651D01*
X63987Y-35651D01*
X63960Y-35645D01*
X63947Y-35640D01*
X63934Y-35628D01*
X63927Y-35611D01*
X63927Y-35600D01*
X63934Y-35582D01*
X63941Y-35577D01*
X64065Y-35462D02*
X64065Y-35531D01*
X64065Y-35497D02*
X63927Y-35497D01*
X63947Y-35508D01*
X63960Y-35520D01*
X63967Y-35531D01*
X63927Y-35388D02*
X63927Y-35377D01*
X63934Y-35365D01*
X63941Y-35360D01*
X63954Y-35354D01*
X63980Y-35348D01*
X64013Y-35348D01*
X64039Y-35354D01*
X64052Y-35360D01*
X64059Y-35365D01*
X64065Y-35377D01*
X64065Y-35388D01*
X64059Y-35400D01*
X64052Y-35405D01*
X64039Y-35411D01*
X64013Y-35417D01*
X63980Y-35417D01*
X63954Y-35411D01*
X63941Y-35405D01*
X63934Y-35400D01*
X63927Y-35388D01*
X64802Y-35520D02*
X64809Y-35525D01*
X64815Y-35542D01*
X64815Y-35554D01*
X64809Y-35571D01*
X64796Y-35582D01*
X64783Y-35588D01*
X64756Y-35594D01*
X64737Y-35594D01*
X64710Y-35588D01*
X64697Y-35582D01*
X64684Y-35571D01*
X64677Y-35554D01*
X64677Y-35542D01*
X64684Y-35525D01*
X64691Y-35520D01*
X64815Y-35462D02*
X64815Y-35440D01*
X64809Y-35428D01*
X64802Y-35422D01*
X64783Y-35411D01*
X64756Y-35405D01*
X64704Y-35405D01*
X64691Y-35411D01*
X64684Y-35417D01*
X64677Y-35428D01*
X64677Y-35451D01*
X64684Y-35462D01*
X64691Y-35468D01*
X64704Y-35474D01*
X64737Y-35474D01*
X64750Y-35468D01*
X64756Y-35462D01*
X64763Y-35451D01*
X64763Y-35428D01*
X64756Y-35417D01*
X64750Y-35411D01*
X64737Y-35405D01*
X72392Y-35720D02*
X72399Y-35725D01*
X72405Y-35742D01*
X72405Y-35754D01*
X72399Y-35771D01*
X72386Y-35782D01*
X72373Y-35788D01*
X72346Y-35794D01*
X72327Y-35794D01*
X72300Y-35788D01*
X72287Y-35782D01*
X72274Y-35771D01*
X72267Y-35754D01*
X72267Y-35742D01*
X72274Y-35725D01*
X72281Y-35720D01*
X72267Y-35680D02*
X72267Y-35600D01*
X72405Y-35651D01*
X74442Y-32870D02*
X74449Y-32875D01*
X74455Y-32892D01*
X74455Y-32904D01*
X74449Y-32921D01*
X74436Y-32932D01*
X74423Y-32938D01*
X74396Y-32944D01*
X74377Y-32944D01*
X74350Y-32938D01*
X74337Y-32932D01*
X74324Y-32921D01*
X74317Y-32904D01*
X74317Y-32892D01*
X74324Y-32875D01*
X74331Y-32870D01*
X74317Y-32761D02*
X74317Y-32818D01*
X74383Y-32824D01*
X74377Y-32818D01*
X74370Y-32807D01*
X74370Y-32778D01*
X74377Y-32767D01*
X74383Y-32761D01*
X74396Y-32755D01*
X74429Y-32755D01*
X74442Y-32761D01*
X74449Y-32767D01*
X74455Y-32778D01*
X74455Y-32807D01*
X74449Y-32818D01*
X74442Y-32824D01*
X71852Y-31320D02*
X71859Y-31325D01*
X71865Y-31342D01*
X71865Y-31354D01*
X71859Y-31371D01*
X71846Y-31382D01*
X71833Y-31388D01*
X71806Y-31394D01*
X71787Y-31394D01*
X71760Y-31388D01*
X71747Y-31382D01*
X71734Y-31371D01*
X71727Y-31354D01*
X71727Y-31342D01*
X71734Y-31325D01*
X71741Y-31320D01*
X71773Y-31217D02*
X71865Y-31217D01*
X71721Y-31245D02*
X71819Y-31274D01*
X71819Y-31200D01*
X70280Y-34142D02*
X70274Y-34149D01*
X70257Y-34155D01*
X70245Y-34155D01*
X70228Y-34149D01*
X70217Y-34136D01*
X70211Y-34123D01*
X70205Y-34096D01*
X70205Y-34077D01*
X70211Y-34050D01*
X70217Y-34037D01*
X70228Y-34024D01*
X70245Y-34017D01*
X70257Y-34017D01*
X70274Y-34024D01*
X70280Y-34031D01*
X70320Y-34017D02*
X70394Y-34017D01*
X70354Y-34070D01*
X70371Y-34070D01*
X70382Y-34077D01*
X70388Y-34083D01*
X70394Y-34096D01*
X70394Y-34129D01*
X70388Y-34142D01*
X70382Y-34149D01*
X70371Y-34155D01*
X70337Y-34155D01*
X70325Y-34149D01*
X70320Y-34142D01*
X69130Y-35442D02*
X69124Y-35449D01*
X69107Y-35455D01*
X69095Y-35455D01*
X69078Y-35449D01*
X69067Y-35436D01*
X69061Y-35423D01*
X69055Y-35396D01*
X69055Y-35377D01*
X69061Y-35350D01*
X69067Y-35337D01*
X69078Y-35324D01*
X69095Y-35317D01*
X69107Y-35317D01*
X69124Y-35324D01*
X69130Y-35331D01*
X69175Y-35331D02*
X69181Y-35324D01*
X69192Y-35317D01*
X69221Y-35317D01*
X69232Y-35324D01*
X69238Y-35331D01*
X69244Y-35344D01*
X69244Y-35357D01*
X69238Y-35377D01*
X69170Y-35455D01*
X69244Y-35455D01*
X70780Y-36292D02*
X70774Y-36299D01*
X70757Y-36305D01*
X70745Y-36305D01*
X70728Y-36299D01*
X70717Y-36286D01*
X70711Y-36273D01*
X70705Y-36246D01*
X70705Y-36227D01*
X70711Y-36200D01*
X70717Y-36187D01*
X70728Y-36174D01*
X70745Y-36167D01*
X70757Y-36167D01*
X70774Y-36174D01*
X70780Y-36181D01*
X70894Y-36305D02*
X70825Y-36305D01*
X70860Y-36305D02*
X70860Y-36167D01*
X70848Y-36187D01*
X70837Y-36200D01*
X70825Y-36207D01*
%LPC*%
G54D20*
X77475Y-34500D03*
X76725Y-34500D03*
G54D21*
X63811Y-34106D03*
X63811Y-34893D03*
X64677Y-34500D03*
G54D22*
X62858Y-32870D03*
X62858Y-33185D03*
X62858Y-33500D03*
X62858Y-33815D03*
X62858Y-34130D03*
G54D23*
X62819Y-31748D03*
X60654Y-31748D03*
X62819Y-35252D03*
X60654Y-35252D03*
G54D24*
X61835Y-32634D03*
X61835Y-34366D03*
G54D25*
X72500Y-36500D03*
G54D26*
X73500Y-36500D03*
X74500Y-36500D03*
X75500Y-36500D03*
X76500Y-36500D03*
X77500Y-36500D03*
X78500Y-36500D03*
X79500Y-36500D03*
G54D25*
X65500Y-36500D03*
G54D26*
X66500Y-36500D03*
X67500Y-36500D03*
X68500Y-36500D03*
G54D27*
X78500Y-32500D03*
G54D28*
X79500Y-32500D03*
X78500Y-33500D03*
X79500Y-33500D03*
X78500Y-34500D03*
X79500Y-34500D03*
G54D25*
X60500Y-36500D03*
G54D26*
X61500Y-36500D03*
X62500Y-36500D03*
X63500Y-36500D03*
X64500Y-36500D03*
G54D25*
X79500Y-30500D03*
G54D26*
X78500Y-30500D03*
X77500Y-30500D03*
X76500Y-30500D03*
G54D25*
X67500Y-30500D03*
G54D26*
X66500Y-30500D03*
X65500Y-30500D03*
X64500Y-30500D03*
X63500Y-30500D03*
X62500Y-30500D03*
X61500Y-30500D03*
X60500Y-30500D03*
G54D25*
X75500Y-30500D03*
G54D26*
X74500Y-30500D03*
X73500Y-30500D03*
X72500Y-30500D03*
X71500Y-30500D03*
X70500Y-30500D03*
X69500Y-30500D03*
X68500Y-30500D03*
G54D29*
X64024Y-33303D03*
X64024Y-33697D03*
X64576Y-33303D03*
X64024Y-33500D03*
X64576Y-33697D03*
G54D30*
X70279Y-36250D03*
X70279Y-35383D03*
X69650Y-35383D03*
X69650Y-36250D03*
G54D31*
X77550Y-33750D03*
X76950Y-33750D03*
G54D32*
X63823Y-32250D03*
X64177Y-32250D03*
G54D33*
X77700Y-32723D03*
X77700Y-33077D03*
G54D32*
X64177Y-31750D03*
X63823Y-31750D03*
X63823Y-35500D03*
X64177Y-35500D03*
X64927Y-35500D03*
X64573Y-35500D03*
X72173Y-35700D03*
X72527Y-35700D03*
G54D33*
X74400Y-32673D03*
X74400Y-33027D03*
G54D32*
X71623Y-31300D03*
X71977Y-31300D03*
G54D33*
X70310Y-34247D03*
X70310Y-33893D03*
X69150Y-35577D03*
X69150Y-35223D03*
X70800Y-36073D03*
X70800Y-36427D03*
G54D34*
X73699Y-34484D03*
X73699Y-34287D03*
X73699Y-34090D03*
X73699Y-33893D03*
X73699Y-33696D03*
X73699Y-33500D03*
X73699Y-33303D03*
X73699Y-33106D03*
X73699Y-32909D03*
X73699Y-32712D03*
X73699Y-32515D03*
G54D35*
X73384Y-32200D03*
X73187Y-32200D03*
X72990Y-32200D03*
X72793Y-32200D03*
X72596Y-32200D03*
X72400Y-32200D03*
X72203Y-32200D03*
X72006Y-32200D03*
X71809Y-32200D03*
X71612Y-32200D03*
X71415Y-32200D03*
G54D34*
X71100Y-32515D03*
X71100Y-32712D03*
X71100Y-32909D03*
X71100Y-33106D03*
X71100Y-33303D03*
X71100Y-33500D03*
X71100Y-33696D03*
X71100Y-33893D03*
X71100Y-34090D03*
X71100Y-34287D03*
X71100Y-34484D03*
G54D35*
X71415Y-34799D03*
X71612Y-34799D03*
X71809Y-34799D03*
X72006Y-34799D03*
X72203Y-34799D03*
X72400Y-34799D03*
X72596Y-34799D03*
X72793Y-34799D03*
X72990Y-34799D03*
X73187Y-34799D03*
X73384Y-34799D03*
G54D36*
X72400Y-33500D03*
M02*
