G04 (created by PCBNEW (2013-june-11)-stable) date Tue 21 Jan 2014 07:59:27 AM PST*
%MOIN*%
G04 Gerber Fmt 3.4, Leading zero omitted, Abs format*
%FSLAX34Y34*%
G01*
G70*
G90*
G04 APERTURE LIST*
%ADD10C,0.00590551*%
%ADD11C,0.02*%
%ADD12R,0.035X0.055*%
%ADD13R,0.0354331X0.0314961*%
%ADD14R,0.0906X0.0197*%
%ADD15R,0.0984X0.0787*%
%ADD16C,0.0354*%
%ADD17R,0.055X0.055*%
%ADD18C,0.055*%
%ADD19R,0.06X0.06*%
%ADD20C,0.06*%
%ADD21R,0.0177X0.0118*%
%ADD22R,0.0452756X0.0551181*%
%ADD23R,0.025X0.045*%
%ADD24R,0.0157X0.0236*%
%ADD25R,0.0236X0.0157*%
%ADD26R,0.03543X0.01102*%
%ADD27R,0.01102X0.03543*%
%ADD28R,0.18503X0.18503*%
%ADD29C,0.035*%
%ADD30C,0.023*%
%ADD31C,0.02*%
%ADD32C,0.01*%
%ADD33C,0.006*%
G04 APERTURE END LIST*
G54D10*
G54D11*
X74025Y-35450D03*
X74550Y-35450D03*
X72975Y-35800D03*
X74350Y-35725D03*
X74850Y-35725D03*
X76550Y-35175D03*
X77050Y-35175D03*
X76050Y-35175D03*
X75550Y-35175D03*
X77550Y-35175D03*
X78050Y-35175D03*
X78900Y-35475D03*
X78550Y-35175D03*
X75550Y-31950D03*
X74800Y-32700D03*
X75800Y-31700D03*
X75300Y-32200D03*
X75300Y-34200D03*
X76200Y-33300D03*
X76500Y-33000D03*
X75900Y-33600D03*
X75600Y-33900D03*
X66175Y-32150D03*
X66675Y-32150D03*
X65675Y-32150D03*
X67175Y-32150D03*
X67675Y-32150D03*
X68675Y-32150D03*
X68175Y-32150D03*
X70200Y-32900D03*
X69700Y-32900D03*
X65950Y-33800D03*
X66450Y-33800D03*
X65450Y-33800D03*
X64950Y-33800D03*
X66950Y-33800D03*
X67450Y-33800D03*
X68450Y-33800D03*
X67950Y-33800D03*
X67950Y-33025D03*
X68450Y-33025D03*
X67450Y-33025D03*
X66950Y-33025D03*
X64950Y-33025D03*
X65450Y-33025D03*
X66450Y-33025D03*
G54D12*
X77475Y-34500D03*
X76725Y-34500D03*
G54D11*
X70020Y-33980D03*
X71200Y-35450D03*
X71350Y-36350D03*
X69300Y-34850D03*
X68800Y-35200D03*
X69800Y-36750D03*
X68800Y-35550D03*
X68900Y-34850D03*
X69350Y-36750D03*
X70700Y-36750D03*
X71150Y-36750D03*
X71850Y-35750D03*
X69150Y-36150D03*
X70250Y-36750D03*
X68950Y-35850D03*
X69150Y-36450D03*
X72100Y-31600D03*
X70600Y-34850D03*
X71550Y-36000D03*
X70150Y-34850D03*
X69700Y-34850D03*
X70750Y-35250D03*
G54D13*
X63811Y-34106D03*
X63811Y-34893D03*
X64677Y-34500D03*
G54D14*
X62858Y-32870D03*
X62858Y-33185D03*
X62858Y-33500D03*
X62858Y-33815D03*
X62858Y-34130D03*
G54D15*
X62819Y-31748D03*
X60654Y-31748D03*
X62819Y-35252D03*
X60654Y-35252D03*
G54D16*
X61835Y-32634D03*
X61835Y-34366D03*
G54D17*
X72500Y-36500D03*
G54D18*
X73500Y-36500D03*
X74500Y-36500D03*
X75500Y-36500D03*
X76500Y-36500D03*
X77500Y-36500D03*
X78500Y-36500D03*
X79500Y-36500D03*
G54D17*
X65500Y-36500D03*
G54D18*
X66500Y-36500D03*
X67500Y-36500D03*
X68500Y-36500D03*
G54D19*
X78500Y-32500D03*
G54D20*
X79500Y-32500D03*
X78500Y-33500D03*
X79500Y-33500D03*
X78500Y-34500D03*
X79500Y-34500D03*
G54D17*
X60500Y-36500D03*
G54D18*
X61500Y-36500D03*
X62500Y-36500D03*
X63500Y-36500D03*
X64500Y-36500D03*
G54D17*
X79500Y-30500D03*
G54D18*
X78500Y-30500D03*
X77500Y-30500D03*
X76500Y-30500D03*
G54D17*
X67500Y-30500D03*
G54D18*
X66500Y-30500D03*
X65500Y-30500D03*
X64500Y-30500D03*
X63500Y-30500D03*
X62500Y-30500D03*
X61500Y-30500D03*
X60500Y-30500D03*
G54D17*
X75500Y-30500D03*
G54D18*
X74500Y-30500D03*
X73500Y-30500D03*
X72500Y-30500D03*
X71500Y-30500D03*
X70500Y-30500D03*
X69500Y-30500D03*
X68500Y-30500D03*
G54D21*
X64024Y-33303D03*
X64024Y-33697D03*
X64576Y-33303D03*
X64024Y-33500D03*
X64576Y-33697D03*
G54D22*
X70279Y-36250D03*
X70279Y-35383D03*
X69650Y-35383D03*
X69650Y-36250D03*
G54D23*
X77550Y-33750D03*
X76950Y-33750D03*
G54D24*
X63823Y-32250D03*
X64177Y-32250D03*
G54D25*
X77700Y-32723D03*
X77700Y-33077D03*
G54D24*
X64177Y-31750D03*
X63823Y-31750D03*
X63823Y-35500D03*
X64177Y-35500D03*
X64927Y-35500D03*
X64573Y-35500D03*
X72173Y-35700D03*
X72527Y-35700D03*
G54D25*
X74400Y-32673D03*
X74400Y-33027D03*
G54D24*
X71623Y-31300D03*
X71977Y-31300D03*
G54D25*
X70310Y-34247D03*
X70310Y-33893D03*
X69150Y-35577D03*
X69150Y-35223D03*
X70800Y-36073D03*
X70800Y-36427D03*
G54D11*
X70900Y-35550D03*
G54D26*
X73699Y-34484D03*
X73699Y-34287D03*
X73699Y-34090D03*
X73699Y-33893D03*
X73699Y-33696D03*
X73699Y-33500D03*
X73699Y-33303D03*
X73699Y-33106D03*
X73699Y-32909D03*
X73699Y-32712D03*
X73699Y-32515D03*
G54D27*
X73384Y-32200D03*
X73187Y-32200D03*
X72990Y-32200D03*
X72793Y-32200D03*
X72596Y-32200D03*
X72400Y-32200D03*
X72203Y-32200D03*
X72006Y-32200D03*
X71809Y-32200D03*
X71612Y-32200D03*
X71415Y-32200D03*
G54D26*
X71100Y-32515D03*
X71100Y-32712D03*
X71100Y-32909D03*
X71100Y-33106D03*
X71100Y-33303D03*
X71100Y-33500D03*
X71100Y-33696D03*
X71100Y-33893D03*
X71100Y-34090D03*
X71100Y-34287D03*
X71100Y-34484D03*
G54D27*
X71415Y-34799D03*
X71612Y-34799D03*
X71809Y-34799D03*
X72006Y-34799D03*
X72203Y-34799D03*
X72400Y-34799D03*
X72596Y-34799D03*
X72793Y-34799D03*
X72990Y-34799D03*
X73187Y-34799D03*
X73384Y-34799D03*
G54D28*
X72400Y-33500D03*
G54D11*
X70830Y-31350D03*
X65950Y-33025D03*
G54D29*
X76200Y-34500D03*
X71800Y-36400D03*
G54D30*
X61400Y-33700D03*
X61700Y-33400D03*
X72300Y-31400D03*
X72560Y-31590D03*
X74600Y-34200D03*
X71250Y-34750D03*
X74800Y-34450D03*
X71000Y-34950D03*
X68050Y-34300D03*
G54D29*
X61000Y-34250D03*
X64250Y-34500D03*
X63650Y-33400D03*
X63650Y-32750D03*
X71275Y-31425D03*
X74900Y-32300D03*
X77200Y-33100D03*
X75900Y-31300D03*
X69400Y-34100D03*
X65000Y-32250D03*
X69250Y-32500D03*
G54D31*
X72527Y-35700D02*
X72527Y-35873D01*
X76200Y-34500D02*
X76725Y-34500D01*
X72200Y-36000D02*
X71800Y-36400D01*
X72400Y-36000D02*
X72200Y-36000D01*
X72527Y-35873D02*
X72400Y-36000D01*
X76725Y-34500D02*
X76725Y-33975D01*
X76725Y-33975D02*
X76950Y-33750D01*
G54D32*
X72400Y-35573D02*
X72527Y-35700D01*
X72400Y-34799D02*
X72400Y-35573D01*
X62858Y-33500D02*
X63300Y-33500D01*
X63300Y-33500D02*
X63497Y-33697D01*
X63497Y-33697D02*
X64024Y-33697D01*
X71100Y-33303D02*
X70723Y-33303D01*
X64203Y-33697D02*
X63874Y-33697D01*
X64400Y-33500D02*
X64203Y-33697D01*
X68994Y-33500D02*
X64400Y-33500D01*
X69118Y-33376D02*
X68994Y-33500D01*
X70650Y-33376D02*
X69118Y-33376D01*
X70723Y-33303D02*
X70650Y-33376D01*
X63497Y-33697D02*
X63874Y-33697D01*
X63300Y-33500D02*
X63497Y-33697D01*
X62858Y-33500D02*
X62000Y-33500D01*
X61800Y-33700D02*
X61400Y-33700D01*
X62000Y-33500D02*
X61800Y-33700D01*
X62858Y-33185D02*
X62211Y-33185D01*
X61789Y-33310D02*
X61700Y-33400D01*
X62086Y-33310D02*
X61789Y-33310D01*
X62211Y-33185D02*
X62086Y-33310D01*
X64576Y-33303D02*
X64576Y-33315D01*
X70693Y-33106D02*
X71100Y-33106D01*
X70583Y-33216D02*
X70693Y-33106D01*
X70500Y-33216D02*
X70583Y-33216D01*
X70500Y-33216D02*
X70500Y-33216D01*
X69051Y-33216D02*
X70500Y-33216D01*
X68928Y-33339D02*
X69051Y-33216D01*
X64600Y-33339D02*
X68928Y-33339D01*
X64576Y-33315D02*
X64600Y-33339D01*
X62858Y-33185D02*
X63415Y-33185D01*
X64373Y-33100D02*
X64576Y-33303D01*
X63500Y-33100D02*
X64373Y-33100D01*
X63415Y-33185D02*
X63500Y-33100D01*
G54D31*
X63500Y-36500D02*
X64200Y-35800D01*
X64200Y-35523D02*
X64177Y-35500D01*
X64200Y-35800D02*
X64200Y-35523D01*
G54D32*
X71100Y-32515D02*
X70825Y-32515D01*
X64900Y-30900D02*
X64500Y-30500D01*
X65673Y-30900D02*
X64900Y-30900D01*
X66313Y-31540D02*
X65673Y-30900D01*
X69850Y-31540D02*
X66313Y-31540D01*
X70825Y-32515D02*
X69850Y-31540D01*
X71415Y-32200D02*
X70737Y-32200D01*
X70468Y-31931D02*
X69916Y-31380D01*
X69916Y-31380D02*
X66380Y-31380D01*
X66380Y-31380D02*
X65500Y-30500D01*
X70737Y-32200D02*
X70468Y-31931D01*
X71612Y-32200D02*
X71612Y-31932D01*
X70534Y-31771D02*
X69982Y-31220D01*
X69982Y-31220D02*
X67220Y-31220D01*
X67220Y-31220D02*
X66500Y-30500D01*
X70652Y-31890D02*
X70534Y-31771D01*
X71570Y-31890D02*
X70652Y-31890D01*
X71612Y-31932D02*
X71570Y-31890D01*
X71100Y-34484D02*
X70715Y-34484D01*
X68500Y-34900D02*
X68500Y-36500D01*
X68800Y-34600D02*
X68500Y-34900D01*
X70600Y-34600D02*
X68800Y-34600D01*
X70715Y-34484D02*
X70600Y-34600D01*
X71100Y-34287D02*
X70662Y-34287D01*
X68339Y-35660D02*
X67500Y-36500D01*
X68339Y-34833D02*
X68339Y-35660D01*
X68733Y-34439D02*
X68339Y-34833D01*
X70510Y-34439D02*
X68733Y-34439D01*
X70662Y-34287D02*
X70510Y-34439D01*
X71100Y-33696D02*
X69250Y-33696D01*
X66950Y-36050D02*
X66500Y-36500D01*
X67723Y-36050D02*
X66950Y-36050D01*
X68179Y-35593D02*
X67723Y-36050D01*
X68179Y-34767D02*
X68179Y-35593D01*
X69250Y-33696D02*
X68179Y-34767D01*
X71100Y-33500D02*
X70786Y-33500D01*
X66110Y-35889D02*
X65500Y-36500D01*
X67657Y-35889D02*
X66110Y-35889D01*
X68019Y-35527D02*
X67657Y-35889D01*
X68019Y-34701D02*
X68019Y-35527D01*
X69184Y-33536D02*
X68019Y-34701D01*
X70750Y-33536D02*
X69184Y-33536D01*
X70786Y-33500D02*
X70750Y-33536D01*
X73699Y-33303D02*
X74596Y-33303D01*
X76500Y-31400D02*
X76500Y-30500D01*
X74596Y-33303D02*
X76500Y-31400D01*
X73699Y-33500D02*
X74626Y-33500D01*
X77500Y-30626D02*
X77500Y-30500D01*
X74626Y-33500D02*
X77500Y-30626D01*
X73699Y-33696D02*
X74655Y-33696D01*
X78000Y-31000D02*
X78500Y-30500D01*
X77352Y-31000D02*
X78000Y-31000D01*
X74655Y-33696D02*
X77352Y-31000D01*
G54D31*
X62819Y-31748D02*
X63821Y-31748D01*
X63821Y-31748D02*
X63823Y-31750D01*
X63823Y-31750D02*
X63823Y-32250D01*
X60654Y-35252D02*
X62819Y-35252D01*
X60654Y-35252D02*
X60654Y-31748D01*
X60654Y-31748D02*
X62819Y-31748D01*
G54D32*
X73699Y-33893D02*
X74685Y-33893D01*
X78839Y-31160D02*
X79500Y-30500D01*
X77418Y-31160D02*
X78839Y-31160D01*
X74685Y-33893D02*
X77418Y-31160D01*
X72400Y-32200D02*
X72400Y-31810D01*
X72320Y-31420D02*
X72300Y-31400D01*
X72320Y-31730D02*
X72320Y-31420D01*
X72400Y-31810D02*
X72320Y-31730D01*
X72596Y-31626D02*
X72560Y-31590D01*
X72596Y-32200D02*
X72596Y-31626D01*
X73384Y-32200D02*
X73384Y-30615D01*
X73384Y-30615D02*
X73500Y-30500D01*
X72793Y-34799D02*
X72793Y-35293D01*
X73500Y-36000D02*
X73500Y-36500D01*
X72793Y-35293D02*
X73500Y-36000D01*
X73699Y-32515D02*
X73934Y-32515D01*
X74500Y-31950D02*
X74500Y-30500D01*
X73934Y-32515D02*
X74500Y-31950D01*
X72596Y-34799D02*
X72596Y-35346D01*
X72750Y-36250D02*
X72500Y-36500D01*
X72750Y-35500D02*
X72750Y-36250D01*
X72596Y-35346D02*
X72750Y-35500D01*
X72990Y-34799D02*
X72990Y-35264D01*
X74226Y-36500D02*
X74500Y-36500D01*
X72990Y-35264D02*
X74226Y-36500D01*
X73699Y-32712D02*
X73963Y-32712D01*
X75500Y-31176D02*
X75500Y-30500D01*
X73963Y-32712D02*
X75500Y-31176D01*
X73699Y-34090D02*
X74043Y-34090D01*
X78459Y-35459D02*
X79500Y-36500D01*
X75412Y-35459D02*
X78459Y-35459D01*
X74043Y-34090D02*
X75412Y-35459D01*
X73699Y-34287D02*
X74013Y-34287D01*
X77619Y-35619D02*
X78500Y-36500D01*
X75346Y-35619D02*
X77619Y-35619D01*
X74013Y-34287D02*
X75346Y-35619D01*
X73699Y-34484D02*
X73984Y-34484D01*
X76779Y-35779D02*
X77500Y-36500D01*
X75279Y-35779D02*
X76779Y-35779D01*
X73984Y-34484D02*
X75279Y-35779D01*
X72793Y-32200D02*
X72793Y-31291D01*
X70900Y-30900D02*
X70500Y-30500D01*
X72123Y-30900D02*
X70900Y-30900D01*
X72283Y-31060D02*
X72123Y-30900D01*
X72562Y-31060D02*
X72283Y-31060D01*
X72793Y-31291D02*
X72562Y-31060D01*
X73384Y-34799D02*
X73384Y-35205D01*
X75939Y-35939D02*
X76500Y-36500D01*
X74118Y-35939D02*
X75939Y-35939D01*
X73384Y-35205D02*
X74118Y-35939D01*
X72990Y-32200D02*
X72990Y-31261D01*
X71950Y-30500D02*
X71500Y-30500D01*
X72350Y-30900D02*
X71950Y-30500D01*
X72628Y-30900D02*
X72350Y-30900D01*
X72990Y-31261D02*
X72628Y-30900D01*
X73187Y-34799D02*
X73187Y-35234D01*
X75100Y-36100D02*
X75500Y-36500D01*
X74052Y-36100D02*
X75100Y-36100D01*
X73187Y-35234D02*
X74052Y-36100D01*
X73187Y-32200D02*
X73187Y-31232D01*
X72500Y-30544D02*
X72500Y-30500D01*
X73187Y-31232D02*
X72500Y-30544D01*
X71809Y-32200D02*
X71809Y-31903D01*
X70600Y-31611D02*
X70048Y-31060D01*
X70048Y-31060D02*
X68060Y-31060D01*
X68060Y-31060D02*
X67500Y-30500D01*
X70718Y-31729D02*
X70600Y-31611D01*
X71636Y-31729D02*
X70718Y-31729D01*
X71809Y-31903D02*
X71636Y-31729D01*
X71100Y-32909D02*
X70766Y-32909D01*
X63000Y-31000D02*
X62500Y-30500D01*
X63750Y-31000D02*
X63000Y-31000D01*
X63970Y-31220D02*
X63750Y-31000D01*
X65541Y-31220D02*
X63970Y-31220D01*
X66181Y-31860D02*
X65541Y-31220D01*
X69717Y-31860D02*
X66181Y-31860D01*
X70766Y-32909D02*
X69717Y-31860D01*
X71100Y-32712D02*
X70796Y-32712D01*
X64060Y-31060D02*
X63500Y-30500D01*
X65607Y-31060D02*
X64060Y-31060D01*
X66247Y-31700D02*
X65607Y-31060D01*
X69783Y-31700D02*
X66247Y-31700D01*
X70796Y-32712D02*
X69783Y-31700D01*
X74600Y-34200D02*
X74605Y-34200D01*
X71415Y-34799D02*
X71299Y-34799D01*
X71299Y-34799D02*
X71250Y-34750D01*
X76305Y-32500D02*
X78500Y-32500D01*
X74605Y-34200D02*
X76305Y-32500D01*
X74800Y-34450D02*
X75000Y-34250D01*
X78000Y-34000D02*
X78500Y-34500D01*
X78000Y-32850D02*
X78000Y-34000D01*
X77810Y-32660D02*
X78000Y-32850D01*
X76371Y-32660D02*
X77810Y-32660D01*
X75000Y-34031D02*
X76371Y-32660D01*
X75000Y-34250D02*
X75000Y-34031D01*
X71612Y-35087D02*
X71500Y-35200D01*
X71500Y-35200D02*
X71250Y-35200D01*
X71250Y-35200D02*
X71000Y-34950D01*
X71612Y-34799D02*
X71612Y-35087D01*
X65000Y-36000D02*
X64500Y-36500D01*
X65773Y-36000D02*
X65000Y-36000D01*
X66043Y-35729D02*
X65773Y-36000D01*
X67591Y-35729D02*
X66043Y-35729D01*
X67859Y-35461D02*
X67591Y-35729D01*
X67859Y-34490D02*
X67859Y-35461D01*
X68050Y-34300D02*
X67859Y-34490D01*
G54D31*
X62858Y-32870D02*
X62230Y-32870D01*
X61000Y-33600D02*
X61000Y-34250D01*
X61500Y-33100D02*
X61000Y-33600D01*
X62000Y-33100D02*
X61500Y-33100D01*
X62230Y-32870D02*
X62000Y-33100D01*
X62858Y-32870D02*
X62380Y-32870D01*
X64250Y-34500D02*
X64677Y-34500D01*
X64927Y-35500D02*
X64927Y-34749D01*
X64927Y-34749D02*
X64677Y-34500D01*
X63530Y-32870D02*
X63650Y-32750D01*
G54D32*
X63747Y-33303D02*
X63650Y-33400D01*
G54D31*
X63530Y-32870D02*
X62858Y-32870D01*
G54D32*
X64024Y-33303D02*
X63747Y-33303D01*
G54D31*
X71400Y-31300D02*
X71623Y-31300D01*
X71275Y-31425D02*
X71400Y-31300D01*
G54D32*
X72006Y-32200D02*
X72006Y-31806D01*
X71623Y-31423D02*
X71623Y-31300D01*
X72006Y-31806D02*
X71623Y-31423D01*
G54D31*
X77550Y-33750D02*
X77550Y-33450D01*
X77550Y-33450D02*
X77200Y-33100D01*
X77223Y-33077D02*
X77700Y-33077D01*
X77200Y-33100D02*
X77223Y-33077D01*
X74900Y-32300D02*
X74900Y-32100D01*
X74900Y-32100D02*
X75700Y-31300D01*
X75700Y-31300D02*
X75900Y-31300D01*
X74400Y-32673D02*
X74400Y-32573D01*
X74400Y-32573D02*
X74673Y-32300D01*
X74673Y-32300D02*
X74900Y-32300D01*
G54D32*
X70310Y-34247D02*
X69547Y-34247D01*
X69547Y-34247D02*
X69400Y-34100D01*
G54D31*
X65000Y-32250D02*
X65250Y-32500D01*
X65250Y-32500D02*
X69250Y-32500D01*
G54D32*
X70436Y-34090D02*
X70327Y-34200D01*
X73699Y-32909D02*
X73993Y-32909D01*
X74229Y-32673D02*
X74400Y-32673D01*
X73993Y-32909D02*
X74229Y-32673D01*
X71100Y-34090D02*
X70436Y-34090D01*
G54D31*
X63823Y-35500D02*
X63823Y-35677D01*
X62000Y-36000D02*
X61500Y-36500D01*
X63500Y-36000D02*
X62000Y-36000D01*
X63823Y-35677D02*
X63500Y-36000D01*
X63811Y-34893D02*
X63811Y-35488D01*
X63811Y-35488D02*
X63823Y-35500D01*
G54D32*
X70800Y-36073D02*
X70456Y-36073D01*
X70456Y-36073D02*
X70279Y-36250D01*
X72006Y-34799D02*
X72006Y-35193D01*
X71127Y-36073D02*
X70800Y-36073D01*
X72006Y-35193D02*
X71127Y-36073D01*
X69150Y-35223D02*
X69489Y-35223D01*
X69489Y-35223D02*
X69650Y-35383D01*
X71809Y-34799D02*
X71809Y-35140D01*
X69650Y-35650D02*
X69650Y-35383D01*
X69800Y-35800D02*
X69650Y-35650D01*
X71150Y-35800D02*
X69800Y-35800D01*
X71809Y-35140D02*
X71150Y-35800D01*
G54D10*
G36*
X68883Y-33640D02*
X68255Y-34268D01*
X68255Y-34259D01*
X68223Y-34184D01*
X68166Y-34126D01*
X68090Y-34095D01*
X68009Y-34094D01*
X67934Y-34126D01*
X67876Y-34183D01*
X67845Y-34259D01*
X67844Y-34307D01*
X67761Y-34391D01*
X67730Y-34436D01*
X67719Y-34490D01*
X67719Y-35403D01*
X67533Y-35589D01*
X66043Y-35589D01*
X65990Y-35600D01*
X65944Y-35631D01*
X65715Y-35860D01*
X65000Y-35860D01*
X64946Y-35870D01*
X64901Y-35901D01*
X64802Y-36000D01*
X63768Y-36000D01*
X63957Y-35811D01*
X63998Y-35749D01*
X64013Y-35677D01*
X64013Y-35500D01*
X64001Y-35439D01*
X64001Y-35141D01*
X64006Y-35141D01*
X64039Y-35127D01*
X64064Y-35102D01*
X64078Y-35069D01*
X64078Y-35033D01*
X64078Y-34718D01*
X64067Y-34692D01*
X64099Y-34724D01*
X64197Y-34764D01*
X64302Y-34765D01*
X64399Y-34724D01*
X64421Y-34703D01*
X64423Y-34708D01*
X64448Y-34733D01*
X64482Y-34747D01*
X64517Y-34747D01*
X64655Y-34747D01*
X64737Y-34828D01*
X64737Y-35500D01*
X64751Y-35572D01*
X64758Y-35583D01*
X64758Y-35635D01*
X64772Y-35668D01*
X64797Y-35694D01*
X64830Y-35707D01*
X64866Y-35708D01*
X65023Y-35708D01*
X65056Y-35694D01*
X65081Y-35669D01*
X65095Y-35635D01*
X65095Y-35600D01*
X65095Y-35583D01*
X65102Y-35572D01*
X65117Y-35500D01*
X65117Y-34749D01*
X65102Y-34677D01*
X65061Y-34615D01*
X65061Y-34615D01*
X64944Y-34498D01*
X64944Y-34324D01*
X64930Y-34291D01*
X64905Y-34266D01*
X64872Y-34252D01*
X64836Y-34252D01*
X64482Y-34252D01*
X64449Y-34266D01*
X64423Y-34291D01*
X64421Y-34296D01*
X64400Y-34275D01*
X64302Y-34235D01*
X64197Y-34234D01*
X64100Y-34275D01*
X64025Y-34349D01*
X63985Y-34447D01*
X63984Y-34552D01*
X64025Y-34649D01*
X64032Y-34657D01*
X64006Y-34646D01*
X63970Y-34646D01*
X63616Y-34646D01*
X63582Y-34659D01*
X63557Y-34685D01*
X63543Y-34718D01*
X63543Y-34754D01*
X63543Y-35069D01*
X63557Y-35102D01*
X63582Y-35127D01*
X63615Y-35141D01*
X63621Y-35141D01*
X63621Y-35488D01*
X63633Y-35548D01*
X63633Y-35598D01*
X63421Y-35810D01*
X62000Y-35810D01*
X61927Y-35824D01*
X61865Y-35865D01*
X61731Y-36000D01*
X60109Y-36000D01*
X60109Y-35720D01*
X60110Y-35721D01*
X60144Y-35735D01*
X60179Y-35735D01*
X61163Y-35735D01*
X61196Y-35721D01*
X61222Y-35696D01*
X61235Y-35663D01*
X61236Y-35627D01*
X61236Y-35442D01*
X62236Y-35442D01*
X62236Y-35663D01*
X62250Y-35696D01*
X62275Y-35721D01*
X62309Y-35735D01*
X62344Y-35735D01*
X63328Y-35735D01*
X63361Y-35721D01*
X63387Y-35696D01*
X63400Y-35663D01*
X63401Y-35627D01*
X63401Y-34840D01*
X63387Y-34807D01*
X63362Y-34782D01*
X63328Y-34768D01*
X63293Y-34768D01*
X62309Y-34768D01*
X62276Y-34782D01*
X62250Y-34807D01*
X62237Y-34840D01*
X62236Y-34876D01*
X62236Y-35062D01*
X62102Y-35062D01*
X62102Y-34313D01*
X62061Y-34214D01*
X61986Y-34139D01*
X61888Y-34099D01*
X61782Y-34098D01*
X61683Y-34139D01*
X61608Y-34214D01*
X61568Y-34312D01*
X61567Y-34418D01*
X61608Y-34517D01*
X61683Y-34592D01*
X61781Y-34632D01*
X61887Y-34633D01*
X61986Y-34592D01*
X62061Y-34517D01*
X62101Y-34419D01*
X62102Y-34313D01*
X62102Y-35062D01*
X61236Y-35062D01*
X61236Y-34840D01*
X61222Y-34807D01*
X61197Y-34782D01*
X61163Y-34768D01*
X61128Y-34768D01*
X60844Y-34768D01*
X60844Y-34468D01*
X60849Y-34474D01*
X60947Y-34514D01*
X61052Y-34515D01*
X61149Y-34474D01*
X61224Y-34400D01*
X61264Y-34302D01*
X61265Y-34197D01*
X61224Y-34100D01*
X61190Y-34065D01*
X61190Y-33678D01*
X61195Y-33673D01*
X61194Y-33740D01*
X61226Y-33815D01*
X61283Y-33873D01*
X61359Y-33904D01*
X61440Y-33905D01*
X61515Y-33873D01*
X61549Y-33840D01*
X61800Y-33840D01*
X61853Y-33829D01*
X61853Y-33829D01*
X61898Y-33798D01*
X62057Y-33640D01*
X62324Y-33640D01*
X62328Y-33649D01*
X62336Y-33657D01*
X62328Y-33665D01*
X62315Y-33698D01*
X62314Y-33734D01*
X62314Y-33931D01*
X62328Y-33964D01*
X62353Y-33989D01*
X62387Y-34003D01*
X62422Y-34003D01*
X63328Y-34003D01*
X63361Y-33989D01*
X63387Y-33964D01*
X63400Y-33931D01*
X63401Y-33895D01*
X63401Y-33798D01*
X63443Y-33826D01*
X63443Y-33826D01*
X63497Y-33837D01*
X63874Y-33837D01*
X63895Y-33837D01*
X63917Y-33845D01*
X63953Y-33846D01*
X64130Y-33846D01*
X64152Y-33837D01*
X64203Y-33837D01*
X64256Y-33826D01*
X64256Y-33826D01*
X64301Y-33795D01*
X64397Y-33700D01*
X64397Y-33773D01*
X64411Y-33806D01*
X64436Y-33832D01*
X64469Y-33845D01*
X64505Y-33846D01*
X64682Y-33846D01*
X64715Y-33832D01*
X64740Y-33807D01*
X64754Y-33773D01*
X64754Y-33738D01*
X64754Y-33640D01*
X68883Y-33640D01*
X68883Y-33640D01*
G37*
G54D33*
X68883Y-33640D02*
X68255Y-34268D01*
X68255Y-34259D01*
X68223Y-34184D01*
X68166Y-34126D01*
X68090Y-34095D01*
X68009Y-34094D01*
X67934Y-34126D01*
X67876Y-34183D01*
X67845Y-34259D01*
X67844Y-34307D01*
X67761Y-34391D01*
X67730Y-34436D01*
X67719Y-34490D01*
X67719Y-35403D01*
X67533Y-35589D01*
X66043Y-35589D01*
X65990Y-35600D01*
X65944Y-35631D01*
X65715Y-35860D01*
X65000Y-35860D01*
X64946Y-35870D01*
X64901Y-35901D01*
X64802Y-36000D01*
X63768Y-36000D01*
X63957Y-35811D01*
X63998Y-35749D01*
X64013Y-35677D01*
X64013Y-35500D01*
X64001Y-35439D01*
X64001Y-35141D01*
X64006Y-35141D01*
X64039Y-35127D01*
X64064Y-35102D01*
X64078Y-35069D01*
X64078Y-35033D01*
X64078Y-34718D01*
X64067Y-34692D01*
X64099Y-34724D01*
X64197Y-34764D01*
X64302Y-34765D01*
X64399Y-34724D01*
X64421Y-34703D01*
X64423Y-34708D01*
X64448Y-34733D01*
X64482Y-34747D01*
X64517Y-34747D01*
X64655Y-34747D01*
X64737Y-34828D01*
X64737Y-35500D01*
X64751Y-35572D01*
X64758Y-35583D01*
X64758Y-35635D01*
X64772Y-35668D01*
X64797Y-35694D01*
X64830Y-35707D01*
X64866Y-35708D01*
X65023Y-35708D01*
X65056Y-35694D01*
X65081Y-35669D01*
X65095Y-35635D01*
X65095Y-35600D01*
X65095Y-35583D01*
X65102Y-35572D01*
X65117Y-35500D01*
X65117Y-34749D01*
X65102Y-34677D01*
X65061Y-34615D01*
X65061Y-34615D01*
X64944Y-34498D01*
X64944Y-34324D01*
X64930Y-34291D01*
X64905Y-34266D01*
X64872Y-34252D01*
X64836Y-34252D01*
X64482Y-34252D01*
X64449Y-34266D01*
X64423Y-34291D01*
X64421Y-34296D01*
X64400Y-34275D01*
X64302Y-34235D01*
X64197Y-34234D01*
X64100Y-34275D01*
X64025Y-34349D01*
X63985Y-34447D01*
X63984Y-34552D01*
X64025Y-34649D01*
X64032Y-34657D01*
X64006Y-34646D01*
X63970Y-34646D01*
X63616Y-34646D01*
X63582Y-34659D01*
X63557Y-34685D01*
X63543Y-34718D01*
X63543Y-34754D01*
X63543Y-35069D01*
X63557Y-35102D01*
X63582Y-35127D01*
X63615Y-35141D01*
X63621Y-35141D01*
X63621Y-35488D01*
X63633Y-35548D01*
X63633Y-35598D01*
X63421Y-35810D01*
X62000Y-35810D01*
X61927Y-35824D01*
X61865Y-35865D01*
X61731Y-36000D01*
X60109Y-36000D01*
X60109Y-35720D01*
X60110Y-35721D01*
X60144Y-35735D01*
X60179Y-35735D01*
X61163Y-35735D01*
X61196Y-35721D01*
X61222Y-35696D01*
X61235Y-35663D01*
X61236Y-35627D01*
X61236Y-35442D01*
X62236Y-35442D01*
X62236Y-35663D01*
X62250Y-35696D01*
X62275Y-35721D01*
X62309Y-35735D01*
X62344Y-35735D01*
X63328Y-35735D01*
X63361Y-35721D01*
X63387Y-35696D01*
X63400Y-35663D01*
X63401Y-35627D01*
X63401Y-34840D01*
X63387Y-34807D01*
X63362Y-34782D01*
X63328Y-34768D01*
X63293Y-34768D01*
X62309Y-34768D01*
X62276Y-34782D01*
X62250Y-34807D01*
X62237Y-34840D01*
X62236Y-34876D01*
X62236Y-35062D01*
X62102Y-35062D01*
X62102Y-34313D01*
X62061Y-34214D01*
X61986Y-34139D01*
X61888Y-34099D01*
X61782Y-34098D01*
X61683Y-34139D01*
X61608Y-34214D01*
X61568Y-34312D01*
X61567Y-34418D01*
X61608Y-34517D01*
X61683Y-34592D01*
X61781Y-34632D01*
X61887Y-34633D01*
X61986Y-34592D01*
X62061Y-34517D01*
X62101Y-34419D01*
X62102Y-34313D01*
X62102Y-35062D01*
X61236Y-35062D01*
X61236Y-34840D01*
X61222Y-34807D01*
X61197Y-34782D01*
X61163Y-34768D01*
X61128Y-34768D01*
X60844Y-34768D01*
X60844Y-34468D01*
X60849Y-34474D01*
X60947Y-34514D01*
X61052Y-34515D01*
X61149Y-34474D01*
X61224Y-34400D01*
X61264Y-34302D01*
X61265Y-34197D01*
X61224Y-34100D01*
X61190Y-34065D01*
X61190Y-33678D01*
X61195Y-33673D01*
X61194Y-33740D01*
X61226Y-33815D01*
X61283Y-33873D01*
X61359Y-33904D01*
X61440Y-33905D01*
X61515Y-33873D01*
X61549Y-33840D01*
X61800Y-33840D01*
X61853Y-33829D01*
X61853Y-33829D01*
X61898Y-33798D01*
X62057Y-33640D01*
X62324Y-33640D01*
X62328Y-33649D01*
X62336Y-33657D01*
X62328Y-33665D01*
X62315Y-33698D01*
X62314Y-33734D01*
X62314Y-33931D01*
X62328Y-33964D01*
X62353Y-33989D01*
X62387Y-34003D01*
X62422Y-34003D01*
X63328Y-34003D01*
X63361Y-33989D01*
X63387Y-33964D01*
X63400Y-33931D01*
X63401Y-33895D01*
X63401Y-33798D01*
X63443Y-33826D01*
X63443Y-33826D01*
X63497Y-33837D01*
X63874Y-33837D01*
X63895Y-33837D01*
X63917Y-33845D01*
X63953Y-33846D01*
X64130Y-33846D01*
X64152Y-33837D01*
X64203Y-33837D01*
X64256Y-33826D01*
X64256Y-33826D01*
X64301Y-33795D01*
X64397Y-33700D01*
X64397Y-33773D01*
X64411Y-33806D01*
X64436Y-33832D01*
X64469Y-33845D01*
X64505Y-33846D01*
X64682Y-33846D01*
X64715Y-33832D01*
X64740Y-33807D01*
X64754Y-33773D01*
X64754Y-33738D01*
X64754Y-33640D01*
X68883Y-33640D01*
G54D10*
G36*
X75102Y-35799D02*
X74176Y-35799D01*
X73524Y-35147D01*
X73524Y-35046D01*
X73532Y-35038D01*
X73549Y-34998D01*
X73549Y-34954D01*
X73549Y-34649D01*
X73898Y-34649D01*
X73935Y-34633D01*
X75102Y-35799D01*
X75102Y-35799D01*
G37*
G54D33*
X75102Y-35799D02*
X74176Y-35799D01*
X73524Y-35147D01*
X73524Y-35046D01*
X73532Y-35038D01*
X73549Y-34998D01*
X73549Y-34954D01*
X73549Y-34649D01*
X73898Y-34649D01*
X73935Y-34633D01*
X75102Y-35799D01*
G54D10*
G36*
X79890Y-36890D02*
X79890Y-36890D01*
X79890Y-33422D01*
X79890Y-32422D01*
X79830Y-32279D01*
X79721Y-32169D01*
X79577Y-32110D01*
X79422Y-32109D01*
X79279Y-32169D01*
X79169Y-32278D01*
X79110Y-32422D01*
X79109Y-32577D01*
X79169Y-32720D01*
X79278Y-32830D01*
X79422Y-32889D01*
X79577Y-32890D01*
X79720Y-32830D01*
X79830Y-32721D01*
X79889Y-32577D01*
X79890Y-32422D01*
X79890Y-33422D01*
X79830Y-33279D01*
X79721Y-33169D01*
X79577Y-33110D01*
X79422Y-33109D01*
X79279Y-33169D01*
X79169Y-33278D01*
X79110Y-33422D01*
X79109Y-33577D01*
X79169Y-33720D01*
X79278Y-33830D01*
X79422Y-33889D01*
X79577Y-33890D01*
X79720Y-33830D01*
X79830Y-33721D01*
X79889Y-33577D01*
X79890Y-33422D01*
X79890Y-36890D01*
X79865Y-36890D01*
X79865Y-36427D01*
X79809Y-36293D01*
X79707Y-36190D01*
X79572Y-36135D01*
X79427Y-36134D01*
X79360Y-36162D01*
X78558Y-35361D01*
X78513Y-35330D01*
X78459Y-35319D01*
X77165Y-35319D01*
X77165Y-33957D01*
X77165Y-33507D01*
X77151Y-33474D01*
X77126Y-33448D01*
X77092Y-33435D01*
X77057Y-33434D01*
X76807Y-33434D01*
X76774Y-33448D01*
X76748Y-33473D01*
X76735Y-33507D01*
X76734Y-33542D01*
X76734Y-33696D01*
X76590Y-33840D01*
X76549Y-33902D01*
X76535Y-33975D01*
X76535Y-34134D01*
X76532Y-34134D01*
X76499Y-34148D01*
X76473Y-34173D01*
X76460Y-34207D01*
X76459Y-34242D01*
X76459Y-34310D01*
X76384Y-34310D01*
X76350Y-34275D01*
X76252Y-34235D01*
X76147Y-34234D01*
X76050Y-34275D01*
X75975Y-34349D01*
X75935Y-34447D01*
X75934Y-34552D01*
X75975Y-34649D01*
X76049Y-34724D01*
X76147Y-34764D01*
X76252Y-34765D01*
X76349Y-34724D01*
X76384Y-34690D01*
X76459Y-34690D01*
X76459Y-34792D01*
X76473Y-34825D01*
X76498Y-34851D01*
X76532Y-34864D01*
X76567Y-34865D01*
X76917Y-34865D01*
X76950Y-34851D01*
X76976Y-34826D01*
X76989Y-34792D01*
X76990Y-34757D01*
X76990Y-34207D01*
X76976Y-34174D01*
X76951Y-34148D01*
X76917Y-34135D01*
X76915Y-34135D01*
X76915Y-34065D01*
X77092Y-34065D01*
X77125Y-34051D01*
X77151Y-34026D01*
X77164Y-33992D01*
X77165Y-33957D01*
X77165Y-35319D01*
X75470Y-35319D01*
X74805Y-34655D01*
X74840Y-34655D01*
X74915Y-34623D01*
X74973Y-34566D01*
X75004Y-34490D01*
X75005Y-34442D01*
X75098Y-34348D01*
X75098Y-34348D01*
X75119Y-34318D01*
X75129Y-34303D01*
X75129Y-34303D01*
X75139Y-34250D01*
X75140Y-34250D01*
X75140Y-34089D01*
X76429Y-32800D01*
X77491Y-32800D01*
X77491Y-32819D01*
X77505Y-32852D01*
X77530Y-32877D01*
X77553Y-32887D01*
X77361Y-32887D01*
X77350Y-32875D01*
X77252Y-32835D01*
X77147Y-32834D01*
X77050Y-32875D01*
X76975Y-32949D01*
X76935Y-33047D01*
X76934Y-33152D01*
X76975Y-33249D01*
X77049Y-33324D01*
X77147Y-33364D01*
X77196Y-33364D01*
X77335Y-33504D01*
X77335Y-33507D01*
X77334Y-33542D01*
X77334Y-33992D01*
X77348Y-34025D01*
X77373Y-34051D01*
X77407Y-34064D01*
X77442Y-34065D01*
X77692Y-34065D01*
X77725Y-34051D01*
X77751Y-34026D01*
X77764Y-33992D01*
X77765Y-33957D01*
X77765Y-33507D01*
X77751Y-33474D01*
X77740Y-33462D01*
X77740Y-33450D01*
X77739Y-33449D01*
X77740Y-33449D01*
X77737Y-33437D01*
X77725Y-33377D01*
X77684Y-33315D01*
X77684Y-33315D01*
X77635Y-33267D01*
X77700Y-33267D01*
X77772Y-33252D01*
X77783Y-33245D01*
X77835Y-33245D01*
X77860Y-33235D01*
X77860Y-34000D01*
X77870Y-34053D01*
X77901Y-34098D01*
X78143Y-34341D01*
X78110Y-34422D01*
X78109Y-34577D01*
X78169Y-34720D01*
X78278Y-34830D01*
X78422Y-34889D01*
X78577Y-34890D01*
X78720Y-34830D01*
X78830Y-34721D01*
X78889Y-34577D01*
X78890Y-34422D01*
X78830Y-34279D01*
X78721Y-34169D01*
X78577Y-34110D01*
X78422Y-34109D01*
X78341Y-34143D01*
X78140Y-33942D01*
X78140Y-33650D01*
X78169Y-33720D01*
X78278Y-33830D01*
X78422Y-33889D01*
X78577Y-33890D01*
X78720Y-33830D01*
X78830Y-33721D01*
X78889Y-33577D01*
X78890Y-33422D01*
X78830Y-33279D01*
X78721Y-33169D01*
X78577Y-33110D01*
X78422Y-33109D01*
X78279Y-33169D01*
X78169Y-33278D01*
X78140Y-33349D01*
X78140Y-32867D01*
X78148Y-32876D01*
X78182Y-32889D01*
X78217Y-32890D01*
X78817Y-32890D01*
X78850Y-32876D01*
X78876Y-32851D01*
X78889Y-32817D01*
X78890Y-32782D01*
X78890Y-32182D01*
X78876Y-32149D01*
X78851Y-32123D01*
X78817Y-32110D01*
X78782Y-32109D01*
X78182Y-32109D01*
X78149Y-32123D01*
X78123Y-32148D01*
X78110Y-32182D01*
X78109Y-32217D01*
X78109Y-32360D01*
X76416Y-32360D01*
X77476Y-31300D01*
X78839Y-31300D01*
X78893Y-31289D01*
X78893Y-31289D01*
X78938Y-31258D01*
X79332Y-30865D01*
X79792Y-30865D01*
X79825Y-30851D01*
X79851Y-30826D01*
X79864Y-30792D01*
X79865Y-30757D01*
X79865Y-30207D01*
X79851Y-30174D01*
X79826Y-30148D01*
X79792Y-30135D01*
X79757Y-30134D01*
X79207Y-30134D01*
X79174Y-30148D01*
X79148Y-30173D01*
X79135Y-30207D01*
X79134Y-30242D01*
X79134Y-30667D01*
X78782Y-31020D01*
X78177Y-31020D01*
X78360Y-30837D01*
X78427Y-30864D01*
X78572Y-30865D01*
X78706Y-30809D01*
X78809Y-30707D01*
X78864Y-30572D01*
X78865Y-30427D01*
X78809Y-30293D01*
X78707Y-30190D01*
X78572Y-30135D01*
X78427Y-30134D01*
X78293Y-30190D01*
X78190Y-30292D01*
X78135Y-30427D01*
X78134Y-30572D01*
X78162Y-30639D01*
X77942Y-30860D01*
X77584Y-30860D01*
X77706Y-30809D01*
X77809Y-30707D01*
X77864Y-30572D01*
X77865Y-30427D01*
X77809Y-30293D01*
X77707Y-30190D01*
X77572Y-30135D01*
X77427Y-30134D01*
X77293Y-30190D01*
X77190Y-30292D01*
X77135Y-30427D01*
X77134Y-30572D01*
X77190Y-30706D01*
X77206Y-30722D01*
X76640Y-31288D01*
X76640Y-30837D01*
X76706Y-30809D01*
X76809Y-30707D01*
X76864Y-30572D01*
X76865Y-30427D01*
X76809Y-30293D01*
X76707Y-30190D01*
X76572Y-30135D01*
X76427Y-30134D01*
X76293Y-30190D01*
X76190Y-30292D01*
X76135Y-30427D01*
X76134Y-30572D01*
X76190Y-30706D01*
X76292Y-30809D01*
X76360Y-30837D01*
X76360Y-31342D01*
X76165Y-31536D01*
X76165Y-31247D01*
X76124Y-31150D01*
X76050Y-31075D01*
X75952Y-31035D01*
X75847Y-31034D01*
X75750Y-31075D01*
X75715Y-31110D01*
X75700Y-31110D01*
X75699Y-31110D01*
X75685Y-31112D01*
X75640Y-31121D01*
X75640Y-30865D01*
X75792Y-30865D01*
X75825Y-30851D01*
X75851Y-30826D01*
X75864Y-30792D01*
X75865Y-30757D01*
X75865Y-30207D01*
X75851Y-30174D01*
X75826Y-30148D01*
X75792Y-30135D01*
X75757Y-30134D01*
X75207Y-30134D01*
X75174Y-30148D01*
X75148Y-30173D01*
X75135Y-30207D01*
X75134Y-30242D01*
X75134Y-30792D01*
X75148Y-30825D01*
X75173Y-30851D01*
X75207Y-30864D01*
X75242Y-30865D01*
X75360Y-30865D01*
X75360Y-31118D01*
X74640Y-31838D01*
X74640Y-30837D01*
X74706Y-30809D01*
X74809Y-30707D01*
X74864Y-30572D01*
X74865Y-30427D01*
X74809Y-30293D01*
X74707Y-30190D01*
X74572Y-30135D01*
X74427Y-30134D01*
X74293Y-30190D01*
X74190Y-30292D01*
X74135Y-30427D01*
X74134Y-30572D01*
X74190Y-30706D01*
X74292Y-30809D01*
X74360Y-30837D01*
X74360Y-31892D01*
X73900Y-32351D01*
X73898Y-32350D01*
X73854Y-32350D01*
X73549Y-32350D01*
X73549Y-32001D01*
X73532Y-31961D01*
X73524Y-31953D01*
X73524Y-30865D01*
X73572Y-30865D01*
X73706Y-30809D01*
X73809Y-30707D01*
X73864Y-30572D01*
X73865Y-30427D01*
X73809Y-30293D01*
X73707Y-30190D01*
X73572Y-30135D01*
X73427Y-30134D01*
X73293Y-30190D01*
X73190Y-30292D01*
X73135Y-30427D01*
X73134Y-30572D01*
X73190Y-30706D01*
X73244Y-30760D01*
X73244Y-31091D01*
X72824Y-30671D01*
X72864Y-30572D01*
X72865Y-30427D01*
X72809Y-30293D01*
X72707Y-30190D01*
X72572Y-30135D01*
X72427Y-30134D01*
X72293Y-30190D01*
X72190Y-30292D01*
X72135Y-30427D01*
X72135Y-30487D01*
X72048Y-30401D01*
X72003Y-30370D01*
X71950Y-30360D01*
X71837Y-30360D01*
X71809Y-30293D01*
X71707Y-30190D01*
X71572Y-30135D01*
X71427Y-30134D01*
X71293Y-30190D01*
X71190Y-30292D01*
X71135Y-30427D01*
X71134Y-30572D01*
X71190Y-30706D01*
X71243Y-30760D01*
X70957Y-30760D01*
X70837Y-30639D01*
X70864Y-30572D01*
X70865Y-30427D01*
X70809Y-30293D01*
X70707Y-30190D01*
X70572Y-30135D01*
X70427Y-30134D01*
X70293Y-30190D01*
X70190Y-30292D01*
X70135Y-30427D01*
X70134Y-30572D01*
X70190Y-30706D01*
X70292Y-30809D01*
X70427Y-30864D01*
X70572Y-30865D01*
X70639Y-30837D01*
X70801Y-30998D01*
X70801Y-30998D01*
X70846Y-31029D01*
X70846Y-31029D01*
X70899Y-31039D01*
X70900Y-31040D01*
X72065Y-31040D01*
X72184Y-31158D01*
X72230Y-31189D01*
X72230Y-31189D01*
X72259Y-31195D01*
X72184Y-31226D01*
X72126Y-31283D01*
X72095Y-31359D01*
X72094Y-31440D01*
X72126Y-31515D01*
X72180Y-31569D01*
X72180Y-31730D01*
X72190Y-31783D01*
X72221Y-31828D01*
X72260Y-31867D01*
X72260Y-31953D01*
X72251Y-31961D01*
X72234Y-32001D01*
X72234Y-32045D01*
X72234Y-32399D01*
X72251Y-32440D01*
X72282Y-32471D01*
X72322Y-32487D01*
X72366Y-32488D01*
X72476Y-32488D01*
X72498Y-32479D01*
X72519Y-32487D01*
X72563Y-32488D01*
X72673Y-32488D01*
X72695Y-32479D01*
X72716Y-32487D01*
X72760Y-32488D01*
X72870Y-32488D01*
X72892Y-32479D01*
X72913Y-32487D01*
X72957Y-32488D01*
X73067Y-32488D01*
X73088Y-32479D01*
X73110Y-32487D01*
X73154Y-32488D01*
X73264Y-32488D01*
X73285Y-32479D01*
X73307Y-32487D01*
X73350Y-32488D01*
X73411Y-32488D01*
X73411Y-32592D01*
X73420Y-32614D01*
X73412Y-32635D01*
X73411Y-32679D01*
X73411Y-32789D01*
X73420Y-32811D01*
X73412Y-32832D01*
X73411Y-32876D01*
X73411Y-32986D01*
X73428Y-33026D01*
X73459Y-33057D01*
X73500Y-33074D01*
X73543Y-33074D01*
X73898Y-33074D01*
X73938Y-33057D01*
X73946Y-33049D01*
X73993Y-33049D01*
X74046Y-33038D01*
X74046Y-33038D01*
X74092Y-33008D01*
X74260Y-32840D01*
X74264Y-32841D01*
X74299Y-32841D01*
X74316Y-32841D01*
X74327Y-32848D01*
X74400Y-32863D01*
X74472Y-32848D01*
X74483Y-32841D01*
X74535Y-32841D01*
X74568Y-32827D01*
X74594Y-32802D01*
X74607Y-32769D01*
X74608Y-32733D01*
X74608Y-32633D01*
X74733Y-32508D01*
X74749Y-32524D01*
X74847Y-32564D01*
X74952Y-32565D01*
X75049Y-32524D01*
X75124Y-32450D01*
X75164Y-32352D01*
X75165Y-32247D01*
X75124Y-32150D01*
X75121Y-32146D01*
X75746Y-31521D01*
X75749Y-31524D01*
X75847Y-31564D01*
X75952Y-31565D01*
X76049Y-31524D01*
X76124Y-31450D01*
X76164Y-31352D01*
X76165Y-31247D01*
X76165Y-31536D01*
X74538Y-33163D01*
X73946Y-33163D01*
X73938Y-33154D01*
X73898Y-33138D01*
X73854Y-33138D01*
X73500Y-33138D01*
X73459Y-33154D01*
X73428Y-33185D01*
X73412Y-33226D01*
X73411Y-33269D01*
X73411Y-33380D01*
X73420Y-33401D01*
X73412Y-33422D01*
X73411Y-33466D01*
X73411Y-33576D01*
X73420Y-33598D01*
X73412Y-33619D01*
X73411Y-33663D01*
X73411Y-33773D01*
X73420Y-33795D01*
X73412Y-33816D01*
X73411Y-33860D01*
X73411Y-33970D01*
X73420Y-33992D01*
X73412Y-34013D01*
X73411Y-34057D01*
X73411Y-34167D01*
X73420Y-34188D01*
X73412Y-34210D01*
X73411Y-34254D01*
X73411Y-34364D01*
X73420Y-34385D01*
X73412Y-34407D01*
X73411Y-34450D01*
X73411Y-34511D01*
X73307Y-34511D01*
X73285Y-34520D01*
X73264Y-34512D01*
X73220Y-34511D01*
X73110Y-34511D01*
X73088Y-34520D01*
X73067Y-34512D01*
X73023Y-34511D01*
X72913Y-34511D01*
X72892Y-34520D01*
X72870Y-34512D01*
X72827Y-34511D01*
X72716Y-34511D01*
X72695Y-34520D01*
X72673Y-34512D01*
X72630Y-34511D01*
X72519Y-34511D01*
X72498Y-34520D01*
X72477Y-34512D01*
X72433Y-34511D01*
X72323Y-34511D01*
X72282Y-34528D01*
X72251Y-34559D01*
X72234Y-34600D01*
X72234Y-34643D01*
X72234Y-34998D01*
X72251Y-35038D01*
X72260Y-35046D01*
X72260Y-35573D01*
X72270Y-35626D01*
X72301Y-35671D01*
X72337Y-35707D01*
X72337Y-35794D01*
X72321Y-35810D01*
X72200Y-35810D01*
X72199Y-35810D01*
X72185Y-35812D01*
X72127Y-35824D01*
X72065Y-35865D01*
X72065Y-35865D01*
X71796Y-36134D01*
X71747Y-36134D01*
X71650Y-36175D01*
X71575Y-36249D01*
X71535Y-36347D01*
X71534Y-36452D01*
X71575Y-36549D01*
X71649Y-36624D01*
X71747Y-36664D01*
X71852Y-36665D01*
X71949Y-36624D01*
X72024Y-36550D01*
X72064Y-36452D01*
X72064Y-36403D01*
X72134Y-36333D01*
X72134Y-36792D01*
X72148Y-36825D01*
X72173Y-36851D01*
X72207Y-36864D01*
X72242Y-36865D01*
X72792Y-36865D01*
X72825Y-36851D01*
X72851Y-36826D01*
X72864Y-36792D01*
X72865Y-36757D01*
X72865Y-36325D01*
X72869Y-36318D01*
X72879Y-36303D01*
X72879Y-36303D01*
X72889Y-36250D01*
X72890Y-36250D01*
X72890Y-35587D01*
X73360Y-36057D01*
X73360Y-36162D01*
X73293Y-36190D01*
X73190Y-36292D01*
X73135Y-36427D01*
X73134Y-36572D01*
X73190Y-36706D01*
X73292Y-36809D01*
X73427Y-36864D01*
X73572Y-36865D01*
X73706Y-36809D01*
X73809Y-36707D01*
X73864Y-36572D01*
X73865Y-36427D01*
X73809Y-36293D01*
X73707Y-36190D01*
X73640Y-36162D01*
X73640Y-36111D01*
X74127Y-36598D01*
X74127Y-36598D01*
X74153Y-36616D01*
X74190Y-36706D01*
X74292Y-36809D01*
X74427Y-36864D01*
X74572Y-36865D01*
X74706Y-36809D01*
X74809Y-36707D01*
X74864Y-36572D01*
X74865Y-36427D01*
X74809Y-36293D01*
X74756Y-36240D01*
X75042Y-36240D01*
X75162Y-36360D01*
X75135Y-36427D01*
X75134Y-36572D01*
X75190Y-36706D01*
X75292Y-36809D01*
X75427Y-36864D01*
X75572Y-36865D01*
X75706Y-36809D01*
X75809Y-36707D01*
X75864Y-36572D01*
X75865Y-36427D01*
X75809Y-36293D01*
X75707Y-36190D01*
X75572Y-36135D01*
X75427Y-36134D01*
X75360Y-36162D01*
X75277Y-36079D01*
X75882Y-36079D01*
X76162Y-36360D01*
X76135Y-36427D01*
X76134Y-36572D01*
X76190Y-36706D01*
X76292Y-36809D01*
X76427Y-36864D01*
X76572Y-36865D01*
X76706Y-36809D01*
X76809Y-36707D01*
X76864Y-36572D01*
X76865Y-36427D01*
X76809Y-36293D01*
X76707Y-36190D01*
X76572Y-36135D01*
X76427Y-36134D01*
X76360Y-36162D01*
X76117Y-35919D01*
X76722Y-35919D01*
X77162Y-36360D01*
X77135Y-36427D01*
X77134Y-36572D01*
X77190Y-36706D01*
X77292Y-36809D01*
X77427Y-36864D01*
X77572Y-36865D01*
X77706Y-36809D01*
X77809Y-36707D01*
X77864Y-36572D01*
X77865Y-36427D01*
X77809Y-36293D01*
X77707Y-36190D01*
X77572Y-36135D01*
X77427Y-36134D01*
X77360Y-36162D01*
X76957Y-35759D01*
X77562Y-35759D01*
X78162Y-36360D01*
X78135Y-36427D01*
X78134Y-36572D01*
X78190Y-36706D01*
X78292Y-36809D01*
X78427Y-36864D01*
X78572Y-36865D01*
X78706Y-36809D01*
X78809Y-36707D01*
X78864Y-36572D01*
X78865Y-36427D01*
X78809Y-36293D01*
X78707Y-36190D01*
X78572Y-36135D01*
X78427Y-36134D01*
X78360Y-36162D01*
X77797Y-35599D01*
X78402Y-35599D01*
X79162Y-36360D01*
X79135Y-36427D01*
X79134Y-36572D01*
X79190Y-36706D01*
X79292Y-36809D01*
X79427Y-36864D01*
X79572Y-36865D01*
X79706Y-36809D01*
X79809Y-36707D01*
X79864Y-36572D01*
X79865Y-36427D01*
X79865Y-36890D01*
X65000Y-36890D01*
X65000Y-36197D01*
X65057Y-36140D01*
X65195Y-36140D01*
X65174Y-36148D01*
X65148Y-36173D01*
X65135Y-36207D01*
X65134Y-36242D01*
X65134Y-36792D01*
X65148Y-36825D01*
X65173Y-36851D01*
X65207Y-36864D01*
X65242Y-36865D01*
X65792Y-36865D01*
X65825Y-36851D01*
X65851Y-36826D01*
X65864Y-36792D01*
X65865Y-36757D01*
X65865Y-36332D01*
X66167Y-36029D01*
X66772Y-36029D01*
X66639Y-36162D01*
X66572Y-36135D01*
X66427Y-36134D01*
X66293Y-36190D01*
X66190Y-36292D01*
X66135Y-36427D01*
X66134Y-36572D01*
X66190Y-36706D01*
X66292Y-36809D01*
X66427Y-36864D01*
X66572Y-36865D01*
X66706Y-36809D01*
X66809Y-36707D01*
X66864Y-36572D01*
X66865Y-36427D01*
X66837Y-36360D01*
X67007Y-36190D01*
X67294Y-36190D01*
X67293Y-36190D01*
X67190Y-36292D01*
X67135Y-36427D01*
X67134Y-36572D01*
X67190Y-36706D01*
X67292Y-36809D01*
X67427Y-36864D01*
X67572Y-36865D01*
X67706Y-36809D01*
X67809Y-36707D01*
X67864Y-36572D01*
X67865Y-36427D01*
X67837Y-36360D01*
X68360Y-35837D01*
X68360Y-36162D01*
X68293Y-36190D01*
X68190Y-36292D01*
X68135Y-36427D01*
X68134Y-36572D01*
X68190Y-36706D01*
X68292Y-36809D01*
X68427Y-36864D01*
X68572Y-36865D01*
X68706Y-36809D01*
X68809Y-36707D01*
X68864Y-36572D01*
X68865Y-36427D01*
X68809Y-36293D01*
X68707Y-36190D01*
X68640Y-36162D01*
X68640Y-34957D01*
X68857Y-34740D01*
X70600Y-34740D01*
X70653Y-34729D01*
X70653Y-34729D01*
X70698Y-34698D01*
X70773Y-34624D01*
X70853Y-34624D01*
X70861Y-34632D01*
X70901Y-34649D01*
X70945Y-34649D01*
X71069Y-34649D01*
X71045Y-34709D01*
X71045Y-34746D01*
X71040Y-34745D01*
X70959Y-34744D01*
X70884Y-34776D01*
X70826Y-34833D01*
X70795Y-34909D01*
X70794Y-34990D01*
X70826Y-35065D01*
X70883Y-35123D01*
X70959Y-35154D01*
X71007Y-35155D01*
X71151Y-35298D01*
X71151Y-35298D01*
X71181Y-35319D01*
X71196Y-35329D01*
X71196Y-35329D01*
X71250Y-35340D01*
X71412Y-35340D01*
X71092Y-35660D01*
X70596Y-35660D01*
X70596Y-35641D01*
X70596Y-35090D01*
X70582Y-35057D01*
X70557Y-35032D01*
X70524Y-35018D01*
X70488Y-35018D01*
X70035Y-35018D01*
X70002Y-35031D01*
X69977Y-35057D01*
X69964Y-35086D01*
X69952Y-35057D01*
X69927Y-35032D01*
X69894Y-35018D01*
X69858Y-35018D01*
X69405Y-35018D01*
X69372Y-35031D01*
X69347Y-35057D01*
X69336Y-35083D01*
X69333Y-35083D01*
X69319Y-35068D01*
X69285Y-35054D01*
X69250Y-35054D01*
X69014Y-35054D01*
X68981Y-35068D01*
X68955Y-35093D01*
X68942Y-35126D01*
X68941Y-35162D01*
X68941Y-35319D01*
X68955Y-35352D01*
X68980Y-35377D01*
X69014Y-35391D01*
X69049Y-35391D01*
X69285Y-35391D01*
X69318Y-35377D01*
X69333Y-35363D01*
X69333Y-35677D01*
X69347Y-35710D01*
X69372Y-35735D01*
X69405Y-35749D01*
X69441Y-35749D01*
X69551Y-35749D01*
X69701Y-35898D01*
X69746Y-35929D01*
X69746Y-35929D01*
X69800Y-35940D01*
X69970Y-35940D01*
X69963Y-35956D01*
X69963Y-35992D01*
X69963Y-36543D01*
X69977Y-36576D01*
X70002Y-36601D01*
X70035Y-36615D01*
X70071Y-36615D01*
X70524Y-36615D01*
X70557Y-36601D01*
X70582Y-36576D01*
X70596Y-36543D01*
X70596Y-36507D01*
X70596Y-36213D01*
X70616Y-36213D01*
X70630Y-36227D01*
X70664Y-36241D01*
X70699Y-36241D01*
X70935Y-36241D01*
X70968Y-36227D01*
X70983Y-36213D01*
X71127Y-36213D01*
X71180Y-36202D01*
X71180Y-36202D01*
X71225Y-36171D01*
X72105Y-35292D01*
X72105Y-35292D01*
X72125Y-35262D01*
X72135Y-35247D01*
X72135Y-35247D01*
X72146Y-35193D01*
X72146Y-35193D01*
X72146Y-35046D01*
X72154Y-35038D01*
X72171Y-34998D01*
X72171Y-34954D01*
X72171Y-34600D01*
X72154Y-34559D01*
X72123Y-34528D01*
X72083Y-34512D01*
X72039Y-34511D01*
X71929Y-34511D01*
X71907Y-34520D01*
X71886Y-34512D01*
X71842Y-34511D01*
X71732Y-34511D01*
X71711Y-34520D01*
X71689Y-34512D01*
X71645Y-34511D01*
X71535Y-34511D01*
X71514Y-34520D01*
X71492Y-34512D01*
X71449Y-34511D01*
X71388Y-34511D01*
X71388Y-34407D01*
X71379Y-34385D01*
X71387Y-34364D01*
X71388Y-34320D01*
X71388Y-34210D01*
X71379Y-34188D01*
X71387Y-34167D01*
X71388Y-34123D01*
X71388Y-34013D01*
X71371Y-33973D01*
X71340Y-33942D01*
X71299Y-33925D01*
X71256Y-33925D01*
X70901Y-33925D01*
X70861Y-33942D01*
X70853Y-33950D01*
X70436Y-33950D01*
X70382Y-33961D01*
X70337Y-33991D01*
X70250Y-34078D01*
X70174Y-34078D01*
X70141Y-34092D01*
X70126Y-34107D01*
X69664Y-34107D01*
X69665Y-34047D01*
X69624Y-33950D01*
X69550Y-33875D01*
X69457Y-33836D01*
X70853Y-33836D01*
X70861Y-33845D01*
X70901Y-33861D01*
X70945Y-33861D01*
X71299Y-33861D01*
X71340Y-33845D01*
X71371Y-33814D01*
X71387Y-33773D01*
X71388Y-33730D01*
X71388Y-33619D01*
X71379Y-33598D01*
X71387Y-33577D01*
X71388Y-33533D01*
X71388Y-33423D01*
X71379Y-33401D01*
X71387Y-33380D01*
X71388Y-33336D01*
X71388Y-33226D01*
X71379Y-33204D01*
X71387Y-33183D01*
X71388Y-33139D01*
X71388Y-33029D01*
X71379Y-33007D01*
X71387Y-32986D01*
X71388Y-32942D01*
X71388Y-32832D01*
X71379Y-32811D01*
X71387Y-32789D01*
X71388Y-32745D01*
X71388Y-32635D01*
X71379Y-32614D01*
X71387Y-32592D01*
X71388Y-32549D01*
X71388Y-32488D01*
X71492Y-32488D01*
X71514Y-32479D01*
X71535Y-32487D01*
X71579Y-32488D01*
X71689Y-32488D01*
X71711Y-32479D01*
X71732Y-32487D01*
X71776Y-32488D01*
X71886Y-32488D01*
X71907Y-32479D01*
X71929Y-32487D01*
X71972Y-32488D01*
X72083Y-32488D01*
X72123Y-32471D01*
X72154Y-32440D01*
X72171Y-32399D01*
X72171Y-32356D01*
X72171Y-32001D01*
X72154Y-31961D01*
X72146Y-31953D01*
X72146Y-31806D01*
X72146Y-31806D01*
X72135Y-31752D01*
X72135Y-31752D01*
X72125Y-31737D01*
X72105Y-31707D01*
X72105Y-31707D01*
X71791Y-31393D01*
X71791Y-31383D01*
X71798Y-31372D01*
X71813Y-31300D01*
X71798Y-31227D01*
X71791Y-31216D01*
X71791Y-31164D01*
X71777Y-31131D01*
X71752Y-31105D01*
X71719Y-31092D01*
X71683Y-31091D01*
X71526Y-31091D01*
X71493Y-31105D01*
X71489Y-31110D01*
X71400Y-31110D01*
X71399Y-31110D01*
X71387Y-31112D01*
X71327Y-31124D01*
X71274Y-31159D01*
X71222Y-31159D01*
X71125Y-31200D01*
X71050Y-31274D01*
X71010Y-31372D01*
X71009Y-31477D01*
X71050Y-31574D01*
X71065Y-31589D01*
X70776Y-31589D01*
X70699Y-31512D01*
X70699Y-31512D01*
X70699Y-31512D01*
X70147Y-30961D01*
X70102Y-30930D01*
X70048Y-30920D01*
X69865Y-30920D01*
X69865Y-30427D01*
X69809Y-30293D01*
X69707Y-30190D01*
X69572Y-30135D01*
X69427Y-30134D01*
X69293Y-30190D01*
X69190Y-30292D01*
X69135Y-30427D01*
X69134Y-30572D01*
X69190Y-30706D01*
X69292Y-30809D01*
X69427Y-30864D01*
X69572Y-30865D01*
X69706Y-30809D01*
X69809Y-30707D01*
X69864Y-30572D01*
X69865Y-30427D01*
X69865Y-30920D01*
X68865Y-30920D01*
X68865Y-30427D01*
X68809Y-30293D01*
X68707Y-30190D01*
X68572Y-30135D01*
X68427Y-30134D01*
X68293Y-30190D01*
X68190Y-30292D01*
X68135Y-30427D01*
X68134Y-30572D01*
X68190Y-30706D01*
X68292Y-30809D01*
X68427Y-30864D01*
X68572Y-30865D01*
X68706Y-30809D01*
X68809Y-30707D01*
X68864Y-30572D01*
X68865Y-30427D01*
X68865Y-30920D01*
X68117Y-30920D01*
X67865Y-30667D01*
X67865Y-30207D01*
X67851Y-30174D01*
X67826Y-30148D01*
X67792Y-30135D01*
X67757Y-30134D01*
X67207Y-30134D01*
X67174Y-30148D01*
X67148Y-30173D01*
X67135Y-30207D01*
X67134Y-30242D01*
X67134Y-30792D01*
X67148Y-30825D01*
X67173Y-30851D01*
X67207Y-30864D01*
X67242Y-30865D01*
X67667Y-30865D01*
X67882Y-31080D01*
X67277Y-31080D01*
X66837Y-30639D01*
X66864Y-30572D01*
X66865Y-30427D01*
X66809Y-30293D01*
X66707Y-30190D01*
X66572Y-30135D01*
X66427Y-30134D01*
X66293Y-30190D01*
X66190Y-30292D01*
X66135Y-30427D01*
X66134Y-30572D01*
X66190Y-30706D01*
X66292Y-30809D01*
X66427Y-30864D01*
X66572Y-30865D01*
X66639Y-30837D01*
X67042Y-31240D01*
X66437Y-31240D01*
X65837Y-30639D01*
X65864Y-30572D01*
X65865Y-30427D01*
X65809Y-30293D01*
X65707Y-30190D01*
X65572Y-30135D01*
X65427Y-30134D01*
X65293Y-30190D01*
X65190Y-30292D01*
X65135Y-30427D01*
X65134Y-30572D01*
X65190Y-30706D01*
X65243Y-30760D01*
X64957Y-30760D01*
X64837Y-30639D01*
X64864Y-30572D01*
X64865Y-30427D01*
X64809Y-30293D01*
X64707Y-30190D01*
X64572Y-30135D01*
X64427Y-30134D01*
X64293Y-30190D01*
X64190Y-30292D01*
X64135Y-30427D01*
X64134Y-30572D01*
X64190Y-30706D01*
X64292Y-30809D01*
X64427Y-30864D01*
X64572Y-30865D01*
X64639Y-30837D01*
X64722Y-30920D01*
X64117Y-30920D01*
X63837Y-30639D01*
X63864Y-30572D01*
X63865Y-30427D01*
X63809Y-30293D01*
X63707Y-30190D01*
X63572Y-30135D01*
X63427Y-30134D01*
X63293Y-30190D01*
X63190Y-30292D01*
X63135Y-30427D01*
X63134Y-30572D01*
X63190Y-30706D01*
X63292Y-30809D01*
X63415Y-30860D01*
X63057Y-30860D01*
X62837Y-30639D01*
X62864Y-30572D01*
X62865Y-30427D01*
X62809Y-30293D01*
X62707Y-30190D01*
X62572Y-30135D01*
X62427Y-30134D01*
X62293Y-30190D01*
X62190Y-30292D01*
X62135Y-30427D01*
X62134Y-30572D01*
X62190Y-30706D01*
X62292Y-30809D01*
X62427Y-30864D01*
X62572Y-30865D01*
X62639Y-30837D01*
X62901Y-31098D01*
X62946Y-31129D01*
X62946Y-31129D01*
X63000Y-31140D01*
X63692Y-31140D01*
X63871Y-31318D01*
X63916Y-31349D01*
X63916Y-31349D01*
X63970Y-31360D01*
X65483Y-31360D01*
X66082Y-31958D01*
X66082Y-31958D01*
X66112Y-31979D01*
X66127Y-31989D01*
X66127Y-31989D01*
X66181Y-32000D01*
X66181Y-32000D01*
X69659Y-32000D01*
X70637Y-32978D01*
X70625Y-32987D01*
X70594Y-33007D01*
X70525Y-33076D01*
X70500Y-33076D01*
X69515Y-33076D01*
X69515Y-32447D01*
X69474Y-32350D01*
X69400Y-32275D01*
X69302Y-32235D01*
X69197Y-32234D01*
X69100Y-32275D01*
X69065Y-32310D01*
X65328Y-32310D01*
X65265Y-32246D01*
X65265Y-32197D01*
X65224Y-32100D01*
X65150Y-32025D01*
X65052Y-31985D01*
X64947Y-31984D01*
X64850Y-32025D01*
X64775Y-32099D01*
X64735Y-32197D01*
X64734Y-32302D01*
X64775Y-32399D01*
X64849Y-32474D01*
X64947Y-32514D01*
X64996Y-32514D01*
X65115Y-32634D01*
X65115Y-32634D01*
X65177Y-32675D01*
X65250Y-32690D01*
X69065Y-32690D01*
X69099Y-32724D01*
X69197Y-32764D01*
X69302Y-32765D01*
X69399Y-32724D01*
X69474Y-32650D01*
X69514Y-32552D01*
X69515Y-32447D01*
X69515Y-33076D01*
X69051Y-33076D01*
X68998Y-33087D01*
X68983Y-33097D01*
X68952Y-33117D01*
X68870Y-33199D01*
X64743Y-33199D01*
X64740Y-33193D01*
X64715Y-33167D01*
X64682Y-33154D01*
X64646Y-33153D01*
X64624Y-33153D01*
X64471Y-33001D01*
X64426Y-32970D01*
X64373Y-32960D01*
X63814Y-32960D01*
X63874Y-32900D01*
X63914Y-32802D01*
X63915Y-32697D01*
X63874Y-32600D01*
X63800Y-32525D01*
X63702Y-32485D01*
X63597Y-32484D01*
X63500Y-32525D01*
X63425Y-32599D01*
X63392Y-32680D01*
X62858Y-32680D01*
X62380Y-32680D01*
X62230Y-32680D01*
X62157Y-32694D01*
X62095Y-32735D01*
X62095Y-32735D01*
X62072Y-32759D01*
X62101Y-32687D01*
X62102Y-32581D01*
X62061Y-32482D01*
X61986Y-32407D01*
X61888Y-32367D01*
X61782Y-32366D01*
X61683Y-32407D01*
X61608Y-32482D01*
X61568Y-32580D01*
X61567Y-32686D01*
X61608Y-32785D01*
X61683Y-32860D01*
X61781Y-32900D01*
X61887Y-32901D01*
X61960Y-32871D01*
X61921Y-32910D01*
X61500Y-32910D01*
X61427Y-32924D01*
X61365Y-32965D01*
X60865Y-33465D01*
X60844Y-33498D01*
X60844Y-32231D01*
X61163Y-32231D01*
X61196Y-32217D01*
X61222Y-32192D01*
X61235Y-32159D01*
X61236Y-32123D01*
X61236Y-31938D01*
X62236Y-31938D01*
X62236Y-32159D01*
X62250Y-32192D01*
X62275Y-32217D01*
X62309Y-32231D01*
X62344Y-32231D01*
X63328Y-32231D01*
X63361Y-32217D01*
X63387Y-32192D01*
X63400Y-32159D01*
X63401Y-32123D01*
X63401Y-31938D01*
X63633Y-31938D01*
X63633Y-32250D01*
X63647Y-32322D01*
X63654Y-32333D01*
X63654Y-32385D01*
X63668Y-32418D01*
X63693Y-32444D01*
X63726Y-32457D01*
X63762Y-32458D01*
X63919Y-32458D01*
X63952Y-32444D01*
X63977Y-32419D01*
X63991Y-32385D01*
X63991Y-32350D01*
X63991Y-32333D01*
X63998Y-32322D01*
X64013Y-32250D01*
X64013Y-31750D01*
X63998Y-31677D01*
X63991Y-31666D01*
X63991Y-31614D01*
X63977Y-31581D01*
X63952Y-31555D01*
X63919Y-31542D01*
X63883Y-31541D01*
X63726Y-31541D01*
X63693Y-31555D01*
X63691Y-31558D01*
X63401Y-31558D01*
X63401Y-31336D01*
X63387Y-31303D01*
X63362Y-31278D01*
X63328Y-31264D01*
X63293Y-31264D01*
X62309Y-31264D01*
X62276Y-31278D01*
X62250Y-31303D01*
X62237Y-31336D01*
X62236Y-31372D01*
X62236Y-31558D01*
X61865Y-31558D01*
X61865Y-30427D01*
X61809Y-30293D01*
X61707Y-30190D01*
X61572Y-30135D01*
X61427Y-30134D01*
X61293Y-30190D01*
X61190Y-30292D01*
X61135Y-30427D01*
X61134Y-30572D01*
X61190Y-30706D01*
X61292Y-30809D01*
X61427Y-30864D01*
X61572Y-30865D01*
X61706Y-30809D01*
X61809Y-30707D01*
X61864Y-30572D01*
X61865Y-30427D01*
X61865Y-31558D01*
X61236Y-31558D01*
X61236Y-31336D01*
X61222Y-31303D01*
X61197Y-31278D01*
X61163Y-31264D01*
X61128Y-31264D01*
X60865Y-31264D01*
X60865Y-30427D01*
X60809Y-30293D01*
X60707Y-30190D01*
X60572Y-30135D01*
X60427Y-30134D01*
X60293Y-30190D01*
X60190Y-30292D01*
X60135Y-30427D01*
X60134Y-30572D01*
X60190Y-30706D01*
X60292Y-30809D01*
X60427Y-30864D01*
X60572Y-30865D01*
X60706Y-30809D01*
X60809Y-30707D01*
X60864Y-30572D01*
X60865Y-30427D01*
X60865Y-31264D01*
X60144Y-31264D01*
X60111Y-31278D01*
X60109Y-31279D01*
X60109Y-30109D01*
X79890Y-30109D01*
X79890Y-36890D01*
X79890Y-36890D01*
G37*
G54D33*
X79890Y-36890D02*
X79890Y-36890D01*
X79890Y-33422D01*
X79890Y-32422D01*
X79830Y-32279D01*
X79721Y-32169D01*
X79577Y-32110D01*
X79422Y-32109D01*
X79279Y-32169D01*
X79169Y-32278D01*
X79110Y-32422D01*
X79109Y-32577D01*
X79169Y-32720D01*
X79278Y-32830D01*
X79422Y-32889D01*
X79577Y-32890D01*
X79720Y-32830D01*
X79830Y-32721D01*
X79889Y-32577D01*
X79890Y-32422D01*
X79890Y-33422D01*
X79830Y-33279D01*
X79721Y-33169D01*
X79577Y-33110D01*
X79422Y-33109D01*
X79279Y-33169D01*
X79169Y-33278D01*
X79110Y-33422D01*
X79109Y-33577D01*
X79169Y-33720D01*
X79278Y-33830D01*
X79422Y-33889D01*
X79577Y-33890D01*
X79720Y-33830D01*
X79830Y-33721D01*
X79889Y-33577D01*
X79890Y-33422D01*
X79890Y-36890D01*
X79865Y-36890D01*
X79865Y-36427D01*
X79809Y-36293D01*
X79707Y-36190D01*
X79572Y-36135D01*
X79427Y-36134D01*
X79360Y-36162D01*
X78558Y-35361D01*
X78513Y-35330D01*
X78459Y-35319D01*
X77165Y-35319D01*
X77165Y-33957D01*
X77165Y-33507D01*
X77151Y-33474D01*
X77126Y-33448D01*
X77092Y-33435D01*
X77057Y-33434D01*
X76807Y-33434D01*
X76774Y-33448D01*
X76748Y-33473D01*
X76735Y-33507D01*
X76734Y-33542D01*
X76734Y-33696D01*
X76590Y-33840D01*
X76549Y-33902D01*
X76535Y-33975D01*
X76535Y-34134D01*
X76532Y-34134D01*
X76499Y-34148D01*
X76473Y-34173D01*
X76460Y-34207D01*
X76459Y-34242D01*
X76459Y-34310D01*
X76384Y-34310D01*
X76350Y-34275D01*
X76252Y-34235D01*
X76147Y-34234D01*
X76050Y-34275D01*
X75975Y-34349D01*
X75935Y-34447D01*
X75934Y-34552D01*
X75975Y-34649D01*
X76049Y-34724D01*
X76147Y-34764D01*
X76252Y-34765D01*
X76349Y-34724D01*
X76384Y-34690D01*
X76459Y-34690D01*
X76459Y-34792D01*
X76473Y-34825D01*
X76498Y-34851D01*
X76532Y-34864D01*
X76567Y-34865D01*
X76917Y-34865D01*
X76950Y-34851D01*
X76976Y-34826D01*
X76989Y-34792D01*
X76990Y-34757D01*
X76990Y-34207D01*
X76976Y-34174D01*
X76951Y-34148D01*
X76917Y-34135D01*
X76915Y-34135D01*
X76915Y-34065D01*
X77092Y-34065D01*
X77125Y-34051D01*
X77151Y-34026D01*
X77164Y-33992D01*
X77165Y-33957D01*
X77165Y-35319D01*
X75470Y-35319D01*
X74805Y-34655D01*
X74840Y-34655D01*
X74915Y-34623D01*
X74973Y-34566D01*
X75004Y-34490D01*
X75005Y-34442D01*
X75098Y-34348D01*
X75098Y-34348D01*
X75119Y-34318D01*
X75129Y-34303D01*
X75129Y-34303D01*
X75139Y-34250D01*
X75140Y-34250D01*
X75140Y-34089D01*
X76429Y-32800D01*
X77491Y-32800D01*
X77491Y-32819D01*
X77505Y-32852D01*
X77530Y-32877D01*
X77553Y-32887D01*
X77361Y-32887D01*
X77350Y-32875D01*
X77252Y-32835D01*
X77147Y-32834D01*
X77050Y-32875D01*
X76975Y-32949D01*
X76935Y-33047D01*
X76934Y-33152D01*
X76975Y-33249D01*
X77049Y-33324D01*
X77147Y-33364D01*
X77196Y-33364D01*
X77335Y-33504D01*
X77335Y-33507D01*
X77334Y-33542D01*
X77334Y-33992D01*
X77348Y-34025D01*
X77373Y-34051D01*
X77407Y-34064D01*
X77442Y-34065D01*
X77692Y-34065D01*
X77725Y-34051D01*
X77751Y-34026D01*
X77764Y-33992D01*
X77765Y-33957D01*
X77765Y-33507D01*
X77751Y-33474D01*
X77740Y-33462D01*
X77740Y-33450D01*
X77739Y-33449D01*
X77740Y-33449D01*
X77737Y-33437D01*
X77725Y-33377D01*
X77684Y-33315D01*
X77684Y-33315D01*
X77635Y-33267D01*
X77700Y-33267D01*
X77772Y-33252D01*
X77783Y-33245D01*
X77835Y-33245D01*
X77860Y-33235D01*
X77860Y-34000D01*
X77870Y-34053D01*
X77901Y-34098D01*
X78143Y-34341D01*
X78110Y-34422D01*
X78109Y-34577D01*
X78169Y-34720D01*
X78278Y-34830D01*
X78422Y-34889D01*
X78577Y-34890D01*
X78720Y-34830D01*
X78830Y-34721D01*
X78889Y-34577D01*
X78890Y-34422D01*
X78830Y-34279D01*
X78721Y-34169D01*
X78577Y-34110D01*
X78422Y-34109D01*
X78341Y-34143D01*
X78140Y-33942D01*
X78140Y-33650D01*
X78169Y-33720D01*
X78278Y-33830D01*
X78422Y-33889D01*
X78577Y-33890D01*
X78720Y-33830D01*
X78830Y-33721D01*
X78889Y-33577D01*
X78890Y-33422D01*
X78830Y-33279D01*
X78721Y-33169D01*
X78577Y-33110D01*
X78422Y-33109D01*
X78279Y-33169D01*
X78169Y-33278D01*
X78140Y-33349D01*
X78140Y-32867D01*
X78148Y-32876D01*
X78182Y-32889D01*
X78217Y-32890D01*
X78817Y-32890D01*
X78850Y-32876D01*
X78876Y-32851D01*
X78889Y-32817D01*
X78890Y-32782D01*
X78890Y-32182D01*
X78876Y-32149D01*
X78851Y-32123D01*
X78817Y-32110D01*
X78782Y-32109D01*
X78182Y-32109D01*
X78149Y-32123D01*
X78123Y-32148D01*
X78110Y-32182D01*
X78109Y-32217D01*
X78109Y-32360D01*
X76416Y-32360D01*
X77476Y-31300D01*
X78839Y-31300D01*
X78893Y-31289D01*
X78893Y-31289D01*
X78938Y-31258D01*
X79332Y-30865D01*
X79792Y-30865D01*
X79825Y-30851D01*
X79851Y-30826D01*
X79864Y-30792D01*
X79865Y-30757D01*
X79865Y-30207D01*
X79851Y-30174D01*
X79826Y-30148D01*
X79792Y-30135D01*
X79757Y-30134D01*
X79207Y-30134D01*
X79174Y-30148D01*
X79148Y-30173D01*
X79135Y-30207D01*
X79134Y-30242D01*
X79134Y-30667D01*
X78782Y-31020D01*
X78177Y-31020D01*
X78360Y-30837D01*
X78427Y-30864D01*
X78572Y-30865D01*
X78706Y-30809D01*
X78809Y-30707D01*
X78864Y-30572D01*
X78865Y-30427D01*
X78809Y-30293D01*
X78707Y-30190D01*
X78572Y-30135D01*
X78427Y-30134D01*
X78293Y-30190D01*
X78190Y-30292D01*
X78135Y-30427D01*
X78134Y-30572D01*
X78162Y-30639D01*
X77942Y-30860D01*
X77584Y-30860D01*
X77706Y-30809D01*
X77809Y-30707D01*
X77864Y-30572D01*
X77865Y-30427D01*
X77809Y-30293D01*
X77707Y-30190D01*
X77572Y-30135D01*
X77427Y-30134D01*
X77293Y-30190D01*
X77190Y-30292D01*
X77135Y-30427D01*
X77134Y-30572D01*
X77190Y-30706D01*
X77206Y-30722D01*
X76640Y-31288D01*
X76640Y-30837D01*
X76706Y-30809D01*
X76809Y-30707D01*
X76864Y-30572D01*
X76865Y-30427D01*
X76809Y-30293D01*
X76707Y-30190D01*
X76572Y-30135D01*
X76427Y-30134D01*
X76293Y-30190D01*
X76190Y-30292D01*
X76135Y-30427D01*
X76134Y-30572D01*
X76190Y-30706D01*
X76292Y-30809D01*
X76360Y-30837D01*
X76360Y-31342D01*
X76165Y-31536D01*
X76165Y-31247D01*
X76124Y-31150D01*
X76050Y-31075D01*
X75952Y-31035D01*
X75847Y-31034D01*
X75750Y-31075D01*
X75715Y-31110D01*
X75700Y-31110D01*
X75699Y-31110D01*
X75685Y-31112D01*
X75640Y-31121D01*
X75640Y-30865D01*
X75792Y-30865D01*
X75825Y-30851D01*
X75851Y-30826D01*
X75864Y-30792D01*
X75865Y-30757D01*
X75865Y-30207D01*
X75851Y-30174D01*
X75826Y-30148D01*
X75792Y-30135D01*
X75757Y-30134D01*
X75207Y-30134D01*
X75174Y-30148D01*
X75148Y-30173D01*
X75135Y-30207D01*
X75134Y-30242D01*
X75134Y-30792D01*
X75148Y-30825D01*
X75173Y-30851D01*
X75207Y-30864D01*
X75242Y-30865D01*
X75360Y-30865D01*
X75360Y-31118D01*
X74640Y-31838D01*
X74640Y-30837D01*
X74706Y-30809D01*
X74809Y-30707D01*
X74864Y-30572D01*
X74865Y-30427D01*
X74809Y-30293D01*
X74707Y-30190D01*
X74572Y-30135D01*
X74427Y-30134D01*
X74293Y-30190D01*
X74190Y-30292D01*
X74135Y-30427D01*
X74134Y-30572D01*
X74190Y-30706D01*
X74292Y-30809D01*
X74360Y-30837D01*
X74360Y-31892D01*
X73900Y-32351D01*
X73898Y-32350D01*
X73854Y-32350D01*
X73549Y-32350D01*
X73549Y-32001D01*
X73532Y-31961D01*
X73524Y-31953D01*
X73524Y-30865D01*
X73572Y-30865D01*
X73706Y-30809D01*
X73809Y-30707D01*
X73864Y-30572D01*
X73865Y-30427D01*
X73809Y-30293D01*
X73707Y-30190D01*
X73572Y-30135D01*
X73427Y-30134D01*
X73293Y-30190D01*
X73190Y-30292D01*
X73135Y-30427D01*
X73134Y-30572D01*
X73190Y-30706D01*
X73244Y-30760D01*
X73244Y-31091D01*
X72824Y-30671D01*
X72864Y-30572D01*
X72865Y-30427D01*
X72809Y-30293D01*
X72707Y-30190D01*
X72572Y-30135D01*
X72427Y-30134D01*
X72293Y-30190D01*
X72190Y-30292D01*
X72135Y-30427D01*
X72135Y-30487D01*
X72048Y-30401D01*
X72003Y-30370D01*
X71950Y-30360D01*
X71837Y-30360D01*
X71809Y-30293D01*
X71707Y-30190D01*
X71572Y-30135D01*
X71427Y-30134D01*
X71293Y-30190D01*
X71190Y-30292D01*
X71135Y-30427D01*
X71134Y-30572D01*
X71190Y-30706D01*
X71243Y-30760D01*
X70957Y-30760D01*
X70837Y-30639D01*
X70864Y-30572D01*
X70865Y-30427D01*
X70809Y-30293D01*
X70707Y-30190D01*
X70572Y-30135D01*
X70427Y-30134D01*
X70293Y-30190D01*
X70190Y-30292D01*
X70135Y-30427D01*
X70134Y-30572D01*
X70190Y-30706D01*
X70292Y-30809D01*
X70427Y-30864D01*
X70572Y-30865D01*
X70639Y-30837D01*
X70801Y-30998D01*
X70801Y-30998D01*
X70846Y-31029D01*
X70846Y-31029D01*
X70899Y-31039D01*
X70900Y-31040D01*
X72065Y-31040D01*
X72184Y-31158D01*
X72230Y-31189D01*
X72230Y-31189D01*
X72259Y-31195D01*
X72184Y-31226D01*
X72126Y-31283D01*
X72095Y-31359D01*
X72094Y-31440D01*
X72126Y-31515D01*
X72180Y-31569D01*
X72180Y-31730D01*
X72190Y-31783D01*
X72221Y-31828D01*
X72260Y-31867D01*
X72260Y-31953D01*
X72251Y-31961D01*
X72234Y-32001D01*
X72234Y-32045D01*
X72234Y-32399D01*
X72251Y-32440D01*
X72282Y-32471D01*
X72322Y-32487D01*
X72366Y-32488D01*
X72476Y-32488D01*
X72498Y-32479D01*
X72519Y-32487D01*
X72563Y-32488D01*
X72673Y-32488D01*
X72695Y-32479D01*
X72716Y-32487D01*
X72760Y-32488D01*
X72870Y-32488D01*
X72892Y-32479D01*
X72913Y-32487D01*
X72957Y-32488D01*
X73067Y-32488D01*
X73088Y-32479D01*
X73110Y-32487D01*
X73154Y-32488D01*
X73264Y-32488D01*
X73285Y-32479D01*
X73307Y-32487D01*
X73350Y-32488D01*
X73411Y-32488D01*
X73411Y-32592D01*
X73420Y-32614D01*
X73412Y-32635D01*
X73411Y-32679D01*
X73411Y-32789D01*
X73420Y-32811D01*
X73412Y-32832D01*
X73411Y-32876D01*
X73411Y-32986D01*
X73428Y-33026D01*
X73459Y-33057D01*
X73500Y-33074D01*
X73543Y-33074D01*
X73898Y-33074D01*
X73938Y-33057D01*
X73946Y-33049D01*
X73993Y-33049D01*
X74046Y-33038D01*
X74046Y-33038D01*
X74092Y-33008D01*
X74260Y-32840D01*
X74264Y-32841D01*
X74299Y-32841D01*
X74316Y-32841D01*
X74327Y-32848D01*
X74400Y-32863D01*
X74472Y-32848D01*
X74483Y-32841D01*
X74535Y-32841D01*
X74568Y-32827D01*
X74594Y-32802D01*
X74607Y-32769D01*
X74608Y-32733D01*
X74608Y-32633D01*
X74733Y-32508D01*
X74749Y-32524D01*
X74847Y-32564D01*
X74952Y-32565D01*
X75049Y-32524D01*
X75124Y-32450D01*
X75164Y-32352D01*
X75165Y-32247D01*
X75124Y-32150D01*
X75121Y-32146D01*
X75746Y-31521D01*
X75749Y-31524D01*
X75847Y-31564D01*
X75952Y-31565D01*
X76049Y-31524D01*
X76124Y-31450D01*
X76164Y-31352D01*
X76165Y-31247D01*
X76165Y-31536D01*
X74538Y-33163D01*
X73946Y-33163D01*
X73938Y-33154D01*
X73898Y-33138D01*
X73854Y-33138D01*
X73500Y-33138D01*
X73459Y-33154D01*
X73428Y-33185D01*
X73412Y-33226D01*
X73411Y-33269D01*
X73411Y-33380D01*
X73420Y-33401D01*
X73412Y-33422D01*
X73411Y-33466D01*
X73411Y-33576D01*
X73420Y-33598D01*
X73412Y-33619D01*
X73411Y-33663D01*
X73411Y-33773D01*
X73420Y-33795D01*
X73412Y-33816D01*
X73411Y-33860D01*
X73411Y-33970D01*
X73420Y-33992D01*
X73412Y-34013D01*
X73411Y-34057D01*
X73411Y-34167D01*
X73420Y-34188D01*
X73412Y-34210D01*
X73411Y-34254D01*
X73411Y-34364D01*
X73420Y-34385D01*
X73412Y-34407D01*
X73411Y-34450D01*
X73411Y-34511D01*
X73307Y-34511D01*
X73285Y-34520D01*
X73264Y-34512D01*
X73220Y-34511D01*
X73110Y-34511D01*
X73088Y-34520D01*
X73067Y-34512D01*
X73023Y-34511D01*
X72913Y-34511D01*
X72892Y-34520D01*
X72870Y-34512D01*
X72827Y-34511D01*
X72716Y-34511D01*
X72695Y-34520D01*
X72673Y-34512D01*
X72630Y-34511D01*
X72519Y-34511D01*
X72498Y-34520D01*
X72477Y-34512D01*
X72433Y-34511D01*
X72323Y-34511D01*
X72282Y-34528D01*
X72251Y-34559D01*
X72234Y-34600D01*
X72234Y-34643D01*
X72234Y-34998D01*
X72251Y-35038D01*
X72260Y-35046D01*
X72260Y-35573D01*
X72270Y-35626D01*
X72301Y-35671D01*
X72337Y-35707D01*
X72337Y-35794D01*
X72321Y-35810D01*
X72200Y-35810D01*
X72199Y-35810D01*
X72185Y-35812D01*
X72127Y-35824D01*
X72065Y-35865D01*
X72065Y-35865D01*
X71796Y-36134D01*
X71747Y-36134D01*
X71650Y-36175D01*
X71575Y-36249D01*
X71535Y-36347D01*
X71534Y-36452D01*
X71575Y-36549D01*
X71649Y-36624D01*
X71747Y-36664D01*
X71852Y-36665D01*
X71949Y-36624D01*
X72024Y-36550D01*
X72064Y-36452D01*
X72064Y-36403D01*
X72134Y-36333D01*
X72134Y-36792D01*
X72148Y-36825D01*
X72173Y-36851D01*
X72207Y-36864D01*
X72242Y-36865D01*
X72792Y-36865D01*
X72825Y-36851D01*
X72851Y-36826D01*
X72864Y-36792D01*
X72865Y-36757D01*
X72865Y-36325D01*
X72869Y-36318D01*
X72879Y-36303D01*
X72879Y-36303D01*
X72889Y-36250D01*
X72890Y-36250D01*
X72890Y-35587D01*
X73360Y-36057D01*
X73360Y-36162D01*
X73293Y-36190D01*
X73190Y-36292D01*
X73135Y-36427D01*
X73134Y-36572D01*
X73190Y-36706D01*
X73292Y-36809D01*
X73427Y-36864D01*
X73572Y-36865D01*
X73706Y-36809D01*
X73809Y-36707D01*
X73864Y-36572D01*
X73865Y-36427D01*
X73809Y-36293D01*
X73707Y-36190D01*
X73640Y-36162D01*
X73640Y-36111D01*
X74127Y-36598D01*
X74127Y-36598D01*
X74153Y-36616D01*
X74190Y-36706D01*
X74292Y-36809D01*
X74427Y-36864D01*
X74572Y-36865D01*
X74706Y-36809D01*
X74809Y-36707D01*
X74864Y-36572D01*
X74865Y-36427D01*
X74809Y-36293D01*
X74756Y-36240D01*
X75042Y-36240D01*
X75162Y-36360D01*
X75135Y-36427D01*
X75134Y-36572D01*
X75190Y-36706D01*
X75292Y-36809D01*
X75427Y-36864D01*
X75572Y-36865D01*
X75706Y-36809D01*
X75809Y-36707D01*
X75864Y-36572D01*
X75865Y-36427D01*
X75809Y-36293D01*
X75707Y-36190D01*
X75572Y-36135D01*
X75427Y-36134D01*
X75360Y-36162D01*
X75277Y-36079D01*
X75882Y-36079D01*
X76162Y-36360D01*
X76135Y-36427D01*
X76134Y-36572D01*
X76190Y-36706D01*
X76292Y-36809D01*
X76427Y-36864D01*
X76572Y-36865D01*
X76706Y-36809D01*
X76809Y-36707D01*
X76864Y-36572D01*
X76865Y-36427D01*
X76809Y-36293D01*
X76707Y-36190D01*
X76572Y-36135D01*
X76427Y-36134D01*
X76360Y-36162D01*
X76117Y-35919D01*
X76722Y-35919D01*
X77162Y-36360D01*
X77135Y-36427D01*
X77134Y-36572D01*
X77190Y-36706D01*
X77292Y-36809D01*
X77427Y-36864D01*
X77572Y-36865D01*
X77706Y-36809D01*
X77809Y-36707D01*
X77864Y-36572D01*
X77865Y-36427D01*
X77809Y-36293D01*
X77707Y-36190D01*
X77572Y-36135D01*
X77427Y-36134D01*
X77360Y-36162D01*
X76957Y-35759D01*
X77562Y-35759D01*
X78162Y-36360D01*
X78135Y-36427D01*
X78134Y-36572D01*
X78190Y-36706D01*
X78292Y-36809D01*
X78427Y-36864D01*
X78572Y-36865D01*
X78706Y-36809D01*
X78809Y-36707D01*
X78864Y-36572D01*
X78865Y-36427D01*
X78809Y-36293D01*
X78707Y-36190D01*
X78572Y-36135D01*
X78427Y-36134D01*
X78360Y-36162D01*
X77797Y-35599D01*
X78402Y-35599D01*
X79162Y-36360D01*
X79135Y-36427D01*
X79134Y-36572D01*
X79190Y-36706D01*
X79292Y-36809D01*
X79427Y-36864D01*
X79572Y-36865D01*
X79706Y-36809D01*
X79809Y-36707D01*
X79864Y-36572D01*
X79865Y-36427D01*
X79865Y-36890D01*
X65000Y-36890D01*
X65000Y-36197D01*
X65057Y-36140D01*
X65195Y-36140D01*
X65174Y-36148D01*
X65148Y-36173D01*
X65135Y-36207D01*
X65134Y-36242D01*
X65134Y-36792D01*
X65148Y-36825D01*
X65173Y-36851D01*
X65207Y-36864D01*
X65242Y-36865D01*
X65792Y-36865D01*
X65825Y-36851D01*
X65851Y-36826D01*
X65864Y-36792D01*
X65865Y-36757D01*
X65865Y-36332D01*
X66167Y-36029D01*
X66772Y-36029D01*
X66639Y-36162D01*
X66572Y-36135D01*
X66427Y-36134D01*
X66293Y-36190D01*
X66190Y-36292D01*
X66135Y-36427D01*
X66134Y-36572D01*
X66190Y-36706D01*
X66292Y-36809D01*
X66427Y-36864D01*
X66572Y-36865D01*
X66706Y-36809D01*
X66809Y-36707D01*
X66864Y-36572D01*
X66865Y-36427D01*
X66837Y-36360D01*
X67007Y-36190D01*
X67294Y-36190D01*
X67293Y-36190D01*
X67190Y-36292D01*
X67135Y-36427D01*
X67134Y-36572D01*
X67190Y-36706D01*
X67292Y-36809D01*
X67427Y-36864D01*
X67572Y-36865D01*
X67706Y-36809D01*
X67809Y-36707D01*
X67864Y-36572D01*
X67865Y-36427D01*
X67837Y-36360D01*
X68360Y-35837D01*
X68360Y-36162D01*
X68293Y-36190D01*
X68190Y-36292D01*
X68135Y-36427D01*
X68134Y-36572D01*
X68190Y-36706D01*
X68292Y-36809D01*
X68427Y-36864D01*
X68572Y-36865D01*
X68706Y-36809D01*
X68809Y-36707D01*
X68864Y-36572D01*
X68865Y-36427D01*
X68809Y-36293D01*
X68707Y-36190D01*
X68640Y-36162D01*
X68640Y-34957D01*
X68857Y-34740D01*
X70600Y-34740D01*
X70653Y-34729D01*
X70653Y-34729D01*
X70698Y-34698D01*
X70773Y-34624D01*
X70853Y-34624D01*
X70861Y-34632D01*
X70901Y-34649D01*
X70945Y-34649D01*
X71069Y-34649D01*
X71045Y-34709D01*
X71045Y-34746D01*
X71040Y-34745D01*
X70959Y-34744D01*
X70884Y-34776D01*
X70826Y-34833D01*
X70795Y-34909D01*
X70794Y-34990D01*
X70826Y-35065D01*
X70883Y-35123D01*
X70959Y-35154D01*
X71007Y-35155D01*
X71151Y-35298D01*
X71151Y-35298D01*
X71181Y-35319D01*
X71196Y-35329D01*
X71196Y-35329D01*
X71250Y-35340D01*
X71412Y-35340D01*
X71092Y-35660D01*
X70596Y-35660D01*
X70596Y-35641D01*
X70596Y-35090D01*
X70582Y-35057D01*
X70557Y-35032D01*
X70524Y-35018D01*
X70488Y-35018D01*
X70035Y-35018D01*
X70002Y-35031D01*
X69977Y-35057D01*
X69964Y-35086D01*
X69952Y-35057D01*
X69927Y-35032D01*
X69894Y-35018D01*
X69858Y-35018D01*
X69405Y-35018D01*
X69372Y-35031D01*
X69347Y-35057D01*
X69336Y-35083D01*
X69333Y-35083D01*
X69319Y-35068D01*
X69285Y-35054D01*
X69250Y-35054D01*
X69014Y-35054D01*
X68981Y-35068D01*
X68955Y-35093D01*
X68942Y-35126D01*
X68941Y-35162D01*
X68941Y-35319D01*
X68955Y-35352D01*
X68980Y-35377D01*
X69014Y-35391D01*
X69049Y-35391D01*
X69285Y-35391D01*
X69318Y-35377D01*
X69333Y-35363D01*
X69333Y-35677D01*
X69347Y-35710D01*
X69372Y-35735D01*
X69405Y-35749D01*
X69441Y-35749D01*
X69551Y-35749D01*
X69701Y-35898D01*
X69746Y-35929D01*
X69746Y-35929D01*
X69800Y-35940D01*
X69970Y-35940D01*
X69963Y-35956D01*
X69963Y-35992D01*
X69963Y-36543D01*
X69977Y-36576D01*
X70002Y-36601D01*
X70035Y-36615D01*
X70071Y-36615D01*
X70524Y-36615D01*
X70557Y-36601D01*
X70582Y-36576D01*
X70596Y-36543D01*
X70596Y-36507D01*
X70596Y-36213D01*
X70616Y-36213D01*
X70630Y-36227D01*
X70664Y-36241D01*
X70699Y-36241D01*
X70935Y-36241D01*
X70968Y-36227D01*
X70983Y-36213D01*
X71127Y-36213D01*
X71180Y-36202D01*
X71180Y-36202D01*
X71225Y-36171D01*
X72105Y-35292D01*
X72105Y-35292D01*
X72125Y-35262D01*
X72135Y-35247D01*
X72135Y-35247D01*
X72146Y-35193D01*
X72146Y-35193D01*
X72146Y-35046D01*
X72154Y-35038D01*
X72171Y-34998D01*
X72171Y-34954D01*
X72171Y-34600D01*
X72154Y-34559D01*
X72123Y-34528D01*
X72083Y-34512D01*
X72039Y-34511D01*
X71929Y-34511D01*
X71907Y-34520D01*
X71886Y-34512D01*
X71842Y-34511D01*
X71732Y-34511D01*
X71711Y-34520D01*
X71689Y-34512D01*
X71645Y-34511D01*
X71535Y-34511D01*
X71514Y-34520D01*
X71492Y-34512D01*
X71449Y-34511D01*
X71388Y-34511D01*
X71388Y-34407D01*
X71379Y-34385D01*
X71387Y-34364D01*
X71388Y-34320D01*
X71388Y-34210D01*
X71379Y-34188D01*
X71387Y-34167D01*
X71388Y-34123D01*
X71388Y-34013D01*
X71371Y-33973D01*
X71340Y-33942D01*
X71299Y-33925D01*
X71256Y-33925D01*
X70901Y-33925D01*
X70861Y-33942D01*
X70853Y-33950D01*
X70436Y-33950D01*
X70382Y-33961D01*
X70337Y-33991D01*
X70250Y-34078D01*
X70174Y-34078D01*
X70141Y-34092D01*
X70126Y-34107D01*
X69664Y-34107D01*
X69665Y-34047D01*
X69624Y-33950D01*
X69550Y-33875D01*
X69457Y-33836D01*
X70853Y-33836D01*
X70861Y-33845D01*
X70901Y-33861D01*
X70945Y-33861D01*
X71299Y-33861D01*
X71340Y-33845D01*
X71371Y-33814D01*
X71387Y-33773D01*
X71388Y-33730D01*
X71388Y-33619D01*
X71379Y-33598D01*
X71387Y-33577D01*
X71388Y-33533D01*
X71388Y-33423D01*
X71379Y-33401D01*
X71387Y-33380D01*
X71388Y-33336D01*
X71388Y-33226D01*
X71379Y-33204D01*
X71387Y-33183D01*
X71388Y-33139D01*
X71388Y-33029D01*
X71379Y-33007D01*
X71387Y-32986D01*
X71388Y-32942D01*
X71388Y-32832D01*
X71379Y-32811D01*
X71387Y-32789D01*
X71388Y-32745D01*
X71388Y-32635D01*
X71379Y-32614D01*
X71387Y-32592D01*
X71388Y-32549D01*
X71388Y-32488D01*
X71492Y-32488D01*
X71514Y-32479D01*
X71535Y-32487D01*
X71579Y-32488D01*
X71689Y-32488D01*
X71711Y-32479D01*
X71732Y-32487D01*
X71776Y-32488D01*
X71886Y-32488D01*
X71907Y-32479D01*
X71929Y-32487D01*
X71972Y-32488D01*
X72083Y-32488D01*
X72123Y-32471D01*
X72154Y-32440D01*
X72171Y-32399D01*
X72171Y-32356D01*
X72171Y-32001D01*
X72154Y-31961D01*
X72146Y-31953D01*
X72146Y-31806D01*
X72146Y-31806D01*
X72135Y-31752D01*
X72135Y-31752D01*
X72125Y-31737D01*
X72105Y-31707D01*
X72105Y-31707D01*
X71791Y-31393D01*
X71791Y-31383D01*
X71798Y-31372D01*
X71813Y-31300D01*
X71798Y-31227D01*
X71791Y-31216D01*
X71791Y-31164D01*
X71777Y-31131D01*
X71752Y-31105D01*
X71719Y-31092D01*
X71683Y-31091D01*
X71526Y-31091D01*
X71493Y-31105D01*
X71489Y-31110D01*
X71400Y-31110D01*
X71399Y-31110D01*
X71387Y-31112D01*
X71327Y-31124D01*
X71274Y-31159D01*
X71222Y-31159D01*
X71125Y-31200D01*
X71050Y-31274D01*
X71010Y-31372D01*
X71009Y-31477D01*
X71050Y-31574D01*
X71065Y-31589D01*
X70776Y-31589D01*
X70699Y-31512D01*
X70699Y-31512D01*
X70699Y-31512D01*
X70147Y-30961D01*
X70102Y-30930D01*
X70048Y-30920D01*
X69865Y-30920D01*
X69865Y-30427D01*
X69809Y-30293D01*
X69707Y-30190D01*
X69572Y-30135D01*
X69427Y-30134D01*
X69293Y-30190D01*
X69190Y-30292D01*
X69135Y-30427D01*
X69134Y-30572D01*
X69190Y-30706D01*
X69292Y-30809D01*
X69427Y-30864D01*
X69572Y-30865D01*
X69706Y-30809D01*
X69809Y-30707D01*
X69864Y-30572D01*
X69865Y-30427D01*
X69865Y-30920D01*
X68865Y-30920D01*
X68865Y-30427D01*
X68809Y-30293D01*
X68707Y-30190D01*
X68572Y-30135D01*
X68427Y-30134D01*
X68293Y-30190D01*
X68190Y-30292D01*
X68135Y-30427D01*
X68134Y-30572D01*
X68190Y-30706D01*
X68292Y-30809D01*
X68427Y-30864D01*
X68572Y-30865D01*
X68706Y-30809D01*
X68809Y-30707D01*
X68864Y-30572D01*
X68865Y-30427D01*
X68865Y-30920D01*
X68117Y-30920D01*
X67865Y-30667D01*
X67865Y-30207D01*
X67851Y-30174D01*
X67826Y-30148D01*
X67792Y-30135D01*
X67757Y-30134D01*
X67207Y-30134D01*
X67174Y-30148D01*
X67148Y-30173D01*
X67135Y-30207D01*
X67134Y-30242D01*
X67134Y-30792D01*
X67148Y-30825D01*
X67173Y-30851D01*
X67207Y-30864D01*
X67242Y-30865D01*
X67667Y-30865D01*
X67882Y-31080D01*
X67277Y-31080D01*
X66837Y-30639D01*
X66864Y-30572D01*
X66865Y-30427D01*
X66809Y-30293D01*
X66707Y-30190D01*
X66572Y-30135D01*
X66427Y-30134D01*
X66293Y-30190D01*
X66190Y-30292D01*
X66135Y-30427D01*
X66134Y-30572D01*
X66190Y-30706D01*
X66292Y-30809D01*
X66427Y-30864D01*
X66572Y-30865D01*
X66639Y-30837D01*
X67042Y-31240D01*
X66437Y-31240D01*
X65837Y-30639D01*
X65864Y-30572D01*
X65865Y-30427D01*
X65809Y-30293D01*
X65707Y-30190D01*
X65572Y-30135D01*
X65427Y-30134D01*
X65293Y-30190D01*
X65190Y-30292D01*
X65135Y-30427D01*
X65134Y-30572D01*
X65190Y-30706D01*
X65243Y-30760D01*
X64957Y-30760D01*
X64837Y-30639D01*
X64864Y-30572D01*
X64865Y-30427D01*
X64809Y-30293D01*
X64707Y-30190D01*
X64572Y-30135D01*
X64427Y-30134D01*
X64293Y-30190D01*
X64190Y-30292D01*
X64135Y-30427D01*
X64134Y-30572D01*
X64190Y-30706D01*
X64292Y-30809D01*
X64427Y-30864D01*
X64572Y-30865D01*
X64639Y-30837D01*
X64722Y-30920D01*
X64117Y-30920D01*
X63837Y-30639D01*
X63864Y-30572D01*
X63865Y-30427D01*
X63809Y-30293D01*
X63707Y-30190D01*
X63572Y-30135D01*
X63427Y-30134D01*
X63293Y-30190D01*
X63190Y-30292D01*
X63135Y-30427D01*
X63134Y-30572D01*
X63190Y-30706D01*
X63292Y-30809D01*
X63415Y-30860D01*
X63057Y-30860D01*
X62837Y-30639D01*
X62864Y-30572D01*
X62865Y-30427D01*
X62809Y-30293D01*
X62707Y-30190D01*
X62572Y-30135D01*
X62427Y-30134D01*
X62293Y-30190D01*
X62190Y-30292D01*
X62135Y-30427D01*
X62134Y-30572D01*
X62190Y-30706D01*
X62292Y-30809D01*
X62427Y-30864D01*
X62572Y-30865D01*
X62639Y-30837D01*
X62901Y-31098D01*
X62946Y-31129D01*
X62946Y-31129D01*
X63000Y-31140D01*
X63692Y-31140D01*
X63871Y-31318D01*
X63916Y-31349D01*
X63916Y-31349D01*
X63970Y-31360D01*
X65483Y-31360D01*
X66082Y-31958D01*
X66082Y-31958D01*
X66112Y-31979D01*
X66127Y-31989D01*
X66127Y-31989D01*
X66181Y-32000D01*
X66181Y-32000D01*
X69659Y-32000D01*
X70637Y-32978D01*
X70625Y-32987D01*
X70594Y-33007D01*
X70525Y-33076D01*
X70500Y-33076D01*
X69515Y-33076D01*
X69515Y-32447D01*
X69474Y-32350D01*
X69400Y-32275D01*
X69302Y-32235D01*
X69197Y-32234D01*
X69100Y-32275D01*
X69065Y-32310D01*
X65328Y-32310D01*
X65265Y-32246D01*
X65265Y-32197D01*
X65224Y-32100D01*
X65150Y-32025D01*
X65052Y-31985D01*
X64947Y-31984D01*
X64850Y-32025D01*
X64775Y-32099D01*
X64735Y-32197D01*
X64734Y-32302D01*
X64775Y-32399D01*
X64849Y-32474D01*
X64947Y-32514D01*
X64996Y-32514D01*
X65115Y-32634D01*
X65115Y-32634D01*
X65177Y-32675D01*
X65250Y-32690D01*
X69065Y-32690D01*
X69099Y-32724D01*
X69197Y-32764D01*
X69302Y-32765D01*
X69399Y-32724D01*
X69474Y-32650D01*
X69514Y-32552D01*
X69515Y-32447D01*
X69515Y-33076D01*
X69051Y-33076D01*
X68998Y-33087D01*
X68983Y-33097D01*
X68952Y-33117D01*
X68870Y-33199D01*
X64743Y-33199D01*
X64740Y-33193D01*
X64715Y-33167D01*
X64682Y-33154D01*
X64646Y-33153D01*
X64624Y-33153D01*
X64471Y-33001D01*
X64426Y-32970D01*
X64373Y-32960D01*
X63814Y-32960D01*
X63874Y-32900D01*
X63914Y-32802D01*
X63915Y-32697D01*
X63874Y-32600D01*
X63800Y-32525D01*
X63702Y-32485D01*
X63597Y-32484D01*
X63500Y-32525D01*
X63425Y-32599D01*
X63392Y-32680D01*
X62858Y-32680D01*
X62380Y-32680D01*
X62230Y-32680D01*
X62157Y-32694D01*
X62095Y-32735D01*
X62095Y-32735D01*
X62072Y-32759D01*
X62101Y-32687D01*
X62102Y-32581D01*
X62061Y-32482D01*
X61986Y-32407D01*
X61888Y-32367D01*
X61782Y-32366D01*
X61683Y-32407D01*
X61608Y-32482D01*
X61568Y-32580D01*
X61567Y-32686D01*
X61608Y-32785D01*
X61683Y-32860D01*
X61781Y-32900D01*
X61887Y-32901D01*
X61960Y-32871D01*
X61921Y-32910D01*
X61500Y-32910D01*
X61427Y-32924D01*
X61365Y-32965D01*
X60865Y-33465D01*
X60844Y-33498D01*
X60844Y-32231D01*
X61163Y-32231D01*
X61196Y-32217D01*
X61222Y-32192D01*
X61235Y-32159D01*
X61236Y-32123D01*
X61236Y-31938D01*
X62236Y-31938D01*
X62236Y-32159D01*
X62250Y-32192D01*
X62275Y-32217D01*
X62309Y-32231D01*
X62344Y-32231D01*
X63328Y-32231D01*
X63361Y-32217D01*
X63387Y-32192D01*
X63400Y-32159D01*
X63401Y-32123D01*
X63401Y-31938D01*
X63633Y-31938D01*
X63633Y-32250D01*
X63647Y-32322D01*
X63654Y-32333D01*
X63654Y-32385D01*
X63668Y-32418D01*
X63693Y-32444D01*
X63726Y-32457D01*
X63762Y-32458D01*
X63919Y-32458D01*
X63952Y-32444D01*
X63977Y-32419D01*
X63991Y-32385D01*
X63991Y-32350D01*
X63991Y-32333D01*
X63998Y-32322D01*
X64013Y-32250D01*
X64013Y-31750D01*
X63998Y-31677D01*
X63991Y-31666D01*
X63991Y-31614D01*
X63977Y-31581D01*
X63952Y-31555D01*
X63919Y-31542D01*
X63883Y-31541D01*
X63726Y-31541D01*
X63693Y-31555D01*
X63691Y-31558D01*
X63401Y-31558D01*
X63401Y-31336D01*
X63387Y-31303D01*
X63362Y-31278D01*
X63328Y-31264D01*
X63293Y-31264D01*
X62309Y-31264D01*
X62276Y-31278D01*
X62250Y-31303D01*
X62237Y-31336D01*
X62236Y-31372D01*
X62236Y-31558D01*
X61865Y-31558D01*
X61865Y-30427D01*
X61809Y-30293D01*
X61707Y-30190D01*
X61572Y-30135D01*
X61427Y-30134D01*
X61293Y-30190D01*
X61190Y-30292D01*
X61135Y-30427D01*
X61134Y-30572D01*
X61190Y-30706D01*
X61292Y-30809D01*
X61427Y-30864D01*
X61572Y-30865D01*
X61706Y-30809D01*
X61809Y-30707D01*
X61864Y-30572D01*
X61865Y-30427D01*
X61865Y-31558D01*
X61236Y-31558D01*
X61236Y-31336D01*
X61222Y-31303D01*
X61197Y-31278D01*
X61163Y-31264D01*
X61128Y-31264D01*
X60865Y-31264D01*
X60865Y-30427D01*
X60809Y-30293D01*
X60707Y-30190D01*
X60572Y-30135D01*
X60427Y-30134D01*
X60293Y-30190D01*
X60190Y-30292D01*
X60135Y-30427D01*
X60134Y-30572D01*
X60190Y-30706D01*
X60292Y-30809D01*
X60427Y-30864D01*
X60572Y-30865D01*
X60706Y-30809D01*
X60809Y-30707D01*
X60864Y-30572D01*
X60865Y-30427D01*
X60865Y-31264D01*
X60144Y-31264D01*
X60111Y-31278D01*
X60109Y-31279D01*
X60109Y-30109D01*
X79890Y-30109D01*
X79890Y-36890D01*
G54D10*
G36*
X64970Y-36890D02*
X63871Y-36890D01*
X63871Y-36517D01*
X63850Y-36373D01*
X63836Y-36341D01*
X63791Y-36307D01*
X63598Y-36500D01*
X63791Y-36692D01*
X63836Y-36658D01*
X63871Y-36517D01*
X63871Y-36890D01*
X63692Y-36890D01*
X63692Y-36791D01*
X63500Y-36598D01*
X63401Y-36697D01*
X63401Y-36500D01*
X63208Y-36307D01*
X63163Y-36341D01*
X63128Y-36482D01*
X63149Y-36626D01*
X63163Y-36658D01*
X63208Y-36692D01*
X63401Y-36500D01*
X63401Y-36697D01*
X63307Y-36791D01*
X63341Y-36836D01*
X63482Y-36871D01*
X63626Y-36850D01*
X63658Y-36836D01*
X63692Y-36791D01*
X63692Y-36890D01*
X60865Y-36890D01*
X60865Y-36757D01*
X60865Y-36207D01*
X60851Y-36174D01*
X60826Y-36148D01*
X60792Y-36135D01*
X60757Y-36134D01*
X60207Y-36134D01*
X60174Y-36148D01*
X60148Y-36173D01*
X60135Y-36207D01*
X60134Y-36242D01*
X60134Y-36792D01*
X60148Y-36825D01*
X60173Y-36851D01*
X60207Y-36864D01*
X60242Y-36865D01*
X60792Y-36865D01*
X60825Y-36851D01*
X60851Y-36826D01*
X60864Y-36792D01*
X60865Y-36757D01*
X60865Y-36890D01*
X60109Y-36890D01*
X60109Y-36030D01*
X61701Y-36030D01*
X61589Y-36141D01*
X61572Y-36135D01*
X61427Y-36134D01*
X61293Y-36190D01*
X61190Y-36292D01*
X61135Y-36427D01*
X61134Y-36572D01*
X61190Y-36706D01*
X61292Y-36809D01*
X61427Y-36864D01*
X61572Y-36865D01*
X61706Y-36809D01*
X61809Y-36707D01*
X61864Y-36572D01*
X61865Y-36427D01*
X61858Y-36410D01*
X62078Y-36190D01*
X62294Y-36190D01*
X62293Y-36190D01*
X62190Y-36292D01*
X62135Y-36427D01*
X62134Y-36572D01*
X62190Y-36706D01*
X62292Y-36809D01*
X62427Y-36864D01*
X62572Y-36865D01*
X62706Y-36809D01*
X62809Y-36707D01*
X62864Y-36572D01*
X62865Y-36427D01*
X62809Y-36293D01*
X62707Y-36190D01*
X62705Y-36190D01*
X63321Y-36190D01*
X63307Y-36208D01*
X63500Y-36401D01*
X63692Y-36208D01*
X63658Y-36163D01*
X63609Y-36151D01*
X63634Y-36134D01*
X63738Y-36030D01*
X64772Y-36030D01*
X64639Y-36162D01*
X64572Y-36135D01*
X64427Y-36134D01*
X64293Y-36190D01*
X64190Y-36292D01*
X64135Y-36427D01*
X64134Y-36572D01*
X64190Y-36706D01*
X64292Y-36809D01*
X64427Y-36864D01*
X64572Y-36865D01*
X64706Y-36809D01*
X64809Y-36707D01*
X64864Y-36572D01*
X64865Y-36427D01*
X64837Y-36360D01*
X64970Y-36227D01*
X64970Y-36890D01*
X64970Y-36890D01*
G37*
G54D33*
X64970Y-36890D02*
X63871Y-36890D01*
X63871Y-36517D01*
X63850Y-36373D01*
X63836Y-36341D01*
X63791Y-36307D01*
X63598Y-36500D01*
X63791Y-36692D01*
X63836Y-36658D01*
X63871Y-36517D01*
X63871Y-36890D01*
X63692Y-36890D01*
X63692Y-36791D01*
X63500Y-36598D01*
X63401Y-36697D01*
X63401Y-36500D01*
X63208Y-36307D01*
X63163Y-36341D01*
X63128Y-36482D01*
X63149Y-36626D01*
X63163Y-36658D01*
X63208Y-36692D01*
X63401Y-36500D01*
X63401Y-36697D01*
X63307Y-36791D01*
X63341Y-36836D01*
X63482Y-36871D01*
X63626Y-36850D01*
X63658Y-36836D01*
X63692Y-36791D01*
X63692Y-36890D01*
X60865Y-36890D01*
X60865Y-36757D01*
X60865Y-36207D01*
X60851Y-36174D01*
X60826Y-36148D01*
X60792Y-36135D01*
X60757Y-36134D01*
X60207Y-36134D01*
X60174Y-36148D01*
X60148Y-36173D01*
X60135Y-36207D01*
X60134Y-36242D01*
X60134Y-36792D01*
X60148Y-36825D01*
X60173Y-36851D01*
X60207Y-36864D01*
X60242Y-36865D01*
X60792Y-36865D01*
X60825Y-36851D01*
X60851Y-36826D01*
X60864Y-36792D01*
X60865Y-36757D01*
X60865Y-36890D01*
X60109Y-36890D01*
X60109Y-36030D01*
X61701Y-36030D01*
X61589Y-36141D01*
X61572Y-36135D01*
X61427Y-36134D01*
X61293Y-36190D01*
X61190Y-36292D01*
X61135Y-36427D01*
X61134Y-36572D01*
X61190Y-36706D01*
X61292Y-36809D01*
X61427Y-36864D01*
X61572Y-36865D01*
X61706Y-36809D01*
X61809Y-36707D01*
X61864Y-36572D01*
X61865Y-36427D01*
X61858Y-36410D01*
X62078Y-36190D01*
X62294Y-36190D01*
X62293Y-36190D01*
X62190Y-36292D01*
X62135Y-36427D01*
X62134Y-36572D01*
X62190Y-36706D01*
X62292Y-36809D01*
X62427Y-36864D01*
X62572Y-36865D01*
X62706Y-36809D01*
X62809Y-36707D01*
X62864Y-36572D01*
X62865Y-36427D01*
X62809Y-36293D01*
X62707Y-36190D01*
X62705Y-36190D01*
X63321Y-36190D01*
X63307Y-36208D01*
X63500Y-36401D01*
X63692Y-36208D01*
X63658Y-36163D01*
X63609Y-36151D01*
X63634Y-36134D01*
X63738Y-36030D01*
X64772Y-36030D01*
X64639Y-36162D01*
X64572Y-36135D01*
X64427Y-36134D01*
X64293Y-36190D01*
X64190Y-36292D01*
X64135Y-36427D01*
X64134Y-36572D01*
X64190Y-36706D01*
X64292Y-36809D01*
X64427Y-36864D01*
X64572Y-36865D01*
X64706Y-36809D01*
X64809Y-36707D01*
X64864Y-36572D01*
X64865Y-36427D01*
X64837Y-36360D01*
X64970Y-36227D01*
X64970Y-36890D01*
M02*
