M48
;DRILL file {Pcbnew (2013-june-11)-stable} date Mon 20 Jan 2014 10:47:40 PM PST
;FORMAT={-:-/ absolute / inch / decimal}
FMAT,2
INCH,TZ
T1C0.013
T2C0.025
T3C0.032
T4C0.035
T5C0.040
%
G90
G05
M72
T1
X6.14Y-3.37
X6.17Y-3.34
X6.805Y-3.43
X6.88Y-3.52
X6.88Y-3.555
X6.89Y-3.485
X6.895Y-3.585
X6.915Y-3.615
X6.915Y-3.645
X6.93Y-3.485
X6.935Y-3.675
X6.97Y-3.485
X6.98Y-3.675
X7.002Y-3.398
X7.015Y-3.485
X7.025Y-3.675
X7.06Y-3.485
X7.07Y-3.675
X7.075Y-3.525
X7.083Y-3.135
X7.09Y-3.555
X7.1Y-3.495
X7.115Y-3.675
X7.12Y-3.545
X7.125Y-3.475
X7.135Y-3.635
X7.155Y-3.6
X7.185Y-3.575
X7.21Y-3.16
X7.23Y-3.14
X7.256Y-3.159
X7.46Y-3.42
X7.48Y-3.445
T2
X6.1Y-3.425
X6.365Y-3.275
X6.365Y-3.34
X6.425Y-3.45
X6.5Y-3.225
X6.925Y-3.25
X6.94Y-3.41
X7.1275Y-3.1425
X7.18Y-3.64
X7.49Y-3.23
X7.59Y-3.13
X7.62Y-3.45
X7.72Y-3.31
T3
X6.05Y-3.05
X6.05Y-3.65
X6.15Y-3.05
X6.15Y-3.65
X6.25Y-3.05
X6.25Y-3.65
X6.35Y-3.05
X6.35Y-3.65
X6.45Y-3.05
X6.45Y-3.65
X6.55Y-3.05
X6.55Y-3.65
X6.65Y-3.05
X6.65Y-3.65
X6.75Y-3.05
X6.75Y-3.65
X6.85Y-3.05
X6.85Y-3.65
X6.95Y-3.05
X7.05Y-3.05
X7.15Y-3.05
X7.25Y-3.05
X7.25Y-3.65
X7.35Y-3.05
X7.35Y-3.65
X7.45Y-3.05
X7.45Y-3.65
X7.55Y-3.05
X7.55Y-3.65
X7.65Y-3.05
X7.65Y-3.65
X7.75Y-3.05
X7.75Y-3.65
X7.85Y-3.05
X7.85Y-3.65
X7.95Y-3.05
X7.95Y-3.65
T4
X6.1835Y-3.2634
X6.1835Y-3.4366
T5
X7.85Y-3.25
X7.85Y-3.35
X7.85Y-3.45
X7.95Y-3.25
X7.95Y-3.35
X7.95Y-3.45
T0
M30
