G04 (created by PCBNEW (2013-june-11)-stable) date Mon 20 Jan 2014 10:47:38 PM PST*
%MOIN*%
G04 Gerber Fmt 3.4, Leading zero omitted, Abs format*
%FSLAX34Y34*%
G01*
G70*
G90*
G04 APERTURE LIST*
%ADD10C,0.00590551*%
%ADD11C,0.02*%
%ADD12C,0.0472*%
%ADD13R,0.055X0.055*%
%ADD14C,0.055*%
%ADD15R,0.06X0.06*%
%ADD16C,0.06*%
G04 APERTURE END LIST*
G54D10*
G54D11*
X70020Y-33980D03*
X71200Y-35450D03*
X71350Y-36350D03*
X69300Y-34850D03*
X68800Y-35200D03*
X69800Y-36750D03*
X68800Y-35550D03*
X68900Y-34850D03*
X69350Y-36750D03*
X70700Y-36750D03*
X71150Y-36750D03*
X71850Y-35750D03*
X69150Y-36150D03*
X70250Y-36750D03*
X68950Y-35850D03*
X69150Y-36450D03*
X72100Y-31600D03*
X70600Y-34850D03*
X71550Y-36000D03*
X70150Y-34850D03*
X69700Y-34850D03*
X70750Y-35250D03*
G54D12*
X61835Y-32634D03*
X61835Y-34366D03*
G54D13*
X72500Y-36500D03*
G54D14*
X73500Y-36500D03*
X74500Y-36500D03*
X75500Y-36500D03*
X76500Y-36500D03*
X77500Y-36500D03*
X78500Y-36500D03*
X79500Y-36500D03*
G54D13*
X65500Y-36500D03*
G54D14*
X66500Y-36500D03*
X67500Y-36500D03*
X68500Y-36500D03*
G54D15*
X78500Y-32500D03*
G54D16*
X79500Y-32500D03*
X78500Y-33500D03*
X79500Y-33500D03*
X78500Y-34500D03*
X79500Y-34500D03*
G54D13*
X60500Y-36500D03*
G54D14*
X61500Y-36500D03*
X62500Y-36500D03*
X63500Y-36500D03*
X64500Y-36500D03*
G54D13*
X79500Y-30500D03*
G54D14*
X78500Y-30500D03*
X77500Y-30500D03*
X76500Y-30500D03*
G54D13*
X67500Y-30500D03*
G54D14*
X66500Y-30500D03*
X65500Y-30500D03*
X64500Y-30500D03*
X63500Y-30500D03*
X62500Y-30500D03*
X61500Y-30500D03*
X60500Y-30500D03*
G54D13*
X75500Y-30500D03*
G54D14*
X74500Y-30500D03*
X73500Y-30500D03*
X72500Y-30500D03*
X71500Y-30500D03*
X70500Y-30500D03*
X69500Y-30500D03*
X68500Y-30500D03*
G54D11*
X70900Y-35550D03*
X70830Y-31350D03*
M02*
