G04 (created by PCBNEW (2013-june-11)-stable) date Wed 19 Feb 2014 08:18:19 PM PST*
%MOIN*%
G04 Gerber Fmt 3.4, Leading zero omitted, Abs format*
%FSLAX34Y34*%
G01*
G70*
G90*
G04 APERTURE LIST*
%ADD10C,0.00590551*%
%ADD11R,0.055X0.055*%
%ADD12C,0.06*%
%ADD13C,0.055*%
%ADD14R,0.06X0.06*%
%ADD15C,0.0354*%
G04 APERTURE END LIST*
G54D10*
G54D11*
X72500Y-36500D03*
G54D12*
X73500Y-36500D03*
G54D13*
X74500Y-36500D03*
G54D12*
X75500Y-36500D03*
X76500Y-36500D03*
X77500Y-36500D03*
X78500Y-36500D03*
X79500Y-36500D03*
G54D14*
X65500Y-36500D03*
G54D12*
X66500Y-36500D03*
X67500Y-36500D03*
X68500Y-36500D03*
G54D14*
X60500Y-36500D03*
G54D12*
X61500Y-36500D03*
X62500Y-36500D03*
X63500Y-36500D03*
X64500Y-36500D03*
G54D14*
X79500Y-30500D03*
G54D12*
X78500Y-30500D03*
X77500Y-30500D03*
X76500Y-30500D03*
G54D14*
X75500Y-30500D03*
G54D12*
X74500Y-30500D03*
X73500Y-30500D03*
G54D13*
X72500Y-30500D03*
X71500Y-30500D03*
X70500Y-30500D03*
G54D12*
X69500Y-30500D03*
X68500Y-30500D03*
G54D14*
X67500Y-30500D03*
G54D12*
X66500Y-30500D03*
G54D13*
X65500Y-30500D03*
G54D12*
X64500Y-30500D03*
X63500Y-30500D03*
X62500Y-30500D03*
X61500Y-30500D03*
X60500Y-30500D03*
G54D15*
X61835Y-32634D03*
X61835Y-34366D03*
G54D14*
X78500Y-32500D03*
G54D12*
X79500Y-32500D03*
X78500Y-33500D03*
X79500Y-33500D03*
X78500Y-34500D03*
X79500Y-34500D03*
M02*
