G04 (created by PCBNEW (2013-june-11)-stable) date Mon 17 Feb 2014 12:31:12 PM PST*
%MOIN*%
G04 Gerber Fmt 3.4, Leading zero omitted, Abs format*
%FSLAX34Y34*%
G01*
G70*
G90*
G04 APERTURE LIST*
%ADD10C,0.00590551*%
%ADD11R,0.035X0.055*%
%ADD12R,0.0354331X0.0314961*%
%ADD13R,0.0906X0.0197*%
%ADD14R,0.0984X0.0787*%
%ADD15R,0.0177X0.0118*%
%ADD16R,0.0452756X0.0551181*%
%ADD17R,0.025X0.045*%
%ADD18R,0.0157X0.0236*%
%ADD19R,0.0236X0.0157*%
%ADD20R,0.03543X0.01102*%
%ADD21R,0.01102X0.03543*%
%ADD22R,0.18503X0.18503*%
G04 APERTURE END LIST*
G54D10*
G54D11*
X77475Y-34500D03*
X76725Y-34500D03*
G54D12*
X63811Y-34106D03*
X63811Y-34893D03*
X64677Y-34500D03*
G54D13*
X62858Y-32870D03*
X62858Y-33185D03*
X62858Y-33500D03*
X62858Y-33815D03*
X62858Y-34130D03*
G54D14*
X62819Y-31748D03*
X60654Y-31748D03*
X62819Y-35252D03*
X60654Y-35252D03*
G54D15*
X64024Y-33303D03*
X64024Y-33697D03*
X64576Y-33303D03*
X64024Y-33500D03*
X64576Y-33697D03*
G54D16*
X70279Y-36250D03*
X70279Y-35383D03*
X69650Y-35383D03*
X69650Y-36250D03*
G54D17*
X77550Y-33750D03*
X76950Y-33750D03*
G54D18*
X63823Y-32250D03*
X64177Y-32250D03*
G54D19*
X77700Y-32723D03*
X77700Y-33077D03*
G54D18*
X64177Y-31750D03*
X63823Y-31750D03*
X63823Y-35500D03*
X64177Y-35500D03*
X64927Y-35500D03*
X64573Y-35500D03*
X72173Y-35700D03*
X72527Y-35700D03*
G54D19*
X74400Y-32673D03*
X74400Y-33027D03*
G54D18*
X71623Y-31300D03*
X71977Y-31300D03*
G54D19*
X70310Y-34247D03*
X70310Y-33893D03*
X69150Y-35577D03*
X69150Y-35223D03*
X70800Y-36073D03*
X70800Y-36427D03*
G54D20*
X73699Y-34484D03*
X73699Y-34287D03*
X73699Y-34090D03*
X73699Y-33893D03*
X73699Y-33696D03*
X73699Y-33500D03*
X73699Y-33303D03*
X73699Y-33106D03*
X73699Y-32909D03*
X73699Y-32712D03*
X73699Y-32515D03*
G54D21*
X73384Y-32200D03*
X73187Y-32200D03*
X72990Y-32200D03*
X72793Y-32200D03*
X72596Y-32200D03*
X72400Y-32200D03*
X72203Y-32200D03*
X72006Y-32200D03*
X71809Y-32200D03*
X71612Y-32200D03*
X71415Y-32200D03*
G54D20*
X71100Y-32515D03*
X71100Y-32712D03*
X71100Y-32909D03*
X71100Y-33106D03*
X71100Y-33303D03*
X71100Y-33500D03*
X71100Y-33696D03*
X71100Y-33893D03*
X71100Y-34090D03*
X71100Y-34287D03*
X71100Y-34484D03*
G54D21*
X71415Y-34799D03*
X71612Y-34799D03*
X71809Y-34799D03*
X72006Y-34799D03*
X72203Y-34799D03*
X72400Y-34799D03*
X72596Y-34799D03*
X72793Y-34799D03*
X72990Y-34799D03*
X73187Y-34799D03*
X73384Y-34799D03*
G54D22*
X72400Y-33500D03*
G54D17*
X61450Y-35675D03*
X62050Y-35675D03*
M02*
