G04 (created by PCBNEW (2013-june-11)-stable) date Sat 02 Aug 2014 12:41:53 PM PDT*
%MOIN*%
G04 Gerber Fmt 3.4, Leading zero omitted, Abs format*
%FSLAX34Y34*%
G01*
G70*
G90*
G04 APERTURE LIST*
%ADD10C,0.00590551*%
%ADD11R,0.0251968X0.0275591*%
%ADD12R,0.0610236X0.0216535*%
%ADD13R,0.0275591X0.0275591*%
%ADD14R,0.0224409X0.0570866*%
%ADD15R,0.0204724X0.0649606*%
%ADD16R,0.0224409X0.0771654*%
%ADD17R,0.0511811X0.0177165*%
%ADD18R,0.0224409X0.0728346*%
%ADD19R,0.0204724X0.0322835*%
%ADD20R,0.0204724X0.0452756*%
%ADD21R,0.0397638X0.0669291*%
%ADD22R,0.0787402X0.0472441*%
%ADD23R,0.055X0.055*%
%ADD24C,0.055*%
%ADD25C,0.035*%
%ADD26C,0.01*%
%ADD27C,0.006*%
G04 APERTURE END LIST*
G54D10*
G54D11*
X108516Y-43479D03*
X108950Y-43479D03*
X109383Y-43479D03*
X109816Y-43479D03*
X110249Y-43479D03*
X110682Y-43479D03*
X111115Y-43479D03*
X111548Y-43479D03*
G54D12*
X111507Y-46147D03*
G54D13*
X110761Y-45920D03*
G54D14*
X106818Y-40635D03*
G54D15*
X106808Y-43361D03*
G54D16*
X106818Y-45987D03*
G54D17*
X107324Y-46100D03*
G54D18*
X112192Y-46009D03*
G54D19*
X112201Y-44716D03*
G54D20*
X112201Y-43846D03*
G54D21*
X111995Y-40684D03*
G54D22*
X113000Y-40600D03*
G54D23*
X106000Y-41500D03*
G54D24*
X106000Y-42500D03*
X106000Y-43500D03*
X106000Y-44500D03*
X106000Y-45500D03*
G54D23*
X113000Y-45500D03*
G54D24*
X113000Y-44500D03*
X113000Y-43500D03*
X113000Y-42500D03*
X113000Y-41500D03*
G54D25*
X109650Y-43000D03*
X112500Y-40750D03*
X110750Y-45400D03*
X108200Y-40600D03*
X111250Y-41950D03*
X107300Y-42950D03*
X112150Y-45050D03*
X110600Y-42950D03*
X107700Y-40600D03*
X106300Y-40650D03*
X110800Y-41950D03*
G54D26*
X109816Y-43479D02*
X109816Y-43166D01*
X109816Y-43166D02*
X109650Y-43000D01*
X112650Y-40600D02*
X113000Y-40600D01*
X112500Y-40750D02*
X112650Y-40600D01*
X108950Y-43479D02*
X108950Y-43350D01*
X106717Y-44500D02*
X106000Y-44500D01*
X108067Y-43150D02*
X106717Y-44500D01*
X108750Y-43150D02*
X108067Y-43150D01*
X108950Y-43350D02*
X108750Y-43150D01*
X110249Y-43479D02*
X110249Y-42750D01*
X110500Y-42500D02*
X113000Y-42500D01*
X110249Y-42750D02*
X110500Y-42500D01*
X109383Y-43479D02*
X109383Y-43383D01*
X106350Y-43850D02*
X106000Y-43500D01*
X107084Y-43850D02*
X106350Y-43850D01*
X107984Y-42949D02*
X107084Y-43850D01*
X108949Y-42949D02*
X107984Y-42949D01*
X109383Y-43383D02*
X108949Y-42949D01*
X111115Y-43479D02*
X111115Y-43384D01*
X112800Y-44300D02*
X113000Y-44500D01*
X112000Y-44300D02*
X112800Y-44300D01*
X111850Y-44150D02*
X112000Y-44300D01*
X111850Y-43200D02*
X111850Y-44150D01*
X111800Y-43150D02*
X111850Y-43200D01*
X111350Y-43150D02*
X111800Y-43150D01*
X111115Y-43384D02*
X111350Y-43150D01*
X111548Y-43479D02*
X111548Y-44998D01*
X112950Y-45450D02*
X113000Y-45500D01*
X112000Y-45450D02*
X112950Y-45450D01*
X111548Y-44998D02*
X112000Y-45450D01*
X108516Y-43479D02*
X108020Y-43479D01*
X108020Y-43479D02*
X106000Y-45500D01*
X110761Y-45920D02*
X110761Y-45411D01*
X110761Y-45411D02*
X110750Y-45400D01*
X111250Y-41950D02*
X111250Y-41900D01*
X108349Y-40749D02*
X108200Y-40600D01*
X109882Y-40749D02*
X108349Y-40749D01*
X110741Y-41608D02*
X109882Y-40749D01*
X110958Y-41608D02*
X110741Y-41608D01*
X111250Y-41900D02*
X110958Y-41608D01*
X107300Y-42950D02*
X107220Y-42950D01*
X107220Y-42950D02*
X106808Y-43361D01*
X112150Y-45050D02*
X112150Y-44768D01*
X112150Y-44768D02*
X112201Y-44716D01*
X110682Y-43479D02*
X110682Y-43032D01*
X110682Y-43032D02*
X110600Y-42950D01*
X108350Y-40950D02*
X109800Y-40950D01*
X108350Y-40950D02*
X108050Y-40950D01*
X108050Y-40950D02*
X107700Y-40600D01*
X106300Y-40650D02*
X106450Y-40800D01*
X106450Y-40800D02*
X106450Y-42050D01*
X106000Y-42500D02*
X106450Y-42050D01*
X109800Y-40950D02*
X110800Y-41950D01*
G54D10*
G36*
X113390Y-42384D02*
X113343Y-42270D01*
X113229Y-42156D01*
X113080Y-42095D01*
X112919Y-42094D01*
X112770Y-42156D01*
X112656Y-42270D01*
X112636Y-42320D01*
X110500Y-42320D01*
X110431Y-42333D01*
X110372Y-42372D01*
X110121Y-42623D01*
X110082Y-42681D01*
X110069Y-42750D01*
X110069Y-43223D01*
X110049Y-43231D01*
X110032Y-43248D01*
X110015Y-43231D01*
X109996Y-43223D01*
X109996Y-43166D01*
X109982Y-43097D01*
X109954Y-43056D01*
X109955Y-42939D01*
X109908Y-42827D01*
X109822Y-42741D01*
X109710Y-42695D01*
X109589Y-42694D01*
X109477Y-42741D01*
X109391Y-42827D01*
X109345Y-42939D01*
X109344Y-43060D01*
X109366Y-43111D01*
X109077Y-42822D01*
X109018Y-42783D01*
X108949Y-42769D01*
X107984Y-42769D01*
X107915Y-42783D01*
X107857Y-42822D01*
X107009Y-43670D01*
X106424Y-43670D01*
X106384Y-43629D01*
X106404Y-43580D01*
X106405Y-43419D01*
X106343Y-43270D01*
X106229Y-43156D01*
X106080Y-43095D01*
X105919Y-43094D01*
X105770Y-43156D01*
X105656Y-43270D01*
X105609Y-43383D01*
X105609Y-42615D01*
X105656Y-42729D01*
X105770Y-42843D01*
X105919Y-42904D01*
X106080Y-42905D01*
X106229Y-42843D01*
X106343Y-42729D01*
X106404Y-42580D01*
X106405Y-42419D01*
X106384Y-42370D01*
X106577Y-42177D01*
X106616Y-42118D01*
X106630Y-42050D01*
X106630Y-40800D01*
X106616Y-40731D01*
X106604Y-40712D01*
X106604Y-40710D01*
X106605Y-40589D01*
X106558Y-40477D01*
X106472Y-40391D01*
X106396Y-40359D01*
X107509Y-40359D01*
X107441Y-40427D01*
X107395Y-40539D01*
X107394Y-40660D01*
X107441Y-40772D01*
X107527Y-40858D01*
X107639Y-40904D01*
X107750Y-40905D01*
X107922Y-41077D01*
X107922Y-41077D01*
X107961Y-41103D01*
X107981Y-41116D01*
X107981Y-41116D01*
X108049Y-41129D01*
X108050Y-41130D01*
X108350Y-41130D01*
X109725Y-41130D01*
X110495Y-41899D01*
X110494Y-42010D01*
X110541Y-42122D01*
X110627Y-42208D01*
X110739Y-42254D01*
X110860Y-42255D01*
X110972Y-42208D01*
X111025Y-42156D01*
X111077Y-42208D01*
X111189Y-42254D01*
X111310Y-42255D01*
X111422Y-42208D01*
X111508Y-42122D01*
X111554Y-42010D01*
X111555Y-41889D01*
X111508Y-41777D01*
X111422Y-41691D01*
X111310Y-41645D01*
X111249Y-41644D01*
X111085Y-41481D01*
X111027Y-41442D01*
X110958Y-41428D01*
X110815Y-41428D01*
X110010Y-40622D01*
X109951Y-40583D01*
X109882Y-40569D01*
X108505Y-40569D01*
X108505Y-40539D01*
X108458Y-40427D01*
X108391Y-40359D01*
X112476Y-40359D01*
X112476Y-40389D01*
X112476Y-40444D01*
X112439Y-40444D01*
X112327Y-40491D01*
X112241Y-40577D01*
X112195Y-40689D01*
X112194Y-40810D01*
X112241Y-40922D01*
X112327Y-41008D01*
X112439Y-41054D01*
X112560Y-41055D01*
X112672Y-41008D01*
X112715Y-40966D01*
X113390Y-40966D01*
X113390Y-41384D01*
X113343Y-41270D01*
X113229Y-41156D01*
X113080Y-41095D01*
X112919Y-41094D01*
X112770Y-41156D01*
X112656Y-41270D01*
X112595Y-41419D01*
X112594Y-41580D01*
X112656Y-41729D01*
X112770Y-41843D01*
X112919Y-41904D01*
X113080Y-41905D01*
X113229Y-41843D01*
X113343Y-41729D01*
X113390Y-41616D01*
X113390Y-42384D01*
X113390Y-42384D01*
G37*
G54D27*
X113390Y-42384D02*
X113343Y-42270D01*
X113229Y-42156D01*
X113080Y-42095D01*
X112919Y-42094D01*
X112770Y-42156D01*
X112656Y-42270D01*
X112636Y-42320D01*
X110500Y-42320D01*
X110431Y-42333D01*
X110372Y-42372D01*
X110121Y-42623D01*
X110082Y-42681D01*
X110069Y-42750D01*
X110069Y-43223D01*
X110049Y-43231D01*
X110032Y-43248D01*
X110015Y-43231D01*
X109996Y-43223D01*
X109996Y-43166D01*
X109982Y-43097D01*
X109954Y-43056D01*
X109955Y-42939D01*
X109908Y-42827D01*
X109822Y-42741D01*
X109710Y-42695D01*
X109589Y-42694D01*
X109477Y-42741D01*
X109391Y-42827D01*
X109345Y-42939D01*
X109344Y-43060D01*
X109366Y-43111D01*
X109077Y-42822D01*
X109018Y-42783D01*
X108949Y-42769D01*
X107984Y-42769D01*
X107915Y-42783D01*
X107857Y-42822D01*
X107009Y-43670D01*
X106424Y-43670D01*
X106384Y-43629D01*
X106404Y-43580D01*
X106405Y-43419D01*
X106343Y-43270D01*
X106229Y-43156D01*
X106080Y-43095D01*
X105919Y-43094D01*
X105770Y-43156D01*
X105656Y-43270D01*
X105609Y-43383D01*
X105609Y-42615D01*
X105656Y-42729D01*
X105770Y-42843D01*
X105919Y-42904D01*
X106080Y-42905D01*
X106229Y-42843D01*
X106343Y-42729D01*
X106404Y-42580D01*
X106405Y-42419D01*
X106384Y-42370D01*
X106577Y-42177D01*
X106616Y-42118D01*
X106630Y-42050D01*
X106630Y-40800D01*
X106616Y-40731D01*
X106604Y-40712D01*
X106604Y-40710D01*
X106605Y-40589D01*
X106558Y-40477D01*
X106472Y-40391D01*
X106396Y-40359D01*
X107509Y-40359D01*
X107441Y-40427D01*
X107395Y-40539D01*
X107394Y-40660D01*
X107441Y-40772D01*
X107527Y-40858D01*
X107639Y-40904D01*
X107750Y-40905D01*
X107922Y-41077D01*
X107922Y-41077D01*
X107961Y-41103D01*
X107981Y-41116D01*
X107981Y-41116D01*
X108049Y-41129D01*
X108050Y-41130D01*
X108350Y-41130D01*
X109725Y-41130D01*
X110495Y-41899D01*
X110494Y-42010D01*
X110541Y-42122D01*
X110627Y-42208D01*
X110739Y-42254D01*
X110860Y-42255D01*
X110972Y-42208D01*
X111025Y-42156D01*
X111077Y-42208D01*
X111189Y-42254D01*
X111310Y-42255D01*
X111422Y-42208D01*
X111508Y-42122D01*
X111554Y-42010D01*
X111555Y-41889D01*
X111508Y-41777D01*
X111422Y-41691D01*
X111310Y-41645D01*
X111249Y-41644D01*
X111085Y-41481D01*
X111027Y-41442D01*
X110958Y-41428D01*
X110815Y-41428D01*
X110010Y-40622D01*
X109951Y-40583D01*
X109882Y-40569D01*
X108505Y-40569D01*
X108505Y-40539D01*
X108458Y-40427D01*
X108391Y-40359D01*
X112476Y-40359D01*
X112476Y-40389D01*
X112476Y-40444D01*
X112439Y-40444D01*
X112327Y-40491D01*
X112241Y-40577D01*
X112195Y-40689D01*
X112194Y-40810D01*
X112241Y-40922D01*
X112327Y-41008D01*
X112439Y-41054D01*
X112560Y-41055D01*
X112672Y-41008D01*
X112715Y-40966D01*
X113390Y-40966D01*
X113390Y-41384D01*
X113343Y-41270D01*
X113229Y-41156D01*
X113080Y-41095D01*
X112919Y-41094D01*
X112770Y-41156D01*
X112656Y-41270D01*
X112595Y-41419D01*
X112594Y-41580D01*
X112656Y-41729D01*
X112770Y-41843D01*
X112919Y-41904D01*
X113080Y-41905D01*
X113229Y-41843D01*
X113343Y-41729D01*
X113390Y-41616D01*
X113390Y-42384D01*
G54D10*
G36*
X113390Y-45163D02*
X113385Y-45151D01*
X113348Y-45114D01*
X113300Y-45095D01*
X113249Y-45094D01*
X112699Y-45094D01*
X112651Y-45114D01*
X112614Y-45151D01*
X112595Y-45199D01*
X112594Y-45250D01*
X112594Y-45270D01*
X112074Y-45270D01*
X111728Y-44923D01*
X111728Y-44282D01*
X111872Y-44427D01*
X111931Y-44466D01*
X112000Y-44480D01*
X112595Y-44480D01*
X112594Y-44580D01*
X112656Y-44729D01*
X112770Y-44843D01*
X112919Y-44904D01*
X113080Y-44905D01*
X113229Y-44843D01*
X113343Y-44729D01*
X113390Y-44616D01*
X113390Y-45163D01*
X113390Y-45163D01*
G37*
G54D27*
X113390Y-45163D02*
X113385Y-45151D01*
X113348Y-45114D01*
X113300Y-45095D01*
X113249Y-45094D01*
X112699Y-45094D01*
X112651Y-45114D01*
X112614Y-45151D01*
X112595Y-45199D01*
X112594Y-45250D01*
X112594Y-45270D01*
X112074Y-45270D01*
X111728Y-44923D01*
X111728Y-44282D01*
X111872Y-44427D01*
X111931Y-44466D01*
X112000Y-44480D01*
X112595Y-44480D01*
X112594Y-44580D01*
X112656Y-44729D01*
X112770Y-44843D01*
X112919Y-44904D01*
X113080Y-44905D01*
X113229Y-44843D01*
X113343Y-44729D01*
X113390Y-44616D01*
X113390Y-45163D01*
G54D10*
G36*
X113390Y-46390D02*
X111055Y-46390D01*
X111055Y-45339D01*
X111008Y-45227D01*
X110922Y-45141D01*
X110810Y-45095D01*
X110689Y-45094D01*
X110577Y-45141D01*
X110491Y-45227D01*
X110445Y-45339D01*
X110444Y-45460D01*
X110491Y-45572D01*
X110577Y-45658D01*
X110580Y-45659D01*
X110549Y-45672D01*
X110513Y-45709D01*
X110493Y-45757D01*
X110493Y-45808D01*
X110493Y-46084D01*
X110512Y-46132D01*
X110549Y-46168D01*
X110597Y-46188D01*
X110648Y-46188D01*
X110924Y-46188D01*
X110972Y-46168D01*
X111008Y-46132D01*
X111028Y-46084D01*
X111028Y-46032D01*
X111028Y-45757D01*
X111009Y-45709D01*
X110972Y-45672D01*
X110941Y-45659D01*
X110941Y-45640D01*
X111008Y-45572D01*
X111054Y-45460D01*
X111055Y-45339D01*
X111055Y-46390D01*
X107709Y-46390D01*
X107709Y-46162D01*
X107709Y-45985D01*
X107690Y-45937D01*
X107653Y-45901D01*
X107605Y-45881D01*
X107554Y-45881D01*
X107042Y-45881D01*
X106994Y-45901D01*
X106957Y-45937D01*
X106938Y-45985D01*
X106938Y-46037D01*
X106938Y-46214D01*
X106957Y-46262D01*
X106994Y-46298D01*
X107042Y-46318D01*
X107093Y-46318D01*
X107605Y-46318D01*
X107653Y-46298D01*
X107690Y-46262D01*
X107709Y-46214D01*
X107709Y-46162D01*
X107709Y-46390D01*
X105609Y-46390D01*
X105609Y-45615D01*
X105656Y-45729D01*
X105770Y-45843D01*
X105919Y-45904D01*
X106080Y-45905D01*
X106229Y-45843D01*
X106343Y-45729D01*
X106404Y-45580D01*
X106405Y-45419D01*
X106384Y-45370D01*
X108094Y-43659D01*
X108267Y-43659D01*
X108280Y-43691D01*
X108317Y-43727D01*
X108364Y-43747D01*
X108416Y-43747D01*
X108668Y-43747D01*
X108716Y-43727D01*
X108733Y-43711D01*
X108750Y-43727D01*
X108798Y-43747D01*
X108849Y-43747D01*
X109101Y-43747D01*
X109149Y-43727D01*
X109166Y-43711D01*
X109183Y-43727D01*
X109231Y-43747D01*
X109282Y-43747D01*
X109534Y-43747D01*
X109582Y-43727D01*
X109599Y-43711D01*
X109616Y-43727D01*
X109664Y-43747D01*
X109715Y-43747D01*
X109967Y-43747D01*
X110015Y-43727D01*
X110032Y-43711D01*
X110049Y-43727D01*
X110097Y-43747D01*
X110148Y-43747D01*
X110400Y-43747D01*
X110448Y-43727D01*
X110485Y-43691D01*
X110505Y-43643D01*
X110505Y-43591D01*
X110505Y-43316D01*
X110485Y-43268D01*
X110448Y-43231D01*
X110429Y-43223D01*
X110429Y-42825D01*
X110574Y-42680D01*
X112636Y-42680D01*
X112656Y-42729D01*
X112770Y-42843D01*
X112919Y-42904D01*
X113080Y-42905D01*
X113229Y-42843D01*
X113343Y-42729D01*
X113390Y-42616D01*
X113390Y-44384D01*
X113371Y-44339D01*
X113371Y-43517D01*
X113350Y-43373D01*
X113336Y-43341D01*
X113291Y-43307D01*
X113192Y-43406D01*
X113192Y-43208D01*
X113158Y-43163D01*
X113017Y-43128D01*
X112873Y-43149D01*
X112841Y-43163D01*
X112807Y-43208D01*
X113000Y-43401D01*
X113192Y-43208D01*
X113192Y-43406D01*
X113098Y-43500D01*
X113291Y-43692D01*
X113336Y-43658D01*
X113371Y-43517D01*
X113371Y-44339D01*
X113343Y-44270D01*
X113229Y-44156D01*
X113192Y-44141D01*
X113192Y-43791D01*
X113000Y-43598D01*
X112901Y-43697D01*
X112901Y-43500D01*
X112708Y-43307D01*
X112663Y-43341D01*
X112628Y-43482D01*
X112649Y-43626D01*
X112663Y-43658D01*
X112708Y-43692D01*
X112901Y-43500D01*
X112901Y-43697D01*
X112807Y-43791D01*
X112841Y-43836D01*
X112982Y-43871D01*
X113126Y-43850D01*
X113158Y-43836D01*
X113192Y-43791D01*
X113192Y-44141D01*
X113080Y-44095D01*
X112919Y-44094D01*
X112839Y-44127D01*
X112800Y-44120D01*
X112074Y-44120D01*
X112030Y-44075D01*
X112030Y-43200D01*
X112016Y-43131D01*
X111977Y-43072D01*
X111927Y-43022D01*
X111868Y-42983D01*
X111800Y-42970D01*
X111350Y-42970D01*
X111281Y-42983D01*
X111222Y-43022D01*
X111033Y-43212D01*
X110963Y-43212D01*
X110915Y-43231D01*
X110879Y-43268D01*
X110859Y-43316D01*
X110859Y-43367D01*
X110859Y-43643D01*
X110879Y-43691D01*
X110915Y-43727D01*
X110963Y-43747D01*
X111015Y-43747D01*
X111267Y-43747D01*
X111314Y-43727D01*
X111331Y-43711D01*
X111348Y-43727D01*
X111368Y-43736D01*
X111368Y-44998D01*
X111382Y-45067D01*
X111421Y-45125D01*
X111872Y-45577D01*
X111872Y-45577D01*
X111911Y-45603D01*
X111931Y-45616D01*
X111931Y-45616D01*
X111999Y-45629D01*
X112000Y-45630D01*
X112594Y-45630D01*
X112594Y-45800D01*
X112614Y-45848D01*
X112651Y-45885D01*
X112699Y-45904D01*
X112750Y-45905D01*
X113300Y-45905D01*
X113348Y-45885D01*
X113385Y-45848D01*
X113390Y-45836D01*
X113390Y-46390D01*
X113390Y-46390D01*
G37*
G54D27*
X113390Y-46390D02*
X111055Y-46390D01*
X111055Y-45339D01*
X111008Y-45227D01*
X110922Y-45141D01*
X110810Y-45095D01*
X110689Y-45094D01*
X110577Y-45141D01*
X110491Y-45227D01*
X110445Y-45339D01*
X110444Y-45460D01*
X110491Y-45572D01*
X110577Y-45658D01*
X110580Y-45659D01*
X110549Y-45672D01*
X110513Y-45709D01*
X110493Y-45757D01*
X110493Y-45808D01*
X110493Y-46084D01*
X110512Y-46132D01*
X110549Y-46168D01*
X110597Y-46188D01*
X110648Y-46188D01*
X110924Y-46188D01*
X110972Y-46168D01*
X111008Y-46132D01*
X111028Y-46084D01*
X111028Y-46032D01*
X111028Y-45757D01*
X111009Y-45709D01*
X110972Y-45672D01*
X110941Y-45659D01*
X110941Y-45640D01*
X111008Y-45572D01*
X111054Y-45460D01*
X111055Y-45339D01*
X111055Y-46390D01*
X107709Y-46390D01*
X107709Y-46162D01*
X107709Y-45985D01*
X107690Y-45937D01*
X107653Y-45901D01*
X107605Y-45881D01*
X107554Y-45881D01*
X107042Y-45881D01*
X106994Y-45901D01*
X106957Y-45937D01*
X106938Y-45985D01*
X106938Y-46037D01*
X106938Y-46214D01*
X106957Y-46262D01*
X106994Y-46298D01*
X107042Y-46318D01*
X107093Y-46318D01*
X107605Y-46318D01*
X107653Y-46298D01*
X107690Y-46262D01*
X107709Y-46214D01*
X107709Y-46162D01*
X107709Y-46390D01*
X105609Y-46390D01*
X105609Y-45615D01*
X105656Y-45729D01*
X105770Y-45843D01*
X105919Y-45904D01*
X106080Y-45905D01*
X106229Y-45843D01*
X106343Y-45729D01*
X106404Y-45580D01*
X106405Y-45419D01*
X106384Y-45370D01*
X108094Y-43659D01*
X108267Y-43659D01*
X108280Y-43691D01*
X108317Y-43727D01*
X108364Y-43747D01*
X108416Y-43747D01*
X108668Y-43747D01*
X108716Y-43727D01*
X108733Y-43711D01*
X108750Y-43727D01*
X108798Y-43747D01*
X108849Y-43747D01*
X109101Y-43747D01*
X109149Y-43727D01*
X109166Y-43711D01*
X109183Y-43727D01*
X109231Y-43747D01*
X109282Y-43747D01*
X109534Y-43747D01*
X109582Y-43727D01*
X109599Y-43711D01*
X109616Y-43727D01*
X109664Y-43747D01*
X109715Y-43747D01*
X109967Y-43747D01*
X110015Y-43727D01*
X110032Y-43711D01*
X110049Y-43727D01*
X110097Y-43747D01*
X110148Y-43747D01*
X110400Y-43747D01*
X110448Y-43727D01*
X110485Y-43691D01*
X110505Y-43643D01*
X110505Y-43591D01*
X110505Y-43316D01*
X110485Y-43268D01*
X110448Y-43231D01*
X110429Y-43223D01*
X110429Y-42825D01*
X110574Y-42680D01*
X112636Y-42680D01*
X112656Y-42729D01*
X112770Y-42843D01*
X112919Y-42904D01*
X113080Y-42905D01*
X113229Y-42843D01*
X113343Y-42729D01*
X113390Y-42616D01*
X113390Y-44384D01*
X113371Y-44339D01*
X113371Y-43517D01*
X113350Y-43373D01*
X113336Y-43341D01*
X113291Y-43307D01*
X113192Y-43406D01*
X113192Y-43208D01*
X113158Y-43163D01*
X113017Y-43128D01*
X112873Y-43149D01*
X112841Y-43163D01*
X112807Y-43208D01*
X113000Y-43401D01*
X113192Y-43208D01*
X113192Y-43406D01*
X113098Y-43500D01*
X113291Y-43692D01*
X113336Y-43658D01*
X113371Y-43517D01*
X113371Y-44339D01*
X113343Y-44270D01*
X113229Y-44156D01*
X113192Y-44141D01*
X113192Y-43791D01*
X113000Y-43598D01*
X112901Y-43697D01*
X112901Y-43500D01*
X112708Y-43307D01*
X112663Y-43341D01*
X112628Y-43482D01*
X112649Y-43626D01*
X112663Y-43658D01*
X112708Y-43692D01*
X112901Y-43500D01*
X112901Y-43697D01*
X112807Y-43791D01*
X112841Y-43836D01*
X112982Y-43871D01*
X113126Y-43850D01*
X113158Y-43836D01*
X113192Y-43791D01*
X113192Y-44141D01*
X113080Y-44095D01*
X112919Y-44094D01*
X112839Y-44127D01*
X112800Y-44120D01*
X112074Y-44120D01*
X112030Y-44075D01*
X112030Y-43200D01*
X112016Y-43131D01*
X111977Y-43072D01*
X111927Y-43022D01*
X111868Y-42983D01*
X111800Y-42970D01*
X111350Y-42970D01*
X111281Y-42983D01*
X111222Y-43022D01*
X111033Y-43212D01*
X110963Y-43212D01*
X110915Y-43231D01*
X110879Y-43268D01*
X110859Y-43316D01*
X110859Y-43367D01*
X110859Y-43643D01*
X110879Y-43691D01*
X110915Y-43727D01*
X110963Y-43747D01*
X111015Y-43747D01*
X111267Y-43747D01*
X111314Y-43727D01*
X111331Y-43711D01*
X111348Y-43727D01*
X111368Y-43736D01*
X111368Y-44998D01*
X111382Y-45067D01*
X111421Y-45125D01*
X111872Y-45577D01*
X111872Y-45577D01*
X111911Y-45603D01*
X111931Y-45616D01*
X111931Y-45616D01*
X111999Y-45629D01*
X112000Y-45630D01*
X112594Y-45630D01*
X112594Y-45800D01*
X112614Y-45848D01*
X112651Y-45885D01*
X112699Y-45904D01*
X112750Y-45905D01*
X113300Y-45905D01*
X113348Y-45885D01*
X113385Y-45848D01*
X113390Y-45836D01*
X113390Y-46390D01*
M02*
