G04 (created by PCBNEW (2013-june-11)-stable) date Sat 02 Aug 2014 12:41:53 PM PDT*
%MOIN*%
G04 Gerber Fmt 3.4, Leading zero omitted, Abs format*
%FSLAX34Y34*%
G01*
G70*
G90*
G04 APERTURE LIST*
%ADD10C,0.00590551*%
%ADD11C,0.012*%
G04 APERTURE END LIST*
G54D10*
X112363Y-40310D02*
X112324Y-40310D01*
X112324Y-40310D02*
X112284Y-40310D01*
X112324Y-46412D02*
X112363Y-46412D01*
X106654Y-46412D02*
X106694Y-46412D01*
X106654Y-40310D02*
X106694Y-40310D01*
X112205Y-40310D02*
X112324Y-40310D01*
X112363Y-46412D02*
X112363Y-40310D01*
X106694Y-40310D02*
X112205Y-40310D01*
X106654Y-46412D02*
X106654Y-40310D01*
X112324Y-46412D02*
X106694Y-46412D01*
G54D11*
X105500Y-41000D02*
X106500Y-41000D01*
X106500Y-41000D02*
X106500Y-46000D01*
X106500Y-46000D02*
X105500Y-46000D01*
X105500Y-46000D02*
X105500Y-41000D01*
X105500Y-42000D02*
X106500Y-42000D01*
X113500Y-46000D02*
X112500Y-46000D01*
X112500Y-46000D02*
X112500Y-41000D01*
X112500Y-41000D02*
X113500Y-41000D01*
X113500Y-41000D02*
X113500Y-46000D01*
X113500Y-45000D02*
X112500Y-45000D01*
M02*
