G04 (created by PCBNEW (2013-june-11)-stable) date Sat 02 Aug 2014 12:41:53 PM PDT*
%MOIN*%
G04 Gerber Fmt 3.4, Leading zero omitted, Abs format*
%FSLAX34Y34*%
G01*
G70*
G90*
G04 APERTURE LIST*
%ADD10C,0.00590551*%
%ADD11R,0.03X0.02*%
%ADD12R,0.0236X0.0157*%
%ADD13R,0.0157X0.0236*%
%ADD14R,0.055X0.055*%
%ADD15C,0.055*%
%ADD16C,0.035*%
%ADD17C,0.01*%
%ADD18C,0.006*%
G04 APERTURE END LIST*
G54D10*
G54D11*
X107500Y-42375D03*
X107500Y-41625D03*
X108500Y-42375D03*
X107500Y-42000D03*
X108500Y-41625D03*
G54D12*
X112100Y-41523D03*
X112100Y-41877D03*
X111700Y-41877D03*
X111700Y-41523D03*
X112100Y-41527D03*
X112100Y-41173D03*
X109000Y-42377D03*
X109000Y-42023D03*
G54D13*
X110023Y-43400D03*
X110377Y-43400D03*
G54D12*
X107000Y-42377D03*
X107000Y-42023D03*
G54D14*
X106000Y-41500D03*
G54D15*
X106000Y-42500D03*
X106000Y-43500D03*
X106000Y-44500D03*
X106000Y-45500D03*
G54D14*
X113000Y-45500D03*
G54D15*
X113000Y-44500D03*
X113000Y-43500D03*
X113000Y-42500D03*
X113000Y-41500D03*
G54D16*
X109650Y-43000D03*
X112500Y-40750D03*
X110750Y-45400D03*
X108200Y-40600D03*
X111250Y-41950D03*
X107300Y-42950D03*
X112150Y-45050D03*
X110600Y-42950D03*
X107700Y-40600D03*
X106300Y-40650D03*
X110800Y-41950D03*
G54D17*
X112100Y-41173D02*
X112100Y-40750D01*
X109700Y-42950D02*
X110023Y-42950D01*
X109650Y-43000D02*
X109700Y-42950D01*
X109627Y-42377D02*
X109627Y-42373D01*
X111250Y-40750D02*
X112100Y-40750D01*
X112100Y-40750D02*
X112500Y-40750D01*
X109627Y-42373D02*
X111250Y-40750D01*
X109000Y-42377D02*
X109627Y-42377D01*
X110023Y-42773D02*
X110023Y-42950D01*
X110023Y-42950D02*
X110023Y-43000D01*
X110023Y-43000D02*
X110023Y-43400D01*
X109627Y-42377D02*
X110023Y-42773D01*
X108500Y-42375D02*
X108998Y-42375D01*
X108998Y-42375D02*
X109000Y-42377D01*
X110759Y-41523D02*
X111700Y-41523D01*
X110450Y-41832D02*
X110759Y-41523D01*
X110450Y-42100D02*
X110450Y-41832D01*
X110950Y-42600D02*
X110450Y-42100D01*
X110950Y-45200D02*
X110950Y-42600D01*
X110750Y-45400D02*
X110950Y-45200D01*
X113000Y-41500D02*
X112123Y-41500D01*
X112123Y-41500D02*
X112100Y-41523D01*
X112100Y-41523D02*
X111700Y-41523D01*
X111250Y-41950D02*
X111323Y-41877D01*
X111700Y-41877D02*
X111323Y-41877D01*
X108200Y-40600D02*
X107300Y-41500D01*
X106000Y-41500D02*
X107300Y-41500D01*
X107300Y-41500D02*
X107375Y-41500D01*
X107375Y-41500D02*
X107500Y-41625D01*
X107950Y-42000D02*
X107950Y-42600D01*
X107950Y-42600D02*
X107600Y-42950D01*
X107600Y-42950D02*
X107300Y-42950D01*
X107500Y-42000D02*
X107950Y-42000D01*
X112200Y-44300D02*
X112200Y-45000D01*
X112200Y-45000D02*
X112150Y-45050D01*
X113000Y-43500D02*
X112200Y-44300D01*
X110377Y-43173D02*
X110377Y-43400D01*
X110600Y-42950D02*
X110377Y-43173D01*
X107700Y-40600D02*
X107633Y-40666D01*
X107633Y-40666D02*
X107633Y-40883D01*
X107633Y-40883D02*
X107217Y-41299D01*
X107217Y-41299D02*
X106949Y-41299D01*
X106949Y-41299D02*
X106300Y-40650D01*
X112100Y-41877D02*
X112100Y-41950D01*
X110800Y-42000D02*
X110800Y-41950D01*
X111100Y-42300D02*
X110800Y-42000D01*
X111750Y-42300D02*
X111100Y-42300D01*
X112100Y-41950D02*
X111750Y-42300D01*
X106877Y-42500D02*
X107375Y-42500D01*
X107375Y-42500D02*
X107500Y-42375D01*
X106000Y-42500D02*
X106877Y-42500D01*
X106877Y-42500D02*
X107000Y-42377D01*
G54D10*
G36*
X113390Y-46390D02*
X105609Y-46390D01*
X105609Y-45615D01*
X105656Y-45729D01*
X105770Y-45843D01*
X105919Y-45904D01*
X106080Y-45905D01*
X106229Y-45843D01*
X106343Y-45729D01*
X106404Y-45580D01*
X106405Y-45419D01*
X106343Y-45270D01*
X106229Y-45156D01*
X106080Y-45095D01*
X105919Y-45094D01*
X105770Y-45156D01*
X105656Y-45270D01*
X105609Y-45383D01*
X105609Y-44615D01*
X105656Y-44729D01*
X105770Y-44843D01*
X105919Y-44904D01*
X106080Y-44905D01*
X106229Y-44843D01*
X106343Y-44729D01*
X106404Y-44580D01*
X106405Y-44419D01*
X106343Y-44270D01*
X106229Y-44156D01*
X106080Y-44095D01*
X105919Y-44094D01*
X105770Y-44156D01*
X105656Y-44270D01*
X105609Y-44383D01*
X105609Y-43615D01*
X105656Y-43729D01*
X105770Y-43843D01*
X105919Y-43904D01*
X106080Y-43905D01*
X106229Y-43843D01*
X106343Y-43729D01*
X106404Y-43580D01*
X106405Y-43419D01*
X106343Y-43270D01*
X106229Y-43156D01*
X106080Y-43095D01*
X105919Y-43094D01*
X105770Y-43156D01*
X105656Y-43270D01*
X105609Y-43383D01*
X105609Y-42615D01*
X105656Y-42729D01*
X105770Y-42843D01*
X105919Y-42904D01*
X106080Y-42905D01*
X106229Y-42843D01*
X106343Y-42729D01*
X106363Y-42680D01*
X106877Y-42680D01*
X107375Y-42680D01*
X107443Y-42666D01*
X107502Y-42627D01*
X107524Y-42605D01*
X107675Y-42605D01*
X107723Y-42585D01*
X107760Y-42548D01*
X107779Y-42500D01*
X107780Y-42449D01*
X107780Y-42249D01*
X107760Y-42201D01*
X107723Y-42164D01*
X107675Y-42145D01*
X107624Y-42144D01*
X107324Y-42144D01*
X107276Y-42164D01*
X107239Y-42201D01*
X107229Y-42227D01*
X107228Y-42224D01*
X107191Y-42188D01*
X107143Y-42168D01*
X107092Y-42168D01*
X106856Y-42168D01*
X106808Y-42188D01*
X106771Y-42224D01*
X106752Y-42272D01*
X106751Y-42320D01*
X106363Y-42320D01*
X106343Y-42270D01*
X106229Y-42156D01*
X106080Y-42095D01*
X105919Y-42094D01*
X105770Y-42156D01*
X105656Y-42270D01*
X105609Y-42383D01*
X105609Y-41836D01*
X105614Y-41848D01*
X105651Y-41885D01*
X105699Y-41904D01*
X105750Y-41905D01*
X106300Y-41905D01*
X106348Y-41885D01*
X106385Y-41848D01*
X106404Y-41800D01*
X106405Y-41749D01*
X106405Y-41680D01*
X107219Y-41680D01*
X107219Y-41750D01*
X107239Y-41798D01*
X107276Y-41835D01*
X107324Y-41854D01*
X107375Y-41855D01*
X107675Y-41855D01*
X107723Y-41835D01*
X107760Y-41798D01*
X107779Y-41750D01*
X107780Y-41699D01*
X107780Y-41499D01*
X107760Y-41451D01*
X107723Y-41414D01*
X107675Y-41395D01*
X107659Y-41395D01*
X108149Y-40904D01*
X108260Y-40905D01*
X108372Y-40858D01*
X108458Y-40772D01*
X108504Y-40660D01*
X108505Y-40539D01*
X108458Y-40427D01*
X108391Y-40359D01*
X113390Y-40359D01*
X113390Y-41384D01*
X113343Y-41270D01*
X113229Y-41156D01*
X113080Y-41095D01*
X112919Y-41094D01*
X112770Y-41156D01*
X112656Y-41270D01*
X112636Y-41320D01*
X112330Y-41320D01*
X112347Y-41277D01*
X112348Y-41225D01*
X112348Y-41068D01*
X112328Y-41020D01*
X112291Y-40984D01*
X112280Y-40979D01*
X112280Y-40961D01*
X112327Y-41008D01*
X112439Y-41054D01*
X112560Y-41055D01*
X112672Y-41008D01*
X112758Y-40922D01*
X112804Y-40810D01*
X112805Y-40689D01*
X112758Y-40577D01*
X112672Y-40491D01*
X112560Y-40445D01*
X112439Y-40444D01*
X112327Y-40491D01*
X112248Y-40570D01*
X112100Y-40570D01*
X111250Y-40570D01*
X111181Y-40583D01*
X111122Y-40622D01*
X109548Y-42197D01*
X109200Y-42197D01*
X109191Y-42188D01*
X109143Y-42168D01*
X109092Y-42168D01*
X108856Y-42168D01*
X108808Y-42188D01*
X108801Y-42195D01*
X108780Y-42195D01*
X108780Y-41699D01*
X108780Y-41499D01*
X108760Y-41451D01*
X108723Y-41414D01*
X108675Y-41395D01*
X108624Y-41394D01*
X108324Y-41394D01*
X108276Y-41414D01*
X108239Y-41451D01*
X108220Y-41499D01*
X108219Y-41550D01*
X108219Y-41750D01*
X108239Y-41798D01*
X108276Y-41835D01*
X108324Y-41854D01*
X108375Y-41855D01*
X108675Y-41855D01*
X108723Y-41835D01*
X108760Y-41798D01*
X108779Y-41750D01*
X108780Y-41699D01*
X108780Y-42195D01*
X108753Y-42195D01*
X108723Y-42164D01*
X108675Y-42145D01*
X108624Y-42144D01*
X108324Y-42144D01*
X108276Y-42164D01*
X108239Y-42201D01*
X108220Y-42249D01*
X108219Y-42300D01*
X108219Y-42500D01*
X108239Y-42548D01*
X108276Y-42585D01*
X108324Y-42604D01*
X108375Y-42605D01*
X108675Y-42605D01*
X108723Y-42585D01*
X108753Y-42555D01*
X108797Y-42555D01*
X108808Y-42565D01*
X108856Y-42585D01*
X108907Y-42585D01*
X109143Y-42585D01*
X109191Y-42565D01*
X109200Y-42557D01*
X109552Y-42557D01*
X109690Y-42695D01*
X109589Y-42694D01*
X109477Y-42741D01*
X109391Y-42827D01*
X109345Y-42939D01*
X109344Y-43060D01*
X109391Y-43172D01*
X109477Y-43258D01*
X109589Y-43304D01*
X109710Y-43305D01*
X109814Y-43262D01*
X109814Y-43307D01*
X109814Y-43543D01*
X109834Y-43591D01*
X109870Y-43628D01*
X109918Y-43647D01*
X109970Y-43648D01*
X110127Y-43648D01*
X110175Y-43628D01*
X110211Y-43591D01*
X110231Y-43543D01*
X110231Y-43492D01*
X110231Y-43256D01*
X110211Y-43208D01*
X110203Y-43199D01*
X110203Y-43000D01*
X110203Y-42950D01*
X110203Y-42773D01*
X110189Y-42704D01*
X110150Y-42645D01*
X110150Y-42645D01*
X109879Y-42374D01*
X110270Y-41984D01*
X110270Y-42100D01*
X110283Y-42168D01*
X110322Y-42227D01*
X110770Y-42674D01*
X110770Y-45095D01*
X110689Y-45094D01*
X110577Y-45141D01*
X110491Y-45227D01*
X110445Y-45339D01*
X110444Y-45460D01*
X110491Y-45572D01*
X110577Y-45658D01*
X110689Y-45704D01*
X110810Y-45705D01*
X110922Y-45658D01*
X111008Y-45572D01*
X111054Y-45460D01*
X111055Y-45349D01*
X111077Y-45327D01*
X111077Y-45327D01*
X111116Y-45268D01*
X111129Y-45200D01*
X111130Y-45200D01*
X111130Y-42600D01*
X111116Y-42531D01*
X111079Y-42475D01*
X111099Y-42479D01*
X111100Y-42480D01*
X111750Y-42480D01*
X111818Y-42466D01*
X111877Y-42427D01*
X112219Y-42085D01*
X112243Y-42085D01*
X112291Y-42065D01*
X112328Y-42029D01*
X112347Y-41981D01*
X112348Y-41929D01*
X112348Y-41772D01*
X112328Y-41724D01*
X112305Y-41701D01*
X112327Y-41680D01*
X112636Y-41680D01*
X112656Y-41729D01*
X112770Y-41843D01*
X112919Y-41904D01*
X113080Y-41905D01*
X113229Y-41843D01*
X113343Y-41729D01*
X113390Y-41616D01*
X113390Y-42384D01*
X113343Y-42270D01*
X113229Y-42156D01*
X113080Y-42095D01*
X112919Y-42094D01*
X112770Y-42156D01*
X112656Y-42270D01*
X112595Y-42419D01*
X112594Y-42580D01*
X112656Y-42729D01*
X112770Y-42843D01*
X112919Y-42904D01*
X113080Y-42905D01*
X113229Y-42843D01*
X113343Y-42729D01*
X113390Y-42616D01*
X113390Y-44384D01*
X113371Y-44339D01*
X113371Y-43517D01*
X113350Y-43373D01*
X113336Y-43341D01*
X113291Y-43307D01*
X113192Y-43406D01*
X113192Y-43208D01*
X113158Y-43163D01*
X113017Y-43128D01*
X112873Y-43149D01*
X112841Y-43163D01*
X112807Y-43208D01*
X113000Y-43401D01*
X113192Y-43208D01*
X113192Y-43406D01*
X113098Y-43500D01*
X113291Y-43692D01*
X113336Y-43658D01*
X113371Y-43517D01*
X113371Y-44339D01*
X113343Y-44270D01*
X113229Y-44156D01*
X113192Y-44141D01*
X113192Y-43791D01*
X113000Y-43598D01*
X112901Y-43697D01*
X112901Y-43500D01*
X112708Y-43307D01*
X112663Y-43341D01*
X112628Y-43482D01*
X112649Y-43626D01*
X112663Y-43658D01*
X112708Y-43692D01*
X112901Y-43500D01*
X112901Y-43697D01*
X112807Y-43791D01*
X112841Y-43836D01*
X112982Y-43871D01*
X113126Y-43850D01*
X113158Y-43836D01*
X113192Y-43791D01*
X113192Y-44141D01*
X113080Y-44095D01*
X112919Y-44094D01*
X112770Y-44156D01*
X112656Y-44270D01*
X112595Y-44419D01*
X112594Y-44580D01*
X112656Y-44729D01*
X112770Y-44843D01*
X112919Y-44904D01*
X113080Y-44905D01*
X113229Y-44843D01*
X113343Y-44729D01*
X113390Y-44616D01*
X113390Y-45163D01*
X113385Y-45151D01*
X113348Y-45114D01*
X113300Y-45095D01*
X113249Y-45094D01*
X112699Y-45094D01*
X112651Y-45114D01*
X112614Y-45151D01*
X112595Y-45199D01*
X112594Y-45250D01*
X112594Y-45800D01*
X112614Y-45848D01*
X112651Y-45885D01*
X112699Y-45904D01*
X112750Y-45905D01*
X113300Y-45905D01*
X113348Y-45885D01*
X113385Y-45848D01*
X113390Y-45836D01*
X113390Y-46390D01*
X113390Y-46390D01*
G37*
G54D18*
X113390Y-46390D02*
X105609Y-46390D01*
X105609Y-45615D01*
X105656Y-45729D01*
X105770Y-45843D01*
X105919Y-45904D01*
X106080Y-45905D01*
X106229Y-45843D01*
X106343Y-45729D01*
X106404Y-45580D01*
X106405Y-45419D01*
X106343Y-45270D01*
X106229Y-45156D01*
X106080Y-45095D01*
X105919Y-45094D01*
X105770Y-45156D01*
X105656Y-45270D01*
X105609Y-45383D01*
X105609Y-44615D01*
X105656Y-44729D01*
X105770Y-44843D01*
X105919Y-44904D01*
X106080Y-44905D01*
X106229Y-44843D01*
X106343Y-44729D01*
X106404Y-44580D01*
X106405Y-44419D01*
X106343Y-44270D01*
X106229Y-44156D01*
X106080Y-44095D01*
X105919Y-44094D01*
X105770Y-44156D01*
X105656Y-44270D01*
X105609Y-44383D01*
X105609Y-43615D01*
X105656Y-43729D01*
X105770Y-43843D01*
X105919Y-43904D01*
X106080Y-43905D01*
X106229Y-43843D01*
X106343Y-43729D01*
X106404Y-43580D01*
X106405Y-43419D01*
X106343Y-43270D01*
X106229Y-43156D01*
X106080Y-43095D01*
X105919Y-43094D01*
X105770Y-43156D01*
X105656Y-43270D01*
X105609Y-43383D01*
X105609Y-42615D01*
X105656Y-42729D01*
X105770Y-42843D01*
X105919Y-42904D01*
X106080Y-42905D01*
X106229Y-42843D01*
X106343Y-42729D01*
X106363Y-42680D01*
X106877Y-42680D01*
X107375Y-42680D01*
X107443Y-42666D01*
X107502Y-42627D01*
X107524Y-42605D01*
X107675Y-42605D01*
X107723Y-42585D01*
X107760Y-42548D01*
X107779Y-42500D01*
X107780Y-42449D01*
X107780Y-42249D01*
X107760Y-42201D01*
X107723Y-42164D01*
X107675Y-42145D01*
X107624Y-42144D01*
X107324Y-42144D01*
X107276Y-42164D01*
X107239Y-42201D01*
X107229Y-42227D01*
X107228Y-42224D01*
X107191Y-42188D01*
X107143Y-42168D01*
X107092Y-42168D01*
X106856Y-42168D01*
X106808Y-42188D01*
X106771Y-42224D01*
X106752Y-42272D01*
X106751Y-42320D01*
X106363Y-42320D01*
X106343Y-42270D01*
X106229Y-42156D01*
X106080Y-42095D01*
X105919Y-42094D01*
X105770Y-42156D01*
X105656Y-42270D01*
X105609Y-42383D01*
X105609Y-41836D01*
X105614Y-41848D01*
X105651Y-41885D01*
X105699Y-41904D01*
X105750Y-41905D01*
X106300Y-41905D01*
X106348Y-41885D01*
X106385Y-41848D01*
X106404Y-41800D01*
X106405Y-41749D01*
X106405Y-41680D01*
X107219Y-41680D01*
X107219Y-41750D01*
X107239Y-41798D01*
X107276Y-41835D01*
X107324Y-41854D01*
X107375Y-41855D01*
X107675Y-41855D01*
X107723Y-41835D01*
X107760Y-41798D01*
X107779Y-41750D01*
X107780Y-41699D01*
X107780Y-41499D01*
X107760Y-41451D01*
X107723Y-41414D01*
X107675Y-41395D01*
X107659Y-41395D01*
X108149Y-40904D01*
X108260Y-40905D01*
X108372Y-40858D01*
X108458Y-40772D01*
X108504Y-40660D01*
X108505Y-40539D01*
X108458Y-40427D01*
X108391Y-40359D01*
X113390Y-40359D01*
X113390Y-41384D01*
X113343Y-41270D01*
X113229Y-41156D01*
X113080Y-41095D01*
X112919Y-41094D01*
X112770Y-41156D01*
X112656Y-41270D01*
X112636Y-41320D01*
X112330Y-41320D01*
X112347Y-41277D01*
X112348Y-41225D01*
X112348Y-41068D01*
X112328Y-41020D01*
X112291Y-40984D01*
X112280Y-40979D01*
X112280Y-40961D01*
X112327Y-41008D01*
X112439Y-41054D01*
X112560Y-41055D01*
X112672Y-41008D01*
X112758Y-40922D01*
X112804Y-40810D01*
X112805Y-40689D01*
X112758Y-40577D01*
X112672Y-40491D01*
X112560Y-40445D01*
X112439Y-40444D01*
X112327Y-40491D01*
X112248Y-40570D01*
X112100Y-40570D01*
X111250Y-40570D01*
X111181Y-40583D01*
X111122Y-40622D01*
X109548Y-42197D01*
X109200Y-42197D01*
X109191Y-42188D01*
X109143Y-42168D01*
X109092Y-42168D01*
X108856Y-42168D01*
X108808Y-42188D01*
X108801Y-42195D01*
X108780Y-42195D01*
X108780Y-41699D01*
X108780Y-41499D01*
X108760Y-41451D01*
X108723Y-41414D01*
X108675Y-41395D01*
X108624Y-41394D01*
X108324Y-41394D01*
X108276Y-41414D01*
X108239Y-41451D01*
X108220Y-41499D01*
X108219Y-41550D01*
X108219Y-41750D01*
X108239Y-41798D01*
X108276Y-41835D01*
X108324Y-41854D01*
X108375Y-41855D01*
X108675Y-41855D01*
X108723Y-41835D01*
X108760Y-41798D01*
X108779Y-41750D01*
X108780Y-41699D01*
X108780Y-42195D01*
X108753Y-42195D01*
X108723Y-42164D01*
X108675Y-42145D01*
X108624Y-42144D01*
X108324Y-42144D01*
X108276Y-42164D01*
X108239Y-42201D01*
X108220Y-42249D01*
X108219Y-42300D01*
X108219Y-42500D01*
X108239Y-42548D01*
X108276Y-42585D01*
X108324Y-42604D01*
X108375Y-42605D01*
X108675Y-42605D01*
X108723Y-42585D01*
X108753Y-42555D01*
X108797Y-42555D01*
X108808Y-42565D01*
X108856Y-42585D01*
X108907Y-42585D01*
X109143Y-42585D01*
X109191Y-42565D01*
X109200Y-42557D01*
X109552Y-42557D01*
X109690Y-42695D01*
X109589Y-42694D01*
X109477Y-42741D01*
X109391Y-42827D01*
X109345Y-42939D01*
X109344Y-43060D01*
X109391Y-43172D01*
X109477Y-43258D01*
X109589Y-43304D01*
X109710Y-43305D01*
X109814Y-43262D01*
X109814Y-43307D01*
X109814Y-43543D01*
X109834Y-43591D01*
X109870Y-43628D01*
X109918Y-43647D01*
X109970Y-43648D01*
X110127Y-43648D01*
X110175Y-43628D01*
X110211Y-43591D01*
X110231Y-43543D01*
X110231Y-43492D01*
X110231Y-43256D01*
X110211Y-43208D01*
X110203Y-43199D01*
X110203Y-43000D01*
X110203Y-42950D01*
X110203Y-42773D01*
X110189Y-42704D01*
X110150Y-42645D01*
X110150Y-42645D01*
X109879Y-42374D01*
X110270Y-41984D01*
X110270Y-42100D01*
X110283Y-42168D01*
X110322Y-42227D01*
X110770Y-42674D01*
X110770Y-45095D01*
X110689Y-45094D01*
X110577Y-45141D01*
X110491Y-45227D01*
X110445Y-45339D01*
X110444Y-45460D01*
X110491Y-45572D01*
X110577Y-45658D01*
X110689Y-45704D01*
X110810Y-45705D01*
X110922Y-45658D01*
X111008Y-45572D01*
X111054Y-45460D01*
X111055Y-45349D01*
X111077Y-45327D01*
X111077Y-45327D01*
X111116Y-45268D01*
X111129Y-45200D01*
X111130Y-45200D01*
X111130Y-42600D01*
X111116Y-42531D01*
X111079Y-42475D01*
X111099Y-42479D01*
X111100Y-42480D01*
X111750Y-42480D01*
X111818Y-42466D01*
X111877Y-42427D01*
X112219Y-42085D01*
X112243Y-42085D01*
X112291Y-42065D01*
X112328Y-42029D01*
X112347Y-41981D01*
X112348Y-41929D01*
X112348Y-41772D01*
X112328Y-41724D01*
X112305Y-41701D01*
X112327Y-41680D01*
X112636Y-41680D01*
X112656Y-41729D01*
X112770Y-41843D01*
X112919Y-41904D01*
X113080Y-41905D01*
X113229Y-41843D01*
X113343Y-41729D01*
X113390Y-41616D01*
X113390Y-42384D01*
X113343Y-42270D01*
X113229Y-42156D01*
X113080Y-42095D01*
X112919Y-42094D01*
X112770Y-42156D01*
X112656Y-42270D01*
X112595Y-42419D01*
X112594Y-42580D01*
X112656Y-42729D01*
X112770Y-42843D01*
X112919Y-42904D01*
X113080Y-42905D01*
X113229Y-42843D01*
X113343Y-42729D01*
X113390Y-42616D01*
X113390Y-44384D01*
X113371Y-44339D01*
X113371Y-43517D01*
X113350Y-43373D01*
X113336Y-43341D01*
X113291Y-43307D01*
X113192Y-43406D01*
X113192Y-43208D01*
X113158Y-43163D01*
X113017Y-43128D01*
X112873Y-43149D01*
X112841Y-43163D01*
X112807Y-43208D01*
X113000Y-43401D01*
X113192Y-43208D01*
X113192Y-43406D01*
X113098Y-43500D01*
X113291Y-43692D01*
X113336Y-43658D01*
X113371Y-43517D01*
X113371Y-44339D01*
X113343Y-44270D01*
X113229Y-44156D01*
X113192Y-44141D01*
X113192Y-43791D01*
X113000Y-43598D01*
X112901Y-43697D01*
X112901Y-43500D01*
X112708Y-43307D01*
X112663Y-43341D01*
X112628Y-43482D01*
X112649Y-43626D01*
X112663Y-43658D01*
X112708Y-43692D01*
X112901Y-43500D01*
X112901Y-43697D01*
X112807Y-43791D01*
X112841Y-43836D01*
X112982Y-43871D01*
X113126Y-43850D01*
X113158Y-43836D01*
X113192Y-43791D01*
X113192Y-44141D01*
X113080Y-44095D01*
X112919Y-44094D01*
X112770Y-44156D01*
X112656Y-44270D01*
X112595Y-44419D01*
X112594Y-44580D01*
X112656Y-44729D01*
X112770Y-44843D01*
X112919Y-44904D01*
X113080Y-44905D01*
X113229Y-44843D01*
X113343Y-44729D01*
X113390Y-44616D01*
X113390Y-45163D01*
X113385Y-45151D01*
X113348Y-45114D01*
X113300Y-45095D01*
X113249Y-45094D01*
X112699Y-45094D01*
X112651Y-45114D01*
X112614Y-45151D01*
X112595Y-45199D01*
X112594Y-45250D01*
X112594Y-45800D01*
X112614Y-45848D01*
X112651Y-45885D01*
X112699Y-45904D01*
X112750Y-45905D01*
X113300Y-45905D01*
X113348Y-45885D01*
X113385Y-45848D01*
X113390Y-45836D01*
X113390Y-46390D01*
M02*
