G04 (created by PCBNEW (2013-june-11)-stable) date Sat 02 Aug 2014 12:41:53 PM PDT*
%MOIN*%
G04 Gerber Fmt 3.4, Leading zero omitted, Abs format*
%FSLAX34Y34*%
G01*
G70*
G90*
G04 APERTURE LIST*
%ADD10C,0.00590551*%
%ADD11C,0.005*%
%ADD12C,0.0028*%
%ADD13C,0.0025*%
G04 APERTURE END LIST*
G54D10*
G54D11*
X108350Y-41400D02*
X107650Y-41400D01*
X107650Y-41400D02*
X107650Y-42600D01*
X107650Y-42600D02*
X108350Y-42600D01*
X108350Y-42600D02*
X108350Y-41400D01*
G54D12*
X111950Y-41600D02*
X111950Y-41400D01*
X111950Y-41400D02*
X112250Y-41400D01*
X112250Y-41400D02*
X112250Y-41600D01*
X111950Y-41800D02*
X111950Y-42000D01*
X111950Y-42000D02*
X112250Y-42000D01*
X112250Y-42000D02*
X112250Y-41800D01*
X111850Y-41800D02*
X111850Y-42000D01*
X111850Y-42000D02*
X111550Y-42000D01*
X111550Y-42000D02*
X111550Y-41800D01*
X111850Y-41600D02*
X111850Y-41400D01*
X111850Y-41400D02*
X111550Y-41400D01*
X111550Y-41400D02*
X111550Y-41600D01*
X112250Y-41450D02*
X112250Y-41650D01*
X112250Y-41650D02*
X111950Y-41650D01*
X111950Y-41650D02*
X111950Y-41450D01*
X112250Y-41250D02*
X112250Y-41050D01*
X112250Y-41050D02*
X111950Y-41050D01*
X111950Y-41050D02*
X111950Y-41250D01*
X109150Y-42300D02*
X109150Y-42500D01*
X109150Y-42500D02*
X108850Y-42500D01*
X108850Y-42500D02*
X108850Y-42300D01*
X109150Y-42100D02*
X109150Y-41900D01*
X109150Y-41900D02*
X108850Y-41900D01*
X108850Y-41900D02*
X108850Y-42100D01*
X110100Y-43550D02*
X109900Y-43550D01*
X109900Y-43550D02*
X109900Y-43250D01*
X109900Y-43250D02*
X110100Y-43250D01*
X110300Y-43550D02*
X110500Y-43550D01*
X110500Y-43550D02*
X110500Y-43250D01*
X110500Y-43250D02*
X110300Y-43250D01*
X107150Y-42300D02*
X107150Y-42500D01*
X107150Y-42500D02*
X106850Y-42500D01*
X106850Y-42500D02*
X106850Y-42300D01*
X107150Y-42100D02*
X107150Y-41900D01*
X107150Y-41900D02*
X106850Y-41900D01*
X106850Y-41900D02*
X106850Y-42100D01*
G54D11*
X107951Y-41809D02*
X108153Y-41809D01*
X108177Y-41821D01*
X108189Y-41833D01*
X108201Y-41857D01*
X108201Y-41904D01*
X108189Y-41928D01*
X108177Y-41940D01*
X108153Y-41952D01*
X107951Y-41952D01*
X108201Y-42202D02*
X108201Y-42059D01*
X108201Y-42130D02*
X107951Y-42130D01*
X107986Y-42107D01*
X108010Y-42083D01*
X108022Y-42059D01*
G54D13*
X107840Y-41521D02*
X107740Y-41521D01*
X107811Y-41554D01*
X107740Y-41588D01*
X107840Y-41588D01*
X107840Y-41635D02*
X107740Y-41635D01*
X107830Y-41740D02*
X107835Y-41735D01*
X107840Y-41721D01*
X107840Y-41711D01*
X107835Y-41697D01*
X107826Y-41688D01*
X107816Y-41683D01*
X107797Y-41678D01*
X107783Y-41678D01*
X107764Y-41683D01*
X107754Y-41688D01*
X107745Y-41697D01*
X107740Y-41711D01*
X107740Y-41721D01*
X107745Y-41735D01*
X107750Y-41740D01*
X107740Y-41830D02*
X107740Y-41783D01*
X107788Y-41778D01*
X107783Y-41783D01*
X107778Y-41792D01*
X107778Y-41816D01*
X107783Y-41826D01*
X107788Y-41830D01*
X107797Y-41835D01*
X107821Y-41835D01*
X107830Y-41830D01*
X107835Y-41826D01*
X107840Y-41816D01*
X107840Y-41792D01*
X107835Y-41783D01*
X107830Y-41778D01*
X107740Y-41926D02*
X107740Y-41878D01*
X107788Y-41873D01*
X107783Y-41878D01*
X107778Y-41888D01*
X107778Y-41911D01*
X107783Y-41921D01*
X107788Y-41926D01*
X107797Y-41930D01*
X107821Y-41930D01*
X107830Y-41926D01*
X107835Y-41921D01*
X107840Y-41911D01*
X107840Y-41888D01*
X107835Y-41878D01*
X107830Y-41873D01*
X107740Y-41992D02*
X107740Y-42002D01*
X107745Y-42011D01*
X107750Y-42016D01*
X107759Y-42021D01*
X107778Y-42026D01*
X107802Y-42026D01*
X107821Y-42021D01*
X107830Y-42016D01*
X107835Y-42011D01*
X107840Y-42002D01*
X107840Y-41992D01*
X107835Y-41983D01*
X107830Y-41978D01*
X107821Y-41973D01*
X107802Y-41969D01*
X107778Y-41969D01*
X107759Y-41973D01*
X107750Y-41978D01*
X107745Y-41983D01*
X107740Y-41992D01*
X107773Y-42111D02*
X107840Y-42111D01*
X107735Y-42088D02*
X107807Y-42064D01*
X107807Y-42126D01*
X107802Y-42164D02*
X107802Y-42240D01*
X107740Y-42278D02*
X107740Y-42340D01*
X107778Y-42307D01*
X107778Y-42321D01*
X107783Y-42330D01*
X107788Y-42335D01*
X107797Y-42340D01*
X107821Y-42340D01*
X107830Y-42335D01*
X107835Y-42330D01*
X107840Y-42321D01*
X107840Y-42292D01*
X107835Y-42283D01*
X107830Y-42278D01*
X107830Y-42383D02*
X107835Y-42388D01*
X107840Y-42383D01*
X107835Y-42378D01*
X107830Y-42383D01*
X107840Y-42383D01*
X107740Y-42421D02*
X107740Y-42483D01*
X107778Y-42450D01*
X107778Y-42464D01*
X107783Y-42473D01*
X107788Y-42478D01*
X107797Y-42483D01*
X107821Y-42483D01*
X107830Y-42478D01*
X107835Y-42473D01*
X107840Y-42464D01*
X107840Y-42435D01*
X107835Y-42426D01*
X107830Y-42421D01*
G54D12*
X112120Y-41755D02*
X112160Y-41690D01*
X112188Y-41755D02*
X112188Y-41617D01*
X112142Y-41617D01*
X112131Y-41624D01*
X112125Y-41631D01*
X112120Y-41644D01*
X112120Y-41663D01*
X112125Y-41677D01*
X112131Y-41683D01*
X112142Y-41690D01*
X112188Y-41690D01*
X112005Y-41755D02*
X112074Y-41755D01*
X112040Y-41755D02*
X112040Y-41617D01*
X112051Y-41637D01*
X112062Y-41650D01*
X112074Y-41657D01*
X111720Y-41755D02*
X111760Y-41690D01*
X111788Y-41755D02*
X111788Y-41617D01*
X111742Y-41617D01*
X111731Y-41624D01*
X111725Y-41631D01*
X111720Y-41644D01*
X111720Y-41663D01*
X111725Y-41677D01*
X111731Y-41683D01*
X111742Y-41690D01*
X111788Y-41690D01*
X111680Y-41617D02*
X111605Y-41617D01*
X111645Y-41670D01*
X111628Y-41670D01*
X111617Y-41677D01*
X111611Y-41683D01*
X111605Y-41696D01*
X111605Y-41729D01*
X111611Y-41742D01*
X111617Y-41749D01*
X111628Y-41755D01*
X111662Y-41755D01*
X111674Y-41749D01*
X111680Y-41742D01*
X112120Y-41405D02*
X112160Y-41340D01*
X112188Y-41405D02*
X112188Y-41267D01*
X112142Y-41267D01*
X112131Y-41274D01*
X112125Y-41281D01*
X112120Y-41294D01*
X112120Y-41313D01*
X112125Y-41327D01*
X112131Y-41333D01*
X112142Y-41340D01*
X112188Y-41340D01*
X112074Y-41281D02*
X112068Y-41274D01*
X112057Y-41267D01*
X112028Y-41267D01*
X112017Y-41274D01*
X112011Y-41281D01*
X112005Y-41294D01*
X112005Y-41307D01*
X112011Y-41327D01*
X112080Y-41405D01*
X112005Y-41405D01*
X109020Y-42242D02*
X109025Y-42249D01*
X109042Y-42255D01*
X109054Y-42255D01*
X109071Y-42249D01*
X109082Y-42236D01*
X109088Y-42223D01*
X109094Y-42196D01*
X109094Y-42177D01*
X109088Y-42150D01*
X109082Y-42137D01*
X109071Y-42124D01*
X109054Y-42117D01*
X109042Y-42117D01*
X109025Y-42124D01*
X109020Y-42131D01*
X108974Y-42131D02*
X108968Y-42124D01*
X108957Y-42117D01*
X108928Y-42117D01*
X108917Y-42124D01*
X108911Y-42131D01*
X108905Y-42144D01*
X108905Y-42157D01*
X108911Y-42177D01*
X108980Y-42255D01*
X108905Y-42255D01*
X110242Y-43380D02*
X110249Y-43374D01*
X110255Y-43357D01*
X110255Y-43345D01*
X110249Y-43328D01*
X110236Y-43317D01*
X110223Y-43311D01*
X110196Y-43305D01*
X110177Y-43305D01*
X110150Y-43311D01*
X110137Y-43317D01*
X110124Y-43328D01*
X110117Y-43345D01*
X110117Y-43357D01*
X110124Y-43374D01*
X110131Y-43380D01*
X110117Y-43420D02*
X110117Y-43494D01*
X110170Y-43454D01*
X110170Y-43471D01*
X110177Y-43482D01*
X110183Y-43488D01*
X110196Y-43494D01*
X110229Y-43494D01*
X110242Y-43488D01*
X110249Y-43482D01*
X110255Y-43471D01*
X110255Y-43437D01*
X110249Y-43425D01*
X110242Y-43420D01*
X107020Y-42242D02*
X107025Y-42249D01*
X107042Y-42255D01*
X107054Y-42255D01*
X107071Y-42249D01*
X107082Y-42236D01*
X107088Y-42223D01*
X107094Y-42196D01*
X107094Y-42177D01*
X107088Y-42150D01*
X107082Y-42137D01*
X107071Y-42124D01*
X107054Y-42117D01*
X107042Y-42117D01*
X107025Y-42124D01*
X107020Y-42131D01*
X106905Y-42255D02*
X106974Y-42255D01*
X106940Y-42255D02*
X106940Y-42117D01*
X106951Y-42137D01*
X106962Y-42150D01*
X106974Y-42157D01*
M02*
