M48
;DRILL file {Pcbnew (2013-june-11)-stable} date Sat 02 Aug 2014 12:41:54 PM PDT
;FORMAT={-:-/ absolute / inch / decimal}
FMAT,2
INCH,TZ
T1C0.025
T2C0.032
%
G90
G05
M72
T1
X10.63Y-4.065
X10.73Y-4.295
X10.77Y-4.06
X10.82Y-4.06
X10.965Y-4.3
X11.06Y-4.295
X11.075Y-4.54
X11.08Y-4.195
X11.125Y-4.195
X11.215Y-4.505
X11.25Y-4.075
T2
X10.6Y-4.15
X10.6Y-4.25
X10.6Y-4.35
X10.6Y-4.45
X10.6Y-4.55
X11.3Y-4.15
X11.3Y-4.25
X11.3Y-4.35
X11.3Y-4.45
X11.3Y-4.55
T0
M30
