G04 (created by PCBNEW (2013-june-11)-stable) date Sat 19 Jul 2014 03:05:36 PM PDT*
%MOIN*%
G04 Gerber Fmt 3.4, Leading zero omitted, Abs format*
%FSLAX34Y34*%
G01*
G70*
G90*
G04 APERTURE LIST*
%ADD10C,0.00590551*%
%ADD11C,0.0075*%
%ADD12C,0.01*%
%ADD13C,0.005*%
%ADD14C,0.0028*%
%ADD15C,0.012*%
%ADD16C,0.006*%
%ADD17C,0.008*%
%ADD18C,0.0045*%
%ADD19C,0.0024*%
%ADD20C,0.0012*%
G04 APERTURE END LIST*
G54D10*
G54D11*
X97835Y-49121D02*
X97664Y-49121D01*
X97750Y-49121D02*
X97750Y-48821D01*
X97721Y-48864D01*
X97692Y-48892D01*
X97664Y-48907D01*
G54D12*
X96843Y-48135D02*
X96614Y-48095D01*
X96681Y-48297D02*
X96398Y-48014D01*
X96506Y-47906D01*
X96547Y-47893D01*
X96574Y-47893D01*
X96614Y-47906D01*
X96654Y-47946D01*
X96668Y-47987D01*
X96668Y-48014D01*
X96654Y-48054D01*
X96547Y-48162D01*
X96937Y-48014D02*
X96978Y-48000D01*
X97032Y-47946D01*
X97045Y-47906D01*
X97032Y-47866D01*
X97018Y-47852D01*
X96978Y-47839D01*
X96937Y-47852D01*
X96897Y-47893D01*
X96856Y-47906D01*
X96816Y-47893D01*
X96803Y-47879D01*
X96789Y-47839D01*
X96803Y-47798D01*
X96843Y-47758D01*
X96883Y-47744D01*
X96964Y-47637D02*
X97072Y-47529D01*
X96910Y-47502D02*
X97153Y-47744D01*
X97193Y-47758D01*
X97234Y-47744D01*
X97260Y-47717D01*
X95560Y-47879D02*
X95520Y-47893D01*
X95479Y-47933D01*
X95452Y-47987D01*
X95452Y-48041D01*
X95466Y-48081D01*
X95506Y-48148D01*
X95547Y-48189D01*
X95614Y-48229D01*
X95654Y-48243D01*
X95708Y-48243D01*
X95762Y-48216D01*
X95789Y-48189D01*
X95816Y-48135D01*
X95816Y-48108D01*
X95722Y-48014D01*
X95668Y-48068D01*
X95964Y-48014D02*
X95681Y-47731D01*
X96126Y-47852D01*
X95843Y-47569D01*
X96260Y-47717D02*
X95978Y-47435D01*
X96045Y-47367D01*
X96099Y-47340D01*
X96153Y-47340D01*
X96193Y-47354D01*
X96260Y-47394D01*
X96301Y-47435D01*
X96341Y-47502D01*
X96355Y-47542D01*
X96355Y-47596D01*
X96328Y-47650D01*
X96260Y-47717D01*
X94358Y-48054D02*
X94735Y-48243D01*
X94547Y-47866D01*
X95032Y-47920D02*
X95018Y-47960D01*
X94964Y-48014D01*
X94924Y-48027D01*
X94897Y-48027D01*
X94856Y-48014D01*
X94776Y-47933D01*
X94762Y-47893D01*
X94762Y-47866D01*
X94776Y-47825D01*
X94829Y-47771D01*
X94870Y-47758D01*
X95274Y-47677D02*
X95260Y-47717D01*
X95207Y-47771D01*
X95166Y-47785D01*
X95139Y-47785D01*
X95099Y-47771D01*
X95018Y-47691D01*
X95005Y-47650D01*
X95005Y-47623D01*
X95018Y-47583D01*
X95072Y-47529D01*
X95112Y-47515D01*
G54D13*
X94550Y-46000D02*
X95450Y-46000D01*
X95450Y-46000D02*
X95450Y-46500D01*
X95450Y-46500D02*
X94550Y-46500D01*
X94550Y-46500D02*
X94550Y-46000D01*
G54D14*
X97350Y-48100D02*
X97350Y-48300D01*
X97350Y-48300D02*
X97650Y-48300D01*
X97650Y-48300D02*
X97650Y-48100D01*
X97350Y-47900D02*
X97350Y-47700D01*
X97350Y-47700D02*
X97650Y-47700D01*
X97650Y-47700D02*
X97650Y-47900D01*
G54D15*
X110000Y-49500D02*
X102000Y-49500D01*
X102000Y-49500D02*
X102000Y-48500D01*
X102000Y-48500D02*
X110000Y-48500D01*
X110000Y-48500D02*
X110000Y-49500D01*
X109000Y-48500D02*
X109000Y-49500D01*
X94000Y-43500D02*
X102000Y-43500D01*
X102000Y-43500D02*
X102000Y-44500D01*
X102000Y-44500D02*
X94000Y-44500D01*
X94000Y-44500D02*
X94000Y-43500D01*
X95000Y-44500D02*
X95000Y-43500D01*
X102000Y-43500D02*
X110000Y-43500D01*
X110000Y-43500D02*
X110000Y-44500D01*
X110000Y-44500D02*
X102000Y-44500D01*
X102000Y-44500D02*
X102000Y-43500D01*
X103000Y-44500D02*
X103000Y-43500D01*
X94000Y-49500D02*
X94000Y-48500D01*
X94000Y-48500D02*
X97000Y-48500D01*
X97000Y-48500D02*
X97000Y-49500D01*
X97000Y-49500D02*
X94000Y-49500D01*
X95000Y-48500D02*
X95000Y-49500D01*
G54D16*
X103068Y-46234D02*
X104234Y-45068D01*
X104234Y-45068D02*
X104500Y-44802D01*
X104500Y-44802D02*
X106197Y-46500D01*
X106197Y-46500D02*
X104500Y-48197D01*
X104500Y-48197D02*
X103068Y-46765D01*
X103068Y-46765D02*
X103068Y-46234D01*
G54D17*
X101000Y-49500D02*
X98000Y-49500D01*
X98000Y-47500D02*
X101000Y-47500D01*
X101000Y-47500D02*
X101000Y-49500D01*
X98000Y-49500D02*
X98000Y-47500D01*
G54D13*
X94750Y-47250D02*
X94750Y-46750D01*
X95250Y-47250D02*
X95250Y-46760D01*
X95400Y-47250D02*
X94600Y-47250D01*
X94600Y-47250D02*
X94600Y-46750D01*
X94600Y-46750D02*
X95400Y-46750D01*
X95400Y-46750D02*
X95400Y-47250D01*
X96750Y-46750D02*
X96750Y-47250D01*
X96250Y-46750D02*
X96250Y-47240D01*
X96100Y-46750D02*
X96900Y-46750D01*
X96900Y-46750D02*
X96900Y-47250D01*
X96900Y-47250D02*
X96100Y-47250D01*
X96100Y-47250D02*
X96100Y-46750D01*
X109169Y-45514D02*
X109014Y-45669D01*
X108985Y-45330D02*
X108830Y-45485D01*
X108929Y-45273D02*
X108773Y-45429D01*
X108773Y-45429D02*
X109070Y-45726D01*
X109070Y-45726D02*
X109226Y-45570D01*
X109226Y-45570D02*
X108929Y-45273D01*
X108985Y-46669D02*
X108830Y-46514D01*
X109169Y-46485D02*
X109014Y-46330D01*
X109226Y-46429D02*
X109070Y-46273D01*
X109070Y-46273D02*
X108773Y-46570D01*
X108773Y-46570D02*
X108929Y-46726D01*
X108929Y-46726D02*
X109226Y-46429D01*
X106080Y-46235D02*
X106235Y-46080D01*
X106264Y-46419D02*
X106419Y-46264D01*
X106320Y-46476D02*
X106476Y-46320D01*
X106476Y-46320D02*
X106179Y-46023D01*
X106179Y-46023D02*
X106023Y-46179D01*
X106023Y-46179D02*
X106320Y-46476D01*
X102640Y-46370D02*
X102860Y-46370D01*
X102640Y-46630D02*
X102860Y-46630D01*
X102640Y-46710D02*
X102860Y-46710D01*
X102860Y-46710D02*
X102860Y-46290D01*
X102860Y-46290D02*
X102640Y-46290D01*
X102640Y-46290D02*
X102640Y-46710D01*
G54D18*
X94850Y-46226D02*
X94790Y-46226D01*
X94790Y-46330D02*
X94790Y-46130D01*
X94875Y-46130D01*
X95004Y-46226D02*
X95030Y-46235D01*
X95038Y-46245D01*
X95047Y-46264D01*
X95047Y-46292D01*
X95038Y-46311D01*
X95030Y-46321D01*
X95012Y-46330D01*
X94944Y-46330D01*
X94944Y-46130D01*
X95004Y-46130D01*
X95021Y-46140D01*
X95030Y-46150D01*
X95038Y-46169D01*
X95038Y-46188D01*
X95030Y-46207D01*
X95021Y-46216D01*
X95004Y-46226D01*
X94944Y-46226D01*
X95218Y-46330D02*
X95115Y-46330D01*
X95167Y-46330D02*
X95167Y-46130D01*
X95150Y-46159D01*
X95132Y-46178D01*
X95115Y-46188D01*
G54D14*
X97555Y-48020D02*
X97490Y-48060D01*
X97555Y-48088D02*
X97417Y-48088D01*
X97417Y-48042D01*
X97424Y-48031D01*
X97431Y-48025D01*
X97444Y-48020D01*
X97463Y-48020D01*
X97477Y-48025D01*
X97483Y-48031D01*
X97490Y-48042D01*
X97490Y-48088D01*
X97555Y-47905D02*
X97555Y-47974D01*
X97555Y-47940D02*
X97417Y-47940D01*
X97437Y-47951D01*
X97450Y-47962D01*
X97457Y-47974D01*
G54D12*
X107730Y-48242D02*
X107730Y-47642D01*
X107883Y-47642D01*
X107921Y-47671D01*
X107940Y-47700D01*
X107959Y-47757D01*
X107959Y-47842D01*
X107940Y-47900D01*
X107921Y-47928D01*
X107883Y-47957D01*
X107730Y-47957D01*
X108207Y-47642D02*
X108283Y-47642D01*
X108321Y-47671D01*
X108359Y-47728D01*
X108378Y-47842D01*
X108378Y-48042D01*
X108359Y-48157D01*
X108321Y-48214D01*
X108283Y-48242D01*
X108207Y-48242D01*
X108169Y-48214D01*
X108130Y-48157D01*
X108111Y-48042D01*
X108111Y-47842D01*
X108130Y-47728D01*
X108169Y-47671D01*
X108207Y-47642D01*
X108778Y-48242D02*
X108645Y-47957D01*
X108550Y-48242D02*
X108550Y-47642D01*
X108702Y-47642D01*
X108740Y-47671D01*
X108759Y-47700D01*
X108778Y-47757D01*
X108778Y-47842D01*
X108759Y-47900D01*
X108740Y-47928D01*
X108702Y-47957D01*
X108550Y-47957D01*
X108892Y-47642D02*
X109121Y-47642D01*
X109007Y-48242D02*
X109007Y-47642D01*
X109788Y-48185D02*
X109769Y-48214D01*
X109711Y-48242D01*
X109673Y-48242D01*
X109616Y-48214D01*
X109578Y-48157D01*
X109559Y-48100D01*
X109540Y-47985D01*
X109540Y-47900D01*
X109559Y-47785D01*
X109578Y-47728D01*
X109616Y-47671D01*
X109673Y-47642D01*
X109711Y-47642D01*
X109769Y-47671D01*
X109788Y-47700D01*
G54D15*
G54D12*
X94259Y-45242D02*
X94259Y-44642D01*
X94411Y-44642D01*
X94450Y-44671D01*
X94469Y-44700D01*
X94488Y-44757D01*
X94488Y-44842D01*
X94469Y-44900D01*
X94450Y-44928D01*
X94411Y-44957D01*
X94259Y-44957D01*
X94735Y-44642D02*
X94811Y-44642D01*
X94850Y-44671D01*
X94888Y-44728D01*
X94907Y-44842D01*
X94907Y-45042D01*
X94888Y-45157D01*
X94850Y-45214D01*
X94811Y-45242D01*
X94735Y-45242D01*
X94697Y-45214D01*
X94659Y-45157D01*
X94640Y-45042D01*
X94640Y-44842D01*
X94659Y-44728D01*
X94697Y-44671D01*
X94735Y-44642D01*
X95307Y-45242D02*
X95173Y-44957D01*
X95078Y-45242D02*
X95078Y-44642D01*
X95230Y-44642D01*
X95269Y-44671D01*
X95288Y-44700D01*
X95307Y-44757D01*
X95307Y-44842D01*
X95288Y-44900D01*
X95269Y-44928D01*
X95230Y-44957D01*
X95078Y-44957D01*
X95421Y-44642D02*
X95650Y-44642D01*
X95535Y-45242D02*
X95535Y-44642D01*
X96069Y-45071D02*
X96259Y-45071D01*
X96030Y-45242D02*
X96164Y-44642D01*
X96297Y-45242D01*
G54D15*
G54D12*
X101980Y-45242D02*
X101980Y-44642D01*
X102133Y-44642D01*
X102171Y-44671D01*
X102190Y-44700D01*
X102209Y-44757D01*
X102209Y-44842D01*
X102190Y-44900D01*
X102171Y-44928D01*
X102133Y-44957D01*
X101980Y-44957D01*
X102457Y-44642D02*
X102533Y-44642D01*
X102571Y-44671D01*
X102609Y-44728D01*
X102628Y-44842D01*
X102628Y-45042D01*
X102609Y-45157D01*
X102571Y-45214D01*
X102533Y-45242D01*
X102457Y-45242D01*
X102419Y-45214D01*
X102380Y-45157D01*
X102361Y-45042D01*
X102361Y-44842D01*
X102380Y-44728D01*
X102419Y-44671D01*
X102457Y-44642D01*
X103028Y-45242D02*
X102895Y-44957D01*
X102800Y-45242D02*
X102800Y-44642D01*
X102952Y-44642D01*
X102990Y-44671D01*
X103009Y-44700D01*
X103028Y-44757D01*
X103028Y-44842D01*
X103009Y-44900D01*
X102990Y-44928D01*
X102952Y-44957D01*
X102800Y-44957D01*
X103142Y-44642D02*
X103371Y-44642D01*
X103257Y-45242D02*
X103257Y-44642D01*
X103809Y-45242D02*
X103809Y-44642D01*
X103904Y-44642D01*
X103961Y-44671D01*
X104000Y-44728D01*
X104019Y-44785D01*
X104038Y-44900D01*
X104038Y-44985D01*
X104019Y-45100D01*
X104000Y-45157D01*
X103961Y-45214D01*
X103904Y-45242D01*
X103809Y-45242D01*
G54D15*
G54D17*
X98100Y-47411D02*
X98100Y-47011D01*
X98252Y-47011D01*
X98290Y-47030D01*
X98309Y-47050D01*
X98328Y-47088D01*
X98328Y-47145D01*
X98309Y-47183D01*
X98290Y-47202D01*
X98252Y-47221D01*
X98100Y-47221D01*
X98500Y-47411D02*
X98500Y-47011D01*
X98595Y-47011D01*
X98652Y-47030D01*
X98690Y-47069D01*
X98709Y-47107D01*
X98728Y-47183D01*
X98728Y-47240D01*
X98709Y-47316D01*
X98690Y-47354D01*
X98652Y-47392D01*
X98595Y-47411D01*
X98500Y-47411D01*
X98900Y-47411D02*
X98900Y-47011D01*
G54D19*
X94980Y-47426D02*
X94974Y-47432D01*
X94957Y-47437D01*
X94946Y-47437D01*
X94929Y-47432D01*
X94918Y-47420D01*
X94912Y-47409D01*
X94907Y-47387D01*
X94907Y-47370D01*
X94912Y-47347D01*
X94918Y-47336D01*
X94929Y-47325D01*
X94946Y-47319D01*
X94957Y-47319D01*
X94974Y-47325D01*
X94980Y-47331D01*
X95019Y-47319D02*
X95092Y-47319D01*
X95053Y-47364D01*
X95070Y-47364D01*
X95081Y-47370D01*
X95087Y-47375D01*
X95092Y-47387D01*
X95092Y-47415D01*
X95087Y-47426D01*
X95081Y-47432D01*
X95070Y-47437D01*
X95036Y-47437D01*
X95025Y-47432D01*
X95019Y-47426D01*
X96480Y-46646D02*
X96474Y-46652D01*
X96457Y-46657D01*
X96446Y-46657D01*
X96429Y-46652D01*
X96418Y-46640D01*
X96412Y-46629D01*
X96407Y-46607D01*
X96407Y-46590D01*
X96412Y-46567D01*
X96418Y-46556D01*
X96429Y-46545D01*
X96446Y-46539D01*
X96457Y-46539D01*
X96474Y-46545D01*
X96480Y-46551D01*
X96587Y-46539D02*
X96530Y-46539D01*
X96525Y-46595D01*
X96530Y-46590D01*
X96542Y-46584D01*
X96570Y-46584D01*
X96581Y-46590D01*
X96587Y-46595D01*
X96592Y-46607D01*
X96592Y-46635D01*
X96587Y-46646D01*
X96581Y-46652D01*
X96570Y-46657D01*
X96542Y-46657D01*
X96530Y-46652D01*
X96525Y-46646D01*
G54D20*
X109114Y-45371D02*
X109110Y-45371D01*
X109102Y-45367D01*
X109097Y-45363D01*
X109093Y-45355D01*
X109093Y-45347D01*
X109095Y-45341D01*
X109102Y-45331D01*
X109108Y-45325D01*
X109118Y-45319D01*
X109124Y-45317D01*
X109132Y-45317D01*
X109140Y-45321D01*
X109144Y-45325D01*
X109148Y-45333D01*
X109148Y-45337D01*
X109150Y-45416D02*
X109126Y-45391D01*
X109138Y-45404D02*
X109180Y-45361D01*
X109170Y-45363D01*
X109162Y-45363D01*
X109156Y-45361D01*
X109140Y-46654D02*
X109140Y-46658D01*
X109136Y-46666D01*
X109132Y-46670D01*
X109124Y-46674D01*
X109116Y-46674D01*
X109110Y-46672D01*
X109100Y-46666D01*
X109093Y-46660D01*
X109087Y-46650D01*
X109085Y-46644D01*
X109085Y-46636D01*
X109089Y-46628D01*
X109093Y-46624D01*
X109102Y-46620D01*
X109106Y-46620D01*
X109122Y-46604D02*
X109122Y-46600D01*
X109124Y-46593D01*
X109134Y-46583D01*
X109140Y-46581D01*
X109144Y-46581D01*
X109150Y-46583D01*
X109154Y-46587D01*
X109158Y-46595D01*
X109158Y-46644D01*
X109184Y-46618D01*
X106095Y-46390D02*
X106091Y-46390D01*
X106083Y-46386D01*
X106079Y-46382D01*
X106075Y-46374D01*
X106075Y-46366D01*
X106077Y-46360D01*
X106083Y-46350D01*
X106089Y-46343D01*
X106099Y-46337D01*
X106105Y-46335D01*
X106113Y-46335D01*
X106121Y-46339D01*
X106125Y-46343D01*
X106129Y-46352D01*
X106129Y-46356D01*
X106156Y-46402D02*
X106127Y-46430D01*
X106162Y-46376D02*
X106121Y-46396D01*
X106147Y-46422D01*
X102578Y-46510D02*
X102581Y-46512D01*
X102584Y-46521D01*
X102584Y-46527D01*
X102581Y-46535D01*
X102575Y-46541D01*
X102570Y-46544D01*
X102558Y-46547D01*
X102550Y-46547D01*
X102538Y-46544D01*
X102532Y-46541D01*
X102527Y-46535D01*
X102524Y-46527D01*
X102524Y-46521D01*
X102527Y-46512D01*
X102530Y-46510D01*
X102524Y-46458D02*
X102524Y-46470D01*
X102527Y-46475D01*
X102530Y-46478D01*
X102538Y-46484D01*
X102550Y-46487D01*
X102572Y-46487D01*
X102578Y-46484D01*
X102581Y-46481D01*
X102584Y-46475D01*
X102584Y-46464D01*
X102581Y-46458D01*
X102578Y-46455D01*
X102572Y-46452D01*
X102558Y-46452D01*
X102552Y-46455D01*
X102550Y-46458D01*
X102547Y-46464D01*
X102547Y-46475D01*
X102550Y-46481D01*
X102552Y-46484D01*
X102558Y-46487D01*
M02*
