M48
;DRILL file {Pcbnew (2013-june-11)-stable} date Sun 26 Jan 2014 09:55:44 PM PST
;FORMAT={-:-/ absolute / inch / decimal}
FMAT,2
INCH,TZ
T1C0.013
T2C0.025
T3C0.032
T4C0.040
%
G90
G05
M72
T1
X10.595Y-4.515
X10.635Y-4.515
X10.67Y-4.535
X10.68Y-4.65
X10.695Y-4.56
X10.705Y-4.675
X10.73Y-4.545
X10.73Y-4.705
X10.765Y-4.53
X10.77Y-4.72
X10.8Y-4.515
X10.81Y-4.72
X10.835Y-4.51
X10.84Y-4.695
X10.88Y-4.71
X10.89Y-4.495
X10.915Y-4.69
X10.92Y-4.515
X10.945Y-4.54
X10.945Y-4.66
X10.955Y-4.615
X10.96Y-4.575
T2
X9.95Y-4.7
X10.1Y-4.55
X10.625Y-4.7
T3
X9.45Y-4.4
X9.45Y-4.9
X9.55Y-4.4
X9.55Y-4.9
X9.65Y-4.4
X9.65Y-4.9
X9.75Y-4.4
X9.85Y-4.4
X9.95Y-4.4
X10.05Y-4.4
X10.15Y-4.4
X10.25Y-4.4
X10.25Y-4.9
X10.35Y-4.4
X10.35Y-4.9
X10.45Y-4.4
X10.45Y-4.9
X10.55Y-4.4
X10.55Y-4.9
X10.65Y-4.4
X10.65Y-4.9
X10.75Y-4.4
X10.75Y-4.9
X10.85Y-4.4
X10.85Y-4.9
X10.95Y-4.4
X10.95Y-4.9
T4
X9.85Y-4.8
X9.85Y-4.9
X9.95Y-4.8
X9.95Y-4.9
X10.05Y-4.8
X10.05Y-4.9
T0
M30
