M48
INCH
T20C0.038
%
T20
X000500Y007500
X003500Y001500
X003500Y000500
X000500Y006500
X000500Y005500
X000500Y004500
X000500Y003500
X000500Y002500
X000500Y001500
X000500Y000500
X003500Y006500
X003500Y005500
X003500Y004500
X003500Y003500
X003500Y009500
X003500Y008500
X003500Y007500
X000500Y009500
X000500Y008500
X003500Y002500
M30
