G04 start of page 6 for group -4063 idx -4063 *
G04 Title: (unknown), componentmask *
G04 Creator: pcb 20110918 *
G04 CreationDate: Sun Sep  8 04:32:17 2013 UTC *
G04 For: mokus *
G04 Format: Gerber/RS-274X *
G04 PCB-Dimensions: 40000 100000 *
G04 PCB-Coordinate-Origin: lower left *
%MOIN*%
%FSLAX25Y25*%
%LNTOPMASK*%
%ADD23R,0.0335X0.0335*%
%ADD22C,0.0001*%
%ADD21C,0.0660*%
G54D21*X35000Y25000D03*
Y15000D03*
Y5000D03*
X5000Y65000D03*
Y55000D03*
Y45000D03*
Y35000D03*
Y25000D03*
Y15000D03*
Y5000D03*
X35000Y65000D03*
Y55000D03*
Y45000D03*
Y35000D03*
G54D22*G36*
X31700Y98300D02*Y91700D01*
X38300D01*
Y98300D01*
X31700D01*
G37*
G54D21*X35000Y85000D03*
Y75000D03*
X5000Y95000D03*
Y85000D03*
Y75000D03*
G54D23*X28000Y65787D02*Y64213D01*
X22096Y65787D02*Y64213D01*
X12000Y65787D02*Y64213D01*
X17904Y65787D02*Y64213D01*
X12000Y75787D02*Y74213D01*
Y45787D02*Y44213D01*
Y95787D02*Y94213D01*
X17904Y75787D02*Y74213D01*
X22096Y75787D02*Y74213D01*
X28000Y75787D02*Y74213D01*
Y85787D02*Y84213D01*
Y45787D02*Y44213D01*
X12000Y85787D02*Y84213D01*
X17904Y85787D02*Y84213D01*
Y95787D02*Y94213D01*
X22096Y85787D02*Y84213D01*
Y55787D02*Y54213D01*
X28000Y35787D02*Y34213D01*
X22096Y35787D02*Y34213D01*
X12000Y25787D02*Y24213D01*
X17904Y25787D02*Y24213D01*
X28000Y25787D02*Y24213D01*
X22096Y25787D02*Y24213D01*
X28000Y5787D02*Y4213D01*
X22096Y5787D02*Y4213D01*
X17904Y5787D02*Y4213D01*
X12000Y5787D02*Y4213D01*
Y15787D02*Y14213D01*
X17904Y15787D02*Y14213D01*
X28000Y15787D02*Y14213D01*
X22096Y15787D02*Y14213D01*
X12000Y35787D02*Y34213D01*
X17904Y35787D02*Y34213D01*
Y45787D02*Y44213D01*
X22096Y45787D02*Y44213D01*
X12000Y55787D02*Y54213D01*
X17904Y55787D02*Y54213D01*
X28000Y55787D02*Y54213D01*
M02*
