G04 start of page 12 for group -3984 idx -3984 *
G04 Title: (unknown), fab *
G04 Creator: pcb 20110918 *
G04 CreationDate: Sun Sep  8 04:32:17 2013 UTC *
G04 For: mokus *
G04 Format: Gerber/RS-274X *
G04 PCB-Dimensions: 40000 100000 *
G04 PCB-Coordinate-Origin: lower left *
%MOIN*%
%FSLAX25Y25*%
%LNFAB*%
%ADD34C,0.0100*%
%ADD33C,0.0075*%
%ADD32C,0.0060*%
%ADD31C,0.0001*%
%ADD30R,0.0080X0.0080*%
G54D30*X35000Y95000D02*Y93400D01*
G54D31*G36*
X34454Y95147D02*X36533Y96346D01*
X36933Y95653D01*
X34853Y94454D01*
X34454Y95147D01*
G37*
G36*
X35147Y94454D02*X33067Y95653D01*
X33467Y96346D01*
X35546Y95147D01*
X35147Y94454D01*
G37*
G54D30*X35000Y85000D02*Y83400D01*
G54D31*G36*
X34454Y85147D02*X36533Y86346D01*
X36933Y85653D01*
X34853Y84454D01*
X34454Y85147D01*
G37*
G36*
X35147Y84454D02*X33067Y85653D01*
X33467Y86346D01*
X35546Y85147D01*
X35147Y84454D01*
G37*
G54D30*X35000Y75000D02*Y73400D01*
G54D31*G36*
X34454Y75147D02*X36533Y76346D01*
X36933Y75653D01*
X34853Y74454D01*
X34454Y75147D01*
G37*
G36*
X35147Y74454D02*X33067Y75653D01*
X33467Y76346D01*
X35546Y75147D01*
X35147Y74454D01*
G37*
G54D30*X35000Y65000D02*Y63400D01*
G54D31*G36*
X34454Y65147D02*X36533Y66346D01*
X36933Y65653D01*
X34853Y64454D01*
X34454Y65147D01*
G37*
G36*
X35147Y64454D02*X33067Y65653D01*
X33467Y66346D01*
X35546Y65147D01*
X35147Y64454D01*
G37*
G54D30*X35000Y55000D02*Y53400D01*
G54D31*G36*
X34454Y55147D02*X36533Y56346D01*
X36933Y55653D01*
X34853Y54454D01*
X34454Y55147D01*
G37*
G36*
X35147Y54454D02*X33067Y55653D01*
X33467Y56346D01*
X35546Y55147D01*
X35147Y54454D01*
G37*
G54D30*X35000Y45000D02*Y43400D01*
G54D31*G36*
X34454Y45147D02*X36533Y46346D01*
X36933Y45653D01*
X34853Y44454D01*
X34454Y45147D01*
G37*
G36*
X35147Y44454D02*X33067Y45653D01*
X33467Y46346D01*
X35546Y45147D01*
X35147Y44454D01*
G37*
G54D30*X35000Y35000D02*Y33400D01*
G54D31*G36*
X34454Y35147D02*X36533Y36346D01*
X36933Y35653D01*
X34853Y34454D01*
X34454Y35147D01*
G37*
G36*
X35147Y34454D02*X33067Y35653D01*
X33467Y36346D01*
X35546Y35147D01*
X35147Y34454D01*
G37*
G54D30*X35000Y25000D02*Y23400D01*
G54D31*G36*
X34454Y25147D02*X36533Y26346D01*
X36933Y25653D01*
X34853Y24454D01*
X34454Y25147D01*
G37*
G36*
X35147Y24454D02*X33067Y25653D01*
X33467Y26346D01*
X35546Y25147D01*
X35147Y24454D01*
G37*
G54D30*X35000Y15000D02*Y13400D01*
G54D31*G36*
X34454Y15147D02*X36533Y16346D01*
X36933Y15653D01*
X34853Y14454D01*
X34454Y15147D01*
G37*
G36*
X35147Y14454D02*X33067Y15653D01*
X33467Y16346D01*
X35546Y15147D01*
X35147Y14454D01*
G37*
G54D30*X35000Y5000D02*Y3400D01*
G54D31*G36*
X34454Y5147D02*X36533Y6346D01*
X36933Y5653D01*
X34853Y4454D01*
X34454Y5147D01*
G37*
G36*
X35147Y4454D02*X33067Y5653D01*
X33467Y6346D01*
X35546Y5147D01*
X35147Y4454D01*
G37*
G54D30*X5000Y95000D02*Y93400D01*
G54D31*G36*
X4454Y95147D02*X6533Y96346D01*
X6933Y95653D01*
X4853Y94454D01*
X4454Y95147D01*
G37*
G36*
X5147Y94454D02*X3067Y95653D01*
X3467Y96346D01*
X5546Y95147D01*
X5147Y94454D01*
G37*
G54D30*X5000Y85000D02*Y83400D01*
G54D31*G36*
X4454Y85147D02*X6533Y86346D01*
X6933Y85653D01*
X4853Y84454D01*
X4454Y85147D01*
G37*
G36*
X5147Y84454D02*X3067Y85653D01*
X3467Y86346D01*
X5546Y85147D01*
X5147Y84454D01*
G37*
G54D30*X5000Y75000D02*Y73400D01*
G54D31*G36*
X4454Y75147D02*X6533Y76346D01*
X6933Y75653D01*
X4853Y74454D01*
X4454Y75147D01*
G37*
G36*
X5147Y74454D02*X3067Y75653D01*
X3467Y76346D01*
X5546Y75147D01*
X5147Y74454D01*
G37*
G54D30*X5000Y65000D02*Y63400D01*
G54D31*G36*
X4454Y65147D02*X6533Y66346D01*
X6933Y65653D01*
X4853Y64454D01*
X4454Y65147D01*
G37*
G36*
X5147Y64454D02*X3067Y65653D01*
X3467Y66346D01*
X5546Y65147D01*
X5147Y64454D01*
G37*
G54D30*X5000Y55000D02*Y53400D01*
G54D31*G36*
X4454Y55147D02*X6533Y56346D01*
X6933Y55653D01*
X4853Y54454D01*
X4454Y55147D01*
G37*
G36*
X5147Y54454D02*X3067Y55653D01*
X3467Y56346D01*
X5546Y55147D01*
X5147Y54454D01*
G37*
G54D30*X5000Y45000D02*Y43400D01*
G54D31*G36*
X4454Y45147D02*X6533Y46346D01*
X6933Y45653D01*
X4853Y44454D01*
X4454Y45147D01*
G37*
G36*
X5147Y44454D02*X3067Y45653D01*
X3467Y46346D01*
X5546Y45147D01*
X5147Y44454D01*
G37*
G54D30*X5000Y35000D02*Y33400D01*
G54D31*G36*
X4454Y35147D02*X6533Y36346D01*
X6933Y35653D01*
X4853Y34454D01*
X4454Y35147D01*
G37*
G36*
X5147Y34454D02*X3067Y35653D01*
X3467Y36346D01*
X5546Y35147D01*
X5147Y34454D01*
G37*
G54D30*X5000Y25000D02*Y23400D01*
G54D31*G36*
X4454Y25147D02*X6533Y26346D01*
X6933Y25653D01*
X4853Y24454D01*
X4454Y25147D01*
G37*
G36*
X5147Y24454D02*X3067Y25653D01*
X3467Y26346D01*
X5546Y25147D01*
X5147Y24454D01*
G37*
G54D30*X5000Y15000D02*Y13400D01*
G54D31*G36*
X4454Y15147D02*X6533Y16346D01*
X6933Y15653D01*
X4853Y14454D01*
X4454Y15147D01*
G37*
G36*
X5147Y14454D02*X3067Y15653D01*
X3467Y16346D01*
X5546Y15147D01*
X5147Y14454D01*
G37*
G54D30*X5000Y5000D02*Y3400D01*
G54D31*G36*
X4454Y5147D02*X6533Y6346D01*
X6933Y5653D01*
X4853Y4454D01*
X4454Y5147D01*
G37*
G36*
X5147Y4454D02*X3067Y5653D01*
X3467Y6346D01*
X5546Y5147D01*
X5147Y4454D01*
G37*
G54D30*X15000Y156250D02*Y154650D01*
G54D31*G36*
X14454Y156397D02*X16533Y157596D01*
X16933Y156903D01*
X14853Y155704D01*
X14454Y156397D01*
G37*
G36*
X15147Y155704D02*X13067Y156903D01*
X13467Y157596D01*
X15546Y156397D01*
X15147Y155704D01*
G37*
G54D32*X135000Y158500D02*X136500Y155500D01*
X138000Y158500D01*
X136500Y155500D02*Y152500D01*
X139800Y155800D02*X142050D01*
X139800Y152500D02*X142800D01*
X139800Y158500D02*Y152500D01*
Y158500D02*X142800D01*
X147600D02*X148350Y157750D01*
X145350Y158500D02*X147600D01*
X144600Y157750D02*X145350Y158500D01*
X144600Y157750D02*Y156250D01*
X145350Y155500D01*
X147600D01*
X148350Y154750D01*
Y153250D01*
X147600Y152500D02*X148350Y153250D01*
X145350Y152500D02*X147600D01*
X144600Y153250D02*X145350Y152500D01*
X98000Y157750D02*X98750Y158500D01*
X101000D01*
X101750Y157750D01*
Y156250D01*
X98000Y152500D02*X101750Y156250D01*
X98000Y152500D02*X101750D01*
X103550Y153250D02*X104300Y152500D01*
X103550Y157750D02*Y153250D01*
Y157750D02*X104300Y158500D01*
X105800D01*
X106550Y157750D01*
Y153250D01*
X105800Y152500D02*X106550Y153250D01*
X104300Y152500D02*X105800D01*
X103550Y154000D02*X106550Y157000D01*
X45000Y153250D02*X45750Y152500D01*
X45000Y157750D02*Y153250D01*
Y157750D02*X45750Y158500D01*
X47250D01*
X48000Y157750D01*
Y153250D01*
X47250Y152500D02*X48000Y153250D01*
X45750Y152500D02*X47250D01*
X45000Y154000D02*X48000Y157000D01*
X49800Y152500D02*X50550D01*
X52350Y153250D02*X53100Y152500D01*
X52350Y157750D02*Y153250D01*
Y157750D02*X53100Y158500D01*
X54600D01*
X55350Y157750D01*
Y153250D01*
X54600Y152500D02*X55350Y153250D01*
X53100Y152500D02*X54600D01*
X52350Y154000D02*X55350Y157000D01*
X57150Y157750D02*X57900Y158500D01*
X59400D01*
X60150Y157750D01*
X59400Y152500D02*X60150Y153250D01*
X57900Y152500D02*X59400D01*
X57150Y153250D02*X57900Y152500D01*
Y155800D02*X59400D01*
X60150Y157750D02*Y156550D01*
Y155050D02*Y153250D01*
Y155050D02*X59400Y155800D01*
X60150Y156550D02*X59400Y155800D01*
X61950Y153250D02*X62700Y152500D01*
X61950Y154450D02*Y153250D01*
Y154450D02*X63000Y155500D01*
X63900D01*
X64950Y154450D01*
Y153250D01*
X64200Y152500D02*X64950Y153250D01*
X62700Y152500D02*X64200D01*
X61950Y156550D02*X63000Y155500D01*
X61950Y157750D02*Y156550D01*
Y157750D02*X62700Y158500D01*
X64200D01*
X64950Y157750D01*
Y156550D01*
X63900Y155500D02*X64950Y156550D01*
X3000Y173500D02*X3750Y172750D01*
X750Y173500D02*X3000D01*
X0Y172750D02*X750Y173500D01*
X0Y172750D02*Y171250D01*
X750Y170500D01*
X3000D01*
X3750Y169750D01*
Y168250D01*
X3000Y167500D02*X3750Y168250D01*
X750Y167500D02*X3000D01*
X0Y168250D02*X750Y167500D01*
X5550Y170500D02*Y168250D01*
X6300Y167500D01*
X8550Y170500D02*Y166000D01*
X7800Y165250D02*X8550Y166000D01*
X6300Y165250D02*X7800D01*
X5550Y166000D02*X6300Y165250D01*
Y167500D02*X7800D01*
X8550Y168250D01*
X11100Y169750D02*Y167500D01*
Y169750D02*X11850Y170500D01*
X12600D01*
X13350Y169750D01*
Y167500D01*
Y169750D02*X14100Y170500D01*
X14850D01*
X15600Y169750D01*
Y167500D01*
X10350Y170500D02*X11100Y169750D01*
X17400Y173500D02*Y167500D01*
Y168250D02*X18150Y167500D01*
X19650D01*
X20400Y168250D01*
Y169750D02*Y168250D01*
X19650Y170500D02*X20400Y169750D01*
X18150Y170500D02*X19650D01*
X17400Y169750D02*X18150Y170500D01*
X22200Y169750D02*Y168250D01*
Y169750D02*X22950Y170500D01*
X24450D01*
X25200Y169750D01*
Y168250D01*
X24450Y167500D02*X25200Y168250D01*
X22950Y167500D02*X24450D01*
X22200Y168250D02*X22950Y167500D01*
X27000Y173500D02*Y168250D01*
X27750Y167500D01*
X0Y164250D02*X29250D01*
X41750Y173500D02*Y167500D01*
X43700Y173500D02*X44750Y172450D01*
Y168550D01*
X43700Y167500D02*X44750Y168550D01*
X41000Y167500D02*X43700D01*
X41000Y173500D02*X43700D01*
G54D33*X46550Y172000D02*Y171850D01*
G54D32*Y169750D02*Y167500D01*
X50300Y170500D02*X51050Y169750D01*
X48800Y170500D02*X50300D01*
X48050Y169750D02*X48800Y170500D01*
X48050Y169750D02*Y168250D01*
X48800Y167500D01*
X51050Y170500D02*Y168250D01*
X51800Y167500D01*
X48800D02*X50300D01*
X51050Y168250D01*
X54350Y169750D02*Y167500D01*
Y169750D02*X55100Y170500D01*
X55850D01*
X56600Y169750D01*
Y167500D01*
Y169750D02*X57350Y170500D01*
X58100D01*
X58850Y169750D01*
Y167500D01*
X53600Y170500D02*X54350Y169750D01*
X60650Y167500D02*X61400D01*
X65900Y168250D02*X66650Y167500D01*
X65900Y172750D02*X66650Y173500D01*
X65900Y172750D02*Y168250D01*
X68450Y173500D02*X69950D01*
X69200D02*Y167500D01*
X68450D02*X69950D01*
X72500Y169750D02*Y167500D01*
Y169750D02*X73250Y170500D01*
X74000D01*
X74750Y169750D01*
Y167500D01*
X71750Y170500D02*X72500Y169750D01*
X77300Y170500D02*X79550D01*
X76550Y169750D02*X77300Y170500D01*
X76550Y169750D02*Y168250D01*
X77300Y167500D01*
X79550D01*
X81350Y173500D02*Y167500D01*
Y169750D02*X82100Y170500D01*
X83600D01*
X84350Y169750D01*
Y167500D01*
X86150Y173500D02*X86900Y172750D01*
Y168250D01*
X86150Y167500D02*X86900Y168250D01*
X41000Y164250D02*X88700D01*
X96050Y167500D02*X98000D01*
X95000Y168550D02*X96050Y167500D01*
X95000Y172450D02*Y168550D01*
Y172450D02*X96050Y173500D01*
X98000D01*
X99800Y169750D02*Y168250D01*
Y169750D02*X100550Y170500D01*
X102050D01*
X102800Y169750D01*
Y168250D01*
X102050Y167500D02*X102800Y168250D01*
X100550Y167500D02*X102050D01*
X99800Y168250D02*X100550Y167500D01*
X104600Y170500D02*Y168250D01*
X105350Y167500D01*
X106850D01*
X107600Y168250D01*
Y170500D02*Y168250D01*
X110150Y169750D02*Y167500D01*
Y169750D02*X110900Y170500D01*
X111650D01*
X112400Y169750D01*
Y167500D01*
X109400Y170500D02*X110150Y169750D01*
X114950Y173500D02*Y168250D01*
X115700Y167500D01*
X114200Y171250D02*X115700D01*
X95000Y164250D02*X117200D01*
X130750Y173500D02*Y167500D01*
X130000Y173500D02*X133000D01*
X133750Y172750D01*
Y171250D01*
X133000Y170500D02*X133750Y171250D01*
X130750Y170500D02*X133000D01*
X135550Y173500D02*Y168250D01*
X136300Y167500D01*
X140050Y170500D02*X140800Y169750D01*
X138550Y170500D02*X140050D01*
X137800Y169750D02*X138550Y170500D01*
X137800Y169750D02*Y168250D01*
X138550Y167500D01*
X140800Y170500D02*Y168250D01*
X141550Y167500D01*
X138550D02*X140050D01*
X140800Y168250D01*
X144100Y173500D02*Y168250D01*
X144850Y167500D01*
X143350Y171250D02*X144850D01*
X147100Y167500D02*X149350D01*
X146350Y168250D02*X147100Y167500D01*
X146350Y169750D02*Y168250D01*
Y169750D02*X147100Y170500D01*
X148600D01*
X149350Y169750D01*
X146350Y169000D02*X149350D01*
Y169750D02*Y169000D01*
X154150Y173500D02*Y167500D01*
X153400D02*X154150Y168250D01*
X151900Y167500D02*X153400D01*
X151150Y168250D02*X151900Y167500D01*
X151150Y169750D02*Y168250D01*
Y169750D02*X151900Y170500D01*
X153400D01*
X154150Y169750D01*
X157450Y170500D02*Y169750D01*
Y168250D02*Y167500D01*
X155950Y172750D02*Y172000D01*
Y172750D02*X156700Y173500D01*
X158200D01*
X158950Y172750D01*
Y172000D01*
X157450Y170500D02*X158950Y172000D01*
X130000Y164250D02*X160750D01*
X0Y188500D02*X3000D01*
X1500D02*Y182500D01*
X4800Y188500D02*Y182500D01*
Y184750D02*X5550Y185500D01*
X7050D01*
X7800Y184750D01*
Y182500D01*
X10350D02*X12600D01*
X9600Y183250D02*X10350Y182500D01*
X9600Y184750D02*Y183250D01*
Y184750D02*X10350Y185500D01*
X11850D01*
X12600Y184750D01*
X9600Y184000D02*X12600D01*
Y184750D02*Y184000D01*
X15150Y184750D02*Y182500D01*
Y184750D02*X15900Y185500D01*
X17400D01*
X14400D02*X15150Y184750D01*
X19950Y182500D02*X22200D01*
X19200Y183250D02*X19950Y182500D01*
X19200Y184750D02*Y183250D01*
Y184750D02*X19950Y185500D01*
X21450D01*
X22200Y184750D01*
X19200Y184000D02*X22200D01*
Y184750D02*Y184000D01*
X28950Y185500D02*X29700Y184750D01*
X27450Y185500D02*X28950D01*
X26700Y184750D02*X27450Y185500D01*
X26700Y184750D02*Y183250D01*
X27450Y182500D01*
X29700Y185500D02*Y183250D01*
X30450Y182500D01*
X27450D02*X28950D01*
X29700Y183250D01*
X33000Y184750D02*Y182500D01*
Y184750D02*X33750Y185500D01*
X35250D01*
X32250D02*X33000Y184750D01*
X37800Y182500D02*X40050D01*
X37050Y183250D02*X37800Y182500D01*
X37050Y184750D02*Y183250D01*
Y184750D02*X37800Y185500D01*
X39300D01*
X40050Y184750D01*
X37050Y184000D02*X40050D01*
Y184750D02*Y184000D01*
X44550Y187300D02*X45750Y188500D01*
Y182500D01*
X44550D02*X46800D01*
X54300Y188500D02*Y182500D01*
X53550D02*X54300Y183250D01*
X52050Y182500D02*X53550D01*
X51300Y183250D02*X52050Y182500D01*
X51300Y184750D02*Y183250D01*
Y184750D02*X52050Y185500D01*
X53550D01*
X54300Y184750D01*
G54D33*X56100Y187000D02*Y186850D01*
G54D32*Y184750D02*Y182500D01*
X58350Y187750D02*Y182500D01*
Y187750D02*X59100Y188500D01*
X59850D01*
X57600Y185500D02*X59100D01*
X62100Y187750D02*Y182500D01*
Y187750D02*X62850Y188500D01*
X63600D01*
X61350Y185500D02*X62850D01*
X65850Y182500D02*X68100D01*
X65100Y183250D02*X65850Y182500D01*
X65100Y184750D02*Y183250D01*
Y184750D02*X65850Y185500D01*
X67350D01*
X68100Y184750D01*
X65100Y184000D02*X68100D01*
Y184750D02*Y184000D01*
X70650Y184750D02*Y182500D01*
Y184750D02*X71400Y185500D01*
X72900D01*
X69900D02*X70650Y184750D01*
X75450Y182500D02*X77700D01*
X74700Y183250D02*X75450Y182500D01*
X74700Y184750D02*Y183250D01*
Y184750D02*X75450Y185500D01*
X76950D01*
X77700Y184750D01*
X74700Y184000D02*X77700D01*
Y184750D02*Y184000D01*
X80250Y184750D02*Y182500D01*
Y184750D02*X81000Y185500D01*
X81750D01*
X82500Y184750D01*
Y182500D01*
X79500Y185500D02*X80250Y184750D01*
X85050Y188500D02*Y183250D01*
X85800Y182500D01*
X84300Y186250D02*X85800D01*
X93000Y188500D02*Y182500D01*
X92250D02*X93000Y183250D01*
X90750Y182500D02*X92250D01*
X90000Y183250D02*X90750Y182500D01*
X90000Y184750D02*Y183250D01*
Y184750D02*X90750Y185500D01*
X92250D01*
X93000Y184750D01*
X95550D02*Y182500D01*
Y184750D02*X96300Y185500D01*
X97800D01*
X94800D02*X95550Y184750D01*
G54D33*X99600Y187000D02*Y186850D01*
G54D32*Y184750D02*Y182500D01*
X101100Y188500D02*Y183250D01*
X101850Y182500D01*
X103350Y188500D02*Y183250D01*
X104100Y182500D01*
X109050D02*X111300D01*
X112050Y183250D01*
X111300Y184000D02*X112050Y183250D01*
X109050Y184000D02*X111300D01*
X108300Y184750D02*X109050Y184000D01*
X108300Y184750D02*X109050Y185500D01*
X111300D01*
X112050Y184750D01*
X108300Y183250D02*X109050Y182500D01*
G54D33*X113850Y187000D02*Y186850D01*
G54D32*Y184750D02*Y182500D01*
X115350Y185500D02*X118350D01*
X115350Y182500D02*X118350Y185500D01*
X115350Y182500D02*X118350D01*
X120900D02*X123150D01*
X120150Y183250D02*X120900Y182500D01*
X120150Y184750D02*Y183250D01*
Y184750D02*X120900Y185500D01*
X122400D01*
X123150Y184750D01*
X120150Y184000D02*X123150D01*
Y184750D02*Y184000D01*
X125700Y182500D02*X127950D01*
X128700Y183250D01*
X127950Y184000D02*X128700Y183250D01*
X125700Y184000D02*X127950D01*
X124950Y184750D02*X125700Y184000D01*
X124950Y184750D02*X125700Y185500D01*
X127950D01*
X128700Y184750D01*
X124950Y183250D02*X125700Y182500D01*
X133200Y185500D02*Y183250D01*
X133950Y182500D01*
X135450D01*
X136200Y183250D01*
Y185500D02*Y183250D01*
X138750Y182500D02*X141000D01*
X141750Y183250D01*
X141000Y184000D02*X141750Y183250D01*
X138750Y184000D02*X141000D01*
X138000Y184750D02*X138750Y184000D01*
X138000Y184750D02*X138750Y185500D01*
X141000D01*
X141750Y184750D01*
X138000Y183250D02*X138750Y182500D01*
X144300D02*X146550D01*
X143550Y183250D02*X144300Y182500D01*
X143550Y184750D02*Y183250D01*
Y184750D02*X144300Y185500D01*
X145800D01*
X146550Y184750D01*
X143550Y184000D02*X146550D01*
Y184750D02*Y184000D01*
X151350Y188500D02*Y182500D01*
X150600D02*X151350Y183250D01*
X149100Y182500D02*X150600D01*
X148350Y183250D02*X149100Y182500D01*
X148350Y184750D02*Y183250D01*
Y184750D02*X149100Y185500D01*
X150600D01*
X151350Y184750D01*
G54D33*X155850Y187000D02*Y186850D01*
G54D32*Y184750D02*Y182500D01*
X158100Y184750D02*Y182500D01*
Y184750D02*X158850Y185500D01*
X159600D01*
X160350Y184750D01*
Y182500D01*
X157350Y185500D02*X158100Y184750D01*
X165600Y188500D02*Y183250D01*
X166350Y182500D01*
X164850Y186250D02*X166350D01*
X167850Y188500D02*Y182500D01*
Y184750D02*X168600Y185500D01*
X170100D01*
X170850Y184750D01*
Y182500D01*
G54D33*X172650Y187000D02*Y186850D01*
G54D32*Y184750D02*Y182500D01*
X174900D02*X177150D01*
X177900Y183250D01*
X177150Y184000D02*X177900Y183250D01*
X174900Y184000D02*X177150D01*
X174150Y184750D02*X174900Y184000D01*
X174150Y184750D02*X174900Y185500D01*
X177150D01*
X177900Y184750D01*
X174150Y183250D02*X174900Y182500D01*
X182400Y188500D02*Y183250D01*
X183150Y182500D01*
X186900Y185500D02*X187650Y184750D01*
X185400Y185500D02*X186900D01*
X184650Y184750D02*X185400Y185500D01*
X184650Y184750D02*Y183250D01*
X185400Y182500D01*
X187650Y185500D02*Y183250D01*
X188400Y182500D01*
X185400D02*X186900D01*
X187650Y183250D01*
X190200Y185500D02*Y183250D01*
X190950Y182500D01*
X193200Y185500D02*Y181000D01*
X192450Y180250D02*X193200Y181000D01*
X190950Y180250D02*X192450D01*
X190200Y181000D02*X190950Y180250D01*
Y182500D02*X192450D01*
X193200Y183250D01*
X195000Y184750D02*Y183250D01*
Y184750D02*X195750Y185500D01*
X197250D01*
X198000Y184750D01*
Y183250D01*
X197250Y182500D02*X198000Y183250D01*
X195750Y182500D02*X197250D01*
X195000Y183250D02*X195750Y182500D01*
X199800Y185500D02*Y183250D01*
X200550Y182500D01*
X202050D01*
X202800Y183250D01*
Y185500D02*Y183250D01*
X205350Y188500D02*Y183250D01*
X206100Y182500D01*
X204600Y186250D02*X206100D01*
X207600Y181000D02*X209100Y182500D01*
X213600Y187750D02*X214350Y188500D01*
X216600D01*
X217350Y187750D01*
Y186250D01*
X213600Y182500D02*X217350Y186250D01*
X213600Y182500D02*X217350D01*
X219150Y183250D02*X219900Y182500D01*
X219150Y187750D02*Y183250D01*
Y187750D02*X219900Y188500D01*
X221400D01*
X222150Y187750D01*
Y183250D01*
X221400Y182500D02*X222150Y183250D01*
X219900Y182500D02*X221400D01*
X219150Y184000D02*X222150Y187000D01*
X226650Y188500D02*Y182500D01*
Y184750D02*X227400Y185500D01*
X228900D01*
X229650Y184750D01*
Y182500D01*
X231450Y184750D02*Y183250D01*
Y184750D02*X232200Y185500D01*
X233700D01*
X234450Y184750D01*
Y183250D01*
X233700Y182500D02*X234450Y183250D01*
X232200Y182500D02*X233700D01*
X231450Y183250D02*X232200Y182500D01*
X236250Y188500D02*Y183250D01*
X237000Y182500D01*
X239250D02*X241500D01*
X238500Y183250D02*X239250Y182500D01*
X238500Y184750D02*Y183250D01*
Y184750D02*X239250Y185500D01*
X240750D01*
X241500Y184750D01*
X238500Y184000D02*X241500D01*
Y184750D02*Y184000D01*
X244050Y182500D02*X246300D01*
X247050Y183250D01*
X246300Y184000D02*X247050Y183250D01*
X244050Y184000D02*X246300D01*
X243300Y184750D02*X244050Y184000D01*
X243300Y184750D02*X244050Y185500D01*
X246300D01*
X247050Y184750D01*
X243300Y183250D02*X244050Y182500D01*
X252300Y188500D02*Y183250D01*
X253050Y182500D01*
X251550Y186250D02*X253050D01*
X254550Y184750D02*Y183250D01*
Y184750D02*X255300Y185500D01*
X256800D01*
X257550Y184750D01*
Y183250D01*
X256800Y182500D02*X257550Y183250D01*
X255300Y182500D02*X256800D01*
X254550Y183250D02*X255300Y182500D01*
X260100Y188500D02*Y183250D01*
X260850Y182500D01*
X259350Y186250D02*X260850D01*
X264600Y185500D02*X265350Y184750D01*
X263100Y185500D02*X264600D01*
X262350Y184750D02*X263100Y185500D01*
X262350Y184750D02*Y183250D01*
X263100Y182500D01*
X265350Y185500D02*Y183250D01*
X266100Y182500D01*
X263100D02*X264600D01*
X265350Y183250D01*
X267900Y188500D02*Y183250D01*
X268650Y182500D01*
G54D34*X2500Y0D02*X37500D01*
X40000Y2500D02*Y97500D01*
X37500Y100000D02*X2500D01*
X0Y97500D02*Y2500D01*
Y97500D02*G75*G02X2500Y100000I2500J0D01*G01*
X37500D02*G75*G02X40000Y97500I0J-2500D01*G01*
X0Y2500D02*G75*G03X2500Y0I2500J0D01*G01*
X37500D02*G75*G03X40000Y2500I0J2500D01*G01*
G54D32*X0Y-9500D02*X3000D01*
X3750Y-8750D01*
Y-6950D02*Y-8750D01*
X3000Y-6200D02*X3750Y-6950D01*
X750Y-6200D02*X3000D01*
X750Y-3500D02*Y-9500D01*
X0Y-3500D02*X3000D01*
X3750Y-4250D01*
Y-5450D01*
X3000Y-6200D02*X3750Y-5450D01*
X5550Y-7250D02*Y-8750D01*
Y-7250D02*X6300Y-6500D01*
X7800D01*
X8550Y-7250D01*
Y-8750D01*
X7800Y-9500D02*X8550Y-8750D01*
X6300Y-9500D02*X7800D01*
X5550Y-8750D02*X6300Y-9500D01*
X12600Y-6500D02*X13350Y-7250D01*
X11100Y-6500D02*X12600D01*
X10350Y-7250D02*X11100Y-6500D01*
X10350Y-7250D02*Y-8750D01*
X11100Y-9500D01*
X13350Y-6500D02*Y-8750D01*
X14100Y-9500D01*
X11100D02*X12600D01*
X13350Y-8750D01*
X16650Y-7250D02*Y-9500D01*
Y-7250D02*X17400Y-6500D01*
X18900D01*
X15900D02*X16650Y-7250D01*
X23700Y-3500D02*Y-9500D01*
X22950D02*X23700Y-8750D01*
X21450Y-9500D02*X22950D01*
X20700Y-8750D02*X21450Y-9500D01*
X20700Y-7250D02*Y-8750D01*
Y-7250D02*X21450Y-6500D01*
X22950D01*
X23700Y-7250D01*
X28200D02*Y-8750D01*
Y-7250D02*X28950Y-6500D01*
X30450D01*
X31200Y-7250D01*
Y-8750D01*
X30450Y-9500D02*X31200Y-8750D01*
X28950Y-9500D02*X30450D01*
X28200Y-8750D02*X28950Y-9500D01*
X33000Y-6500D02*Y-8750D01*
X33750Y-9500D01*
X35250D01*
X36000Y-8750D01*
Y-6500D02*Y-8750D01*
X38550Y-3500D02*Y-8750D01*
X39300Y-9500D01*
X37800Y-5750D02*X39300D01*
X40800Y-3500D02*Y-8750D01*
X41550Y-9500D01*
G54D33*X43050Y-5000D02*Y-5150D01*
G54D32*Y-7250D02*Y-9500D01*
X45300Y-7250D02*Y-9500D01*
Y-7250D02*X46050Y-6500D01*
X46800D01*
X47550Y-7250D01*
Y-9500D01*
X44550Y-6500D02*X45300Y-7250D01*
X50100Y-9500D02*X52350D01*
X49350Y-8750D02*X50100Y-9500D01*
X49350Y-7250D02*Y-8750D01*
Y-7250D02*X50100Y-6500D01*
X51600D01*
X52350Y-7250D01*
X49350Y-8000D02*X52350D01*
Y-7250D02*Y-8000D01*
G54D33*X56850Y-5000D02*Y-5150D01*
G54D32*Y-7250D02*Y-9500D01*
X59100D02*X61350D01*
X62100Y-8750D01*
X61350Y-8000D02*X62100Y-8750D01*
X59100Y-8000D02*X61350D01*
X58350Y-7250D02*X59100Y-8000D01*
X58350Y-7250D02*X59100Y-6500D01*
X61350D01*
X62100Y-7250D01*
X58350Y-8750D02*X59100Y-9500D01*
X67350Y-3500D02*Y-8750D01*
X68100Y-9500D01*
X66600Y-5750D02*X68100D01*
X69600Y-3500D02*Y-9500D01*
Y-7250D02*X70350Y-6500D01*
X71850D01*
X72600Y-7250D01*
Y-9500D01*
X75150D02*X77400D01*
X74400Y-8750D02*X75150Y-9500D01*
X74400Y-7250D02*Y-8750D01*
Y-7250D02*X75150Y-6500D01*
X76650D01*
X77400Y-7250D01*
X74400Y-8000D02*X77400D01*
Y-7250D02*Y-8000D01*
X82650Y-6500D02*X84900D01*
X81900Y-7250D02*X82650Y-6500D01*
X81900Y-7250D02*Y-8750D01*
X82650Y-9500D01*
X84900D01*
X87450D02*X89700D01*
X86700Y-8750D02*X87450Y-9500D01*
X86700Y-7250D02*Y-8750D01*
Y-7250D02*X87450Y-6500D01*
X88950D01*
X89700Y-7250D01*
X86700Y-8000D02*X89700D01*
Y-7250D02*Y-8000D01*
X92250Y-7250D02*Y-9500D01*
Y-7250D02*X93000Y-6500D01*
X93750D01*
X94500Y-7250D01*
Y-9500D01*
X91500Y-6500D02*X92250Y-7250D01*
X97050Y-3500D02*Y-8750D01*
X97800Y-9500D01*
X96300Y-5750D02*X97800D01*
X100050Y-9500D02*X102300D01*
X99300Y-8750D02*X100050Y-9500D01*
X99300Y-7250D02*Y-8750D01*
Y-7250D02*X100050Y-6500D01*
X101550D01*
X102300Y-7250D01*
X99300Y-8000D02*X102300D01*
Y-7250D02*Y-8000D01*
X104850Y-7250D02*Y-9500D01*
Y-7250D02*X105600Y-6500D01*
X107100D01*
X104100D02*X104850Y-7250D01*
X108900Y-3500D02*Y-8750D01*
X109650Y-9500D01*
G54D33*X111150Y-5000D02*Y-5150D01*
G54D32*Y-7250D02*Y-9500D01*
X113400Y-7250D02*Y-9500D01*
Y-7250D02*X114150Y-6500D01*
X114900D01*
X115650Y-7250D01*
Y-9500D01*
X112650Y-6500D02*X113400Y-7250D01*
X118200Y-9500D02*X120450D01*
X117450Y-8750D02*X118200Y-9500D01*
X117450Y-7250D02*Y-8750D01*
Y-7250D02*X118200Y-6500D01*
X119700D01*
X120450Y-7250D01*
X117450Y-8000D02*X120450D01*
Y-7250D02*Y-8000D01*
X124950Y-7250D02*Y-8750D01*
Y-7250D02*X125700Y-6500D01*
X127200D01*
X127950Y-7250D01*
Y-8750D01*
X127200Y-9500D02*X127950Y-8750D01*
X125700Y-9500D02*X127200D01*
X124950Y-8750D02*X125700Y-9500D01*
X130500Y-4250D02*Y-9500D01*
Y-4250D02*X131250Y-3500D01*
X132000D01*
X129750Y-6500D02*X131250D01*
X136950Y-3500D02*Y-8750D01*
X137700Y-9500D01*
X136200Y-5750D02*X137700D01*
X139200Y-3500D02*Y-9500D01*
Y-7250D02*X139950Y-6500D01*
X141450D01*
X142200Y-7250D01*
Y-9500D01*
G54D33*X144000Y-5000D02*Y-5150D01*
G54D32*Y-7250D02*Y-9500D01*
X146250D02*X148500D01*
X149250Y-8750D01*
X148500Y-8000D02*X149250Y-8750D01*
X146250Y-8000D02*X148500D01*
X145500Y-7250D02*X146250Y-8000D01*
X145500Y-7250D02*X146250Y-6500D01*
X148500D01*
X149250Y-7250D01*
X145500Y-8750D02*X146250Y-9500D01*
X154500Y-7250D02*Y-11750D01*
X153750Y-6500D02*X154500Y-7250D01*
X155250Y-6500D01*
X156750D01*
X157500Y-7250D01*
Y-8750D01*
X156750Y-9500D02*X157500Y-8750D01*
X155250Y-9500D02*X156750D01*
X154500Y-8750D02*X155250Y-9500D01*
X161550Y-6500D02*X162300Y-7250D01*
X160050Y-6500D02*X161550D01*
X159300Y-7250D02*X160050Y-6500D01*
X159300Y-7250D02*Y-8750D01*
X160050Y-9500D01*
X162300Y-6500D02*Y-8750D01*
X163050Y-9500D01*
X160050D02*X161550D01*
X162300Y-8750D01*
X165600Y-3500D02*Y-8750D01*
X166350Y-9500D01*
X164850Y-5750D02*X166350D01*
X167850Y-3500D02*Y-9500D01*
Y-7250D02*X168600Y-6500D01*
X170100D01*
X170850Y-7250D01*
Y-9500D01*
X200750Y128500D02*Y122500D01*
X202700Y128500D02*X203750Y127450D01*
Y123550D01*
X202700Y122500D02*X203750Y123550D01*
X200000Y122500D02*X202700D01*
X200000Y128500D02*X202700D01*
X207800Y125500D02*X208550Y124750D01*
X206300Y125500D02*X207800D01*
X205550Y124750D02*X206300Y125500D01*
X205550Y124750D02*Y123250D01*
X206300Y122500D01*
X208550Y125500D02*Y123250D01*
X209300Y122500D01*
X206300D02*X207800D01*
X208550Y123250D01*
X211850Y128500D02*Y123250D01*
X212600Y122500D01*
X211100Y126250D02*X212600D01*
X214850Y122500D02*X217100D01*
X214100Y123250D02*X214850Y122500D01*
X214100Y124750D02*Y123250D01*
Y124750D02*X214850Y125500D01*
X216350D01*
X217100Y124750D01*
X214100Y124000D02*X217100D01*
Y124750D02*Y124000D01*
X218900Y126250D02*X219650D01*
X218900Y124750D02*X219650D01*
X227150Y128500D02*X227900Y127750D01*
X224900Y128500D02*X227150D01*
X224150Y127750D02*X224900Y128500D01*
X224150Y127750D02*Y126250D01*
X224900Y125500D01*
X227150D01*
X227900Y124750D01*
Y123250D01*
X227150Y122500D02*X227900Y123250D01*
X224900Y122500D02*X227150D01*
X224150Y123250D02*X224900Y122500D01*
X229700Y125500D02*Y123250D01*
X230450Y122500D01*
X231950D01*
X232700Y123250D01*
Y125500D02*Y123250D01*
X235250Y124750D02*Y122500D01*
Y124750D02*X236000Y125500D01*
X236750D01*
X237500Y124750D01*
Y122500D01*
X234500Y125500D02*X235250Y124750D01*
X245000Y128500D02*X245750Y127750D01*
X242750Y128500D02*X245000D01*
X242000Y127750D02*X242750Y128500D01*
X242000Y127750D02*Y126250D01*
X242750Y125500D01*
X245000D01*
X245750Y124750D01*
Y123250D01*
X245000Y122500D02*X245750Y123250D01*
X242750Y122500D02*X245000D01*
X242000Y123250D02*X242750Y122500D01*
X248300D02*X250550D01*
X247550Y123250D02*X248300Y122500D01*
X247550Y124750D02*Y123250D01*
Y124750D02*X248300Y125500D01*
X249800D01*
X250550Y124750D01*
X247550Y124000D02*X250550D01*
Y124750D02*Y124000D01*
X253100Y124750D02*Y120250D01*
X252350Y125500D02*X253100Y124750D01*
X253850Y125500D01*
X255350D01*
X256100Y124750D01*
Y123250D01*
X255350Y122500D02*X256100Y123250D01*
X253850Y122500D02*X255350D01*
X253100Y123250D02*X253850Y122500D01*
X263300Y123250D02*X264050Y122500D01*
X263300Y124450D02*Y123250D01*
Y124450D02*X264350Y125500D01*
X265250D01*
X266300Y124450D01*
Y123250D01*
X265550Y122500D02*X266300Y123250D01*
X264050Y122500D02*X265550D01*
X263300Y126550D02*X264350Y125500D01*
X263300Y127750D02*Y126550D01*
Y127750D02*X264050Y128500D01*
X265550D01*
X266300Y127750D01*
Y126550D01*
X265250Y125500D02*X266300Y126550D01*
X270800Y123250D02*X271550Y122500D01*
X270800Y127750D02*Y123250D01*
Y127750D02*X271550Y128500D01*
X273050D01*
X273800Y127750D01*
Y123250D01*
X273050Y122500D02*X273800Y123250D01*
X271550Y122500D02*X273050D01*
X270800Y124000D02*X273800Y127000D01*
X275600Y124750D02*X278600Y128500D01*
X275600Y124750D02*X279350D01*
X278600Y128500D02*Y122500D01*
X281150Y126250D02*X281900D01*
X281150Y124750D02*X281900D01*
X283700Y127750D02*X284450Y128500D01*
X285950D01*
X286700Y127750D01*
X285950Y122500D02*X286700Y123250D01*
X284450Y122500D02*X285950D01*
X283700Y123250D02*X284450Y122500D01*
Y125800D02*X285950D01*
X286700Y127750D02*Y126550D01*
Y125050D02*Y123250D01*
Y125050D02*X285950Y125800D01*
X286700Y126550D02*X285950Y125800D01*
X288500Y127750D02*X289250Y128500D01*
X291500D01*
X292250Y127750D01*
Y126250D01*
X288500Y122500D02*X292250Y126250D01*
X288500Y122500D02*X292250D01*
X294050Y126250D02*X294800D01*
X294050Y124750D02*X294800D01*
X296600Y127300D02*X297800Y128500D01*
Y122500D01*
X296600D02*X298850D01*
X301400D02*X304400Y128500D01*
X300650D02*X304400D01*
X308900Y127750D02*X309650Y128500D01*
X311900D01*
X312650Y127750D01*
Y126250D01*
X308900Y122500D02*X312650Y126250D01*
X308900Y122500D02*X312650D01*
X314450Y123250D02*X315200Y122500D01*
X314450Y127750D02*Y123250D01*
Y127750D02*X315200Y128500D01*
X316700D01*
X317450Y127750D01*
Y123250D01*
X316700Y122500D02*X317450Y123250D01*
X315200Y122500D02*X316700D01*
X314450Y124000D02*X317450Y127000D01*
X319250Y127300D02*X320450Y128500D01*
Y122500D01*
X319250D02*X321500D01*
X323300Y127750D02*X324050Y128500D01*
X325550D01*
X326300Y127750D01*
X325550Y122500D02*X326300Y123250D01*
X324050Y122500D02*X325550D01*
X323300Y123250D02*X324050Y122500D01*
Y125800D02*X325550D01*
X326300Y127750D02*Y126550D01*
Y125050D02*Y123250D01*
Y125050D02*X325550Y125800D01*
X326300Y126550D02*X325550Y125800D01*
X330800Y128500D02*Y123250D01*
X331550Y122500D01*
X333050D01*
X333800Y123250D01*
Y128500D02*Y123250D01*
X335600Y128500D02*X338600D01*
X337100D02*Y122500D01*
X341450D02*X343400D01*
X340400Y123550D02*X341450Y122500D01*
X340400Y127450D02*Y123550D01*
Y127450D02*X341450Y128500D01*
X343400D01*
X200000Y142000D02*Y137500D01*
Y142000D02*X201050Y143500D01*
X202700D01*
X203750Y142000D01*
Y137500D01*
X200000Y140500D02*X203750D01*
X205550D02*Y138250D01*
X206300Y137500D01*
X207800D01*
X208550Y138250D01*
Y140500D02*Y138250D01*
X211100Y143500D02*Y138250D01*
X211850Y137500D01*
X210350Y141250D02*X211850D01*
X213350Y143500D02*Y137500D01*
Y139750D02*X214100Y140500D01*
X215600D01*
X216350Y139750D01*
Y137500D01*
X218150Y139750D02*Y138250D01*
Y139750D02*X218900Y140500D01*
X220400D01*
X221150Y139750D01*
Y138250D01*
X220400Y137500D02*X221150Y138250D01*
X218900Y137500D02*X220400D01*
X218150Y138250D02*X218900Y137500D01*
X223700Y139750D02*Y137500D01*
Y139750D02*X224450Y140500D01*
X225950D01*
X222950D02*X223700Y139750D01*
X227750Y141250D02*X228500D01*
X227750Y139750D02*X228500D01*
X234050Y143500D02*X235250D01*
Y138250D01*
X234500Y137500D02*X235250Y138250D01*
X233750Y137500D02*X234500D01*
X233000Y138250D02*X233750Y137500D01*
X233000Y139000D02*Y138250D01*
X239300Y140500D02*X240050Y139750D01*
X237800Y140500D02*X239300D01*
X237050Y139750D02*X237800Y140500D01*
X237050Y139750D02*Y138250D01*
X237800Y137500D01*
X240050Y140500D02*Y138250D01*
X240800Y137500D01*
X237800D02*X239300D01*
X240050Y138250D01*
X243350Y139750D02*Y137500D01*
Y139750D02*X244100Y140500D01*
X244850D01*
X245600Y139750D01*
Y137500D01*
Y139750D02*X246350Y140500D01*
X247100D01*
X247850Y139750D01*
Y137500D01*
X242600Y140500D02*X243350Y139750D01*
X250400Y137500D02*X252650D01*
X249650Y138250D02*X250400Y137500D01*
X249650Y139750D02*Y138250D01*
Y139750D02*X250400Y140500D01*
X251900D01*
X252650Y139750D01*
X249650Y139000D02*X252650D01*
Y139750D02*Y139000D01*
X255200Y137500D02*X257450D01*
X258200Y138250D01*
X257450Y139000D02*X258200Y138250D01*
X255200Y139000D02*X257450D01*
X254450Y139750D02*X255200Y139000D01*
X254450Y139750D02*X255200Y140500D01*
X257450D01*
X258200Y139750D01*
X254450Y138250D02*X255200Y137500D01*
X263750D02*X265700D01*
X262700Y138550D02*X263750Y137500D01*
X262700Y142450D02*Y138550D01*
Y142450D02*X263750Y143500D01*
X265700D01*
X267500Y139750D02*Y138250D01*
Y139750D02*X268250Y140500D01*
X269750D01*
X270500Y139750D01*
Y138250D01*
X269750Y137500D02*X270500Y138250D01*
X268250Y137500D02*X269750D01*
X267500Y138250D02*X268250Y137500D01*
X272300Y139750D02*Y138250D01*
Y139750D02*X273050Y140500D01*
X274550D01*
X275300Y139750D01*
Y138250D01*
X274550Y137500D02*X275300Y138250D01*
X273050Y137500D02*X274550D01*
X272300Y138250D02*X273050Y137500D01*
X277100Y143500D02*Y137500D01*
Y139750D02*X279350Y137500D01*
X277100Y139750D02*X278600Y141250D01*
X200000Y158500D02*X203000D01*
X201500D02*Y152500D01*
G54D33*X204800Y157000D02*Y156850D01*
G54D32*Y154750D02*Y152500D01*
X207050Y158500D02*Y153250D01*
X207800Y152500D01*
X206300Y156250D02*X207800D01*
X209300Y158500D02*Y153250D01*
X210050Y152500D01*
X212300D02*X214550D01*
X211550Y153250D02*X212300Y152500D01*
X211550Y154750D02*Y153250D01*
Y154750D02*X212300Y155500D01*
X213800D01*
X214550Y154750D01*
X211550Y154000D02*X214550D01*
Y154750D02*Y154000D01*
X216350Y156250D02*X217100D01*
X216350Y154750D02*X217100D01*
X221600Y153250D02*X222350Y152500D01*
X221600Y157750D02*X222350Y158500D01*
X221600Y157750D02*Y153250D01*
X224150Y155500D02*Y153250D01*
X224900Y152500D01*
X226400D01*
X227150Y153250D01*
Y155500D02*Y153250D01*
X229700Y154750D02*Y152500D01*
Y154750D02*X230450Y155500D01*
X231200D01*
X231950Y154750D01*
Y152500D01*
X228950Y155500D02*X229700Y154750D01*
X233750Y158500D02*Y152500D01*
Y154750D02*X236000Y152500D01*
X233750Y154750D02*X235250Y156250D01*
X238550Y154750D02*Y152500D01*
Y154750D02*X239300Y155500D01*
X240050D01*
X240800Y154750D01*
Y152500D01*
X237800Y155500D02*X238550Y154750D01*
X242600D02*Y153250D01*
Y154750D02*X243350Y155500D01*
X244850D01*
X245600Y154750D01*
Y153250D01*
X244850Y152500D02*X245600Y153250D01*
X243350Y152500D02*X244850D01*
X242600Y153250D02*X243350Y152500D01*
X247400Y155500D02*Y153250D01*
X248150Y152500D01*
X248900D01*
X249650Y153250D01*
Y155500D02*Y153250D01*
X250400Y152500D01*
X251150D01*
X251900Y153250D01*
Y155500D02*Y153250D01*
X254450Y154750D02*Y152500D01*
Y154750D02*X255200Y155500D01*
X255950D01*
X256700Y154750D01*
Y152500D01*
X253700Y155500D02*X254450Y154750D01*
X258500Y158500D02*X259250Y157750D01*
Y153250D01*
X258500Y152500D02*X259250Y153250D01*
X263750Y155500D02*X266750D01*
X271250Y158500D02*Y152500D01*
Y158500D02*X274250D01*
X271250Y155800D02*X273500D01*
X278300Y155500D02*X279050Y154750D01*
X276800Y155500D02*X278300D01*
X276050Y154750D02*X276800Y155500D01*
X276050Y154750D02*Y153250D01*
X276800Y152500D01*
X279050Y155500D02*Y153250D01*
X279800Y152500D01*
X276800D02*X278300D01*
X279050Y153250D01*
X281600Y158500D02*Y152500D01*
Y153250D02*X282350Y152500D01*
X283850D01*
X284600Y153250D01*
Y154750D02*Y153250D01*
X283850Y155500D02*X284600Y154750D01*
X282350Y155500D02*X283850D01*
X281600Y154750D02*X282350Y155500D01*
X287150Y154750D02*Y152500D01*
Y154750D02*X287900Y155500D01*
X289400D01*
X286400D02*X287150Y154750D01*
G54D33*X291200Y157000D02*Y156850D01*
G54D32*Y154750D02*Y152500D01*
X293450Y155500D02*X295700D01*
X292700Y154750D02*X293450Y155500D01*
X292700Y154750D02*Y153250D01*
X293450Y152500D01*
X295700D01*
X299750Y155500D02*X300500Y154750D01*
X298250Y155500D02*X299750D01*
X297500Y154750D02*X298250Y155500D01*
X297500Y154750D02*Y153250D01*
X298250Y152500D01*
X300500Y155500D02*Y153250D01*
X301250Y152500D01*
X298250D02*X299750D01*
X300500Y153250D01*
X303800Y158500D02*Y153250D01*
X304550Y152500D01*
X303050Y156250D02*X304550D01*
G54D33*X306050Y157000D02*Y156850D01*
G54D32*Y154750D02*Y152500D01*
X307550Y154750D02*Y153250D01*
Y154750D02*X308300Y155500D01*
X309800D01*
X310550Y154750D01*
Y153250D01*
X309800Y152500D02*X310550Y153250D01*
X308300Y152500D02*X309800D01*
X307550Y153250D02*X308300Y152500D01*
X313100Y154750D02*Y152500D01*
Y154750D02*X313850Y155500D01*
X314600D01*
X315350Y154750D01*
Y152500D01*
X312350Y155500D02*X313100Y154750D01*
X320600Y158500D02*Y152500D01*
X322550Y158500D02*X323600Y157450D01*
Y153550D01*
X322550Y152500D02*X323600Y153550D01*
X319850Y152500D02*X322550D01*
X319850Y158500D02*X322550D01*
X326150Y154750D02*Y152500D01*
Y154750D02*X326900Y155500D01*
X328400D01*
X325400D02*X326150Y154750D01*
X332450Y155500D02*X333200Y154750D01*
X330950Y155500D02*X332450D01*
X330200Y154750D02*X330950Y155500D01*
X330200Y154750D02*Y153250D01*
X330950Y152500D01*
X333200Y155500D02*Y153250D01*
X333950Y152500D01*
X330950D02*X332450D01*
X333200Y153250D01*
X335750Y155500D02*Y153250D01*
X336500Y152500D01*
X337250D01*
X338000Y153250D01*
Y155500D02*Y153250D01*
X338750Y152500D01*
X339500D01*
X340250Y153250D01*
Y155500D02*Y153250D01*
G54D33*X342050Y157000D02*Y156850D01*
G54D32*Y154750D02*Y152500D01*
X344300Y154750D02*Y152500D01*
Y154750D02*X345050Y155500D01*
X345800D01*
X346550Y154750D01*
Y152500D01*
X343550Y155500D02*X344300Y154750D01*
X350600Y155500D02*X351350Y154750D01*
X349100Y155500D02*X350600D01*
X348350Y154750D02*X349100Y155500D01*
X348350Y154750D02*Y153250D01*
X349100Y152500D01*
X350600D01*
X351350Y153250D01*
X348350Y151000D02*X349100Y150250D01*
X350600D01*
X351350Y151000D01*
Y155500D02*Y151000D01*
M02*
