G04 start of page 8 for group -4079 idx -4079 *
G04 Title: (unknown), topsilk *
G04 Creator: pcb 20110918 *
G04 CreationDate: Sun Sep  8 04:32:17 2013 UTC *
G04 For: mokus *
G04 Format: Gerber/RS-274X *
G04 PCB-Dimensions: 40000 100000 *
G04 PCB-Coordinate-Origin: lower left *
%MOIN*%
%FSLAX25Y25*%
%LNTOPSILK*%
%ADD26C,0.0080*%
G54D26*X24852Y32835D02*X25244D01*
X24852Y37165D02*X25244D01*
X14756D02*X15148D01*
X14756Y32835D02*X15148D01*
X14756Y27165D02*X15148D01*
X14756Y22835D02*X15148D01*
X24852D02*X25244D01*
X24852Y27165D02*X25244D01*
X14756Y47165D02*X15148D01*
X14756Y42835D02*X15148D01*
X24852D02*X25244D01*
X24852Y47165D02*X25244D01*
X24852Y2835D02*X25244D01*
X24852Y7165D02*X25244D01*
X14756D02*X15148D01*
X14756Y2835D02*X15148D01*
X14756Y17165D02*X15148D01*
X14756Y12835D02*X15148D01*
X24852D02*X25244D01*
X24852Y17165D02*X25244D01*
X24852Y52835D02*X25244D01*
X24852Y57165D02*X25244D01*
X24852Y62835D02*X25244D01*
X24852Y67165D02*X25244D01*
X14756Y57165D02*X15148D01*
X14756Y52835D02*X15148D01*
X14756Y77165D02*X15148D01*
X14756Y72835D02*X15148D01*
X24852D02*X25244D01*
X24852Y77165D02*X25244D01*
X14756Y67165D02*X15148D01*
X14756Y62835D02*X15148D01*
X14756Y87165D02*X15148D01*
X14756Y82835D02*X15148D01*
X24852D02*X25244D01*
X24852Y87165D02*X25244D01*
X14756Y97165D02*X15148D01*
X14756Y92835D02*X15148D01*
M02*
